# SSTK version 0.8.0
# 3
mtllib original-3.mtl
o group_3/ID7#ID7
v -0.303774 -0.069424 0.739150
v -0.302600 -0.070762 0.339989
v -0.302600 -0.070762 0.739150
v -0.303774 -0.069424 0.339989
v -0.303774 -0.069424 0.339989
v -0.303774 -0.069424 0.739150
v -0.302600 -0.070762 0.339989
v -0.302600 -0.070762 0.739150
v -0.306594 -0.061033 0.739150
v 0.089620 -0.010822 0.739150
v -0.306594 -0.010822 0.739150
v -0.306471 -0.062913 0.739150
v -0.306124 -0.064660 0.739150
v -0.305551 -0.066346 0.739150
v -0.304764 -0.067943 0.739150
v -0.303774 -0.069424 0.739150
v -0.302600 -0.070762 0.739150
v -0.301261 -0.071937 0.739150
v -0.299781 -0.072926 0.739150
v -0.298184 -0.073714 0.739150
v -0.296497 -0.074286 0.739150
v -0.294751 -0.074633 0.739150
v -0.292871 -0.074757 0.739150
v 0.075896 -0.074757 0.739150
v 0.077776 -0.074633 0.739150
v 0.079523 -0.074286 0.739150
v 0.081209 -0.073714 0.739150
v 0.082806 -0.072926 0.739150
v 0.084287 -0.071937 0.739150
v 0.085626 -0.070762 0.739150
v 0.086800 -0.069424 0.739150
v 0.087789 -0.067943 0.739150
v 0.088577 -0.066346 0.739150
v 0.089149 -0.064660 0.739150
v 0.089497 -0.062913 0.739150
v 0.089620 -0.061033 0.739150
v 0.089620 -0.061033 0.739150
v 0.089497 -0.062913 0.739150
v 0.089620 -0.010822 0.739150
v 0.089149 -0.064660 0.739150
v 0.088577 -0.066346 0.739150
v 0.087789 -0.067943 0.739150
v 0.086800 -0.069424 0.739150
v 0.085626 -0.070762 0.739150
v 0.084287 -0.071937 0.739150
v 0.082806 -0.072926 0.739150
v 0.081209 -0.073714 0.739150
v 0.079523 -0.074286 0.739150
v 0.077776 -0.074633 0.739150
v 0.075896 -0.074757 0.739150
v -0.292871 -0.074757 0.739150
v -0.294751 -0.074633 0.739150
v -0.296497 -0.074286 0.739150
v -0.298184 -0.073714 0.739150
v -0.299781 -0.072926 0.739150
v -0.301261 -0.071937 0.739150
v -0.302600 -0.070762 0.739150
v -0.303774 -0.069424 0.739150
v -0.304764 -0.067943 0.739150
v -0.305551 -0.066346 0.739150
v -0.306124 -0.064660 0.739150
v -0.306471 -0.062913 0.739150
v -0.306594 -0.061033 0.739150
v -0.306594 -0.010822 0.739150
v -0.304764 -0.067943 0.739150
v -0.303774 -0.069424 0.339989
v -0.303774 -0.069424 0.739150
v -0.304764 -0.067943 0.339989
v -0.304764 -0.067943 0.339989
v -0.304764 -0.067943 0.739150
v -0.303774 -0.069424 0.339989
v -0.303774 -0.069424 0.739150
v 0.089620 0.005950 0.339989
v -0.306594 -0.061033 0.339989
v -0.306594 0.005950 0.339989
v -0.306471 -0.062913 0.339989
v -0.306124 -0.064660 0.339989
v -0.305551 -0.066346 0.339989
v -0.304764 -0.067943 0.339989
v -0.303774 -0.069424 0.339989
v -0.302600 -0.070762 0.339989
v -0.301261 -0.071937 0.339989
v -0.299781 -0.072926 0.339989
v -0.298184 -0.073714 0.339989
v -0.296497 -0.074286 0.339989
v -0.294751 -0.074633 0.339989
v -0.292871 -0.074757 0.339989
v 0.075896 -0.074757 0.339989
v 0.077776 -0.074633 0.339989
v 0.079523 -0.074286 0.339989
v 0.081209 -0.073714 0.339989
v 0.082806 -0.072926 0.339989
v 0.084287 -0.071937 0.339989
v 0.085626 -0.070762 0.339989
v 0.086800 -0.069424 0.339989
v 0.087789 -0.067943 0.339989
v 0.088577 -0.066346 0.339989
v 0.089149 -0.064660 0.339989
v 0.089497 -0.062913 0.339989
v 0.089620 -0.061033 0.339989
v 0.089620 -0.061033 0.339989
v 0.089620 0.005950 0.339989
v 0.089497 -0.062913 0.339989
v 0.089149 -0.064660 0.339989
v 0.088577 -0.066346 0.339989
v 0.087789 -0.067943 0.339989
v 0.086800 -0.069424 0.339989
v 0.085626 -0.070762 0.339989
v 0.084287 -0.071937 0.339989
v 0.082806 -0.072926 0.339989
v 0.081209 -0.073714 0.339989
v 0.079523 -0.074286 0.339989
v 0.077776 -0.074633 0.339989
v 0.075896 -0.074757 0.339989
v -0.292871 -0.074757 0.339989
v -0.294751 -0.074633 0.339989
v -0.296497 -0.074286 0.339989
v -0.298184 -0.073714 0.339989
v -0.299781 -0.072926 0.339989
v -0.301261 -0.071937 0.339989
v -0.302600 -0.070762 0.339989
v -0.303774 -0.069424 0.339989
v -0.304764 -0.067943 0.339989
v -0.305551 -0.066346 0.339989
v -0.306124 -0.064660 0.339989
v -0.306471 -0.062913 0.339989
v -0.306594 -0.061033 0.339989
v -0.306594 0.005950 0.339989
v -0.301261 -0.071937 0.739150
v -0.302600 -0.070762 0.339989
v -0.301261 -0.071937 0.339989
v -0.302600 -0.070762 0.739150
v -0.302600 -0.070762 0.739150
v -0.301261 -0.071937 0.739150
v -0.302600 -0.070762 0.339989
v -0.301261 -0.071937 0.339989
v 0.089620 0.005950 0.339989
v 0.089620 -0.061033 0.739150
v 0.089620 -0.061033 0.339989
v 0.089620 -0.010822 0.739150
v 0.089620 0.005950 0.722379
v 0.089620 0.005950 0.722379
v 0.089620 0.005950 0.339989
v 0.089620 -0.010822 0.739150
v 0.089620 -0.061033 0.739150
v 0.089620 -0.061033 0.339989
v 0.089620 -0.010822 0.739150
v -0.306594 0.005950 0.722379
v -0.306594 -0.010822 0.739150
v 0.089620 0.005950 0.722379
v 0.089620 0.005950 0.722379
v 0.089620 -0.010822 0.739150
v -0.306594 0.005950 0.722379
v -0.306594 -0.010822 0.739150
v -0.306594 -0.010822 0.739150
v -0.306594 -0.061033 0.339989
v -0.306594 -0.061033 0.739150
v -0.306594 0.005950 0.339989
v -0.306594 0.005950 0.722379
v -0.306594 0.005950 0.722379
v -0.306594 -0.010822 0.739150
v -0.306594 0.005950 0.339989
v -0.306594 -0.061033 0.339989
v -0.306594 -0.061033 0.739150
v -0.306594 -0.061033 0.739150
v -0.306471 -0.062913 0.339989
v -0.306471 -0.062913 0.739150
v -0.306594 -0.061033 0.339989
v -0.306594 -0.061033 0.339989
v -0.306594 -0.061033 0.739150
v -0.306471 -0.062913 0.339989
v -0.306471 -0.062913 0.739150
v -0.306471 -0.062913 0.739150
v -0.306124 -0.064660 0.339989
v -0.306124 -0.064660 0.739150
v -0.306471 -0.062913 0.339989
v -0.306471 -0.062913 0.339989
v -0.306471 -0.062913 0.739150
v -0.306124 -0.064660 0.339989
v -0.306124 -0.064660 0.739150
v -0.306124 -0.064660 0.739150
v -0.305551 -0.066346 0.339989
v -0.305551 -0.066346 0.739150
v -0.306124 -0.064660 0.339989
v -0.306124 -0.064660 0.339989
v -0.306124 -0.064660 0.739150
v -0.305551 -0.066346 0.339989
v -0.305551 -0.066346 0.739150
v -0.305551 -0.066346 0.739150
v -0.304764 -0.067943 0.339989
v -0.304764 -0.067943 0.739150
v -0.305551 -0.066346 0.339989
v -0.305551 -0.066346 0.339989
v -0.305551 -0.066346 0.739150
v -0.304764 -0.067943 0.339989
v -0.304764 -0.067943 0.739150
v -0.299781 -0.072926 0.739150
v -0.301261 -0.071937 0.339989
v -0.299781 -0.072926 0.339989
v -0.301261 -0.071937 0.739150
v -0.301261 -0.071937 0.739150
v -0.299781 -0.072926 0.739150
v -0.301261 -0.071937 0.339989
v -0.299781 -0.072926 0.339989
v -0.298184 -0.073714 0.739150
v -0.299781 -0.072926 0.339989
v -0.298184 -0.073714 0.339989
v -0.299781 -0.072926 0.739150
v -0.299781 -0.072926 0.739150
v -0.298184 -0.073714 0.739150
v -0.299781 -0.072926 0.339989
v -0.298184 -0.073714 0.339989
v -0.296497 -0.074286 0.739150
v -0.298184 -0.073714 0.339989
v -0.296497 -0.074286 0.339989
v -0.298184 -0.073714 0.739150
v -0.298184 -0.073714 0.739150
v -0.296497 -0.074286 0.739150
v -0.298184 -0.073714 0.339989
v -0.296497 -0.074286 0.339989
v -0.294751 -0.074633 0.739150
v -0.296497 -0.074286 0.339989
v -0.294751 -0.074633 0.339989
v -0.296497 -0.074286 0.739150
v -0.296497 -0.074286 0.739150
v -0.294751 -0.074633 0.739150
v -0.296497 -0.074286 0.339989
v -0.294751 -0.074633 0.339989
v -0.292871 -0.074757 0.739150
v -0.294751 -0.074633 0.339989
v -0.292871 -0.074757 0.339989
v -0.294751 -0.074633 0.739150
v -0.294751 -0.074633 0.739150
v -0.292871 -0.074757 0.739150
v -0.294751 -0.074633 0.339989
v -0.292871 -0.074757 0.339989
v 0.075896 -0.074757 0.739150
v -0.292871 -0.074757 0.339989
v 0.075896 -0.074757 0.339989
v -0.292871 -0.074757 0.739150
v -0.292871 -0.074757 0.739150
v 0.075896 -0.074757 0.739150
v -0.292871 -0.074757 0.339989
v 0.075896 -0.074757 0.339989
v 0.077776 -0.074633 0.739150
v 0.075896 -0.074757 0.339989
v 0.077776 -0.074633 0.339989
v 0.075896 -0.074757 0.739150
v 0.075896 -0.074757 0.739150
v 0.077776 -0.074633 0.739150
v 0.075896 -0.074757 0.339989
v 0.077776 -0.074633 0.339989
v 0.079523 -0.074286 0.739150
v 0.077776 -0.074633 0.339989
v 0.079523 -0.074286 0.339989
v 0.077776 -0.074633 0.739150
v 0.077776 -0.074633 0.739150
v 0.079523 -0.074286 0.739150
v 0.077776 -0.074633 0.339989
v 0.079523 -0.074286 0.339989
v 0.081209 -0.073714 0.739150
v 0.079523 -0.074286 0.339989
v 0.081209 -0.073714 0.339989
v 0.079523 -0.074286 0.739150
v 0.079523 -0.074286 0.739150
v 0.081209 -0.073714 0.739150
v 0.079523 -0.074286 0.339989
v 0.081209 -0.073714 0.339989
v 0.082806 -0.072926 0.739150
v 0.081209 -0.073714 0.339989
v 0.082806 -0.072926 0.339989
v 0.081209 -0.073714 0.739150
v 0.081209 -0.073714 0.739150
v 0.082806 -0.072926 0.739150
v 0.081209 -0.073714 0.339989
v 0.082806 -0.072926 0.339989
v 0.084287 -0.071937 0.739150
v 0.082806 -0.072926 0.339989
v 0.084287 -0.071937 0.339989
v 0.082806 -0.072926 0.739150
v 0.082806 -0.072926 0.739150
v 0.084287 -0.071937 0.739150
v 0.082806 -0.072926 0.339989
v 0.084287 -0.071937 0.339989
v 0.085626 -0.070762 0.739150
v 0.084287 -0.071937 0.339989
v 0.085626 -0.070762 0.339989
v 0.084287 -0.071937 0.739150
v 0.084287 -0.071937 0.739150
v 0.085626 -0.070762 0.739150
v 0.084287 -0.071937 0.339989
v 0.085626 -0.070762 0.339989
v 0.086800 -0.069424 0.339989
v 0.085626 -0.070762 0.739150
v 0.085626 -0.070762 0.339989
v 0.086800 -0.069424 0.739150
v 0.086800 -0.069424 0.739150
v 0.086800 -0.069424 0.339989
v 0.085626 -0.070762 0.739150
v 0.085626 -0.070762 0.339989
v 0.087789 -0.067943 0.339989
v 0.086800 -0.069424 0.739150
v 0.086800 -0.069424 0.339989
v 0.087789 -0.067943 0.739150
v 0.087789 -0.067943 0.739150
v 0.087789 -0.067943 0.339989
v 0.086800 -0.069424 0.739150
v 0.086800 -0.069424 0.339989
v 0.088577 -0.066346 0.339989
v 0.087789 -0.067943 0.739150
v 0.087789 -0.067943 0.339989
v 0.088577 -0.066346 0.739150
v 0.088577 -0.066346 0.739150
v 0.088577 -0.066346 0.339989
v 0.087789 -0.067943 0.739150
v 0.087789 -0.067943 0.339989
v 0.089149 -0.064660 0.339989
v 0.088577 -0.066346 0.739150
v 0.088577 -0.066346 0.339989
v 0.089149 -0.064660 0.739150
v 0.089149 -0.064660 0.739150
v 0.089149 -0.064660 0.339989
v 0.088577 -0.066346 0.739150
v 0.088577 -0.066346 0.339989
v 0.089497 -0.062913 0.339989
v 0.089149 -0.064660 0.739150
v 0.089149 -0.064660 0.339989
v 0.089497 -0.062913 0.739150
v 0.089497 -0.062913 0.739150
v 0.089497 -0.062913 0.339989
v 0.089149 -0.064660 0.739150
v 0.089149 -0.064660 0.339989
v 0.089620 -0.061033 0.339989
v 0.089497 -0.062913 0.739150
v 0.089497 -0.062913 0.339989
v 0.089620 -0.061033 0.739150
v 0.089620 -0.061033 0.739150
v 0.089620 -0.061033 0.339989
v 0.089497 -0.062913 0.739150
v 0.089497 -0.062913 0.339989
v -0.306594 0.005950 0.722379
v 0.089620 0.005950 0.339989
v -0.306594 0.005950 0.339989
v 0.089620 0.005950 0.722379
v 0.089620 0.005950 0.722379
v -0.306594 0.005950 0.722379
v 0.089620 0.005950 0.339989
v -0.306594 0.005950 0.339989
vn -0.7518398117130328 -0.659345810272054 0
vn 0.7518398117130328 0.659345810272054 0
vn 0 0 1
vn 0 0 -1
vn -0.8314696237583302 -0.555570215874808 0
vn 0.8314696237583302 0.555570215874808 0
vn -0.659345810272054 -0.7518398117130328 0
vn 0.659345810272054 0.7518398117130328 0
vn 1 0 0
vn -1 0 0
vn 0 0.7071067811865476 0.7071067811865476
vn 0 -0.7071067811865476 -0.7071067811865476
vn -0.9978589230889555 -0.06540313151333016 0
vn 0.9978589230889555 0.06540313151333016 0
vn -0.9807852853616915 -0.19509029708825978 0
vn 0.9807852853616915 0.19509029708825978 0
vn -0.9469301158865235 -0.3214395053927488 0
vn 0.9469301158865235 0.3214395053927488 0
vn -0.8968727295281987 -0.44228871456169716 0
vn 0.8968727295281987 0.44228871456169716 0
vn -0.555570215874808 -0.8314696237583302 0
vn 0.555570215874808 0.8314696237583302 0
vn -0.44228871456169716 -0.8968727295281987 0
vn 0.44228871456169716 0.8968727295281987 0
vn -0.3214395053927488 -0.9469301158865235 0
vn 0.3214395053927488 0.9469301158865235 0
vn -0.19509029708825978 -0.9807852853616915 0
vn 0.19509029708825978 0.9807852853616915 0
vn -0.06540313151333016 -0.9978589230889555 0
vn 0.06540313151333016 0.9978589230889555 0
vn 0 -1 0
vn 0 1 0
vn 0.06540313151333016 -0.9978589230889555 0
vn -0.06540313151333016 0.9978589230889555 0
vn 0.19509029708825978 -0.9807852853616915 0
vn -0.19509029708825978 0.9807852853616915 0
vn 0.3214395053927488 -0.9469301158865235 0
vn -0.3214395053927488 0.9469301158865235 0
vn 0.44228871456169716 -0.8968727295281987 0
vn -0.44228871456169716 0.8968727295281987 0
vn 0.555570215874808 -0.8314696237583302 0
vn -0.555570215874808 0.8314696237583302 0
vn 0.659345810272054 -0.7518398117130328 0
vn -0.659345810272054 0.7518398117130328 0
vn 0.7518398117130328 -0.659345810272054 0
vn -0.7518398117130328 0.659345810272054 0
vn 0.8314696237583302 -0.555570215874808 0
vn -0.8314696237583302 0.555570215874808 0
vn 0.8968727295281987 -0.44228871456169716 0
vn -0.8968727295281987 0.44228871456169716 0
vn 0.9469301158865235 -0.3214395053927488 0
vn -0.9469301158865235 0.3214395053927488 0
vn 0.9807852853616915 -0.19509029708825978 0
vn -0.9807852853616915 0.19509029708825978 0
vn 0.9978589230889555 -0.06540313151333016 0
vn -0.9978589230889555 0.06540313151333016 0
usemtl material_0_0
f 1//1 2//1 3//1
f 2//1 1//1 4//1
f 5//2 6//2 7//2
f 8//2 7//2 6//2
f 9//3 10//3 11//3
f 10//3 9//3 12//3
f 10//3 12//3 13//3
f 10//3 13//3 14//3
f 10//3 14//3 15//3
f 10//3 15//3 16//3
f 10//3 16//3 17//3
f 10//3 17//3 18//3
f 10//3 18//3 19//3
f 10//3 19//3 20//3
f 10//3 20//3 21//3
f 10//3 21//3 22//3
f 10//3 22//3 23//3
f 10//3 23//3 24//3
f 10//3 24//3 25//3
f 10//3 25//3 26//3
f 10//3 26//3 27//3
f 10//3 27//3 28//3
f 10//3 28//3 29//3
f 10//3 29//3 30//3
f 10//3 30//3 31//3
f 10//3 31//3 32//3
f 10//3 32//3 33//3
f 10//3 33//3 34//3
f 10//3 34//3 35//3
f 10//3 35//3 36//3
f 37//4 38//4 39//4
f 38//4 40//4 39//4
f 40//4 41//4 39//4
f 41//4 42//4 39//4
f 42//4 43//4 39//4
f 43//4 44//4 39//4
f 44//4 45//4 39//4
f 45//4 46//4 39//4
f 46//4 47//4 39//4
f 47//4 48//4 39//4
f 48//4 49//4 39//4
f 49//4 50//4 39//4
f 50//4 51//4 39//4
f 51//4 52//4 39//4
f 52//4 53//4 39//4
f 53//4 54//4 39//4
f 54//4 55//4 39//4
f 55//4 56//4 39//4
f 56//4 57//4 39//4
f 57//4 58//4 39//4
f 58//4 59//4 39//4
f 59//4 60//4 39//4
f 60//4 61//4 39//4
f 61//4 62//4 39//4
f 62//4 63//4 39//4
f 64//4 39//4 63//4
f 65//5 66//5 67//5
f 66//5 65//5 68//5
f 69//6 70//6 71//6
f 72//6 71//6 70//6
f 73//4 74//4 75//4
f 74//4 73//4 76//4
f 76//4 73//4 77//4
f 77//4 73//4 78//4
f 78//4 73//4 79//4
f 79//4 73//4 80//4
f 80//4 73//4 81//4
f 81//4 73//4 82//4
f 82//4 73//4 83//4
f 83//4 73//4 84//4
f 84//4 73//4 85//4
f 85//4 73//4 86//4
f 86//4 73//4 87//4
f 87//4 73//4 88//4
f 88//4 73//4 89//4
f 89//4 73//4 90//4
f 90//4 73//4 91//4
f 91//4 73//4 92//4
f 92//4 73//4 93//4
f 93//4 73//4 94//4
f 94//4 73//4 95//4
f 95//4 73//4 96//4
f 96//4 73//4 97//4
f 97//4 73//4 98//4
f 98//4 73//4 99//4
f 99//4 73//4 100//4
f 101//3 102//3 103//3
f 103//3 102//3 104//3
f 104//3 102//3 105//3
f 105//3 102//3 106//3
f 106//3 102//3 107//3
f 107//3 102//3 108//3
f 108//3 102//3 109//3
f 109//3 102//3 110//3
f 110//3 102//3 111//3
f 111//3 102//3 112//3
f 112//3 102//3 113//3
f 113//3 102//3 114//3
f 114//3 102//3 115//3
f 115//3 102//3 116//3
f 116//3 102//3 117//3
f 117//3 102//3 118//3
f 118//3 102//3 119//3
f 119//3 102//3 120//3
f 120//3 102//3 121//3
f 121//3 102//3 122//3
f 122//3 102//3 123//3
f 123//3 102//3 124//3
f 124//3 102//3 125//3
f 125//3 102//3 126//3
f 126//3 102//3 127//3
f 128//3 127//3 102//3
f 129//7 130//7 131//7
f 130//7 129//7 132//7
f 133//8 134//8 135//8
f 136//8 135//8 134//8
f 137//9 138//9 139//9
f 138//9 137//9 140//9
f 140//9 137//9 141//9
f 142//10 143//10 144//10
f 144//10 143//10 145//10
f 146//10 145//10 143//10
f 147//11 148//11 149//11
f 148//11 147//11 150//11
f 151//12 152//12 153//12
f 154//12 153//12 152//12
f 155//10 156//10 157//10
f 156//10 155//10 158//10
f 158//10 155//10 159//10
f 160//9 161//9 162//9
f 162//9 161//9 163//9
f 164//9 163//9 161//9
f 165//13 166//13 167//13
f 166//13 165//13 168//13
f 169//14 170//14 171//14
f 172//14 171//14 170//14
f 173//15 174//15 175//15
f 174//15 173//15 176//15
f 177//16 178//16 179//16
f 180//16 179//16 178//16
f 181//17 182//17 183//17
f 182//17 181//17 184//17
f 185//18 186//18 187//18
f 188//18 187//18 186//18
f 189//19 190//19 191//19
f 190//19 189//19 192//19
f 193//20 194//20 195//20
f 196//20 195//20 194//20
f 197//21 198//21 199//21
f 198//21 197//21 200//21
f 201//22 202//22 203//22
f 204//22 203//22 202//22
f 205//23 206//23 207//23
f 206//23 205//23 208//23
f 209//24 210//24 211//24
f 212//24 211//24 210//24
f 213//25 214//25 215//25
f 214//25 213//25 216//25
f 217//26 218//26 219//26
f 220//26 219//26 218//26
f 221//27 222//27 223//27
f 222//27 221//27 224//27
f 225//28 226//28 227//28
f 228//28 227//28 226//28
f 229//29 230//29 231//29
f 230//29 229//29 232//29
f 233//30 234//30 235//30
f 236//30 235//30 234//30
f 237//31 238//31 239//31
f 238//31 237//31 240//31
f 241//32 242//32 243//32
f 244//32 243//32 242//32
f 245//33 246//33 247//33
f 246//33 245//33 248//33
f 249//34 250//34 251//34
f 252//34 251//34 250//34
f 253//35 254//35 255//35
f 254//35 253//35 256//35
f 257//36 258//36 259//36
f 260//36 259//36 258//36
f 261//37 262//37 263//37
f 262//37 261//37 264//37
f 265//38 266//38 267//38
f 268//38 267//38 266//38
f 269//39 270//39 271//39
f 270//39 269//39 272//39
f 273//40 274//40 275//40
f 276//40 275//40 274//40
f 277//41 278//41 279//41
f 278//41 277//41 280//41
f 281//42 282//42 283//42
f 284//42 283//42 282//42
f 285//43 286//43 287//43
f 286//43 285//43 288//43
f 289//44 290//44 291//44
f 292//44 291//44 290//44
f 293//45 294//45 295//45
f 294//45 293//45 296//45
f 297//46 298//46 299//46
f 300//46 299//46 298//46
f 301//47 302//47 303//47
f 302//47 301//47 304//47
f 305//48 306//48 307//48
f 308//48 307//48 306//48
f 309//49 310//49 311//49
f 310//49 309//49 312//49
f 313//50 314//50 315//50
f 316//50 315//50 314//50
f 317//51 318//51 319//51
f 318//51 317//51 320//51
f 321//52 322//52 323//52
f 324//52 323//52 322//52
f 325//53 326//53 327//53
f 326//53 325//53 328//53
f 329//54 330//54 331//54
f 332//54 331//54 330//54
f 333//55 334//55 335//55
f 334//55 333//55 336//55
f 337//56 338//56 339//56
f 340//56 339//56 338//56
f 341//32 342//32 343//32
f 342//32 341//32 344//32
f 345//31 346//31 347//31
f 348//31 347//31 346//31
