# SSTK version 0.8.0
# 13
mtllib original-13.mtl
o #ID142
v -0.125998 0.143321 -0.258302
v -0.090975 0.143320 -0.258302
v -0.108487 0.143320 -0.259220
v -0.143318 0.143321 -0.255559
v -0.073655 0.143319 -0.255559
v -0.160257 0.143321 -0.251020
v -0.056717 0.143318 -0.251020
v -0.176628 0.143320 -0.244736
v -0.040346 0.143316 -0.244736
v -0.192252 0.143319 -0.236775
v -0.024721 0.143314 -0.236775
v -0.206959 0.143318 -0.227224
v -0.010014 0.143313 -0.227224
v -0.220587 0.143317 -0.216189
v 0.003613 0.143310 -0.216189
v -0.232986 0.143315 -0.203789
v 0.016013 0.143308 -0.203789
v -0.244022 0.143313 -0.190161
v 0.027049 0.143305 -0.190161
v -0.253573 0.143311 -0.175455
v 0.036599 0.143303 -0.175455
v -0.261534 0.143309 -0.159830
v 0.044560 0.143300 -0.159830
v -0.267818 0.143306 -0.143459
v 0.050845 0.143297 -0.143459
v -0.272357 0.143303 -0.126521
v 0.055383 0.143294 -0.126521
v -0.275100 0.143301 -0.109201
v 0.058127 0.143291 -0.109201
v -0.276018 0.143298 -0.091689
v 0.059044 0.143289 -0.091689
v -0.275100 0.143295 -0.074177
v 0.058127 0.143286 -0.074177
v -0.272357 0.143292 -0.056857
v 0.055383 0.143283 -0.056857
v -0.267818 0.143289 -0.039919
v 0.050845 0.143280 -0.039919
v -0.261534 0.143286 -0.023548
v 0.044560 0.143278 -0.023548
v -0.253573 0.143284 -0.007924
v 0.036599 0.143275 -0.007924
v -0.244022 0.143281 0.006783
v 0.027049 0.143273 0.006783
v -0.232986 0.143278 0.020411
v 0.016013 0.143271 0.020411
v -0.220587 0.143276 0.032811
v 0.003613 0.143270 0.032811
v -0.206959 0.143274 0.043846
v -0.010015 0.143268 0.043846
v -0.192252 0.143272 0.053397
v -0.024721 0.143267 0.053397
v -0.176628 0.143270 0.061358
v -0.040346 0.143266 0.061358
v -0.160257 0.143269 0.067642
v -0.056717 0.143266 0.067642
v -0.143318 0.143267 0.072181
v -0.073655 0.143266 0.072181
v -0.125998 0.143267 0.074924
v -0.090975 0.143266 0.074924
v -0.108487 0.143266 0.075842
v -0.108487 0.143266 0.075842
v -0.125998 0.143267 0.074924
v -0.090975 0.143266 0.074924
v -0.073655 0.143266 0.072181
v -0.143318 0.143267 0.072181
v -0.056717 0.143266 0.067642
v -0.160257 0.143269 0.067642
v -0.040346 0.143266 0.061358
v -0.176628 0.143270 0.061358
v -0.024721 0.143267 0.053397
v -0.192252 0.143272 0.053397
v -0.010015 0.143268 0.043846
v -0.206959 0.143274 0.043846
v 0.003613 0.143270 0.032811
v -0.220587 0.143276 0.032811
v 0.016013 0.143271 0.020411
v -0.232986 0.143278 0.020411
v 0.027049 0.143273 0.006783
v -0.244022 0.143281 0.006783
v 0.036599 0.143275 -0.007924
v -0.253573 0.143284 -0.007924
v 0.044560 0.143278 -0.023548
v -0.261534 0.143286 -0.023548
v 0.050845 0.143280 -0.039919
v -0.267818 0.143289 -0.039919
v 0.055383 0.143283 -0.056857
v -0.272357 0.143292 -0.056857
v 0.058127 0.143286 -0.074177
v -0.275100 0.143295 -0.074177
v 0.059044 0.143289 -0.091689
v -0.276018 0.143298 -0.091689
v 0.058127 0.143291 -0.109201
v -0.275100 0.143301 -0.109201
v 0.055383 0.143294 -0.126521
v -0.272357 0.143303 -0.126521
v 0.050845 0.143297 -0.143459
v -0.267818 0.143306 -0.143459
v 0.044560 0.143300 -0.159830
v -0.261534 0.143309 -0.159830
v 0.036599 0.143303 -0.175455
v -0.253573 0.143311 -0.175455
v 0.027049 0.143305 -0.190161
v -0.244022 0.143313 -0.190161
v 0.016013 0.143308 -0.203789
v -0.232986 0.143315 -0.203789
v 0.003613 0.143310 -0.216189
v -0.220587 0.143317 -0.216189
v -0.010014 0.143313 -0.227224
v -0.206959 0.143318 -0.227224
v -0.024721 0.143314 -0.236775
v -0.192252 0.143319 -0.236775
v -0.040346 0.143316 -0.244736
v -0.176628 0.143320 -0.244736
v -0.056717 0.143318 -0.251020
v -0.160257 0.143321 -0.251020
v -0.073655 0.143319 -0.255559
v -0.143318 0.143321 -0.255559
v -0.090975 0.143320 -0.258302
v -0.125998 0.143321 -0.258302
v -0.108487 0.143320 -0.259220
v 0.003614 0.153335 0.032812
v 0.016013 0.143271 0.020411
v 0.003613 0.143270 0.032811
v 0.016013 0.153336 0.020413
v 0.016013 0.153336 0.020413
v 0.003614 0.153335 0.032812
v 0.016013 0.143271 0.020411
v 0.003613 0.143270 0.032811
v 0.027049 0.143273 0.006783
v 0.027049 0.153338 0.006785
v 0.027049 0.153338 0.006785
v 0.027049 0.143273 0.006783
v 0.036599 0.143275 -0.007924
v 0.036600 0.153340 -0.007922
v 0.036600 0.153340 -0.007922
v 0.036599 0.143275 -0.007924
v 0.044560 0.143278 -0.023548
v 0.044561 0.153343 -0.023546
v 0.044561 0.153343 -0.023546
v 0.044560 0.143278 -0.023548
v 0.050845 0.143280 -0.039919
v 0.050845 0.153345 -0.039918
v 0.050845 0.153345 -0.039918
v 0.050845 0.143280 -0.039919
v 0.055383 0.143283 -0.056857
v 0.055384 0.153348 -0.056856
v 0.055384 0.153348 -0.056856
v 0.055383 0.143283 -0.056857
v 0.058127 0.143286 -0.074177
v 0.058127 0.153350 -0.074176
v 0.058127 0.153350 -0.074176
v 0.058127 0.143286 -0.074177
v 0.059044 0.143289 -0.091689
v 0.059045 0.153353 -0.091687
v 0.059045 0.153353 -0.091687
v 0.059044 0.143289 -0.091689
v 0.058127 0.143291 -0.109201
v 0.058127 0.153356 -0.109199
v 0.058127 0.153356 -0.109199
v 0.058127 0.143291 -0.109201
v 0.055383 0.143294 -0.126521
v 0.055384 0.153359 -0.126519
v 0.055384 0.153359 -0.126519
v 0.055383 0.143294 -0.126521
v 0.050845 0.143297 -0.143459
v 0.050845 0.153362 -0.143457
v 0.050845 0.153362 -0.143457
v 0.050845 0.143297 -0.143459
v 0.044560 0.143300 -0.159830
v 0.044561 0.153365 -0.159828
v 0.044561 0.153365 -0.159828
v 0.044560 0.143300 -0.159830
v 0.036599 0.143303 -0.175455
v 0.036600 0.153367 -0.175453
v 0.036600 0.153367 -0.175453
v 0.036599 0.143303 -0.175455
v 0.027049 0.143305 -0.190161
v 0.027049 0.153370 -0.190160
v 0.027049 0.153370 -0.190160
v 0.027049 0.143305 -0.190161
v 0.016013 0.143308 -0.203789
v 0.016013 0.153373 -0.203788
v 0.016013 0.153373 -0.203788
v 0.016013 0.143308 -0.203789
v 0.003613 0.143310 -0.216189
v 0.003614 0.153375 -0.216187
v 0.003614 0.153375 -0.216187
v 0.003613 0.143310 -0.216189
v -0.010014 0.153377 -0.227223
v -0.010014 0.143313 -0.227224
v -0.010014 0.153377 -0.227223
v -0.010014 0.143313 -0.227224
v -0.024721 0.153379 -0.236774
v -0.024721 0.143314 -0.236775
v -0.024721 0.153379 -0.236774
v -0.024721 0.143314 -0.236775
v -0.040345 0.153381 -0.244735
v -0.040346 0.143316 -0.244736
v -0.040345 0.153381 -0.244735
v -0.040346 0.143316 -0.244736
v -0.056716 0.153382 -0.251019
v -0.056717 0.143318 -0.251020
v -0.056716 0.153382 -0.251019
v -0.056717 0.143318 -0.251020
v -0.073655 0.153384 -0.255557
v -0.073655 0.143319 -0.255559
v -0.073655 0.153384 -0.255557
v -0.073655 0.143319 -0.255559
v -0.090975 0.153385 -0.258301
v -0.090975 0.143320 -0.258302
v -0.090975 0.153385 -0.258301
v -0.090975 0.143320 -0.258302
v -0.108486 0.153385 -0.259218
v -0.108487 0.143320 -0.259220
v -0.108486 0.153385 -0.259218
v -0.108487 0.143320 -0.259220
v -0.125998 0.153386 -0.258301
v -0.125998 0.143321 -0.258302
v -0.125998 0.153386 -0.258301
v -0.125998 0.143321 -0.258302
v -0.143318 0.153386 -0.255557
v -0.143318 0.143321 -0.255559
v -0.143318 0.153386 -0.255557
v -0.143318 0.143321 -0.255559
v -0.160256 0.153385 -0.251019
v -0.160257 0.143321 -0.251020
v -0.160256 0.153385 -0.251019
v -0.160257 0.143321 -0.251020
v -0.176627 0.153385 -0.244735
v -0.176628 0.143320 -0.244736
v -0.176627 0.153385 -0.244735
v -0.176628 0.143320 -0.244736
v -0.192252 0.153384 -0.236774
v -0.192252 0.143319 -0.236775
v -0.192252 0.153384 -0.236774
v -0.192252 0.143319 -0.236775
v -0.206959 0.153383 -0.227223
v -0.206959 0.143318 -0.227224
v -0.206959 0.153383 -0.227223
v -0.206959 0.143318 -0.227224
v -0.220586 0.153381 -0.216187
v -0.220587 0.143317 -0.216189
v -0.220586 0.153381 -0.216187
v -0.220587 0.143317 -0.216189
v -0.232986 0.153380 -0.203788
v -0.232986 0.143315 -0.203789
v -0.232986 0.153380 -0.203788
v -0.232986 0.143315 -0.203789
v -0.244022 0.153378 -0.190160
v -0.244022 0.143313 -0.190161
v -0.244022 0.153378 -0.190160
v -0.244022 0.143313 -0.190161
v -0.253572 0.153376 -0.175453
v -0.253573 0.143311 -0.175455
v -0.253572 0.153376 -0.175453
v -0.253573 0.143311 -0.175455
v -0.261534 0.153373 -0.159828
v -0.261534 0.143309 -0.159830
v -0.261534 0.153373 -0.159828
v -0.261534 0.143309 -0.159830
v -0.267818 0.153371 -0.143457
v -0.267818 0.143306 -0.143459
v -0.267818 0.153371 -0.143457
v -0.267818 0.143306 -0.143459
v -0.272356 0.153368 -0.126519
v -0.272357 0.143303 -0.126521
v -0.272356 0.153368 -0.126519
v -0.272357 0.143303 -0.126521
v -0.275100 0.153365 -0.109199
v -0.275100 0.143301 -0.109201
v -0.275100 0.153365 -0.109199
v -0.275100 0.143301 -0.109201
v -0.276017 0.153363 -0.091687
v -0.276018 0.143298 -0.091689
v -0.276017 0.153363 -0.091687
v -0.276018 0.143298 -0.091689
v -0.275100 0.153360 -0.074176
v -0.275100 0.143295 -0.074177
v -0.275100 0.153360 -0.074176
v -0.275100 0.143295 -0.074177
v -0.272356 0.153357 -0.056856
v -0.272357 0.143292 -0.056857
v -0.272356 0.153357 -0.056856
v -0.272357 0.143292 -0.056857
v -0.267818 0.153354 -0.039918
v -0.267818 0.143289 -0.039919
v -0.267818 0.153354 -0.039918
v -0.267818 0.143289 -0.039919
v -0.261534 0.153351 -0.023547
v -0.261534 0.143286 -0.023548
v -0.261534 0.153351 -0.023547
v -0.261534 0.143286 -0.023548
v -0.253572 0.153348 -0.007922
v -0.253573 0.143284 -0.007924
v -0.253572 0.153348 -0.007922
v -0.253573 0.143284 -0.007924
v -0.244022 0.153346 0.006785
v -0.244022 0.143281 0.006783
v -0.244022 0.153346 0.006785
v -0.244022 0.143281 0.006783
v -0.232986 0.153343 0.020413
v -0.232986 0.143278 0.020411
v -0.232986 0.153343 0.020413
v -0.232986 0.143278 0.020411
v -0.220586 0.153341 0.032812
v -0.220587 0.143276 0.032811
v -0.220586 0.153341 0.032812
v -0.220587 0.143276 0.032811
v -0.206959 0.143274 0.043846
v -0.206959 0.153339 0.043848
v -0.206959 0.153339 0.043848
v -0.206959 0.143274 0.043846
v -0.192252 0.143272 0.053397
v -0.192252 0.153337 0.053399
v -0.192252 0.153337 0.053399
v -0.192252 0.143272 0.053397
v -0.176628 0.143270 0.061358
v -0.176627 0.153335 0.061360
v -0.176627 0.153335 0.061360
v -0.176628 0.143270 0.061358
v -0.160257 0.143269 0.067642
v -0.160256 0.153333 0.067644
v -0.160256 0.153333 0.067644
v -0.160257 0.143269 0.067642
v -0.143318 0.143267 0.072181
v -0.143318 0.153332 0.072183
v -0.143318 0.153332 0.072183
v -0.143318 0.143267 0.072181
v -0.125998 0.143267 0.074924
v -0.125998 0.153331 0.074926
v -0.125998 0.153331 0.074926
v -0.125998 0.143267 0.074924
v -0.108487 0.143266 0.075842
v -0.108486 0.153331 0.075844
v -0.108486 0.153331 0.075844
v -0.108487 0.143266 0.075842
v -0.090975 0.143266 0.074924
v -0.090975 0.153330 0.074926
v -0.090975 0.153330 0.074926
v -0.090975 0.143266 0.074924
v -0.073655 0.143266 0.072181
v -0.073655 0.153330 0.072183
v -0.073655 0.153330 0.072183
v -0.073655 0.143266 0.072181
v -0.056717 0.143266 0.067642
v -0.056716 0.153331 0.067644
v -0.056716 0.153331 0.067644
v -0.056717 0.143266 0.067642
v -0.040346 0.143266 0.061358
v -0.040345 0.153331 0.061360
v -0.040345 0.153331 0.061360
v -0.040346 0.143266 0.061358
v -0.024721 0.143267 0.053397
v -0.024721 0.153332 0.053399
v -0.024721 0.153332 0.053399
v -0.024721 0.143267 0.053397
v -0.010015 0.143268 0.043846
v -0.010014 0.153333 0.043848
v -0.010014 0.153333 0.043848
v -0.010015 0.143268 0.043846
vn 0.000028058339616904065 0.9999999863464504 0.00016284909777653173
vn -0.000028058339616904065 -0.9999999863464504 -0.00016284909777653173
vn -0.669130608977702 0.000139795101875626 -0.743144809970748
vn -0.7431448109701942 0.00012981870191636455 -0.6691306098776075
vn 0.7431448109701942 -0.00012981870191636455 0.6691306098776075
vn 0.669130608977702 -0.000139795101875626 0.743144809970748
vn -0.8090169679595364 0.00011841999531007171 -0.5877852767212388
vn 0.8090169679595364 -0.00011841999531007171 0.5877852767212388
vn -0.86602539799832 0.00010572379975563626 -0.49999999884432955
vn 0.86602539799832 -0.00010572379975563626 0.49999999884432955
vn -0.9135454230999048 0.0000918692623230057 -0.4067367102847424
vn 0.9135454230999048 -0.0000918692623230057 0.4067367102847424
vn -0.951056510265935 0.00007700821083124534 -0.3090170033356046
vn 0.951056510265935 -0.00007700821083124534 0.3090170033356046
vn -0.978147596996715 0.00006130342981177515 -0.20791169936163204
vn 0.978147596996715 -0.00006130342981177515 0.20791169936163204
vn -0.9945218905966483 0.00004492700957520848 -0.10452849901166757
vn 0.9945218905966483 -0.00004492700957520848 0.10452849901166757
vn -1 0.00002805834998895521 -4.770012998122349e-8
vn 1 -0.00002805834998895521 4.770012998122349e-8
vn -0.9945219019370334 0.00001088228002119545 0.10452840020359028
vn 0.9945219019370334 -0.00001088228002119545 -0.10452840020359028
vn -0.9781476191514229 -0.000006413013125562158 0.20791160407075882
vn 0.9781476191514229 0.000006413013125562158 -0.20791160407075882
vn -0.9510565422094989 -0.00002363805104909671 0.3090169137146936
vn 0.9510565422094989 0.00002363805104909671 -0.3090169137146936
vn -0.9135454799026834 -0.000040604099106740216 0.4067365910520995
vn 0.9135454799026834 0.000040604099106740216 -0.4067365910520995
vn -0.8660254014252797 -0.00005712528009401515 0.5000000008228856
vn 0.8660254014252797 0.00005712528009401515 -0.5000000008228856
vn -0.8090170190280617 -0.00007302059171744264 0.5877852138246947
vn 0.8090170190280617 0.00007302059171744264 -0.5877852138246947
vn -0.7431448591208002 -0.00008811586515288841 0.6691305631922072
vn 0.7431448591208002 0.00008811586515288841 -0.6691305631922072
vn -0.6691306120183944 -0.00010224570183645636 0.7431448133477789
vn 0.6691306120183944 0.00010224570183645636 -0.7431448133477789
vn -0.5877852769385691 -0.00011525539547801818 0.8090169682586659
vn 0.5877852769385691 0.00011525539547801818 -0.8090169682586659
vn -0.4999999976063203 -0.0001270021993919948 0.8660253958540252
vn 0.4999999976063203 0.0001270021993919948 -0.8660253958540252
vn -0.4067367081641845 -0.00013735770275709964 0.9135454183370549
vn 0.4067367081641845 0.00013735770275709964 -0.9135454183370549
vn -0.30901700094897766 -0.00014620820044899897 0.9510565029206528
vn 0.30901700094897766 0.00014620820044899897 -0.9510565029206528
vn -0.20791169730425443 -0.00015345679801030682 0.9781475873175147
vn 0.20791169730425443 0.00015345679801030682 -0.9781475873175147
vn -0.10452849779546662 -0.00015902409664614016 0.9945218790252732
vn 0.10452849779546662 0.00015902409664614016 -0.9945218790252732
vn -5.226941930691189e-8 -0.00016284909784063464 0.9999999867400842
vn 5.226941930691189e-8 0.00016284909784063464 -0.9999999867400842
vn 0.10452839878878507 -0.00016488989808935076 0.9945218884760528
vn -0.10452839878878507 0.00016488989808935076 -0.9945218884760528
vn 0.20791160124057856 -0.0001651241009852717 0.9781476058364658
vn -0.20791160124057856 0.0001651241009852717 -0.9781476058364658
vn 0.3090169096681812 -0.00016354920511694763 0.9510565297556106
vn -0.3090169096681812 0.00016354920511694763 -0.9510565297556106
vn 0.4067365861692864 -0.00016018239455314103 0.9135454689357039
vn -0.4067365861692864 0.00016018239455314103 -0.9135454689357039
vn 0.4999999956277627 -0.00015506059864407653 0.8660253924270629
vn -0.4999999956277627 0.00015506059864407653 -0.8660253924270629
vn 0.5877852089334219 -0.00014823990225301618 0.8090170122958016
vn -0.5877852089334219 0.00014823990225301618 -0.8090170122958016
vn 1 -0.00002805834998895521 4.7700139981223485e-8
vn -1 0.00002805834998895521 -4.7700139981223485e-8
vn 5.226937930691242e-8 0.00016284909784063464 -0.9999999867400842
vn -5.226937930691242e-8 -0.00016284909784063464 0.9999999867400842
usemtl material_0_0
f 1//1 2//1 3//1
f 2//1 1//1 4//1
f 2//1 4//1 5//1
f 5//1 4//1 6//1
f 5//1 6//1 7//1
f 7//1 6//1 8//1
f 7//1 8//1 9//1
f 9//1 8//1 10//1
f 9//1 10//1 11//1
f 11//1 10//1 12//1
f 11//1 12//1 13//1
f 13//1 12//1 14//1
f 13//1 14//1 15//1
f 15//1 14//1 16//1
f 15//1 16//1 17//1
f 17//1 16//1 18//1
f 17//1 18//1 19//1
f 19//1 18//1 20//1
f 19//1 20//1 21//1
f 21//1 20//1 22//1
f 21//1 22//1 23//1
f 23//1 22//1 24//1
f 23//1 24//1 25//1
f 25//1 24//1 26//1
f 25//1 26//1 27//1
f 27//1 26//1 28//1
f 27//1 28//1 29//1
f 29//1 28//1 30//1
f 29//1 30//1 31//1
f 31//1 30//1 32//1
f 31//1 32//1 33//1
f 33//1 32//1 34//1
f 33//1 34//1 35//1
f 35//1 34//1 36//1
f 35//1 36//1 37//1
f 37//1 36//1 38//1
f 37//1 38//1 39//1
f 39//1 38//1 40//1
f 39//1 40//1 41//1
f 41//1 40//1 42//1
f 41//1 42//1 43//1
f 43//1 42//1 44//1
f 43//1 44//1 45//1
f 45//1 44//1 46//1
f 45//1 46//1 47//1
f 47//1 46//1 48//1
f 47//1 48//1 49//1
f 49//1 48//1 50//1
f 49//1 50//1 51//1
f 51//1 50//1 52//1
f 51//1 52//1 53//1
f 53//1 52//1 54//1
f 53//1 54//1 55//1
f 55//1 54//1 56//1
f 55//1 56//1 57//1
f 57//1 56//1 58//1
f 57//1 58//1 59//1
f 59//1 58//1 60//1
f 61//2 62//2 63//2
f 63//2 62//2 64//2
f 62//2 65//2 64//2
f 64//2 65//2 66//2
f 65//2 67//2 66//2
f 66//2 67//2 68//2
f 67//2 69//2 68//2
f 68//2 69//2 70//2
f 69//2 71//2 70//2
f 70//2 71//2 72//2
f 71//2 73//2 72//2
f 72//2 73//2 74//2
f 73//2 75//2 74//2
f 74//2 75//2 76//2
f 75//2 77//2 76//2
f 76//2 77//2 78//2
f 77//2 79//2 78//2
f 78//2 79//2 80//2
f 79//2 81//2 80//2
f 80//2 81//2 82//2
f 81//2 83//2 82//2
f 82//2 83//2 84//2
f 83//2 85//2 84//2
f 84//2 85//2 86//2
f 85//2 87//2 86//2
f 86//2 87//2 88//2
f 87//2 89//2 88//2
f 88//2 89//2 90//2
f 89//2 91//2 90//2
f 90//2 91//2 92//2
f 91//2 93//2 92//2
f 92//2 93//2 94//2
f 93//2 95//2 94//2
f 94//2 95//2 96//2
f 95//2 97//2 96//2
f 96//2 97//2 98//2
f 97//2 99//2 98//2
f 98//2 99//2 100//2
f 99//2 101//2 100//2
f 100//2 101//2 102//2
f 101//2 103//2 102//2
f 102//2 103//2 104//2
f 103//2 105//2 104//2
f 104//2 105//2 106//2
f 105//2 107//2 106//2
f 106//2 107//2 108//2
f 107//2 109//2 108//2
f 108//2 109//2 110//2
f 109//2 111//2 110//2
f 110//2 111//2 112//2
f 111//2 113//2 112//2
f 112//2 113//2 114//2
f 113//2 115//2 114//2
f 114//2 115//2 116//2
f 115//2 117//2 116//2
f 116//2 117//2 118//2
f 117//2 119//2 118//2
f 120//2 118//2 119//2
f 121//3 122//4 123//3
f 122//4 121//3 124//4
f 125//5 126//6 127//5
f 128//6 127//5 126//6
f 124//4 129//7 122//4
f 129//7 124//4 130//7
f 131//8 125//5 132//8
f 127//5 132//8 125//5
f 130//7 133//9 129//7
f 133//9 130//7 134//9
f 135//10 131//8 136//10
f 132//8 136//10 131//8
f 134//9 137//11 133//9
f 137//11 134//9 138//11
f 139//12 135//10 140//12
f 136//10 140//12 135//10
f 138//11 141//13 137//11
f 141//13 138//11 142//13
f 143//14 139//12 144//14
f 140//12 144//14 139//12
f 142//13 145//15 141//13
f 145//15 142//13 146//15
f 147//16 143//14 148//16
f 144//14 148//16 143//14
f 146//15 149//17 145//15
f 149//17 146//15 150//17
f 151//18 147//16 152//18
f 148//16 152//18 147//16
f 150//17 153//19 149//17
f 153//19 150//17 154//19
f 155//20 151//18 156//20
f 152//18 156//20 151//18
f 154//19 157//21 153//19
f 157//21 154//19 158//21
f 159//22 155//20 160//22
f 156//20 160//22 155//20
f 158//21 161//23 157//21
f 161//23 158//21 162//23
f 163//24 159//22 164//24
f 160//22 164//24 159//22
f 162//23 165//25 161//23
f 165//25 162//23 166//25
f 167//26 163//24 168//26
f 164//24 168//26 163//24
f 166//25 169//27 165//25
f 169//27 166//25 170//27
f 171//28 167//26 172//28
f 168//26 172//28 167//26
f 170//27 173//29 169//27
f 173//29 170//27 174//29
f 175//30 171//28 176//30
f 172//28 176//30 171//28
f 174//29 177//31 173//29
f 177//31 174//29 178//31
f 179//32 175//30 180//32
f 176//30 180//32 175//30
f 178//31 181//33 177//31
f 181//33 178//31 182//33
f 183//34 179//32 184//34
f 180//32 184//34 179//32
f 182//33 185//35 181//33
f 185//35 182//33 186//35
f 187//36 183//34 188//36
f 184//34 188//36 183//34
f 185//35 189//37 190//37
f 189//37 185//35 186//35
f 187//36 188//36 191//38
f 192//38 191//38 188//36
f 190//37 193//39 194//39
f 193//39 190//37 189//37
f 191//38 192//38 195//40
f 196//40 195//40 192//38
f 194//39 197//41 198//41
f 197//41 194//39 193//39
f 195//40 196//40 199//42
f 200//42 199//42 196//40
f 198//41 201//43 202//43
f 201//43 198//41 197//41
f 199//42 200//42 203//44
f 204//44 203//44 200//42
f 202//43 205//45 206//45
f 205//45 202//43 201//43
f 203//44 204//44 207//46
f 208//46 207//46 204//44
f 206//45 209//47 210//47
f 209//47 206//45 205//45
f 207//46 208//46 211//48
f 212//48 211//48 208//46
f 210//47 213//49 214//49
f 213//49 210//47 209//47
f 211//48 212//48 215//50
f 216//50 215//50 212//48
f 214//49 217//51 218//51
f 217//51 214//49 213//49
f 215//50 216//50 219//52
f 220//52 219//52 216//50
f 218//51 221//53 222//53
f 221//53 218//51 217//51
f 219//52 220//52 223//54
f 224//54 223//54 220//52
f 222//53 225//55 226//55
f 225//55 222//53 221//53
f 223//54 224//54 227//56
f 228//56 227//56 224//54
f 226//55 229//57 230//57
f 229//57 226//55 225//55
f 227//56 228//56 231//58
f 232//58 231//58 228//56
f 230//57 233//59 234//59
f 233//59 230//57 229//57
f 231//58 232//58 235//60
f 236//60 235//60 232//58
f 234//59 237//61 238//61
f 237//61 234//59 233//59
f 235//60 236//60 239//62
f 240//62 239//62 236//60
f 238//61 241//6 242//6
f 241//6 238//61 237//61
f 239//62 240//62 243//3
f 244//3 243//3 240//62
f 242//6 245//5 246//5
f 245//5 242//6 241//6
f 243//3 244//3 247//4
f 248//4 247//4 244//3
f 246//5 249//8 250//8
f 249//8 246//5 245//5
f 247//4 248//4 251//7
f 252//7 251//7 248//4
f 250//8 253//10 254//10
f 253//10 250//8 249//8
f 251//7 252//7 255//9
f 256//9 255//9 252//7
f 254//10 257//12 258//12
f 257//12 254//10 253//10
f 255//9 256//9 259//11
f 260//11 259//11 256//9
f 258//12 261//14 262//14
f 261//14 258//12 257//12
f 259//11 260//11 263//13
f 264//13 263//13 260//11
f 262//14 265//16 266//16
f 265//16 262//14 261//14
f 263//13 264//13 267//15
f 268//15 267//15 264//13
f 266//16 269//18 270//18
f 269//18 266//16 265//16
f 267//15 268//15 271//17
f 272//17 271//17 268//15
f 270//18 273//20 274//63
f 273//20 270//18 269//18
f 271//17 272//17 275//19
f 276//64 275//19 272//17
f 274//63 277//22 278//22
f 277//22 274//63 273//20
f 275//19 276//64 279//21
f 280//21 279//21 276//64
f 278//22 281//24 282//24
f 281//24 278//22 277//22
f 279//21 280//21 283//23
f 284//23 283//23 280//21
f 282//24 285//26 286//26
f 285//26 282//24 281//24
f 283//23 284//23 287//25
f 288//25 287//25 284//23
f 286//26 289//28 290//28
f 289//28 286//26 285//26
f 287//25 288//25 291//27
f 292//27 291//27 288//25
f 290//28 293//30 294//30
f 293//30 290//28 289//28
f 291//27 292//27 295//29
f 296//29 295//29 292//27
f 294//30 297//32 298//32
f 297//32 294//30 293//30
f 295//29 296//29 299//31
f 300//31 299//31 296//29
f 298//32 301//34 302//34
f 301//34 298//32 297//32
f 299//31 300//31 303//33
f 304//33 303//33 300//31
f 302//34 305//36 306//36
f 305//36 302//34 301//34
f 303//33 304//33 307//35
f 308//35 307//35 304//33
f 305//36 309//38 306//36
f 309//38 305//36 310//38
f 311//37 307//35 312//37
f 308//35 312//37 307//35
f 310//38 313//40 309//38
f 313//40 310//38 314//40
f 315//39 311//37 316//39
f 312//37 316//39 311//37
f 314//40 317//42 313//40
f 317//42 314//40 318//42
f 319//41 315//39 320//41
f 316//39 320//41 315//39
f 318//42 321//44 317//42
f 321//44 318//42 322//44
f 323//43 319//41 324//43
f 320//41 324//43 319//41
f 322//44 325//46 321//44
f 325//46 322//44 326//46
f 327//45 323//43 328//45
f 324//43 328//45 323//43
f 326//46 329//48 325//46
f 329//48 326//46 330//48
f 331//47 327//45 332//47
f 328//45 332//47 327//45
f 330//48 333//65 329//48
f 333//65 330//48 334//65
f 335//66 331//47 336//66
f 332//47 336//66 331//47
f 334//65 337//52 333//65
f 337//52 334//65 338//52
f 339//51 335//66 340//51
f 336//66 340//51 335//66
f 338//52 341//54 337//52
f 341//54 338//52 342//54
f 343//53 339//51 344//53
f 340//51 344//53 339//51
f 342//54 345//56 341//54
f 345//56 342//54 346//56
f 347//55 343//53 348//55
f 344//53 348//55 343//53
f 346//56 349//58 345//56
f 349//58 346//56 350//58
f 351//57 347//55 352//57
f 348//55 352//57 347//55
f 350//58 353//60 349//58
f 353//60 350//58 354//60
f 355//59 351//57 356//59
f 352//57 356//59 351//57
f 354//60 357//62 353//60
f 357//62 354//60 358//62
f 359//61 355//59 360//61
f 356//59 360//61 355//59
f 358//62 123//3 357//62
f 123//3 358//62 121//3
f 126//6 359//61 128//6
f 360//61 128//6 359//61
