# SSTK version 0.8.0
# 15
mtllib original-15.mtl
o #ID154
v -0.066679 -0.121426 -0.288457
v -0.108494 -0.121425 -0.289493
v -0.087471 -0.121425 -0.291750
v -0.087822 -0.121425 -0.288410
v -0.046345 -0.121427 -0.283009
v -0.067377 -0.121426 -0.285172
v -0.047383 -0.121428 -0.279814
v -0.026691 -0.121429 -0.275464
v -0.028057 -0.121430 -0.272396
v -0.007934 -0.121431 -0.265907
v -0.009614 -0.121432 -0.262998
v 0.009721 -0.121434 -0.254442
v 0.007747 -0.121434 -0.251724
v 0.026081 -0.121436 -0.241194
v 0.023834 -0.121437 -0.238697
v 0.040967 -0.121439 -0.226308
v 0.038471 -0.121439 -0.224060
v 0.054215 -0.121442 -0.209948
v 0.051498 -0.121442 -0.207973
v 0.065681 -0.121445 -0.192292
v 0.062772 -0.121445 -0.190613
v 0.075238 -0.121449 -0.173535
v 0.072170 -0.121449 -0.172169
v 0.082782 -0.121452 -0.153882
v 0.079588 -0.121452 -0.152844
v 0.088231 -0.121455 -0.133547
v 0.084945 -0.121456 -0.132849
v 0.091524 -0.121459 -0.112755
v 0.088184 -0.121459 -0.112404
v 0.092626 -0.121462 -0.091732
v 0.089267 -0.121462 -0.091732
v 0.088184 -0.121466 -0.071061
v 0.091524 -0.121466 -0.070709
v 0.084945 -0.121469 -0.050615
v 0.088231 -0.121469 -0.049917
v 0.079588 -0.121472 -0.030621
v 0.082782 -0.121472 -0.029583
v 0.072170 -0.121475 -0.011296
v 0.075238 -0.121475 -0.009929
v 0.062772 -0.121478 0.007148
v 0.065681 -0.121478 0.008828
v 0.051498 -0.121480 0.024509
v 0.054215 -0.121481 0.026483
v 0.038471 -0.121482 0.040596
v 0.040967 -0.121483 0.042843
v 0.023834 -0.121484 0.055233
v 0.026081 -0.121485 0.057729
v 0.007747 -0.121486 0.068260
v 0.009721 -0.121487 0.070977
v -0.009614 -0.121487 0.079534
v -0.007934 -0.121488 0.082443
v -0.028057 -0.121488 0.088932
v -0.026691 -0.121489 0.092000
v -0.047383 -0.121489 0.096350
v -0.046345 -0.121490 0.099544
v -0.067377 -0.121489 0.101707
v -0.066679 -0.121490 0.104993
v -0.087822 -0.121489 0.104946
v -0.108494 -0.121489 0.106029
v -0.087471 -0.121490 0.108286
v -0.129517 -0.121489 0.108286
v -0.108494 -0.121490 0.109388
v -0.129517 -0.121424 -0.291750
v -0.108494 -0.121424 -0.292852
v -0.150309 -0.121424 -0.288457
v -0.129166 -0.121424 -0.288410
v -0.170644 -0.121424 -0.283009
v -0.149611 -0.121424 -0.285172
v -0.169606 -0.121424 -0.279814
v -0.190297 -0.121425 -0.275464
v -0.188931 -0.121425 -0.272396
v -0.209054 -0.121426 -0.265907
v -0.207375 -0.121426 -0.262998
v -0.226709 -0.121427 -0.254442
v -0.224735 -0.121427 -0.251724
v -0.243070 -0.121429 -0.241194
v -0.240822 -0.121429 -0.238697
v -0.257955 -0.121431 -0.226308
v -0.255459 -0.121431 -0.224060
v -0.271204 -0.121433 -0.209948
v -0.268486 -0.121433 -0.207973
v -0.282669 -0.121436 -0.192292
v -0.279760 -0.121436 -0.190613
v -0.292226 -0.121438 -0.173535
v -0.289158 -0.121439 -0.172169
v -0.299771 -0.121441 -0.153882
v -0.296576 -0.121442 -0.152844
v -0.305219 -0.121444 -0.133547
v -0.301934 -0.121445 -0.132849
v -0.308512 -0.121448 -0.112755
v -0.305172 -0.121448 -0.112404
v -0.309614 -0.121451 -0.091732
v -0.306255 -0.121451 -0.091732
v -0.308512 -0.121455 -0.070709
v -0.305172 -0.121455 -0.071061
v -0.301934 -0.121458 -0.050615
v -0.305219 -0.121458 -0.049917
v -0.296576 -0.121461 -0.030621
v -0.299771 -0.121462 -0.029583
v -0.289158 -0.121465 -0.011296
v -0.292226 -0.121465 -0.009929
v -0.279760 -0.121468 0.007148
v -0.282669 -0.121468 0.008828
v -0.268486 -0.121471 0.024509
v -0.271204 -0.121471 0.026483
v -0.255459 -0.121474 0.040596
v -0.257955 -0.121475 0.042843
v -0.240822 -0.121477 0.055233
v -0.243070 -0.121477 0.057729
v -0.224735 -0.121480 0.068260
v -0.226709 -0.121480 0.070977
v -0.207375 -0.121482 0.079534
v -0.209054 -0.121482 0.082443
v -0.188931 -0.121484 0.088932
v -0.190297 -0.121484 0.092000
v -0.169606 -0.121486 0.096350
v -0.170644 -0.121486 0.099544
v -0.149611 -0.121487 0.101707
v -0.150309 -0.121488 0.104993
v -0.129166 -0.121488 0.104946
v -0.129517 -0.121489 0.108286
v -0.108494 -0.121489 0.106029
v -0.150309 -0.121488 0.104993
v -0.129166 -0.121488 0.104946
v -0.149611 -0.121487 0.101707
v -0.170644 -0.121486 0.099544
v -0.169606 -0.121486 0.096350
v -0.190297 -0.121484 0.092000
v -0.188931 -0.121484 0.088932
v -0.209054 -0.121482 0.082443
v -0.207375 -0.121482 0.079534
v -0.226709 -0.121480 0.070977
v -0.224735 -0.121480 0.068260
v -0.243070 -0.121477 0.057729
v -0.240822 -0.121477 0.055233
v -0.257955 -0.121475 0.042843
v -0.255459 -0.121474 0.040596
v -0.271204 -0.121471 0.026483
v -0.268486 -0.121471 0.024509
v -0.282669 -0.121468 0.008828
v -0.279760 -0.121468 0.007148
v -0.292226 -0.121465 -0.009929
v -0.289158 -0.121465 -0.011296
v -0.299771 -0.121462 -0.029583
v -0.296576 -0.121461 -0.030621
v -0.305219 -0.121458 -0.049917
v -0.301934 -0.121458 -0.050615
v -0.308512 -0.121455 -0.070709
v -0.305172 -0.121455 -0.071061
v -0.306255 -0.121451 -0.091732
v -0.309614 -0.121451 -0.091732
v -0.305172 -0.121448 -0.112404
v -0.308512 -0.121448 -0.112755
v -0.301934 -0.121445 -0.132849
v -0.305219 -0.121444 -0.133547
v -0.296576 -0.121442 -0.152844
v -0.299771 -0.121441 -0.153882
v -0.289158 -0.121439 -0.172169
v -0.292226 -0.121438 -0.173535
v -0.279760 -0.121436 -0.190613
v -0.282669 -0.121436 -0.192292
v -0.268486 -0.121433 -0.207973
v -0.271204 -0.121433 -0.209948
v -0.255459 -0.121431 -0.224060
v -0.257955 -0.121431 -0.226308
v -0.240822 -0.121429 -0.238697
v -0.243070 -0.121429 -0.241194
v -0.224735 -0.121427 -0.251724
v -0.226709 -0.121427 -0.254442
v -0.207375 -0.121426 -0.262998
v -0.209054 -0.121426 -0.265907
v -0.188931 -0.121425 -0.272396
v -0.190297 -0.121425 -0.275464
v -0.169606 -0.121424 -0.279814
v -0.170644 -0.121424 -0.283009
v -0.149611 -0.121424 -0.285172
v -0.129166 -0.121424 -0.288410
v -0.150309 -0.121424 -0.288457
v -0.108494 -0.121425 -0.289493
v -0.087471 -0.121425 -0.291750
v -0.129517 -0.121424 -0.291750
v -0.108494 -0.121424 -0.292852
v -0.108494 -0.121490 0.109388
v -0.087471 -0.121490 0.108286
v -0.066679 -0.121490 0.104993
v -0.087822 -0.121489 0.104946
v -0.067377 -0.121489 0.101707
v -0.046345 -0.121490 0.099544
v -0.047383 -0.121489 0.096350
v -0.026691 -0.121489 0.092000
v -0.028057 -0.121488 0.088932
v -0.007934 -0.121488 0.082443
v -0.009614 -0.121487 0.079534
v 0.009721 -0.121487 0.070977
v 0.007747 -0.121486 0.068260
v 0.026081 -0.121485 0.057729
v 0.023834 -0.121484 0.055233
v 0.040967 -0.121483 0.042843
v 0.038471 -0.121482 0.040596
v 0.054215 -0.121481 0.026483
v 0.051498 -0.121480 0.024509
v 0.065681 -0.121478 0.008828
v 0.062772 -0.121478 0.007148
v 0.075238 -0.121475 -0.009929
v 0.072170 -0.121475 -0.011296
v 0.082782 -0.121472 -0.029583
v 0.079588 -0.121472 -0.030621
v 0.088231 -0.121469 -0.049917
v 0.084945 -0.121469 -0.050615
v 0.091524 -0.121466 -0.070709
v 0.088184 -0.121466 -0.071061
v 0.092626 -0.121462 -0.091732
v 0.089267 -0.121462 -0.091732
v 0.088184 -0.121459 -0.112404
v 0.091524 -0.121459 -0.112755
v 0.084945 -0.121456 -0.132849
v 0.088231 -0.121455 -0.133547
v 0.079588 -0.121452 -0.152844
v 0.082782 -0.121452 -0.153882
v 0.072170 -0.121449 -0.172169
v 0.075238 -0.121449 -0.173535
v 0.062772 -0.121445 -0.190613
v 0.065681 -0.121445 -0.192292
v 0.051498 -0.121442 -0.207973
v 0.054215 -0.121442 -0.209948
v 0.038471 -0.121439 -0.224060
v 0.040967 -0.121439 -0.226308
v 0.023834 -0.121437 -0.238697
v 0.026081 -0.121436 -0.241194
v 0.007747 -0.121434 -0.251724
v 0.009721 -0.121434 -0.254442
v -0.009614 -0.121432 -0.262998
v -0.007934 -0.121431 -0.265907
v -0.028057 -0.121430 -0.272396
v -0.026691 -0.121429 -0.275464
v -0.047383 -0.121428 -0.279814
v -0.046345 -0.121427 -0.283009
v -0.067377 -0.121426 -0.285172
v -0.087822 -0.121425 -0.288410
v -0.066679 -0.121426 -0.288457
vn -0.000028058339616904065 -0.9999999863464504 -0.00016284909777653173
vn 0.000028058339616904065 0.9999999863464504 0.00016284909777653173
usemtl material_0_0
f 1//1 2//1 3//1
f 2//1 1//1 4//1
f 4//1 1//1 5//1
f 4//1 5//1 6//1
f 6//1 5//1 7//1
f 7//1 5//1 8//1
f 7//1 8//1 9//1
f 9//1 8//1 10//1
f 9//1 10//1 11//1
f 11//1 10//1 12//1
f 11//1 12//1 13//1
f 13//1 12//1 14//1
f 13//1 14//1 15//1
f 15//1 14//1 16//1
f 15//1 16//1 17//1
f 17//1 16//1 18//1
f 17//1 18//1 19//1
f 19//1 18//1 20//1
f 19//1 20//1 21//1
f 21//1 20//1 22//1
f 21//1 22//1 23//1
f 23//1 22//1 24//1
f 23//1 24//1 25//1
f 25//1 24//1 26//1
f 25//1 26//1 27//1
f 27//1 26//1 28//1
f 27//1 28//1 29//1
f 29//1 28//1 30//1
f 29//1 30//1 31//1
f 31//1 30//1 32//1
f 32//1 30//1 33//1
f 32//1 33//1 34//1
f 34//1 33//1 35//1
f 34//1 35//1 36//1
f 36//1 35//1 37//1
f 36//1 37//1 38//1
f 38//1 37//1 39//1
f 38//1 39//1 40//1
f 40//1 39//1 41//1
f 40//1 41//1 42//1
f 42//1 41//1 43//1
f 42//1 43//1 44//1
f 44//1 43//1 45//1
f 44//1 45//1 46//1
f 46//1 45//1 47//1
f 46//1 47//1 48//1
f 48//1 47//1 49//1
f 48//1 49//1 50//1
f 50//1 49//1 51//1
f 50//1 51//1 52//1
f 52//1 51//1 53//1
f 52//1 53//1 54//1
f 54//1 53//1 55//1
f 54//1 55//1 56//1
f 56//1 55//1 57//1
f 56//1 57//1 58//1
f 58//1 57//1 59//1
f 59//1 57//1 60//1
f 59//1 60//1 61//1
f 61//1 60//1 62//1
f 3//1 63//1 64//1
f 63//1 3//1 65//1
f 65//1 3//1 2//1
f 65//1 2//1 66//1
f 65//1 66//1 67//1
f 67//1 66//1 68//1
f 67//1 68//1 69//1
f 67//1 69//1 70//1
f 70//1 69//1 71//1
f 70//1 71//1 72//1
f 72//1 71//1 73//1
f 72//1 73//1 74//1
f 74//1 73//1 75//1
f 74//1 75//1 76//1
f 76//1 75//1 77//1
f 76//1 77//1 78//1
f 78//1 77//1 79//1
f 78//1 79//1 80//1
f 80//1 79//1 81//1
f 80//1 81//1 82//1
f 82//1 81//1 83//1
f 82//1 83//1 84//1
f 84//1 83//1 85//1
f 84//1 85//1 86//1
f 86//1 85//1 87//1
f 86//1 87//1 88//1
f 88//1 87//1 89//1
f 88//1 89//1 90//1
f 90//1 89//1 91//1
f 90//1 91//1 92//1
f 92//1 91//1 93//1
f 92//1 93//1 94//1
f 94//1 93//1 95//1
f 94//1 95//1 96//1
f 94//1 96//1 97//1
f 97//1 96//1 98//1
f 97//1 98//1 99//1
f 99//1 98//1 100//1
f 99//1 100//1 101//1
f 101//1 100//1 102//1
f 101//1 102//1 103//1
f 103//1 102//1 104//1
f 103//1 104//1 105//1
f 105//1 104//1 106//1
f 105//1 106//1 107//1
f 107//1 106//1 108//1
f 107//1 108//1 109//1
f 109//1 108//1 110//1
f 109//1 110//1 111//1
f 111//1 110//1 112//1
f 111//1 112//1 113//1
f 113//1 112//1 114//1
f 113//1 114//1 115//1
f 115//1 114//1 116//1
f 115//1 116//1 117//1
f 117//1 116//1 118//1
f 117//1 118//1 119//1
f 119//1 118//1 120//1
f 119//1 120//1 59//1
f 119//1 59//1 61//1
f 121//2 122//2 123//2
f 122//2 124//2 123//2
f 124//2 125//2 123//2
f 123//2 125//2 126//2
f 125//2 127//2 126//2
f 126//2 127//2 128//2
f 127//2 129//2 128//2
f 128//2 129//2 130//2
f 129//2 131//2 130//2
f 130//2 131//2 132//2
f 131//2 133//2 132//2
f 132//2 133//2 134//2
f 133//2 135//2 134//2
f 134//2 135//2 136//2
f 135//2 137//2 136//2
f 136//2 137//2 138//2
f 137//2 139//2 138//2
f 138//2 139//2 140//2
f 139//2 141//2 140//2
f 140//2 141//2 142//2
f 141//2 143//2 142//2
f 142//2 143//2 144//2
f 143//2 145//2 144//2
f 144//2 145//2 146//2
f 145//2 147//2 146//2
f 146//2 147//2 148//2
f 147//2 149//2 148//2
f 149//2 150//2 148//2
f 148//2 150//2 151//2
f 150//2 152//2 151//2
f 151//2 152//2 153//2
f 152//2 154//2 153//2
f 153//2 154//2 155//2
f 154//2 156//2 155//2
f 155//2 156//2 157//2
f 156//2 158//2 157//2
f 157//2 158//2 159//2
f 158//2 160//2 159//2
f 159//2 160//2 161//2
f 160//2 162//2 161//2
f 161//2 162//2 163//2
f 162//2 164//2 163//2
f 163//2 164//2 165//2
f 164//2 166//2 165//2
f 165//2 166//2 167//2
f 166//2 168//2 167//2
f 167//2 168//2 169//2
f 168//2 170//2 169//2
f 169//2 170//2 171//2
f 170//2 172//2 171//2
f 171//2 172//2 173//2
f 172//2 174//2 173//2
f 173//2 174//2 175//2
f 174//2 176//2 175//2
f 176//2 177//2 175//2
f 175//2 177//2 178//2
f 177//2 179//2 178//2
f 179//2 180//2 178//2
f 178//2 180//2 181//2
f 182//2 181//2 180//2
f 183//2 184//2 121//2
f 121//2 184//2 122//2
f 184//2 185//2 122//2
f 122//2 185//2 186//2
f 186//2 185//2 187//2
f 185//2 188//2 187//2
f 187//2 188//2 189//2
f 188//2 190//2 189//2
f 189//2 190//2 191//2
f 190//2 192//2 191//2
f 191//2 192//2 193//2
f 192//2 194//2 193//2
f 193//2 194//2 195//2
f 194//2 196//2 195//2
f 195//2 196//2 197//2
f 196//2 198//2 197//2
f 197//2 198//2 199//2
f 198//2 200//2 199//2
f 199//2 200//2 201//2
f 200//2 202//2 201//2
f 201//2 202//2 203//2
f 202//2 204//2 203//2
f 203//2 204//2 205//2
f 204//2 206//2 205//2
f 205//2 206//2 207//2
f 206//2 208//2 207//2
f 207//2 208//2 209//2
f 208//2 210//2 209//2
f 209//2 210//2 211//2
f 210//2 212//2 211//2
f 211//2 212//2 213//2
f 213//2 212//2 214//2
f 212//2 215//2 214//2
f 214//2 215//2 216//2
f 215//2 217//2 216//2
f 216//2 217//2 218//2
f 217//2 219//2 218//2
f 218//2 219//2 220//2
f 219//2 221//2 220//2
f 220//2 221//2 222//2
f 221//2 223//2 222//2
f 222//2 223//2 224//2
f 223//2 225//2 224//2
f 224//2 225//2 226//2
f 225//2 227//2 226//2
f 226//2 227//2 228//2
f 227//2 229//2 228//2
f 228//2 229//2 230//2
f 229//2 231//2 230//2
f 230//2 231//2 232//2
f 231//2 233//2 232//2
f 232//2 233//2 234//2
f 233//2 235//2 234//2
f 234//2 235//2 236//2
f 235//2 237//2 236//2
f 236//2 237//2 238//2
f 238//2 237//2 239//2
f 237//2 240//2 239//2
f 239//2 240//2 179//2
f 180//2 179//2 240//2
