# SSTK version 0.8.0
# 14
mtllib original-14.mtl
o #ID148
v -0.129510 0.133263 -0.291709
v -0.087464 0.133262 -0.291709
v -0.108487 0.133263 -0.292811
v -0.150302 0.133264 -0.288416
v -0.108487 0.133263 -0.289452
v -0.129159 0.133263 -0.288368
v -0.170636 0.133263 -0.282967
v -0.149604 0.133263 -0.285130
v -0.169599 0.133263 -0.279773
v -0.190290 0.133263 -0.275423
v -0.188924 0.133262 -0.272354
v -0.209047 0.133261 -0.265866
v -0.207368 0.133261 -0.262957
v -0.226702 0.133260 -0.254400
v -0.224728 0.133260 -0.251683
v -0.243063 0.133258 -0.241152
v -0.240815 0.133258 -0.238656
v -0.257948 0.133256 -0.226266
v -0.255452 0.133256 -0.224019
v -0.271196 0.133254 -0.209906
v -0.268479 0.133254 -0.207932
v -0.282662 0.133252 -0.192251
v -0.279753 0.133251 -0.190571
v -0.292219 0.133249 -0.173494
v -0.289151 0.133248 -0.172127
v -0.299763 0.133246 -0.153840
v -0.296569 0.133246 -0.152802
v -0.305212 0.133243 -0.133506
v -0.301927 0.133242 -0.132808
v -0.308505 0.133239 -0.112714
v -0.305165 0.133239 -0.112362
v -0.309607 0.133236 -0.091691
v -0.306248 0.133236 -0.091691
v -0.308505 0.133233 -0.070668
v -0.305165 0.133232 -0.071019
v -0.301927 0.133229 -0.050574
v -0.305212 0.133229 -0.049876
v -0.296569 0.133226 -0.030579
v -0.299764 0.133226 -0.029541
v -0.289151 0.133222 -0.011254
v -0.292219 0.133222 -0.009888
v -0.279753 0.133219 0.007190
v -0.282662 0.133219 0.008869
v -0.268479 0.133216 0.024550
v -0.271196 0.133216 0.026525
v -0.255452 0.133213 0.040637
v -0.257948 0.133213 0.042885
v -0.240815 0.133210 0.055274
v -0.243063 0.133210 0.057771
v -0.224728 0.133207 0.068301
v -0.226702 0.133207 0.071019
v -0.207368 0.133205 0.079575
v -0.209047 0.133205 0.082484
v -0.188924 0.133203 0.088973
v -0.190290 0.133203 0.092042
v -0.169599 0.133201 0.096391
v -0.170637 0.133201 0.099586
v -0.149604 0.133200 0.101749
v -0.150302 0.133199 0.105034
v -0.129159 0.133199 0.104987
v -0.108487 0.133198 0.106070
v -0.129510 0.133198 0.108328
v -0.066672 0.133261 -0.288416
v -0.087815 0.133262 -0.288368
v -0.046337 0.133260 -0.282967
v -0.067370 0.133261 -0.285130
v -0.047375 0.133259 -0.279773
v -0.026684 0.133258 -0.275423
v -0.028050 0.133257 -0.272354
v -0.007927 0.133256 -0.265866
v -0.009606 0.133255 -0.262957
v 0.009728 0.133253 -0.254400
v 0.007754 0.133253 -0.251683
v 0.026089 0.133251 -0.241152
v 0.023841 0.133250 -0.238656
v 0.040974 0.133248 -0.226266
v 0.038478 0.133248 -0.224019
v 0.054223 0.133245 -0.209906
v 0.051505 0.133245 -0.207932
v 0.065688 0.133242 -0.192251
v 0.062779 0.133242 -0.190571
v 0.075245 0.133238 -0.173494
v 0.072177 0.133238 -0.172127
v 0.082790 0.133235 -0.153840
v 0.079595 0.133235 -0.152802
v 0.088238 0.133232 -0.133506
v 0.084953 0.133232 -0.132808
v 0.091531 0.133228 -0.112714
v 0.088191 0.133228 -0.112362
v 0.092633 0.133225 -0.091691
v 0.089274 0.133225 -0.091691
v 0.088191 0.133221 -0.071019
v 0.091531 0.133221 -0.070668
v 0.084953 0.133218 -0.050574
v 0.088238 0.133218 -0.049875
v 0.079595 0.133215 -0.030579
v 0.082789 0.133215 -0.029541
v 0.072177 0.133212 -0.011254
v 0.075245 0.133212 -0.009888
v 0.062779 0.133209 0.007190
v 0.065688 0.133209 0.008869
v 0.051505 0.133207 0.024550
v 0.054223 0.133206 0.026525
v 0.038478 0.133205 0.040637
v 0.040974 0.133204 0.042885
v 0.023841 0.133203 0.055274
v 0.026089 0.133202 0.057771
v 0.007754 0.133201 0.068301
v 0.009728 0.133200 0.071019
v -0.009606 0.133200 0.079575
v -0.007927 0.133199 0.082484
v -0.028050 0.133199 0.088973
v -0.026684 0.133198 0.092042
v -0.047375 0.133198 0.096391
v -0.046338 0.133197 0.099586
v -0.067370 0.133198 0.101749
v -0.066672 0.133197 0.105034
v -0.087815 0.133198 0.104987
v -0.087464 0.133197 0.108328
v -0.108487 0.133198 0.109429
v -0.108487 0.133198 0.109429
v -0.129510 0.133198 0.108328
v -0.087464 0.133197 0.108328
v -0.108487 0.133198 0.106070
v -0.066672 0.133197 0.105034
v -0.087815 0.133198 0.104987
v -0.067370 0.133198 0.101749
v -0.046338 0.133197 0.099586
v -0.047375 0.133198 0.096391
v -0.026684 0.133198 0.092042
v -0.028050 0.133199 0.088973
v -0.007927 0.133199 0.082484
v -0.009606 0.133200 0.079575
v 0.009728 0.133200 0.071019
v 0.007754 0.133201 0.068301
v 0.026089 0.133202 0.057771
v 0.023841 0.133203 0.055274
v 0.040974 0.133204 0.042885
v 0.038478 0.133205 0.040637
v 0.054223 0.133206 0.026525
v 0.051505 0.133207 0.024550
v 0.065688 0.133209 0.008869
v 0.062779 0.133209 0.007190
v 0.075245 0.133212 -0.009888
v 0.072177 0.133212 -0.011254
v 0.082789 0.133215 -0.029541
v 0.079595 0.133215 -0.030579
v 0.088238 0.133218 -0.049875
v 0.084953 0.133218 -0.050574
v 0.091531 0.133221 -0.070668
v 0.088191 0.133221 -0.071019
v 0.092633 0.133225 -0.091691
v 0.089274 0.133225 -0.091691
v 0.088191 0.133228 -0.112362
v 0.091531 0.133228 -0.112714
v 0.084953 0.133232 -0.132808
v 0.088238 0.133232 -0.133506
v 0.079595 0.133235 -0.152802
v 0.082790 0.133235 -0.153840
v 0.072177 0.133238 -0.172127
v 0.075245 0.133238 -0.173494
v 0.062779 0.133242 -0.190571
v 0.065688 0.133242 -0.192251
v 0.051505 0.133245 -0.207932
v 0.054223 0.133245 -0.209906
v 0.038478 0.133248 -0.224019
v 0.040974 0.133248 -0.226266
v 0.023841 0.133250 -0.238656
v 0.026089 0.133251 -0.241152
v 0.007754 0.133253 -0.251683
v 0.009728 0.133253 -0.254400
v -0.009606 0.133255 -0.262957
v -0.007927 0.133256 -0.265866
v -0.028050 0.133257 -0.272354
v -0.026684 0.133258 -0.275423
v -0.047375 0.133259 -0.279773
v -0.046337 0.133260 -0.282967
v -0.067370 0.133261 -0.285130
v -0.087815 0.133262 -0.288368
v -0.066672 0.133261 -0.288416
v -0.108487 0.133263 -0.289452
v -0.087464 0.133262 -0.291709
v -0.150302 0.133199 0.105034
v -0.129159 0.133199 0.104987
v -0.149604 0.133200 0.101749
v -0.170637 0.133201 0.099586
v -0.169599 0.133201 0.096391
v -0.190290 0.133203 0.092042
v -0.188924 0.133203 0.088973
v -0.209047 0.133205 0.082484
v -0.207368 0.133205 0.079575
v -0.226702 0.133207 0.071019
v -0.224728 0.133207 0.068301
v -0.243063 0.133210 0.057771
v -0.240815 0.133210 0.055274
v -0.257948 0.133213 0.042885
v -0.255452 0.133213 0.040637
v -0.271196 0.133216 0.026525
v -0.268479 0.133216 0.024550
v -0.282662 0.133219 0.008869
v -0.279753 0.133219 0.007190
v -0.292219 0.133222 -0.009888
v -0.289151 0.133222 -0.011254
v -0.299764 0.133226 -0.029541
v -0.296569 0.133226 -0.030579
v -0.305212 0.133229 -0.049876
v -0.301927 0.133229 -0.050574
v -0.308505 0.133233 -0.070668
v -0.305165 0.133232 -0.071019
v -0.306248 0.133236 -0.091691
v -0.309607 0.133236 -0.091691
v -0.305165 0.133239 -0.112362
v -0.308505 0.133239 -0.112714
v -0.301927 0.133242 -0.132808
v -0.305212 0.133243 -0.133506
v -0.296569 0.133246 -0.152802
v -0.299763 0.133246 -0.153840
v -0.289151 0.133248 -0.172127
v -0.292219 0.133249 -0.173494
v -0.279753 0.133251 -0.190571
v -0.282662 0.133252 -0.192251
v -0.268479 0.133254 -0.207932
v -0.271196 0.133254 -0.209906
v -0.255452 0.133256 -0.224019
v -0.257948 0.133256 -0.226266
v -0.240815 0.133258 -0.238656
v -0.243063 0.133258 -0.241152
v -0.224728 0.133260 -0.251683
v -0.226702 0.133260 -0.254400
v -0.207368 0.133261 -0.262957
v -0.209047 0.133261 -0.265866
v -0.188924 0.133262 -0.272354
v -0.190290 0.133263 -0.275423
v -0.169599 0.133263 -0.279773
v -0.170636 0.133263 -0.282967
v -0.149604 0.133263 -0.285130
v -0.129159 0.133263 -0.288368
v -0.150302 0.133264 -0.288416
v -0.129510 0.133263 -0.291709
v -0.108487 0.133263 -0.292811
vn 0.000028058339616904065 0.9999999863464504 0.00016284909777653173
vn -0.000028058339616904065 -0.9999999863464504 -0.00016284909777653173
usemtl material_0_0
f 1//1 2//1 3//1
f 2//1 1//1 4//1
f 2//1 4//1 5//1
f 5//1 4//1 6//1
f 6//1 4//1 7//1
f 6//1 7//1 8//1
f 8//1 7//1 9//1
f 9//1 7//1 10//1
f 9//1 10//1 11//1
f 11//1 10//1 12//1
f 11//1 12//1 13//1
f 13//1 12//1 14//1
f 13//1 14//1 15//1
f 15//1 14//1 16//1
f 15//1 16//1 17//1
f 17//1 16//1 18//1
f 17//1 18//1 19//1
f 19//1 18//1 20//1
f 19//1 20//1 21//1
f 21//1 20//1 22//1
f 21//1 22//1 23//1
f 23//1 22//1 24//1
f 23//1 24//1 25//1
f 25//1 24//1 26//1
f 25//1 26//1 27//1
f 27//1 26//1 28//1
f 27//1 28//1 29//1
f 29//1 28//1 30//1
f 29//1 30//1 31//1
f 31//1 30//1 32//1
f 31//1 32//1 33//1
f 33//1 32//1 34//1
f 33//1 34//1 35//1
f 35//1 34//1 36//1
f 36//1 34//1 37//1
f 36//1 37//1 38//1
f 38//1 37//1 39//1
f 38//1 39//1 40//1
f 40//1 39//1 41//1
f 40//1 41//1 42//1
f 42//1 41//1 43//1
f 42//1 43//1 44//1
f 44//1 43//1 45//1
f 44//1 45//1 46//1
f 46//1 45//1 47//1
f 46//1 47//1 48//1
f 48//1 47//1 49//1
f 48//1 49//1 50//1
f 50//1 49//1 51//1
f 50//1 51//1 52//1
f 52//1 51//1 53//1
f 52//1 53//1 54//1
f 54//1 53//1 55//1
f 54//1 55//1 56//1
f 56//1 55//1 57//1
f 56//1 57//1 58//1
f 58//1 57//1 59//1
f 58//1 59//1 60//1
f 60//1 59//1 61//1
f 61//1 59//1 62//1
f 5//1 63//1 2//1
f 63//1 5//1 64//1
f 63//1 64//1 65//1
f 65//1 64//1 66//1
f 65//1 66//1 67//1
f 65//1 67//1 68//1
f 68//1 67//1 69//1
f 68//1 69//1 70//1
f 70//1 69//1 71//1
f 70//1 71//1 72//1
f 72//1 71//1 73//1
f 72//1 73//1 74//1
f 74//1 73//1 75//1
f 74//1 75//1 76//1
f 76//1 75//1 77//1
f 76//1 77//1 78//1
f 78//1 77//1 79//1
f 78//1 79//1 80//1
f 80//1 79//1 81//1
f 80//1 81//1 82//1
f 82//1 81//1 83//1
f 82//1 83//1 84//1
f 84//1 83//1 85//1
f 84//1 85//1 86//1
f 86//1 85//1 87//1
f 86//1 87//1 88//1
f 88//1 87//1 89//1
f 88//1 89//1 90//1
f 90//1 89//1 91//1
f 90//1 91//1 92//1
f 90//1 92//1 93//1
f 93//1 92//1 94//1
f 93//1 94//1 95//1
f 95//1 94//1 96//1
f 95//1 96//1 97//1
f 97//1 96//1 98//1
f 97//1 98//1 99//1
f 99//1 98//1 100//1
f 99//1 100//1 101//1
f 101//1 100//1 102//1
f 101//1 102//1 103//1
f 103//1 102//1 104//1
f 103//1 104//1 105//1
f 105//1 104//1 106//1
f 105//1 106//1 107//1
f 107//1 106//1 108//1
f 107//1 108//1 109//1
f 109//1 108//1 110//1
f 109//1 110//1 111//1
f 111//1 110//1 112//1
f 111//1 112//1 113//1
f 113//1 112//1 114//1
f 113//1 114//1 115//1
f 115//1 114//1 116//1
f 115//1 116//1 117//1
f 117//1 116//1 118//1
f 117//1 118//1 61//1
f 117//1 61//1 119//1
f 119//1 61//1 62//1
f 119//1 62//1 120//1
f 121//2 122//2 123//2
f 122//2 124//2 123//2
f 123//2 124//2 125//2
f 124//2 126//2 125//2
f 126//2 127//2 125//2
f 125//2 127//2 128//2
f 127//2 129//2 128//2
f 128//2 129//2 130//2
f 129//2 131//2 130//2
f 130//2 131//2 132//2
f 131//2 133//2 132//2
f 132//2 133//2 134//2
f 133//2 135//2 134//2
f 134//2 135//2 136//2
f 135//2 137//2 136//2
f 136//2 137//2 138//2
f 137//2 139//2 138//2
f 138//2 139//2 140//2
f 139//2 141//2 140//2
f 140//2 141//2 142//2
f 141//2 143//2 142//2
f 142//2 143//2 144//2
f 143//2 145//2 144//2
f 144//2 145//2 146//2
f 145//2 147//2 146//2
f 146//2 147//2 148//2
f 147//2 149//2 148//2
f 148//2 149//2 150//2
f 149//2 151//2 150//2
f 150//2 151//2 152//2
f 151//2 153//2 152//2
f 153//2 154//2 152//2
f 152//2 154//2 155//2
f 154//2 156//2 155//2
f 155//2 156//2 157//2
f 156//2 158//2 157//2
f 157//2 158//2 159//2
f 158//2 160//2 159//2
f 159//2 160//2 161//2
f 160//2 162//2 161//2
f 161//2 162//2 163//2
f 162//2 164//2 163//2
f 163//2 164//2 165//2
f 164//2 166//2 165//2
f 165//2 166//2 167//2
f 166//2 168//2 167//2
f 167//2 168//2 169//2
f 168//2 170//2 169//2
f 169//2 170//2 171//2
f 170//2 172//2 171//2
f 171//2 172//2 173//2
f 172//2 174//2 173//2
f 173//2 174//2 175//2
f 174//2 176//2 175//2
f 175//2 176//2 177//2
f 176//2 178//2 177//2
f 178//2 179//2 177//2
f 177//2 179//2 180//2
f 179//2 181//2 180//2
f 182//2 180//2 181//2
f 122//2 183//2 124//2
f 124//2 183//2 184//2
f 184//2 183//2 185//2
f 183//2 186//2 185//2
f 185//2 186//2 187//2
f 186//2 188//2 187//2
f 187//2 188//2 189//2
f 188//2 190//2 189//2
f 189//2 190//2 191//2
f 190//2 192//2 191//2
f 191//2 192//2 193//2
f 192//2 194//2 193//2
f 193//2 194//2 195//2
f 194//2 196//2 195//2
f 195//2 196//2 197//2
f 196//2 198//2 197//2
f 197//2 198//2 199//2
f 198//2 200//2 199//2
f 199//2 200//2 201//2
f 200//2 202//2 201//2
f 201//2 202//2 203//2
f 202//2 204//2 203//2
f 203//2 204//2 205//2
f 204//2 206//2 205//2
f 205//2 206//2 207//2
f 206//2 208//2 207//2
f 207//2 208//2 209//2
f 209//2 208//2 210//2
f 208//2 211//2 210//2
f 210//2 211//2 212//2
f 211//2 213//2 212//2
f 212//2 213//2 214//2
f 213//2 215//2 214//2
f 214//2 215//2 216//2
f 215//2 217//2 216//2
f 216//2 217//2 218//2
f 217//2 219//2 218//2
f 218//2 219//2 220//2
f 219//2 221//2 220//2
f 220//2 221//2 222//2
f 221//2 223//2 222//2
f 222//2 223//2 224//2
f 223//2 225//2 224//2
f 224//2 225//2 226//2
f 225//2 227//2 226//2
f 226//2 227//2 228//2
f 227//2 229//2 228//2
f 228//2 229//2 230//2
f 229//2 231//2 230//2
f 230//2 231//2 232//2
f 231//2 233//2 232//2
f 232//2 233//2 234//2
f 233//2 235//2 234//2
f 234//2 235//2 236//2
f 236//2 235//2 237//2
f 235//2 238//2 237//2
f 237//2 238//2 181//2
f 181//2 238//2 182//2
f 238//2 239//2 182//2
f 240//2 182//2 239//2
