# SSTK version 0.8.0
# 70
mtllib original-70.mtl
o Group18/mesh48/mesh48-geometry#mesh48-geometry
v -0.758539 -0.018893 -0.003900
v -0.758539 -0.109624 -0.007260
v -0.758539 -0.109624 -0.003900
v -0.758539 -0.018893 -0.007260
v -0.753498 -0.109624 -0.003900
v -0.425186 -0.018893 -0.007260
v -0.753498 -0.018893 -0.007260
v -0.430227 -0.109624 -0.003900
v -0.753498 -0.018893 -0.003900
v -0.753498 -0.020573 -0.007260
v -0.425186 -0.109624 -0.003900
v -0.430227 -0.109624 -0.000540
v -0.430227 -0.018893 -0.003900
v -0.430227 -0.018893 -0.007260
v -0.753498 -0.109624 -0.007260
v -0.753498 -0.020573 -0.012301
v -0.753498 -0.109624 -0.000540
v -0.430227 -0.020573 -0.000540
v -0.425186 -0.018893 -0.003900
v -0.753498 -0.018893 -0.002220
v -0.430227 -0.020573 -0.007260
v -0.430227 -0.018893 -0.010621
v -0.753498 -0.020139 -0.012244
v -0.425186 -0.109624 -0.007260
v -0.753498 -0.020573 -0.000540
v -0.425186 -0.020573 -0.007260
v -0.430227 -0.018893 -0.002220
v -0.753498 -0.018950 -0.001785
v -0.430227 -0.020139 -0.012244
v -0.430227 -0.018950 -0.011056
v -0.753498 -0.018893 -0.010621
v -0.753498 -0.109624 -0.012301
v -0.430227 -0.109624 -0.007260
v -0.753498 -0.019930 -0.012173
v -0.430227 -0.020139 -0.000597
v -0.753498 -0.020139 -0.000597
v -0.430227 -0.018950 -0.001785
v -0.753498 -0.019021 -0.001577
v -0.430227 -0.020573 -0.012301
v -0.430227 -0.019930 -0.012173
v -0.430227 -0.019021 -0.011264
v -0.753498 -0.018950 -0.011056
v -0.753498 -0.019733 -0.012076
v -0.430227 -0.019930 -0.000668
v -0.430227 -0.019021 -0.001577
v -0.753498 -0.019118 -0.001380
v -0.430227 -0.019733 -0.012076
v -0.430227 -0.019118 -0.011461
v -0.753498 -0.019021 -0.011264
v -0.430227 -0.109624 -0.012301
v -0.753498 -0.019551 -0.011954
v -0.430227 -0.019733 -0.000765
v -0.753498 -0.019930 -0.000668
v -0.430227 -0.019118 -0.001380
v -0.753498 -0.019240 -0.001197
v -0.430227 -0.019551 -0.011954
v -0.430227 -0.019240 -0.011644
v -0.753498 -0.019118 -0.011461
v -0.753498 -0.019385 -0.011809
v -0.430227 -0.019551 -0.000887
v -0.753498 -0.019733 -0.000765
v -0.430227 -0.019240 -0.001197
v -0.753498 -0.019385 -0.001032
v -0.430227 -0.019385 -0.011809
v -0.753498 -0.019240 -0.011644
v -0.430227 -0.019385 -0.001032
v -0.753498 -0.019551 -0.000887
vt -0.0125 0.3375
vt -0.025 0
vt -0.0125 0
vt -0.025 0.3375
vt -0.025 1.24
vt -0.0125 1.22125
vt -0.0125 1.24
vt 0.0125 1.24
vt 0.025 0
vt 0.025 1.24
vt 1.22125 0.3375
vt 1.24 0
vt 1.24 0.3375
vt -0.0125 0.01875
vt 0.0125 1.22125
vt 0.025 1.22125
vt 1.22125 0.33125
vt 0 0.01875
vt 0.0125 0.01875
vt 0.025 0.01875
vt 1.22125 0
vt -0.04375 0.33125
vt -0.025 0.33125
vt -0.025 1.22125
vt 0 0
vt -0.01875 0.3375
vt -0.01875 0
vt 0 1.22125
vt 0.0125 0
vt 0 0.33125
vt 0.00625 1.22125
vt 0 0.3375
vt 0.01875 0.33125
vt 0.01875 0.3375
vt 0.0375 0.01875
vt -0.043537 0.332868
vt 0.0125 0.3375
vt -1.22125 0.33125
vt -1.22125 0
vt -0.01875 0.33125
vt 0.00625 0.01875
vt -0.004632 0.337287
vt -0.00625 0.3375
vt 0.025 0.33125
vt 0.043537 0.332868
vt 0.025 0.3375
vt 0.039118 0.337287
vt 0.0375 0.3375
vt 0.0375 1.22125
vt -0.04375 0
vt 0.01875 0
vt -0.043274 0.333642
vt 0.01875 0.324337
vt 1.22125 0.322706
vt 1.22125 0.324337
vt -0.025 0.01875
vt 0.000213 0.332868
vt -0.01875 0.328416
vt -1.22125 0.330048
vt -1.22125 0.328416
vt -1.22125 0.048618
vt -0.01875 0.050249
vt -1.22125 0.050249
vt 0.004632 0.337287
vt 0.00625 0.3375
vt -0.003858 0.337024
vt 0.04375 0.33125
vt 0.043274 0.333642
vt 0.039892 0.337024
vt 0.01875 0.005242
vt 1.22125 0.006873
vt 0.01875 0.006873
vt -0.039118 0.337287
vt -0.0375 0.3375
vt -0.04375 1.22125
vt -0.042913 0.334375
vt 0.01875 0.302025
vt 1.22125 0.301208
vt 1.22125 0.302025
vt 0.01875 0.322706
vt 0.01875 0.301208
vt 0.000476 0.333642
vt -0.01875 0.330048
vt -0.000213 0.332868
vt -0.01875 0.048618
vt 0.003858 0.337024
vt -0.003125 0.336663
vt -1.22125 0.111986
vt -0.01875 0.112804
vt -1.22125 0.112804
vt 0.042913 0.334375
vt 0.040625 0.336663
vt 0.01875 0.070558
vt 1.22125 0.071376
vt 0.01875 0.071376
vt 1.22125 0.005242
vt -0.039892 0.337024
vt -0.04375 0.01875
vt 0.04375 0
vt -0.042458 0.335055
vt 0.01875 0.280912
vt 1.22125 0.280095
vt 1.22125 0.280912
vt 0.01875 0.280095
vt 0.000837 0.334375
vt -1.22125 0.316088
vt -0.01875 0.315271
vt -0.01875 0.316088
vt -1.22125 0.315271
vt -0.000476 0.333642
vt 0.003125 0.336663
vt -0.01875 0.111986
vt -0.002445 0.336208
vt -1.22125 0.151705
vt -0.01875 0.152522
vt -1.22125 0.152522
vt 0.042458 0.335055
vt 0.041305 0.336208
vt 0.01875 0.112467
vt 1.22125 0.113284
vt 0.01875 0.113284
vt 1.22125 0.070558
vt -0.040625 0.336663
vt -0.041919 0.335669
vt 0.01875 0.254999
vt 1.22125 0.254182
vt 1.22125 0.254999
vt 0.01875 0.254182
vt 0.001292 0.335055
vt -1.22125 0.300262
vt -0.01875 0.299445
vt -0.01875 0.300262
vt -1.22125 0.299445
vt -0.000837 0.334375
vt 0.002445 0.336208
vt -0.01875 0.151705
vt -0.001831 0.335669
vt -1.22125 0.188821
vt -0.01875 0.189638
vt -1.22125 0.189638
vt 0.041919 0.335669
vt 0.01875 0.152444
vt 1.22125 0.153261
vt 0.01875 0.153261
vt 1.22125 0.112467
vt -0.041305 0.336208
vt 0.01875 0.22473
vt 1.22125 0.223913
vt 1.22125 0.22473
vt 0.01875 0.223913
vt 0.001831 0.335669
vt -1.22125 0.279305
vt -0.01875 0.278488
vt -0.01875 0.279305
vt -1.22125 0.278488
vt -0.001292 0.335055
vt -0.01875 0.188821
vt -1.22125 0.222699
vt -0.01875 0.223516
vt -1.22125 0.223516
vt 0.01875 0.189806
vt 1.22125 0.190623
vt 0.01875 0.190623
vt 1.22125 0.152444
vt 1.22125 0.189806
vt -1.22125 0.253577
vt -0.01875 0.252759
vt -0.01875 0.253577
vt -1.22125 0.252759
vt -0.01875 0.222699
vn -1 0 0
vn 0 -1 0
vn 0 1 0
vn 0 0 -1
vn 0 0 1
vn 1 0 0
vn 0 0.1305259853353411 -0.9914448886106773
vn 0 0.1305259853353411 0.9914448886106773
vn 0 0.9914448886106773 0.1305259853353411
vn 0 0.9914448886106773 -0.1305259853353411
vn 0 0.3214390874923564 -0.9469302577445085
vn 0 0.9469302577445085 0.3214390874923564
vn 0 0.9469302577445085 -0.3214390874923564
vn 0 0.4422888368728498 -0.8968726692109988
vn 0 0.3214390874923564 0.9469302577445085
vn 0 0.8968726692109988 0.4422888368728498
vn 0 0.8968726692109988 -0.4422888368728498
vn 0 0.5555698928305779 -0.8314698396094833
vn 0 0.4422888368728498 0.8968726692109988
vn 0 0.8314698396094833 0.5555698928305779
vn 0 0.8314698396094833 -0.5555698928305779
vn 0 0.6593458241801846 -0.7518397995159294
vn 0 0.5555698928305779 0.8314698396094833
vn 0 0.7518397995159294 0.6593458241801846
vn 0 0.7518397995159294 -0.6593458241801846
vn 0 0.6593458241801846 0.7518397995159294
vn 0 -0.1305259853353411 0.9914448886106773
vn 0 -0.1305259853353411 -0.9914448886106773
vn 0 -0.9914448886106773 -0.1305259853353411
vn 0 -0.9914448886106773 0.1305259853353411
vn 0 -0.3214390874923564 0.9469302577445085
vn 0 -0.9469302577445085 -0.3214390874923564
vn 0 -0.9469302577445085 0.3214390874923564
vn 0 -0.4422888368728498 0.8968726692109988
vn 0 -0.3214390874923564 -0.9469302577445085
vn 0 -0.8968726692109988 -0.4422888368728498
vn 0 -0.8968726692109988 0.4422888368728498
vn 0 -0.5555698928305779 0.8314698396094833
vn 0 -0.4422888368728498 -0.8968726692109988
vn 0 -0.8314698396094833 -0.5555698928305779
vn 0 -0.8314698396094833 0.5555698928305779
vn 0 -0.6593458241801846 0.7518397995159294
vn 0 -0.5555698928305779 -0.8314698396094833
vn 0 -0.7518397995159294 -0.6593458241801846
vn 0 -0.7518397995159294 0.6593458241801846
vn 0 -0.6593458241801846 -0.7518397995159294
usemtl material_0_0
f 1/1/1 2/2/1 3/3/1
f 2/2/1 1/1/1 4/4/1
f 2/5/2 5/6/2 3/7/2
f 1/8/3 6/9/3 4/10/3
f 7/11/4 2/12/4 4/13/4
f 5/6/2 2/5/2 8/14/2
f 9/15/3 6/9/3 1/8/3
f 4/10/3 6/9/3 7/16/3
f 10/17/4 2/12/4 7/11/4
f 8/14/2 2/5/2 11/3/2
f 12/18/2 5/6/2 8/14/2
f 13/19/3 6/9/3 9/15/3
f 7/16/3 6/9/3 14/20/3
f 2/12/4 10/17/4 15/21/4
f 16/22/1 10/23/1 7/4/1
f 11/3/2 2/5/2 15/24/2
f 11/25/5 13/26/5 8/27/5
f 5/6/2 12/18/2 17/28/2
f 8/29/6 18/30/6 12/25/6
f 6/9/3 13/19/3 19/29/3
f 20/31/3 13/19/3 9/15/3
f 6/32/4 21/33/4 14/34/4
f 7/16/3 14/20/3 22/35/3
f 16/22/1 15/2/1 10/23/1
f 21/33/4 15/21/4 10/17/4
f 16/22/1 7/4/1 23/36/1
f 15/24/2 24/2/2 11/3/2
f 13/26/5 11/25/5 19/32/5
f 18/30/6 8/29/6 13/37/6
f 12/27/5 25/38/5 17/39/5
f 25/30/1 5/3/1 17/25/1
f 25/38/5 12/27/5 18/40/5
f 26/23/1 19/1/1 6/4/1
f 13/19/3 20/31/3 27/41/3
f 9/1/1 28/42/1 20/43/1
f 21/33/4 6/32/4 26/30/4
f 21/44/6 29/45/6 14/46/6
f 14/46/6 30/47/6 22/48/6
f 7/16/3 22/35/3 31/49/3
f 15/2/1 16/22/1 32/50/1
f 15/21/4 21/33/4 33/51/4
f 23/36/1 7/4/1 34/52/1
f 29/53/7 16/54/7 23/55/7
f 24/2/2 15/24/2 33/56/2
f 19/1/1 24/2/1 11/3/1
f 18/30/6 13/37/6 35/57/6
f 5/3/1 25/30/1 9/1/1
f 18/58/8 36/59/8 25/60/8
f 24/2/1 19/1/1 26/23/1
f 28/61/9 27/62/9 20/63/9
f 37/64/6 13/37/6 27/65/6
f 9/1/1 38/66/1 28/42/1
f 26/30/4 33/51/4 21/33/4
f 21/44/6 39/67/6 29/45/6
f 14/46/6 29/45/6 40/68/6
f 14/46/6 41/69/6 30/47/6
f 30/70/10 31/71/10 22/72/10
f 42/73/1 7/4/1 31/74/1
f 39/33/4 32/21/4 16/17/4
f 32/75/2 33/56/2 15/24/2
f 33/9/6 39/67/6 21/44/6
f 34/52/1 7/4/1 43/76/1
f 40/77/11 23/78/11 34/79/11
f 16/54/7 29/53/7 39/80/7
f 23/78/11 40/77/11 29/81/11
f 33/51/4 26/30/4 24/25/4
f 35/57/6 13/37/6 44/82/6
f 36/59/8 18/58/8 35/83/8
f 9/1/1 25/30/1 36/84/1
f 27/62/9 28/61/9 37/85/9
f 45/86/6 13/37/6 37/64/6
f 9/1/1 46/87/1 38/66/1
f 38/88/12 37/89/12 28/90/12
f 14/46/6 40/68/6 47/91/6
f 14/46/6 48/92/6 41/69/6
f 41/93/13 42/94/13 30/95/13
f 31/71/10 30/70/10 42/96/10
f 49/97/1 7/4/1 42/73/1
f 32/21/4 39/33/4 50/51/4
f 33/56/2 32/75/2 50/98/2
f 39/67/6 33/9/6 50/99/6
f 43/76/1 7/4/1 51/100/1
f 47/101/14 34/102/14 43/103/14
f 34/102/14 47/101/14 40/104/14
f 44/82/6 13/37/6 52/105/6
f 53/106/15 35/107/15 44/108/15
f 35/107/15 53/106/15 36/109/15
f 9/1/1 36/84/1 53/110/1
f 54/111/6 13/37/6 45/86/6
f 37/89/12 38/88/12 45/112/12
f 9/1/1 55/113/1 46/87/1
f 46/114/16 45/115/16 38/116/16
f 14/46/6 47/91/6 56/117/6
f 14/46/6 57/118/6 48/92/6
f 48/119/17 49/120/17 41/121/17
f 42/94/13 41/93/13 49/122/13
f 58/123/1 7/4/1 49/97/1
f 51/100/1 7/4/1 59/124/1
f 56/125/18 43/126/18 51/127/18
f 43/126/18 56/125/18 47/128/18
f 52/105/6 13/37/6 60/129/6
f 61/130/19 44/131/19 52/132/19
f 44/131/19 61/130/19 53/133/19
f 9/1/1 53/110/1 61/134/1
f 62/135/6 13/37/6 54/111/6
f 45/115/16 46/114/16 54/136/16
f 9/1/1 63/137/1 55/113/1
f 55/138/20 54/139/20 46/140/20
f 14/46/6 56/117/6 64/141/6
f 14/46/6 64/141/6 57/118/6
f 57/142/21 58/143/21 48/144/21
f 49/120/17 48/119/17 58/145/17
f 65/146/1 7/4/1 58/123/1
f 59/124/1 7/4/1 65/146/1
f 64/147/22 51/148/22 59/149/22
f 51/148/22 64/147/22 56/150/22
f 60/129/6 13/37/6 66/151/6
f 67/152/23 52/153/23 60/154/23
f 52/153/23 67/152/23 61/155/23
f 9/1/1 61/134/1 67/156/1
f 66/151/6 13/37/6 62/135/6
f 54/139/20 55/138/20 62/157/20
f 9/1/1 67/156/1 63/137/1
f 63/158/24 62/159/24 55/160/24
f 64/161/25 65/162/25 57/163/25
f 58/143/21 57/142/21 65/164/21
f 65/162/25 64/161/25 59/165/25
f 63/166/26 60/167/26 66/168/26
f 60/167/26 63/166/26 67/169/26
f 62/159/24 63/158/24 66/170/24
usemtl material_1_0
f 3//6 2//6 1//6
f 4//6 1//6 2//6
f 3//3 5//3 2//3
f 4//2 6//2 1//2
f 4//5 2//5 7//5
f 8//3 2//3 5//3
f 1//2 6//2 9//2
f 7//2 6//2 4//2
f 7//5 2//5 10//5
f 11//3 2//3 8//3
f 8//3 5//3 12//3
f 9//2 6//2 13//2
f 14//2 6//2 7//2
f 15//5 10//5 2//5
f 7//6 10//6 16//6
f 15//3 2//3 11//3
f 8//4 13//4 11//4
f 17//3 12//3 5//3
f 12//1 18//1 8//1
f 19//2 13//2 6//2
f 9//2 13//2 20//2
f 14//5 21//5 6//5
f 22//2 14//2 7//2
f 10//6 15//6 16//6
f 10//5 15//5 21//5
f 23//6 7//6 16//6
f 11//3 24//3 15//3
f 19//4 11//4 13//4
f 13//1 8//1 18//1
f 17//4 25//4 12//4
f 17//6 5//6 25//6
f 18//4 12//4 25//4
f 6//6 19//6 26//6
f 27//2 20//2 13//2
f 20//6 28//6 9//6
f 26//5 6//5 21//5
f 14//1 29//1 21//1
f 22//1 30//1 14//1
f 31//2 22//2 7//2
f 32//6 16//6 15//6
f 33//5 21//5 15//5
f 34//6 7//6 23//6
f 23//27 16//27 29//27
f 33//3 15//3 24//3
f 11//6 24//6 19//6
f 35//1 13//1 18//1
f 9//6 25//6 5//6
f 25//28 36//28 18//28
f 26//6 19//6 24//6
f 20//29 27//29 28//29
f 27//1 13//1 37//1
f 28//6 38//6 9//6
f 21//5 33//5 26//5
f 29//1 39//1 21//1
f 40//1 29//1 14//1
f 30//1 41//1 14//1
f 22//30 31//30 30//30
f 31//6 7//6 42//6
f 16//5 32//5 39//5
f 15//3 33//3 32//3
f 21//1 39//1 33//1
f 43//6 7//6 34//6
f 34//31 23//31 40//31
f 39//27 29//27 16//27
f 29//31 40//31 23//31
f 24//5 26//5 33//5
f 44//1 13//1 35//1
f 35//28 18//28 36//28
f 36//6 25//6 9//6
f 37//29 28//29 27//29
f 37//1 13//1 45//1
f 38//6 46//6 9//6
f 28//32 37//32 38//32
f 47//1 40//1 14//1
f 41//1 48//1 14//1
f 30//33 42//33 41//33
f 42//30 30//30 31//30
f 42//6 7//6 49//6
f 50//5 39//5 32//5
f 50//3 32//3 33//3
f 50//1 33//1 39//1
f 51//6 7//6 43//6
f 43//34 34//34 47//34
f 40//34 47//34 34//34
f 52//1 13//1 44//1
f 44//35 35//35 53//35
f 36//35 53//35 35//35
f 53//6 36//6 9//6
f 45//1 13//1 54//1
f 45//32 38//32 37//32
f 46//6 55//6 9//6
f 38//36 45//36 46//36
f 56//1 47//1 14//1
f 48//1 57//1 14//1
f 41//37 49//37 48//37
f 49//33 41//33 42//33
f 49//6 7//6 58//6
f 59//6 7//6 51//6
f 51//38 43//38 56//38
f 47//38 56//38 43//38
f 60//1 13//1 52//1
f 52//39 44//39 61//39
f 53//39 61//39 44//39
f 61//6 53//6 9//6
f 54//1 13//1 62//1
f 54//36 46//36 45//36
f 55//6 63//6 9//6
f 46//40 54//40 55//40
f 64//1 56//1 14//1
f 57//1 64//1 14//1
f 48//41 58//41 57//41
f 58//37 48//37 49//37
f 58//6 7//6 65//6
f 65//6 7//6 59//6
f 59//42 51//42 64//42
f 56//42 64//42 51//42
f 66//1 13//1 60//1
f 60//43 52//43 67//43
f 61//43 67//43 52//43
f 67//6 61//6 9//6
f 62//1 13//1 66//1
f 62//40 55//40 54//40
f 63//6 67//6 9//6
f 55//44 62//44 63//44
f 57//45 65//45 64//45
f 65//41 57//41 58//41
f 59//45 64//45 65//45
f 66//46 60//46 63//46
f 67//46 63//46 60//46
f 66//44 63//44 62//44
