# SSTK version 0.8.0
# 8
mtllib original-8.mtl
o Group_721_2/Group_721_1_2/mesh13/mesh13-geometry#mesh13-geometry
v -0.371420 0.150807 0.498481
v -0.371420 0.231457 -0.297936
v -0.371420 0.150807 -0.297936
v -0.371420 0.231457 0.498481
v -0.359658 0.150807 -0.297936
v -0.359658 0.150807 0.498481
v -0.363019 0.231457 0.171681
v -0.359658 0.231457 -0.297936
v -0.359658 0.231457 0.498481
v -0.359658 0.231457 0.171681
v -0.363019 0.231457 0.168321
v -0.359658 0.162569 0.168321
v -0.359658 0.162569 0.171681
v -0.363019 0.162569 0.171681
v -0.359658 0.231457 0.168321
v -0.363019 0.162569 0.168321
vt 0 0
vt -2.9625 0.3
vt -2.9625 0
vt 0 0.3
vt -0.04375 0
vt 0 -0.04375
vt 0.04375 0
vt 1.215625 -0.03125
vt 2.9625 0
vt -0.04375 0.3
vt -2.9625 -0.04375
vt 0.04375 0.3
vt 1.215625 -0.04375
vt 1.228125 -0.03125
vt 2.9625 -0.04375
vt 1.228125 0.04375
vt 2.9625 0.3
vt 1.215625 0.04375
vt -0.03125 0.04375
vt -0.03125 0.3
vt 1.228125 0.3
vt 1.215625 0.3
vt 1.228125 -0.04375
vt -0.04375 0.04375
vt 0.03125 0.3
vt 0.04375 0.04375
vt 0.03125 0.04375
vn -1 0 0
vn 0 0 -1
vn 0 -1 0
vn 0 0 1
vn 0 1 0
vn 1 0 0
usemtl material_0_0
f 1/1/1 2/2/1 3/3/1
f 2/2/1 1/1/1 4/4/1
f 2/4/2 5/5/2 3/1/2
f 3/3/3 6/6/3 1/1/3
f 6/7/4 4/4/4 1/1/4
f 4/1/5 7/8/5 2/9/5
f 5/5/2 2/4/2 8/10/2
f 6/6/3 3/3/3 5/11/3
f 4/4/4 6/7/4 9/12/4
f 4/1/5 10/13/5 7/8/5
f 2/9/5 7/8/5 11/14/5
f 2/9/5 11/14/5 8/15/5
f 12/16/6 5/9/6 8/17/6
f 5/9/6 12/16/6 6/1/6
f 6/1/6 13/18/6 9/4/6
f 10/13/5 4/1/5 9/6/5
f 10/10/2 14/19/2 7/20/2
f 14/18/6 11/21/6 7/22/6
f 8/15/5 11/14/5 15/23/5
f 12/16/6 8/17/6 15/21/6
f 13/18/6 6/1/6 12/16/6
f 9/4/6 13/18/6 10/22/6
f 14/19/2 10/10/2 13/24/2
f 11/21/6 14/18/6 16/16/6
f 11/25/4 12/26/4 15/12/4
f 12/23/5 14/8/5 13/13/5
f 14/8/5 12/23/5 16/14/5
f 12/26/4 11/25/4 16/27/4
usemtl material_1_0
f 3//6 2//6 1//6
f 4//6 1//6 2//6
f 3//4 5//4 2//4
f 1//5 6//5 3//5
f 1//2 4//2 6//2
f 2//3 7//3 4//3
f 8//4 2//4 5//4
f 5//5 3//5 6//5
f 9//2 6//2 4//2
f 7//3 10//3 4//3
f 11//3 7//3 2//3
f 8//3 11//3 2//3
f 8//1 5//1 12//1
f 6//1 12//1 5//1
f 9//1 13//1 6//1
f 9//3 4//3 10//3
f 7//4 14//4 10//4
f 7//1 11//1 14//1
f 15//3 11//3 8//3
f 15//1 8//1 12//1
f 12//1 6//1 13//1
f 10//1 13//1 9//1
f 13//4 10//4 14//4
f 16//1 14//1 11//1
f 15//2 12//2 11//2
f 13//3 14//3 12//3
f 16//3 12//3 14//3
f 16//2 11//2 12//2
