# SSTK version 0.8.0
# 7
mtllib original-7.mtl
o Group_721_1/Group_721/mesh12/mesh12-geometry#mesh12-geometry
v 0.320152 0.150807 -0.297936
v 0.320152 0.231457 -0.297936
v 0.320152 0.150807 0.498481
v 0.308390 0.150807 -0.297936
v 0.320152 0.231457 0.498481
v 0.308390 0.150807 0.498481
v 0.308390 0.231457 -0.297936
v 0.311751 0.231457 0.171681
v 0.308390 0.162569 0.168321
v 0.311751 0.231457 0.168321
v 0.308390 0.231457 0.498481
v 0.308390 0.231457 0.171681
v 0.308390 0.162569 0.171681
v 0.308390 0.231457 0.168321
v 0.311751 0.162569 0.171681
v 0.311751 0.162569 0.168321
vt -2.9625 0
vt -2.9625 0.3
vt 0 0
vt -0.04375 0
vt 0 0.3
vt 0 -0.04375
vt -2.9625 -0.04375
vt -0.04375 0.3
vt 0.04375 0
vt 2.9625 0
vt 1.215625 -0.03125
vt 1.228125 0.04375
vt 2.9625 -0.04375
vt 1.228125 -0.03125
vt 2.9625 0.3
vt 0.04375 0.3
vt 1.215625 -0.04375
vt 1.215625 0.04375
vt 1.228125 -0.04375
vt 1.228125 0.3
vt 1.215625 0.3
vt -0.03125 0.3
vt -0.03125 0.04375
vt 0.04375 0.04375
vt 0.03125 0.3
vt -0.04375 0.04375
vt 0.03125 0.04375
vn 1 0 0
vn 0 0 -1
vn 0 -1 0
vn 0 0 1
vn 0 1 0
vn -1 0 0
usemtl material_0_0
f 1/1/1 2/2/1 3/3/1
f 1/3/2 4/4/2 2/5/2
f 5/5/1 3/3/1 2/2/1
f 3/3/3 6/6/3 1/1/3
f 4/7/3 1/1/3 6/6/3
f 7/8/2 2/5/2 4/4/2
f 3/3/4 5/5/4 6/9/4
f 2/10/5 8/11/5 5/3/5
f 6/3/6 9/12/6 4/10/6
f 7/13/5 10/14/5 2/10/5
f 7/15/6 4/10/6 9/12/6
f 11/16/4 6/9/4 5/5/4
f 10/14/5 8/11/5 2/10/5
f 8/11/5 12/17/5 5/3/5
f 9/12/6 6/3/6 13/18/6
f 14/19/5 10/14/5 7/13/5
f 14/20/6 7/15/6 9/12/6
f 11/5/6 13/18/6 6/3/6
f 11/6/5 5/3/5 12/17/5
f 8/21/6 10/20/6 15/18/6
f 8/22/2 15/23/2 12/8/2
f 13/17/5 15/11/5 9/19/5
f 14/16/4 9/24/4 10/25/4
f 12/21/6 13/18/6 11/5/6
f 16/12/6 15/18/6 10/20/6
f 13/26/2 12/8/2 15/23/2
f 16/14/5 9/19/5 15/11/5
f 16/27/4 10/25/4 9/24/4
usemtl material_1_0
f 3//6 2//6 1//6
f 2//4 4//4 1//4
f 2//6 3//6 5//6
f 1//5 6//5 3//5
f 6//5 1//5 4//5
f 4//4 2//4 7//4
f 6//2 5//2 3//2
f 5//3 8//3 2//3
f 4//1 9//1 6//1
f 2//3 10//3 7//3
f 9//1 4//1 7//1
f 5//2 6//2 11//2
f 2//3 8//3 10//3
f 5//3 12//3 8//3
f 13//1 6//1 9//1
f 7//3 10//3 14//3
f 9//1 7//1 14//1
f 6//1 13//1 11//1
f 12//3 5//3 11//3
f 15//1 10//1 8//1
f 12//4 15//4 8//4
f 9//3 15//3 13//3
f 10//2 9//2 14//2
f 11//1 13//1 12//1
f 10//1 15//1 16//1
f 15//4 12//4 13//4
f 15//3 9//3 16//3
f 9//2 10//2 16//2
