# SSTK version 0.8.0
# 25
mtllib original-25.mtl
o Group_703_3/Group_703/mesh24/mesh24-geometry#mesh24-geometry
v -0.812305 0.231457 0.417831
v -0.812305 -0.440624 0.374146
v -0.812305 -0.440624 0.417831
v -0.812305 0.231457 0.374146
v -0.810625 -0.534716 0.375826
v -0.765259 -0.440624 0.374146
v -0.810625 0.231457 0.419511
v -0.765259 0.231457 0.374146
v -0.810625 0.231457 0.372465
v -0.810625 -0.534716 0.409430
v -0.810625 -0.440624 0.372465
v -0.765259 -0.440624 0.417831
v -0.766940 -0.440624 0.372465
v -0.810625 -0.440624 0.419511
v -0.765259 0.231457 0.417831
v -0.766940 0.231457 0.372465
v -0.773661 -0.534716 0.409430
v -0.808945 -0.534716 0.374146
v -0.773661 -0.534716 0.375826
v -0.766940 -0.440624 0.419511
v -0.766940 0.231457 0.419511
v -0.775341 -0.534716 0.411110
v -0.808945 -0.534716 0.411110
v -0.775341 -0.534716 0.374146
vt -0.000868 0
vt -0.023437 -0.347222
vt -0.000868 -0.347222
vt -0.023437 0
vt -0.022569 -0.395352
vt -0.000868 -0.346733
vt -0.023437 -0.346733
vt 0.000868 0.024306
vt 0.023437 0
vt 0.023437 0.024306
vt -0.0178 -0.347222
vt -0.016573 0
vt -0.0178 0
vt -0.000614 0
vt 0.000614 -0.347222
vt 0.000614 0
vt -0.005208 -0.395352
vt -0.000614 -0.346259
vt 0.000614 -0.394886
vt 0.000614 -0.346259
vt 0.000868 0
vt 0.024306 0.000868
vt -0.016573 -0.347222
vt 0 0.023438
vt -0.000614 -0.347222
vt 0.024306 0.023438
vt -0.005208 0.00434
vt -0.005208 0.023438
vt -0.022569 0.023438
vt -0.020256 -0.393728
vt -0.016573 -0.344978
vt -0.0178 -0.344978
vt -0.000614 -0.394886
vt 0.005208 -0.394651
vt 0.023437 -0.345846
vt 0.000868 -0.345846
vt 0.000868 -0.347222
vt 0.023437 -0.347222
vt 0.019028 -0.393728
vt 0.0178 -0.344978
vt 0.016573 -0.344978
vt 0.0178 0
vt 0.016573 -0.347222
vt 0.0178 -0.347222
vt -0.023438 0
vt -0.023438 -0.347222
vt 0 0.000868
vt 0.016573 0
vt 0.023438 0
vt 0.023438 -0.347222
vt -0.00434 0.005208
vt -0.022569 0.00434
vt -0.019028 -0.393728
vt 0.023438 -0.346733
vt 0.005208 -0.395352
vt 0.022569 -0.395352
vt -0.023437 0.022569
vt 0.000868 -0.346733
vt 0.022569 -0.394651
vt -0.000614 -0.344564
vt 0.000614 -0.393561
vt 0.000614 -0.344564
vt 0.020256 -0.393728
vt -0.023438 -0.345846
vt -0.005208 -0.394651
vt -0.000868 -0.345846
vt -0.00434 0.022569
vt -0.000614 -0.393561
vt -0.022569 -0.394651
vt -0.023437 0.005208
vn -1 0 0
vn 1 0 0
vn -0.9998406047645868 -0.017853992942344764 0
vn 0.9998406047645868 0.017853992942344764 0
vn 0 1 0
vn 0 -1 0
vn -0.7071067811865476 0 0.7071067811865476
vn 0.7071067811865476 0 -0.7071067811865476
vn -0.7071067811865476 0 -0.7071067811865476
vn 0.7071067811865476 0 0.7071067811865476
vn -0.7068814040400951 -0.025246014430146294 -0.7068814040400951
vn 0.7068814040400951 0.025246014430146294 0.7068814040400951
vn -0.7050861474275356 -0.07554501579582233 0.7050861474275356
vn 0.7050861474275356 0.07554501579582233 -0.7050861474275356
vn 0.9960377021509061 -0.08893197340632022 0
vn -0.9960377021509061 0.08893197340632022 0
vn 0.7050861474275356 -0.07554501579582233 -0.7050861474275356
vn -0.7050861474275356 0.07554501579582233 0.7050861474275356
vn 0 0 1
vn 0 0 -1
vn 0 -0.017853992942344764 -0.9998406047645868
vn 0 0.017853992942344764 0.9998406047645868
vn 0.7015363179124792 -0.12527405676995607 0.7015363179124792
vn -0.7015363179124792 0.12527405676995607 -0.7015363179124792
vn 0 -0.08893197340632022 0.9960377021509061
vn 0 0.08893197340632022 -0.9960377021509061
usemtl material_0_0
f 1/1/1 2/2/1 3/3/1
f 2/2/1 1/1/1 4/4/1
f 3/3/2 2/2/2 1/1/2
f 4/4/2 1/1/2 2/2/2
f 5/5/3 3/6/3 2/7/3
f 2/7/4 3/6/4 5/5/4
f 3/8/5 6/9/5 2/10/5
f 2/10/6 6/9/6 3/8/6
f 3/11/7 7/12/7 1/13/7
f 1/13/8 7/12/8 3/11/8
f 1/8/5 8/9/5 4/10/5
f 4/10/6 8/9/6 1/8/6
f 9/14/9 2/15/9 4/16/9
f 4/16/10 2/15/10 9/14/10
f 3/6/3 5/5/3 10/17/3
f 10/17/4 5/5/4 3/6/4
f 11/18/11 5/19/11 2/20/11
f 2/20/12 5/19/12 11/18/12
f 3/8/5 12/21/5 6/9/5
f 6/9/6 12/21/6 3/8/6
f 2/10/5 6/9/5 13/22/5
f 13/22/6 6/9/6 2/10/6
f 7/12/7 3/11/7 14/23/7
f 14/23/8 3/11/8 7/12/8
f 7/24/5 15/21/5 1/8/5
f 1/8/6 15/21/6 7/24/6
f 1/8/5 15/21/5 8/9/5
f 8/9/6 15/21/6 1/8/6
f 4/10/5 8/9/5 16/22/5
f 16/22/6 8/9/6 4/10/6
f 2/15/9 9/14/9 11/25/9
f 11/25/10 9/14/10 2/15/10
f 4/10/5 16/22/5 9/26/5
f 9/26/6 16/22/6 4/10/6
f 17/27/6 10/28/6 5/29/6
f 5/29/5 10/28/5 17/27/5
f 10/30/13 14/31/13 3/32/13
f 3/32/14 14/31/14 10/30/14
f 5/19/11 11/18/11 18/33/11
f 18/33/12 11/18/12 5/19/12
f 2/10/5 13/22/5 11/26/5
f 11/26/6 13/22/6 2/10/6
f 14/24/5 12/21/5 3/8/5
f 3/8/6 12/21/6 14/24/6
f 17/34/15 6/35/15 12/36/15
f 12/36/16 6/35/16 17/34/16
f 8/9/2 12/37/2 6/38/2
f 6/38/1 12/37/1 8/9/1
f 19/39/17 13/40/17 6/41/17
f 6/41/18 13/40/18 19/39/18
f 16/42/8 6/43/8 13/44/8
f 13/44/7 6/43/7 16/42/7
f 20/3/19 7/45/19 14/46/19
f 14/46/20 7/45/20 20/3/20
f 15/21/5 7/24/5 21/47/5
f 21/47/6 7/24/6 15/21/6
f 12/37/2 8/9/2 15/21/2
f 15/21/1 8/9/1 12/37/1
f 6/43/8 16/42/8 8/48/8
f 8/48/7 16/42/7 6/43/7
f 9/49/20 13/37/20 11/50/20
f 11/50/19 13/37/19 9/49/19
f 13/37/20 9/49/20 16/21/20
f 16/21/19 9/49/19 13/37/19
f 22/51/6 10/28/6 17/27/6
f 17/27/5 10/28/5 22/51/5
f 17/27/6 5/29/6 19/52/6
f 19/52/5 5/29/5 17/27/5
f 14/31/13 10/30/13 23/53/13
f 23/53/14 10/30/14 14/31/14
f 11/54/21 24/55/21 18/56/21
f 18/56/22 24/55/22 11/54/22
f 19/52/6 5/29/6 18/57/6
f 18/57/5 5/29/5 19/52/5
f 24/55/21 11/54/21 13/58/21
f 13/58/22 11/54/22 24/55/22
f 12/21/5 14/24/5 20/47/5
f 20/47/6 14/24/6 12/21/6
f 6/35/15 17/34/15 19/59/15
f 19/59/16 17/34/16 6/35/16
f 20/60/23 17/61/23 12/62/23
f 12/62/24 17/61/24 20/60/24
f 13/40/17 19/39/17 24/63/17
f 24/63/18 19/39/18 13/40/18
f 7/45/19 20/3/19 21/1/19
f 21/1/20 20/3/20 7/45/20
f 14/64/25 22/65/25 20/66/25
f 20/66/26 22/65/26 14/64/26
f 21/14/10 12/15/10 15/16/10
f 15/16/9 12/15/9 21/14/9
f 10/28/6 22/51/6 23/67/6
f 23/67/5 22/51/5 10/28/5
f 17/61/23 20/60/23 22/68/23
f 22/68/24 20/60/24 17/61/24
f 22/65/25 14/64/25 23/69/25
f 23/69/26 14/64/26 22/65/26
f 19/52/6 18/57/6 24/70/6
f 24/70/5 18/57/5 19/52/5
f 12/15/10 21/14/10 20/25/10
f 20/25/9 21/14/9 12/15/9
