# SSTK version 0.8.0
# 26
mtllib original-26.mtl
o Group_707_2/Group_707_1_2/mesh28/mesh28-geometry#mesh28-geometry
v 0.331913 0.110482 0.372466
v 0.331913 0.130645 -0.410509
v 0.331913 0.110482 -0.410509
v 0.331913 0.130645 0.372466
v 0.336954 0.110482 -0.410509
v 0.367197 0.231457 0.372466
v 0.320152 0.130645 0.372466
v 0.367197 0.231457 -0.410509
v 0.336954 0.110482 0.372466
v 0.331913 0.231457 0.372466
v 0.320152 0.130645 -0.410509
v 0.336954 -0.272604 -0.410509
v 0.331913 0.231457 -0.410509
v 0.336954 -0.272604 0.372466
v 0.320152 0.231457 -0.410509
v 0.320152 0.231457 0.372466
v 0.367197 -0.326370 -0.410509
v 0.367197 -0.326370 0.372466
v 0.331913 -0.272604 -0.410509
v 0.331913 -0.326370 0.372466
v 0.331913 -0.326370 -0.410509
v 0.331913 -0.272604 0.372466
vt 0.765625 0.225694
vt 0 0.236111
vt 0 0.225694
vt 0.765625 0.236111
vt -0.002604 0.225694
vt 0.002604 0
vt 0 0.765625
vt 0 0
vt 0.018229 0.288194
vt -0.006076 0.765625
vt -0.018229 0.288194
vt 0.002604 0.765625
vt 0.002604 0.225694
vt 0 0.288194
vt -0.006076 0
vt -0.006076 0.236111
vt -0.002604 0.027778
vt 0.765625 0.027778
vt 0.002604 0.027778
vt -0.018229 0.765625
vt 0.006076 0.288194
vt 0.006076 0.236111
vt -0.006076 0.288194
vt -0.018229 0
vt 0 0.027778
vt 0.018229 0
vt 0.006076 0
vt 0.765625 0.288194
vt 0.006076 0.765625
vt -0.765625 0.288194
vt -0.002604 0.765625
vt -0.002604 0
vt -0.765625 0
vt 0.018229 0.765625
vt 0.765625 0
vn -1 0 0
vn 1 0 0
vn 0 0 -1
vn 0 0 1
vn 0 -1 0
vn 0 1 0
usemtl material_0_0
f 1/1/1 2/2/1 3/3/1
f 2/2/1 1/1/1 4/4/1
f 3/3/2 2/2/2 1/1/2
f 4/4/2 1/1/2 2/2/2
f 2/2/3 5/5/3 3/3/3
f 3/3/4 5/5/4 2/2/4
f 5/6/5 1/7/5 3/8/5
f 3/8/6 1/7/6 5/6/6
f 1/3/4 6/9/4 4/2/4
f 4/2/3 6/9/3 1/3/3
f 7/10/5 2/8/5 4/7/5
f 4/7/6 2/8/6 7/10/6
f 8/11/3 5/5/3 2/2/3
f 2/2/4 5/5/4 8/11/4
f 1/7/5 5/6/5 9/12/5
f 9/12/6 5/6/6 1/7/6
f 9/13/4 6/9/4 1/3/4
f 1/3/3 6/9/3 9/13/3
f 4/2/4 6/9/4 10/14/4
f 10/14/3 6/9/3 4/2/3
f 2/8/5 7/10/5 11/15/5
f 11/15/6 7/10/6 2/8/6
f 10/14/4 7/16/4 4/2/4
f 4/2/3 7/16/3 10/14/3
f 8/11/3 12/17/3 5/5/3
f 5/5/4 12/17/4 8/11/4
f 8/11/3 2/2/3 13/14/3
f 13/14/4 2/2/4 8/11/4
f 5/3/1 14/18/1 9/1/1
f 9/1/2 14/18/2 5/3/2
f 14/19/4 6/9/4 9/13/4
f 9/13/3 6/9/3 14/19/3
f 6/20/6 13/8/6 10/7/6
f 10/7/5 13/8/5 6/20/5
f 7/4/1 15/14/1 11/2/1
f 11/2/2 15/14/2 7/4/2
f 15/21/3 2/2/3 11/22/3
f 11/22/4 2/2/4 15/21/4
f 7/16/4 10/14/4 16/23/4
f 16/23/3 10/14/3 7/16/3
f 17/24/3 12/17/3 8/11/3
f 8/11/4 12/17/4 17/24/4
f 14/18/1 5/3/1 12/25/1
f 12/25/2 5/3/2 14/18/2
f 2/2/3 15/21/3 13/14/3
f 13/14/4 15/21/4 2/2/4
f 13/8/6 6/20/6 8/24/6
f 8/24/5 6/20/5 13/8/5
f 14/19/4 18/26/4 6/9/4
f 6/9/3 18/26/3 14/19/3
f 15/27/6 10/7/6 13/8/6
f 13/8/5 10/7/5 15/27/5
f 15/14/1 7/4/1 16/28/1
f 16/28/2 7/4/2 15/14/2
f 10/7/6 15/27/6 16/29/6
f 16/29/5 15/27/5 10/7/5
f 17/24/3 19/25/3 12/17/3
f 12/17/4 19/25/4 17/24/4
f 6/30/2 17/8/2 8/14/2
f 8/14/1 17/8/1 6/30/1
f 19/8/6 14/31/6 12/32/6
f 12/32/5 14/31/5 19/8/5
f 18/26/4 14/19/4 20/8/4
f 20/8/3 14/19/3 18/26/3
f 17/8/2 6/30/2 18/33/2
f 18/33/1 6/30/1 17/8/1
f 19/25/3 17/24/3 21/8/3
f 21/8/4 17/24/4 19/25/4
f 14/31/6 19/8/6 22/7/6
f 22/7/5 19/8/5 14/31/5
f 22/25/4 20/8/4 14/19/4
f 14/19/3 20/8/3 22/25/3
f 20/7/5 17/26/5 18/34/5
f 18/34/6 17/26/6 20/7/6
f 17/26/5 20/7/5 21/8/5
f 21/8/6 20/7/6 17/26/6
f 20/35/1 19/25/1 21/8/1
f 21/8/2 19/25/2 20/35/2
f 19/25/1 20/35/1 22/18/1
f 22/18/2 20/35/2 19/25/2
