# SSTK version 0.8.0
# 10
mtllib original-10.mtl
o Group_726_2/Group_726/mesh11/mesh11-geometry#mesh11-geometry
v -0.359658 0.165929 0.164120
v 0.308391 0.231457 0.164120
v 0.308391 0.165929 0.164120
v -0.359658 0.231457 0.164120
v 0.308391 0.231457 0.168321
v -0.359658 0.165929 0.168321
v -0.359658 0.231457 0.168321
v 0.308391 0.165929 0.168321
v -0.359658 0.165929 0.171281
v 0.308391 0.231457 0.175882
v 0.308391 0.231457 0.171303
v 0.311751 0.165929 0.168321
v -0.359658 0.165929 0.175882
v -0.363019 0.165929 0.171281
v -0.363019 0.231457 0.168321
v -0.359658 0.231457 0.171281
v 0.311751 0.231457 0.171303
v 0.311751 0.231457 0.168321
v 0.308391 0.165929 0.171303
v -0.363019 0.165929 0.168321
v -0.359658 0.231457 0.175882
v 0.308391 0.165929 0.175882
v 0.311751 0.165929 0.171303
v -0.363019 0.231457 0.171281
vt 0 0
vt -2.9625 0.3
vt -2.9625 0
vt 0 0.3
vt -0.015625 0.3
vt 0 -0.015625
vt 0.015625 0.3
vt 2.9625 -0.015625
vt 2.9625 0
vt -0.015625 0
vt 0 -0.026636
vt 0.015625 0
vt 2.9625 -0.04375
vt 2.9625 -0.026718
vt -2.977402 0
vt 0 -0.04375
vt -2.9625 -0.015625
vt 0.014902 -0.026636
vt 0.014902 0.3
vt 2.977402 -0.026718
vt -2.977402 0.3
vt -2.977402 -0.015625
vt -2.9625 -0.026718
vt 0.04375 0
vt 0.026636 0.3
vt 0.026636 0
vt 0.014902 -0.015625
vt -0.014902 0
vt 0.014902 0
vt -0.014902 -0.015625
vt -0.04375 0
vt -0.026718 0.3
vt -0.04375 0.3
vt 2.977402 -0.015625
vt 2.9625 0.3
vt 2.977402 0
vt 2.977402 0.3
vt -2.977402 -0.026718
vt -2.9625 -0.04375
vt 0.04375 0.3
vt -0.014902 0.3
vt -0.014902 -0.026636
vt -0.026718 0
vn 0 0 -1
vn 1 0 0
vn 0 -1 0
vn -1 0 0
vn 0 1 0
vn 0 0 1
usemtl material_0_0
f 1/1/1 2/2/1 3/3/1
f 2/2/1 1/1/1 4/4/1
f 5/5/2 3/1/2 2/4/2
f 3/3/3 6/6/3 1/1/3
f 1/1/4 7/7/4 4/4/4
f 4/1/5 5/8/5 2/9/5
f 3/1/2 5/5/2 8/10/2
f 6/6/3 3/3/3 9/11/3
f 7/7/4 1/1/4 6/12/4
f 7/6/5 10/13/5 4/1/5
f 5/8/5 4/1/5 11/14/5
f 5/2/1 12/15/1 8/3/1
f 13/16/3 3/3/3 8/17/3
f 9/11/3 3/3/3 13/16/3
f 14/18/3 6/6/3 9/11/3
f 6/1/1 15/19/1 7/4/1
f 16/11/5 10/13/5 7/6/5
f 4/1/5 10/13/5 11/14/5
f 17/20/5 5/8/5 11/14/5
f 12/15/1 5/2/1 18/21/1
f 12/22/3 19/23/3 8/17/3
f 19/23/3 13/16/3 8/17/3
f 13/24/4 16/25/4 9/26/4
f 6/6/3 14/18/3 20/27/3
f 16/4/6 14/28/6 9/1/6
f 15/19/1 6/1/1 20/29/1
f 15/30/5 16/11/5 7/6/5
f 10/13/5 16/11/5 21/16/5
f 22/31/2 11/32/2 10/33/2
f 5/8/5 17/20/5 18/34/5
f 11/35/6 23/36/6 17/37/6
f 17/32/2 12/10/2 18/5/2
f 19/23/3 12/22/3 23/38/3
f 13/16/3 19/23/3 22/39/3
f 16/25/4 13/24/4 21/40/4
f 24/25/4 20/12/4 14/26/4
f 14/28/6 16/4/6 24/41/6
f 20/12/4 24/25/4 15/7/4
f 16/11/5 15/30/5 24/42/5
f 13/1/6 10/35/6 21/4/6
f 11/32/2 22/31/2 19/43/2
f 10/35/6 13/1/6 22/9/6
f 23/36/6 11/35/6 19/9/6
f 12/10/2 17/32/2 23/43/2
usemtl material_1_0
f 3//6 2//6 1//6
f 4//6 1//6 2//6
f 2//4 3//4 5//4
f 1//5 6//5 3//5
f 4//2 7//2 1//2
f 2//3 5//3 4//3
f 8//4 5//4 3//4
f 9//5 3//5 6//5
f 6//2 1//2 7//2
f 4//3 10//3 7//3
f 11//3 4//3 5//3
f 8//6 12//6 5//6
f 8//5 3//5 13//5
f 13//5 3//5 9//5
f 9//5 6//5 14//5
f 7//6 15//6 6//6
f 7//3 10//3 16//3
f 11//3 10//3 4//3
f 11//3 5//3 17//3
f 18//6 5//6 12//6
f 8//5 19//5 12//5
f 8//5 13//5 19//5
f 9//2 16//2 13//2
f 20//5 14//5 6//5
f 9//1 14//1 16//1
f 20//6 6//6 15//6
f 7//3 16//3 15//3
f 21//3 16//3 10//3
f 10//4 11//4 22//4
f 18//3 17//3 5//3
f 17//1 23//1 11//1
f 18//4 12//4 17//4
f 23//5 12//5 19//5
f 22//5 19//5 13//5
f 21//2 13//2 16//2
f 14//2 20//2 24//2
f 24//1 16//1 14//1
f 15//2 24//2 20//2
f 24//3 15//3 16//3
f 21//1 10//1 13//1
f 19//4 22//4 11//4
f 22//1 13//1 10//1
f 19//1 11//1 23//1
f 23//4 17//4 12//4
