# SSTK version 0.8.0
# 46
mtllib original-46.mtl
o Group12/mesh36/mesh36-geometry#mesh36-geometry
v 0.713991 0.009166 0.389267
v 0.713991 -0.121890 0.411110
v 0.713991 -0.121890 0.389267
v 0.713991 0.009166 0.411110
v 0.367197 -0.121890 0.389267
v 0.367197 0.009166 0.411110
v 0.367197 -0.121890 0.411110
v 0.367197 0.009166 0.389267
vt 0.011285 0.153451
vt 0 0.002799
vt 0.011285 0.002799
vt 0 0.153451
vt 0 0
vt -0.011285 0.179167
vt -0.011285 0
vt 0.179167 0.002799
vt 0.011285 0
vt 0 0.179167
vt -0.179167 0.153451
vt 0.179167 0.153451
vt 0.011285 0.179167
vt -0.179167 0.002799
vt -0.011285 0.002799
vt -0.011285 0.153451
vn 1 0 0
vn 0 -1 0
vn 0 0 -1
vn 0 1 0
vn 0 0 1
vn -1 0 0
usemtl material_0_0
f 1/1/1 2/2/1 3/3/1
f 2/2/1 1/1/1 4/4/1
f 2/5/2 5/6/2 3/7/2
f 5/8/3 1/4/3 3/2/3
f 1/9/4 6/10/4 4/5/4
f 6/11/5 2/2/5 4/4/5
f 5/6/2 2/5/2 7/10/2
f 1/4/3 5/8/3 8/12/3
f 6/10/4 1/9/4 8/13/4
f 2/2/5 6/11/5 7/14/5
f 6/4/6 5/15/6 7/2/6
f 5/15/6 6/4/6 8/16/6
usemtl material_1_0
f 3//6 2//6 1//6
f 4//6 1//6 2//6
f 3//4 5//4 2//4
f 3//5 1//5 5//5
f 4//2 6//2 1//2
f 4//3 2//3 6//3
f 7//4 2//4 5//4
f 8//5 5//5 1//5
f 8//2 1//2 6//2
f 7//3 6//3 2//3
f 7//1 5//1 6//1
f 8//1 6//1 5//1
