# SSTK version 0.8.0
# 28
mtllib original-28.mtl
o Group_727_1/Group_727/mesh30/mesh30-geometry#mesh30-geometry
v -0.765259 0.177691 -0.445793
v 0.716680 0.231457 -0.445793
v 0.716680 0.177691 -0.445793
v -0.765259 0.231457 -0.445793
v 0.716680 0.177691 -0.440753
v -0.765259 0.231457 -0.410509
v 0.716680 0.231457 -0.410509
v -0.765259 0.177691 -0.440753
v 0.716680 -0.272604 -0.440753
v -0.765259 -0.272604 -0.440753
v -0.765259 -0.272604 -0.410509
v 0.713991 -0.272604 -0.410509
v 0.716680 -0.326370 -0.410509
v 0.716680 -0.272604 -0.445793
v -0.765259 -0.272604 -0.405469
v 0.713991 -0.326370 -0.410509
v 0.716680 -0.326370 -0.445793
v -0.765259 -0.272604 -0.445793
v -0.765259 -0.326370 -0.445793
v 0.713991 -0.272604 -0.405469
v -0.765259 -0.326370 -0.405469
v 0.713991 -0.326370 -0.405469
vt 0.765625 0.260417
vt 0 0.288194
vt 0 0.260417
vt 0.765625 0.288194
vt -0.002604 0.260417
vt 0.002604 0
vt 0 0.765625
vt 0 0
vt 0.018229 0.288194
vt -0.018229 0.765625
vt -0.018229 0.288194
vt 0.002604 0.765625
vt 0.002604 0.260417
vt -0.018229 0
vt -0.002604 0.027778
vt 0.765625 0.027778
vt 0.018229 0.027778
vt -0.001389 0.027778
vt -0.765625 0.288194
vt 0 0.027778
vt 0.002604 0.027778
vt -0.765625 0.027778
vt -0.002604 0.765625
vt -0.002604 0
vt 0.020833 0.027778
vt -0.020833 0.765625
vt -0.018229 0.001389
vt -0.001389 0
vt -0.020833 0.001389
vt 0.018229 0.001389
vt 0.018229 0
vt -0.020833 0.027778
vt -0.018229 0.027778
vt 0.765625 0
vt 0.020833 0
vt -0.020833 0
vt 0.020833 0.001389
vt 0.020833 0.765625
vt -0.765625 0
vn 0 0 -1
vn 0 0 1
vn 1 0 0
vn -1 0 0
vn 0 -1 0
vn 0 1 0
usemtl material_0_0
f 1/1/1 2/2/1 3/3/1
f 2/2/1 1/1/1 4/4/1
f 3/3/2 2/2/2 1/1/2
f 4/4/2 1/1/2 2/2/2
f 2/2/3 5/5/3 3/3/3
f 3/3/4 5/5/4 2/2/4
f 5/6/5 1/7/5 3/8/5
f 3/8/6 1/7/6 5/6/6
f 1/3/4 6/9/4 4/2/4
f 4/2/3 6/9/3 1/3/3
f 6/10/6 2/8/6 4/7/6
f 4/7/5 2/8/5 6/10/5
f 7/11/3 5/5/3 2/2/3
f 2/2/4 5/5/4 7/11/4
f 1/7/5 5/6/5 8/12/5
f 8/12/6 5/6/6 1/7/6
f 8/13/4 6/9/4 1/3/4
f 1/3/3 6/9/3 8/13/3
f 2/8/6 6/10/6 7/14/6
f 7/14/5 6/10/5 2/8/5
f 7/11/3 9/15/3 5/5/3
f 5/5/4 9/15/4 7/11/4
f 5/3/1 10/16/1 8/1/1
f 8/1/2 10/16/2 5/3/2
f 8/13/4 11/17/4 6/9/4
f 6/9/3 11/17/3 8/13/3
f 12/18/2 7/2/2 6/19/2
f 6/19/1 7/2/1 12/18/1
f 13/14/3 9/15/3 7/11/3
f 7/11/4 9/15/4 13/14/4
f 10/16/1 5/3/1 9/20/1
f 9/20/2 5/3/2 10/16/2
f 10/21/4 11/17/4 8/13/4
f 8/13/3 11/17/3 10/21/3
f 12/18/2 6/19/2 11/22/2
f 11/22/1 6/19/1 12/18/1
f 7/2/2 12/18/2 13/8/2
f 13/8/1 12/18/1 7/2/1
f 13/14/3 14/20/3 9/15/3
f 9/15/4 14/20/4 13/14/4
f 14/8/6 10/23/6 9/24/6
f 9/24/5 10/23/5 14/8/5
f 10/21/4 15/25/4 11/17/4
f 11/17/3 15/25/3 10/21/3
f 15/26/6 12/27/6 11/10/6
f 11/10/5 12/27/5 15/26/5
f 16/28/2 13/8/2 12/18/2
f 12/18/1 13/8/1 16/28/1
f 14/20/3 13/14/3 17/8/3
f 17/8/4 13/14/4 14/20/4
f 10/23/6 14/8/6 18/7/6
f 18/7/5 14/8/5 10/23/5
f 19/8/4 15/25/4 10/21/4
f 10/21/3 15/25/3 19/8/3
f 12/27/6 15/26/6 20/29/6
f 20/29/5 15/26/5 12/27/5
f 16/30/5 17/8/5 13/31/5
f 13/31/6 17/8/6 16/30/6
f 20/32/3 16/14/3 12/33/3
f 12/33/4 16/14/4 20/32/4
f 19/34/1 14/20/1 17/8/1
f 17/8/2 14/20/2 19/34/2
f 14/20/1 19/34/1 18/16/1
f 18/16/2 19/34/2 14/20/2
f 18/20/4 19/8/4 10/21/4
f 10/21/3 19/8/3 18/20/3
f 15/25/4 19/8/4 21/35/4
f 21/35/3 19/8/3 15/25/3
f 15/22/2 22/28/2 20/18/2
f 20/18/1 22/28/1 15/22/1
f 17/8/5 16/30/5 19/7/5
f 19/7/6 16/30/6 17/8/6
f 16/14/3 20/32/3 22/36/3
f 22/36/4 20/32/4 16/14/4
f 19/7/5 22/37/5 21/38/5
f 21/38/6 22/37/6 19/7/6
f 22/28/2 15/22/2 21/39/2
f 21/39/1 15/22/1 22/28/1
f 22/37/5 19/7/5 16/30/5
f 16/30/6 19/7/6 22/37/6
