# SSTK version 0.8.0
# 16
mtllib original-16.mtl
o Group_707_1/Group_707/mesh20/mesh20-geometry#mesh20-geometry
v -0.383181 0.110482 -0.410509
v -0.383181 0.130645 -0.410509
v -0.383181 0.110482 0.372466
v -0.388222 0.110482 -0.410509
v -0.383181 0.130645 0.372466
v -0.418466 0.231457 -0.410509
v -0.418466 0.231457 0.372466
v -0.371420 0.130645 0.372466
v -0.388222 0.110482 0.372466
v -0.388222 -0.272604 -0.410509
v -0.383181 0.231457 -0.410509
v -0.383181 0.231457 0.372466
v -0.371420 0.130645 -0.410509
v -0.388222 -0.272604 0.372466
v -0.418466 -0.326370 -0.410509
v -0.371420 0.231457 -0.410509
v -0.371420 0.231457 0.372466
v -0.383181 -0.272604 -0.410509
v -0.418466 -0.326370 0.372466
v -0.383181 -0.272604 0.372466
v -0.383181 -0.326370 -0.410509
v -0.383181 -0.326370 0.372466
vt 0 0.225694
vt 0 0.236111
vt 0.765625 0.225694
vt -0.002604 0.225694
vt 0.765625 0.236111
vt 0 0
vt 0 0.765625
vt 0.002604 0
vt -0.018229 0.288194
vt 0.018229 0.288194
vt -0.006076 0.765625
vt 0.002604 0.765625
vt -0.002604 0.027778
vt 0 0.288194
vt 0.002604 0.225694
vt -0.006076 0
vt -0.006076 0.236111
vt 0.765625 0.027778
vt 0 0.027778
vt -0.018229 0
vt 0.006076 0.288194
vt -0.018229 0.765625
vt 0.002604 0.027778
vt 0.006076 0.236111
vt -0.006076 0.288194
vt -0.002604 0
vt -0.002604 0.765625
vt -0.765625 0.288194
vt 0.006076 0
vt 0.018229 0
vt 0.765625 0.288194
vt 0.006076 0.765625
vt -0.765625 0
vt 0.765625 0
vt 0.018229 0.765625
vn 1 0 0
vn -1 0 0
vn 0 0 -1
vn 0 0 1
vn 0 -1 0
vn 0 1 0
usemtl material_0_0
f 1/1/1 2/2/1 3/3/1
f 3/3/2 2/2/2 1/1/2
f 1/1/3 4/4/3 2/2/3
f 2/2/4 4/4/4 1/1/4
f 5/5/1 3/3/1 2/2/1
f 2/2/2 3/3/2 5/5/2
f 1/6/5 3/7/5 4/8/5
f 4/8/6 3/7/6 1/6/6
f 2/2/3 4/4/3 6/9/3
f 6/9/4 4/4/4 2/2/4
f 5/2/4 7/10/4 3/1/4
f 3/1/3 7/10/3 5/2/3
f 5/7/5 2/6/5 8/11/5
f 8/11/6 2/6/6 5/7/6
f 9/12/5 4/8/5 3/7/5
f 3/7/6 4/8/6 9/12/6
f 4/4/3 10/13/3 6/9/3
f 6/9/4 10/13/4 4/4/4
f 11/14/3 2/2/3 6/9/3
f 6/9/4 2/2/4 11/14/4
f 12/14/4 7/10/4 5/2/4
f 5/2/3 7/10/3 12/14/3
f 3/1/4 7/10/4 9/15/4
f 9/15/3 7/10/3 3/1/3
f 13/16/5 8/11/5 2/6/5
f 2/6/6 8/11/6 13/16/6
f 5/2/4 8/17/4 12/14/4
f 12/14/3 8/17/3 5/2/3
f 9/3/1 14/18/1 4/1/1
f 4/1/2 14/18/2 9/3/2
f 10/19/1 4/1/1 14/18/1
f 14/18/2 4/1/2 10/19/2
f 6/9/3 10/13/3 15/20/3
f 15/20/4 10/13/4 6/9/4
f 11/14/3 16/21/3 2/2/3
f 2/2/4 16/21/4 11/14/4
f 6/20/6 7/22/6 11/6/6
f 11/6/5 7/22/5 6/20/5
f 12/7/6 11/6/6 7/22/6
f 7/22/5 11/6/5 12/7/5
f 9/15/4 7/10/4 14/23/4
f 14/23/3 7/10/3 9/15/3
f 13/2/1 16/14/1 8/5/1
f 8/5/2 16/14/2 13/2/2
f 13/24/3 2/2/3 16/21/3
f 16/21/4 2/2/4 13/24/4
f 17/25/4 12/14/4 8/17/4
f 8/17/3 12/14/3 17/25/3
f 10/26/6 14/27/6 18/6/6
f 18/6/5 14/27/5 10/26/5
f 10/13/3 18/19/3 15/20/3
f 15/20/4 18/19/4 10/13/4
f 6/14/2 15/6/2 7/28/2
f 7/28/1 15/6/1 6/14/1
f 11/6/6 12/7/6 16/29/6
f 16/29/5 12/7/5 11/6/5
f 7/10/4 19/30/4 14/23/4
f 14/23/3 19/30/3 7/10/3
f 17/31/1 8/5/1 16/14/1
f 16/14/2 8/5/2 17/31/2
f 17/32/6 16/29/6 12/7/6
f 12/7/5 16/29/5 17/32/5
f 20/7/6 18/6/6 14/27/6
f 14/27/5 18/6/5 20/7/5
f 21/6/3 15/20/3 18/19/3
f 18/19/4 15/20/4 21/6/4
f 19/33/2 7/28/2 15/6/2
f 15/6/1 7/28/1 19/33/1
f 22/6/4 14/23/4 19/30/4
f 19/30/3 14/23/3 22/6/3
f 20/18/1 22/34/1 18/19/1
f 18/19/2 22/34/2 20/18/2
f 14/23/4 22/6/4 20/19/4
f 20/19/3 22/6/3 14/23/3
f 21/6/5 22/7/5 15/30/5
f 15/30/6 22/7/6 21/6/6
f 21/6/1 18/19/1 22/34/1
f 22/34/2 18/19/2 21/6/2
f 19/35/5 15/30/5 22/7/5
f 22/7/6 15/30/6 19/35/6
