# SSTK version 0.8.0
# 88
mtllib original-88.mtl
o Group_710_2/Group_710_1_2/mesh41/mesh41-geometry#mesh41-geometry
v 0.367197 0.175254 0.461516
v 0.378959 0.051759 0.461516
v 0.378959 0.175254 0.461516
v 0.367197 0.051759 0.461516
v 0.378959 0.051759 0.290135
v 0.378959 0.175254 0.290135
v 0.367197 0.051759 -0.338260
v 0.373918 0.051759 0.290135
v 0.373918 0.175254 0.290135
v 0.367197 0.175254 -0.338260
v 0.378959 0.175254 -0.338260
v 0.373918 0.051759 0.285095
v 0.373918 0.175254 0.285095
v 0.378959 0.051759 -0.338260
v 0.373918 0.175254 -0.017342
v 0.373918 0.051759 0.138917
v 0.373918 0.175254 0.138917
v 0.378959 0.051759 -0.017342
v 0.373918 0.175254 -0.012301
v 0.378959 0.175254 -0.017342
v 0.373918 0.051759 0.133877
v 0.378959 0.051759 0.285095
v 0.378959 0.175254 0.138917
v 0.373918 0.175254 0.133877
v 0.373918 0.051759 -0.017342
v 0.373918 0.051759 -0.012301
v 0.378959 0.051759 0.138917
v 0.378959 0.175254 0.285095
v 0.378959 0.175254 -0.012301
v 0.378959 0.051759 0.133877
v 0.378959 0.175254 0.133877
v 0.378959 0.051759 -0.012301
vt -0.04375 0.48125
vt 0 0.04375
vt 0 0.48125
vt -0.04375 0.04375
vt 0.6375 0.04375
vt 0.6375 0
vt 0 0
vt -2.975 0.04375
vt -0.6375 0.01875
vt 0.6375 0.48125
vt -0.6375 0
vt 0.6375 0.01875
vt -2.975 0.48125
vt -97.438655 0.88125
vt -97.457405 1.31875
vt -97.457405 0.88125
vt -97.438655 1.31875
vt 2.975 0.04375
vt 0.04375 0.04375
vt 0.04375 0.48125
vt -0.65625 0.01875
vt 30.951722 0.88125
vt 30.970472 1.31875
vt 30.951722 1.31875
vt 0.65625 0.01875
vt 1.78125 0.01875
vt 2.975 0
vt -1.2 0.01875
vt 30.970472 0.88125
vt 1.2 0.01875
vt 2.975 0.48125
vt 1.78125 0.04375
vt -1.78125 0
vt -2.975 0
vt 1.7625 0.01875
vt 1.78125 0
vt -1.21875 0.01875
vt -0.65625 0
vt 97.457405 0.88125
vt 97.438655 1.31875
vt 97.438655 0.88125
vt 1.2 0
vt 1.21875 0.01875
vt 1.78125 0.48125
vt -1.78125 0.01875
vt 32.076722 -0.24375
vt 32.095472 0.19375
vt 32.076722 0.19375
vt 97.438655 0.19375
vt 97.457405 -0.24375
vt 97.457405 0.19375
vt -1.7625 0.01875
vt 31.532972 0.75625
vt 31.514222 0.31875
vt 31.532972 0.31875
vt -1.2 0
vt 97.457405 1.31875
vt 0.65625 0
vt -97.457405 0.75625
vt -97.438655 0.31875
vt -97.438655 0.75625
vt 31.514222 0.75625
vt 97.438655 -0.24375
vt 1.7625 0
vt 32.095472 -0.24375
vt -97.457405 0.19375
vt -97.438655 -0.24375
vt -97.438655 0.19375
vt -1.21875 0
vt 97.457405 0.31875
vt 97.438655 0.75625
vt 97.438655 0.31875
vt 1.2 0.48125
vt 0.65625 0.04375
vt 1.2 0.04375
vt -97.457405 0.31875
vt 0.65625 0.48125
vt 1.21875 0
vt -97.457405 -0.24375
vt -1.7625 0
vt 97.457405 0.75625
vt 1.21875 0.04375
vt 1.7625 0.48125
vt 1.21875 0.48125
vt 1.7625 0.04375
vn 0 0 1
vn 1 0 0
vn 0 1 0
vn -1 0 0
vn 0 -1 0
vn 0 0 -1
usemtl material_0_0
f 1/1/1 2/2/1 3/3/1
f 2/2/1 1/1/1 4/4/1
f 5/5/2 3/3/2 2/2/2
f 6/6/3 1/2/3 3/7/3
f 1/3/4 7/8/4 4/2/4
f 4/2/5 8/9/5 2/7/5
f 3/3/2 5/5/2 6/10/2
f 5/11/5 2/7/5 8/9/5
f 1/2/3 6/6/3 9/12/3
f 7/8/4 1/3/4 10/13/4
f 8/9/5 4/2/5 7/8/5
f 8/14/6 6/15/6 5/16/6
f 6/15/6 8/14/6 9/17/6
f 1/2/3 9/12/3 10/18/3
f 11/3/6 7/19/6 10/20/6
f 8/9/5 7/8/5 12/21/5
f 8/22/2 13/23/2 9/24/2
f 10/18/3 9/12/3 13/25/3
f 7/19/6 11/3/6 14/2/6
f 10/18/3 15/26/3 11/27/3
f 12/21/5 7/8/5 16/28/5
f 13/23/2 8/22/2 12/29/2
f 10/18/3 13/25/3 17/30/3
f 11/31/2 18/32/2 14/18/2
f 18/33/5 7/8/5 14/34/5
f 10/18/3 19/35/3 15/26/3
f 11/27/3 15/26/3 20/36/3
f 16/28/5 7/8/5 21/37/5
f 12/21/5 16/28/5 22/38/5
f 22/39/1 13/40/1 12/41/1
f 17/30/3 13/25/3 23/42/3
f 10/18/3 17/30/3 24/43/3
f 18/32/2 11/31/2 20/44/2
f 25/45/5 7/8/5 18/33/5
f 10/18/3 24/43/3 19/35/3
f 26/46/2 15/47/2 19/48/2
f 15/49/1 18/50/1 20/51/1
f 21/37/5 7/8/5 26/52/5
f 24/53/2 16/54/2 21/55/2
f 27/56/5 22/38/5 16/28/5
f 13/40/1 22/39/1 28/57/1
f 23/42/3 13/25/3 28/58/3
f 23/59/6 16/60/6 17/61/6
f 16/54/2 24/53/2 17/62/2
f 26/52/5 7/8/5 25/45/5
f 18/50/1 15/49/1 25/63/1
f 19/35/3 24/43/3 29/64/3
f 15/47/2 26/46/2 25/65/2
f 29/66/6 26/67/6 19/68/6
f 21/37/5 26/52/5 30/69/5
f 30/70/1 24/71/1 21/72/1
f 23/73/2 22/74/2 27/75/2
f 16/60/6 23/59/6 27/76/6
f 22/74/2 23/73/2 28/77/2
f 29/64/3 24/43/3 31/78/3
f 26/67/6 29/66/6 32/79/6
f 32/80/5 30/69/5 26/52/5
f 24/71/1 30/70/1 31/81/1
f 30/82/2 29/83/2 31/84/2
f 29/83/2 30/82/2 32/85/2
usemtl material_1_0
f 3//6 2//6 1//6
f 4//6 1//6 2//6
f 2//4 3//4 5//4
f 3//5 1//5 6//5
f 4//2 7//2 1//2
f 2//3 8//3 4//3
f 6//4 5//4 3//4
f 8//3 2//3 5//3
f 9//5 6//5 1//5
f 10//2 1//2 7//2
f 7//3 4//3 8//3
f 5//1 6//1 8//1
f 9//1 8//1 6//1
f 10//5 9//5 1//5
f 10//1 7//1 11//1
f 12//3 7//3 8//3
f 9//4 13//4 8//4
f 13//5 9//5 10//5
f 14//1 11//1 7//1
f 11//5 15//5 10//5
f 16//3 7//3 12//3
f 12//4 8//4 13//4
f 17//5 13//5 10//5
f 14//4 18//4 11//4
f 14//3 7//3 18//3
f 15//5 19//5 10//5
f 20//5 15//5 11//5
f 21//3 7//3 16//3
f 22//3 16//3 12//3
f 12//6 13//6 22//6
f 23//5 13//5 17//5
f 24//5 17//5 10//5
f 20//4 11//4 18//4
f 18//3 7//3 25//3
f 19//5 24//5 10//5
f 19//4 15//4 26//4
f 20//6 18//6 15//6
f 26//3 7//3 21//3
f 21//4 16//4 24//4
f 16//3 22//3 27//3
f 28//6 22//6 13//6
f 28//5 13//5 23//5
f 17//1 16//1 23//1
f 17//4 24//4 16//4
f 25//3 7//3 26//3
f 25//6 15//6 18//6
f 29//5 24//5 19//5
f 25//4 26//4 15//4
f 19//1 26//1 29//1
f 30//3 26//3 21//3
f 21//6 24//6 30//6
f 27//4 22//4 23//4
f 27//1 23//1 16//1
f 28//4 23//4 22//4
f 31//5 24//5 29//5
f 32//1 29//1 26//1
f 26//3 30//3 32//3
f 31//6 30//6 24//6
f 31//4 29//4 30//4
f 32//4 30//4 29//4
