# SSTK version 0.8.0
# 74
mtllib original-74.mtl
o Group22/mesh53/mesh53-geometry#mesh53-geometry
v -0.418466 0.176111 0.471597
v -0.418466 -0.121386 0.493440
v -0.418466 -0.121386 0.471597
v -0.418466 0.013921 0.493440
v -0.765259 -0.121386 0.471597
v -0.418466 0.013921 0.495120
v -0.765259 0.013921 0.493440
v -0.765259 -0.121386 0.493440
v -0.765259 0.176111 0.471597
v -0.418466 0.040804 0.493440
v -0.765259 0.176111 0.493440
v -0.418466 0.176111 0.493440
v -0.418466 0.040804 0.495120
v -0.765259 0.013921 0.495120
v -0.765259 0.040804 0.493440
v -0.765259 0.040804 0.495120
vt 0.011285 0.153451
vt 0 0.002799
vt 0.011285 0.002799
vt 0 0.071318
vt 0 0
vt -0.011285 0.179167
vt -0.011285 0
vt 0.179167 0.002799
vt 0 0.153451
vt -0.000868 0.071318
vt -0.179167 0.071318
vt 0 0.179167
vt 0.179167 0.153451
vt 0 0.084932
vt 0.000868 0
vt -0.179167 0.002799
vt -0.011285 0.002799
vt -0.011285 0.153451
vt 0.011285 0
vt 0.011285 0.179167
vt -0.000868 0.084932
vt 0.000868 0.179167
vt -0.179167 0.153451
vt -0.179167 0.084932
vt -0.000868 0.179167
vt -0.000868 0
vt 0.000868 0.084932
vt 0.000868 0.071318
vn 1 0 0
vn 0 -1 0
vn 0 0 -1
vn 0 0 1
vn -1 0 0
vn 0 1 0
usemtl material_0_0
f 1/1/1 2/2/1 3/3/1
f 2/2/1 1/1/1 4/4/1
f 2/5/2 5/6/2 3/7/2
f 5/8/3 1/9/3 3/2/3
f 4/4/1 1/1/1 6/10/1
f 7/11/4 2/2/4 4/4/4
f 5/6/2 2/5/2 8/12/2
f 1/9/3 5/8/3 9/13/3
f 6/10/1 1/1/1 10/14/1
f 6/15/2 7/12/2 4/5/2
f 2/2/4 7/11/4 8/16/4
f 7/4/5 5/17/5 8/2/5
f 5/17/5 7/4/5 9/18/5
f 11/12/6 1/19/6 9/20/6
f 10/14/1 1/1/1 12/9/1
f 13/21/1 6/10/1 10/14/1
f 7/12/2 6/15/2 14/22/2
f 9/18/5 7/4/5 15/14/5
f 1/19/6 11/12/6 12/5/6
f 9/18/5 15/14/5 11/9/5
f 11/23/4 10/14/4 12/9/4
f 16/24/4 6/4/4 13/14/4
f 10/5/6 16/25/6 13/26/6
f 6/4/4 16/24/4 14/11/4
f 16/27/5 7/4/5 14/28/5
f 15/14/5 7/4/5 16/27/5
f 10/14/4 11/23/4 15/24/4
f 16/25/6 10/5/6 15/12/6
usemtl material_1_0
f 3//5 2//5 1//5
f 4//5 1//5 2//5
f 3//6 5//6 2//6
f 3//4 1//4 5//4
f 6//5 1//5 4//5
f 4//3 2//3 7//3
f 8//6 2//6 5//6
f 9//4 5//4 1//4
f 10//5 1//5 6//5
f 4//6 7//6 6//6
f 8//3 7//3 2//3
f 8//1 5//1 7//1
f 9//1 7//1 5//1
f 9//2 1//2 11//2
f 12//5 1//5 10//5
f 10//5 6//5 13//5
f 14//6 6//6 7//6
f 15//1 7//1 9//1
f 12//2 11//2 1//2
f 11//1 15//1 9//1
f 12//3 10//3 11//3
f 13//3 6//3 16//3
f 13//2 16//2 10//2
f 14//3 16//3 6//3
f 14//1 7//1 16//1
f 16//1 7//1 15//1
f 15//3 11//3 10//3
f 15//2 10//2 16//2
