mtllib new-2.mtl
v -0.073404 0.018956 0.261259
v -0.073404 -0.579002 0.272983
v -0.612739 0.018956 0.272983
v -0.612739 -0.579002 0.272983
v -0.073404 0.018956 0.272983
vn 0.000000 0.000000 -1.000000
vn 0.000000 0.000000 1.000000
vn -1.000000 0.000000 0.000000
vn 1.000000 0.000000 0.000000
vt 0.161856 0.221851
vt 0.464487 0.221851
vt 0.464487 0.525422
vt 0.161856 0.525422
usemtl material-0
f 2/2/4 1/3/4 5/3/4
f 5/3/3 1/3/3 2/2/3
f 2/2/2 3/4/2 4/1/2
f 4/1/1 3/4/1 2/2/1
f 3/4/2 2/2/2 5/3/2
f 5/3/1 2/2/1 3/4/1