mtllib new-1.mtl
v 0.638860 0.153399 0.272983
v 0.638860 0.153399 0.261259
v 0.040902 0.153399 0.272983
v 0.071766 0.365683 0.261259
v 0.040902 0.153399 0.261259
v 0.071766 0.189813 0.261259
v 0.599376 0.189813 0.261259
v 0.071766 0.365683 0.272983
v 0.599376 0.189813 0.272983
v 0.071766 0.189813 0.272983
v 0.599376 0.365683 0.272983
vn 0.000000 0.000000 -1.000000
vn 0.000000 0.000000 1.000000
vn 0.000000 -1.000000 0.000000
vn 0.000000 1.000000 0.000000
vn -1.000000 0.000000 0.000000
vn 1.000000 0.000000 0.000000
vt 0.864152 0.593676
vt 0.528626 0.593676
vt 0.545944 0.701449
vt 0.841996 0.701449
vt 0.545944 0.612163
vt 0.841996 0.612163
usemtl material-0
f 2/1/4 3/2/4 1/1/4
f 1/1/3 3/2/3 2/1/3
f 3/2/4 2/1/4 5/2/4
f 5/2/3 2/1/3 3/2/3
f 6/5/2 5/2/2 2/1/2
f 2/1/1 5/2/1 6/5/1
f 6/5/5 8/3/5 4/3/5
f 4/3/6 8/3/6 6/5/6
f 6/5/2 2/1/2 7/6/2
f 7/6/1 2/1/1 6/5/1
f 8/3/5 6/5/5 10/5/5
f 10/5/6 6/5/6 8/3/6
f 9/6/3 6/5/3 7/6/3
f 7/6/4 6/5/4 9/6/4
f 6/5/3 9/6/3 10/5/3
f 10/5/4 9/6/4 6/5/4
f 9/6/2 8/3/2 10/5/2
f 10/5/1 8/3/1 9/6/1
f 8/3/2 9/6/2 11/4/2
f 11/4/1 9/6/1 8/3/1