# SSTK version 0.8.0
# 178
mtllib original-178.mtl
o #ID1418
v 0.042420 0.831480 -0.046098
v 0.044323 0.831480 -0.044673
v 0.043636 0.831480 -0.045360
v 0.037579 0.831480 -0.043771
v 0.038148 0.831480 -0.041762
v 0.039813 0.831480 -0.041107
v 0.033584 0.831480 -0.039776
v 0.036247 0.831480 -0.040635
v 0.034486 0.831480 -0.038874
v 0.033584 0.831480 -0.038831
v 0.048748 0.831480 -0.055369
v 0.049865 0.831480 -0.056056
v 0.049650 0.831480 -0.056271
v 0.051744 0.831480 -0.051557
v 0.045172 0.831480 -0.050225
v 0.051884 0.831480 -0.049570
v 0.050767 0.831480 -0.048453
v 0.048294 0.831480 -0.044890
v 0.044407 0.831480 -0.047500
v 0.047363 0.831480 -0.040689
v 0.041005 0.831480 -0.046080
v 0.047972 0.831480 -0.035848
v 0.050123 0.831480 -0.030368
v 0.040071 0.831480 -0.040850
v 0.049435 0.831480 -0.015849
v 0.053473 0.831480 -0.019457
v 0.049650 0.831480 -0.015634
v 0.049650 0.831480 -0.015634
v 0.049435 0.831480 -0.015849
v 0.053473 0.831480 -0.019457
v 0.050123 0.831480 -0.030368
v 0.040071 0.831480 -0.040850
v 0.039813 0.831480 -0.041107
v 0.037579 0.831480 -0.043771
v 0.047972 0.831480 -0.035848
v 0.041005 0.831480 -0.046080
v 0.047363 0.831480 -0.040689
v 0.042420 0.831480 -0.046098
v 0.044323 0.831480 -0.044673
v 0.044407 0.831480 -0.047500
v 0.048294 0.831480 -0.044890
v 0.045172 0.831480 -0.050225
v 0.050767 0.831480 -0.048453
v 0.051884 0.831480 -0.049570
v 0.051744 0.831480 -0.051557
v 0.048748 0.831480 -0.055369
v 0.049865 0.831480 -0.056056
v 0.049650 0.831480 -0.056271
v 0.033584 0.831480 -0.038831
v 0.033584 0.831480 -0.039776
v 0.034486 0.831480 -0.038874
v 0.036247 0.831480 -0.040635
v 0.038148 0.831480 -0.041762
v 0.043636 0.831480 -0.045360
vn 0 1 0
vn 0 -1 0
usemtl material_0_0
f 1//1 2//1 3//1
f 4//1 5//1 6//1
f 5//1 4//1 7//1
f 5//1 7//1 8//1
f 8//1 7//1 9//1
f 9//1 7//1 10//1
f 11//1 12//1 13//1
f 12//1 11//1 14//1
f 14//1 11//1 15//1
f 14//1 15//1 16//1
f 16//1 15//1 17//1
f 17//1 15//1 18//1
f 18//1 15//1 19//1
f 18//1 19//1 20//1
f 20//1 19//1 2//1
f 20//1 2//1 1//1
f 20//1 1//1 21//1
f 20//1 21//1 22//1
f 22//1 21//1 4//1
f 22//1 4//1 23//1
f 23//1 4//1 24//1
f 24//1 4//1 6//1
f 23//1 24//1 25//1
f 23//1 25//1 26//1
f 26//1 25//1 27//1
f 28//2 29//2 30//2
f 30//2 29//2 31//2
f 29//2 32//2 31//2
f 33//2 34//2 32//2
f 32//2 34//2 31//2
f 31//2 34//2 35//2
f 34//2 36//2 35//2
f 35//2 36//2 37//2
f 36//2 38//2 37//2
f 38//2 39//2 37//2
f 39//2 40//2 37//2
f 37//2 40//2 41//2
f 40//2 42//2 41//2
f 41//2 42//2 43//2
f 43//2 42//2 44//2
f 44//2 42//2 45//2
f 42//2 46//2 45//2
f 45//2 46//2 47//2
f 48//2 47//2 46//2
f 49//2 50//2 51//2
f 51//2 50//2 52//2
f 52//2 50//2 53//2
f 50//2 34//2 53//2
f 33//2 53//2 34//2
f 54//2 39//2 38//2
