# SSTK version 0.8.0
# 138
mtllib original-138.mtl
o #ID1209
v -0.035633 -0.414545 0.296853
v -0.036228 -0.415778 0.297066
v -0.036228 -0.415191 0.296963
v -0.035633 -0.416364 0.297171
v -0.017944 -0.416349 0.297257
v -0.017944 -0.414530 0.296939
v -0.017348 -0.415761 0.297157
v -0.017348 -0.415175 0.297055
v -0.035657 -0.413704 0.301664
v -0.017944 -0.414530 0.296939
v -0.035633 -0.414545 0.296853
v -0.017968 -0.413689 0.301750
v -0.017348 -0.415175 0.297055
v -0.017372 -0.414333 0.301866
v -0.017372 -0.414920 0.301968
v -0.017348 -0.415761 0.297157
v -0.017944 -0.416349 0.297257
v -0.017968 -0.415507 0.302068
v -0.035633 -0.416364 0.297171
v -0.035657 -0.415523 0.301982
v -0.036228 -0.415778 0.297066
v -0.036252 -0.414937 0.301877
v -0.036228 -0.415191 0.296963
v -0.036252 -0.414350 0.301774
vn 0.004925489468300207 -0.17222553090541712 -0.9850452304629697
vn -0.4045764424467923 0.9004935647005772 -0.15946548889946371
vn 0.40452094844166453 0.9012041169965982 -0.15554401878644517
vn 0.9326995768875783 0.3560274734594707 -0.057584176783196064
vn 0.9238799455427164 -0.3761536853329737 0.07038644212069144
vn 0.3827068119680567 -0.9097380761833749 0.16097244737972533
vn -0.3826507496665475 -0.9104102160009305 0.15726297205880366
vn -0.9238567237785833 -0.3777763744524962 0.06143097618164631
vn -0.9327214583996152 0.35438925386490017 -0.06662535392757185
usemtl material_0_0
f 1//1 2//1 3//1
f 2//1 1//1 4//1
f 4//1 1//1 5//1
f 5//1 1//1 6//1
f 5//1 6//1 7//1
f 7//1 6//1 8//1
f 9//2 10//3 11//2
f 10//3 9//2 12//3
f 13//4 12//3 14//4
f 12//3 13//4 10//3
f 13//4 15//5 16//5
f 15//5 13//4 14//4
f 15//5 17//6 16//5
f 17//6 15//5 18//6
f 18//6 19//7 17//6
f 19//7 18//6 20//7
f 20//7 21//8 19//7
f 21//8 20//7 22//8
f 22//8 23//9 21//8
f 23//9 22//8 24//9
f 9//2 23//9 24//9
f 23//9 9//2 11//2
