# SSTK version 0.8.0
# 35
mtllib original-35.mtl
o #ID209
v 0.280811 -0.958428 -0.260814
v 0.280789 -0.958428 -0.273225
v 0.281617 -0.958428 -0.267021
v 0.278426 -0.958428 -0.255027
v 0.278383 -0.958428 -0.279004
v 0.274625 -0.958428 -0.250054
v 0.274564 -0.958428 -0.283963
v 0.272111 -0.958428 -0.248119
v 0.269592 -0.958428 -0.287764
v 0.269666 -0.958428 -0.246235
v 0.263887 -0.958428 -0.243829
v 0.263805 -0.958428 -0.290149
v 0.257683 -0.958428 -0.243001
v 0.257597 -0.958428 -0.290955
v 0.251476 -0.958428 -0.243807
v 0.251393 -0.958428 -0.290127
v 0.245689 -0.958428 -0.246192
v 0.245615 -0.958428 -0.287721
v 0.240716 -0.958428 -0.249994
v 0.240656 -0.958428 -0.283902
v 0.236897 -0.958428 -0.254953
v 0.238781 -0.958428 -0.281449
v 0.236854 -0.958428 -0.278930
v 0.234491 -0.958428 -0.260731
v 0.234469 -0.958428 -0.273143
v 0.233663 -0.958428 -0.266935
v 0.238781 -0.958428 -0.281449
v 0.222997 -0.914026 -0.286897
v 0.226208 -0.914026 -0.291097
v 0.236854 -0.958428 -0.278930
v 0.240656 -0.958428 -0.283902
v 0.226208 -0.914026 -0.291097
v 0.229333 -0.914026 -0.295185
v 0.238781 -0.958428 -0.281449
v 0.245615 -0.958428 -0.287721
v 0.237598 -0.914026 -0.301550
v 0.251393 -0.958428 -0.290127
v 0.247229 -0.914026 -0.305559
v 0.257597 -0.958428 -0.290955
v 0.257569 -0.914026 -0.306939
v 0.263805 -0.958428 -0.290149
v 0.267914 -0.914026 -0.305596
v 0.269592 -0.958428 -0.287764
v 0.277559 -0.914026 -0.301621
v 0.274564 -0.958428 -0.283963
v 0.285847 -0.914026 -0.295285
v 0.292212 -0.914026 -0.287020
v 0.278383 -0.958428 -0.279004
v 0.296221 -0.914026 -0.277390
v 0.280789 -0.958428 -0.273225
v 0.297601 -0.914026 -0.267049
v 0.281617 -0.958428 -0.267021
v 0.296258 -0.914026 -0.256704
v 0.280811 -0.958428 -0.260814
v 0.278426 -0.958428 -0.255027
v 0.292283 -0.914026 -0.247059
v 0.274625 -0.958428 -0.250054
v 0.285947 -0.914026 -0.238772
v 0.272111 -0.958428 -0.248119
v 0.281759 -0.914026 -0.235546
v 0.281759 -0.914026 -0.235546
v 0.269666 -0.958428 -0.246235
v 0.272111 -0.958428 -0.248119
v 0.277682 -0.914026 -0.232406
v 0.263887 -0.958428 -0.243829
v 0.268052 -0.914026 -0.228397
v 0.257683 -0.958428 -0.243001
v 0.257711 -0.914026 -0.227017
v 0.251476 -0.958428 -0.243807
v 0.247366 -0.914026 -0.228360
v 0.245689 -0.958428 -0.246192
v 0.237721 -0.914026 -0.232335
v 0.240716 -0.958428 -0.249994
v 0.229434 -0.914026 -0.238671
v 0.223068 -0.914026 -0.246936
v 0.236897 -0.958428 -0.254953
v 0.219059 -0.914026 -0.256567
v 0.234491 -0.958428 -0.260731
v 0.217679 -0.914026 -0.266907
v 0.233663 -0.958428 -0.266935
v 0.234469 -0.958428 -0.273143
v 0.219022 -0.914026 -0.277252
vn 0 -1 0
vn -0.7482067578720663 -0.33615038107298434 -0.5720048677931497
vn -0.8156689869859444 -0.3387194945957067 -0.4689916925172049
vn -0.6664918052043912 -0.33871950264493683 -0.6641218051858849
vn -0.47189420818261496 -0.3387195058733741 -0.8139932141145897
vn -0.24513789259733215 -0.33871948977135724 -0.9083922725683934
vn -0.0016758050127181382 -0.3387195025706339 -0.9408859071406382
vn 0.2419005056091176 -0.3387195078541279 -0.9092597210836465
vn 0.46899169251720474 -0.3387194945957066 -0.8156689869859444
vn 0.6641218051858848 -0.33871950264493683 -0.6664918052043913
vn 0.8139932141145896 -0.3387195058733742 -0.471894208182615
vn 0.9083922725683933 -0.3387194897713574 -0.24513789259733224
vn 0.9408859071406381 -0.3387195025706341 -0.0016758050127182135
vn 0.9092597210836464 -0.3387195078541282 0.24190050560911752
vn 0.8156689869859444 -0.33871949459570694 0.4689916925172048
vn 0.6664918052043912 -0.33871950264493716 0.6641218051858847
vn 0.5746665030256853 -0.33615040176987077 0.7461644039286414
vn 0.47189420818261496 -0.33871950587337446 0.8139932141145895
vn 0.24513789259733215 -0.3387194897713577 0.9083922725683932
vn 0.0016758050127181382 -0.3387195025706343 0.940885907140638
vn -0.2419005056091176 -0.33871950785412835 0.9092597210836463
vn -0.46899169251720485 -0.338719494595707 0.8156689869859443
vn -0.6641218051858848 -0.33871950264493716 0.6664918052043911
vn -0.8139932141145896 -0.3387195058733744 0.4718942081826149
vn -0.9083922725683933 -0.3387194897713575 0.24513789259733207
vn -0.9408859071406381 -0.3387195025706341 0.001675805012718063
vn -0.9092597210836464 -0.3387195078541281 -0.2419005056091177
usemtl material_0_0
f 1//1 2//1 3//1
f 2//1 1//1 4//1
f 2//1 4//1 5//1
f 5//1 4//1 6//1
f 5//1 6//1 7//1
f 7//1 6//1 8//1
f 7//1 8//1 9//1
f 9//1 8//1 10//1
f 9//1 10//1 11//1
f 9//1 11//1 12//1
f 12//1 11//1 13//1
f 12//1 13//1 14//1
f 14//1 13//1 15//1
f 14//1 15//1 16//1
f 16//1 15//1 17//1
f 16//1 17//1 18//1
f 18//1 17//1 19//1
f 18//1 19//1 20//1
f 20//1 19//1 21//1
f 20//1 21//1 22//1
f 22//1 21//1 23//1
f 23//1 21//1 24//1
f 23//1 24//1 25//1
f 25//1 24//1 26//1
f 27//2 28//3 29//2
f 28//3 27//2 30//3
f 31//4 32//2 33//4
f 32//2 31//4 34//2
f 33//4 35//5 31//4
f 35//5 33//4 36//5
f 36//5 37//6 35//5
f 37//6 36//5 38//6
f 38//6 39//7 37//6
f 39//7 38//6 40//7
f 40//7 41//8 39//7
f 41//8 40//7 42//8
f 42//8 43//9 41//8
f 43//9 42//8 44//9
f 44//9 45//10 43//9
f 45//10 44//9 46//10
f 47//11 45//10 46//10
f 45//10 47//11 48//11
f 49//12 48//11 47//11
f 48//11 49//12 50//12
f 51//13 50//12 49//12
f 50//12 51//13 52//13
f 53//14 52//13 51//13
f 52//13 53//14 54//14
f 53//14 55//15 54//14
f 55//15 53//14 56//15
f 56//15 57//16 55//15
f 57//16 56//15 58//16
f 58//16 59//17 57//16
f 59//17 58//16 60//17
f 61//17 62//18 63//17
f 62//18 61//17 64//18
f 64//18 65//19 62//18
f 65//19 64//18 66//19
f 66//19 67//20 65//19
f 67//20 66//19 68//20
f 68//20 69//21 67//20
f 69//21 68//20 70//21
f 70//21 71//22 69//21
f 71//22 70//21 72//22
f 72//22 73//23 71//22
f 73//23 72//22 74//23
f 73//23 75//24 76//24
f 75//24 73//23 74//23
f 76//24 77//25 78//25
f 77//25 76//24 75//24
f 78//25 79//26 80//26
f 79//26 78//25 77//25
f 81//27 79//26 82//27
f 79//26 81//27 80//26
f 30//3 82//27 28//3
f 82//27 30//3 81//27
