# SSTK version 0.8.0
# 146
mtllib original-146.mtl
o #ID1257
v -0.024518 -0.466438 0.310940
v -0.022939 -0.461523 0.310089
v -0.025113 -0.466439 0.310937
v -0.022895 -0.464369 0.310586
v -0.016418 -0.450297 0.308158
v -0.020765 -0.463677 0.310476
v -0.017282 -0.453598 0.308731
v -0.019515 -0.463676 0.310482
v -0.017669 -0.456400 0.309219
v -0.017669 -0.456693 0.309270
v -0.016120 -0.450590 0.308211
v -0.016820 -0.460157 0.309880
v -0.015405 -0.462631 0.310320
v -0.013425 -0.464115 0.310589
v -0.011474 -0.465547 0.310849
v -0.010879 -0.464607 0.310688
v -0.007782 -0.465191 0.310806
v -0.008377 -0.464187 0.310627
v -0.006352 -0.462931 0.310418
v -0.003847 -0.463571 0.310542
v -0.004804 -0.460840 0.310060
v -0.003732 -0.457913 0.309553
v -0.001037 -0.461357 0.310169
v -0.013961 -0.447611 0.307701
v -0.013839 -0.442198 0.306755
v -0.014572 -0.445719 0.307367
v -0.012130 -0.450000 0.308128
v -0.011639 -0.439498 0.306294
v -0.005831 -0.454937 0.309023
v -0.009033 -0.442957 0.306912
v -0.006933 -0.445918 0.307440
v -0.000635 -0.450576 0.308286
v 0.000649 -0.458551 0.309687
v 0.000750 -0.452702 0.308665
v 0.001211 -0.455151 0.309095
v 0.001211 -0.454858 0.309044
v 0.003386 -0.462497 0.310390
v 0.003058 -0.459080 0.309791
v 0.003058 -0.460958 0.310120
v 0.011693 -0.441120 0.306694
v 0.004368 -0.463714 0.310608
v 0.008299 -0.465177 0.310884
v 0.009550 -0.458194 0.309669
v 0.009550 -0.459075 0.309823
v 0.019138 -0.438649 0.306300
v 0.011693 -0.440181 0.306530
v 0.013811 -0.437411 0.306056
v 0.016890 -0.436319 0.305881
v 0.019380 -0.434502 0.305576
v 0.020091 -0.437475 0.306099
v 0.027476 -0.438642 0.306340
v 0.027834 -0.437468 0.306137
v 0.028429 -0.438054 0.306242
v 0.021282 -0.431959 0.305141
v 0.024081 -0.429199 0.304672
v 0.024081 -0.428612 0.304569
v 0.003058 -0.446936 0.307668
v 0.002760 -0.445411 0.307400
v 0.002462 -0.446936 0.307665
v 0.011441 -0.464643 0.310806
v 0.010324 -0.461127 0.310186
v 0.012647 -0.462123 0.310371
v 0.014195 -0.463045 0.310540
v 0.015104 -0.460595 0.310116
v 0.016563 -0.460385 0.310087
v 0.018186 -0.456016 0.309331
v 0.018543 -0.456661 0.309446
v 0.018543 -0.456368 0.309395
v 0.010502 -0.438950 0.306309
v 0.007703 -0.437779 0.306090
v 0.007405 -0.438953 0.306294
v 0.010145 -0.437777 0.306102
v -0.008683 -0.440294 0.306448
v -0.007972 -0.437617 0.305984
v -0.009033 -0.441725 0.306696
v -0.007633 -0.439113 0.306247
v -0.002839 -0.436556 0.305824
v -0.003435 -0.437496 0.305985
v -0.000725 -0.437970 0.306082
v -0.002541 -0.436556 0.305825
v 0.005856 -0.437487 0.306030
v 0.001211 -0.438988 0.306269
v 0.002372 -0.440549 0.306548
v 0.002760 -0.442653 0.306918
v 0.006154 -0.437487 0.306032
v 0.007405 -0.436547 0.305873
v 0.008001 -0.436547 0.305876
v 0.008001 -0.436840 0.305928
vn -0.004925489468300207 0.17222553090541712 0.9850452304629697
usemtl material_0_0
f 1//1 2//1 3//1
f 2//1 1//1 4//1
f 2//1 4//1 5//1
f 5//1 4//1 6//1
f 5//1 6//1 7//1
f 7//1 6//1 8//1
f 7//1 8//1 9//1
f 9//1 8//1 10//1
f 5//1 7//1 11//1
f 8//1 12//1 10//1
f 12//1 8//1 13//1
f 13//1 8//1 14//1
f 14//1 8//1 15//1
f 14//1 15//1 16//1
f 16//1 15//1 17//1
f 16//1 17//1 18//1
f 18//1 17//1 19//1
f 19//1 17//1 20//1
f 19//1 20//1 21//1
f 21//1 20//1 22//1
f 22//1 20//1 23//1
f 24//1 25//1 26//1
f 25//1 24//1 27//1
f 25//1 27//1 28//1
f 28//1 27//1 29//1
f 28//1 29//1 30//1
f 30//1 29//1 31//1
f 31//1 29//1 32//1
f 32//1 29//1 22//1
f 32//1 22//1 23//1
f 32//1 23//1 33//1
f 32//1 33//1 34//1
f 34//1 33//1 35//1
f 34//1 35//1 36//1
f 37//1 38//1 39//1
f 38//1 37//1 40//1
f 40//1 37//1 41//1
f 40//1 41//1 42//1
f 40//1 42//1 43//1
f 43//1 42//1 44//1
f 40//1 43//1 45//1
f 40//1 45//1 46//1
f 46//1 45//1 47//1
f 47//1 45//1 48//1
f 48//1 45//1 49//1
f 49//1 45//1 50//1
f 50//1 45//1 51//1
f 50//1 51//1 52//1
f 52//1 51//1 53//1
f 50//1 54//1 49//1
f 54//1 50//1 55//1
f 54//1 55//1 56//1
f 57//1 58//1 59//1
f 60//1 44//1 42//1
f 44//1 60//1 61//1
f 61//1 60//1 62//1
f 62//1 60//1 63//1
f 62//1 63//1 64//1
f 64//1 63//1 65//1
f 64//1 65//1 66//1
f 66//1 65//1 67//1
f 66//1 67//1 68//1
f 69//1 70//1 71//1
f 70//1 69//1 72//1
f 72//1 69//1 47//1
f 47//1 69//1 46//1
f 28//1 73//1 74//1
f 73//1 28//1 75//1
f 75//1 28//1 30//1
f 74//1 73//1 76//1
f 74//1 76//1 77//1
f 77//1 76//1 78//1
f 77//1 78//1 79//1
f 77//1 79//1 80//1
f 80//1 79//1 81//1
f 81//1 79//1 82//1
f 81//1 82//1 83//1
f 81//1 83//1 84//1
f 81//1 84//1 58//1
f 81//1 58//1 57//1
f 81//1 57//1 71//1
f 81//1 71//1 85//1
f 85//1 71//1 86//1
f 86//1 71//1 87//1
f 87//1 71//1 70//1
f 87//1 70//1 88//1
