# SSTK version 0.8.0
# 179
mtllib original-179.mtl
o #ID1424
v -0.026610 0.831480 -0.005098
v -0.025648 0.831480 -0.002580
v -0.023549 0.831480 -0.001372
v -0.030199 0.831480 -0.003764
v -0.027651 0.831480 -0.002940
v -0.029558 0.831480 -0.002451
v -0.033601 0.831480 -0.001114
v -0.031367 0.831480 -0.001114
v -0.031582 0.831480 -0.000899
v -0.033603 0.831480 0.001846
v -0.034245 0.831480 -0.000470
v -0.037907 0.831480 0.004975
v -0.034919 0.831480 0.005337
v -0.035531 0.831480 0.009573
v -0.040732 0.831480 0.013148
v -0.035437 0.831480 0.014554
v -0.033136 0.831480 0.026751
v -0.040877 0.831480 0.025895
v -0.029374 0.831480 0.037906
v -0.038992 0.831480 0.036989
v -0.028016 0.831480 0.041929
v -0.024301 0.831480 0.048995
v -0.020198 0.831480 0.054215
v -0.015301 0.831480 0.059584
v -0.019586 0.831480 0.059412
v -0.035077 0.831480 0.046429
v -0.024193 0.831480 0.057780
v -0.029133 0.831480 0.054214
v -0.018866 0.831480 -0.003821
v -0.013969 0.831480 0.000217
v -0.015301 0.831480 -0.001114
v -0.007808 0.831480 0.008162
v -0.022832 0.831480 -0.005117
v -0.003627 0.831480 0.017690
v -0.022432 0.831480 -0.000255
v -0.017556 0.831480 0.006188
v -0.001429 0.831480 0.028803
v -0.013067 0.831480 0.015381
v -0.008471 0.831480 0.029541
v -0.001211 0.831480 0.041499
v -0.007461 0.831480 0.035230
v -0.006452 0.831480 0.040919
v -0.003735 0.831480 0.049693
v -0.006409 0.831480 0.045565
v -0.007010 0.831480 0.049516
v -0.007268 0.831480 0.055117
v -0.008256 0.831480 0.052771
v -0.010146 0.831480 0.055331
v -0.007698 0.831480 0.055546
v -0.011338 0.831480 0.058295
v -0.010361 0.831480 0.055546
v -0.012377 0.831480 0.056864
v -0.014689 0.831480 0.057082
v -0.017296 0.831480 0.056199
v -0.020198 0.831480 0.054215
v -0.017296 0.831480 0.056199
v -0.015301 0.831480 0.059584
v -0.014689 0.831480 0.057082
v -0.011338 0.831480 0.058295
v -0.012377 0.831480 0.056864
v -0.010361 0.831480 0.055546
v -0.010146 0.831480 0.055331
v -0.007698 0.831480 0.055546
v -0.007268 0.831480 0.055117
v -0.008256 0.831480 0.052771
v -0.007010 0.831480 0.049516
v -0.003735 0.831480 0.049693
v -0.006409 0.831480 0.045565
v -0.006452 0.831480 0.040919
v -0.001211 0.831480 0.041499
v -0.007461 0.831480 0.035230
v -0.008471 0.831480 0.029541
v -0.001429 0.831480 0.028803
v -0.013067 0.831480 0.015381
v -0.017556 0.831480 0.006188
v -0.023549 0.831480 -0.001372
v -0.026610 0.831480 -0.005098
v -0.022432 0.831480 -0.000255
v -0.003627 0.831480 0.017690
v -0.022832 0.831480 -0.005117
v -0.007808 0.831480 0.008162
v -0.018866 0.831480 -0.003821
v -0.013969 0.831480 0.000217
v -0.015301 0.831480 -0.001114
v -0.029133 0.831480 0.054214
v -0.035077 0.831480 0.046429
v -0.024193 0.831480 0.057780
v -0.019586 0.831480 0.059412
v -0.038992 0.831480 0.036989
v -0.024301 0.831480 0.048995
v -0.028016 0.831480 0.041929
v -0.029374 0.831480 0.037906
v -0.040877 0.831480 0.025895
v -0.033136 0.831480 0.026751
v -0.040732 0.831480 0.013148
v -0.035437 0.831480 0.014554
v -0.035531 0.831480 0.009573
v -0.037907 0.831480 0.004975
v -0.034919 0.831480 0.005337
v -0.033603 0.831480 0.001846
v -0.034245 0.831480 -0.000470
v -0.033601 0.831480 -0.001114
v -0.031582 0.831480 -0.000899
v -0.031367 0.831480 -0.001114
v -0.029558 0.831480 -0.002451
v -0.030199 0.831480 -0.003764
v -0.027651 0.831480 -0.002940
v -0.025648 0.831480 -0.002580
vn 0 1 0
vn 0 -1 0
usemtl material_0_0
f 1//1 2//1 3//1
f 2//1 1//1 4//1
f 2//1 4//1 5//1
f 5//1 4//1 6//1
f 6//1 4//1 7//1
f 6//1 7//1 8//1
f 8//1 7//1 9//1
f 9//1 7//1 10//1
f 10//1 7//1 11//1
f 10//1 11//1 12//1
f 10//1 12//1 13//1
f 13//1 12//1 14//1
f 14//1 12//1 15//1
f 14//1 15//1 16//1
f 16//1 15//1 17//1
f 17//1 15//1 18//1
f 17//1 18//1 19//1
f 19//1 18//1 20//1
f 19//1 20//1 21//1
f 21//1 20//1 22//1
f 22//1 20//1 23//1
f 23//1 20//1 24//1
f 24//1 20//1 25//1
f 25//1 20//1 26//1
f 25//1 26//1 27//1
f 27//1 26//1 28//1
f 29//1 30//1 31//1
f 30//1 29//1 32//1
f 32//1 29//1 33//1
f 32//1 33//1 34//1
f 34//1 33//1 1//1
f 34//1 1//1 35//1
f 34//1 35//1 36//1
f 34//1 36//1 37//1
f 35//1 1//1 3//1
f 37//1 36//1 38//1
f 37//1 38//1 39//1
f 37//1 39//1 40//1
f 40//1 39//1 41//1
f 40//1 41//1 42//1
f 40//1 42//1 43//1
f 43//1 42//1 44//1
f 43//1 44//1 45//1
f 43//1 45//1 46//1
f 46//1 45//1 47//1
f 46//1 47//1 48//1
f 46//1 48//1 49//1
f 49//1 48//1 50//1
f 50//1 48//1 51//1
f 50//1 51//1 52//1
f 50//1 52//1 53//1
f 50//1 53//1 24//1
f 24//1 53//1 54//1
f 24//1 54//1 23//1
f 55//2 56//2 57//2
f 56//2 58//2 57//2
f 57//2 58//2 59//2
f 58//2 60//2 59//2
f 60//2 61//2 59//2
f 61//2 62//2 59//2
f 59//2 62//2 63//2
f 63//2 62//2 64//2
f 62//2 65//2 64//2
f 65//2 66//2 64//2
f 64//2 66//2 67//2
f 66//2 68//2 67//2
f 68//2 69//2 67//2
f 67//2 69//2 70//2
f 69//2 71//2 70//2
f 71//2 72//2 70//2
f 70//2 72//2 73//2
f 72//2 74//2 73//2
f 74//2 75//2 73//2
f 76//2 77//2 78//2
f 73//2 75//2 79//2
f 75//2 78//2 79//2
f 78//2 77//2 79//2
f 77//2 80//2 79//2
f 79//2 80//2 81//2
f 80//2 82//2 81//2
f 81//2 82//2 83//2
f 84//2 83//2 82//2
f 85//2 86//2 87//2
f 87//2 86//2 88//2
f 86//2 89//2 88//2
f 88//2 89//2 57//2
f 57//2 89//2 55//2
f 55//2 89//2 90//2
f 90//2 89//2 91//2
f 91//2 89//2 92//2
f 89//2 93//2 92//2
f 92//2 93//2 94//2
f 93//2 95//2 94//2
f 94//2 95//2 96//2
f 96//2 95//2 97//2
f 95//2 98//2 97//2
f 97//2 98//2 99//2
f 99//2 98//2 100//2
f 98//2 101//2 100//2
f 101//2 102//2 100//2
f 100//2 102//2 103//2
f 103//2 102//2 104//2
f 104//2 102//2 105//2
f 102//2 106//2 105//2
f 105//2 106//2 107//2
f 107//2 106//2 108//2
f 106//2 77//2 108//2
f 76//2 108//2 77//2
