# SSTK version 0.8.0
# 136
mtllib original-136.mtl
o #ID1201
v 0.048733 -0.567162 0.327638
v 0.048789 -0.567750 0.327989
v 0.048789 -0.567796 0.327772
v 0.048733 -0.567116 0.327856
v 0.048733 -0.567116 0.327856
v 0.048733 -0.567162 0.327638
v 0.048789 -0.567750 0.327989
v 0.048789 -0.567796 0.327772
v 0.048794 -0.566560 0.327512
v 0.048733 -0.567116 0.327856
v 0.048733 -0.567162 0.327638
v 0.048794 -0.566515 0.327729
v 0.048794 -0.566515 0.327729
v 0.048794 -0.566560 0.327512
v 0.048733 -0.567116 0.327856
v 0.048733 -0.567162 0.327638
v 0.048789 -0.567796 0.327772
v 0.048955 -0.568349 0.328116
v 0.048955 -0.568395 0.327898
v 0.048789 -0.567750 0.327989
v 0.048789 -0.567750 0.327989
v 0.048789 -0.567796 0.327772
v 0.048955 -0.568349 0.328116
v 0.048955 -0.568395 0.327898
v 0.048979 -0.565971 0.327387
v 0.048794 -0.566515 0.327729
v 0.048794 -0.566560 0.327512
v 0.048978 -0.565925 0.327605
v 0.048978 -0.565925 0.327605
v 0.048979 -0.565971 0.327387
v 0.048794 -0.566515 0.327729
v 0.048794 -0.566560 0.327512
v 0.049226 -0.568937 0.328013
v 0.048955 -0.568349 0.328116
v 0.049226 -0.568891 0.328230
v 0.048955 -0.568395 0.327898
v 0.048955 -0.568395 0.327898
v 0.049226 -0.568937 0.328013
v 0.048955 -0.568349 0.328116
v 0.049226 -0.568891 0.328230
v 0.049272 -0.565423 0.327272
v 0.048978 -0.565925 0.327605
v 0.048979 -0.565971 0.327387
v 0.049272 -0.565377 0.327489
v 0.049272 -0.565377 0.327489
v 0.049272 -0.565423 0.327272
v 0.048978 -0.565925 0.327605
v 0.048979 -0.565971 0.327387
v 0.049226 -0.568937 0.328013
v 0.049593 -0.569354 0.328327
v 0.049593 -0.569400 0.328110
v 0.049226 -0.568891 0.328230
v 0.049226 -0.568891 0.328230
v 0.049226 -0.568937 0.328013
v 0.049593 -0.569354 0.328327
v 0.049593 -0.569400 0.328110
v 0.049663 -0.564946 0.327172
v 0.049272 -0.565377 0.327489
v 0.049272 -0.565423 0.327272
v 0.049663 -0.564900 0.327389
v 0.049663 -0.564900 0.327389
v 0.049663 -0.564946 0.327172
v 0.049272 -0.565377 0.327489
v 0.049272 -0.565423 0.327272
v 0.049593 -0.569354 0.328327
v 0.050065 -0.569796 0.328194
v 0.049593 -0.569400 0.328110
v 0.050065 -0.569750 0.328411
v 0.050065 -0.569750 0.328411
v 0.049593 -0.569354 0.328327
v 0.050065 -0.569796 0.328194
v 0.049593 -0.569400 0.328110
v 0.050115 -0.564573 0.327093
v 0.049663 -0.564900 0.327389
v 0.049663 -0.564946 0.327172
v 0.050115 -0.564527 0.327310
v 0.050115 -0.564527 0.327310
v 0.050115 -0.564573 0.327093
v 0.049663 -0.564900 0.327389
v 0.049663 -0.564946 0.327172
v 0.050065 -0.569796 0.328194
v 0.050605 -0.570046 0.328474
v 0.050605 -0.570092 0.328256
v 0.050065 -0.569750 0.328411
v 0.050065 -0.569750 0.328411
v 0.050065 -0.569796 0.328194
v 0.050605 -0.570046 0.328474
v 0.050605 -0.570092 0.328256
v 0.050628 -0.564299 0.327036
v 0.050115 -0.564527 0.327310
v 0.050115 -0.564573 0.327093
v 0.050628 -0.564253 0.327253
v 0.050628 -0.564253 0.327253
v 0.050628 -0.564299 0.327036
v 0.050115 -0.564527 0.327310
v 0.050115 -0.564573 0.327093
v 0.050605 -0.570046 0.328474
v 0.051184 -0.570277 0.328295
v 0.050605 -0.570092 0.328256
v 0.051184 -0.570231 0.328513
v 0.051184 -0.570231 0.328513
v 0.050605 -0.570046 0.328474
v 0.051184 -0.570277 0.328295
v 0.050605 -0.570092 0.328256
v 0.051187 -0.564086 0.327218
v 0.050628 -0.564299 0.327036
v 0.051187 -0.564132 0.327001
v 0.050628 -0.564253 0.327253
v 0.050628 -0.564253 0.327253
v 0.051187 -0.564086 0.327218
v 0.050628 -0.564299 0.327036
v 0.051187 -0.564132 0.327001
v 0.051184 -0.570231 0.328513
v 0.051775 -0.570338 0.328309
v 0.051184 -0.570277 0.328295
v 0.051775 -0.570292 0.328526
v 0.051775 -0.570292 0.328526
v 0.051184 -0.570231 0.328513
v 0.051775 -0.570338 0.328309
v 0.051184 -0.570277 0.328295
v 0.051775 -0.564076 0.326989
v 0.051187 -0.564086 0.327218
v 0.051187 -0.564132 0.327001
v 0.051775 -0.564030 0.327206
v 0.051775 -0.564030 0.327206
v 0.051775 -0.564076 0.326989
v 0.051187 -0.564086 0.327218
v 0.051187 -0.564132 0.327001
v 0.051775 -0.570338 0.328309
v 0.052409 -0.570235 0.328514
v 0.052409 -0.570280 0.328297
v 0.051775 -0.570292 0.328526
v 0.051775 -0.570292 0.328526
v 0.051775 -0.570338 0.328309
v 0.052409 -0.570235 0.328514
v 0.052409 -0.570280 0.328297
v 0.052417 -0.564137 0.327002
v 0.051775 -0.564030 0.327206
v 0.051775 -0.564076 0.326989
v 0.052417 -0.564091 0.327219
v 0.052417 -0.564091 0.327219
v 0.052417 -0.564137 0.327002
v 0.051775 -0.564030 0.327206
v 0.051775 -0.564076 0.326989
v 0.052409 -0.570280 0.328297
v 0.052989 -0.570062 0.328478
v 0.052989 -0.570108 0.328260
v 0.052409 -0.570235 0.328514
v 0.052409 -0.570235 0.328514
v 0.052409 -0.570280 0.328297
v 0.052989 -0.570062 0.328478
v 0.052989 -0.570108 0.328260
v 0.053000 -0.564273 0.327258
v 0.052417 -0.564137 0.327002
v 0.053000 -0.564319 0.327041
v 0.052417 -0.564091 0.327219
v 0.052417 -0.564091 0.327219
v 0.053000 -0.564273 0.327258
v 0.052417 -0.564137 0.327002
v 0.053000 -0.564319 0.327041
v 0.052989 -0.570062 0.328478
v 0.053515 -0.569821 0.328200
v 0.052989 -0.570108 0.328260
v 0.053515 -0.569775 0.328417
v 0.053515 -0.569775 0.328417
v 0.052989 -0.570062 0.328478
v 0.053515 -0.569821 0.328200
v 0.052989 -0.570108 0.328260
v 0.053536 -0.564629 0.327106
v 0.053000 -0.564273 0.327258
v 0.053000 -0.564319 0.327041
v 0.053536 -0.564583 0.327323
v 0.053536 -0.564583 0.327323
v 0.053536 -0.564629 0.327106
v 0.053000 -0.564273 0.327258
v 0.053000 -0.564319 0.327041
v 0.053515 -0.569821 0.328200
v 0.053986 -0.569373 0.328333
v 0.053986 -0.569419 0.328116
v 0.053515 -0.569775 0.328417
v 0.053515 -0.569775 0.328417
v 0.053515 -0.569821 0.328200
v 0.053986 -0.569373 0.328333
v 0.053986 -0.569419 0.328116
v 0.054038 -0.565026 0.327417
v 0.053536 -0.564629 0.327106
v 0.054039 -0.565071 0.327199
v 0.053536 -0.564583 0.327323
v 0.053536 -0.564583 0.327323
v 0.054038 -0.565026 0.327417
v 0.053536 -0.564629 0.327106
v 0.054039 -0.565071 0.327199
v 0.054375 -0.568886 0.328230
v 0.053986 -0.569419 0.328116
v 0.053986 -0.569373 0.328333
v 0.054375 -0.568932 0.328013
v 0.054375 -0.568932 0.328013
v 0.054375 -0.568886 0.328230
v 0.053986 -0.569419 0.328116
v 0.053986 -0.569373 0.328333
v 0.054038 -0.565026 0.327417
v 0.054399 -0.565533 0.327297
v 0.054399 -0.565487 0.327514
v 0.054039 -0.565071 0.327199
v 0.054039 -0.565071 0.327199
v 0.054038 -0.565026 0.327417
v 0.054399 -0.565533 0.327297
v 0.054399 -0.565487 0.327514
v 0.054653 -0.568343 0.328116
v 0.054375 -0.568932 0.328013
v 0.054375 -0.568886 0.328230
v 0.054653 -0.568389 0.327899
v 0.054653 -0.568389 0.327899
v 0.054653 -0.568343 0.328116
v 0.054375 -0.568932 0.328013
v 0.054375 -0.568886 0.328230
v 0.054399 -0.565487 0.327514
v 0.054662 -0.566036 0.327403
v 0.054662 -0.565990 0.327620
v 0.054399 -0.565533 0.327297
v 0.054399 -0.565533 0.327297
v 0.054399 -0.565487 0.327514
v 0.054662 -0.566036 0.327403
v 0.054662 -0.565990 0.327620
v 0.054820 -0.567745 0.327990
v 0.054653 -0.568389 0.327899
v 0.054653 -0.568343 0.328116
v 0.054820 -0.567791 0.327773
v 0.054820 -0.567791 0.327773
v 0.054820 -0.567745 0.327990
v 0.054653 -0.568389 0.327899
v 0.054653 -0.568343 0.328116
v 0.054822 -0.566527 0.327733
v 0.054662 -0.566036 0.327403
v 0.054822 -0.566573 0.327516
v 0.054662 -0.565990 0.327620
v 0.054662 -0.565990 0.327620
v 0.054822 -0.566527 0.327733
v 0.054662 -0.566036 0.327403
v 0.054822 -0.566573 0.327516
v 0.054875 -0.567092 0.327852
v 0.054820 -0.567791 0.327773
v 0.054820 -0.567745 0.327990
v 0.054875 -0.567138 0.327635
v 0.054875 -0.567138 0.327635
v 0.054875 -0.567092 0.327852
v 0.054820 -0.567791 0.327773
v 0.054820 -0.567745 0.327990
v 0.054822 -0.566527 0.327733
v 0.054875 -0.567138 0.327635
v 0.054875 -0.567092 0.327852
v 0.054822 -0.566573 0.327516
v 0.054822 -0.566573 0.327516
v 0.054822 -0.566527 0.327733
v 0.054875 -0.567138 0.327635
v 0.054875 -0.567092 0.327852
vn 0.996342274919415 0.08367364185646975 -0.017343381068290423
vn -0.996342274919415 -0.08367364185646975 0.017343381068290423
vn 0.9950453768776115 -0.09722668779394898 0.02077664879402029
vn -0.9950453768776115 0.09722668779394898 -0.02077664879402029
vn 0.964821794842679 0.257311312646901 -0.05394249327274351
vn -0.964821794842679 -0.257311312646901 0.05394249327274351
vn 0.9563036190541485 -0.28603632704154297 0.060552520975774356
vn -0.9563036190541485 0.28603632704154297 -0.060552520975774356
vn 0.8983896177641043 0.4298136239265777 -0.0903124763295143
vn -0.8983896177641043 -0.4298136239265777 0.0903124763295143
vn 0.8855076454561727 -0.4545883319791341 0.09605029030197691
vn -0.8855076454561727 0.4545883319791341 -0.09605029030197691
vn 0.7900242533047175 0.599946994053246 -0.12619541797069392
vn -0.7900242533047175 -0.599946994053246 0.12619541797069392
vn 0.7802343248747717 -0.6120001653761816 0.1291905409336747
vn -0.7802343248747717 0.6120001653761816 -0.1291905409336747
vn 0.6509220698458715 0.7428688758163108 -0.1563531014434218
vn -0.6509220698458715 -0.7428688758163108 0.1563531014434218
vn 0.6453401476720875 -0.7474417494027015 0.1576925015731482
vn -0.6453401476720875 0.7474417494027015 -0.1576925015731482
vn 0.48917884749383433 0.8534692031840926 -0.1797063559836267
vn -0.48917884749383433 -0.8534692031840926 0.1797063559836267
vn 0.4780478397929535 -0.8594307630900234 0.1812430035167993
vn -0.4780478397929535 0.8594307630900234 -0.1812430035167993
vn 0.30965883978861897 0.9304324749388094 -0.19597656114956177
vn -0.30965883978861897 -0.9304324749388094 0.19597656114956177
vn 0.2929334554896991 -0.9355687570172196 0.19723359639807536
vn -0.2929334554896991 0.9355687570172196 -0.19723359639807536
vn 0.10575554637837532 0.9730292282294973 -0.2050119153154764
vn -0.10575554637837532 -0.9730292282294973 0.2050119153154764
vn 0.09664390200967206 -0.9739243359432899 0.20525921188040924
vn -0.09664390200967206 0.9739243359432899 -0.20525921188040924
vn -0.09224893575373501 0.9743325865121015 -0.20534396682868902
vn 0.09224893575373501 -0.9743325865121015 0.20534396682868902
vn -0.09616948708770647 -0.9739805770636073 0.20521516819214422
vn 0.09616948708770647 0.9739805770636073 -0.20521516819214422
vn -0.2905804287448427 0.9362712102660545 -0.19738093944806626
vn 0.2905804287448427 -0.9362712102660545 0.19738093944806626
vn -0.3046536071696869 -0.9320129544435866 0.19631106027892326
vn 0.3046536071696869 0.9320129544435866 -0.19631106027892326
vn -0.48738992069977066 0.8543915141792359 -0.18018381086763594
vn 0.48738992069977066 -0.8543915141792359 0.18018381086763594
vn -0.5085393419223284 -0.8425650874330746 0.1774029626474722
vn 0.5085393419223284 0.8425650874330746 -0.1774029626474722
vn -0.6568270248305017 0.7377987792678632 -0.15566380685041098
vn 0.6568270248305017 -0.7377987792678632 0.15566380685041098
vn -0.6693213525852375 -0.7270459453484084 0.153013464524883
vn 0.6693213525852375 0.7270459453484084 -0.153013464524883
vn -0.7879830959471477 0.6024196492064201 -0.12717392323728272
vn 0.7879830959471477 -0.6024196492064201 0.12717392323728272
vn -0.7944474136335433 -0.5943280148318372 0.12501007062241445
vn 0.7944474136335433 0.5943280148318372 -0.12501007062241445
vn -0.8940511672936896 0.4382858929553154 -0.09261741897263548
vn 0.8940511672936896 -0.4382858929553154 0.09261741897263548
vn -0.8905566931057116 -0.44514924964060965 0.09354636235055665
vn 0.8905566931057116 0.44514924964060965 -0.09354636235055665
vn -0.9647655531471042 0.2574003283016067 -0.05452062408838634
vn 0.9647655531471042 -0.2574003283016067 0.05452062408838634
vn -0.9599911194662378 -0.27406871716888587 0.05747511474856257
vn 0.9599911194662378 0.27406871716888587 -0.05747511474856257
vn -0.9965619755704871 0.08101145111669952 -0.017360116215466074
vn 0.9965619755704871 -0.08101145111669952 0.017360116215466074
vn -0.995739444811903 -0.09028771321297521 0.018737312733017483
vn 0.995739444811903 0.09028771321297521 -0.018737312733017483
usemtl material_0_0
f 1//1 2//1 3//1
f 2//1 1//1 4//1
f 5//2 6//2 7//2
f 8//2 7//2 6//2
f 9//3 10//3 11//3
f 10//3 9//3 12//3
f 13//4 14//4 15//4
f 16//4 15//4 14//4
f 17//5 18//5 19//5
f 18//5 17//5 20//5
f 21//6 22//6 23//6
f 24//6 23//6 22//6
f 25//7 26//7 27//7
f 26//7 25//7 28//7
f 29//8 30//8 31//8
f 32//8 31//8 30//8
f 33//9 34//9 35//9
f 34//9 33//9 36//9
f 37//10 38//10 39//10
f 40//10 39//10 38//10
f 41//11 42//11 43//11
f 42//11 41//11 44//11
f 45//12 46//12 47//12
f 48//12 47//12 46//12
f 49//13 50//13 51//13
f 50//13 49//13 52//13
f 53//14 54//14 55//14
f 56//14 55//14 54//14
f 57//15 58//15 59//15
f 58//15 57//15 60//15
f 61//16 62//16 63//16
f 64//16 63//16 62//16
f 65//17 66//17 67//17
f 66//17 65//17 68//17
f 69//18 70//18 71//18
f 72//18 71//18 70//18
f 73//19 74//19 75//19
f 74//19 73//19 76//19
f 77//20 78//20 79//20
f 80//20 79//20 78//20
f 81//21 82//21 83//21
f 82//21 81//21 84//21
f 85//22 86//22 87//22
f 88//22 87//22 86//22
f 89//23 90//23 91//23
f 90//23 89//23 92//23
f 93//24 94//24 95//24
f 96//24 95//24 94//24
f 97//25 98//25 99//25
f 98//25 97//25 100//25
f 101//26 102//26 103//26
f 104//26 103//26 102//26
f 105//27 106//27 107//27
f 106//27 105//27 108//27
f 109//28 110//28 111//28
f 112//28 111//28 110//28
f 113//29 114//29 115//29
f 114//29 113//29 116//29
f 117//30 118//30 119//30
f 120//30 119//30 118//30
f 121//31 122//31 123//31
f 122//31 121//31 124//31
f 125//32 126//32 127//32
f 128//32 127//32 126//32
f 129//33 130//33 131//33
f 130//33 129//33 132//33
f 133//34 134//34 135//34
f 136//34 135//34 134//34
f 137//35 138//35 139//35
f 138//35 137//35 140//35
f 141//36 142//36 143//36
f 144//36 143//36 142//36
f 145//37 146//37 147//37
f 146//37 145//37 148//37
f 149//38 150//38 151//38
f 152//38 151//38 150//38
f 153//39 154//39 155//39
f 154//39 153//39 156//39
f 157//40 158//40 159//40
f 160//40 159//40 158//40
f 161//41 162//41 163//41
f 162//41 161//41 164//41
f 165//42 166//42 167//42
f 168//42 167//42 166//42
f 169//43 170//43 171//43
f 170//43 169//43 172//43
f 173//44 174//44 175//44
f 176//44 175//44 174//44
f 177//45 178//45 179//45
f 178//45 177//45 180//45
f 181//46 182//46 183//46
f 184//46 183//46 182//46
f 185//47 186//47 187//47
f 186//47 185//47 188//47
f 189//48 190//48 191//48
f 192//48 191//48 190//48
f 193//49 194//49 195//49
f 194//49 193//49 196//49
f 197//50 198//50 199//50
f 200//50 199//50 198//50
f 201//51 202//51 203//51
f 202//51 201//51 204//51
f 205//52 206//52 207//52
f 208//52 207//52 206//52
f 209//53 210//53 211//53
f 210//53 209//53 212//53
f 213//54 214//54 215//54
f 216//54 215//54 214//54
f 217//55 218//55 219//55
f 218//55 217//55 220//55
f 221//56 222//56 223//56
f 224//56 223//56 222//56
f 225//57 226//57 227//57
f 226//57 225//57 228//57
f 229//58 230//58 231//58
f 232//58 231//58 230//58
f 233//59 234//59 235//59
f 234//59 233//59 236//59
f 237//60 238//60 239//60
f 240//60 239//60 238//60
f 241//61 242//61 243//61
f 242//61 241//61 244//61
f 245//62 246//62 247//62
f 248//62 247//62 246//62
f 249//63 250//63 251//63
f 250//63 249//63 252//63
f 253//64 254//64 255//64
f 256//64 255//64 254//64
