# SSTK version 0.8.0
# 186
mtllib original-186.mtl
o #ID1466
v 0.028257 0.834197 -0.035738
v 0.031350 0.834197 -0.035308
v 0.030392 0.834197 -0.037287
v 0.029729 0.834197 -0.035362
v 0.028214 0.834197 -0.034406
v 0.025358 0.834197 -0.031786
v 0.027200 0.834197 -0.032215
v 0.027205 0.834197 -0.028693
v 0.024219 0.834197 -0.029036
v 0.030276 0.834197 -0.017653
v 0.023213 0.834197 -0.022826
v 0.030448 0.834197 -0.016536
v 0.031715 0.834197 -0.013379
v 0.023586 0.834197 -0.017298
v 0.034057 0.834197 -0.009835
v 0.038183 0.834197 -0.004860
v 0.035399 0.834197 -0.004153
v 0.025339 0.834197 -0.012452
v 0.032835 0.834197 -0.004623
v 0.028472 0.834197 -0.008288
v 0.030491 0.834197 -0.006269
v 0.042734 0.834197 -0.023495
v 0.043421 0.834197 -0.023237
v 0.043206 0.834197 -0.023452
v 0.044597 0.834197 -0.018174
v 0.042476 0.834197 -0.023237
v 0.043636 0.834197 -0.014989
v 0.044688 0.834197 -0.013808
v 0.043024 0.834197 -0.012025
v 0.043695 0.834197 -0.010141
v 0.041617 0.834197 -0.009835
v 0.041617 0.834197 -0.007171
v 0.041188 0.834197 -0.009405
v 0.039695 0.834197 -0.008385
v 0.041188 0.834197 -0.006742
v 0.038009 0.834197 -0.008116
v 0.034967 0.834197 -0.037179
v 0.039005 0.834197 -0.032862
v 0.037407 0.834197 -0.035523
v 0.032628 0.834197 -0.037767
v 0.039158 0.834197 -0.029520
v 0.033584 0.834197 -0.033074
v 0.037866 0.834197 -0.025495
v 0.034599 0.834197 -0.028602
v 0.035131 0.834197 -0.020789
v 0.034679 0.834197 -0.024762
v 0.033826 0.834197 -0.021556
v 0.033154 0.834197 -0.018297
v 0.032038 0.834197 -0.018984
v 0.030491 0.834197 -0.017868
v 0.030276 0.834197 -0.017653
v 0.030491 0.834197 -0.017868
v 0.030448 0.834197 -0.016536
v 0.032038 0.834197 -0.018984
v 0.033154 0.834197 -0.018297
v 0.033826 0.834197 -0.021556
v 0.035131 0.834197 -0.020789
v 0.034679 0.834197 -0.024762
v 0.034599 0.834197 -0.028602
v 0.037866 0.834197 -0.025495
v 0.033584 0.834197 -0.033074
v 0.031350 0.834197 -0.035308
v 0.030392 0.834197 -0.037287
v 0.039158 0.834197 -0.029520
v 0.032628 0.834197 -0.037767
v 0.039005 0.834197 -0.032862
v 0.034967 0.834197 -0.037179
v 0.037407 0.834197 -0.035523
v 0.034057 0.834197 -0.009835
v 0.038009 0.834197 -0.008116
v 0.038183 0.834197 -0.004860
v 0.041188 0.834197 -0.006742
v 0.039695 0.834197 -0.008385
v 0.041617 0.834197 -0.007171
v 0.041188 0.834197 -0.009405
v 0.041617 0.834197 -0.009835
v 0.043695 0.834197 -0.010141
v 0.043024 0.834197 -0.012025
v 0.044688 0.834197 -0.013808
v 0.043636 0.834197 -0.014989
v 0.044597 0.834197 -0.018174
v 0.042476 0.834197 -0.023237
v 0.042734 0.834197 -0.023495
v 0.043421 0.834197 -0.023237
v 0.043206 0.834197 -0.023452
v 0.030491 0.834197 -0.006269
v 0.028472 0.834197 -0.008288
v 0.032835 0.834197 -0.004623
v 0.025339 0.834197 -0.012452
v 0.035399 0.834197 -0.004153
v 0.023586 0.834197 -0.017298
v 0.031715 0.834197 -0.013379
v 0.023213 0.834197 -0.022826
v 0.024219 0.834197 -0.029036
v 0.027205 0.834197 -0.028693
v 0.025358 0.834197 -0.031786
v 0.027200 0.834197 -0.032215
v 0.028214 0.834197 -0.034406
v 0.028257 0.834197 -0.035738
v 0.029729 0.834197 -0.035362
v 0.028257 0.834197 -0.035738
v 0.030392 0.831480 -0.037287
v 0.028257 0.831480 -0.035738
v 0.030392 0.834197 -0.037287
v 0.030392 0.834197 -0.037287
v 0.028257 0.834197 -0.035738
v 0.030392 0.831480 -0.037287
v 0.028257 0.831480 -0.035738
v 0.025358 0.834197 -0.031786
v 0.025358 0.831480 -0.031786
v 0.025358 0.834197 -0.031786
v 0.025358 0.831480 -0.031786
v 0.024219 0.834197 -0.029036
v 0.024219 0.831480 -0.029036
v 0.024219 0.834197 -0.029036
v 0.024219 0.831480 -0.029036
v 0.023213 0.834197 -0.022826
v 0.023213 0.831480 -0.022826
v 0.023213 0.834197 -0.022826
v 0.023213 0.831480 -0.022826
v 0.023586 0.831480 -0.017298
v 0.023586 0.834197 -0.017298
v 0.023586 0.834197 -0.017298
v 0.023586 0.831480 -0.017298
v 0.025339 0.831480 -0.012452
v 0.025339 0.834197 -0.012452
v 0.025339 0.834197 -0.012452
v 0.025339 0.831480 -0.012452
v 0.028472 0.831480 -0.008288
v 0.028472 0.834197 -0.008288
v 0.028472 0.834197 -0.008288
v 0.028472 0.831480 -0.008288
v 0.030491 0.831480 -0.006269
v 0.030491 0.834197 -0.006269
v 0.030491 0.834197 -0.006269
v 0.030491 0.831480 -0.006269
v 0.032835 0.831480 -0.004623
v 0.032835 0.834197 -0.004623
v 0.032835 0.834197 -0.004623
v 0.032835 0.831480 -0.004623
v 0.035399 0.831480 -0.004153
v 0.035399 0.834197 -0.004153
v 0.035399 0.834197 -0.004153
v 0.035399 0.831480 -0.004153
v 0.038183 0.834197 -0.004860
v 0.038183 0.831480 -0.004860
v 0.038183 0.834197 -0.004860
v 0.038183 0.831480 -0.004860
v 0.041188 0.834197 -0.006742
v 0.041188 0.831480 -0.006742
v 0.041188 0.834197 -0.006742
v 0.041188 0.831480 -0.006742
v 0.041617 0.834197 -0.007171
v 0.041617 0.831480 -0.007171
v 0.041617 0.834197 -0.007171
v 0.041617 0.831480 -0.007171
v 0.043695 0.834197 -0.010141
v 0.043695 0.831480 -0.010141
v 0.043695 0.834197 -0.010141
v 0.043695 0.831480 -0.010141
v 0.044688 0.834197 -0.013808
v 0.044688 0.831480 -0.013808
v 0.044688 0.834197 -0.013808
v 0.044688 0.831480 -0.013808
v 0.044597 0.831480 -0.018174
v 0.044597 0.834197 -0.018174
v 0.044597 0.831480 -0.018174
v 0.044597 0.834197 -0.018174
v 0.043421 0.831480 -0.023237
v 0.043421 0.834197 -0.023237
v 0.043421 0.831480 -0.023237
v 0.043421 0.834197 -0.023237
v 0.043206 0.831480 -0.023452
v 0.043206 0.834197 -0.023452
v 0.043206 0.831480 -0.023452
v 0.043206 0.834197 -0.023452
v 0.042734 0.831480 -0.023495
v 0.042734 0.834197 -0.023495
v 0.042734 0.831480 -0.023495
v 0.042734 0.834197 -0.023495
v 0.042476 0.834197 -0.023237
v 0.042476 0.831480 -0.023237
v 0.042476 0.834197 -0.023237
v 0.042476 0.831480 -0.023237
v 0.043636 0.831480 -0.014989
v 0.043636 0.834197 -0.014989
v 0.043636 0.834197 -0.014989
v 0.043636 0.831480 -0.014989
v 0.043024 0.834197 -0.012025
v 0.043024 0.831480 -0.012025
v 0.043024 0.834197 -0.012025
v 0.043024 0.831480 -0.012025
v 0.041617 0.834197 -0.009835
v 0.041617 0.831480 -0.009835
v 0.041617 0.834197 -0.009835
v 0.041617 0.831480 -0.009835
v 0.041188 0.834197 -0.009405
v 0.041188 0.831480 -0.009405
v 0.041188 0.834197 -0.009405
v 0.041188 0.831480 -0.009405
v 0.039695 0.834197 -0.008385
v 0.039695 0.831480 -0.008385
v 0.039695 0.834197 -0.008385
v 0.039695 0.831480 -0.008385
v 0.038009 0.834197 -0.008116
v 0.038009 0.831480 -0.008116
v 0.038009 0.834197 -0.008116
v 0.038009 0.831480 -0.008116
v 0.034057 0.831480 -0.009835
v 0.034057 0.834197 -0.009835
v 0.034057 0.831480 -0.009835
v 0.034057 0.834197 -0.009835
v 0.031715 0.831480 -0.013379
v 0.031715 0.834197 -0.013379
v 0.031715 0.831480 -0.013379
v 0.031715 0.834197 -0.013379
v 0.030448 0.831480 -0.016536
v 0.030448 0.834197 -0.016536
v 0.030448 0.831480 -0.016536
v 0.030448 0.834197 -0.016536
v 0.033154 0.834197 -0.018297
v 0.030448 0.831480 -0.016536
v 0.033154 0.831480 -0.018297
v 0.030448 0.834197 -0.016536
v 0.030448 0.834197 -0.016536
v 0.033154 0.834197 -0.018297
v 0.030448 0.831480 -0.016536
v 0.033154 0.831480 -0.018297
v 0.035131 0.834197 -0.020789
v 0.035131 0.831480 -0.020789
v 0.035131 0.834197 -0.020789
v 0.035131 0.831480 -0.020789
v 0.037866 0.834197 -0.025495
v 0.037866 0.831480 -0.025495
v 0.037866 0.834197 -0.025495
v 0.037866 0.831480 -0.025495
v 0.039158 0.834197 -0.029520
v 0.039158 0.831480 -0.029520
v 0.039158 0.834197 -0.029520
v 0.039158 0.831480 -0.029520
v 0.039005 0.831480 -0.032862
v 0.039005 0.834197 -0.032862
v 0.039005 0.831480 -0.032862
v 0.039005 0.834197 -0.032862
v 0.037407 0.831480 -0.035523
v 0.037407 0.834197 -0.035523
v 0.037407 0.831480 -0.035523
v 0.037407 0.834197 -0.035523
v 0.034967 0.831480 -0.037179
v 0.034967 0.834197 -0.037179
v 0.034967 0.831480 -0.037179
v 0.034967 0.834197 -0.037179
v 0.032628 0.831480 -0.037767
v 0.032628 0.834197 -0.037767
v 0.032628 0.831480 -0.037767
v 0.032628 0.834197 -0.037767
vn 0 1 0
vn 0 -1 0
vn -0.7052798944446442 0 -0.7089289601167041
vn -0.4075280190522262 0 -0.9131927034790459
vn 0.4075280190522262 0 0.9131927034790459
vn 0.7052798944446442 0 0.7089289601167041
vn -0.8713854563003236 0 -0.4905990078957323
vn 0.8713854563003236 0 0.4905990078957323
vn -0.9619760937086728 0 -0.2731336580009917
vn 0.9619760937086728 0 0.2731336580009917
vn -0.998911578865267 0 -0.04664394504005313
vn 0.998911578865267 0 0.04664394504005313
vn -0.9785972955161388 0 0.2057846768068477
vn 0.9785972955161388 0 -0.2057846768068477
vn -0.8794524450787882 0 0.4759867612076422
vn 0.8794524450787882 0 -0.4759867612076422
vn -0.7549472147818801 0 0.6557855616686614
vn 0.7549472147818801 0 -0.6557855616686614
vn -0.6432928157161792 0 0.7656202408818288
vn 0.6432928157161792 0 -0.7656202408818288
vn -0.38638594138093013 0 0.9223371966386112
vn 0.38638594138093013 0 -0.9223371966386112
vn 0.03356586322917473 0 0.9994365076510264
vn -0.03356586322917473 0 -0.9994365076510264
vn 0.3931098490391111 0 0.9194915152346146
vn -0.3931098490391111 0 -0.9194915152346146
vn 0.6229598685598274 0 0.7822537965161451
vn -0.6229598685598274 0 -0.7822537965161451
vn 0.7661283843358239 0 0.6426875591724023
vn -0.7661283843358239 0 -0.6426875591724023
vn 0.905788099147139 0 0.42373095171749353
vn -0.905788099147139 0 -0.42373095171749353
vn 0.99259099403568 0 0.12150357426537188
vn -0.99259099403568 0 -0.12150357426537188
vn 0.9922536570971796 0 -0.12422833806049659
vn -0.9922536570971796 0 0.12422833806049659
vn 0.8743043703049955 0 -0.48537806714517423
vn -0.8743043703049955 0 0.48537806714517423
vn 0.4241552012760206 0 -0.905589512544452
vn -0.4241552012760206 0 0.905589512544452
vn -0.3404255180441468 0 -0.9402714856169861
vn 0.3404255180441468 0 0.9402714856169861
vn -0.9483368184381175 0 -0.317265312939611
vn 0.9483368184381175 0 0.317265312939611
vn -0.9994888584816424 0 -0.03196907523003132
vn 0.9994888584816424 0 0.03196907523003132
vn -0.9259511023987123 0 -0.37764342436564363
vn 0.9259511023987123 0 0.37764342436564363
vn -0.7787536460743191 0 -0.6273298643663905
vn 0.7787536460743191 0 0.6273298643663905
vn -0.6384374882201322 0 -0.7696736799677956
vn 0.6384374882201322 0 0.7696736799677956
vn -0.3697336699168467 0 -0.9291377795191734
vn 0.3697336699168467 0 0.9291377795191734
vn 0.12577442470541048 0 -0.9920588662423329
vn -0.12577442470541048 0 0.9920588662423329
vn 0.6431187390554249 0 -0.7657664705873196
vn -0.6431187390554249 0 0.7657664705873196
vn 0.8857276525511796 0 -0.4642052622560161
vn -0.8857276525511796 0 0.4642052622560161
vn 0.9280405599284471 0 -0.37247915260816206
vn -0.9280405599284471 0 0.37247915260816206
vn 0.673256440319086 0 0.7394090651113718
vn 0.5454561154720248 0 0.8381393834525191
vn -0.5454561154720248 0 -0.8381393834525191
vn -0.673256440319086 0 -0.7394090651113718
vn 0.8261622114187916 0 0.5634323388159502
vn -0.8261622114187916 0 -0.5634323388159502
vn 0.9136896238260441 0 0.4064126859641834
vn -0.9136896238260441 0 -0.4064126859641834
vn 0.9912512311853725 0 0.13198862327292832
vn -0.9912512311853725 0 -0.13198862327292832
vn 0.9573141168698562 0 -0.2890496179580378
vn -0.9573141168698562 0 0.2890496179580378
vn 0.7264943881784308 0 -0.6871723975431839
vn -0.7264943881784308 0 0.6871723975431839
vn 0.408975394503581 0 -0.9125454107553443
vn -0.408975394503581 0 0.9125454107553443
vn 0.01732977279633644 0 -0.9998498282116307
vn -0.01732977279633644 0 0.9998498282116307
usemtl material_0_0
f 1//1 2//1 3//1
f 2//1 1//1 4//1
f 4//1 1//1 5//1
f 5//1 1//1 6//1
f 5//1 6//1 7//1
f 7//1 6//1 8//1
f 8//1 6//1 9//1
f 8//1 9//1 10//1
f 10//1 9//1 11//1
f 10//1 11//1 12//1
f 12//1 11//1 13//1
f 13//1 11//1 14//1
f 13//1 14//1 15//1
f 15//1 14//1 16//1
f 16//1 14//1 17//1
f 17//1 14//1 18//1
f 17//1 18//1 19//1
f 19//1 18//1 20//1
f 19//1 20//1 21//1
f 22//1 23//1 24//1
f 23//1 22//1 25//1
f 25//1 22//1 26//1
f 25//1 26//1 27//1
f 25//1 27//1 28//1
f 28//1 27//1 29//1
f 28//1 29//1 30//1
f 30//1 29//1 31//1
f 30//1 31//1 32//1
f 32//1 31//1 33//1
f 32//1 33//1 34//1
f 32//1 34//1 35//1
f 35//1 34//1 36//1
f 35//1 36//1 16//1
f 16//1 36//1 15//1
f 37//1 38//1 39//1
f 38//1 37//1 40//1
f 38//1 40//1 41//1
f 41//1 40//1 3//1
f 41//1 3//1 42//1
f 41//1 42//1 43//1
f 42//1 3//1 2//1
f 43//1 42//1 44//1
f 43//1 44//1 45//1
f 45//1 44//1 46//1
f 45//1 46//1 47//1
f 45//1 47//1 48//1
f 48//1 47//1 49//1
f 48//1 49//1 12//1
f 12//1 49//1 50//1
f 12//1 50//1 10//1
f 51//2 52//2 53//2
f 52//2 54//2 53//2
f 53//2 54//2 55//2
f 54//2 56//2 55//2
f 55//2 56//2 57//2
f 56//2 58//2 57//2
f 58//2 59//2 57//2
f 57//2 59//2 60//2
f 59//2 61//2 60//2
f 62//2 63//2 61//2
f 60//2 61//2 64//2
f 61//2 63//2 64//2
f 63//2 65//2 64//2
f 64//2 65//2 66//2
f 65//2 67//2 66//2
f 68//2 66//2 67//2
f 69//2 70//2 71//2
f 71//2 70//2 72//2
f 70//2 73//2 72//2
f 72//2 73//2 74//2
f 73//2 75//2 74//2
f 75//2 76//2 74//2
f 74//2 76//2 77//2
f 76//2 78//2 77//2
f 77//2 78//2 79//2
f 78//2 80//2 79//2
f 79//2 80//2 81//2
f 80//2 82//2 81//2
f 82//2 83//2 81//2
f 81//2 83//2 84//2
f 85//2 84//2 83//2
f 86//2 87//2 88//2
f 87//2 89//2 88//2
f 88//2 89//2 90//2
f 89//2 91//2 90//2
f 90//2 91//2 71//2
f 71//2 91//2 69//2
f 69//2 91//2 92//2
f 91//2 93//2 92//2
f 92//2 93//2 53//2
f 53//2 93//2 51//2
f 93//2 94//2 51//2
f 51//2 94//2 95//2
f 94//2 96//2 95//2
f 95//2 96//2 97//2
f 97//2 96//2 98//2
f 96//2 99//2 98//2
f 98//2 99//2 100//2
f 100//2 99//2 62//2
f 63//2 62//2 99//2
f 101//3 102//4 103//3
f 102//4 101//3 104//4
f 105//5 106//6 107//5
f 108//6 107//5 106//6
f 109//7 103//3 110//7
f 103//3 109//7 101//3
f 106//6 111//8 108//6
f 112//8 108//6 111//8
f 113//9 110//7 114//9
f 110//7 113//9 109//7
f 111//8 115//10 112//8
f 116//10 112//8 115//10
f 117//11 114//9 118//11
f 114//9 117//11 113//9
f 115//10 119//12 116//10
f 120//12 116//10 119//12
f 121//13 117//11 118//11
f 117//11 121//13 122//13
f 123//14 124//14 119//12
f 120//12 119//12 124//14
f 125//15 122//13 121//13
f 122//13 125//15 126//15
f 127//16 128//16 123//14
f 124//14 123//14 128//16
f 129//17 126//15 125//15
f 126//15 129//17 130//17
f 131//18 132//18 127//16
f 128//16 127//16 132//18
f 133//19 130//17 129//17
f 130//17 133//19 134//19
f 135//20 136//20 131//18
f 132//18 131//18 136//20
f 137//21 134//19 133//19
f 134//19 137//21 138//21
f 139//22 140//22 135//20
f 136//20 135//20 140//22
f 141//23 138//21 137//21
f 138//21 141//23 142//23
f 143//24 144//24 139//22
f 140//22 139//22 144//24
f 145//25 141//23 146//25
f 141//23 145//25 142//23
f 143//24 147//26 144//24
f 148//26 144//24 147//26
f 149//27 146//25 150//27
f 146//25 149//27 145//25
f 147//26 151//28 148//26
f 152//28 148//26 151//28
f 153//29 150//27 154//29
f 150//27 153//29 149//27
f 151//28 155//30 152//28
f 156//30 152//28 155//30
f 157//31 154//29 158//31
f 154//29 157//31 153//29
f 155//30 159//32 156//30
f 160//32 156//30 159//32
f 161//33 158//31 162//33
f 158//31 161//33 157//31
f 159//32 163//34 160//32
f 164//34 160//32 163//34
f 161//33 165//35 166//35
f 165//35 161//33 162//33
f 164//34 163//34 167//36
f 168//36 167//36 163//34
f 166//35 169//37 170//37
f 169//37 166//35 165//35
f 167//36 168//36 171//38
f 172//38 171//38 168//36
f 170//37 173//39 174//39
f 173//39 170//37 169//37
f 171//38 172//38 175//40
f 176//40 175//40 172//38
f 174//39 177//41 178//41
f 177//41 174//39 173//39
f 175//40 176//40 179//42
f 180//42 179//42 176//40
f 181//43 177//41 182//43
f 177//41 181//43 178//41
f 180//42 183//44 179//42
f 184//44 179//42 183//44
f 185//45 181//43 182//43
f 181//43 185//45 186//45
f 187//46 188//46 183//44
f 184//44 183//44 188//46
f 189//47 185//45 190//47
f 185//45 189//47 186//45
f 187//46 191//48 188//46
f 192//48 188//46 191//48
f 193//49 190//47 194//49
f 190//47 193//49 189//47
f 191//48 195//50 192//48
f 196//50 192//48 195//50
f 197//51 194//49 198//51
f 194//49 197//51 193//49
f 195//50 199//52 196//50
f 200//52 196//50 199//52
f 201//53 198//51 202//53
f 198//51 201//53 197//51
f 199//52 203//54 200//52
f 204//54 200//52 203//54
f 205//55 202//53 206//55
f 202//53 205//55 201//53
f 203//54 207//56 204//54
f 208//56 204//54 207//56
f 205//55 209//57 210//57
f 209//57 205//55 206//55
f 208//56 207//56 211//58
f 212//58 211//58 207//56
f 210//57 213//59 214//59
f 213//59 210//57 209//57
f 211//58 212//58 215//60
f 216//60 215//60 212//58
f 214//59 217//61 218//61
f 217//61 214//59 213//59
f 215//60 216//60 219//62
f 220//62 219//62 216//60
f 221//63 222//64 223//63
f 222//64 221//63 224//64
f 225//65 226//66 227//65
f 228//66 227//65 226//66
f 229//67 223//63 230//67
f 223//63 229//67 221//63
f 226//66 231//68 228//66
f 232//68 228//66 231//68
f 233//69 230//67 234//69
f 230//67 233//69 229//67
f 231//68 235//70 232//68
f 236//70 232//68 235//70
f 237//71 234//69 238//71
f 234//69 237//71 233//69
f 235//70 239//72 236//70
f 240//72 236//70 239//72
f 237//71 241//73 242//73
f 241//73 237//71 238//71
f 240//72 239//72 243//74
f 244//74 243//74 239//72
f 242//73 245//75 246//75
f 245//75 242//73 241//73
f 243//74 244//74 247//76
f 248//76 247//76 244//74
f 246//75 249//77 250//77
f 249//77 246//75 245//75
f 247//76 248//76 251//78
f 252//78 251//78 248//76
f 250//77 253//79 254//79
f 253//79 250//77 249//77
f 251//78 252//78 255//80
f 256//80 255//80 252//78
f 104//4 253//79 102//4
f 253//79 104//4 254//79
f 256//80 105//5 255//80
f 107//5 255//80 105//5
