# SSTK version 0.8.0
# 165
mtllib original-165.mtl
o #ID1332
v -0.070956 0.767098 0.316900
v -0.099215 0.784858 0.295216
v -0.099215 0.767098 0.295216
v -0.070956 0.784858 0.316900
v -0.070956 0.784858 0.316900
v -0.070956 0.767098 0.316900
v -0.099215 0.784858 0.295216
v -0.099215 0.767098 0.295216
v -0.100271 0.784858 -0.313732
v 0.063915 0.784858 -0.108049
v 0.088889 0.784858 -0.088885
v 0.034831 0.784858 -0.120095
v 0.003621 0.784858 -0.124204
v -0.303896 0.784858 -0.104911
v -0.027589 0.784858 -0.120095
v -0.056672 0.784858 -0.108048
v -0.081647 0.784858 -0.088885
v -0.100810 0.784858 -0.063911
v -0.112857 0.784858 -0.034827
v -0.116966 0.784858 -0.003617
v -0.112857 0.784858 0.027593
v -0.100810 0.784858 0.056676
v -0.081647 0.784858 0.081651
v 0.101105 0.784858 0.294991
v 0.072553 0.784858 0.316899
v -0.324449 0.784858 -0.078126
v 0.037942 0.784858 0.331236
v -0.338207 0.784858 -0.044912
v -0.342899 0.784858 -0.009270
v 0.000799 0.784858 0.336126
v -0.338207 0.784858 0.026373
v -0.036344 0.784858 0.331236
v -0.324449 0.784858 0.059587
v -0.070956 0.784858 0.316900
v -0.303873 0.784858 0.086403
v -0.099215 0.784858 0.295216
v 0.073278 0.784858 -0.335669
v 0.305717 0.784858 -0.094362
v 0.102160 0.784858 -0.313507
v 0.038317 0.784858 -0.350151
v 0.323741 0.784858 -0.070872
v 0.336049 0.784858 -0.041158
v 0.000798 0.784858 -0.355090
v 0.340247 0.784858 -0.009270
v -0.036720 0.784858 -0.350150
v 0.336049 0.784858 0.022618
v -0.071681 0.784858 -0.335669
v 0.323741 0.784858 0.052333
v 0.305693 0.784858 0.075853
v 0.108053 0.784858 -0.063911
v 0.120099 0.784858 -0.034827
v 0.124208 0.784858 -0.003617
v 0.120099 0.784858 0.027593
v 0.108053 0.784858 0.056676
v 0.088889 0.784858 0.081651
v 0.063915 0.784858 0.100814
v 0.034831 0.784858 0.112861
v 0.003621 0.784858 0.116970
v -0.027589 0.784858 0.112861
v -0.056672 0.784858 0.100814
v -0.081647 0.784858 0.081651
v -0.056672 0.784858 0.100814
v 0.101105 0.784858 0.294991
v -0.027589 0.784858 0.112861
v 0.003621 0.784858 0.116970
v 0.034831 0.784858 0.112861
v 0.063915 0.784858 0.100814
v 0.088889 0.784858 0.081651
v 0.108053 0.784858 0.056676
v 0.120099 0.784858 0.027593
v 0.124208 0.784858 -0.003617
v 0.305693 0.784858 0.075853
v 0.120099 0.784858 -0.034827
v 0.108053 0.784858 -0.063911
v 0.088889 0.784858 -0.088885
v -0.100271 0.784858 -0.313732
v -0.071681 0.784858 -0.335669
v 0.323741 0.784858 0.052333
v 0.336049 0.784858 0.022618
v -0.036720 0.784858 -0.350150
v 0.340247 0.784858 -0.009270
v 0.000798 0.784858 -0.355090
v 0.336049 0.784858 -0.041158
v 0.038317 0.784858 -0.350151
v 0.323741 0.784858 -0.070872
v 0.305717 0.784858 -0.094362
v 0.073278 0.784858 -0.335669
v 0.102160 0.784858 -0.313507
v -0.099215 0.784858 0.295216
v -0.303873 0.784858 0.086403
v -0.070956 0.784858 0.316900
v -0.324449 0.784858 0.059587
v -0.036344 0.784858 0.331236
v -0.338207 0.784858 0.026373
v 0.000799 0.784858 0.336126
v -0.342899 0.784858 -0.009270
v 0.037942 0.784858 0.331236
v -0.338207 0.784858 -0.044912
v -0.324449 0.784858 -0.078126
v 0.072553 0.784858 0.316899
v -0.303896 0.784858 -0.104911
v -0.100810 0.784858 0.056676
v -0.112857 0.784858 0.027593
v -0.116966 0.784858 -0.003617
v -0.112857 0.784858 -0.034827
v -0.100810 0.784858 -0.063911
v -0.081647 0.784858 -0.088885
v -0.056672 0.784858 -0.108048
v -0.027589 0.784858 -0.120095
v 0.003621 0.784858 -0.124204
v 0.034831 0.784858 -0.120095
v 0.063915 0.784858 -0.108049
v -0.303873 0.784858 0.086403
v -0.303873 0.767098 0.086403
v -0.303873 0.784858 0.086403
v -0.303873 0.767098 0.086403
v 0.336049 0.767098 -0.041158
v 0.281012 0.767098 -0.073489
v 0.080338 0.767098 -0.289530
v 0.340247 0.767098 -0.009270
v 0.295521 0.767098 -0.054580
v 0.304575 0.767098 -0.032724
v 0.336049 0.767098 0.022618
v 0.307662 0.767098 -0.009270
v 0.304575 0.767098 0.014185
v 0.323741 0.767098 0.052333
v 0.295521 0.767098 0.036040
v 0.305693 0.767098 0.075853
v 0.281014 0.767098 0.054947
v 0.101105 0.767098 0.294991
v 0.079316 0.767098 0.270990
v 0.056261 0.767098 0.288680
v 0.072553 0.767098 0.316899
v 0.029508 0.767098 0.299762
v 0.037942 0.767098 0.331236
v 0.000799 0.767098 0.303541
v 0.000799 0.767098 0.336126
v -0.027911 0.767098 0.299762
v -0.054664 0.767098 0.288680
v -0.036344 0.767098 0.331236
v -0.077739 0.767098 0.270974
v -0.338207 0.767098 0.026373
v -0.324449 0.767098 0.059587
v -0.070956 0.767098 0.316900
v -0.303873 0.767098 0.086403
v -0.099215 0.767098 0.295216
v 0.305717 0.767098 -0.094362
v 0.073278 0.767098 -0.335669
v 0.102160 0.767098 -0.313507
v 0.038317 0.767098 -0.350151
v 0.323741 0.767098 -0.070872
v 0.000798 0.767098 -0.355090
v 0.056986 0.767098 -0.307450
v 0.029883 0.767098 -0.318676
v -0.036720 0.767098 -0.350150
v 0.000798 0.767098 -0.322505
v -0.028286 0.767098 -0.318676
v -0.071681 0.767098 -0.335669
v -0.055389 0.767098 -0.307450
v -0.100271 0.767098 -0.313732
v -0.078762 0.767098 -0.289515
v -0.303896 0.767098 -0.104911
v -0.279431 0.767098 -0.083727
v -0.296230 0.767098 -0.061833
v -0.324449 0.767098 -0.078126
v -0.306732 0.767098 -0.036479
v -0.338207 0.767098 -0.044912
v -0.310314 0.767098 -0.009270
v -0.342899 0.767098 -0.009270
v -0.306732 0.767098 0.017940
v -0.296230 0.767098 0.043294
v -0.279432 0.767098 0.065186
v -0.077739 0.767098 0.270974
v -0.279432 0.767098 0.065186
v -0.338207 0.767098 0.026373
v -0.296230 0.767098 0.043294
v -0.342899 0.767098 -0.009270
v -0.306732 0.767098 0.017940
v -0.310314 0.767098 -0.009270
v -0.338207 0.767098 -0.044912
v -0.306732 0.767098 -0.036479
v -0.324449 0.767098 -0.078126
v -0.296230 0.767098 -0.061833
v -0.303896 0.767098 -0.104911
v -0.279431 0.767098 -0.083727
v -0.078762 0.767098 -0.289515
v -0.100271 0.767098 -0.313732
v -0.055389 0.767098 -0.307450
v -0.071681 0.767098 -0.335669
v -0.028286 0.767098 -0.318676
v -0.036720 0.767098 -0.350150
v 0.000798 0.767098 -0.322505
v 0.029883 0.767098 -0.318676
v 0.000798 0.767098 -0.355090
v 0.056986 0.767098 -0.307450
v 0.080338 0.767098 -0.289530
v 0.038317 0.767098 -0.350151
v 0.336049 0.767098 -0.041158
v 0.323741 0.767098 -0.070872
v 0.305717 0.767098 -0.094362
v 0.073278 0.767098 -0.335669
v 0.102160 0.767098 -0.313507
v -0.099215 0.767098 0.295216
v -0.070956 0.767098 0.316900
v -0.303873 0.767098 0.086403
v -0.324449 0.767098 0.059587
v -0.036344 0.767098 0.331236
v -0.054664 0.767098 0.288680
v 0.000799 0.767098 0.336126
v -0.027911 0.767098 0.299762
v 0.000799 0.767098 0.303541
v 0.037942 0.767098 0.331236
v 0.029508 0.767098 0.299762
v 0.072553 0.767098 0.316899
v 0.056261 0.767098 0.288680
v 0.101105 0.767098 0.294991
v 0.079316 0.767098 0.270990
v 0.281014 0.767098 0.054947
v 0.305693 0.767098 0.075853
v 0.295521 0.767098 0.036040
v 0.323741 0.767098 0.052333
v 0.304575 0.767098 0.014185
v 0.336049 0.767098 0.022618
v 0.307662 0.767098 -0.009270
v 0.304575 0.767098 -0.032724
v 0.340247 0.767098 -0.009270
v 0.295521 0.767098 -0.054580
v 0.281012 0.767098 -0.073489
v -0.036344 0.767098 0.331236
v -0.036344 0.784858 0.331236
v -0.036344 0.784858 0.331236
v -0.036344 0.767098 0.331236
v 0.305693 0.767098 0.075853
v 0.101105 0.784858 0.294991
v 0.101105 0.767098 0.294991
v 0.305693 0.784858 0.075853
v 0.305693 0.784858 0.075853
v 0.305693 0.767098 0.075853
v 0.101105 0.784858 0.294991
v 0.101105 0.767098 0.294991
v 0.323741 0.784858 0.052333
v 0.323741 0.767098 0.052333
v 0.323741 0.784858 0.052333
v 0.323741 0.767098 0.052333
v 0.336049 0.784858 0.022618
v 0.336049 0.767098 0.022618
v 0.336049 0.784858 0.022618
v 0.336049 0.767098 0.022618
v 0.340247 0.784858 -0.009270
v 0.340247 0.767098 -0.009270
v 0.340247 0.784858 -0.009270
v 0.340247 0.767098 -0.009270
v 0.336049 0.767098 -0.041158
v 0.336049 0.784858 -0.041158
v 0.336049 0.767098 -0.041158
v 0.336049 0.784858 -0.041158
v 0.323741 0.767098 -0.070872
v 0.323741 0.784858 -0.070872
v 0.323741 0.767098 -0.070872
v 0.323741 0.784858 -0.070872
v 0.305717 0.767098 -0.094362
v 0.305717 0.784858 -0.094362
v 0.305717 0.767098 -0.094362
v 0.305717 0.784858 -0.094362
v 0.102160 0.767098 -0.313507
v 0.102160 0.784858 -0.313507
v 0.102160 0.767098 -0.313507
v 0.102160 0.784858 -0.313507
v 0.073278 0.767098 -0.335669
v 0.073278 0.784858 -0.335669
v 0.073278 0.767098 -0.335669
v 0.073278 0.784858 -0.335669
v 0.038317 0.767098 -0.350151
v 0.038317 0.784858 -0.350151
v 0.038317 0.767098 -0.350151
v 0.038317 0.784858 -0.350151
v 0.000798 0.767098 -0.355090
v 0.000798 0.784858 -0.355090
v 0.000798 0.767098 -0.355090
v 0.000798 0.784858 -0.355090
v -0.036720 0.784858 -0.350150
v -0.036720 0.767098 -0.350150
v -0.036720 0.784858 -0.350150
v -0.036720 0.767098 -0.350150
v -0.071681 0.784858 -0.335669
v -0.071681 0.767098 -0.335669
v -0.071681 0.784858 -0.335669
v -0.071681 0.767098 -0.335669
v -0.100271 0.784858 -0.313732
v -0.100271 0.767098 -0.313732
v -0.100271 0.784858 -0.313732
v -0.100271 0.767098 -0.313732
v -0.303896 0.784858 -0.104911
v -0.303896 0.767098 -0.104911
v -0.303896 0.784858 -0.104911
v -0.303896 0.767098 -0.104911
v -0.324449 0.784858 -0.078126
v -0.324449 0.767098 -0.078126
v -0.324449 0.784858 -0.078126
v -0.324449 0.767098 -0.078126
v -0.338207 0.784858 -0.044912
v -0.338207 0.767098 -0.044912
v -0.338207 0.784858 -0.044912
v -0.338207 0.767098 -0.044912
v -0.342899 0.784858 -0.009270
v -0.342899 0.767098 -0.009270
v -0.342899 0.784858 -0.009270
v -0.342899 0.767098 -0.009270
v -0.338207 0.767098 0.026373
v -0.338207 0.784858 0.026373
v -0.338207 0.784858 0.026373
v -0.338207 0.767098 0.026373
v -0.324449 0.767098 0.059587
v -0.324449 0.784858 0.059587
v -0.324449 0.784858 0.059587
v -0.324449 0.767098 0.059587
v 0.000799 0.767098 0.336126
v 0.000799 0.784858 0.336126
v 0.000799 0.784858 0.336126
v 0.000799 0.767098 0.336126
v 0.037942 0.784858 0.331236
v 0.037942 0.767098 0.331236
v 0.037942 0.784858 0.331236
v 0.037942 0.767098 0.331236
v 0.072553 0.784858 0.316899
v 0.072553 0.767098 0.316899
v 0.072553 0.784858 0.316899
v 0.072553 0.767098 0.316899
vn -0.4999997868874788 0 0.8660255268249752
vn -0.6631152245164135 0 0.7485173338103444
vn 0 1 0
vn -0.7551432990835807 0 0.655559759174681
vn 0 -1 0
vn -0.2588187700696932 0 0.9659258999838505
vn 0.7630443811501156 0 0.6463460933549745
vn 0.6721513351014546 0 0.7404137915526234
vn 0.8660255268249752 0 0.4999997868874788
vn 0.9659258999838505 0 0.2588187700696932
vn 1 0 -2.828427049239693e-7
vn 0.9659257535736938 0 -0.25881931647984047
vn 0.8660252439822522 0 -0.5000002767854038
vn 0.7638636423716956 0 -0.6453776691694919
vn 0.6730899886852351 0 -0.7395605905750456
vn 0.4999997868874788 0 -0.8660255268249752
vn 0.2588187700696932 0 -0.9659258999838505
vn -2.828427049239693e-7 0 -1
vn -0.25881931647984047 0 -0.9659257535736938
vn -0.5000002767854038 0 -0.8660252439822522
vn -0.6640671819029108 0 -0.7476729083760669
vn -0.7559768953119993 0 -0.6545982995352421
vn -0.8660255268249752 0 -0.4999997868874788
vn -0.9659258999838505 0 -0.2588187700696932
vn -1 0 2.828427049239693e-7
vn -0.9659257535736938 0 0.25881931647984047
vn -0.8660252439822522 0 0.5000002767854038
vn 2.828427049239693e-7 0 1
vn 0.25881931647984047 0 0.9659257535736938
vn 0.5000002767854038 0 0.8660252439822522
vn 0.6631152245164135 0 -0.7485173338103444
vn 0.7551432990835807 0 -0.655559759174681
vn -0.7630443811501156 0 -0.6463460933549745
vn -0.6721513351014546 0 -0.7404137915526234
vn -0.7638636423716956 0 0.6453776691694919
vn -0.6730899886852351 0 0.7395605905750456
vn 0.6640671819029108 0 0.7476729083760669
vn 0.7559768953119993 0 0.6545982995352421
usemtl material_0_0
f 1//1 2//2 3//2
f 2//2 1//1 4//1
f 9//3 10//3 11//3
f 10//3 9//3 12//3
f 12//3 9//3 13//3
f 13//3 9//3 14//3
f 13//3 14//3 15//3
f 15//3 14//3 16//3
f 16//3 14//3 17//3
f 17//3 14//3 18//3
f 18//3 14//3 19//3
f 19//3 14//3 20//3
f 20//3 14//3 21//3
f 21//3 14//3 22//3
f 22//3 14//3 23//3
f 23//3 14//3 24//3
f 24//3 14//3 25//3
f 25//3 14//3 26//3
f 25//3 26//3 27//3
f 27//3 26//3 28//3
f 27//3 28//3 29//3
f 27//3 29//3 30//3
f 30//3 29//3 31//3
f 30//3 31//3 32//3
f 32//3 31//3 33//3
f 32//3 33//3 34//3
f 34//3 33//3 35//3
f 34//3 35//3 36//3
f 37//3 38//3 39//3
f 38//3 37//3 40//3
f 38//3 40//3 41//3
f 41//3 40//3 42//3
f 42//3 40//3 43//3
f 42//3 43//3 44//3
f 44//3 43//3 45//3
f 44//3 45//3 46//3
f 46//3 45//3 47//3
f 46//3 47//3 48//3
f 48//3 47//3 49//3
f 49//3 47//3 9//3
f 49//3 9//3 11//3
f 49//3 11//3 50//3
f 49//3 50//3 51//3
f 49//3 51//3 52//3
f 49//3 52//3 24//3
f 24//3 52//3 53//3
f 24//3 53//3 54//3
f 24//3 54//3 55//3
f 24//3 55//3 56//3
f 24//3 56//3 57//3
f 24//3 57//3 58//3
f 24//3 58//3 59//3
f 24//3 59//3 60//3
f 24//3 60//3 23//3
f 3//2 113//4 114//4
f 113//4 3//2 2//2
f 117//5 118//5 119//5
f 118//5 117//5 120//5
f 118//5 120//5 121//5
f 121//5 120//5 122//5
f 122//5 120//5 123//5
f 122//5 123//5 124//5
f 124//5 123//5 125//5
f 125//5 123//5 126//5
f 125//5 126//5 127//5
f 127//5 126//5 128//5
f 127//5 128//5 129//5
f 129//5 128//5 130//5
f 129//5 130//5 131//5
f 131//5 130//5 132//5
f 132//5 130//5 133//5
f 132//5 133//5 134//5
f 134//5 133//5 135//5
f 134//5 135//5 136//5
f 136//5 135//5 137//5
f 136//5 137//5 138//5
f 138//5 137//5 139//5
f 139//5 137//5 140//5
f 139//5 140//5 141//5
f 141//5 140//5 142//5
f 142//5 140//5 143//5
f 143//5 140//5 144//5
f 143//5 144//5 145//5
f 145//5 144//5 146//5
f 147//5 148//5 149//5
f 148//5 147//5 150//5
f 150//5 147//5 151//5
f 150//5 151//5 117//5
f 150//5 117//5 119//5
f 150//5 119//5 152//5
f 152//5 119//5 153//5
f 152//5 153//5 154//5
f 152//5 154//5 155//5
f 155//5 154//5 156//5
f 155//5 156//5 157//5
f 155//5 157//5 158//5
f 158//5 157//5 159//5
f 158//5 159//5 160//5
f 160//5 159//5 161//5
f 160//5 161//5 162//5
f 162//5 161//5 163//5
f 162//5 163//5 164//5
f 162//5 164//5 165//5
f 165//5 164//5 166//5
f 165//5 166//5 167//5
f 167//5 166//5 168//5
f 167//5 168//5 169//5
f 169//5 168//5 170//5
f 169//5 170//5 171//5
f 169//5 171//5 142//5
f 142//5 171//5 172//5
f 142//5 172//5 141//5
f 229//6 4//1 1//1
f 4//1 229//6 230//6
f 233//7 234//8 235//8
f 234//8 233//7 236//7
f 241//9 233//7 242//9
f 233//7 241//9 236//7
f 245//10 242//9 246//10
f 242//9 245//10 241//9
f 249//11 246//10 250//11
f 246//10 249//11 245//10
f 249//11 253//12 254//12
f 253//12 249//11 250//11
f 254//12 257//13 258//13
f 257//13 254//12 253//12
f 258//13 261//14 262//14
f 261//14 258//13 257//13
f 262//14 265//15 266//15
f 265//15 262//14 261//14
f 266//15 269//16 270//16
f 269//16 266//15 265//15
f 270//16 273//17 274//17
f 273//17 270//16 269//16
f 274//17 277//18 278//18
f 277//18 274//17 273//17
f 281//19 277//18 282//19
f 277//18 281//19 278//18
f 285//20 282//19 286//20
f 282//19 285//20 281//19
f 289//21 286//20 290//21
f 286//20 289//21 285//20
f 293//22 290//21 294//22
f 290//21 293//22 289//21
f 297//23 294//22 298//23
f 294//22 297//23 293//22
f 301//24 298//23 302//24
f 298//23 301//24 297//23
f 305//25 302//24 306//25
f 302//24 305//25 301//24
f 309//26 305//25 306//25
f 305//25 309//26 310//26
f 313//27 310//26 309//26
f 310//26 313//27 314//27
f 114//4 314//27 313//27
f 314//27 114//4 113//4
f 317//28 230//6 229//6
f 230//6 317//28 318//28
f 321//29 317//28 322//29
f 317//28 321//29 318//28
f 325//30 322//29 326//30
f 322//29 325//30 321//29
f 234//8 326//30 235//8
f 326//30 234//8 325//30
usemtl material_1_0
f 5//16 6//16 7//31
f 8//31 7//31 6//16
f 61//5 62//5 63//5
f 62//5 64//5 63//5
f 64//5 65//5 63//5
f 65//5 66//5 63//5
f 66//5 67//5 63//5
f 67//5 68//5 63//5
f 68//5 69//5 63//5
f 69//5 70//5 63//5
f 70//5 71//5 63//5
f 63//5 71//5 72//5
f 71//5 73//5 72//5
f 73//5 74//5 72//5
f 74//5 75//5 72//5
f 75//5 76//5 72//5
f 76//5 77//5 72//5
f 72//5 77//5 78//5
f 78//5 77//5 79//5
f 77//5 80//5 79//5
f 79//5 80//5 81//5
f 80//5 82//5 81//5
f 81//5 82//5 83//5
f 82//5 84//5 83//5
f 83//5 84//5 85//5
f 85//5 84//5 86//5
f 84//5 87//5 86//5
f 88//5 86//5 87//5
f 89//5 90//5 91//5
f 90//5 92//5 91//5
f 91//5 92//5 93//5
f 92//5 94//5 93//5
f 93//5 94//5 95//5
f 94//5 96//5 95//5
f 95//5 96//5 97//5
f 96//5 98//5 97//5
f 98//5 99//5 97//5
f 97//5 99//5 100//5
f 99//5 101//5 100//5
f 100//5 101//5 63//5
f 63//5 101//5 61//5
f 61//5 101//5 102//5
f 102//5 101//5 103//5
f 103//5 101//5 104//5
f 104//5 101//5 105//5
f 105//5 101//5 106//5
f 106//5 101//5 107//5
f 107//5 101//5 108//5
f 108//5 101//5 109//5
f 109//5 101//5 110//5
f 101//5 76//5 110//5
f 110//5 76//5 111//5
f 111//5 76//5 112//5
f 75//5 112//5 76//5
f 7//31 8//31 115//32
f 116//32 115//32 8//31
f 173//3 174//3 175//3
f 174//3 176//3 175//3
f 175//3 176//3 177//3
f 176//3 178//3 177//3
f 178//3 179//3 177//3
f 177//3 179//3 180//3
f 179//3 181//3 180//3
f 180//3 181//3 182//3
f 181//3 183//3 182//3
f 182//3 183//3 184//3
f 183//3 185//3 184//3
f 185//3 186//3 184//3
f 184//3 186//3 187//3
f 186//3 188//3 187//3
f 187//3 188//3 189//3
f 188//3 190//3 189//3
f 189//3 190//3 191//3
f 190//3 192//3 191//3
f 192//3 193//3 191//3
f 191//3 193//3 194//3
f 193//3 195//3 194//3
f 195//3 196//3 194//3
f 194//3 196//3 197//3
f 196//3 198//3 197//3
f 198//3 199//3 197//3
f 199//3 200//3 197//3
f 197//3 200//3 201//3
f 202//3 201//3 200//3
f 203//3 204//3 205//3
f 205//3 204//3 206//3
f 204//3 207//3 206//3
f 206//3 207//3 175//3
f 175//3 207//3 173//3
f 173//3 207//3 208//3
f 207//3 209//3 208//3
f 208//3 209//3 210//3
f 210//3 209//3 211//3
f 209//3 212//3 211//3
f 211//3 212//3 213//3
f 212//3 214//3 213//3
f 213//3 214//3 215//3
f 214//3 216//3 215//3
f 215//3 216//3 217//3
f 217//3 216//3 218//3
f 216//3 219//3 218//3
f 218//3 219//3 220//3
f 219//3 221//3 220//3
f 220//3 221//3 222//3
f 221//3 223//3 222//3
f 222//3 223//3 224//3
f 224//3 223//3 225//3
f 223//3 226//3 225//3
f 225//3 226//3 227//3
f 227//3 226//3 228//3
f 226//3 198//3 228//3
f 196//3 228//3 198//3
f 231//17 232//17 5//16
f 6//16 5//16 232//17
f 237//33 238//33 239//34
f 240//34 239//34 238//33
f 237//33 243//23 238//33
f 244//23 238//33 243//23
f 243//23 247//24 244//23
f 248//24 244//23 247//24
f 247//24 251//25 248//24
f 252//25 248//24 251//25
f 252//25 251//25 255//26
f 256//26 255//26 251//25
f 255//26 256//26 259//27
f 260//27 259//27 256//26
f 259//27 260//27 263//35
f 264//35 263//35 260//27
f 263//35 264//35 267//36
f 268//36 267//36 264//35
f 267//36 268//36 271//1
f 272//1 271//1 268//36
f 271//1 272//1 275//6
f 276//6 275//6 272//1
f 275//6 276//6 279//28
f 280//28 279//28 276//6
f 280//28 283//29 279//28
f 284//29 279//28 283//29
f 283//29 287//30 284//29
f 288//30 284//29 287//30
f 287//30 291//37 288//30
f 292//37 288//30 291//37
f 291//37 295//38 292//37
f 296//38 292//37 295//38
f 295//38 299//9 296//38
f 300//9 296//38 299//9
f 299//9 303//10 300//9
f 304//10 300//9 303//10
f 303//10 307//11 304//10
f 308//11 304//10 307//11
f 311//12 312//12 307//11
f 308//11 307//11 312//12
f 315//13 316//13 311//12
f 312//12 311//12 316//13
f 115//32 116//32 315//13
f 316//13 315//13 116//32
f 319//18 320//18 231//17
f 232//17 231//17 320//18
f 319//18 323//19 320//18
f 324//19 320//18 323//19
f 323//19 327//20 324//19
f 328//20 324//19 327//20
f 327//20 239//34 328//20
f 240//34 328//20 239//34
