# SSTK version 0.8.0
# 15
mtllib original-15.mtl
o #ID81
v 0.055651 -0.578018 0.329928
v 0.053452 -0.577716 0.329864
v 0.054510 -0.578155 0.329957
v 0.056568 -0.577341 0.329786
v 0.054600 -0.577530 0.329825
v 0.055409 -0.577433 0.329805
v 0.056060 -0.576952 0.329704
v 0.057017 -0.576305 0.329568
v 0.056379 -0.576218 0.329549
v 0.056877 -0.575189 0.329332
v 0.056279 -0.575426 0.329382
v 0.055789 -0.574789 0.329248
v 0.056186 -0.574291 0.329143
v 0.055038 -0.574477 0.329182
v 0.052761 -0.576818 0.329674
v 0.053849 -0.577218 0.329759
v 0.053358 -0.576581 0.329625
v 0.052620 -0.575701 0.329439
v 0.053259 -0.575789 0.329458
v 0.053578 -0.575055 0.329303
v 0.053069 -0.574666 0.329221
v 0.054229 -0.574574 0.329202
v 0.053987 -0.573989 0.329079
v 0.055128 -0.573852 0.329050
vn -0.0002836279088071238 0.20619760640278242 0.9785103303843924
usemtl material_0_0
f 1//1 2//1 3//1
f 2//1 1//1 4//1
f 2//1 4//1 5//1
f 5//1 4//1 6//1
f 6//1 4//1 7//1
f 7//1 4//1 8//1
f 7//1 8//1 9//1
f 9//1 8//1 10//1
f 9//1 10//1 11//1
f 11//1 10//1 12//1
f 12//1 10//1 13//1
f 12//1 13//1 14//1
f 5//1 15//1 2//1
f 15//1 5//1 16//1
f 15//1 16//1 17//1
f 15//1 17//1 18//1
f 18//1 17//1 19//1
f 18//1 19//1 20//1
f 18//1 20//1 21//1
f 21//1 20//1 22//1
f 21//1 22//1 23//1
f 23//1 22//1 14//1
f 23//1 14//1 13//1
f 23//1 13//1 24//1
