# SSTK version 0.8.0
# 36
mtllib original-36.mtl
o #ID215
v 0.052683 -0.223217 -0.203182
v 0.014142 -0.223217 -0.220338
v 0.014606 -0.223217 -0.223897
v 0.012784 -0.223217 -0.217021
v 0.010623 -0.223217 -0.214173
v 0.007807 -0.223217 -0.211987
v 0.004528 -0.223217 -0.210613
v 0.001009 -0.223217 -0.210023
v 0.014374 -0.223217 -0.222118
v 0.001009 -0.223217 -0.210145
v -0.002510 -0.223217 -0.210613
v -0.050675 -0.223217 -0.203258
v -0.005789 -0.223217 -0.211987
v -0.008605 -0.223217 -0.214173
v -0.010766 -0.223217 -0.217021
v -0.012124 -0.223217 -0.220338
v -0.012355 -0.223217 -0.222112
v -0.012587 -0.223217 -0.223897
v 0.221675 -0.223217 0.048968
v 0.227384 -0.223217 -0.010340
v 0.229504 -0.223217 -0.010203
v 0.226927 -0.223217 -0.006934
v 0.225591 -0.223217 -0.003761
v 0.223467 -0.223217 -0.001036
v 0.220699 -0.223217 0.001054
v 0.198798 -0.223217 0.104098
v 0.217477 -0.223217 0.002367
v 0.214019 -0.223217 0.002814
v 0.210562 -0.223217 0.002363
v 0.207341 -0.223217 0.001047
v 0.204576 -0.223217 -0.001046
v 0.202455 -0.223217 -0.003773
v 0.201122 -0.223217 -0.006948
v 0.200655 -0.223217 -0.010204
v 0.200551 -0.223217 -0.010328
v 0.193692 -0.223217 0.041469
v 0.162431 -0.223217 0.151428
v 0.173709 -0.223217 0.089612
v 0.141947 -0.223217 0.130942
v 0.115055 -0.223217 0.187732
v 0.100570 -0.223217 0.162643
v 0.059896 -0.223217 0.210538
v 0.052399 -0.223217 0.182554
v 0.005868 -0.223217 0.217615
v 0.010587 -0.223217 0.213223
v 0.012772 -0.223217 0.210339
v 0.014145 -0.223217 0.206982
v 0.014611 -0.223217 0.203379
v 0.007739 -0.223217 0.215437
v 0.004421 -0.223217 0.216829
v 0.000714 -0.223217 0.218290
v 0.000860 -0.223217 0.217306
v -0.002702 -0.223217 0.216834
v -0.004061 -0.223217 0.217659
v -0.006022 -0.223217 0.215445
v -0.058458 -0.223217 0.210461
v -0.008873 -0.223217 0.213235
v -0.011061 -0.223217 0.210354
v -0.012438 -0.223217 0.206998
v -0.012909 -0.223217 0.203396
v -0.050959 -0.223217 0.182478
v -0.099101 -0.223217 0.162496
v -0.113588 -0.223217 0.187584
v -0.140431 -0.223217 0.130734
v -0.160917 -0.223217 0.151218
v -0.172132 -0.223217 0.089357
v -0.197222 -0.223217 0.103841
v -0.192044 -0.223217 0.041185
v -0.198830 -0.223217 -0.010349
v -0.199352 -0.223217 -0.006985
v -0.220028 -0.223217 0.048682
v -0.198945 -0.223217 -0.010352
v -0.198931 -0.223217 -0.010499
v -0.200630 -0.223217 -0.003837
v -0.202693 -0.223217 -0.001121
v -0.205400 -0.223217 0.000976
v -0.208566 -0.223217 0.002313
v -0.211975 -0.223217 0.002797
v -0.215396 -0.223217 0.002397
v -0.218594 -0.223217 0.001138
v -0.221353 -0.223217 -0.000892
v -0.223484 -0.223217 -0.003556
v -0.227780 -0.223217 -0.010500
v -0.224842 -0.223217 -0.006672
v -0.225335 -0.223217 -0.010027
v 0.221752 -0.223217 -0.069385
v 0.226931 -0.223217 -0.013746
v 0.225598 -0.223217 -0.016921
v 0.223477 -0.223217 -0.019648
v 0.220711 -0.223217 -0.021741
v 0.198946 -0.223217 -0.124544
v 0.217491 -0.223217 -0.023057
v 0.214034 -0.223217 -0.023508
v 0.210576 -0.223217 -0.023061
v 0.207354 -0.223217 -0.021748
v 0.204586 -0.223217 -0.019658
v 0.202462 -0.223217 -0.016933
v 0.201126 -0.223217 -0.013760
v 0.200669 -0.223217 -0.010354
v 0.193768 -0.223217 -0.061888
v 0.162641 -0.223217 -0.171921
v 0.173856 -0.223217 -0.110060
v 0.142155 -0.223217 -0.151437
v 0.115311 -0.223217 -0.208287
v 0.100825 -0.223217 -0.183199
v 0.060182 -0.223217 -0.231165
v 0.004703 -0.223217 -0.238502
v 0.010623 -0.223217 -0.233622
v 0.012784 -0.223217 -0.230774
v 0.014142 -0.223217 -0.227457
v 0.007807 -0.223217 -0.235808
v 0.004528 -0.223217 -0.237182
v 0.001009 -0.223217 -0.238994
v 0.001009 -0.223217 -0.237650
v -0.002684 -0.223217 -0.238502
v -0.002510 -0.223217 -0.237182
v -0.005789 -0.223217 -0.235808
v -0.058172 -0.223217 -0.231241
v -0.008605 -0.223217 -0.233622
v -0.010766 -0.223217 -0.230774
v -0.012124 -0.223217 -0.227457
v -0.098847 -0.223217 -0.183346
v -0.113331 -0.223217 -0.208436
v -0.140223 -0.223217 -0.151645
v -0.160708 -0.223217 -0.172131
v -0.171985 -0.223217 -0.110315
v -0.197074 -0.223217 -0.124801
v -0.191968 -0.223217 -0.062173
v -0.199437 -0.223217 -0.013707
v -0.219951 -0.223217 -0.069672
v -0.200795 -0.223217 -0.016823
v -0.202926 -0.223217 -0.019487
v -0.205685 -0.223217 -0.021517
v -0.208884 -0.223217 -0.022775
v -0.212305 -0.223217 -0.023176
v -0.215714 -0.223217 -0.022691
v -0.218880 -0.223217 -0.021355
v -0.221586 -0.223217 -0.019257
v -0.223649 -0.223217 -0.016542
v -0.224928 -0.223217 -0.013394
v 0.004405 -0.223217 0.189941
v 0.000943 -0.223217 0.189350
v 0.007724 -0.223217 0.191330
v 0.010575 -0.223217 0.193540
v 0.012764 -0.223217 0.196421
v 0.014140 -0.223217 0.199777
v 0.014376 -0.223217 0.201580
v 0.000843 -0.223217 0.189469
v -0.002718 -0.223217 0.189946
v -0.006036 -0.223217 0.191338
v -0.008884 -0.223217 0.193552
v -0.011069 -0.223217 0.196435
v -0.012442 -0.223217 0.199793
vn 0 -1 0
usemtl material_0_0
f 1//1 2//1 3//1
f 2//1 1//1 4//1
f 4//1 1//1 5//1
f 5//1 1//1 6//1
f 6//1 1//1 7//1
f 7//1 1//1 8//1
f 3//1 2//1 9//1
f 7//1 8//1 10//1
f 10//1 8//1 11//1
f 11//1 8//1 12//1
f 11//1 12//1 13//1
f 13//1 12//1 14//1
f 14//1 12//1 15//1
f 15//1 12//1 16//1
f 16//1 12//1 17//1
f 17//1 12//1 18//1
f 19//1 20//1 21//1
f 20//1 19//1 22//1
f 22//1 19//1 23//1
f 23//1 19//1 24//1
f 24//1 19//1 25//1
f 25//1 19//1 26//1
f 25//1 26//1 27//1
f 27//1 26//1 28//1
f 28//1 26//1 29//1
f 29//1 26//1 30//1
f 30//1 26//1 31//1
f 31//1 26//1 32//1
f 32//1 26//1 33//1
f 33//1 26//1 34//1
f 34//1 26//1 35//1
f 35//1 26//1 36//1
f 36//1 26//1 37//1
f 36//1 37//1 38//1
f 38//1 37//1 39//1
f 39//1 37//1 40//1
f 39//1 40//1 41//1
f 41//1 40//1 42//1
f 41//1 42//1 43//1
f 43//1 42//1 44//1
f 43//1 44//1 45//1
f 43//1 45//1 46//1
f 43//1 46//1 47//1
f 43//1 47//1 48//1
f 45//1 44//1 49//1
f 49//1 44//1 50//1
f 50//1 44//1 51//1
f 50//1 51//1 52//1
f 52//1 51//1 53//1
f 53//1 51//1 54//1
f 53//1 54//1 55//1
f 55//1 54//1 56//1
f 55//1 56//1 57//1
f 57//1 56//1 58//1
f 58//1 56//1 59//1
f 59//1 56//1 60//1
f 60//1 56//1 61//1
f 61//1 56//1 62//1
f 62//1 56//1 63//1
f 62//1 63//1 64//1
f 64//1 63//1 65//1
f 64//1 65//1 66//1
f 66//1 65//1 67//1
f 66//1 67//1 68//1
f 68//1 67//1 69//1
f 69//1 67//1 70//1
f 70//1 67//1 71//1
f 69//1 70//1 72//1
f 69//1 72//1 73//1
f 70//1 71//1 74//1
f 74//1 71//1 75//1
f 75//1 71//1 76//1
f 76//1 71//1 77//1
f 77//1 71//1 78//1
f 78//1 71//1 79//1
f 79//1 71//1 80//1
f 80//1 71//1 81//1
f 81//1 71//1 82//1
f 82//1 71//1 83//1
f 82//1 83//1 84//1
f 84//1 83//1 85//1
f 20//1 86//1 21//1
f 86//1 20//1 87//1
f 86//1 87//1 88//1
f 86//1 88//1 89//1
f 86//1 89//1 90//1
f 86//1 90//1 91//1
f 91//1 90//1 92//1
f 91//1 92//1 93//1
f 91//1 93//1 94//1
f 91//1 94//1 95//1
f 91//1 95//1 96//1
f 91//1 96//1 97//1
f 91//1 97//1 98//1
f 91//1 98//1 99//1
f 91//1 99//1 34//1
f 91//1 34//1 35//1
f 91//1 35//1 100//1
f 91//1 100//1 101//1
f 101//1 100//1 102//1
f 101//1 102//1 103//1
f 101//1 103//1 104//1
f 104//1 103//1 105//1
f 104//1 105//1 106//1
f 106//1 105//1 1//1
f 106//1 1//1 107//1
f 107//1 1//1 108//1
f 108//1 1//1 109//1
f 109//1 1//1 110//1
f 110//1 1//1 3//1
f 107//1 108//1 111//1
f 107//1 111//1 112//1
f 107//1 112//1 113//1
f 113//1 112//1 114//1
f 113//1 114//1 115//1
f 115//1 114//1 116//1
f 115//1 116//1 117//1
f 115//1 117//1 118//1
f 118//1 117//1 119//1
f 118//1 119//1 120//1
f 118//1 120//1 121//1
f 118//1 121//1 18//1
f 118//1 18//1 12//1
f 118//1 12//1 122//1
f 118//1 122//1 123//1
f 123//1 122//1 124//1
f 123//1 124//1 125//1
f 125//1 124//1 126//1
f 125//1 126//1 127//1
f 127//1 126//1 128//1
f 127//1 128//1 69//1
f 127//1 69//1 129//1
f 127//1 129//1 130//1
f 129//1 69//1 73//1
f 130//1 129//1 131//1
f 130//1 131//1 132//1
f 130//1 132//1 133//1
f 130//1 133//1 134//1
f 130//1 134//1 135//1
f 130//1 135//1 136//1
f 130//1 136//1 137//1
f 130//1 137//1 138//1
f 130//1 138//1 139//1
f 130//1 139//1 83//1
f 83//1 139//1 140//1
f 83//1 140//1 85//1
f 43//1 141//1 142//1
f 141//1 43//1 143//1
f 143//1 43//1 144//1
f 144//1 43//1 145//1
f 145//1 43//1 146//1
f 146//1 43//1 48//1
f 146//1 48//1 147//1
f 142//1 141//1 148//1
f 142//1 148//1 61//1
f 61//1 148//1 149//1
f 61//1 149//1 150//1
f 61//1 150//1 151//1
f 61//1 151//1 152//1
f 61//1 152//1 153//1
f 61//1 153//1 60//1
