# SSTK version 0.8.0
# 188
mtllib original-188.mtl
o #ID1478
v 0.030276 0.834197 -0.017653
v 0.030491 0.831480 -0.017868
v 0.030276 0.831480 -0.017653
v 0.030491 0.834197 -0.017868
v 0.030491 0.834197 -0.017868
v 0.030276 0.834197 -0.017653
v 0.030491 0.831480 -0.017868
v 0.030276 0.831480 -0.017653
v 0.030276 0.834197 -0.017653
v 0.027205 0.831480 -0.028693
v 0.027205 0.834197 -0.028693
v 0.029022 0.831480 -0.022162
v 0.030276 0.831480 -0.017653
v 0.030276 0.831480 -0.017653
v 0.030276 0.834197 -0.017653
v 0.029022 0.831480 -0.022162
v 0.027205 0.831480 -0.028693
v 0.027205 0.834197 -0.028693
v 0.032038 0.831480 -0.018984
v 0.032038 0.834197 -0.018984
v 0.032038 0.834197 -0.018984
v 0.032038 0.831480 -0.018984
v 0.027200 0.831480 -0.032215
v 0.027200 0.834197 -0.032215
v 0.027200 0.831480 -0.032215
v 0.027200 0.834197 -0.032215
v 0.033826 0.831480 -0.021556
v 0.033826 0.834197 -0.021556
v 0.033826 0.834197 -0.021556
v 0.033826 0.831480 -0.021556
v 0.028214 0.834197 -0.034406
v 0.028214 0.831480 -0.034406
v 0.028214 0.834197 -0.034406
v 0.028214 0.831480 -0.034406
v 0.034679 0.831480 -0.024762
v 0.034679 0.834197 -0.024762
v 0.034679 0.834197 -0.024762
v 0.034679 0.831480 -0.024762
v 0.029729 0.834197 -0.035362
v 0.029729 0.831480 -0.035362
v 0.029729 0.834197 -0.035362
v 0.029729 0.831480 -0.035362
v 0.034599 0.834197 -0.028602
v 0.034599 0.831480 -0.028602
v 0.034599 0.834197 -0.028602
v 0.034599 0.831480 -0.028602
v 0.031350 0.831480 -0.035308
v 0.031350 0.834197 -0.035308
v 0.031350 0.834197 -0.035308
v 0.031350 0.831480 -0.035308
v 0.034092 0.831480 -0.030838
v 0.033584 0.834197 -0.033074
v 0.033584 0.831480 -0.033074
v 0.034092 0.831480 -0.030838
v 0.033584 0.834197 -0.033074
v 0.033584 0.831480 -0.033074
vn -0.7071069706500177 0 -0.7071065917230267
vn -0.6483703002964151 0 -0.7613251300814501
vn 0.6483703002964151 0 0.7613251300814501
vn 0.7071069706500177 0 0.7071065917230267
vn 0.9634103641590324 0 -0.2680307262814484
vn 0.9907069685016342 0 -0.1360136116802356
vn -0.9634103641590324 0 0.2680307262814484
vn -0.9907069685016342 0 0.1360136116802356
vn -0.7134383340755894 0 -0.7007180199420073
vn 0.7134383340755894 0 0.7007180199420073
vn 0.9767324660977534 0 0.21446139435945324
vn -0.9767324660977534 0 -0.21446139435945324
vn -0.9073361792768383 0 -0.4204058250967858
vn 0.9073361792768383 0 0.4204058250967858
vn 0.7512937800681498 0 0.659967920455919
vn -0.7512937800681498 0 -0.659967920455919
vn -0.9928496915538154 0 -0.11937122761157236
vn 0.9928496915538154 0 0.11937122761157236
vn 0.26188489862099745 0 0.9650991140158973
vn -0.26188489862099745 0 -0.9650991140158973
vn -0.9925617614792585 0 0.12174214409641101
vn 0.9925617614792585 0 -0.12174214409641101
vn -0.39792048132833857 0 0.9174199096048785
vn 0.39792048132833857 0 -0.9174199096048785
vn -0.9752132320820787 0 0.22126715068447403
vn -0.8755341732500037 0 0.48315619779884056
vn 0.9752132320820787 0 -0.22126715068447403
vn 0.8755341732500037 0 -0.48315619779884056
usemtl material_0_0
f 1//1 2//2 3//1
f 2//2 1//1 4//2
f 5//3 6//4 7//3
f 8//4 7//3 6//4
f 9//5 10//6 11//6
f 10//6 9//5 12//5
f 12//5 9//5 13//5
f 14//7 15//7 16//7
f 16//7 15//7 17//8
f 18//8 17//8 15//7
f 4//2 19//9 2//2
f 19//9 4//2 20//9
f 21//10 5//3 22//10
f 7//3 22//10 5//3
f 11//6 23//11 24//11
f 23//11 11//6 10//6
f 17//8 18//8 25//12
f 26//12 25//12 18//8
f 20//9 27//13 19//9
f 27//13 20//9 28//13
f 29//14 21//10 30//14
f 22//10 30//14 21//10
f 31//15 23//11 32//15
f 23//11 31//15 24//11
f 26//12 33//16 25//12
f 34//16 25//12 33//16
f 28//13 35//17 27//13
f 35//17 28//13 36//17
f 37//18 29//14 38//18
f 30//14 38//18 29//14
f 39//19 32//15 40//19
f 32//15 39//19 31//15
f 33//16 41//20 34//16
f 42//20 34//16 41//20
f 35//17 43//21 44//21
f 43//21 35//17 36//17
f 37//18 38//18 45//22
f 46//22 45//22 38//18
f 47//23 39//19 40//19
f 39//19 47//23 48//23
f 49//24 50//24 41//20
f 42//20 41//20 50//24
f 51//25 52//26 53//26
f 52//26 51//25 43//21
f 43//21 51//25 44//21
f 46//22 54//27 45//22
f 45//22 54//27 55//28
f 56//28 55//28 54//27
f 53//26 48//23 47//23
f 48//23 53//26 52//26
f 55//28 56//28 49//24
f 50//24 49//24 56//28
