# SSTK version 0.8.0
# 168
mtllib original-168.mtl
o #ID1352
v 0.163390 0.824820 -0.002015
v 0.088889 0.824820 -0.088885
v 0.161243 0.824820 -0.016809
v 0.108053 0.824820 -0.063911
v 0.120099 0.824820 -0.034827
v 0.161649 0.824820 0.012726
v 0.124208 0.824820 -0.003617
v 0.156138 0.824820 0.026408
v 0.147930 0.824820 0.037186
v 0.120099 0.824820 0.027593
v 0.108053 0.824820 0.056676
v 0.054580 0.824820 0.137366
v 0.088889 0.824820 0.081651
v 0.063915 0.824820 0.100814
v 0.034831 0.824820 0.112861
v 0.003621 0.824820 0.116970
v 0.041498 0.824820 0.147330
v 0.025560 0.824820 0.153749
v -0.027589 0.824820 0.112861
v 0.008390 0.824820 0.155777
v -0.056672 0.824820 0.100814
v -0.008842 0.824820 0.153276
v -0.081647 0.824820 0.081651
v -0.024963 0.824820 0.146416
v -0.143996 0.824820 0.025638
v -0.134296 0.824820 0.038188
v -0.038188 0.824820 0.136194
v 0.146857 0.824820 -0.041642
v 0.037675 0.824820 -0.154873
v 0.051192 0.824820 -0.144426
v 0.021392 0.824820 -0.161802
v 0.155353 0.824820 -0.030649
v 0.003986 0.824820 -0.164329
v 0.063915 0.824820 -0.108049
v 0.034831 0.824820 -0.120095
v -0.013357 0.824820 -0.162280
v 0.003621 0.824820 -0.124204
v -0.029456 0.824820 -0.155797
v -0.027589 0.824820 -0.120095
v -0.042556 0.824820 -0.145820
v -0.056672 0.824820 -0.108048
v -0.135526 0.824820 -0.050411
v -0.081647 0.824820 -0.088885
v -0.100810 0.824820 -0.063911
v -0.112857 0.824820 -0.034827
v -0.116966 0.824820 -0.003617
v -0.144874 0.824820 -0.038137
v -0.151033 0.824820 -0.022844
v -0.112857 0.824820 0.027593
v -0.152979 0.824820 -0.006367
v -0.100810 0.824820 0.056676
v -0.150579 0.824820 0.010169
v -0.143996 0.824820 0.025638
v -0.081647 0.824820 0.081651
v -0.150579 0.824820 0.010169
v -0.100810 0.824820 0.056676
v -0.152979 0.824820 -0.006367
v -0.112857 0.824820 0.027593
v -0.151033 0.824820 -0.022844
v -0.116966 0.824820 -0.003617
v -0.144874 0.824820 -0.038137
v -0.135526 0.824820 -0.050411
v -0.112857 0.824820 -0.034827
v -0.100810 0.824820 -0.063911
v -0.081647 0.824820 -0.088885
v -0.056672 0.824820 -0.108048
v -0.042556 0.824820 -0.145820
v -0.027589 0.824820 -0.120095
v -0.029456 0.824820 -0.155797
v 0.003621 0.824820 -0.124204
v -0.013357 0.824820 -0.162280
v 0.034831 0.824820 -0.120095
v 0.003986 0.824820 -0.164329
v 0.063915 0.824820 -0.108049
v 0.088889 0.824820 -0.088885
v 0.021392 0.824820 -0.161802
v 0.161243 0.824820 -0.016809
v 0.155353 0.824820 -0.030649
v 0.146857 0.824820 -0.041642
v 0.037675 0.824820 -0.154873
v 0.051192 0.824820 -0.144426
v -0.038188 0.824820 0.136194
v -0.024963 0.824820 0.146416
v -0.134296 0.824820 0.038188
v -0.008842 0.824820 0.153276
v -0.056672 0.824820 0.100814
v 0.008390 0.824820 0.155777
v -0.027589 0.824820 0.112861
v 0.025560 0.824820 0.153749
v 0.003621 0.824820 0.116970
v 0.041498 0.824820 0.147330
v 0.054580 0.824820 0.137366
v 0.034831 0.824820 0.112861
v 0.063915 0.824820 0.100814
v 0.088889 0.824820 0.081651
v 0.108053 0.824820 0.056676
v 0.147930 0.824820 0.037186
v 0.120099 0.824820 0.027593
v 0.124208 0.824820 -0.003617
v 0.156138 0.824820 0.026408
v 0.161649 0.824820 0.012726
v 0.120099 0.824820 -0.034827
v 0.163390 0.824820 -0.002015
v 0.108053 0.824820 -0.063911
vn 0 -1 0
vn 0 1 0
usemtl material_0_0
f 1//1 2//1 3//1
f 2//1 1//1 4//1
f 4//1 1//1 5//1
f 5//1 1//1 6//1
f 5//1 6//1 7//1
f 7//1 6//1 8//1
f 7//1 8//1 9//1
f 7//1 9//1 10//1
f 10//1 9//1 11//1
f 11//1 9//1 12//1
f 11//1 12//1 13//1
f 13//1 12//1 14//1
f 14//1 12//1 15//1
f 15//1 12//1 16//1
f 16//1 12//1 17//1
f 16//1 17//1 18//1
f 16//1 18//1 19//1
f 19//1 18//1 20//1
f 19//1 20//1 21//1
f 21//1 20//1 22//1
f 21//1 22//1 23//1
f 23//1 22//1 24//1
f 23//1 24//1 25//1
f 25//1 24//1 26//1
f 26//1 24//1 27//1
f 28//1 29//1 30//1
f 29//1 28//1 31//1
f 31//1 28//1 32//1
f 31//1 32//1 3//1
f 31//1 3//1 2//1
f 31//1 2//1 33//1
f 33//1 2//1 34//1
f 33//1 34//1 35//1
f 33//1 35//1 36//1
f 36//1 35//1 37//1
f 36//1 37//1 38//1
f 38//1 37//1 39//1
f 38//1 39//1 40//1
f 40//1 39//1 41//1
f 40//1 41//1 42//1
f 42//1 41//1 43//1
f 42//1 43//1 44//1
f 42//1 44//1 45//1
f 42//1 45//1 46//1
f 42//1 46//1 47//1
f 47//1 46//1 48//1
f 48//1 46//1 49//1
f 48//1 49//1 50//1
f 50//1 49//1 51//1
f 50//1 51//1 52//1
f 52//1 51//1 23//1
f 52//1 23//1 25//1
f 53//2 54//2 55//2
f 54//2 56//2 55//2
f 55//2 56//2 57//2
f 56//2 58//2 57//2
f 57//2 58//2 59//2
f 58//2 60//2 59//2
f 59//2 60//2 61//2
f 61//2 60//2 62//2
f 60//2 63//2 62//2
f 63//2 64//2 62//2
f 64//2 65//2 62//2
f 65//2 66//2 62//2
f 62//2 66//2 67//2
f 66//2 68//2 67//2
f 67//2 68//2 69//2
f 68//2 70//2 69//2
f 69//2 70//2 71//2
f 70//2 72//2 71//2
f 71//2 72//2 73//2
f 72//2 74//2 73//2
f 74//2 75//2 73//2
f 73//2 75//2 76//2
f 75//2 77//2 76//2
f 77//2 78//2 76//2
f 78//2 79//2 76//2
f 76//2 79//2 80//2
f 81//2 80//2 79//2
f 82//2 83//2 84//2
f 84//2 83//2 53//2
f 53//2 83//2 54//2
f 83//2 85//2 54//2
f 54//2 85//2 86//2
f 85//2 87//2 86//2
f 86//2 87//2 88//2
f 87//2 89//2 88//2
f 88//2 89//2 90//2
f 89//2 91//2 90//2
f 91//2 92//2 90//2
f 90//2 92//2 93//2
f 93//2 92//2 94//2
f 94//2 92//2 95//2
f 95//2 92//2 96//2
f 92//2 97//2 96//2
f 96//2 97//2 98//2
f 98//2 97//2 99//2
f 97//2 100//2 99//2
f 100//2 101//2 99//2
f 99//2 101//2 102//2
f 101//2 103//2 102//2
f 102//2 103//2 104//2
f 104//2 103//2 75//2
f 77//2 75//2 103//2
