# SSTK version 0.8.0
# 177
mtllib original-177.mtl
o #ID1412
v -0.026610 0.834197 -0.005098
v -0.025648 0.834197 -0.002580
v -0.023549 0.834197 -0.001372
v -0.030199 0.834197 -0.003764
v -0.027651 0.834197 -0.002940
v -0.029558 0.834197 -0.002451
v -0.033601 0.834197 -0.001114
v -0.031367 0.834197 -0.001114
v -0.031582 0.834197 -0.000899
v -0.033603 0.834197 0.001846
v -0.034245 0.834197 -0.000470
v -0.037907 0.834197 0.004975
v -0.034919 0.834197 0.005337
v -0.035531 0.834197 0.009573
v -0.040732 0.834197 0.013148
v -0.035437 0.834197 0.014554
v -0.033136 0.834197 0.026751
v -0.040877 0.834197 0.025895
v -0.028016 0.834197 0.041929
v -0.038992 0.834197 0.036989
v -0.024301 0.834197 0.048995
v -0.020198 0.834197 0.054215
v -0.015301 0.834197 0.059584
v -0.019586 0.834197 0.059412
v -0.035077 0.834197 0.046429
v -0.024193 0.834197 0.057780
v -0.029133 0.834197 0.054214
v -0.018866 0.834197 -0.003821
v -0.013969 0.834197 0.000217
v -0.015301 0.834197 -0.001114
v -0.007808 0.834197 0.008162
v -0.022832 0.834197 -0.005117
v -0.003627 0.834197 0.017690
v -0.022432 0.834197 -0.000255
v -0.017556 0.834197 0.006188
v -0.001429 0.834197 0.028803
v -0.013067 0.834197 0.015381
v -0.008471 0.834197 0.029541
v -0.001211 0.834197 0.041499
v -0.006452 0.834197 0.040919
v -0.003735 0.834197 0.049693
v -0.006409 0.834197 0.045565
v -0.007010 0.834197 0.049516
v -0.007268 0.834197 0.055117
v -0.008256 0.834197 0.052771
v -0.010146 0.834197 0.055331
v -0.007698 0.834197 0.055546
v -0.011338 0.834197 0.058295
v -0.010361 0.834197 0.055546
v -0.012377 0.834197 0.056864
v -0.014689 0.834197 0.057082
v -0.017296 0.834197 0.056199
v -0.020198 0.834197 0.054215
v -0.017296 0.834197 0.056199
v -0.015301 0.834197 0.059584
v -0.014689 0.834197 0.057082
v -0.011338 0.834197 0.058295
v -0.012377 0.834197 0.056864
v -0.010361 0.834197 0.055546
v -0.010146 0.834197 0.055331
v -0.007698 0.834197 0.055546
v -0.007268 0.834197 0.055117
v -0.008256 0.834197 0.052771
v -0.007010 0.834197 0.049516
v -0.003735 0.834197 0.049693
v -0.006409 0.834197 0.045565
v -0.006452 0.834197 0.040919
v -0.001211 0.834197 0.041499
v -0.008471 0.834197 0.029541
v -0.001429 0.834197 0.028803
v -0.013067 0.834197 0.015381
v -0.017556 0.834197 0.006188
v -0.023549 0.834197 -0.001372
v -0.026610 0.834197 -0.005098
v -0.022432 0.834197 -0.000255
v -0.003627 0.834197 0.017690
v -0.022832 0.834197 -0.005117
v -0.007808 0.834197 0.008162
v -0.018866 0.834197 -0.003821
v -0.013969 0.834197 0.000217
v -0.015301 0.834197 -0.001114
v -0.029133 0.834197 0.054214
v -0.035077 0.834197 0.046429
v -0.024193 0.834197 0.057780
v -0.019586 0.834197 0.059412
v -0.038992 0.834197 0.036989
v -0.024301 0.834197 0.048995
v -0.028016 0.834197 0.041929
v -0.040877 0.834197 0.025895
v -0.033136 0.834197 0.026751
v -0.040732 0.834197 0.013148
v -0.035437 0.834197 0.014554
v -0.035531 0.834197 0.009573
v -0.037907 0.834197 0.004975
v -0.034919 0.834197 0.005337
v -0.033603 0.834197 0.001846
v -0.034245 0.834197 -0.000470
v -0.033601 0.834197 -0.001114
v -0.031582 0.834197 -0.000899
v -0.031367 0.834197 -0.001114
v -0.029558 0.834197 -0.002451
v -0.030199 0.834197 -0.003764
v -0.027651 0.834197 -0.002940
v -0.025648 0.834197 -0.002580
v -0.034245 0.834197 -0.000470
v -0.033601 0.831480 -0.001114
v -0.034245 0.831480 -0.000470
v -0.033601 0.834197 -0.001114
v -0.033601 0.834197 -0.001114
v -0.034245 0.834197 -0.000470
v -0.033601 0.831480 -0.001114
v -0.034245 0.831480 -0.000470
v -0.037907 0.834197 0.004975
v -0.037907 0.831480 0.004975
v -0.037907 0.834197 0.004975
v -0.037907 0.831480 0.004975
v -0.040732 0.834197 0.013148
v -0.040732 0.831480 0.013148
v -0.040732 0.834197 0.013148
v -0.040732 0.831480 0.013148
v -0.040877 0.834197 0.025895
v -0.040877 0.831480 0.025895
v -0.040877 0.834197 0.025895
v -0.040877 0.831480 0.025895
v -0.038992 0.831480 0.036989
v -0.038992 0.834197 0.036989
v -0.038992 0.834197 0.036989
v -0.038992 0.831480 0.036989
v -0.035077 0.831480 0.046429
v -0.035077 0.834197 0.046429
v -0.035077 0.834197 0.046429
v -0.035077 0.831480 0.046429
v -0.029133 0.831480 0.054214
v -0.029133 0.834197 0.054214
v -0.029133 0.834197 0.054214
v -0.029133 0.831480 0.054214
v -0.024193 0.831480 0.057780
v -0.024193 0.834197 0.057780
v -0.024193 0.834197 0.057780
v -0.024193 0.831480 0.057780
v -0.019586 0.831480 0.059412
v -0.019586 0.834197 0.059412
v -0.019586 0.834197 0.059412
v -0.019586 0.831480 0.059412
v -0.015301 0.831480 0.059584
v -0.015301 0.834197 0.059584
v -0.015301 0.834197 0.059584
v -0.015301 0.831480 0.059584
v -0.011338 0.834197 0.058295
v -0.011338 0.831480 0.058295
v -0.011338 0.834197 0.058295
v -0.011338 0.831480 0.058295
v -0.007698 0.834197 0.055546
v -0.007698 0.831480 0.055546
v -0.007698 0.834197 0.055546
v -0.007698 0.831480 0.055546
v -0.007268 0.834197 0.055117
v -0.007268 0.831480 0.055117
v -0.007268 0.834197 0.055117
v -0.007268 0.831480 0.055117
v -0.003735 0.834197 0.049693
v -0.003735 0.831480 0.049693
v -0.003735 0.834197 0.049693
v -0.003735 0.831480 0.049693
v -0.001211 0.834197 0.041499
v -0.001211 0.831480 0.041499
v -0.001211 0.834197 0.041499
v -0.001211 0.831480 0.041499
v -0.001429 0.831480 0.028803
v -0.001429 0.834197 0.028803
v -0.001429 0.831480 0.028803
v -0.001429 0.834197 0.028803
v -0.003627 0.831480 0.017690
v -0.003627 0.834197 0.017690
v -0.003627 0.831480 0.017690
v -0.003627 0.834197 0.017690
v -0.007808 0.831480 0.008162
v -0.007808 0.834197 0.008162
v -0.007808 0.831480 0.008162
v -0.007808 0.834197 0.008162
v -0.013969 0.831480 0.000217
v -0.013969 0.834197 0.000217
v -0.013969 0.831480 0.000217
v -0.013969 0.834197 0.000217
v -0.015301 0.831480 -0.001114
v -0.015301 0.834197 -0.001114
v -0.015301 0.831480 -0.001114
v -0.015301 0.834197 -0.001114
v -0.018866 0.831480 -0.003821
v -0.018866 0.834197 -0.003821
v -0.018866 0.831480 -0.003821
v -0.018866 0.834197 -0.003821
v -0.022832 0.831480 -0.005117
v -0.022832 0.834197 -0.005117
v -0.022832 0.831480 -0.005117
v -0.022832 0.834197 -0.005117
v -0.026610 0.834197 -0.005098
v -0.026610 0.831480 -0.005098
v -0.026610 0.834197 -0.005098
v -0.026610 0.831480 -0.005098
v -0.030199 0.834197 -0.003764
v -0.030199 0.831480 -0.003764
v -0.030199 0.834197 -0.003764
v -0.030199 0.831480 -0.003764
vn 0 1 0
vn 0 -1 0
vn -0.7720456773127163 0 -0.6355670477162494
vn -0.6620892889729734 0 -0.7494249618389172
vn 0.6620892889729734 0 0.7494249618389172
vn 0.7720456773127163 0 0.6355670477162494
vn -0.8949766143409863 0 -0.4461130571758076
vn 0.8949766143409863 0 0.4461130571758076
vn -0.9852341664083303 0 -0.1712122581525135
vn 0.9852341664083303 0 0.1712122581525135
vn -0.9969238145752413 0 0.07837670529404606
vn 0.9969238145752413 0 -0.07837670529404606
vn -0.9608644092987084 0 0.2770191093463481
vn 0.9608644092987084 0 -0.2770191093463481
vn -0.866537682940971 0 0.4991116548862521
vn 0.866537682940971 0 -0.4991116548862521
vn -0.6975376637997361 0 0.7165481195152258
vn 0.6975376637997361 0 -0.7165481195152258
vn -0.4642956085924566 0 0.8856802966317814
vn 0.4642956085924566 0 -0.8856802966317814
vn -0.18914838657088542 0 0.9819485158895199
vn 0.18914838657088542 0 -0.9819485158895199
vn 0.136738960453424 0 0.9906071152046693
vn -0.136738960453424 0 -0.9906071152046693
vn 0.46231706519566235 0 0.8867146842298653
vn -0.46231706519566235 0 -0.8867146842298653
vn 0.6564459110915579 0 0.7543730945700372
vn -0.6564459110915579 0 -0.7543730945700372
vn 0.7766865721011016 0 0.6298872666738395
vn -0.7766865721011016 0 -0.6298872666738395
vn 0.905560770082101 0 0.4242165622513014
vn -0.905560770082101 0 -0.4242165622513014
vn 0.9901006777126534 0 0.1403589968364851
vn -0.9901006777126534 0 -0.1403589968364851
vn 0.9943619642370534 0 -0.10603906864278274
vn -0.9943619642370534 0 0.10603906864278274
vn 0.9540298381786417 0 -0.2997116411900522
vn -0.9540298381786417 0 0.2997116411900522
vn 0.8594734763996511 0 -0.5111803432894287
vn -0.8594734763996511 0 0.5111803432894287
vn 0.7501273341048423 0 -0.6612934164414175
vn -0.7501273341048423 0 0.6612934164414175
vn 0.6573738111668272 0 -0.7535646438043657
vn -0.6573738111668272 0 0.7535646438043657
vn 0.46413304253262616 0 -0.88576549878024
vn -0.46413304253262616 0 0.88576549878024
vn 0.15491211673964503 0 -0.9879282545242051
vn -0.15491211673964503 0 0.9879282545242051
vn -0.17945967175463667 0 -0.9837653308659124
vn 0.17945967175463667 0 0.9837653308659124
vn -0.48717632529314775 0 -0.8733036287992082
vn 0.48717632529314775 0 0.8733036287992082
usemtl material_0_0
f 1//1 2//1 3//1
f 2//1 1//1 4//1
f 2//1 4//1 5//1
f 5//1 4//1 6//1
f 6//1 4//1 7//1
f 6//1 7//1 8//1
f 8//1 7//1 9//1
f 9//1 7//1 10//1
f 10//1 7//1 11//1
f 10//1 11//1 12//1
f 10//1 12//1 13//1
f 13//1 12//1 14//1
f 14//1 12//1 15//1
f 14//1 15//1 16//1
f 16//1 15//1 17//1
f 17//1 15//1 18//1
f 17//1 18//1 19//1
f 19//1 18//1 20//1
f 19//1 20//1 21//1
f 21//1 20//1 22//1
f 22//1 20//1 23//1
f 23//1 20//1 24//1
f 24//1 20//1 25//1
f 24//1 25//1 26//1
f 26//1 25//1 27//1
f 28//1 29//1 30//1
f 29//1 28//1 31//1
f 31//1 28//1 32//1
f 31//1 32//1 33//1
f 33//1 32//1 1//1
f 33//1 1//1 34//1
f 33//1 34//1 35//1
f 33//1 35//1 36//1
f 34//1 1//1 3//1
f 36//1 35//1 37//1
f 36//1 37//1 38//1
f 36//1 38//1 39//1
f 39//1 38//1 40//1
f 39//1 40//1 41//1
f 41//1 40//1 42//1
f 41//1 42//1 43//1
f 41//1 43//1 44//1
f 44//1 43//1 45//1
f 44//1 45//1 46//1
f 44//1 46//1 47//1
f 47//1 46//1 48//1
f 48//1 46//1 49//1
f 48//1 49//1 50//1
f 48//1 50//1 51//1
f 48//1 51//1 23//1
f 23//1 51//1 52//1
f 23//1 52//1 22//1
f 53//2 54//2 55//2
f 54//2 56//2 55//2
f 55//2 56//2 57//2
f 56//2 58//2 57//2
f 58//2 59//2 57//2
f 59//2 60//2 57//2
f 57//2 60//2 61//2
f 61//2 60//2 62//2
f 60//2 63//2 62//2
f 63//2 64//2 62//2
f 62//2 64//2 65//2
f 64//2 66//2 65//2
f 66//2 67//2 65//2
f 65//2 67//2 68//2
f 67//2 69//2 68//2
f 68//2 69//2 70//2
f 69//2 71//2 70//2
f 71//2 72//2 70//2
f 73//2 74//2 75//2
f 70//2 72//2 76//2
f 72//2 75//2 76//2
f 75//2 74//2 76//2
f 74//2 77//2 76//2
f 76//2 77//2 78//2
f 77//2 79//2 78//2
f 78//2 79//2 80//2
f 81//2 80//2 79//2
f 82//2 83//2 84//2
f 84//2 83//2 85//2
f 83//2 86//2 85//2
f 85//2 86//2 55//2
f 55//2 86//2 53//2
f 53//2 86//2 87//2
f 87//2 86//2 88//2
f 86//2 89//2 88//2
f 88//2 89//2 90//2
f 89//2 91//2 90//2
f 90//2 91//2 92//2
f 92//2 91//2 93//2
f 91//2 94//2 93//2
f 93//2 94//2 95//2
f 95//2 94//2 96//2
f 94//2 97//2 96//2
f 97//2 98//2 96//2
f 96//2 98//2 99//2
f 99//2 98//2 100//2
f 100//2 98//2 101//2
f 98//2 102//2 101//2
f 101//2 102//2 103//2
f 103//2 102//2 104//2
f 102//2 74//2 104//2
f 73//2 104//2 74//2
f 105//3 106//4 107//3
f 106//4 105//3 108//4
f 109//5 110//6 111//5
f 112//6 111//5 110//6
f 113//7 107//3 114//7
f 107//3 113//7 105//3
f 110//6 115//8 112//6
f 116//8 112//6 115//8
f 117//9 114//7 118//9
f 114//7 117//9 113//7
f 115//8 119//10 116//8
f 120//10 116//8 119//10
f 121//11 118//9 122//11
f 118//9 121//11 117//9
f 119//10 123//12 120//10
f 124//12 120//10 123//12
f 125//13 121//11 122//11
f 121//11 125//13 126//13
f 127//14 128//14 123//12
f 124//12 123//12 128//14
f 129//15 126//13 125//13
f 126//13 129//15 130//15
f 131//16 132//16 127//14
f 128//14 127//14 132//16
f 133//17 130//15 129//15
f 130//15 133//17 134//17
f 135//18 136//18 131//16
f 132//16 131//16 136//18
f 137//19 134//17 133//17
f 134//17 137//19 138//19
f 139//20 140//20 135//18
f 136//18 135//18 140//20
f 141//21 138//19 137//19
f 138//19 141//21 142//21
f 143//22 144//22 139//20
f 140//20 139//20 144//22
f 145//23 142//21 141//21
f 142//21 145//23 146//23
f 147//24 148//24 143//22
f 144//22 143//22 148//24
f 149//25 145//23 150//25
f 145//23 149//25 146//23
f 147//24 151//26 148//24
f 152//26 148//24 151//26
f 153//27 150//25 154//27
f 150//25 153//27 149//25
f 151//26 155//28 152//26
f 156//28 152//26 155//28
f 157//29 154//27 158//29
f 154//27 157//29 153//27
f 155//28 159//30 156//28
f 160//30 156//28 159//30
f 161//31 158//29 162//31
f 158//29 161//31 157//29
f 159//30 163//32 160//30
f 164//32 160//30 163//32
f 165//33 162//31 166//33
f 162//31 165//33 161//31
f 163//32 167//34 164//32
f 168//34 164//32 167//34
f 165//33 169//35 170//35
f 169//35 165//33 166//33
f 168//34 167//34 171//36
f 172//36 171//36 167//34
f 170//35 173//37 174//37
f 173//37 170//35 169//35
f 171//36 172//36 175//38
f 176//38 175//38 172//36
f 174//37 177//39 178//39
f 177//39 174//37 173//37
f 175//38 176//38 179//40
f 180//40 179//40 176//38
f 178//39 181//41 182//41
f 181//41 178//39 177//39
f 179//40 180//40 183//42
f 184//42 183//42 180//40
f 182//41 185//43 186//43
f 185//43 182//41 181//41
f 183//42 184//42 187//44
f 188//44 187//44 184//42
f 186//43 189//45 190//45
f 189//45 186//43 185//43
f 187//44 188//44 191//46
f 192//46 191//46 188//44
f 190//45 193//47 194//47
f 193//47 190//45 189//45
f 191//46 192//46 195//48
f 196//48 195//48 192//46
f 197//49 193//47 198//49
f 193//47 197//49 194//47
f 196//48 199//50 195//48
f 200//50 195//48 199//50
f 201//51 198//49 202//51
f 198//49 201//51 197//49
f 199//50 203//52 200//50
f 204//52 200//50 203//52
f 108//4 202//51 106//4
f 202//51 108//4 201//51
f 203//52 109//5 204//52
f 111//5 204//52 109//5
