# SSTK version 0.8.0
# 172
mtllib original-172.mtl
o #ID1378
v 0.082113 0.739569 -0.082109
v 0.059123 0.824820 -0.099749
v 0.059123 0.739569 -0.099749
v 0.082113 0.824820 -0.082109
v 0.082113 0.824820 -0.082109
v 0.082113 0.739569 -0.082109
v 0.059123 0.824820 -0.099749
v 0.059123 0.739569 -0.099749
v 0.099753 0.739569 -0.059119
v 0.099753 0.824820 -0.059119
v 0.099753 0.824820 -0.059119
v 0.099753 0.739569 -0.059119
v 0.099753 0.824820 -0.059119
v 0.059123 0.824820 -0.099749
v 0.082113 0.824820 -0.082109
v 0.110843 0.824820 -0.032347
v 0.032351 0.824820 -0.110839
v 0.114625 0.824820 -0.003617
v 0.003621 0.824820 -0.114621
v 0.110843 0.824820 0.025113
v -0.025109 0.824820 -0.110839
v 0.099753 0.824820 0.051885
v -0.051881 0.824820 -0.099749
v 0.082113 0.824820 0.074874
v -0.074870 0.824820 -0.082109
v 0.059123 0.824820 0.092515
v -0.092511 0.824820 -0.059119
v 0.032351 0.824820 0.103604
v -0.103600 0.824820 -0.032347
v 0.003621 0.824820 0.107387
v -0.107383 0.824820 -0.003617
v -0.103600 0.824820 0.025113
v -0.025109 0.824820 0.103604
v -0.051881 0.824820 0.092515
v -0.092511 0.824820 0.051885
v -0.074870 0.824820 0.074874
v -0.074870 0.824820 0.074874
v -0.051881 0.824820 0.092515
v -0.092511 0.824820 0.051885
v -0.103600 0.824820 0.025113
v -0.025109 0.824820 0.103604
v 0.003621 0.824820 0.107387
v -0.107383 0.824820 -0.003617
v -0.103600 0.824820 -0.032347
v 0.032351 0.824820 0.103604
v -0.092511 0.824820 -0.059119
v 0.059123 0.824820 0.092515
v -0.074870 0.824820 -0.082109
v 0.082113 0.824820 0.074874
v -0.051881 0.824820 -0.099749
v 0.099753 0.824820 0.051885
v -0.025109 0.824820 -0.110839
v 0.110843 0.824820 0.025113
v 0.003621 0.824820 -0.114621
v 0.114625 0.824820 -0.003617
v 0.032351 0.824820 -0.110839
v 0.110843 0.824820 -0.032347
v 0.059123 0.824820 -0.099749
v 0.099753 0.824820 -0.059119
v 0.082113 0.824820 -0.082109
v 0.032351 0.824820 -0.110839
v 0.032351 0.739569 -0.110839
v 0.032351 0.824820 -0.110839
v 0.032351 0.739569 -0.110839
v 0.110843 0.739569 -0.032347
v 0.110843 0.824820 -0.032347
v 0.110843 0.824820 -0.032347
v 0.110843 0.739569 -0.032347
v 0.114625 0.739569 -0.003617
v 0.114625 0.824820 -0.003617
v 0.114625 0.824820 -0.003617
v 0.114625 0.739569 -0.003617
v 0.110843 0.824820 0.025113
v 0.110843 0.739569 0.025113
v 0.110843 0.824820 0.025113
v 0.110843 0.739569 0.025113
v 0.099753 0.824820 0.051885
v 0.099753 0.739569 0.051885
v 0.099753 0.824820 0.051885
v 0.099753 0.739569 0.051885
v 0.082113 0.824820 0.074874
v 0.082113 0.739569 0.074874
v 0.082113 0.824820 0.074874
v 0.082113 0.739569 0.074874
v 0.059123 0.824820 0.092515
v 0.059123 0.739569 0.092515
v 0.059123 0.824820 0.092515
v 0.059123 0.739569 0.092515
v 0.032351 0.824820 0.103604
v 0.032351 0.739569 0.103604
v 0.032351 0.824820 0.103604
v 0.032351 0.739569 0.103604
v 0.003621 0.824820 0.107387
v 0.003621 0.739569 0.107387
v 0.003621 0.824820 0.107387
v 0.003621 0.739569 0.107387
v -0.025109 0.739569 0.103604
v -0.025109 0.824820 0.103604
v -0.025109 0.739569 0.103604
v -0.025109 0.824820 0.103604
v -0.051881 0.739569 0.092515
v -0.051881 0.824820 0.092515
v -0.051881 0.739569 0.092515
v -0.051881 0.824820 0.092515
v -0.074870 0.739569 0.074874
v -0.074870 0.824820 0.074874
v -0.074870 0.739569 0.074874
v -0.074870 0.824820 0.074874
v -0.092511 0.739569 0.051885
v -0.092511 0.824820 0.051885
v -0.092511 0.739569 0.051885
v -0.092511 0.824820 0.051885
v -0.103600 0.739569 0.025113
v -0.103600 0.824820 0.025113
v -0.103600 0.739569 0.025113
v -0.103600 0.824820 0.025113
v -0.107383 0.739569 -0.003617
v -0.107383 0.824820 -0.003617
v -0.107383 0.739569 -0.003617
v -0.107383 0.824820 -0.003617
v -0.103600 0.824820 -0.032347
v -0.103600 0.739569 -0.032347
v -0.103600 0.824820 -0.032347
v -0.103600 0.739569 -0.032347
v -0.092511 0.824820 -0.059119
v -0.092511 0.739569 -0.059119
v -0.092511 0.824820 -0.059119
v -0.092511 0.739569 -0.059119
v -0.074870 0.824820 -0.082109
v -0.074870 0.739569 -0.082109
v -0.074870 0.824820 -0.082109
v -0.074870 0.739569 -0.082109
v -0.051881 0.824820 -0.099749
v -0.051881 0.739569 -0.099749
v -0.051881 0.824820 -0.099749
v -0.051881 0.739569 -0.099749
v -0.025109 0.824820 -0.110839
v -0.025109 0.739569 -0.110839
v -0.025109 0.824820 -0.110839
v -0.025109 0.739569 -0.110839
v 0.003621 0.824820 -0.114621
v 0.003621 0.739569 -0.114621
v 0.003621 0.824820 -0.114621
v 0.003621 0.739569 -0.114621
vn -0.7071065811865246 0 0.7071069811865137
vn -0.4999997868874788 0 0.8660255268249752
vn 0.7071065811865246 0 -0.7071069811865137
vn 0.4999997868874788 0 -0.8660255268249752
vn -0.8660252439822522 0 0.5000002767854038
vn 0.8660252439822522 0 -0.5000002767854038
vn 0 -1 0
vn 0 1 0
vn -0.2588187700696932 0 0.9659258999838505
vn 0.2588187700696932 0 -0.9659258999838505
vn -0.9659257535736938 0 0.25881931647984047
vn 0.9659257535736938 0 -0.25881931647984047
vn -1 0 2.828427049239693e-7
vn 1 0 -2.828427049239693e-7
vn -0.9659258999838505 0 -0.2588187700696932
vn 0.9659258999838505 0 0.2588187700696932
vn -0.8660255268249752 0 -0.4999997868874788
vn 0.8660255268249752 0 0.4999997868874788
vn -0.707106981186514 0 -0.7071065811865243
vn 0.707106981186514 0 0.7071065811865243
vn -0.5000002767854038 0 -0.8660252439822522
vn 0.5000002767854038 0 0.8660252439822522
vn -0.25881931647984047 0 -0.9659257535736938
vn 0.25881931647984047 0 0.9659257535736938
vn -2.828427049239693e-7 0 -1
vn 2.828427049239693e-7 0 1
usemtl material_0_0
f 1//1 2//2 3//2
f 2//2 1//1 4//1
f 5//3 6//3 7//4
f 8//4 7//4 6//3
f 9//5 4//1 1//1
f 4//1 9//5 10//5
f 11//6 12//6 5//3
f 6//3 5//3 12//6
f 13//7 14//7 15//7
f 14//7 13//7 16//7
f 14//7 16//7 17//7
f 17//7 16//7 18//7
f 17//7 18//7 19//7
f 19//7 18//7 20//7
f 19//7 20//7 21//7
f 21//7 20//7 22//7
f 21//7 22//7 23//7
f 23//7 22//7 24//7
f 23//7 24//7 25//7
f 25//7 24//7 26//7
f 25//7 26//7 27//7
f 27//7 26//7 28//7
f 27//7 28//7 29//7
f 29//7 28//7 30//7
f 29//7 30//7 31//7
f 31//7 30//7 32//7
f 32//7 30//7 33//7
f 32//7 33//7 34//7
f 32//7 34//7 35//7
f 35//7 34//7 36//7
f 37//8 38//8 39//8
f 39//8 38//8 40//8
f 38//8 41//8 40//8
f 41//8 42//8 40//8
f 40//8 42//8 43//8
f 43//8 42//8 44//8
f 42//8 45//8 44//8
f 44//8 45//8 46//8
f 45//8 47//8 46//8
f 46//8 47//8 48//8
f 47//8 49//8 48//8
f 48//8 49//8 50//8
f 49//8 51//8 50//8
f 50//8 51//8 52//8
f 51//8 53//8 52//8
f 52//8 53//8 54//8
f 53//8 55//8 54//8
f 54//8 55//8 56//8
f 55//8 57//8 56//8
f 56//8 57//8 58//8
f 57//8 59//8 58//8
f 60//8 58//8 59//8
f 3//2 61//9 62//9
f 61//9 3//2 2//2
f 7//4 8//4 63//10
f 64//10 63//10 8//4
f 65//11 10//5 9//5
f 10//5 65//11 66//11
f 67//12 68//12 11//6
f 12//6 11//6 68//12
f 69//13 66//11 65//11
f 66//11 69//13 70//13
f 71//14 72//14 67//12
f 68//12 67//12 72//14
f 73//15 69//13 74//15
f 69//13 73//15 70//13
f 71//14 75//16 72//14
f 76//16 72//14 75//16
f 77//17 74//15 78//17
f 74//15 77//17 73//15
f 75//16 79//18 76//16
f 80//18 76//16 79//18
f 81//19 78//17 82//19
f 78//17 81//19 77//17
f 79//18 83//20 80//18
f 84//20 80//18 83//20
f 85//21 82//19 86//21
f 82//19 85//21 81//19
f 83//20 87//22 84//20
f 88//22 84//20 87//22
f 89//23 86//21 90//23
f 86//21 89//23 85//21
f 87//22 91//24 88//22
f 92//24 88//22 91//24
f 93//25 90//23 94//25
f 90//23 93//25 89//23
f 91//24 95//26 92//24
f 96//26 92//24 95//26
f 93//25 97//10 98//10
f 97//10 93//25 94//25
f 96//26 95//26 99//9
f 100//9 99//9 95//26
f 98//10 101//4 102//4
f 101//4 98//10 97//10
f 99//9 100//9 103//2
f 104//2 103//2 100//9
f 102//4 105//3 106//3
f 105//3 102//4 101//4
f 103//2 104//2 107//1
f 108//1 107//1 104//2
f 106//3 109//6 110//6
f 109//6 106//3 105//3
f 107//1 108//1 111//5
f 112//5 111//5 108//1
f 110//6 113//12 114//12
f 113//12 110//6 109//6
f 111//5 112//5 115//11
f 116//11 115//11 112//5
f 114//12 117//14 118//14
f 117//14 114//12 113//12
f 115//11 116//11 119//13
f 120//13 119//13 116//11
f 121//16 117//14 122//16
f 117//14 121//16 118//14
f 120//13 123//15 119//13
f 124//15 119//13 123//15
f 125//18 122//16 126//18
f 122//16 125//18 121//16
f 123//15 127//17 124//15
f 128//17 124//15 127//17
f 129//20 126//18 130//20
f 126//18 129//20 125//18
f 127//17 131//19 128//17
f 132//19 128//17 131//19
f 133//22 130//20 134//22
f 130//20 133//22 129//20
f 131//19 135//21 132//19
f 136//21 132//19 135//21
f 137//24 134//22 138//24
f 134//22 137//24 133//22
f 135//21 139//23 136//21
f 140//23 136//21 139//23
f 141//26 138//24 142//26
f 138//24 141//26 137//24
f 139//23 143//25 140//23
f 144//25 140//23 143//25
f 62//9 141//26 142//26
f 141//26 62//9 61//9
f 63//10 64//10 143//25
f 144//25 143//25 64//10
