# SSTK version 0.8.0
# 166
mtllib original-166.mtl
o #ID1338
v -0.116966 0.784858 -0.003617
v -0.112857 0.765322 -0.034827
v -0.116966 0.765322 -0.003617
v -0.112857 0.784858 -0.034827
v -0.112857 0.784858 -0.034827
v -0.116966 0.784858 -0.003617
v -0.112857 0.765322 -0.034827
v -0.116966 0.765322 -0.003617
v -0.100810 0.765322 -0.063911
v -0.100810 0.784858 -0.063911
v -0.100810 0.784858 -0.063911
v -0.100810 0.765322 -0.063911
v -0.116966 0.765322 -0.003617
v -0.112857 0.739569 -0.034827
v -0.116966 0.739569 -0.003617
v -0.112857 0.765322 -0.034827
v -0.112857 0.765322 -0.034827
v -0.116966 0.765322 -0.003617
v -0.112857 0.739569 -0.034827
v -0.116966 0.739569 -0.003617
v -0.112857 0.765322 0.027593
v -0.112857 0.784858 0.027593
v -0.112857 0.784858 0.027593
v -0.112857 0.765322 0.027593
v -0.081647 0.765322 -0.088885
v -0.081647 0.784858 -0.088885
v -0.081647 0.784858 -0.088885
v -0.081647 0.765322 -0.088885
v -0.100810 0.739569 -0.063911
v -0.100810 0.765322 -0.063911
v -0.100810 0.765322 -0.063911
v -0.100810 0.739569 -0.063911
v 0.120099 0.739569 -0.034827
v 0.082113 0.739569 -0.082109
v 0.108053 0.739569 -0.063911
v 0.099753 0.739569 -0.059119
v 0.110843 0.739569 -0.032347
v 0.124208 0.739569 -0.003617
v 0.114625 0.739569 -0.003617
v 0.120099 0.739569 0.027593
v 0.110843 0.739569 0.025113
v 0.108053 0.739569 0.056676
v 0.099753 0.739569 0.051885
v 0.088889 0.739569 0.081651
v 0.082113 0.739569 0.074874
v 0.059123 0.739569 0.092515
v 0.063915 0.739569 0.100814
v 0.032351 0.739569 0.103604
v 0.034831 0.739569 0.112861
v 0.003621 0.739569 0.107387
v 0.003621 0.739569 0.116970
v -0.025109 0.739569 0.103604
v -0.027589 0.739569 0.112861
v -0.051881 0.739569 0.092515
v -0.056672 0.739569 0.100814
v -0.074870 0.739569 0.074874
v 0.063915 0.739569 -0.108049
v 0.088889 0.739569 -0.088885
v 0.034831 0.739569 -0.120095
v 0.059123 0.739569 -0.099749
v 0.032351 0.739569 -0.110839
v 0.003621 0.739569 -0.124204
v 0.003621 0.739569 -0.114621
v -0.027589 0.739569 -0.120095
v -0.025109 0.739569 -0.110839
v -0.056672 0.739569 -0.108048
v -0.051881 0.739569 -0.099749
v -0.081647 0.739569 -0.088885
v -0.074870 0.739569 -0.082109
v -0.100810 0.739569 -0.063911
v -0.092511 0.739569 -0.059119
v -0.103600 0.739569 -0.032347
v -0.112857 0.739569 -0.034827
v -0.107383 0.739569 -0.003617
v -0.116966 0.739569 -0.003617
v -0.103600 0.739569 0.025113
v -0.112857 0.739569 0.027593
v -0.092511 0.739569 0.051885
v -0.100810 0.739569 0.056676
v -0.081647 0.739569 0.081651
v -0.081647 0.739569 0.081651
v -0.056672 0.739569 0.100814
v -0.100810 0.739569 0.056676
v -0.074870 0.739569 0.074874
v -0.092511 0.739569 0.051885
v -0.112857 0.739569 0.027593
v -0.103600 0.739569 0.025113
v -0.116966 0.739569 -0.003617
v -0.107383 0.739569 -0.003617
v -0.112857 0.739569 -0.034827
v -0.103600 0.739569 -0.032347
v -0.100810 0.739569 -0.063911
v -0.092511 0.739569 -0.059119
v -0.074870 0.739569 -0.082109
v -0.081647 0.739569 -0.088885
v -0.051881 0.739569 -0.099749
v -0.056672 0.739569 -0.108048
v -0.025109 0.739569 -0.110839
v -0.027589 0.739569 -0.120095
v 0.003621 0.739569 -0.114621
v 0.003621 0.739569 -0.124204
v 0.032351 0.739569 -0.110839
v 0.034831 0.739569 -0.120095
v 0.059123 0.739569 -0.099749
v 0.082113 0.739569 -0.082109
v 0.108053 0.739569 -0.063911
v 0.063915 0.739569 -0.108049
v 0.088889 0.739569 -0.088885
v -0.051881 0.739569 0.092515
v -0.027589 0.739569 0.112861
v -0.025109 0.739569 0.103604
v 0.003621 0.739569 0.116970
v 0.003621 0.739569 0.107387
v 0.034831 0.739569 0.112861
v 0.032351 0.739569 0.103604
v 0.063915 0.739569 0.100814
v 0.059123 0.739569 0.092515
v 0.088889 0.739569 0.081651
v 0.082113 0.739569 0.074874
v 0.099753 0.739569 0.051885
v 0.108053 0.739569 0.056676
v 0.110843 0.739569 0.025113
v 0.120099 0.739569 0.027593
v 0.114625 0.739569 -0.003617
v 0.124208 0.739569 -0.003617
v 0.110843 0.739569 -0.032347
v 0.120099 0.739569 -0.034827
v 0.099753 0.739569 -0.059119
v -0.112857 0.739569 0.027593
v -0.112857 0.765322 0.027593
v -0.112857 0.765322 0.027593
v -0.112857 0.739569 0.027593
v -0.100810 0.765322 0.056676
v -0.100810 0.784858 0.056676
v -0.100810 0.784858 0.056676
v -0.100810 0.765322 0.056676
v -0.056672 0.765322 -0.108048
v -0.056672 0.784858 -0.108048
v -0.056672 0.784858 -0.108048
v -0.056672 0.765322 -0.108048
v -0.081647 0.739569 -0.088885
v -0.081647 0.765322 -0.088885
v -0.081647 0.765322 -0.088885
v -0.081647 0.739569 -0.088885
v 0.108053 0.765322 -0.063911
v 0.088889 0.739569 -0.088885
v 0.088889 0.765322 -0.088885
v 0.108053 0.739569 -0.063911
v 0.108053 0.739569 -0.063911
v 0.108053 0.765322 -0.063911
v 0.088889 0.739569 -0.088885
v 0.088889 0.765322 -0.088885
v 0.120099 0.765322 -0.034827
v 0.120099 0.739569 -0.034827
v 0.120099 0.739569 -0.034827
v 0.120099 0.765322 -0.034827
v 0.124208 0.765322 -0.003617
v 0.124208 0.739569 -0.003617
v 0.124208 0.739569 -0.003617
v 0.124208 0.765322 -0.003617
v 0.120099 0.739569 0.027593
v 0.120099 0.765322 0.027593
v 0.120099 0.765322 0.027593
v 0.120099 0.739569 0.027593
v 0.108053 0.739569 0.056676
v 0.108053 0.765322 0.056676
v 0.108053 0.765322 0.056676
v 0.108053 0.739569 0.056676
v 0.088889 0.739569 0.081651
v 0.088889 0.765322 0.081651
v 0.088889 0.765322 0.081651
v 0.088889 0.739569 0.081651
v 0.063915 0.739569 0.100814
v 0.063915 0.765322 0.100814
v 0.063915 0.765322 0.100814
v 0.063915 0.739569 0.100814
v 0.034831 0.739569 0.112861
v 0.034831 0.765322 0.112861
v 0.034831 0.765322 0.112861
v 0.034831 0.739569 0.112861
v 0.003621 0.739569 0.116970
v 0.003621 0.765322 0.116970
v 0.003621 0.765322 0.116970
v 0.003621 0.739569 0.116970
v -0.027589 0.765322 0.112861
v -0.027589 0.739569 0.112861
v -0.027589 0.765322 0.112861
v -0.027589 0.739569 0.112861
v -0.056672 0.765322 0.100814
v -0.056672 0.739569 0.100814
v -0.056672 0.765322 0.100814
v -0.056672 0.739569 0.100814
v -0.081647 0.765322 0.081651
v -0.081647 0.739569 0.081651
v -0.081647 0.765322 0.081651
v -0.081647 0.739569 0.081651
v -0.100810 0.765322 0.056676
v -0.100810 0.739569 0.056676
v -0.100810 0.765322 0.056676
v -0.100810 0.739569 0.056676
v -0.056672 0.739569 -0.108048
v -0.056672 0.765322 -0.108048
v -0.056672 0.765322 -0.108048
v -0.056672 0.739569 -0.108048
v -0.027589 0.739569 -0.120095
v -0.027589 0.765322 -0.120095
v -0.027589 0.765322 -0.120095
v -0.027589 0.739569 -0.120095
v 0.003621 0.739569 -0.124204
v 0.003621 0.765322 -0.124204
v 0.003621 0.765322 -0.124204
v 0.003621 0.739569 -0.124204
v 0.034831 0.765322 -0.120095
v 0.034831 0.739569 -0.120095
v 0.034831 0.739569 -0.120095
v 0.034831 0.765322 -0.120095
v 0.063915 0.765322 -0.108049
v 0.063915 0.739569 -0.108049
v 0.063915 0.739569 -0.108049
v 0.063915 0.765322 -0.108049
v -0.081647 0.765322 0.081651
v -0.081647 0.784858 0.081651
v -0.081647 0.784858 0.081651
v -0.081647 0.765322 0.081651
v -0.027589 0.765322 -0.120095
v -0.027589 0.784858 -0.120095
v -0.027589 0.784858 -0.120095
v -0.027589 0.765322 -0.120095
v 0.108053 0.784858 -0.063911
v 0.088889 0.765322 -0.088885
v 0.088889 0.784858 -0.088885
v 0.108053 0.765322 -0.063911
v 0.108053 0.765322 -0.063911
v 0.108053 0.784858 -0.063911
v 0.088889 0.765322 -0.088885
v 0.088889 0.784858 -0.088885
v 0.120099 0.784858 -0.034827
v 0.120099 0.765322 -0.034827
v 0.120099 0.765322 -0.034827
v 0.120099 0.784858 -0.034827
v 0.124208 0.784858 -0.003617
v 0.124208 0.765322 -0.003617
v 0.124208 0.765322 -0.003617
v 0.124208 0.784858 -0.003617
v 0.120099 0.765322 0.027593
v 0.120099 0.784858 0.027593
v 0.120099 0.784858 0.027593
v 0.120099 0.765322 0.027593
v 0.108053 0.765322 0.056676
v 0.108053 0.784858 0.056676
v 0.108053 0.784858 0.056676
v 0.108053 0.765322 0.056676
v 0.088889 0.765322 0.081651
v 0.088889 0.784858 0.081651
v 0.088889 0.784858 0.081651
v 0.088889 0.765322 0.081651
v 0.063915 0.765322 0.100814
v 0.063915 0.784858 0.100814
v 0.063915 0.784858 0.100814
v 0.063915 0.765322 0.100814
v 0.034831 0.765322 0.112861
v 0.034831 0.784858 0.112861
v 0.034831 0.784858 0.112861
v 0.034831 0.765322 0.112861
v 0.003621 0.765322 0.116970
v 0.003621 0.784858 0.116970
v 0.003621 0.784858 0.116970
v 0.003621 0.765322 0.116970
v -0.027589 0.784858 0.112861
v -0.027589 0.765322 0.112861
v -0.027589 0.784858 0.112861
v -0.027589 0.765322 0.112861
v -0.056672 0.784858 0.100814
v -0.056672 0.765322 0.100814
v -0.056672 0.784858 0.100814
v -0.056672 0.765322 0.100814
v 0.003621 0.765322 -0.124204
v 0.003621 0.784858 -0.124204
v 0.003621 0.784858 -0.124204
v 0.003621 0.765322 -0.124204
v 0.034831 0.784858 -0.120095
v 0.034831 0.765322 -0.120095
v 0.034831 0.765322 -0.120095
v 0.034831 0.784858 -0.120095
v 0.063915 0.784858 -0.108049
v 0.063915 0.765322 -0.108049
v 0.063915 0.765322 -0.108049
v 0.063915 0.784858 -0.108049
vn -1 0 2.828427049239693e-7
vn -0.9659258999838505 0 -0.2588187700696932
vn 0.9659258999838505 0 0.2588187700696932
vn 1 0 -2.828427049239693e-7
vn -0.8660255268249752 0 -0.4999997868874788
vn 0.8660255268249752 0 0.4999997868874788
vn -0.9659257535736938 0 0.25881931647984047
vn 0.9659257535736938 0 -0.25881931647984047
vn -0.7071069811865146 0 -0.7071065811865241
vn 0.7071069811865146 0 0.7071065811865241
vn 0 -1 0
vn 0 1 0
vn -0.8660252439822522 0 0.5000002767854038
vn 0.8660252439822522 0 -0.5000002767854038
vn -0.5000002767854038 0 -0.8660252439822522
vn 0.5000002767854038 0 0.8660252439822522
vn 0.7071065811865229 0 -0.7071069811865154
vn -0.7071065811865229 0 0.7071069811865154
vn 0.7071069811865135 0 0.7071065811865248
vn -0.7071069811865135 0 -0.7071065811865248
vn 0.25881931647984047 0 0.9659257535736938
vn -0.25881931647984047 0 -0.9659257535736938
vn 2.828427049239693e-7 0 1
vn -2.828427049239693e-7 0 -1
vn -0.2588187700696932 0 0.9659258999838505
vn 0.2588187700696932 0 -0.9659258999838505
vn -0.4999997868874788 0 0.8660255268249752
vn 0.4999997868874788 0 -0.8660255268249752
vn -0.7071065811865247 0 0.707106981186514
vn 0.7071065811865247 0 -0.707106981186514
usemtl material_0_0
f 1//1 2//2 3//1
f 2//2 1//1 4//2
f 5//3 6//4 7//3
f 8//4 7//3 6//4
f 4//2 9//5 2//2
f 9//5 4//2 10//5
f 11//6 5//3 12//6
f 7//3 12//6 5//3
f 13//1 14//2 15//1
f 14//2 13//1 16//2
f 17//3 18//4 19//3
f 20//4 19//3 18//4
f 21//7 1//1 3//1
f 1//1 21//7 22//7
f 23//8 24//8 6//4
f 8//4 6//4 24//8
f 10//5 25//9 9//5
f 25//9 10//5 26//9
f 27//10 11//6 28//10
f 12//6 28//10 11//6
f 16//2 29//5 14//2
f 29//5 16//2 30//5
f 31//6 17//3 32//6
f 19//3 32//6 17//3
f 33//11 34//11 35//11
f 34//11 33//11 36//11
f 36//11 33//11 37//11
f 37//11 33//11 38//11
f 37//11 38//11 39//11
f 39//11 38//11 40//11
f 39//11 40//11 41//11
f 41//11 40//11 42//11
f 41//11 42//11 43//11
f 43//11 42//11 44//11
f 43//11 44//11 45//11
f 45//11 44//11 46//11
f 46//11 44//11 47//11
f 46//11 47//11 48//11
f 48//11 47//11 49//11
f 48//11 49//11 50//11
f 50//11 49//11 51//11
f 50//11 51//11 52//11
f 52//11 51//11 53//11
f 52//11 53//11 54//11
f 54//11 53//11 55//11
f 54//11 55//11 56//11
f 35//11 57//11 58//11
f 57//11 35//11 59//11
f 59//11 35//11 34//11
f 59//11 34//11 60//11
f 59//11 60//11 61//11
f 59//11 61//11 62//11
f 62//11 61//11 63//11
f 62//11 63//11 64//11
f 64//11 63//11 65//11
f 64//11 65//11 66//11
f 66//11 65//11 67//11
f 66//11 67//11 68//11
f 68//11 67//11 69//11
f 68//11 69//11 70//11
f 70//11 69//11 71//11
f 70//11 71//11 72//11
f 70//11 72//11 73//11
f 73//11 72//11 74//11
f 73//11 74//11 75//11
f 75//11 74//11 76//11
f 75//11 76//11 77//11
f 77//11 76//11 78//11
f 77//11 78//11 79//11
f 79//11 78//11 56//11
f 79//11 56//11 55//11
f 79//11 55//11 80//11
f 81//12 82//12 83//12
f 82//12 84//12 83//12
f 84//12 85//12 83//12
f 83//12 85//12 86//12
f 85//12 87//12 86//12
f 86//12 87//12 88//12
f 87//12 89//12 88//12
f 88//12 89//12 90//12
f 89//12 91//12 90//12
f 90//12 91//12 92//12
f 91//12 93//12 92//12
f 93//12 94//12 92//12
f 92//12 94//12 95//12
f 94//12 96//12 95//12
f 95//12 96//12 97//12
f 96//12 98//12 97//12
f 97//12 98//12 99//12
f 98//12 100//12 99//12
f 99//12 100//12 101//12
f 100//12 102//12 101//12
f 101//12 102//12 103//12
f 102//12 104//12 103//12
f 104//12 105//12 103//12
f 105//12 106//12 103//12
f 103//12 106//12 107//12
f 108//12 107//12 106//12
f 84//12 82//12 109//12
f 82//12 110//12 109//12
f 109//12 110//12 111//12
f 110//12 112//12 111//12
f 111//12 112//12 113//12
f 112//12 114//12 113//12
f 113//12 114//12 115//12
f 114//12 116//12 115//12
f 115//12 116//12 117//12
f 116//12 118//12 117//12
f 117//12 118//12 119//12
f 119//12 118//12 120//12
f 118//12 121//12 120//12
f 120//12 121//12 122//12
f 121//12 123//12 122//12
f 122//12 123//12 124//12
f 123//12 125//12 124//12
f 124//12 125//12 126//12
f 125//12 127//12 126//12
f 126//12 127//12 128//12
f 128//12 127//12 105//12
f 106//12 105//12 127//12
f 129//7 13//1 15//1
f 13//1 129//7 130//7
f 131//8 132//8 18//4
f 20//4 18//4 132//8
f 133//13 22//7 21//7
f 22//7 133//13 134//13
f 135//14 136//14 23//8
f 24//8 23//8 136//14
f 26//9 137//15 25//9
f 137//15 26//9 138//15
f 139//16 27//10 140//16
f 28//10 140//16 27//10
f 30//5 141//9 29//5
f 141//9 30//5 142//9
f 143//10 31//6 144//10
f 32//6 144//10 31//6
f 145//14 146//17 147//17
f 146//17 145//14 148//14
f 149//13 150//13 151//18
f 152//18 151//18 150//13
f 153//8 148//14 145//14
f 148//14 153//8 154//8
f 155//7 156//7 149//13
f 150//13 149//13 156//7
f 157//4 154//8 153//8
f 154//8 157//4 158//4
f 159//1 160//1 155//7
f 156//7 155//7 160//1
f 157//4 161//3 158//4
f 161//3 157//4 162//3
f 163//2 160//1 164//2
f 159//1 164//2 160//1
f 162//3 165//6 161//3
f 165//6 162//3 166//6
f 167//5 163//2 168//5
f 164//2 168//5 163//2
f 166//6 169//19 165//6
f 169//19 166//6 170//19
f 171//20 167//5 172//20
f 168//5 172//20 167//5
f 170//19 173//16 169//19
f 173//16 170//19 174//16
f 175//15 171//20 176//15
f 172//20 176//15 171//20
f 174//16 177//21 173//16
f 177//21 174//16 178//21
f 179//22 175//15 180//22
f 176//15 180//22 175//15
f 178//21 181//23 177//21
f 181//23 178//21 182//23
f 183//24 179//22 184//24
f 180//22 184//24 179//22
f 181//23 185//25 186//25
f 185//25 181//23 182//23
f 183//24 184//24 187//26
f 188//26 187//26 184//24
f 186//25 189//27 190//27
f 189//27 186//25 185//25
f 187//26 188//26 191//28
f 192//28 191//28 188//26
f 190//27 193//29 194//29
f 193//29 190//27 189//27
f 191//28 192//28 195//30
f 196//30 195//30 192//28
f 194//29 197//13 198//13
f 197//13 194//29 193//29
f 195//30 196//30 199//14
f 200//14 199//14 196//30
f 198//13 130//7 129//7
f 130//7 198//13 197//13
f 199//14 200//14 131//8
f 132//8 131//8 200//14
f 142//9 201//15 141//9
f 201//15 142//9 202//15
f 203//16 143//10 204//16
f 144//10 204//16 143//10
f 202//15 205//22 201//15
f 205//22 202//15 206//22
f 207//21 203//16 208//21
f 204//16 208//21 203//16
f 206//22 209//24 205//22
f 209//24 206//22 210//24
f 211//23 207//21 212//23
f 208//21 212//23 207//21
f 213//26 209//24 210//24
f 209//24 213//26 214//26
f 215//25 216//25 212//23
f 211//23 212//23 216//25
f 217//28 214//26 213//26
f 214//26 217//28 218//28
f 219//27 220//27 215//25
f 216//25 215//25 220//27
f 147//17 218//28 217//28
f 218//28 147//17 146//17
f 151//18 152//18 219//27
f 220//27 219//27 152//18
f 221//29 134//13 133//13
f 134//13 221//29 222//29
f 223//30 224//30 135//14
f 136//14 135//14 224//30
f 138//15 225//22 137//15
f 225//22 138//15 226//22
f 227//21 139//16 228//21
f 140//16 228//21 139//16
f 229//14 230//17 231//17
f 230//17 229//14 232//14
f 233//13 234//13 235//18
f 236//18 235//18 234//13
f 237//8 232//14 229//14
f 232//14 237//8 238//8
f 239//7 240//7 233//13
f 234//13 233//13 240//7
f 241//4 238//8 237//8
f 238//8 241//4 242//4
f 243//1 244//1 239//7
f 240//7 239//7 244//1
f 241//4 245//3 242//4
f 245//3 241//4 246//3
f 247//2 244//1 248//2
f 243//1 248//2 244//1
f 246//3 249//6 245//3
f 249//6 246//3 250//6
f 251//5 247//2 252//5
f 248//2 252//5 247//2
f 250//6 253//19 249//6
f 253//19 250//6 254//19
f 255//20 251//5 256//20
f 252//5 256//20 251//5
f 254//19 257//16 253//19
f 257//16 254//19 258//16
f 259//15 255//20 260//15
f 256//20 260//15 255//20
f 258//16 261//21 257//16
f 261//21 258//16 262//21
f 263//22 259//15 264//22
f 260//15 264//22 259//15
f 262//21 265//23 261//21
f 265//23 262//21 266//23
f 267//24 263//22 268//24
f 264//22 268//24 263//22
f 265//23 269//25 270//25
f 269//25 265//23 266//23
f 267//24 268//24 271//26
f 272//26 271//26 268//24
f 270//25 273//27 274//27
f 273//27 270//25 269//25
f 271//26 272//26 275//28
f 276//28 275//28 272//26
f 274//27 222//29 221//29
f 222//29 274//27 273//27
f 275//28 276//28 223//30
f 224//30 223//30 276//28
f 226//22 277//24 225//22
f 277//24 226//22 278//24
f 279//23 227//21 280//23
f 228//21 280//23 227//21
f 281//26 277//24 278//24
f 277//24 281//26 282//26
f 283//25 284//25 280//23
f 279//23 280//23 284//25
f 285//28 282//26 281//26
f 282//26 285//28 286//28
f 287//27 288//27 283//25
f 284//25 283//25 288//27
f 231//17 286//28 285//28
f 286//28 231//17 230//17
f 235//18 236//18 287//27
f 288//27 287//27 236//18
