# SSTK version 0.8.0
# 142
mtllib original-142.mtl
o #ID1233
v 0.020830 -0.450992 0.303508
v 0.020116 -0.458733 0.304858
v 0.020116 -0.455976 0.304376
v 0.020600 -0.461457 0.305336
v 0.022052 -0.463528 0.305706
v 0.022974 -0.446483 0.302730
v 0.024471 -0.464945 0.305965
v 0.026548 -0.442450 0.302043
v 0.025059 -0.458729 0.304882
v 0.025893 -0.454709 0.304183
v 0.027203 -0.451687 0.303661
v 0.031550 -0.438893 0.301446
v 0.027858 -0.450806 0.303510
v 0.033382 -0.441165 0.301852
v 0.034245 -0.437790 0.301267
v 0.035820 -0.438753 0.301443
v 0.038995 -0.437067 0.301164
v 0.038042 -0.437948 0.301313
v 0.039755 -0.438328 0.301388
v 0.041549 -0.437465 0.301246
v 0.040842 -0.439471 0.301594
v 0.040842 -0.442522 0.302127
v 0.030300 -0.452329 0.303789
v 0.028156 -0.450806 0.303512
v 0.030002 -0.451097 0.303572
v 0.033025 -0.450559 0.303493
v 0.033397 -0.451974 0.303742
v 0.035839 -0.448951 0.303226
v 0.038556 -0.450624 0.303532
v 0.038444 -0.446272 0.302771
v 0.042241 -0.448755 0.303224
v 0.043432 -0.438662 0.301465
v 0.044452 -0.446365 0.302817
v 0.044646 -0.440660 0.301820
v 0.045189 -0.443457 0.302312
v 0.026608 -0.462600 0.305566
v 0.027859 -0.465708 0.306116
v 0.027963 -0.463566 0.305742
v 0.028454 -0.465707 0.306119
v 0.029705 -0.463888 0.305807
v 0.031953 -0.465096 0.306029
v 0.030300 -0.463887 0.305810
v 0.032794 -0.463349 0.305728
v 0.035184 -0.463267 0.305726
v 0.035273 -0.461741 0.305459
v 0.038147 -0.460221 0.305208
v 0.040187 -0.455313 0.304360
v 0.040842 -0.455957 0.304476
v 0.040544 -0.455312 0.304362
v 0.040842 -0.455664 0.304425
v 0.038971 -0.436226 0.305975
v 0.041549 -0.437465 0.301246
v 0.038995 -0.437067 0.301164
v 0.041525 -0.436624 0.306057
v 0.043432 -0.438662 0.301465
v 0.043408 -0.437821 0.306276
v 0.044646 -0.440660 0.301820
v 0.044622 -0.439819 0.306631
v 0.045189 -0.443457 0.302312
v 0.045165 -0.442616 0.307123
v 0.044428 -0.445524 0.307628
v 0.044452 -0.446365 0.302817
v 0.042217 -0.447913 0.308035
v 0.042241 -0.448755 0.303224
v 0.038556 -0.450624 0.303532
v 0.038532 -0.449783 0.308343
v 0.033373 -0.451133 0.308554
v 0.033397 -0.451974 0.303742
v 0.030300 -0.452329 0.303789
v 0.030276 -0.451488 0.308600
v 0.027203 -0.451687 0.303661
v 0.027179 -0.450845 0.308472
v 0.025869 -0.453868 0.308994
v 0.025893 -0.454709 0.304183
v 0.025059 -0.458729 0.304882
v 0.025035 -0.457888 0.309693
v 0.026608 -0.462600 0.305566
v 0.026584 -0.461758 0.310377
v 0.027963 -0.463566 0.305742
v 0.027939 -0.462725 0.310553
v 0.029705 -0.463888 0.305807
v 0.029681 -0.463046 0.310618
v 0.030300 -0.463887 0.305810
v 0.030276 -0.463046 0.310621
v 0.032794 -0.463349 0.305728
v 0.032770 -0.462508 0.310539
v 0.035273 -0.461741 0.305459
v 0.035249 -0.460900 0.310271
v 0.040163 -0.454471 0.309171
v 0.040187 -0.455313 0.304360
v 0.040544 -0.455312 0.304362
v 0.040520 -0.454471 0.309173
v 0.040842 -0.455664 0.304425
v 0.040818 -0.454823 0.309236
v 0.040842 -0.455957 0.304476
v 0.040818 -0.455116 0.309287
v 0.038147 -0.460221 0.305208
v 0.038123 -0.459379 0.310019
v 0.035184 -0.463267 0.305726
v 0.035160 -0.462426 0.310537
v 0.031929 -0.464254 0.310840
v 0.031953 -0.465096 0.306029
v 0.028454 -0.465707 0.306119
v 0.028430 -0.464866 0.310930
v 0.027859 -0.465708 0.306116
v 0.027834 -0.464867 0.310927
v 0.024471 -0.464945 0.305965
v 0.024447 -0.464103 0.310777
v 0.022052 -0.463528 0.305706
v 0.022027 -0.462686 0.310517
v 0.020576 -0.460616 0.310147
v 0.020600 -0.461457 0.305336
v 0.020116 -0.458733 0.304858
v 0.020092 -0.457892 0.309669
v 0.020116 -0.455976 0.304376
v 0.020092 -0.455134 0.309187
v 0.020806 -0.450151 0.308319
v 0.020830 -0.450992 0.303508
v 0.022950 -0.445642 0.307541
v 0.022974 -0.446483 0.302730
v 0.026523 -0.441609 0.306854
v 0.026548 -0.442450 0.302043
v 0.031550 -0.438893 0.301446
v 0.031526 -0.438052 0.306257
v 0.034245 -0.437790 0.301267
v 0.034221 -0.436949 0.306078
v 0.024447 -0.464103 0.310777
v 0.026584 -0.461758 0.310377
v 0.025035 -0.457888 0.309693
v 0.027834 -0.464867 0.310927
v 0.027939 -0.462725 0.310553
v 0.028430 -0.464866 0.310930
v 0.029681 -0.463046 0.310618
v 0.031929 -0.464254 0.310840
v 0.030276 -0.463046 0.310621
v 0.032770 -0.462508 0.310539
v 0.035160 -0.462426 0.310537
v 0.035249 -0.460900 0.310271
v 0.038123 -0.459379 0.310019
v 0.040163 -0.454471 0.309171
v 0.040818 -0.455116 0.309287
v 0.040520 -0.454471 0.309173
v 0.040818 -0.454823 0.309236
v 0.030276 -0.451488 0.308600
v 0.027834 -0.449965 0.308322
v 0.027179 -0.450845 0.308472
v 0.028132 -0.449964 0.308323
v 0.029978 -0.450256 0.308383
v 0.033001 -0.449718 0.308304
v 0.033373 -0.451133 0.308554
v 0.035815 -0.448110 0.308037
v 0.038532 -0.449783 0.308343
v 0.038420 -0.445431 0.307582
v 0.040818 -0.441681 0.306938
v 0.042217 -0.447913 0.308035
v 0.041525 -0.436624 0.306057
v 0.043408 -0.437821 0.306276
v 0.044428 -0.445524 0.307628
v 0.044622 -0.439819 0.306631
v 0.045165 -0.442616 0.307123
v 0.020576 -0.460616 0.310147
v 0.020092 -0.455134 0.309187
v 0.020092 -0.457892 0.309669
v 0.020806 -0.450151 0.308319
v 0.022027 -0.462686 0.310517
v 0.022950 -0.445642 0.307541
v 0.026523 -0.441609 0.306854
v 0.025869 -0.453868 0.308994
v 0.031526 -0.438052 0.306257
v 0.033358 -0.440323 0.306663
v 0.034221 -0.436949 0.306078
v 0.035796 -0.437912 0.306254
v 0.038971 -0.436226 0.305975
v 0.038018 -0.437107 0.306124
v 0.039730 -0.437487 0.306199
v 0.040817 -0.438630 0.306405
vn 0.004925489468300207 -0.17222553090541712 -0.9850452304629697
vn 0.002550175075692146 0.9850561396624326 -0.17221468671524365
vn 0.3575264384540532 0.9202495319341496 -0.15910890855429394
vn 0.7192249931167518 0.6849965387411479 -0.11616863255137005
vn 0.9344342867622398 0.3515773240699567 -0.056797437644251735
vn 0.999602080511407 -0.026511777295081095 0.00963360274886196
vn 0.8813157652260044 -0.4646996261758073 0.08565500216664074
vn 0.607606927824536 -0.7818487360426374 0.1397368069198655
vn 0.35872267555095544 -0.9191899363998283 0.1625050856645523
vn 0.185805359261278 -0.9677459142906213 0.17012999101744852
vn -0.046746358206186944 -0.9840199360883695 0.17181252391807825
vn 0.46118462796916054 -0.8736512757363354 0.1550554330851419
vn 0.9545440996978924 -0.29276943985910847 0.05596085074875028
vn 0.9962175922673115 0.08630374811583237 -0.010108012578111636
vn 0.7903995058728339 0.6040961985460973 -0.10166810718280435
vn 0.39552604150809 0.9050639532951626 -0.15626385037708662
vn 0.09276693926193148 0.9808880577181323 -0.17103483038820821
vn -0.10710137127886035 0.9793002413859979 -0.1717566112017647
vn -0.3877351726724692 0.9076660887293467 -0.16063532377226328
vn -0.6841534308696499 0.7178516977308055 -0.12893030324282873
vn -0.4462564744403456 0.8811514798604838 -0.15629212571256634
vn 0.4241227932012694 0.8924298191252861 -0.1539119040982942
vn 0.9402498359960851 0.3361640994894974 -0.05407350667148144
vn 0.9614373030274806 -0.27005879896969914 0.052024585017931314
vn 0.7894808682856395 -0.6039217738749888 0.10953743492815451
vn 0.6159680366489616 -0.775471332284056 0.1386635879833452
vn 0.34089000695368016 -0.9257647349590263 0.16356545682192097
vn 0.08731474057653756 -0.9812208623870767 0.17199347456927913
vn -0.11260658602690646 -0.9788872458575553 0.17058580445270113
vn -0.372175639012278 -0.914606896983991 0.15804909906455666
vn -0.6829433961411302 -0.7201277186436336 0.12249239367542336
vn -0.9253843913156389 -0.3741242266877759 0.060784795094317313
vn -0.9962372904728757 -0.08608064924553253 0.010068907424871383
vn -0.9975287201738459 0.06819435183891583 -0.01691102615452698
vn -0.9584372045893257 0.2801887928608717 -0.05378071414704936
vn -0.8374907955032255 0.5375601122057448 -0.09817480946109192
vn -0.6733689631293684 0.7276807099101864 -0.13059488473399847
vn -0.48710550767668515 0.859876455700177 -0.15277665176178032
vn -0.26928245930640254 0.9484410551498492 -0.16717213289342317
vn -0.004925489468300207 0.17222553090541712 0.9850452304629697
usemtl material_0_0
f 1//1 2//1 3//1
f 2//1 1//1 4//1
f 4//1 1//1 5//1
f 5//1 1//1 6//1
f 5//1 6//1 7//1
f 7//1 6//1 8//1
f 7//1 8//1 9//1
f 9//1 8//1 10//1
f 10//1 8//1 11//1
f 11//1 8//1 12//1
f 11//1 12//1 13//1
f 13//1 12//1 14//1
f 14//1 12//1 15//1
f 14//1 15//1 16//1
f 16//1 15//1 17//1
f 16//1 17//1 18//1
f 18//1 17//1 19//1
f 19//1 17//1 20//1
f 19//1 20//1 21//1
f 21//1 20//1 22//1
f 13//1 23//1 11//1
f 23//1 13//1 24//1
f 23//1 24//1 25//1
f 23//1 25//1 26//1
f 23//1 26//1 27//1
f 27//1 26//1 28//1
f 27//1 28//1 29//1
f 29//1 28//1 30//1
f 29//1 30//1 22//1
f 29//1 22//1 31//1
f 31//1 22//1 20//1
f 31//1 20//1 32//1
f 31//1 32//1 33//1
f 33//1 32//1 34//1
f 33//1 34//1 35//1
f 7//1 36//1 37//1
f 36//1 7//1 9//1
f 37//1 36//1 38//1
f 37//1 38//1 39//1
f 39//1 38//1 40//1
f 39//1 40//1 41//1
f 41//1 40//1 42//1
f 41//1 42//1 43//1
f 41//1 43//1 44//1
f 44//1 43//1 45//1
f 44//1 45//1 46//1
f 46//1 45//1 47//1
f 46//1 47//1 48//1
f 48//1 47//1 49//1
f 48//1 49//1 50//1
f 51//2 52//3 53//2
f 52//3 51//2 54//3
f 54//3 55//4 52//3
f 55//4 54//3 56//4
f 57//5 56//4 58//5
f 56//4 57//5 55//4
f 59//6 58//5 60//6
f 58//5 59//6 57//5
f 59//6 61//7 62//7
f 61//7 59//6 60//6
f 62//7 63//8 64//8
f 63//8 62//7 61//7
f 63//8 65//9 64//8
f 65//9 63//8 66//9
f 65//9 67//10 68//10
f 67//10 65//9 66//9
f 67//10 69//11 68//10
f 69//11 67//10 70//11
f 70//11 71//12 69//11
f 71//12 70//11 72//12
f 71//12 73//13 74//13
f 73//13 71//12 72//12
f 75//14 73//13 76//14
f 73//13 75//14 74//13
f 77//15 76//14 78//15
f 76//14 77//15 75//14
f 78//15 79//16 77//15
f 79//16 78//15 80//16
f 80//16 81//17 79//16
f 81//17 80//16 82//17
f 82//17 83//18 81//17
f 83//18 82//17 84//18
f 84//18 85//19 83//18
f 85//19 84//18 86//19
f 86//19 87//20 85//19
f 87//20 86//19 88//20
f 89//21 87//20 88//20
f 87//20 89//21 90//21
f 89//21 91//22 90//21
f 91//22 89//21 92//22
f 93//23 92//22 94//23
f 92//22 93//23 91//22
f 95//24 94//23 96//24
f 94//23 95//24 93//23
f 97//25 96//24 98//25
f 96//24 97//25 95//24
f 99//26 98//25 100//26
f 98//25 99//26 97//25
f 99//26 101//27 102//27
f 101//27 99//26 100//26
f 101//27 103//28 102//27
f 103//28 101//27 104//28
f 104//28 105//29 103//28
f 105//29 104//28 106//29
f 106//29 107//30 105//29
f 107//30 106//29 108//30
f 108//30 109//31 107//30
f 109//31 108//30 110//31
f 111//32 109//31 110//31
f 109//31 111//32 112//32
f 111//32 113//33 112//32
f 113//33 111//32 114//33
f 114//33 115//34 113//33
f 115//34 114//33 116//34
f 117//35 115//34 116//34
f 115//34 117//35 118//35
f 119//36 118//35 117//35
f 118//35 119//36 120//36
f 121//37 120//36 119//36
f 120//36 121//37 122//37
f 121//37 123//38 122//37
f 123//38 121//37 124//38
f 124//38 125//39 123//38
f 125//39 124//38 126//39
f 126//39 53//2 125//39
f 53//2 126//39 51//2
f 127//40 128//40 129//40
f 128//40 127//40 130//40
f 128//40 130//40 131//40
f 131//40 130//40 132//40
f 131//40 132//40 133//40
f 133//40 132//40 134//40
f 133//40 134//40 135//40
f 135//40 134//40 136//40
f 136//40 134//40 137//40
f 136//40 137//40 138//40
f 138//40 137//40 139//40
f 138//40 139//40 140//40
f 140//40 139//40 141//40
f 140//40 141//40 142//40
f 142//40 141//40 143//40
f 144//40 145//40 146//40
f 145//40 144//40 147//40
f 147//40 144//40 148//40
f 148//40 144//40 149//40
f 149//40 144//40 150//40
f 149//40 150//40 151//40
f 151//40 150//40 152//40
f 151//40 152//40 153//40
f 153//40 152//40 154//40
f 154//40 152//40 155//40
f 154//40 155//40 156//40
f 156//40 155//40 157//40
f 157//40 155//40 158//40
f 157//40 158//40 159//40
f 159//40 158//40 160//40
f 161//40 162//40 163//40
f 162//40 161//40 164//40
f 164//40 161//40 165//40
f 164//40 165//40 166//40
f 166//40 165//40 127//40
f 166//40 127//40 167//40
f 167//40 127//40 129//40
f 167//40 129//40 168//40
f 167//40 168//40 146//40
f 167//40 146//40 169//40
f 169//40 146//40 145//40
f 169//40 145//40 170//40
f 169//40 170//40 171//40
f 171//40 170//40 172//40
f 171//40 172//40 173//40
f 173//40 172//40 174//40
f 173//40 174//40 175//40
f 173//40 175//40 156//40
f 156//40 175//40 176//40
f 156//40 176//40 154//40
