# SSTK version 0.8.0
# 148
mtllib original-148.mtl
o #ID1269
v 0.028132 -0.449964 0.308323
v 0.030002 -0.451097 0.303572
v 0.028156 -0.450806 0.303512
v 0.029978 -0.450256 0.308383
v 0.027834 -0.449965 0.308322
v 0.027858 -0.450806 0.303510
v 0.033001 -0.449718 0.308304
v 0.033025 -0.450559 0.303493
v 0.033382 -0.441165 0.301852
v 0.027834 -0.449965 0.308322
v 0.027858 -0.450806 0.303510
v 0.033358 -0.440323 0.306663
v 0.035839 -0.448951 0.303226
v 0.035815 -0.448110 0.308037
v 0.035820 -0.438753 0.301443
v 0.035796 -0.437912 0.306254
v 0.038444 -0.446272 0.302771
v 0.038420 -0.445431 0.307582
v 0.038018 -0.437107 0.306124
v 0.038042 -0.437948 0.301313
v 0.040818 -0.441681 0.306938
v 0.040842 -0.442522 0.302127
v 0.039730 -0.437487 0.306199
v 0.039755 -0.438328 0.301388
v 0.040817 -0.438630 0.306405
v 0.040842 -0.439471 0.301594
vn 0.07984017716702375 0.9819802126488606 -0.17129042026930943
vn -0.009024584000669252 0.9850094089501321 -0.17226439319640713
vn -0.0000303406988154243 0.9850571533070441 -0.17222776720977634
vn -0.34433580496902133 0.9245239247139989 -0.163365743189202
vn 0.7967202698689301 -0.5946291650832419 0.10794891204818058
vn 0.8707646095974094 -0.48359560997501294 0.08890602164964075
vn -0.6176586998595631 0.7741647752698239 -0.1384436030274319
vn 0.5390258311297779 -0.8292416710154873 0.14768007457438018
vn -0.7879408529888688 0.6058694070220633 -0.10987025905998098
vn 0.06460635768220906 -0.98294436802561 0.17218126470023562
vn -0.960735861607885 0.2724637357290392 -0.05244155731031368
vn -0.49721543770497195 -0.8550807082976989 0.1470162943518796
vn -0.9300637884770969 -0.36266896935652587 0.05875855707473786
usemtl material_0_0
f 1//1 2//2 3//1
f 2//2 1//1 4//2
f 5//3 3//1 6//3
f 3//1 5//3 1//1
f 2//2 7//4 8//4
f 7//4 2//2 4//2
f 9//5 10//6 11//6
f 10//6 9//5 12//5
f 7//4 13//7 8//4
f 13//7 7//4 14//7
f 15//8 12//5 9//5
f 12//5 15//8 16//8
f 14//7 17//9 13//7
f 17//9 14//7 18//9
f 19//10 15//8 20//10
f 15//8 19//10 16//8
f 21//11 17//9 18//9
f 17//9 21//11 22//11
f 23//12 20//10 24//12
f 20//10 23//12 19//10
f 25//13 22//11 21//11
f 22//11 25//13 26//13
f 23//12 26//13 25//13
f 26//13 23//12 24//12
