# SSTK version 0.8.0
# 169
mtllib original-169.mtl
o #ID1358
v 0.272960 0.712040 -0.047495
v 0.273115 0.765322 -0.066817
v 0.260208 0.712040 -0.064114
v 0.286501 0.765322 -0.049372
v 0.286501 0.765322 -0.049372
v 0.272960 0.712040 -0.047495
v 0.273115 0.765322 -0.066817
v 0.260208 0.712040 -0.064114
v 0.280592 0.712040 -0.029068
v 0.294514 0.765322 -0.030028
v 0.294514 0.765322 -0.030028
v 0.280592 0.712040 -0.029068
v 0.069923 0.712040 -0.268971
v 0.073363 0.765322 -0.281866
v 0.069923 0.712040 -0.268971
v 0.073363 0.765322 -0.281866
v 0.283196 0.712040 -0.009294
v 0.297246 0.765322 -0.009270
v 0.297246 0.765322 -0.009270
v 0.283196 0.712040 -0.009294
v 0.049361 0.712040 -0.284749
v 0.051778 0.765322 -0.298429
v 0.049361 0.712040 -0.284749
v 0.051778 0.765322 -0.298429
v 0.294514 0.765322 0.011489
v 0.280592 0.712040 0.010481
v 0.294514 0.765322 0.011489
v 0.280592 0.712040 0.010481
v 0.025936 0.712040 -0.294452
v 0.027187 0.765322 -0.308615
v 0.025936 0.712040 -0.294452
v 0.027187 0.765322 -0.308615
v 0.286501 0.765322 0.030832
v 0.272960 0.712040 0.028908
v 0.286501 0.765322 0.030832
v 0.272960 0.712040 0.028908
v 0.000798 0.712040 -0.297761
v 0.000798 0.765322 -0.312089
v 0.000798 0.712040 -0.297761
v 0.000798 0.765322 -0.312089
v 0.273125 0.765322 0.048265
v 0.260217 0.712040 0.045514
v 0.273125 0.765322 0.048265
v 0.260217 0.712040 0.045514
v -0.024340 0.712040 -0.294452
v -0.025590 0.765322 -0.308615
v -0.025590 0.765322 -0.308615
v -0.024340 0.712040 -0.294452
v 0.072351 0.765322 0.263317
v 0.068959 0.712040 0.250374
v 0.072351 0.765322 0.263317
v 0.068959 0.712040 0.250374
v -0.047765 0.712040 -0.284749
v -0.050181 0.765322 -0.298429
v -0.050181 0.765322 -0.298429
v -0.047765 0.712040 -0.284749
v 0.051053 0.765322 0.279660
v 0.048671 0.712040 0.265942
v 0.051053 0.765322 0.279660
v 0.048671 0.712040 0.265942
v -0.068442 0.712040 -0.268883
v -0.071886 0.765322 -0.281774
v -0.071886 0.765322 -0.281774
v -0.068442 0.712040 -0.268883
v 0.026812 0.765322 0.289701
v 0.025579 0.712040 0.275507
v 0.026812 0.765322 0.289701
v 0.025579 0.712040 0.275507
v -0.258700 0.712040 -0.073771
v -0.271610 0.765322 -0.076955
v -0.271610 0.765322 -0.076955
v -0.258700 0.712040 -0.073771
v 0.000799 0.765322 0.293125
v 0.000798 0.712040 0.278769
v 0.000799 0.765322 0.293125
v 0.000798 0.712040 0.278769
v -0.273560 0.712040 -0.054405
v -0.287210 0.765322 -0.056625
v -0.287210 0.765322 -0.056625
v -0.273560 0.712040 -0.054405
v -0.025215 0.765322 0.289701
v -0.023983 0.712040 0.275507
v -0.025215 0.765322 0.289701
v -0.023983 0.712040 0.275507
v -0.282573 0.712040 -0.032645
v -0.296671 0.765322 -0.033783
v -0.296671 0.765322 -0.033783
v -0.282573 0.712040 -0.032645
v -0.049456 0.765322 0.279660
v -0.047075 0.712040 0.265942
v -0.049456 0.765322 0.279660
v -0.047075 0.712040 0.265942
v -0.285648 0.712040 -0.009294
v -0.299898 0.765322 -0.009270
v -0.299898 0.765322 -0.009270
v -0.285648 0.712040 -0.009294
v -0.070874 0.765322 0.263225
v -0.067478 0.712040 0.250286
v -0.070874 0.765322 0.263225
v -0.067478 0.712040 0.250286
v -0.296671 0.765322 0.015244
v -0.282573 0.712040 0.014058
v -0.282573 0.712040 0.014058
v -0.296671 0.765322 0.015244
v -0.258709 0.712040 0.055172
v -0.271620 0.765322 0.058403
v -0.258709 0.712040 0.055172
v -0.271620 0.765322 0.058403
v -0.287209 0.765322 0.038086
v -0.273560 0.712040 0.035818
v -0.273560 0.712040 0.035818
v -0.287209 0.765322 0.038086
vn -0.8387720787981335 0.23054371524570808 0.4932656436336951
vn -0.7484410999852833 0.21316500676722097 0.6280100315621959
vn -0.7442487621759091 0.21241410293484714 0.6332251012665333
vn -0.8460690582193052 0.23193021175867584 0.4799745051536321
vn -0.9345121424035937 0.24875011561913596 0.2545789380127743
vn -0.9364482595071697 0.2491193118672995 0.24699033527803407
vn -0.6615016702444719 0.21648341288707504 0.7180184344489617
vn -0.6526879539124912 0.21776300501137638 0.7256567428653447
vn -0.9669438997435225 0.25498920251155005 0.000036760202326045715
vn -0.9669438751848486 0.25498929602999715 -0.00003395047374481719
vn -0.4919085403984266 0.23738689414825145 0.8376595074191756
vn -0.47968932950147153 0.2385597039773308 0.844385821056155
vn -0.9363797847953136 0.2493268051977023 -0.2470405692120003
vn -0.934476173084284 0.24897050208240917 -0.2544955226140226
vn -0.2538965510721943 0.2540425203966581 0.9332732392949872
vn -0.24694934389382492 0.2543519961154355 0.935051380204587
vn -0.8459548169959992 0.23233750294989378 -0.47997888737346933
vn -0.8387165862115479 0.2309741010714995 -0.49315864855831126
vn 0.0000012630890884836169 0.25968191557743175 0.9656942076664022
vn -6.460992202592718e-7 0.2596818978450982 0.9656942124353602
vn -0.7476237710778456 0.2135801986273324 -0.6288419480868386
vn -0.7433268035603496 0.21281450428584067 -0.634172886423194
vn 0.25389939771044373 0.2540365056346412 0.9332741020982072
vn 0.24694847837075012 0.2543463164520489 0.9350531537499059
vn -0.6517657689004523 0.2179571985392958 -0.7264269007233308
vn -0.6605310096793007 0.21667541149766004 -0.7188536369139155
vn 0.4919119906737602 0.23737519732129006 0.8376607959837067
vn 0.47968974551513893 0.23854850848603218 0.8443887476433534
vn -0.4795972572016369 0.2388344091248185 -0.8443604656203805
vn -0.491940595709111 0.2376379156497224 -0.8375695023930974
vn 0.6517942318207693 0.21788470862135878 0.7264231088795006
vn 0.6443673753849785 0.21892539821793172 0.7327089159786406
vn -0.24688743775707434 0.2547794986607423 -0.934951335706799
vn -0.2539041420251116 0.25446381239151467 -0.9331563935620159
vn 0.7353484983643924 0.21654441046594744 0.6421612758872871
vn 0.7405068645891376 0.21742050714865774 0.6359071524739952
vn -0.000001192341947889402 0.2601604068173345 -0.9655654108983075
vn 7.168462916988452e-7 0.2601603890546621 -0.9655654156847235
vn 0.8380010412263945 0.2351911945155042 0.4923813125270382
vn 0.8449467336237056 0.23644419407701722 0.479749059848897
vn 0.24688551501980732 0.25477381967660356 -0.9349533909670567
vn 0.2539059335193516 0.254457798275717 -0.9331575460876589
vn 0.9336367448245034 0.25245729623981206 0.25414118573892847
vn 0.9354810417195943 0.25279120247869424 0.24692474264965444
vn 0.47959670796943926 0.23882330868710674 -0.8443639173559107
vn 0.4919431242616353 0.23762619719438688 -0.8375713419754974
vn 0.9660436261898607 0.2583790064938555 0.00003607205010718907
vn 0.9660435965633926 0.2583791174876206 -0.00003442649731807988
vn 0.6434365239487013 0.21912931596377608 -0.7334655973759504
vn 0.6508041503012123 0.21808930502158377 -0.7272489346749978
vn 0.9354115965465299 0.2529984000428518 -0.24697561544012675
vn 0.9335998403687125 0.25267669862797026 -0.25405870194501184
vn 0.7344126839434488 0.21695700060207135 -0.643092271414245
vn 0.7396712635391611 0.21784551356148832 -0.6367336602658226
vn 0.8448304130594414 0.23685071025762963 -0.4797533889617352
vn 0.8379434512457812 0.23561950431312248 -0.49227453895316153
vn 0.8460690582193052 -0.23193021175867584 -0.4799745051536321
vn 0.8387720787981335 -0.23054371524570808 -0.4932656436336951
vn 0.7484410999852833 -0.21316500676722097 -0.6280100315621959
vn 0.7442487621759091 -0.21241410293484714 -0.6332251012665333
vn 0.9364482595071697 -0.2491193118672995 -0.24699033527803407
vn 0.9345121424035937 -0.24875011561913596 -0.2545789380127743
vn 0.6615016702444719 -0.21648341288707504 -0.7180184344489617
vn 0.6526879539124912 -0.21776300501137638 -0.7256567428653447
vn 0.9669438751848486 -0.25498929602999715 0.00003395047374481719
vn 0.9669438997435225 -0.25498920251155005 -0.000036760202326045715
vn 0.4919085403984266 -0.23738689414825145 -0.8376595074191756
vn 0.47968932950147153 -0.2385597039773308 -0.844385821056155
vn 0.9363797847953136 -0.2493268051977023 0.2470405692120003
vn 0.934476173084284 -0.24897050208240917 0.2544955226140226
vn 0.2538965510721943 -0.2540425203966581 -0.9332732392949872
vn 0.24694934389382492 -0.2543519961154355 -0.935051380204587
vn 0.8459548169959992 -0.23233750294989378 0.47997888737346933
vn 0.8387165862115479 -0.2309741010714995 0.49315864855831126
vn -0.0000012630890884836169 -0.25968191557743175 -0.9656942076664022
vn 6.460992202592718e-7 -0.2596818978450982 -0.9656942124353602
vn 0.7476237710778456 -0.2135801986273324 0.6288419480868386
vn 0.7433268035603496 -0.21281450428584067 0.634172886423194
vn -0.24694847837075012 -0.2543463164520489 -0.9350531537499059
vn -0.25389939771044373 -0.2540365056346412 -0.9332741020982072
vn 0.6517657689004523 -0.2179571985392958 0.7264269007233308
vn 0.6605310096793007 -0.21667541149766004 0.7188536369139155
vn -0.47968974551513893 -0.23854850848603218 -0.8443887476433534
vn -0.4919119906737602 -0.23737519732129006 -0.8376607959837067
vn 0.4795972572016369 -0.2388344091248185 0.8443604656203805
vn 0.491940595709111 -0.2376379156497224 0.8375695023930974
vn -0.6443673753849785 -0.21892539821793172 -0.7327089159786406
vn -0.6517942318207693 -0.21788470862135878 -0.7264231088795006
vn 0.24688743775707434 -0.2547794986607423 0.934951335706799
vn 0.2539041420251116 -0.25446381239151467 0.9331563935620159
vn -0.7405068645891376 -0.21742050714865774 -0.6359071524739952
vn -0.7353484983643924 -0.21654441046594744 -0.6421612758872871
vn 0.000001192341947889402 -0.2601604068173345 0.9655654108983075
vn -7.168462916988452e-7 -0.2601603890546621 0.9655654156847235
vn -0.8449467336237056 -0.23644419407701722 -0.479749059848897
vn -0.8380010412263945 -0.2351911945155042 -0.4923813125270382
vn -0.24688551501980732 -0.25477381967660356 0.9349533909670567
vn -0.2539059335193516 -0.254457798275717 0.9331575460876589
vn -0.9354810417195943 -0.25279120247869424 -0.24692474264965444
vn -0.9336367448245034 -0.25245729623981206 -0.25414118573892847
vn -0.47959670796943926 -0.23882330868710674 0.8443639173559107
vn -0.4919431242616353 -0.23762619719438688 0.8375713419754974
vn -0.9660435965633926 -0.2583791174876206 0.00003442649731807988
vn -0.9660436261898607 -0.2583790064938555 -0.00003607205010718907
vn -0.6434365239487013 -0.21912931596377608 0.7334655973759504
vn -0.6508041503012123 -0.21808930502158377 0.7272489346749978
vn -0.9335998403687125 -0.25267669862797026 0.25405870194501184
vn -0.9354115965465299 -0.2529984000428518 0.24697561544012675
vn -0.7344126839434488 -0.21695700060207135 0.643092271414245
vn -0.7396712635391611 -0.21784551356148832 0.6367336602658226
vn -0.8379434512457812 -0.23561950431312248 0.49227453895316153
vn -0.8448304130594414 -0.23685071025762963 0.4797533889617352
usemtl material_0_0
f 1//1 2//2 3//3
f 2//2 1//1 4//4
f 9//5 4//4 1//1
f 4//4 9//5 10//6
f 13//7 2//2 14//8
f 2//2 13//7 3//3
f 17//9 10//6 9//5
f 10//6 17//9 18//10
f 21//11 14//8 22//12
f 14//8 21//11 13//7
f 25//13 17//9 26//14
f 17//9 25//13 18//10
f 29//15 22//12 30//16
f 22//12 29//15 21//11
f 33//17 26//14 34//18
f 26//14 33//17 25//13
f 37//19 30//16 38//20
f 30//16 37//19 29//15
f 41//21 34//18 42//22
f 34//18 41//21 33//17
f 38//20 45//23 37//19
f 45//23 38//20 46//24
f 49//25 42//22 50//26
f 42//22 49//25 41//21
f 46//24 53//27 45//23
f 53//27 46//24 54//28
f 57//29 50//26 58//30
f 50//26 57//29 49//25
f 54//28 61//31 53//27
f 61//31 54//28 62//32
f 65//33 58//30 66//34
f 58//30 65//33 57//29
f 62//32 69//35 61//31
f 69//35 62//32 70//36
f 73//37 66//34 74//38
f 66//34 73//37 65//33
f 70//36 77//39 69//35
f 77//39 70//36 78//40
f 81//41 74//38 82//42
f 74//38 81//41 73//37
f 78//40 85//43 77//39
f 85//43 78//40 86//44
f 89//45 82//42 90//46
f 82//42 89//45 81//41
f 86//44 93//47 85//43
f 93//47 86//44 94//48
f 97//49 90//46 98//50
f 90//46 97//49 89//45
f 101//51 93//47 94//48
f 93//47 101//51 102//52
f 97//49 105//53 106//54
f 105//53 97//49 98//50
f 109//55 102//52 101//51
f 102//52 109//55 110//56
f 106//54 110//56 109//55
f 110//56 106//54 105//53
usemtl material_1_0
f 5//57 6//58 7//59
f 8//60 7//59 6//58
f 11//61 12//62 5//57
f 6//58 5//57 12//62
f 8//60 15//63 7//59
f 16//64 7//59 15//63
f 19//65 20//66 11//61
f 12//62 11//61 20//66
f 15//63 23//67 16//64
f 24//68 16//64 23//67
f 19//65 27//69 20//66
f 28//70 20//66 27//69
f 23//67 31//71 24//68
f 32//72 24//68 31//71
f 27//69 35//73 28//70
f 36//74 28//70 35//73
f 31//71 39//75 32//72
f 40//76 32//72 39//75
f 35//73 43//77 36//74
f 44//78 36//74 43//77
f 47//79 40//76 48//80
f 39//75 48//80 40//76
f 43//77 51//81 44//78
f 52//82 44//78 51//81
f 55//83 47//79 56//84
f 48//80 56//84 47//79
f 51//81 59//85 52//82
f 60//86 52//82 59//85
f 63//87 55//83 64//88
f 56//84 64//88 55//83
f 59//85 67//89 60//86
f 68//90 60//86 67//89
f 71//91 63//87 72//92
f 64//88 72//92 63//87
f 67//89 75//93 68//90
f 76//94 68//90 75//93
f 79//95 71//91 80//96
f 72//92 80//96 71//91
f 75//93 83//97 76//94
f 84//98 76//94 83//97
f 87//99 79//95 88//100
f 80//96 88//100 79//95
f 83//97 91//101 84//98
f 92//102 84//98 91//101
f 95//103 87//99 96//104
f 88//100 96//104 87//99
f 91//101 99//105 92//102
f 100//106 92//102 99//105
f 103//107 104//108 96//104
f 95//103 96//104 104//108
f 100//106 99//105 107//109
f 108//110 107//109 99//105
f 111//111 112//112 103//107
f 104//108 103//107 112//112
f 107//109 108//110 111//111
f 112//112 111//111 108//110
