# SSTK version 0.8.0
# 145
mtllib original-145.mtl
o #ID1251
v -0.056953 -0.465489 0.305654
v -0.056340 -0.467984 0.311051
v -0.056316 -0.468825 0.306240
v -0.056977 -0.464648 0.310465
v -0.056203 -0.458282 0.309355
v -0.056179 -0.459123 0.304544
v -0.055145 -0.470367 0.311474
v -0.055121 -0.471208 0.306663
v -0.053856 -0.451758 0.303268
v -0.053880 -0.450917 0.308079
v -0.053368 -0.472636 0.306921
v -0.053392 -0.471795 0.311732
v -0.046909 -0.437050 0.305690
v -0.046885 -0.437891 0.300879
v -0.051056 -0.473111 0.307016
v -0.051081 -0.472270 0.311827
v -0.040025 -0.427984 0.299181
v -0.040049 -0.427143 0.303992
v -0.050759 -0.473111 0.307017
v -0.050783 -0.472269 0.311828
v -0.036636 -0.424516 0.298591
v -0.036660 -0.423675 0.303403
v -0.047674 -0.472650 0.306952
v -0.047698 -0.471809 0.311763
v -0.033300 -0.421197 0.302986
v -0.033276 -0.422038 0.298175
v -0.044553 -0.471275 0.306727
v -0.044577 -0.470434 0.311538
v -0.029968 -0.419709 0.302743
v -0.029944 -0.420550 0.297931
v -0.041398 -0.468985 0.306343
v -0.041422 -0.468144 0.311154
v -0.026663 -0.419211 0.302672
v -0.026639 -0.420052 0.297861
v -0.038207 -0.465781 0.305798
v -0.038231 -0.464939 0.310609
v -0.026365 -0.419211 0.302673
v -0.026341 -0.420052 0.297862
v -0.031719 -0.456626 0.304230
v -0.031743 -0.455785 0.309041
v -0.024184 -0.419532 0.302740
v -0.024160 -0.420373 0.297929
v -0.025114 -0.442971 0.306834
v -0.025090 -0.443812 0.302023
v -0.022524 -0.420498 0.302918
v -0.022500 -0.421339 0.298107
v -0.021829 -0.434466 0.300405
v -0.021853 -0.433625 0.305216
v -0.021361 -0.422952 0.298394
v -0.021385 -0.422111 0.303205
v -0.020767 -0.425894 0.303870
v -0.020743 -0.426735 0.299059
v -0.020743 -0.425210 0.298792
v -0.020767 -0.424369 0.303603
vn 0.9994341567810643 0.033624237361639796 -0.0008814313196618017
vn 0.9485107166053124 0.3127826702384867 -0.04994418568120505
vn 0.9779687132525957 -0.20474780015239613 0.040688256681957614
vn 0.7844414835945491 0.6115888552907185 -0.10300791668687938
vn 0.9284160364694237 -0.3651750745098681 0.06848962098827663
vn 0.43401309029926477 0.8878101607923018 -0.1530547478611155
vn 0.863066970370038 -0.4967922641135988 0.09117483739041392
vn 0.1029654710062352 0.979908752388515 -0.17081261303793718
vn 0.7758134107131831 -0.62086450997163 0.11243136579827612
vn -0.07466299380652879 0.9822443063129289 -0.17210915162093796
vn 0.6617132995860782 -0.7379851627238969 0.13233823616131865
vn -0.28085551460400426 0.9451694520763733 -0.16665799344216295
vn 0.5085161794835674 -0.847750911879981 0.15076367801993074
vn -0.5030679234920186 0.8509023315364348 -0.1512874302091465
vn 0.2839415497137927 -0.9442719162824836 0.16651649908143018
vn -0.6552456985752523 0.7435651390799304 -0.13328150075563266
vn 0.07541457032744739 -0.9821879556559304 0.1721030573428333
vn -0.7693632798228567 0.6286021278925609 -0.1137519602871147
vn -0.07442828501045405 -0.9823880663526001 0.17138879041058053
vn -0.857379111335765 0.506250152102032 -0.09280001585001517
vn -0.33511323603395415 -0.9283819224446318 0.16064284955409852
vn -0.9205433724397396 0.3839962688402127 -0.07174095743761578
vn -0.6807264321788732 -0.722161461259465 0.12285905910683154
vn -0.9726509893564321 0.2279269255063856 -0.044714310160846316
vn -0.906657292889041 -0.416309883885978 0.06825418543913248
vn -0.9976226841831156 0.06686399930279176 -0.01667889686135756
vn -0.9913353990818842 -0.1301436850109297 0.01779740933218271
usemtl material_0_0
f 1//1 2//2 3//2
f 2//2 1//1 4//1
f 1//1 5//3 4//1
f 5//3 1//1 6//3
f 3//2 7//4 8//4
f 7//4 3//2 2//2
f 9//5 5//3 6//3
f 5//3 9//5 10//5
f 7//4 11//6 8//4
f 11//6 7//4 12//6
f 9//5 13//7 10//5
f 13//7 9//5 14//7
f 12//6 15//8 11//6
f 15//8 12//6 16//8
f 17//9 13//7 14//7
f 13//7 17//9 18//9
f 16//8 19//10 15//8
f 19//10 16//8 20//10
f 21//11 18//9 17//9
f 18//9 21//11 22//11
f 20//10 23//12 19//10
f 23//12 20//10 24//12
f 25//13 21//11 26//13
f 21//11 25//13 22//11
f 24//12 27//14 23//12
f 27//14 24//12 28//14
f 29//15 26//13 30//15
f 26//13 29//15 25//13
f 28//14 31//16 27//14
f 31//16 28//14 32//16
f 33//17 30//15 34//17
f 30//15 33//17 29//15
f 32//16 35//18 31//16
f 35//18 32//16 36//18
f 37//19 34//17 38//19
f 34//17 37//19 33//17
f 36//18 39//20 35//18
f 39//20 36//18 40//20
f 41//21 38//19 42//21
f 38//19 41//21 37//19
f 43//22 39//20 40//20
f 39//20 43//22 44//22
f 45//23 42//21 46//23
f 42//21 45//23 41//21
f 43//22 47//24 44//22
f 47//24 43//22 48//24
f 45//23 49//25 50//25
f 49//25 45//23 46//23
f 51//26 47//24 48//24
f 47//24 51//26 52//26
f 50//25 53//27 54//27
f 53//27 50//25 49//25
f 51//26 53//27 52//26
f 53//27 51//26 54//27
