# SSTK version 0.8.0
# 170
mtllib original-170.mtl
o #ID1364
v 0.275906 0.712040 -0.072328
v 0.055962 0.712040 -0.302025
v 0.078889 0.712040 -0.284433
v 0.029353 0.712040 -0.313047
v 0.290151 0.712040 -0.053764
v 0.299039 0.712040 -0.032306
v 0.069923 0.712040 -0.268971
v 0.260208 0.712040 -0.064114
v 0.272960 0.712040 -0.047495
v 0.302070 0.712040 -0.009279
v 0.280592 0.712040 -0.029068
v 0.299039 0.712040 0.013748
v 0.283196 0.712040 -0.009294
v 0.280592 0.712040 0.010481
v 0.290151 0.712040 0.035206
v 0.272960 0.712040 0.028908
v 0.275907 0.712040 0.053768
v 0.260217 0.712040 0.045514
v 0.077885 0.712040 0.265873
v 0.068959 0.712040 0.250374
v 0.048671 0.712040 0.265942
v 0.055250 0.712040 0.283241
v 0.025579 0.712040 0.275507
v 0.028985 0.712040 0.294121
v 0.000798 0.712040 0.278769
v 0.000799 0.712040 0.297832
v -0.023983 0.712040 0.275507
v -0.027388 0.712040 0.294121
v -0.047075 0.712040 0.265942
v -0.067478 0.712040 0.250286
v -0.301128 0.712040 0.017434
v -0.290817 0.712040 0.042327
v -0.053653 0.712040 0.283241
v -0.274326 0.712040 0.063820
v -0.076308 0.712040 0.265858
v 0.049361 0.712040 -0.284749
v 0.000798 0.712040 -0.316806
v 0.025936 0.712040 -0.294452
v 0.000798 0.712040 -0.297761
v -0.027756 0.712040 -0.313047
v -0.024340 0.712040 -0.294452
v -0.054365 0.712040 -0.302025
v -0.047765 0.712040 -0.284749
v -0.077312 0.712040 -0.284417
v -0.068442 0.712040 -0.268883
v -0.274324 0.712040 -0.082379
v -0.258700 0.712040 -0.073771
v -0.273560 0.712040 -0.054405
v -0.290817 0.712040 -0.060885
v -0.282573 0.712040 -0.032645
v -0.301128 0.712040 -0.035992
v -0.285648 0.712040 -0.009294
v -0.304645 0.712040 -0.009279
v -0.282573 0.712040 0.014058
v -0.273560 0.712040 0.035818
v -0.258709 0.712040 0.055172
v -0.067478 0.712040 0.250286
v -0.258709 0.712040 0.055172
v -0.301128 0.712040 0.017434
v -0.273560 0.712040 0.035818
v -0.282573 0.712040 0.014058
v -0.304645 0.712040 -0.009279
v -0.285648 0.712040 -0.009294
v -0.301128 0.712040 -0.035992
v -0.282573 0.712040 -0.032645
v -0.290817 0.712040 -0.060885
v -0.273560 0.712040 -0.054405
v -0.274324 0.712040 -0.082379
v -0.258700 0.712040 -0.073771
v -0.068442 0.712040 -0.268883
v -0.077312 0.712040 -0.284417
v -0.047765 0.712040 -0.284749
v -0.054365 0.712040 -0.302025
v -0.024340 0.712040 -0.294452
v -0.027756 0.712040 -0.313047
v 0.000798 0.712040 -0.297761
v 0.000798 0.712040 -0.316806
v 0.025936 0.712040 -0.294452
v 0.049361 0.712040 -0.284749
v 0.069923 0.712040 -0.268971
v 0.029353 0.712040 -0.313047
v -0.076308 0.712040 0.265858
v -0.053653 0.712040 0.283241
v -0.274326 0.712040 0.063820
v -0.290817 0.712040 0.042327
v -0.027388 0.712040 0.294121
v -0.047075 0.712040 0.265942
v -0.023983 0.712040 0.275507
v 0.000799 0.712040 0.297832
v 0.000798 0.712040 0.278769
v 0.028985 0.712040 0.294121
v 0.025579 0.712040 0.275507
v 0.055250 0.712040 0.283241
v 0.048671 0.712040 0.265942
v 0.077885 0.712040 0.265873
v 0.068959 0.712040 0.250374
v 0.260217 0.712040 0.045514
v 0.275907 0.712040 0.053768
v 0.272960 0.712040 0.028908
v 0.290151 0.712040 0.035206
v 0.280592 0.712040 0.010481
v 0.299039 0.712040 0.013748
v 0.283196 0.712040 -0.009294
v 0.280592 0.712040 -0.029068
v 0.302070 0.712040 -0.009279
v 0.272960 0.712040 -0.047495
v 0.299039 0.712040 -0.032306
v 0.260208 0.712040 -0.064114
v 0.290151 0.712040 -0.053764
v 0.275906 0.712040 -0.072328
v 0.055962 0.712040 -0.302025
v 0.078889 0.712040 -0.284433
vn 0 -1 0
vn 0 1 0
usemtl material_0_0
f 57//2 58//2 59//2
f 58//2 60//2 59//2
f 60//2 61//2 59//2
f 59//2 61//2 62//2
f 61//2 63//2 62//2
f 62//2 63//2 64//2
f 63//2 65//2 64//2
f 64//2 65//2 66//2
f 65//2 67//2 66//2
f 66//2 67//2 68//2
f 67//2 69//2 68//2
f 69//2 70//2 68//2
f 68//2 70//2 71//2
f 70//2 72//2 71//2
f 71//2 72//2 73//2
f 72//2 74//2 73//2
f 73//2 74//2 75//2
f 74//2 76//2 75//2
f 75//2 76//2 77//2
f 76//2 78//2 77//2
f 78//2 79//2 77//2
f 80//2 81//2 79//2
f 77//2 79//2 81//2
f 82//2 83//2 84//2
f 84//2 83//2 85//2
f 83//2 86//2 85//2
f 85//2 86//2 59//2
f 59//2 86//2 57//2
f 57//2 86//2 87//2
f 87//2 86//2 88//2
f 86//2 89//2 88//2
f 88//2 89//2 90//2
f 89//2 91//2 90//2
f 90//2 91//2 92//2
f 91//2 93//2 92//2
f 92//2 93//2 94//2
f 93//2 95//2 94//2
f 94//2 95//2 96//2
f 96//2 95//2 97//2
f 95//2 98//2 97//2
f 97//2 98//2 99//2
f 98//2 100//2 99//2
f 99//2 100//2 101//2
f 100//2 102//2 101//2
f 101//2 102//2 103//2
f 103//2 102//2 104//2
f 102//2 105//2 104//2
f 104//2 105//2 106//2
f 105//2 107//2 106//2
f 106//2 107//2 108//2
f 108//2 107//2 80//2
f 80//2 107//2 81//2
f 107//2 109//2 81//2
f 109//2 110//2 81//2
f 81//2 110//2 111//2
f 112//2 111//2 110//2
usemtl material_1_0
f 1//1 2//1 3//1
f 2//1 1//1 4//1
f 4//1 1//1 5//1
f 4//1 5//1 6//1
f 4//1 6//1 7//1
f 7//1 6//1 8//1
f 8//1 6//1 9//1
f 9//1 6//1 10//1
f 9//1 10//1 11//1
f 11//1 10//1 12//1
f 11//1 12//1 13//1
f 13//1 12//1 14//1
f 14//1 12//1 15//1
f 14//1 15//1 16//1
f 16//1 15//1 17//1
f 16//1 17//1 18//1
f 18//1 17//1 19//1
f 18//1 19//1 20//1
f 20//1 19//1 21//1
f 21//1 19//1 22//1
f 21//1 22//1 23//1
f 23//1 22//1 24//1
f 23//1 24//1 25//1
f 25//1 24//1 26//1
f 25//1 26//1 27//1
f 27//1 26//1 28//1
f 27//1 28//1 29//1
f 29//1 28//1 30//1
f 30//1 28//1 31//1
f 31//1 28//1 32//1
f 32//1 28//1 33//1
f 32//1 33//1 34//1
f 34//1 33//1 35//1
f 4//1 36//1 37//1
f 36//1 4//1 7//1
f 37//1 36//1 38//1
f 37//1 38//1 39//1
f 37//1 39//1 40//1
f 40//1 39//1 41//1
f 40//1 41//1 42//1
f 42//1 41//1 43//1
f 42//1 43//1 44//1
f 44//1 43//1 45//1
f 44//1 45//1 46//1
f 46//1 45//1 47//1
f 46//1 47//1 48//1
f 46//1 48//1 49//1
f 49//1 48//1 50//1
f 49//1 50//1 51//1
f 51//1 50//1 52//1
f 51//1 52//1 53//1
f 53//1 52//1 54//1
f 53//1 54//1 31//1
f 31//1 54//1 55//1
f 31//1 55//1 56//1
f 31//1 56//1 30//1
