# SSTK version 0.8.0
# 128
mtllib original-128.mtl
o #ID1145
v -0.033202 -0.523151 0.318349
v -0.034879 -0.522224 0.321061
v -0.034878 -0.522811 0.318277
v -0.033203 -0.522564 0.321133
v -0.033203 -0.522564 0.321133
v -0.033202 -0.523151 0.318349
v -0.034879 -0.522224 0.321061
v -0.034878 -0.522811 0.318277
v -0.034800 -0.523973 0.321430
v -0.033202 -0.523151 0.318349
v -0.034799 -0.524560 0.318645
v -0.033203 -0.522564 0.321133
v -0.033203 -0.522564 0.321133
v -0.034800 -0.523973 0.321430
v -0.033202 -0.523151 0.318349
v -0.034799 -0.524560 0.318645
v -0.037725 -0.522625 0.318237
v -0.037726 -0.522039 0.321021
v -0.037726 -0.522039 0.321021
v -0.037725 -0.522625 0.318237
v -0.036207 -0.525444 0.321739
v -0.036207 -0.526031 0.318955
v -0.036207 -0.525444 0.321739
v -0.036207 -0.526031 0.318955
v -0.040475 -0.522881 0.318290
v -0.040476 -0.522294 0.321074
v -0.040476 -0.522294 0.321074
v -0.040475 -0.522881 0.318290
v -0.037646 -0.527780 0.319323
v -0.037647 -0.527193 0.322107
v -0.037646 -0.527780 0.319323
v -0.037647 -0.527193 0.322107
v -0.041637 -0.522613 0.321141
v -0.041637 -0.523200 0.318357
v -0.041637 -0.522613 0.321141
v -0.041637 -0.523200 0.318357
v -0.038864 -0.529622 0.319711
v -0.038864 -0.529035 0.322495
v -0.038864 -0.529622 0.319711
v -0.038864 -0.529035 0.322495
v -0.042657 -0.523060 0.321235
v -0.042656 -0.523647 0.318451
v -0.042657 -0.523060 0.321235
v -0.042656 -0.523647 0.318451
v -0.041630 -0.528803 0.322445
v -0.041629 -0.529390 0.319661
v -0.041630 -0.528803 0.322445
v -0.041629 -0.529390 0.319661
v -0.043507 -0.524191 0.318565
v -0.043508 -0.523604 0.321349
v -0.043508 -0.523604 0.321349
v -0.043507 -0.524191 0.318565
v -0.042748 -0.528505 0.322382
v -0.042747 -0.529092 0.319598
v -0.042748 -0.528505 0.322382
v -0.042747 -0.529092 0.319598
v -0.044165 -0.524800 0.318693
v -0.044166 -0.524213 0.321477
v -0.044166 -0.524213 0.321477
v -0.044165 -0.524800 0.318693
v -0.043732 -0.528075 0.322291
v -0.043731 -0.528662 0.319507
v -0.043732 -0.528075 0.322291
v -0.043731 -0.528662 0.319507
v -0.044630 -0.524889 0.321620
v -0.044629 -0.525475 0.318835
v -0.044630 -0.524889 0.321620
v -0.044629 -0.525475 0.318835
v -0.044656 -0.527247 0.322117
v -0.044655 -0.527834 0.319333
v -0.044656 -0.527247 0.322117
v -0.044655 -0.527834 0.319333
v -0.044901 -0.525630 0.321776
v -0.044900 -0.526216 0.318992
v -0.044901 -0.525630 0.321776
v -0.044900 -0.526216 0.318992
v -0.044964 -0.526187 0.321893
v -0.044963 -0.526774 0.319109
v -0.044963 -0.526774 0.319109
v -0.044964 -0.526187 0.321893
vn -0.20316278782606992 -0.9581154061593231 0.2018409029976196
vn -0.13517270270584883 -0.9695375722018316 0.2042675611353265
vn -0.7003105144555459 0.698457241265566 -0.14738611015527625
vn -0.6694160752199021 0.7268841358992001 -0.15336743857564958
vn 0.013989743628411933 -0.9784138060777238 0.20618125799818443
vn -0.7549482886281513 0.6416475768295961 -0.13543067837876677
vn 0.18313129164087097 -0.9619515565933681 0.20276127043777978
vn -0.8103658065985802 0.5732855435094076 -0.12104108847393888
vn 0.3405616258492695 -0.9199972556125411 0.1939660502879178
vn -0.4399013177838841 0.8787217106617519 -0.18529702054724623
vn 0.47918484699613056 -0.8588242313752165 0.18111549357264675
vn 0.17493150875368782 0.963432575582744 -0.20296955326146596
vn 0.6195239853766692 -0.7680725979291624 0.1620324530868913
vn 0.3362140201087529 0.9215666581945277 -0.1941005594697814
vn 0.763244095288574 -0.6321809038871883 0.13343820954847893
vn 0.5484900785500958 0.8182204369020786 -0.17226128516843575
vn 0.8925756433535744 -0.44115578455235066 0.09322174986532049
vn 0.8508374136290698 0.5141875040439594 -0.10810599545833986
vn 0.9743536711780777 -0.220129253024195 0.046669427088964946
vn 0.9965428760272571 0.08135252198166816 -0.01685418068447247
vn 0.20316278782606992 0.9581154061593231 -0.2018409029976196
vn 0.13517270270584883 0.9695375722018316 -0.2042675611353265
vn 0.6694160752199021 -0.7268841358992001 0.15336743857564958
vn 0.7003105144555459 -0.698457241265566 0.14738611015527625
vn -0.013989743628411933 0.9784138060777238 -0.20618125799818443
vn 0.7549482886281513 -0.6416475768295961 0.13543067837876677
vn -0.18313129164087097 0.9619515565933681 -0.20276127043777978
vn 0.8103658065985802 -0.5732855435094076 0.12104108847393888
vn -0.3405616258492695 0.9199972556125411 -0.1939660502879178
vn 0.4399013177838841 -0.8787217106617519 0.18529702054724623
vn -0.47918484699613056 0.8588242313752165 -0.18111549357264675
vn -0.17493150875368782 -0.963432575582744 0.20296955326146596
vn -0.6195239853766692 0.7680725979291624 -0.1620324530868913
vn -0.3362140201087529 -0.9215666581945277 0.1941005594697814
vn -0.763244095288574 0.6321809038871883 -0.13343820954847893
vn -0.5484900785500958 -0.8182204369020786 0.17226128516843575
vn -0.8925756433535744 0.44115578455235066 -0.09322174986532049
vn -0.8508374136290698 -0.5141875040439594 0.10810599545833986
vn -0.9743536711780777 0.220129253024195 -0.046669427088964946
vn -0.9965428760272571 -0.08135252198166816 0.01685418068447247
usemtl material_0_0
f 5//21 6//21 7//22
f 8//22 7//22 6//21
f 13//23 14//24 15//23
f 16//24 15//23 14//24
f 19//25 7//22 20//25
f 8//22 20//25 7//22
f 14//24 23//26 16//24
f 24//26 16//24 23//26
f 27//27 19//25 28//27
f 20//25 28//27 19//25
f 24//26 23//26 31//28
f 32//28 31//28 23//26
f 27//27 28//27 35//29
f 36//29 35//29 28//27
f 31//28 32//28 39//30
f 40//30 39//30 32//28
f 35//29 36//29 43//31
f 44//31 43//31 36//29
f 40//30 47//32 39//30
f 48//32 39//30 47//32
f 51//33 43//31 52//33
f 44//31 52//33 43//31
f 47//32 55//34 48//32
f 56//34 48//32 55//34
f 59//35 51//33 60//35
f 52//33 60//35 51//33
f 55//34 63//36 56//34
f 64//36 56//34 63//36
f 59//35 60//35 67//37
f 68//37 67//37 60//35
f 63//36 71//38 64//36
f 72//38 64//36 71//38
f 67//37 68//37 75//39
f 76//39 75//39 68//37
f 79//40 72//38 80//40
f 71//38 80//40 72//38
f 75//39 76//39 80//40
f 79//40 80//40 76//39
usemtl material_1_0
f 1//1 2//2 3//2
f 2//2 1//1 4//1
f 9//3 10//4 11//3
f 10//4 9//3 12//4
f 2//2 17//5 3//2
f 17//5 2//2 18//5
f 21//6 11//3 22//6
f 11//3 21//6 9//3
f 18//5 25//7 17//5
f 25//7 18//5 26//7
f 21//6 29//8 30//8
f 29//8 21//6 22//6
f 25//7 33//9 34//9
f 33//9 25//7 26//7
f 30//8 37//10 38//10
f 37//10 30//8 29//8
f 34//9 41//11 42//11
f 41//11 34//9 33//9
f 45//12 37//10 46//12
f 37//10 45//12 38//10
f 41//11 49//13 42//11
f 49//13 41//11 50//13
f 53//14 46//12 54//14
f 46//12 53//14 45//12
f 50//13 57//15 49//13
f 57//15 50//13 58//15
f 61//16 54//14 62//16
f 54//14 61//16 53//14
f 57//15 65//17 66//17
f 65//17 57//15 58//15
f 69//18 62//16 70//18
f 62//16 69//18 61//16
f 66//17 73//19 74//19
f 73//19 66//17 65//17
f 70//18 77//20 69//18
f 77//20 70//18 78//20
f 74//19 77//20 78//20
f 77//20 74//19 73//19
