# SSTK version 0.8.0
# 131
mtllib original-131.mtl
o #ID1163
v -0.017821 -0.539465 0.321791
v -0.017167 -0.538287 0.324451
v -0.017166 -0.538874 0.321667
v -0.017822 -0.538878 0.324575
v -0.017822 -0.538878 0.324575
v -0.017821 -0.539465 0.321791
v -0.017167 -0.538287 0.324451
v -0.017166 -0.538874 0.321667
vn -0.6644883436298313 0.7312005755490236 -0.15427559592125986
vn -0.9534006993021372 -0.29527907011456495 0.061946568286496535
vn 0.6644883436298313 -0.7312005755490236 0.15427559592125986
vn 0.9534006993021372 0.29527907011456495 -0.061946568286496535
usemtl material_0_0
f 5//3 6//3 7//4
f 8//4 7//4 6//3
usemtl material_1_0
f 1//1 2//2 3//2
f 2//2 1//1 4//1
