# SSTK version 0.8.0
# 139
mtllib original-139.mtl
o #ID1215
v -0.061871 -0.450016 0.302924
v -0.062194 -0.465200 0.305577
v -0.063147 -0.459393 0.304557
v -0.060132 -0.469459 0.306332
v -0.058041 -0.440893 0.301348
v -0.057280 -0.472500 0.306878
v -0.056953 -0.465489 0.305654
v -0.056179 -0.459123 0.304544
v -0.051657 -0.432025 0.299829
v -0.053856 -0.451758 0.303268
v -0.046885 -0.437891 0.300879
v -0.042720 -0.423411 0.298368
v -0.040025 -0.427984 0.299181
v -0.035096 -0.419752 0.297766
v -0.036636 -0.424516 0.298591
v -0.033276 -0.422038 0.298175
v -0.028783 -0.418529 0.297584
v -0.029944 -0.420550 0.297931
v -0.026639 -0.420052 0.297861
v -0.027890 -0.418528 0.297588
v -0.023695 -0.419038 0.297698
v -0.026341 -0.420052 0.297862
v -0.024160 -0.420373 0.297929
v -0.022500 -0.421339 0.298107
v -0.020281 -0.420575 0.297984
v -0.021361 -0.422952 0.298394
v -0.020743 -0.425210 0.298792
v -0.056316 -0.468825 0.306240
v -0.053640 -0.474323 0.307215
v -0.055121 -0.471208 0.306663
v -0.053368 -0.472636 0.306921
v -0.049210 -0.474928 0.307343
v -0.051056 -0.473111 0.307016
v -0.050759 -0.473111 0.307017
v -0.047674 -0.472650 0.306952
v -0.048614 -0.474927 0.307345
v -0.042406 -0.473631 0.307150
v -0.044553 -0.471275 0.306727
v -0.041398 -0.468985 0.306343
v -0.034976 -0.469753 0.306509
v -0.038207 -0.465781 0.305798
v -0.031719 -0.456626 0.304230
v -0.026325 -0.460926 0.305009
v -0.025090 -0.443812 0.302023
v -0.020146 -0.451831 0.303450
v -0.021829 -0.434466 0.300405
v -0.020743 -0.426735 0.299059
v -0.017649 -0.423139 0.298446
v -0.016439 -0.442466 0.301831
v -0.015799 -0.426731 0.299083
v -0.015203 -0.432832 0.300153
v -0.015203 -0.431013 0.299835
v -0.028783 -0.418529 0.297584
v -0.027914 -0.417687 0.302399
v -0.027890 -0.418528 0.297588
v -0.028807 -0.417688 0.302395
v -0.023695 -0.419038 0.297698
v -0.023719 -0.418197 0.302509
v -0.020281 -0.420575 0.297984
v -0.020305 -0.419734 0.302795
v -0.017673 -0.422298 0.303257
v -0.017649 -0.423139 0.298446
v -0.015823 -0.425890 0.303894
v -0.015799 -0.426731 0.299083
v -0.015203 -0.431013 0.299835
v -0.015227 -0.430172 0.304646
v -0.015203 -0.432832 0.300153
v -0.015227 -0.431991 0.304964
v -0.016463 -0.441625 0.306642
v -0.016439 -0.442466 0.301831
v -0.020170 -0.450990 0.308261
v -0.020146 -0.451831 0.303450
v -0.026349 -0.460085 0.309820
v -0.026325 -0.460926 0.305009
v -0.035000 -0.468911 0.311320
v -0.034976 -0.469753 0.306509
v -0.042406 -0.473631 0.307150
v -0.042430 -0.472790 0.311961
v -0.048614 -0.474927 0.307345
v -0.048639 -0.474086 0.312157
v -0.049210 -0.474928 0.307343
v -0.049234 -0.474087 0.312154
v -0.053640 -0.474323 0.307215
v -0.053664 -0.473482 0.312026
v -0.057280 -0.472500 0.306878
v -0.057304 -0.471659 0.311689
v -0.060156 -0.468618 0.311143
v -0.060132 -0.469459 0.306332
v -0.062218 -0.464359 0.310388
v -0.062194 -0.465200 0.305577
v -0.063147 -0.459393 0.304557
v -0.063171 -0.458552 0.309368
v -0.061895 -0.449174 0.307735
v -0.061871 -0.450016 0.302924
v -0.058041 -0.440893 0.301348
v -0.058065 -0.440052 0.306159
v -0.051657 -0.432025 0.299829
v -0.051681 -0.431183 0.304640
v -0.042720 -0.423411 0.298368
v -0.042744 -0.422569 0.303179
v -0.035096 -0.419752 0.297766
v -0.035120 -0.418911 0.302577
v -0.057304 -0.471659 0.311689
v -0.056340 -0.467984 0.311051
v -0.056977 -0.464648 0.310465
v -0.053664 -0.473482 0.312026
v -0.055145 -0.470367 0.311474
v -0.053392 -0.471795 0.311732
v -0.049234 -0.474087 0.312154
v -0.051081 -0.472270 0.311827
v -0.050783 -0.472269 0.311828
v -0.047698 -0.471809 0.311763
v -0.048639 -0.474086 0.312157
v -0.042430 -0.472790 0.311961
v -0.044577 -0.470434 0.311538
v -0.041422 -0.468144 0.311154
v -0.035000 -0.468911 0.311320
v -0.038231 -0.464939 0.310609
v -0.031743 -0.455785 0.309041
v -0.026349 -0.460085 0.309820
v -0.025114 -0.442971 0.306834
v -0.020170 -0.450990 0.308261
v -0.021853 -0.433625 0.305216
v -0.020767 -0.425894 0.303870
v -0.020767 -0.424369 0.303603
v -0.020305 -0.419734 0.302795
v -0.017673 -0.422298 0.303257
v -0.016463 -0.441625 0.306642
v -0.015823 -0.425890 0.303894
v -0.015227 -0.431991 0.304964
v -0.015227 -0.430172 0.304646
v -0.062218 -0.464359 0.310388
v -0.061895 -0.449174 0.307735
v -0.063171 -0.458552 0.309368
v -0.060156 -0.468618 0.311143
v -0.058065 -0.440052 0.306159
v -0.056203 -0.458282 0.309355
v -0.051681 -0.431183 0.304640
v -0.053880 -0.450917 0.308079
v -0.046909 -0.437050 0.305690
v -0.042744 -0.422569 0.303179
v -0.040049 -0.427143 0.303992
v -0.035120 -0.418911 0.302577
v -0.036660 -0.423675 0.303403
v -0.033300 -0.421197 0.302986
v -0.028807 -0.417688 0.302395
v -0.029968 -0.419709 0.302743
v -0.026663 -0.419211 0.302672
v -0.027914 -0.417687 0.302399
v -0.023719 -0.418197 0.302509
v -0.026365 -0.419211 0.302673
v -0.024184 -0.419532 0.302740
v -0.022524 -0.420498 0.302918
v -0.021385 -0.422111 0.303205
vn 0.004925489468300207 -0.17222553090541712 -0.9850452304629697
vn -0.09653373317220863 0.9803746771964769 -0.17189162478649309
vn 0.061724878254195946 0.9832311907703859 -0.17159972290407047
vn 0.27300101209154803 0.9478692125091746 -0.1643605894800443
vn 0.5686983713013569 0.8107327240511689 -0.13890504897862843
vn 0.8080826741878017 0.5809389983532668 -0.09753087649454512
vn 0.9545018737518481 0.29452210454140076 -0.046721546857046596
vn 0.9976700009789663 0.0678767191147581 -0.006878964227674462
vn 0.9980149664479377 -0.06100022810947661 0.01565563529575527
vn 0.9691942573472303 -0.24174942734580285 0.04711375492493882
vn 0.8865322585735658 -0.45498088088155647 0.08398185840225
vn 0.7781104803564731 -0.6180698426630462 0.1119542314961609
vn 0.6008748508862836 -0.7868835442997564 0.14058343175011637
vn 0.3403858941268462 -0.9259450810707838 0.16359446787800344
vn 0.10383142276436737 -0.9796446457676391 0.17180047632507883
vn -0.06921413133101807 -0.982753499417414 0.17147875497250264
vn -0.3000621271944025 -0.9399188303653705 0.16283523005837494
vn -0.6037446219327781 -0.7857724092013622 0.13436574126291953
vn -0.8280636709677317 -0.5529444570350317 0.0925363942331772
vn -0.9545565828987046 -0.2943495719551901 0.04669110766028892
vn -0.9998971127276235 -0.014119398747371977 -0.002531113979020488
vn -0.9656560039998897 0.25507937179220896 -0.049426673214541306
vn -0.8753197509190079 0.4755575508447193 -0.08752342249739907
vn -0.7603626869451431 0.6391377106891952 -0.11554899859599392
vn -0.5756180161842912 0.8050065450227386 -0.14362577037083038
vn -0.31741912450401644 0.9338447481044267 -0.16486080746157847
vn -0.004925489468300207 0.17222553090541712 0.9850452304629697
usemtl material_0_0
f 1//1 2//1 3//1
f 2//1 1//1 4//1
f 4//1 1//1 5//1
f 4//1 5//1 6//1
f 6//1 5//1 7//1
f 7//1 5//1 8//1
f 8//1 5//1 9//1
f 8//1 9//1 10//1
f 10//1 9//1 11//1
f 11//1 9//1 12//1
f 11//1 12//1 13//1
f 13//1 12//1 14//1
f 13//1 14//1 15//1
f 15//1 14//1 16//1
f 16//1 14//1 17//1
f 16//1 17//1 18//1
f 18//1 17//1 19//1
f 19//1 17//1 20//1
f 19//1 20//1 21//1
f 19//1 21//1 22//1
f 22//1 21//1 23//1
f 23//1 21//1 24//1
f 24//1 21//1 25//1
f 24//1 25//1 26//1
f 26//1 25//1 27//1
f 6//1 28//1 29//1
f 28//1 6//1 7//1
f 29//1 28//1 30//1
f 29//1 30//1 31//1
f 29//1 31//1 32//1
f 32//1 31//1 33//1
f 32//1 33//1 34//1
f 32//1 34//1 35//1
f 32//1 35//1 36//1
f 36//1 35//1 37//1
f 37//1 35//1 38//1
f 37//1 38//1 39//1
f 37//1 39//1 40//1
f 40//1 39//1 41//1
f 40//1 41//1 42//1
f 40//1 42//1 43//1
f 43//1 42//1 44//1
f 43//1 44//1 45//1
f 45//1 44//1 46//1
f 45//1 46//1 47//1
f 45//1 47//1 27//1
f 45//1 27//1 25//1
f 45//1 25//1 48//1
f 45//1 48//1 49//1
f 49//1 48//1 50//1
f 49//1 50//1 51//1
f 51//1 50//1 52//1
f 53//2 54//3 55//3
f 54//3 53//2 56//2
f 54//3 57//4 55//3
f 57//4 54//3 58//4
f 58//4 59//5 57//4
f 59//5 58//4 60//5
f 59//5 61//6 62//6
f 61//6 59//5 60//5
f 62//6 63//7 64//7
f 63//7 62//6 61//6
f 65//8 63//7 66//8
f 63//7 65//8 64//7
f 67//9 66//8 68//9
f 66//8 67//9 65//8
f 67//9 69//10 70//10
f 69//10 67//9 68//9
f 70//10 71//11 72//11
f 71//11 70//10 69//10
f 72//11 73//12 74//12
f 73//12 72//11 71//11
f 74//12 75//13 76//13
f 75//13 74//12 73//12
f 75//13 77//14 76//13
f 77//14 75//13 78//14
f 78//14 79//15 77//14
f 79//15 78//14 80//15
f 80//15 81//16 79//15
f 81//16 80//15 82//16
f 82//16 83//17 81//16
f 83//17 82//16 84//17
f 84//17 85//18 83//17
f 85//18 84//17 86//18
f 87//19 85//18 86//18
f 85//18 87//19 88//19
f 89//20 88//19 87//19
f 88//19 89//20 90//20
f 89//20 91//21 90//20
f 91//21 89//20 92//21
f 93//22 91//21 92//21
f 91//21 93//22 94//22
f 93//22 95//23 94//22
f 95//23 93//22 96//23
f 96//23 97//24 95//23
f 97//24 96//23 98//24
f 98//24 99//25 97//24
f 99//25 98//24 100//25
f 100//25 101//26 99//25
f 101//26 100//25 102//26
f 102//26 53//2 101//26
f 53//2 102//26 56//2
f 103//27 104//27 105//27
f 104//27 103//27 106//27
f 104//27 106//27 107//27
f 107//27 106//27 108//27
f 108//27 106//27 109//27
f 108//27 109//27 110//27
f 110//27 109//27 111//27
f 111//27 109//27 112//27
f 112//27 109//27 113//27
f 112//27 113//27 114//27
f 112//27 114//27 115//27
f 115//27 114//27 116//27
f 116//27 114//27 117//27
f 116//27 117//27 118//27
f 118//27 117//27 119//27
f 119//27 117//27 120//27
f 119//27 120//27 121//27
f 121//27 120//27 122//27
f 121//27 122//27 123//27
f 123//27 122//27 124//27
f 124//27 122//27 125//27
f 125//27 122//27 126//27
f 126//27 122//27 127//27
f 127//27 122//27 128//27
f 127//27 128//27 129//27
f 129//27 128//27 130//27
f 129//27 130//27 131//27
f 132//27 133//27 134//27
f 133//27 132//27 135//27
f 133//27 135//27 136//27
f 136//27 135//27 103//27
f 136//27 103//27 105//27
f 136//27 105//27 137//27
f 136//27 137//27 138//27
f 138//27 137//27 139//27
f 138//27 139//27 140//27
f 138//27 140//27 141//27
f 141//27 140//27 142//27
f 141//27 142//27 143//27
f 143//27 142//27 144//27
f 143//27 144//27 145//27
f 143//27 145//27 146//27
f 146//27 145//27 147//27
f 146//27 147//27 148//27
f 146//27 148//27 149//27
f 149//27 148//27 150//27
f 150//27 148//27 151//27
f 150//27 151//27 152//27
f 150//27 152//27 153//27
f 150//27 153//27 126//27
f 126//27 153//27 154//27
f 126//27 154//27 125//27
