# SSTK version 0.8.0
# 40
mtllib original-40.mtl
o #ID253
v 0.052333 -0.233712 0.003459
v 0.052333 -0.233712 -0.024122
v 0.054148 -0.233712 -0.010332
v 0.047010 -0.233712 0.016309
v 0.047010 -0.233712 -0.036973
v 0.038543 -0.233712 0.027344
v 0.038543 -0.233712 -0.048008
v 0.027507 -0.233712 0.035812
v 0.027507 -0.233712 -0.056475
v 0.014657 -0.233712 0.041135
v 0.014657 -0.233712 -0.061798
v 0.014103 -0.233712 -0.007996
v 0.000867 -0.233712 0.042950
v 0.008653 -0.233712 -0.002545
v 0.003202 -0.233712 0.002905
v -0.001469 -0.233712 0.002905
v -0.012924 -0.233712 0.041135
v -0.006920 -0.233712 -0.002545
v -0.012370 -0.233712 -0.007996
v -0.012370 -0.233712 -0.012668
v 0.014103 -0.233712 -0.012668
v 0.000866 -0.233712 -0.063613
v 0.008653 -0.233712 -0.018118
v 0.003202 -0.233712 -0.023569
v -0.001469 -0.233712 -0.023569
v -0.012924 -0.233712 -0.061798
v -0.006920 -0.233712 -0.018118
v -0.025774 -0.233712 0.035812
v -0.025774 -0.233712 -0.056475
v -0.036809 -0.233712 0.027344
v -0.036809 -0.233712 -0.048008
v -0.045277 -0.233712 0.016309
v -0.045277 -0.233712 -0.036972
v -0.050600 -0.233712 0.003459
v -0.050600 -0.233712 -0.024122
v -0.052415 -0.233712 -0.010332
v -0.052415 -0.233712 -0.010332
v -0.050600 -0.233712 0.003459
v -0.050600 -0.233712 -0.024122
v -0.045277 -0.233712 -0.036972
v -0.045277 -0.233712 0.016309
v -0.036809 -0.233712 -0.048008
v -0.036809 -0.233712 0.027344
v -0.025774 -0.233712 -0.056475
v -0.025774 -0.233712 0.035812
v -0.012924 -0.233712 -0.061798
v -0.012924 -0.233712 0.041135
v -0.012370 -0.233712 -0.012668
v -0.006920 -0.233712 -0.018118
v -0.001469 -0.233712 -0.023569
v 0.000866 -0.233712 -0.063613
v 0.003202 -0.233712 -0.023569
v 0.008653 -0.233712 -0.018118
v 0.014103 -0.233712 -0.012668
v 0.014103 -0.233712 -0.007996
v 0.014657 -0.233712 -0.061798
v -0.012370 -0.233712 -0.007996
v -0.006920 -0.233712 -0.002545
v -0.001469 -0.233712 0.002905
v 0.000867 -0.233712 0.042950
v 0.003202 -0.233712 0.002905
v 0.008653 -0.233712 -0.002545
v 0.014657 -0.233712 0.041135
v 0.027507 -0.233712 -0.056475
v 0.027507 -0.233712 0.035812
v 0.038543 -0.233712 -0.048008
v 0.038543 -0.233712 0.027344
v 0.047010 -0.233712 -0.036973
v 0.047010 -0.233712 0.016309
v 0.052333 -0.233712 -0.024122
v 0.052333 -0.233712 0.003459
v 0.054148 -0.233712 -0.010332
vn 0 -1 0
vn 0 1 0
usemtl material_0_0
f 1//1 2//1 3//1
f 2//1 1//1 4//1
f 2//1 4//1 5//1
f 5//1 4//1 6//1
f 5//1 6//1 7//1
f 7//1 6//1 8//1
f 7//1 8//1 9//1
f 9//1 8//1 10//1
f 9//1 10//1 11//1
f 11//1 10//1 12//1
f 12//1 10//1 13//1
f 12//1 13//1 14//1
f 14//1 13//1 15//1
f 15//1 13//1 16//1
f 16//1 13//1 17//1
f 16//1 17//1 18//1
f 18//1 17//1 19//1
f 19//1 17//1 20//1
f 11//1 21//1 22//1
f 21//1 11//1 12//1
f 22//1 21//1 23//1
f 22//1 23//1 24//1
f 22//1 24//1 25//1
f 22//1 25//1 26//1
f 26//1 25//1 27//1
f 26//1 27//1 20//1
f 26//1 20//1 17//1
f 26//1 17//1 28//1
f 26//1 28//1 29//1
f 29//1 28//1 30//1
f 29//1 30//1 31//1
f 31//1 30//1 32//1
f 31//1 32//1 33//1
f 33//1 32//1 34//1
f 33//1 34//1 35//1
f 35//1 34//1 36//1
f 37//2 38//2 39//2
f 39//2 38//2 40//2
f 38//2 41//2 40//2
f 40//2 41//2 42//2
f 41//2 43//2 42//2
f 42//2 43//2 44//2
f 43//2 45//2 44//2
f 44//2 45//2 46//2
f 45//2 47//2 46//2
f 47//2 48//2 46//2
f 48//2 49//2 46//2
f 49//2 50//2 46//2
f 46//2 50//2 51//2
f 50//2 52//2 51//2
f 52//2 53//2 51//2
f 53//2 54//2 51//2
f 55//2 56//2 54//2
f 51//2 54//2 56//2
f 48//2 47//2 57//2
f 57//2 47//2 58//2
f 58//2 47//2 59//2
f 47//2 60//2 59//2
f 59//2 60//2 61//2
f 61//2 60//2 62//2
f 62//2 60//2 55//2
f 60//2 63//2 55//2
f 55//2 63//2 56//2
f 56//2 63//2 64//2
f 63//2 65//2 64//2
f 64//2 65//2 66//2
f 65//2 67//2 66//2
f 66//2 67//2 68//2
f 67//2 69//2 68//2
f 68//2 69//2 70//2
f 69//2 71//2 70//2
f 72//2 70//2 71//2
