# SSTK version 0.8.0
# 23
mtllib original-23.mtl
o #ID133
v 0.048534 -0.585654 0.331535
v 0.046772 -0.584306 0.331251
v 0.046605 -0.586293 0.331669
v 0.050196 -0.584500 0.331292
v 0.051450 -0.582929 0.330962
v 0.047514 -0.582450 0.330860
v 0.052192 -0.581072 0.330571
v 0.048768 -0.580879 0.330529
v 0.052359 -0.579085 0.330152
v 0.050429 -0.579725 0.330286
vn -0.00028353409276045237 0.20619739473510962 0.9785103750154475
usemtl material_0_0
f 1//1 2//1 3//1
f 2//1 1//1 4//1
f 2//1 4//1 5//1
f 2//1 5//1 6//1
f 6//1 5//1 7//1
f 6//1 7//1 8//1
f 8//1 7//1 9//1
f 8//1 9//1 10//1
