# SSTK version 0.8.0
# 143
mtllib original-143.mtl
o #ID1239
v 0.045487 -0.437942 0.301349
v 0.045487 -0.439174 0.301565
v 0.044832 -0.438588 0.301459
v 0.047929 -0.439172 0.301577
v 0.051026 -0.437937 0.301376
v 0.050028 -0.439698 0.301679
v 0.050728 -0.441281 0.301959
v 0.050728 -0.441633 0.302021
v 0.039889 -0.465404 0.306123
v 0.039889 -0.465111 0.306072
v 0.045190 -0.465399 0.306149
v 0.050431 -0.455656 0.304471
v 0.052739 -0.450443 0.303571
v 0.055002 -0.438696 0.301529
v 0.055672 -0.446719 0.302935
v 0.055995 -0.439649 0.301700
v 0.056327 -0.441922 0.302099
v 0.059230 -0.444482 0.302562
v 0.056327 -0.440983 0.301935
v 0.058344 -0.440046 0.301782
v 0.060764 -0.438706 0.301559
v 0.063414 -0.443734 0.302452
v 0.066809 -0.437630 0.301401
v 0.064963 -0.443733 0.302459
v 0.066243 -0.442280 0.302212
v 0.068060 -0.437922 0.301459
v 0.068060 -0.437629 0.301407
v 0.066785 -0.436789 0.306213
v 0.068060 -0.437629 0.301407
v 0.066809 -0.437630 0.301401
v 0.068036 -0.436787 0.306219
v 0.068060 -0.437629 0.301407
v 0.068036 -0.437081 0.306270
v 0.068060 -0.437922 0.301459
v 0.068036 -0.436787 0.306219
v 0.066243 -0.442280 0.302212
v 0.066219 -0.441439 0.307023
v 0.064963 -0.443733 0.302459
v 0.064939 -0.442892 0.307270
v 0.063414 -0.443734 0.302452
v 0.063390 -0.442893 0.307263
v 0.059230 -0.444482 0.302562
v 0.059206 -0.443641 0.307373
v 0.055648 -0.445877 0.307746
v 0.055672 -0.446719 0.302935
v 0.052715 -0.449602 0.308382
v 0.052739 -0.450443 0.303571
v 0.050407 -0.454814 0.309282
v 0.050431 -0.455656 0.304471
v 0.045166 -0.464558 0.310960
v 0.045190 -0.465399 0.306149
v 0.039889 -0.465404 0.306123
v 0.039865 -0.464563 0.310934
v 0.039865 -0.464269 0.310883
v 0.039889 -0.465404 0.306123
v 0.039865 -0.464563 0.310934
v 0.039889 -0.465111 0.306072
v 0.050704 -0.440792 0.306832
v 0.050728 -0.441633 0.302021
v 0.050704 -0.440440 0.306771
v 0.050728 -0.441281 0.301959
v 0.050004 -0.438857 0.306490
v 0.050028 -0.439698 0.301679
v 0.047905 -0.438331 0.306388
v 0.047929 -0.439172 0.301577
v 0.045487 -0.439174 0.301565
v 0.045463 -0.438333 0.306376
v 0.044832 -0.438588 0.301459
v 0.044808 -0.437747 0.306270
v 0.044808 -0.437747 0.306270
v 0.045487 -0.437942 0.301349
v 0.044832 -0.438588 0.301459
v 0.045463 -0.437101 0.306161
v 0.051026 -0.437937 0.301376
v 0.051002 -0.437096 0.306187
v 0.055002 -0.438696 0.301529
v 0.054977 -0.437855 0.306340
v 0.055995 -0.439649 0.301700
v 0.055971 -0.438807 0.306511
v 0.056303 -0.440142 0.306746
v 0.056327 -0.440983 0.301935
v 0.056303 -0.441081 0.306911
v 0.056327 -0.441922 0.302099
v 0.056303 -0.441081 0.306911
v 0.058344 -0.440046 0.301782
v 0.056327 -0.441922 0.302099
v 0.058320 -0.439205 0.306593
v 0.060740 -0.437865 0.306370
v 0.060764 -0.438706 0.301559
v 0.045463 -0.438333 0.306376
v 0.045463 -0.437101 0.306161
v 0.044808 -0.437747 0.306270
v 0.047905 -0.438331 0.306388
v 0.051002 -0.437096 0.306187
v 0.050004 -0.438857 0.306490
v 0.050704 -0.440440 0.306771
v 0.050704 -0.440792 0.306832
v 0.045166 -0.464558 0.310960
v 0.039865 -0.464269 0.310883
v 0.039865 -0.464563 0.310934
v 0.050407 -0.454814 0.309282
v 0.052715 -0.449602 0.308382
v 0.054977 -0.437855 0.306340
v 0.055648 -0.445877 0.307746
v 0.055971 -0.438807 0.306511
v 0.056303 -0.441081 0.306911
v 0.059206 -0.443641 0.307373
v 0.058320 -0.439205 0.306593
v 0.060740 -0.437865 0.306370
v 0.063390 -0.442893 0.307263
v 0.066785 -0.436789 0.306213
v 0.064939 -0.442892 0.307270
v 0.066219 -0.441439 0.307023
v 0.068036 -0.437081 0.306270
v 0.068036 -0.436787 0.306219
v 0.056303 -0.440142 0.306746
vn 0.004925489468300207 -0.17222553090541712 -0.9850452304629697
vn -0.08886292182845078 0.9810846818354179 -0.17197740605093328
vn -0.0000303406988154243 0.9850571533070441 -0.17222776720977634
vn 0.9999878692428922 0.0008781930141976604 0.0048466631913261
vn 0.9810648904937426 -0.189893565207189 0.03810662059805554
vn 0.851219888527829 -0.5162284739222965 0.09451383013362256
vn 0.41487128479439483 -0.8959297339973883 0.15871902467069662
vn 0.08924977800276875 -0.9810502802555746 0.1719733256552156
vn 0.3643795276513219 -0.9170242133818923 0.16215471593487826
vn 0.6735054855715095 -0.7275580790388312 0.1305741265734174
vn 0.8598734428667897 -0.502132090581161 0.09209248536664937
vn 0.9006958495666221 -0.4271719124206741 0.07919055380741465
vn 0.5155889706893212 -0.8435914114014281 0.15007179586208874
vn 0.0000303406988154243 -0.9850571533070441 0.17222776720977634
vn -0.977289462614227 0.207859294152437 -0.0412288745619611
vn -0.9999878692428922 -0.0008781930141976604 -0.0048466631913261
vn -0.9789954821484456 -0.20160968676236452 0.03035424412687556
vn -0.648120547208325 -0.750701455215325 0.12801203624649724
vn -0.12463248669192643 -0.977482204491939 0.1702800139845131
vn -0.36056404430407746 -0.9191009814467569 0.15889290688603952
vn -0.6726421814051406 -0.7294740008893478 0.12417800860467126
vn -0.7071196649443634 0.6959196094431999 -0.1252105292752783
vn -0.3827068119680567 0.9097380761833749 -0.16097244737972533
vn 0.0959948174572777 0.9805893449885525 -0.17096646313316902
vn 0.463725706005027 0.8731302830570792 -0.15033954369627467
vn 0.8681707859386415 0.4895682675218158 -0.08125514062734415
vn 0.992804885126435 0.11869781742158748 -0.01578886343083975
vn -0.6860063202661941 0.7161335715752858 -0.12863917061945312
vn -0.5922386655909535 0.7932146244920241 -0.14164717600793808
vn -0.3380144616713512 0.9267894226117177 -0.16373023494781164
vn -0.004925489468300207 0.17222553090541712 0.9850452304629697
usemtl material_0_0
f 1//1 2//1 3//1
f 2//1 1//1 4//1
f 4//1 1//1 5//1
f 4//1 5//1 6//1
f 6//1 5//1 7//1
f 7//1 5//1 8//1
f 8//1 9//1 10//1
f 9//1 8//1 11//1
f 11//1 8//1 12//1
f 12//1 8//1 13//1
f 13//1 8//1 5//1
f 13//1 5//1 14//1
f 13//1 14//1 15//1
f 15//1 14//1 16//1
f 15//1 16//1 17//1
f 15//1 17//1 18//1
f 17//1 16//1 19//1
f 18//1 17//1 20//1
f 18//1 20//1 21//1
f 18//1 21//1 22//1
f 22//1 21//1 23//1
f 22//1 23//1 24//1
f 24//1 23//1 25//1
f 25//1 23//1 26//1
f 26//1 23//1 27//1
f 28//2 29//3 30//2
f 29//3 28//2 31//3
f 32//4 33//5 34//5
f 33//5 32//4 35//4
f 36//6 33//5 37//6
f 33//5 36//6 34//5
f 38//7 37//6 39//7
f 37//6 38//7 36//6
f 39//7 40//8 38//7
f 40//8 39//7 41//8
f 41//8 42//9 40//8
f 42//9 41//8 43//9
f 42//9 44//10 45//10
f 44//10 42//9 43//9
f 45//10 46//11 47//11
f 46//11 45//10 44//10
f 47//11 48//12 49//12
f 48//12 47//11 46//11
f 49//12 50//13 51//13
f 50//13 49//12 48//12
f 50//13 52//14 51//13
f 52//14 50//13 53//14
f 54//15 55//16 56//16
f 55//16 54//15 57//15
f 58//15 57//15 54//15
f 57//15 58//15 59//15
f 60//17 59//15 58//15
f 59//15 60//17 61//17
f 62//18 61//17 60//17
f 61//17 62//18 63//18
f 63//18 64//19 65//19
f 64//19 63//18 62//18
f 64//19 66//20 65//19
f 66//20 64//19 67//20
f 67//20 68//21 66//20
f 68//21 67//20 69//21
f 70//22 71//23 72//22
f 71//23 70//22 73//23
f 73//23 74//24 71//23
f 74//24 73//23 75//24
f 75//24 76//25 74//24
f 76//25 75//24 77//25
f 77//25 78//26 76//25
f 78//26 77//25 79//26
f 78//26 80//27 81//27
f 80//27 78//26 79//26
f 81//27 82//4 83//4
f 82//4 81//27 80//27
f 84//28 85//29 86//28
f 85//29 84//28 87//29
f 85//29 88//30 89//30
f 88//30 85//29 87//29
f 88//30 30//2 89//30
f 30//2 88//30 28//2
f 90//31 91//31 92//31
f 91//31 90//31 93//31
f 91//31 93//31 94//31
f 94//31 93//31 95//31
f 94//31 95//31 96//31
f 94//31 96//31 97//31
f 98//31 99//31 100//31
f 99//31 98//31 97//31
f 97//31 98//31 101//31
f 97//31 101//31 102//31
f 97//31 102//31 94//31
f 94//31 102//31 103//31
f 103//31 102//31 104//31
f 103//31 104//31 105//31
f 105//31 104//31 106//31
f 106//31 104//31 107//31
f 106//31 107//31 108//31
f 108//31 107//31 109//31
f 109//31 107//31 110//31
f 109//31 110//31 111//31
f 111//31 110//31 112//31
f 111//31 112//31 113//31
f 111//31 113//31 114//31
f 111//31 114//31 115//31
f 116//31 105//31 106//31
