# SSTK version 0.8.0
# 14
mtllib original-14.mtl
o #ID73
v -0.051070 -0.577021 0.329687
v -0.052907 -0.577743 0.329839
v -0.051759 -0.577921 0.329877
v -0.052155 -0.577428 0.329773
v -0.051666 -0.576788 0.329638
v -0.050934 -0.575904 0.329452
v -0.051569 -0.575994 0.329470
v -0.051891 -0.575259 0.329315
v -0.051387 -0.574871 0.329234
v -0.052545 -0.574780 0.329214
v -0.052307 -0.574197 0.329092
v -0.053357 -0.574685 0.329194
v -0.054505 -0.574507 0.329156
v -0.053449 -0.574064 0.329063
v -0.053956 -0.578231 0.329941
v -0.052815 -0.578364 0.329970
v -0.054876 -0.577558 0.329799
v -0.053718 -0.577649 0.329819
v -0.054373 -0.577170 0.329717
v -0.055329 -0.576524 0.329581
v -0.054694 -0.576435 0.329562
v -0.055193 -0.575408 0.329346
v -0.054598 -0.575641 0.329395
v -0.054108 -0.575000 0.329260
vn -0.0002836279088071238 0.20619760640278242 0.9785103303843924
usemtl material_0_0
f 1//1 2//1 3//1
f 2//1 1//1 4//1
f 4//1 1//1 5//1
f 5//1 1//1 6//1
f 5//1 6//1 7//1
f 7//1 6//1 8//1
f 8//1 6//1 9//1
f 8//1 9//1 10//1
f 10//1 9//1 11//1
f 10//1 11//1 12//1
f 12//1 11//1 13//1
f 13//1 11//1 14//1
f 3//1 15//1 16//1
f 15//1 3//1 17//1
f 17//1 3//1 2//1
f 17//1 2//1 18//1
f 17//1 18//1 19//1
f 17//1 19//1 20//1
f 20//1 19//1 21//1
f 20//1 21//1 22//1
f 22//1 21//1 23//1
f 22//1 23//1 24//1
f 22//1 24//1 13//1
f 13//1 24//1 12//1
