# SSTK version 0.8.0
# 85
mtllib original-85.mtl
o #ID889
v -0.063485 -0.652612 0.350060
v -0.064505 -0.640141 0.352877
v -0.064503 -0.641240 0.347663
v -0.063487 -0.651514 0.355274
v -0.060465 -0.663639 0.352384
v -0.060466 -0.662541 0.357598
v -0.008362 -0.700035 0.365514
v -0.009040 -0.702512 0.366036
v -0.008590 -0.702589 0.366052
v -0.018829 -0.697293 0.364933
v -0.019936 -0.699616 0.365423
v -0.019507 -0.699769 0.365455
v -0.028650 -0.692813 0.363987
v -0.030152 -0.694913 0.364429
v -0.029757 -0.695137 0.364476
v -0.037526 -0.686733 0.362703
v -0.039378 -0.688546 0.363084
v -0.039029 -0.688833 0.363145
v -0.045189 -0.679237 0.361121
v -0.047335 -0.680707 0.361430
v -0.047041 -0.681050 0.361502
v -0.051404 -0.670552 0.359289
v -0.053779 -0.671636 0.359517
v -0.053550 -0.672023 0.359598
v -0.055984 -0.660944 0.357263
v -0.058515 -0.661608 0.357402
v -0.058359 -0.662027 0.357491
v -0.058790 -0.650703 0.355104
v -0.061400 -0.650926 0.355150
v -0.061320 -0.651366 0.355243
v -0.061322 -0.628915 0.350512
v -0.061402 -0.629355 0.350605
v -0.058792 -0.629578 0.350653
v -0.058363 -0.618253 0.348266
v -0.058519 -0.618673 0.348355
v -0.055988 -0.619336 0.348495
v -0.053556 -0.608256 0.346161
v -0.053784 -0.608643 0.346242
v -0.051409 -0.609726 0.346471
v -0.047048 -0.599227 0.344260
v -0.047341 -0.599570 0.344332
v -0.045195 -0.601040 0.344643
v -0.039037 -0.591442 0.342622
v -0.039387 -0.591729 0.342682
v -0.037534 -0.593542 0.343065
v -0.029766 -0.585136 0.341296
v -0.030161 -0.585359 0.341343
v -0.028658 -0.587459 0.341786
v -0.019517 -0.580500 0.340322
v -0.019946 -0.580653 0.340354
v -0.018838 -0.582977 0.340844
v -0.008601 -0.577677 0.339730
v -0.009051 -0.577755 0.339746
v -0.008372 -0.580231 0.340268
v 0.002650 -0.576752 0.339538
v 0.002193 -0.576752 0.339538
v 0.002422 -0.579305 0.340077
v 0.014055 -0.704629 0.366489
v 0.002661 -0.703512 0.366250
v 0.002204 -0.703512 0.366250
v 0.025324 -0.701672 0.365869
v 0.013455 -0.702586 0.366058
v 0.013905 -0.702509 0.366042
v 0.024371 -0.699763 0.365466
v 0.035898 -0.696846 0.364855
v 0.024800 -0.699610 0.365434
v 0.034620 -0.695128 0.364493
v 0.045454 -0.690297 0.363478
v 0.035015 -0.694904 0.364446
v 0.043891 -0.688822 0.363166
v 0.053703 -0.682223 0.361779
v 0.044241 -0.688534 0.363106
v 0.051902 -0.681036 0.361528
v 0.060394 -0.672870 0.359810
v 0.052196 -0.680694 0.361456
v 0.058410 -0.672007 0.359628
v 0.065324 -0.662523 0.357631
v 0.058638 -0.671620 0.359546
v 0.063217 -0.662010 0.357522
v 0.068343 -0.651495 0.355308
v 0.063373 -0.661591 0.357434
v 0.066176 -0.651349 0.355276
v 0.069359 -0.640122 0.352912
v 0.066256 -0.650909 0.355184
v 0.067199 -0.640346 0.352958
v 0.064589 -0.640123 0.352910
v 0.067199 -0.639899 0.352864
v 0.068341 -0.628750 0.350515
v 0.066254 -0.629337 0.350638
v 0.066175 -0.628897 0.350545
v 0.063369 -0.618656 0.348386
v 0.065320 -0.617723 0.348190
v 0.063213 -0.618236 0.348298
v 0.058633 -0.608627 0.346272
v 0.060389 -0.607377 0.346009
v 0.058404 -0.608240 0.346190
v 0.052189 -0.599556 0.344358
v 0.053696 -0.598026 0.344036
v 0.051895 -0.599214 0.344286
v 0.044233 -0.591717 0.342704
v 0.045446 -0.589955 0.342333
v 0.043883 -0.591430 0.342644
v 0.035006 -0.585350 0.341360
v 0.035888 -0.583408 0.340951
v 0.034611 -0.585127 0.341313
v 0.024790 -0.580647 0.340366
v 0.025314 -0.578585 0.339931
v 0.024361 -0.580494 0.340333
v 0.013894 -0.577752 0.339752
v 0.014044 -0.575632 0.339306
v 0.013444 -0.577674 0.339736
v -0.009201 -0.575635 0.339300
v 0.002422 -0.574638 0.339093
v -0.009190 -0.704632 0.366483
v 0.002433 -0.705625 0.366695
v -0.020460 -0.701679 0.365857
v -0.031034 -0.696855 0.364838
v -0.040592 -0.690309 0.363455
v -0.048842 -0.682237 0.361752
v -0.055535 -0.672887 0.359780
v -0.060466 -0.662541 0.357598
v -0.063487 -0.651514 0.355274
v -0.064505 -0.640141 0.352877
v -0.062345 -0.640364 0.352924
v -0.059735 -0.640140 0.352878
v -0.062345 -0.639917 0.352830
v -0.063489 -0.628768 0.350481
v -0.060470 -0.617740 0.348158
v -0.055540 -0.607393 0.345979
v -0.048849 -0.598040 0.344010
v -0.040600 -0.589967 0.342311
v -0.031044 -0.583417 0.340933
v -0.020470 -0.578591 0.339919
v 0.013216 -0.580228 0.340274
v 0.023683 -0.582971 0.340855
v 0.033504 -0.587450 0.341802
v 0.042380 -0.593530 0.343086
v 0.050043 -0.601027 0.344668
v 0.056258 -0.609711 0.346499
v 0.060839 -0.619320 0.348526
v 0.063644 -0.629561 0.350684
v 0.063646 -0.650686 0.355136
v 0.060842 -0.660927 0.357293
v 0.056264 -0.670537 0.359317
v 0.050049 -0.679223 0.361146
v 0.042388 -0.686722 0.362724
v 0.033513 -0.692804 0.364003
v 0.023693 -0.697287 0.364944
v 0.013226 -0.700032 0.365520
v 0.002432 -0.700958 0.365712
v -0.063489 -0.628768 0.350481
v -0.063487 -0.629867 0.345267
v -0.009189 -0.705730 0.361269
v 0.014057 -0.705727 0.361275
v 0.002434 -0.706724 0.361482
v -0.020458 -0.702777 0.360643
v 0.025326 -0.702771 0.360655
v -0.031033 -0.697954 0.359624
v 0.035899 -0.697945 0.359641
v -0.040590 -0.691407 0.358242
v 0.045456 -0.691395 0.358264
v -0.048841 -0.683336 0.356538
v 0.053705 -0.683322 0.356565
v -0.055533 -0.673985 0.354566
v 0.060396 -0.673969 0.354596
v -0.060465 -0.663639 0.352384
v 0.065326 -0.663622 0.352417
v -0.063485 -0.652612 0.350060
v 0.068344 -0.652594 0.350094
v -0.064503 -0.641240 0.347663
v 0.069360 -0.641221 0.347698
v -0.063487 -0.629867 0.345267
v 0.068343 -0.629848 0.345301
v -0.060469 -0.618839 0.342944
v 0.065322 -0.618821 0.342977
v -0.055539 -0.608492 0.340765
v 0.060390 -0.608476 0.340795
v -0.048848 -0.599139 0.338796
v 0.053698 -0.599125 0.338823
v -0.040599 -0.591065 0.337097
v 0.045447 -0.591053 0.337119
v -0.031042 -0.584516 0.335720
v 0.035890 -0.584507 0.335737
v -0.020469 -0.579690 0.334706
v 0.025315 -0.579683 0.334718
v -0.009199 -0.576733 0.334086
v 0.014046 -0.576730 0.334092
v 0.002423 -0.575737 0.333879
v -0.055533 -0.673985 0.354566
v -0.055535 -0.672887 0.359780
v -0.055539 -0.608492 0.340765
v -0.048849 -0.598040 0.344010
v -0.048848 -0.599139 0.338796
v -0.055540 -0.607393 0.345979
v -0.060469 -0.618839 0.342944
v -0.060470 -0.617740 0.348158
v -0.048841 -0.683336 0.356538
v -0.048842 -0.682237 0.361752
v -0.040590 -0.691407 0.358242
v -0.040592 -0.690309 0.363455
v -0.031034 -0.696855 0.364838
v -0.031033 -0.697954 0.359624
v -0.020460 -0.701679 0.365857
v -0.020458 -0.702777 0.360643
v -0.009190 -0.704632 0.366483
v -0.009189 -0.705730 0.361269
v 0.002433 -0.705625 0.366695
v 0.002434 -0.706724 0.361482
v 0.014055 -0.704629 0.366489
v 0.014057 -0.705727 0.361275
v 0.025324 -0.701672 0.365869
v 0.025326 -0.702771 0.360655
v 0.035898 -0.696846 0.364855
v 0.035899 -0.697945 0.359641
v 0.045454 -0.690297 0.363478
v 0.045456 -0.691395 0.358264
v 0.053703 -0.682223 0.361779
v 0.053705 -0.683322 0.356565
v 0.060394 -0.672870 0.359810
v 0.060396 -0.673969 0.354596
v 0.065324 -0.662523 0.357631
v 0.065326 -0.663622 0.352417
v 0.068343 -0.651495 0.355308
v 0.068344 -0.652594 0.350094
v 0.069359 -0.640122 0.352912
v 0.069360 -0.641221 0.347698
v 0.068341 -0.628750 0.350515
v 0.068343 -0.629848 0.345301
v 0.065320 -0.617723 0.348190
v 0.065322 -0.618821 0.342977
v 0.060389 -0.607377 0.346009
v 0.060390 -0.608476 0.340795
v 0.053696 -0.598026 0.344036
v 0.053698 -0.599125 0.338823
v 0.045446 -0.589955 0.342333
v 0.045447 -0.591053 0.337119
v 0.035890 -0.584507 0.335737
v 0.035888 -0.583408 0.340951
v 0.025315 -0.579683 0.334718
v 0.025314 -0.578585 0.339931
v 0.014046 -0.576730 0.334092
v 0.014044 -0.575632 0.339306
v 0.002423 -0.575737 0.333879
v 0.002422 -0.574638 0.339093
v -0.009199 -0.576733 0.334086
v -0.009201 -0.575635 0.339300
v -0.020469 -0.579690 0.334706
v -0.020470 -0.578591 0.339919
v -0.031042 -0.584516 0.335720
v -0.031044 -0.583417 0.340933
v -0.040599 -0.591065 0.337097
v -0.040600 -0.589967 0.342311
vn -0.9847933381525454 -0.17005390658817354 0.03554926137723797
vn -0.9999999563430658 -0.000139428793912966 -0.0002605253886262598
vn -0.939664285453344 -0.3348012948170434 0.07027889891203376
vn -0.0002836766868959982 0.20619749047502856 0.9785103547992415
vn -0.9848220796272014 0.16977919648781495 -0.036062389253985215
vn 0.0002836766868959982 -0.20619749047502856 -0.9785103547992415
vn -0.8659840283781152 -0.4893759160367462 0.10287310337112993
vn -0.8660667338858966 0.4891344191379691 -0.10332440404269076
vn -0.7660976056435921 0.6288675046326625 -0.1327408009778582
vn -0.9397208854005853 0.3345391948026307 -0.07076852890054677
vn -0.7659912100492533 -0.6290812082530927 0.13234160173622642
vn -0.6427241925106404 -0.7496720912644274 0.15778899816135963
vn -0.49992830006447825 -0.8474846001093044 0.17844200002301436
vn -0.34194239199907983 -0.9195466784840379 0.19367319546834824
vn -0.17356670398939428 -0.9636688221497257 0.2030197046663651
vn 0.00008271287922432565 -0.9785103908236127 0.20619749806629717
vn 0.17372959977794236 -0.96362039876832 0.2031101997403884
vn 0.3420978946054481 -0.9194512855011452 0.19385139694315134
vn 0.5000716142852135 -0.8473451242055452 0.17870260510487837
vn 0.6428509306531067 -0.7494928357381202 0.15812390753983338
vn 0.7660976056435921 -0.6288675046326625 0.1327408009778582
vn 0.8660667338858966 -0.4891344191379691 0.10332440404269076
vn 0.9397208854005853 -0.3345391948026307 0.07076852890054677
vn 0.9848220796272014 -0.16977919648781495 0.036062389253985215
vn 0.9999999563430658 0.000139428793912966 0.0002605253886262598
vn 0.9847933381525454 0.17005390658817354 -0.03554926137723797
vn 0.939664285453344 0.3348012948170434 -0.07027889891203376
vn 0.8659840283781152 0.4893759160367462 -0.10287310337112993
vn 0.7659912100492533 0.6290812082530927 -0.13234160173622642
vn 0.6427241925106404 0.7496720912644274 -0.15778899816135963
vn 0.49992830006447825 0.8474846001093044 -0.17844200002301436
vn 0.34194239199907983 0.9195466784840379 -0.19367319546834824
vn 0.17356670398939428 0.9636688221497257 -0.2030197046663651
vn -0.00008271287922432565 0.9785103908236127 -0.20619749806629717
vn -0.17372959977794236 0.96362039876832 -0.2031101997403884
vn -0.3420978946054481 0.9194512855011452 -0.19385139694315134
vn -0.5000716142852135 0.8473451242055452 -0.17870260510487837
vn -0.6428509306531067 0.7494928357381202 -0.15812390753983338
usemtl material_0_0
f 1//1 2//2 3//2
f 2//2 1//1 4//1
f 5//3 4//1 1//1
f 4//1 5//3 6//3
f 7//4 8//4 9//4
f 10//4 11//4 12//4
f 13//4 14//4 15//4
f 16//4 17//4 18//4
f 19//4 20//4 21//4
f 22//4 23//4 24//4
f 25//4 26//4 27//4
f 28//4 29//4 30//4
f 31//4 32//4 33//4
f 34//4 35//4 36//4
f 37//4 38//4 39//4
f 40//4 41//4 42//4
f 43//4 44//4 45//4
f 46//4 47//4 48//4
f 49//4 50//4 51//4
f 52//4 53//4 54//4
f 55//4 56//4 57//4
f 58//4 59//4 60//4
f 59//4 58//4 61//4
f 59//4 61//4 62//4
f 62//4 61//4 63//4
f 63//4 61//4 64//4
f 64//4 61//4 65//4
f 64//4 65//4 66//4
f 66//4 65//4 67//4
f 67//4 65//4 68//4
f 67//4 68//4 69//4
f 69//4 68//4 70//4
f 70//4 68//4 71//4
f 70//4 71//4 72//4
f 72//4 71//4 73//4
f 73//4 71//4 74//4
f 73//4 74//4 75//4
f 75//4 74//4 76//4
f 76//4 74//4 77//4
f 76//4 77//4 78//4
f 78//4 77//4 79//4
f 79//4 77//4 80//4
f 79//4 80//4 81//4
f 81//4 80//4 82//4
f 82//4 80//4 83//4
f 82//4 83//4 84//4
f 84//4 83//4 85//4
f 85//4 83//4 86//4
f 86//4 83//4 87//4
f 87//4 83//4 88//4
f 87//4 88//4 89//4
f 89//4 88//4 90//4
f 90//4 88//4 91//4
f 91//4 88//4 92//4
f 91//4 92//4 93//4
f 93//4 92//4 94//4
f 94//4 92//4 95//4
f 94//4 95//4 96//4
f 96//4 95//4 97//4
f 97//4 95//4 98//4
f 97//4 98//4 99//4
f 99//4 98//4 100//4
f 100//4 98//4 101//4
f 100//4 101//4 102//4
f 102//4 101//4 103//4
f 103//4 101//4 104//4
f 103//4 104//4 105//4
f 105//4 104//4 106//4
f 106//4 104//4 107//4
f 106//4 107//4 108//4
f 108//4 107//4 109//4
f 109//4 107//4 110//4
f 109//4 110//4 111//4
f 111//4 110//4 55//4
f 55//4 110//4 112//4
f 112//4 110//4 113//4
f 58//4 114//4 115//4
f 114//4 58//4 116//4
f 116//4 58//4 60//4
f 116//4 60//4 9//4
f 116//4 9//4 8//4
f 116//4 8//4 12//4
f 116//4 12//4 117//4
f 117//4 12//4 11//4
f 117//4 11//4 15//4
f 117//4 15//4 118//4
f 118//4 15//4 14//4
f 118//4 14//4 18//4
f 118//4 18//4 119//4
f 119//4 18//4 17//4
f 119//4 17//4 21//4
f 119//4 21//4 120//4
f 120//4 21//4 20//4
f 120//4 20//4 24//4
f 120//4 24//4 121//4
f 121//4 24//4 23//4
f 121//4 23//4 27//4
f 121//4 27//4 122//4
f 122//4 27//4 26//4
f 122//4 26//4 30//4
f 122//4 30//4 123//4
f 123//4 30//4 29//4
f 123//4 29//4 124//4
f 123//4 124//4 125//4
f 123//4 125//4 126//4
f 123//4 126//4 127//4
f 127//4 126//4 32//4
f 127//4 32//4 31//4
f 127//4 31//4 35//4
f 127//4 35//4 128//4
f 128//4 35//4 34//4
f 128//4 34//4 38//4
f 128//4 38//4 129//4
f 129//4 38//4 37//4
f 129//4 37//4 41//4
f 129//4 41//4 130//4
f 130//4 41//4 40//4
f 130//4 40//4 44//4
f 130//4 44//4 131//4
f 131//4 44//4 43//4
f 131//4 43//4 47//4
f 131//4 47//4 132//4
f 132//4 47//4 46//4
f 132//4 46//4 50//4
f 132//4 50//4 133//4
f 133//4 50//4 49//4
f 133//4 49//4 53//4
f 133//4 53//4 112//4
f 112//4 53//4 52//4
f 112//4 52//4 56//4
f 112//4 56//4 55//4
f 111//4 134//4 109//4
f 108//4 135//4 106//4
f 105//4 136//4 103//4
f 102//4 137//4 100//4
f 99//4 138//4 97//4
f 96//4 139//4 94//4
f 93//4 140//4 91//4
f 90//4 141//4 89//4
f 142//4 82//4 84//4
f 143//4 79//4 81//4
f 144//4 76//4 78//4
f 145//4 73//4 75//4
f 146//4 70//4 72//4
f 147//4 67//4 69//4
f 148//4 64//4 66//4
f 149//4 62//4 63//4
f 150//4 60//4 59//4
f 3//2 151//5 152//5
f 151//5 3//2 2//2
f 153//6 154//6 155//6
f 154//6 153//6 156//6
f 154//6 156//6 157//6
f 157//6 156//6 158//6
f 157//6 158//6 159//6
f 159//6 158//6 160//6
f 159//6 160//6 161//6
f 161//6 160//6 162//6
f 161//6 162//6 163//6
f 163//6 162//6 164//6
f 163//6 164//6 165//6
f 165//6 164//6 166//6
f 165//6 166//6 167//6
f 167//6 166//6 168//6
f 167//6 168//6 169//6
f 169//6 168//6 170//6
f 169//6 170//6 171//6
f 171//6 170//6 172//6
f 171//6 172//6 173//6
f 173//6 172//6 174//6
f 173//6 174//6 175//6
f 175//6 174//6 176//6
f 175//6 176//6 177//6
f 177//6 176//6 178//6
f 177//6 178//6 179//6
f 179//6 178//6 180//6
f 179//6 180//6 181//6
f 181//6 180//6 182//6
f 181//6 182//6 183//6
f 183//6 182//6 184//6
f 183//6 184//6 185//6
f 185//6 184//6 186//6
f 185//6 186//6 187//6
f 187//6 186//6 188//6
f 189//7 6//3 5//3
f 6//3 189//7 190//7
f 191//8 192//9 193//9
f 192//9 191//8 194//8
f 195//10 194//8 191//8
f 194//8 195//10 196//10
f 152//5 196//10 195//10
f 196//10 152//5 151//5
f 197//11 190//7 189//7
f 190//7 197//11 198//11
f 199//12 198//11 197//11
f 198//11 199//12 200//12
f 201//13 199//12 202//13
f 199//12 201//13 200//12
f 203//14 202//13 204//14
f 202//13 203//14 201//13
f 205//15 204//14 206//15
f 204//14 205//15 203//14
f 207//16 206//15 208//16
f 206//15 207//16 205//15
f 209//17 208//16 210//17
f 208//16 209//17 207//16
f 211//18 210//17 212//18
f 210//17 211//18 209//17
f 213//19 212//18 214//19
f 212//18 213//19 211//18
f 215//20 214//19 216//20
f 214//19 215//20 213//19
f 217//21 216//20 218//21
f 216//20 217//21 215//20
f 219//22 218//21 220//22
f 218//21 219//22 217//21
f 221//23 220//22 222//23
f 220//22 221//23 219//22
f 223//24 222//23 224//24
f 222//23 223//24 221//23
f 225//25 224//24 226//25
f 224//24 225//25 223//24
f 227//26 226//25 228//26
f 226//25 227//26 225//25
f 229//27 228//26 230//27
f 228//26 229//27 227//26
f 231//28 230//27 232//28
f 230//27 231//28 229//27
f 233//29 232//28 234//29
f 232//28 233//29 231//28
f 235//30 234//29 236//30
f 234//29 235//30 233//29
f 237//31 235//30 236//30
f 235//30 237//31 238//31
f 239//32 238//31 237//31
f 238//31 239//32 240//32
f 241//33 240//32 239//32
f 240//32 241//33 242//33
f 243//34 242//33 241//33
f 242//33 243//34 244//34
f 245//35 244//34 243//34
f 244//34 245//35 246//35
f 247//36 246//35 245//35
f 246//35 247//36 248//36
f 249//37 248//36 247//36
f 248//36 249//37 250//37
f 251//38 250//37 249//37
f 250//37 251//38 252//38
f 193//9 252//38 251//38
f 252//38 193//9 192//9
