# SSTK version 0.8.0
# 39
mtllib original-39.mtl
o #ID247
v 0.003202 -0.211511 0.002905
v -0.001469 -0.233712 0.002905
v 0.003202 -0.233712 0.002905
v -0.001469 -0.211511 0.002905
v -0.001469 -0.211511 0.002905
v 0.003202 -0.211511 0.002905
v -0.001469 -0.233712 0.002905
v 0.003202 -0.233712 0.002905
v 0.003202 -0.211511 0.002905
v 0.014103 -0.233712 -0.007996
v 0.014103 -0.211511 -0.007996
v 0.008653 -0.233712 -0.002545
v 0.003202 -0.233712 0.002905
v 0.003202 -0.233712 0.002905
v 0.003202 -0.211511 0.002905
v 0.008653 -0.233712 -0.002545
v 0.014103 -0.233712 -0.007996
v 0.014103 -0.211511 -0.007996
v 0.003202 -0.211511 0.002905
v 0.014103 -0.211511 -0.012668
v 0.014103 -0.211511 -0.007996
v 0.003202 -0.211511 -0.023569
v -0.001469 -0.211511 0.002905
v -0.001469 -0.211511 -0.023569
v -0.012370 -0.211511 -0.007996
v -0.012370 -0.211511 -0.012668
v -0.012370 -0.211511 -0.012668
v -0.012370 -0.211511 -0.007996
v -0.001469 -0.211511 -0.023569
v -0.001469 -0.211511 0.002905
v 0.003202 -0.211511 -0.023569
v 0.003202 -0.211511 0.002905
v 0.014103 -0.211511 -0.012668
v 0.014103 -0.211511 -0.007996
v -0.001469 -0.211511 0.002905
v -0.006920 -0.233712 -0.002545
v -0.001469 -0.233712 0.002905
v -0.012370 -0.233712 -0.007996
v -0.012370 -0.211511 -0.007996
v -0.012370 -0.211511 -0.007996
v -0.001469 -0.211511 0.002905
v -0.012370 -0.233712 -0.007996
v -0.006920 -0.233712 -0.002545
v -0.001469 -0.233712 0.002905
v 0.003202 -0.233712 0.002905
v 0.000866 -0.233712 -0.010332
v 0.008653 -0.233712 -0.002545
v -0.001469 -0.233712 0.002905
v -0.006920 -0.233712 -0.002545
v -0.006920 -0.233712 -0.002545
v -0.001469 -0.233712 0.002905
v 0.000866 -0.233712 -0.010332
v 0.003202 -0.233712 0.002905
v 0.008653 -0.233712 -0.002545
v 0.014103 -0.211511 -0.007996
v 0.014103 -0.233712 -0.012668
v 0.014103 -0.211511 -0.012668
v 0.014103 -0.233712 -0.007996
v 0.014103 -0.233712 -0.007996
v 0.014103 -0.211511 -0.007996
v 0.014103 -0.233712 -0.012668
v 0.014103 -0.211511 -0.012668
v 0.014103 -0.233712 -0.012668
v 0.014103 -0.233712 -0.007996
v 0.008653 -0.233712 -0.018118
v 0.008653 -0.233712 -0.018118
v 0.014103 -0.233712 -0.012668
v 0.014103 -0.233712 -0.007996
v -0.012370 -0.233712 -0.012668
v -0.012370 -0.211511 -0.007996
v -0.012370 -0.211511 -0.012668
v -0.012370 -0.233712 -0.007996
v -0.012370 -0.233712 -0.007996
v -0.012370 -0.233712 -0.012668
v -0.012370 -0.211511 -0.007996
v -0.012370 -0.211511 -0.012668
v -0.001469 -0.233712 -0.023569
v -0.012370 -0.211511 -0.012668
v -0.001469 -0.211511 -0.023569
v -0.006920 -0.233712 -0.018118
v -0.012370 -0.233712 -0.012668
v -0.012370 -0.233712 -0.012668
v -0.006920 -0.233712 -0.018118
v -0.012370 -0.211511 -0.012668
v -0.001469 -0.233712 -0.023569
v -0.001469 -0.211511 -0.023569
v -0.001469 -0.211511 -0.023569
v 0.003202 -0.233712 -0.023569
v -0.001469 -0.233712 -0.023569
v 0.003202 -0.211511 -0.023569
v 0.003202 -0.211511 -0.023569
v -0.001469 -0.211511 -0.023569
v 0.003202 -0.233712 -0.023569
v -0.001469 -0.233712 -0.023569
v 0.003202 -0.211511 -0.023569
v 0.008653 -0.233712 -0.018118
v 0.003202 -0.233712 -0.023569
v 0.014103 -0.233712 -0.012668
v 0.014103 -0.211511 -0.012668
v 0.014103 -0.211511 -0.012668
v 0.003202 -0.211511 -0.023569
v 0.014103 -0.233712 -0.012668
v 0.008653 -0.233712 -0.018118
v 0.003202 -0.233712 -0.023569
v -0.006920 -0.233712 -0.018118
v -0.012370 -0.233712 -0.007996
v -0.012370 -0.233712 -0.012668
v -0.012370 -0.233712 -0.012668
v -0.012370 -0.233712 -0.007996
v -0.006920 -0.233712 -0.018118
v 0.003202 -0.233712 -0.023569
v -0.001469 -0.233712 -0.023569
v -0.001469 -0.233712 -0.023569
v 0.003202 -0.233712 -0.023569
vn 2.764513999999895e-7 0 1
vn -2.764513999999895e-7 0 -1
vn 0.7071069811865139 0 0.7071065811865246
vn -0.7071069811865139 0 -0.7071065811865246
vn 0 -1 0
vn 0 1 0
vn -0.7071065811865246 0 0.7071069811865139
vn 0.7071065811865246 0 -0.7071069811865139
vn 1 0 -2.764512999999895e-7
vn -1 0 2.764512999999895e-7
vn -1 0 2.7645109999998945e-7
vn 1 0 -2.7645109999998945e-7
vn -2.764512999999895e-7 0 -1
vn 2.764512999999895e-7 0 1
usemtl material_0_0
f 1//1 2//1 3//1
f 2//1 1//1 4//1
f 5//2 6//2 7//2
f 8//2 7//2 6//2
f 9//3 10//3 11//3
f 10//3 9//3 12//3
f 12//3 9//3 13//3
f 14//4 15//4 16//4
f 16//4 15//4 17//4
f 18//4 17//4 15//4
f 19//5 20//5 21//5
f 20//5 19//5 22//5
f 22//5 19//5 23//5
f 22//5 23//5 24//5
f 24//5 23//5 25//5
f 24//5 25//5 26//5
f 27//6 28//6 29//6
f 28//6 30//6 29//6
f 29//6 30//6 31//6
f 30//6 32//6 31//6
f 31//6 32//6 33//6
f 34//6 33//6 32//6
f 35//7 36//7 37//7
f 36//7 35//7 38//7
f 38//7 35//7 39//7
f 40//8 41//8 42//8
f 42//8 41//8 43//8
f 44//8 43//8 41//8
f 45//5 46//5 47//5
f 46//5 45//5 48//5
f 46//5 48//5 49//5
f 50//6 51//6 52//6
f 51//6 53//6 52//6
f 54//6 52//6 53//6
f 55//9 56//9 57//9
f 56//9 55//9 58//9
f 59//10 60//10 61//10
f 62//10 61//10 60//10
f 47//5 63//5 64//5
f 63//5 47//5 65//5
f 65//5 47//5 46//5
f 52//6 54//6 66//6
f 66//6 54//6 67//6
f 68//6 67//6 54//6
f 69//11 70//11 71//11
f 70//11 69//11 72//11
f 73//12 74//12 75//12
f 76//12 75//12 74//12
f 77//4 78//4 79//4
f 78//4 77//4 80//4
f 78//4 80//4 81//4
f 82//3 83//3 84//3
f 83//3 85//3 84//3
f 86//3 84//3 85//3
f 87//13 88//13 89//13
f 88//13 87//13 90//13
f 91//14 92//14 93//14
f 94//14 93//14 92//14
f 95//8 96//8 97//8
f 96//8 95//8 98//8
f 98//8 95//8 99//8
f 100//7 101//7 102//7
f 102//7 101//7 103//7
f 104//7 103//7 101//7
f 49//5 105//5 46//5
f 105//5 49//5 106//5
f 105//5 106//5 107//5
f 108//6 109//6 110//6
f 109//6 50//6 110//6
f 52//6 110//6 50//6
f 46//5 111//5 65//5
f 111//5 46//5 112//5
f 112//5 46//5 105//5
f 110//6 52//6 113//6
f 113//6 52//6 114//6
f 66//6 114//6 52//6
