# SSTK version 0.8.0
# 32
mtllib original-32.mtl
o #ID189
v -0.215819 -0.914026 -0.267058
v -0.232633 -0.958428 -0.273230
v -0.217201 -0.914026 -0.277398
v -0.231803 -0.958428 -0.267026
v -0.232608 -0.958428 -0.260819
v -0.232633 -0.958428 -0.273230
v -0.231803 -0.958428 -0.267026
v -0.234991 -0.958428 -0.255031
v -0.235039 -0.958428 -0.279008
v -0.238792 -0.958428 -0.250058
v -0.236920 -0.958428 -0.281449
v -0.238860 -0.958428 -0.283966
v -0.243750 -0.958428 -0.246238
v -0.243833 -0.958428 -0.287767
v -0.249528 -0.958428 -0.243831
v -0.249621 -0.958428 -0.290150
v -0.255732 -0.958428 -0.243001
v -0.255828 -0.958428 -0.290955
v -0.261939 -0.958428 -0.243806
v -0.262032 -0.958428 -0.290125
v -0.267726 -0.958428 -0.246190
v -0.267810 -0.958428 -0.287719
v -0.270251 -0.958428 -0.248119
v -0.272768 -0.958428 -0.283898
v -0.272700 -0.958428 -0.249990
v -0.276520 -0.958428 -0.254948
v -0.276568 -0.958428 -0.278925
v -0.278927 -0.958428 -0.260726
v -0.278952 -0.958428 -0.273137
v -0.279757 -0.958428 -0.266930
v -0.235039 -0.958428 -0.279008
v -0.221212 -0.914026 -0.287028
v -0.217159 -0.914026 -0.256713
v -0.232608 -0.958428 -0.260819
v -0.275691 -0.914026 -0.232331
v -0.270251 -0.958428 -0.248119
v -0.267726 -0.958428 -0.246190
v -0.279899 -0.914026 -0.235546
v -0.279899 -0.914026 -0.235546
v -0.272700 -0.958428 -0.249990
v -0.270251 -0.958428 -0.248119
v -0.283980 -0.914026 -0.238664
v -0.290347 -0.914026 -0.246928
v -0.276520 -0.958428 -0.254948
v -0.294359 -0.914026 -0.256558
v -0.278927 -0.958428 -0.260726
v -0.295741 -0.914026 -0.266898
v -0.279757 -0.958428 -0.266930
v -0.278952 -0.958428 -0.273137
v -0.294400 -0.914026 -0.277243
v -0.276568 -0.958428 -0.278925
v -0.290427 -0.914026 -0.286889
v -0.272768 -0.958428 -0.283898
v -0.284093 -0.914026 -0.295178
v -0.267810 -0.958428 -0.287719
v -0.275830 -0.914026 -0.301546
v -0.262032 -0.958428 -0.290125
v -0.266200 -0.914026 -0.305557
v -0.255828 -0.958428 -0.290955
v -0.255860 -0.914026 -0.306939
v -0.249621 -0.958428 -0.290150
v -0.245515 -0.914026 -0.305599
v -0.243833 -0.958428 -0.287767
v -0.235869 -0.914026 -0.301626
v -0.238860 -0.958428 -0.283966
v -0.227580 -0.914026 -0.295292
v -0.224347 -0.914026 -0.291097
v -0.236920 -0.958428 -0.281449
v -0.236920 -0.958428 -0.281449
v -0.224347 -0.914026 -0.291097
v -0.234991 -0.958428 -0.255031
v -0.221132 -0.914026 -0.247067
v -0.238792 -0.958428 -0.250058
v -0.227466 -0.914026 -0.238778
v -0.243750 -0.958428 -0.246238
v -0.235730 -0.914026 -0.232411
v -0.249528 -0.958428 -0.243831
v -0.245360 -0.914026 -0.228399
v -0.255732 -0.958428 -0.243001
v -0.255699 -0.914026 -0.227017
v -0.261939 -0.958428 -0.243806
v -0.266045 -0.914026 -0.228358
vn 0.9408855030214118 -0.3387195010877106 -0.001889388006067359
vn 0.9083365972819754 -0.3387194989864462 -0.2453440992658545
vn 0 -1 0
vn 0.8138860732660973 -0.3387194888740031 -0.4720789844935133
vn 0.90931460935311 -0.3387195034840316 0.24169410248603887
vn -0.4688064764371425 -0.33871948297549365 0.8157754589980046
vn -0.5718349926963177 -0.33615039570656635 0.7483365904419756
vn -0.6639705174767832 -0.33871950891564817 0.6666425175471145
vn -0.8138860732660973 -0.3387194888740033 0.4720789844935132
vn -0.9083365972819754 -0.3387194989864463 0.24534409926585432
vn -0.9408855030214118 -0.3387195010877106 0.0018893880060672085
vn -0.90931460935311 -0.3387195034840315 -0.24169410248603904
vn -0.8157754589980047 -0.33871948297549337 -0.46880647643714257
vn -0.6666425175471146 -0.33871950891564784 -0.6639705174767833
vn -0.47207898449351327 -0.33871948887400305 -0.8138860732660974
vn -0.2453440992658544 -0.33871949898644604 -0.9083365972819755
vn -0.0018893880060672837 -0.3387195010877104 -0.9408855030214119
vn 0.24169410248603895 -0.33871950348403135 -0.9093146093531101
vn 0.4688064764371425 -0.3387194829754933 -0.8157754589980049
vn 0.6639705174767832 -0.33871950891564784 -0.6666425175471147
vn 0.7460339934581026 -0.33615039705233074 -0.5748357949593227
vn 0.8157754589980047 -0.3387194829754936 0.46880647643714246
vn 0.6666425175471146 -0.33871950891564817 0.663970517476783
vn 0.4720789844935134 -0.33871948887400344 0.8138860732660973
vn 0.2453440992658544 -0.3387194989864465 0.9083365972819752
vn 0.0018893880060672837 -0.3387195010877108 0.9408855030214117
vn -0.24169410248603895 -0.3387195034840318 0.9093146093531099
usemtl material_0_0
f 1//1 2//2 3//2
f 2//2 1//1 4//1
f 5//3 6//3 7//3
f 6//3 5//3 8//3
f 6//3 8//3 9//3
f 9//3 8//3 10//3
f 9//3 10//3 11//3
f 11//3 10//3 12//3
f 12//3 10//3 13//3
f 12//3 13//3 14//3
f 14//3 13//3 15//3
f 14//3 15//3 16//3
f 16//3 15//3 17//3
f 16//3 17//3 18//3
f 18//3 17//3 19//3
f 18//3 19//3 20//3
f 20//3 19//3 21//3
f 20//3 21//3 22//3
f 22//3 21//3 23//3
f 22//3 23//3 24//3
f 24//3 23//3 25//3
f 24//3 25//3 26//3
f 24//3 26//3 27//3
f 27//3 26//3 28//3
f 27//3 28//3 29//3
f 29//3 28//3 30//3
f 3//2 31//4 32//4
f 31//4 3//2 2//2
f 33//5 4//1 1//1
f 4//1 33//5 34//5
f 35//6 36//7 37//6
f 36//7 35//6 38//7
f 39//7 40//8 41//7
f 40//8 39//7 42//8
f 40//8 43//9 44//9
f 43//9 40//8 42//8
f 44//9 45//10 46//10
f 45//10 44//9 43//9
f 46//10 47//11 48//11
f 47//11 46//10 45//10
f 49//12 47//11 50//12
f 47//11 49//12 48//11
f 51//13 50//12 52//13
f 50//12 51//13 49//12
f 53//14 52//13 54//14
f 52//13 53//14 51//13
f 54//14 55//15 53//14
f 55//15 54//14 56//15
f 56//15 57//16 55//15
f 57//16 56//15 58//16
f 58//16 59//17 57//16
f 59//17 58//16 60//17
f 60//17 61//18 59//17
f 61//18 60//17 62//18
f 62//18 63//19 61//18
f 63//19 62//18 64//19
f 64//19 65//20 63//19
f 65//20 64//19 66//20
f 67//21 65//20 66//20
f 65//20 67//21 68//21
f 32//4 69//21 70//21
f 69//21 32//4 31//4
f 33//5 71//22 34//5
f 71//22 33//5 72//22
f 72//22 73//23 71//22
f 73//23 72//22 74//23
f 74//23 75//24 73//23
f 75//24 74//23 76//24
f 76//24 77//25 75//24
f 77//25 76//24 78//25
f 78//25 79//26 77//25
f 79//26 78//25 80//26
f 80//26 81//27 79//26
f 81//27 80//26 82//27
f 82//27 37//6 81//27
f 37//6 82//27 35//6
