# SSTK version 0.8.0
# 121
mtllib original-121.mtl
o #ID1105
v 0.008666 -0.656204 0.448851
v -0.003858 -0.656206 0.448848
v 0.002404 -0.656741 0.448963
v -0.009930 -0.654615 0.448511
v 0.014738 -0.654611 0.448517
v -0.015627 -0.652016 0.447962
v 0.020435 -0.652011 0.447971
v -0.020776 -0.648489 0.447217
v 0.025584 -0.648482 0.447229
v -0.025221 -0.644140 0.446299
v 0.030028 -0.644132 0.446314
v -0.028827 -0.639102 0.445237
v 0.033633 -0.639093 0.445253
v -0.031484 -0.633528 0.444061
v 0.036289 -0.633519 0.444079
v -0.033112 -0.627587 0.442809
v 0.037916 -0.627577 0.442827
v -0.033660 -0.621460 0.441517
v 0.038463 -0.621449 0.441536
v -0.033113 -0.615332 0.440226
v 0.037915 -0.615322 0.440245
v -0.031486 -0.609391 0.438975
v 0.036287 -0.609381 0.438992
v -0.028830 -0.603816 0.437801
v 0.033630 -0.603807 0.437817
v -0.025225 -0.598777 0.436740
v 0.030024 -0.598769 0.436754
v -0.020781 -0.594427 0.435825
v 0.025579 -0.594420 0.435837
v -0.015632 -0.590898 0.435083
v 0.020430 -0.590893 0.435092
v -0.009935 -0.588298 0.434536
v 0.014732 -0.588294 0.434543
v -0.003864 -0.586705 0.434202
v 0.008660 -0.586703 0.434206
v 0.002398 -0.586168 0.434091
vn -0.0002836766868959982 0.20619749047502856 0.9785103547992415
usemtl material_0_0
f 1//1 2//1 3//1
f 2//1 1//1 4//1
f 4//1 1//1 5//1
f 4//1 5//1 6//1
f 6//1 5//1 7//1
f 6//1 7//1 8//1
f 8//1 7//1 9//1
f 8//1 9//1 10//1
f 10//1 9//1 11//1
f 10//1 11//1 12//1
f 12//1 11//1 13//1
f 12//1 13//1 14//1
f 14//1 13//1 15//1
f 14//1 15//1 16//1
f 16//1 15//1 17//1
f 16//1 17//1 18//1
f 18//1 17//1 19//1
f 18//1 19//1 20//1
f 20//1 19//1 21//1
f 20//1 21//1 22//1
f 22//1 21//1 23//1
f 22//1 23//1 24//1
f 24//1 23//1 25//1
f 24//1 25//1 26//1
f 26//1 25//1 27//1
f 26//1 27//1 28//1
f 28//1 27//1 29//1
f 28//1 29//1 30//1
f 30//1 29//1 31//1
f 30//1 31//1 32//1
f 32//1 31//1 33//1
f 32//1 33//1 34//1
f 34//1 33//1 35//1
f 34//1 35//1 36//1
