# SSTK version 0.8.0
# 187
mtllib original-187.mtl
o #ID1472
v 0.045172 0.834197 -0.050225
v 0.048748 0.831480 -0.055369
v 0.045172 0.831480 -0.050225
v 0.048748 0.834197 -0.055369
v 0.048748 0.834197 -0.055369
v 0.045172 0.834197 -0.050225
v 0.048748 0.831480 -0.055369
v 0.045172 0.831480 -0.050225
v 0.044407 0.834197 -0.047500
v 0.044407 0.831480 -0.047500
v 0.044407 0.834197 -0.047500
v 0.044407 0.831480 -0.047500
v 0.042420 0.834197 -0.046098
v 0.044323 0.834197 -0.044673
v 0.043636 0.834197 -0.045360
v 0.037579 0.834197 -0.043771
v 0.038148 0.834197 -0.041762
v 0.039813 0.834197 -0.041107
v 0.033584 0.834197 -0.039776
v 0.036247 0.834197 -0.040635
v 0.034486 0.834197 -0.038874
v 0.033584 0.834197 -0.038831
v 0.048748 0.834197 -0.055369
v 0.049865 0.834197 -0.056056
v 0.049650 0.834197 -0.056271
v 0.051744 0.834197 -0.051557
v 0.045172 0.834197 -0.050225
v 0.051884 0.834197 -0.049570
v 0.050767 0.834197 -0.048453
v 0.048294 0.834197 -0.044890
v 0.044407 0.834197 -0.047500
v 0.047363 0.834197 -0.040689
v 0.041005 0.834197 -0.046080
v 0.047972 0.834197 -0.035848
v 0.050123 0.834197 -0.030368
v 0.040071 0.834197 -0.040850
v 0.049435 0.834197 -0.015849
v 0.053473 0.834197 -0.019457
v 0.049650 0.834197 -0.015634
v 0.049650 0.834197 -0.015634
v 0.049435 0.834197 -0.015849
v 0.053473 0.834197 -0.019457
v 0.050123 0.834197 -0.030368
v 0.040071 0.834197 -0.040850
v 0.039813 0.834197 -0.041107
v 0.037579 0.834197 -0.043771
v 0.047972 0.834197 -0.035848
v 0.041005 0.834197 -0.046080
v 0.047363 0.834197 -0.040689
v 0.042420 0.834197 -0.046098
v 0.044323 0.834197 -0.044673
v 0.044407 0.834197 -0.047500
v 0.048294 0.834197 -0.044890
v 0.045172 0.834197 -0.050225
v 0.050767 0.834197 -0.048453
v 0.051884 0.834197 -0.049570
v 0.051744 0.834197 -0.051557
v 0.048748 0.834197 -0.055369
v 0.049865 0.834197 -0.056056
v 0.049650 0.834197 -0.056271
v 0.033584 0.834197 -0.038831
v 0.033584 0.834197 -0.039776
v 0.034486 0.834197 -0.038874
v 0.036247 0.834197 -0.040635
v 0.038148 0.834197 -0.041762
v 0.043636 0.834197 -0.045360
v 0.049650 0.831480 -0.056271
v 0.049650 0.834197 -0.056271
v 0.049650 0.834197 -0.056271
v 0.049650 0.831480 -0.056271
v 0.044323 0.834197 -0.044673
v 0.044323 0.831480 -0.044673
v 0.044323 0.834197 -0.044673
v 0.044323 0.831480 -0.044673
v 0.044323 0.834197 -0.044673
v 0.043636 0.831480 -0.045360
v 0.043636 0.834197 -0.045360
v 0.044323 0.831480 -0.044673
v 0.044323 0.831480 -0.044673
v 0.044323 0.834197 -0.044673
v 0.043636 0.831480 -0.045360
v 0.043636 0.834197 -0.045360
v 0.042420 0.831480 -0.046098
v 0.042420 0.834197 -0.046098
v 0.042420 0.831480 -0.046098
v 0.042420 0.834197 -0.046098
v 0.041005 0.834197 -0.046080
v 0.041005 0.831480 -0.046080
v 0.041005 0.834197 -0.046080
v 0.041005 0.831480 -0.046080
v 0.037579 0.834197 -0.043771
v 0.037579 0.831480 -0.043771
v 0.037579 0.834197 -0.043771
v 0.037579 0.831480 -0.043771
v 0.033584 0.834197 -0.039776
v 0.033584 0.831480 -0.039776
v 0.033584 0.834197 -0.039776
v 0.033584 0.831480 -0.039776
v 0.033584 0.834197 -0.038831
v 0.033584 0.831480 -0.038831
v 0.033584 0.834197 -0.038831
v 0.033584 0.831480 -0.038831
v 0.034486 0.834197 -0.038874
v 0.033584 0.831480 -0.038831
v 0.034486 0.831480 -0.038874
v 0.033584 0.834197 -0.038831
v 0.033584 0.834197 -0.038831
v 0.034486 0.834197 -0.038874
v 0.033584 0.831480 -0.038831
v 0.034486 0.831480 -0.038874
v 0.036247 0.834197 -0.040635
v 0.036247 0.831480 -0.040635
v 0.036247 0.834197 -0.040635
v 0.036247 0.831480 -0.040635
v 0.038148 0.834197 -0.041762
v 0.038148 0.831480 -0.041762
v 0.038148 0.834197 -0.041762
v 0.038148 0.831480 -0.041762
v 0.039813 0.831480 -0.041107
v 0.039813 0.834197 -0.041107
v 0.039813 0.834197 -0.041107
v 0.039813 0.831480 -0.041107
v 0.040071 0.831480 -0.040850
v 0.040071 0.834197 -0.040850
v 0.040071 0.834197 -0.040850
v 0.040071 0.831480 -0.040850
v 0.049435 0.831480 -0.015849
v 0.049435 0.834197 -0.015849
v 0.049435 0.834197 -0.015849
v 0.049435 0.831480 -0.015849
v 0.049650 0.831480 -0.015634
v 0.049650 0.834197 -0.015634
v 0.049650 0.834197 -0.015634
v 0.049650 0.831480 -0.015634
v 0.053473 0.834197 -0.019457
v 0.049650 0.831480 -0.015634
v 0.053473 0.831480 -0.019457
v 0.049650 0.834197 -0.015634
v 0.049650 0.834197 -0.015634
v 0.053473 0.834197 -0.019457
v 0.049650 0.831480 -0.015634
v 0.053473 0.831480 -0.019457
v 0.050123 0.831480 -0.030368
v 0.050123 0.834197 -0.030368
v 0.050123 0.831480 -0.030368
v 0.050123 0.834197 -0.030368
v 0.047972 0.831480 -0.035848
v 0.047972 0.834197 -0.035848
v 0.047972 0.831480 -0.035848
v 0.047972 0.834197 -0.035848
v 0.047363 0.831480 -0.040689
v 0.047363 0.834197 -0.040689
v 0.047363 0.831480 -0.040689
v 0.047363 0.834197 -0.040689
v 0.048294 0.834197 -0.044890
v 0.048294 0.831480 -0.044890
v 0.048294 0.834197 -0.044890
v 0.048294 0.831480 -0.044890
v 0.050767 0.834197 -0.048453
v 0.050767 0.831480 -0.048453
v 0.050767 0.834197 -0.048453
v 0.050767 0.831480 -0.048453
v 0.051884 0.834197 -0.049570
v 0.051884 0.831480 -0.049570
v 0.051884 0.834197 -0.049570
v 0.051884 0.831480 -0.049570
v 0.051744 0.831480 -0.051557
v 0.051744 0.834197 -0.051557
v 0.051744 0.831480 -0.051557
v 0.051744 0.834197 -0.051557
v 0.049865 0.831480 -0.056056
v 0.049865 0.834197 -0.056056
v 0.049865 0.831480 -0.056056
v 0.049865 0.834197 -0.056056
v 0.049650 0.831480 -0.056271
v 0.049650 0.834197 -0.056271
v 0.049650 0.831480 -0.056271
v 0.049650 0.834197 -0.056271
vn -0.9044884775319764 0 -0.4264980586261647
vn -0.7671263507248905 0 -0.6414960343006904
vn 0.7671263507248905 0 0.6414960343006904
vn 0.9044884775319764 0 0.4264980586261647
vn -0.9885329669542358 0 -0.15100520932953274
vn 0.9885329669542358 0 0.15100520932953274
vn 0 1 0
vn 0 -1 0
vn -0.7071069706500177 0 -0.7071065917230267
vn 0.7071069706500177 0 0.7071065917230267
vn -0.9995669417386698 0 -0.02942667128988213
vn 0.9995669417386698 0 0.02942667128988213
vn 0.7071065917230267 0 -0.7071069706500177
vn 0.6174505543839711 0 -0.786609695395961
vn -0.7071065917230267 0 0.7071069706500177
vn -0.6174505543839711 0 0.786609695395961
vn 0.2630261869322413 0 -0.9647886944755756
vn -0.2630261869322413 0 0.9647886944755756
vn -0.29854330166117826 0 -0.954396090223154
vn 0.29854330166117826 0 0.954396090223154
vn -0.6359385523689125 0 -0.7717396955003235
vn 0.6359385523689125 0 0.7717396955003235
vn -0.9238796340688515 0 -0.38268318718334743
vn 0.9238796340688515 0 0.38268318718334743
vn -1 0 2.828427049239693e-7
vn 1 0 -2.828427049239693e-7
vn 0.4045538094566442 0 0.9145141963108703
vn 0.04756544537624141 0 0.9988681236310226
vn -0.04756544537624141 0 -0.9988681236310226
vn -0.4045538094566442 0 -0.9145141963108703
vn 0.6134400360937917 0 0.7897413007543975
vn -0.6134400360937917 0 -0.7897413007543975
vn 0.08015783676754476 0 0.9967821834306368
vn -0.08015783676754476 0 -0.9967821834306368
vn -0.548161903092164 0 0.8363722424843958
vn 0.548161903092164 0 -0.8363722424843958
vn -0.8408761418685746 0 0.5412275991080099
vn 0.8408761418685746 0 -0.5412275991080099
vn 0.9704455432933892 0 0.24132021776469237
vn -0.9704455432933892 0 -0.24132021776469237
vn 0.9440924549788254 0 -0.32968080995419585
vn -0.9440924549788254 0 0.32968080995419585
vn 0.9690078678302663 0 -0.2470298607112945
vn -0.9690078678302663 0 0.2470298607112945
vn 0.9989201761482345 0 0.04645946280339805
vn -0.9989201761482345 0 -0.04645946280339805
vn 0.9161386544650187 0 0.4008615294525344
vn -0.9161386544650187 0 -0.4008615294525344
vn 0.7673754462155519 0 0.64119803847601
vn -0.7673754462155519 0 -0.64119803847601
vn 0.9367321074601539 0 0.3500470809094947
vn -0.9367321074601539 0 -0.3500470809094947
vn 0.9730019014840796 0 -0.23079709640367058
vn -0.9730019014840796 0 0.23079709640367058
vn 0.8306521214334027 0 -0.5567917502605328
vn -0.8306521214334027 0 0.5567917502605328
usemtl material_0_0
f 1//1 2//2 3//1
f 2//2 1//1 4//2
f 5//3 6//4 7//3
f 8//4 7//3 6//4
f 9//5 3//1 10//5
f 3//1 9//5 1//1
f 6//4 11//6 8//4
f 12//6 8//4 11//6
f 13//7 14//7 15//7
f 16//7 17//7 18//7
f 17//7 16//7 19//7
f 17//7 19//7 20//7
f 20//7 19//7 21//7
f 21//7 19//7 22//7
f 23//7 24//7 25//7
f 24//7 23//7 26//7
f 26//7 23//7 27//7
f 26//7 27//7 28//7
f 28//7 27//7 29//7
f 29//7 27//7 30//7
f 30//7 27//7 31//7
f 30//7 31//7 32//7
f 32//7 31//7 14//7
f 32//7 14//7 13//7
f 32//7 13//7 33//7
f 32//7 33//7 34//7
f 34//7 33//7 16//7
f 34//7 16//7 35//7
f 35//7 16//7 36//7
f 36//7 16//7 18//7
f 35//7 36//7 37//7
f 35//7 37//7 38//7
f 38//7 37//7 39//7
f 40//8 41//8 42//8
f 42//8 41//8 43//8
f 41//8 44//8 43//8
f 45//8 46//8 44//8
f 44//8 46//8 43//8
f 43//8 46//8 47//8
f 46//8 48//8 47//8
f 47//8 48//8 49//8
f 48//8 50//8 49//8
f 50//8 51//8 49//8
f 51//8 52//8 49//8
f 49//8 52//8 53//8
f 52//8 54//8 53//8
f 53//8 54//8 55//8
f 55//8 54//8 56//8
f 56//8 54//8 57//8
f 54//8 58//8 57//8
f 57//8 58//8 59//8
f 60//8 59//8 58//8
f 61//8 62//8 63//8
f 63//8 62//8 64//8
f 64//8 62//8 65//8
f 62//8 46//8 65//8
f 45//8 65//8 46//8
f 66//8 51//8 50//8
f 4//2 67//9 2//2
f 67//9 4//2 68//9
f 69//10 5//3 70//10
f 7//3 70//10 5//3
f 71//11 10//5 72//11
f 10//5 71//11 9//5
f 11//6 73//12 12//6
f 74//12 12//6 73//12
f 75//13 76//14 77//14
f 76//14 75//13 78//13
f 79//15 80//15 81//16
f 82//16 81//16 80//15
f 77//14 83//17 84//17
f 83//17 77//14 76//14
f 81//16 82//16 85//18
f 86//18 85//18 82//16
f 87//19 83//17 88//19
f 83//17 87//19 84//17
f 86//18 89//20 85//18
f 90//20 85//18 89//20
f 91//21 88//19 92//21
f 88//19 91//21 87//19
f 89//20 93//22 90//20
f 94//22 90//20 93//22
f 95//23 92//21 96//23
f 92//21 95//23 91//21
f 93//22 97//24 94//22
f 98//24 94//22 97//24
f 99//25 96//23 100//25
f 96//23 99//25 95//23
f 97//24 101//26 98//24
f 102//26 98//24 101//26
f 103//27 104//28 105//27
f 104//28 103//27 106//28
f 107//29 108//30 109//29
f 110//30 109//29 108//30
f 111//31 105//27 112//31
f 105//27 111//31 103//27
f 108//30 113//32 110//30
f 114//32 110//30 113//32
f 115//33 112//31 116//33
f 112//31 115//33 111//31
f 113//32 117//34 114//32
f 118//34 114//32 117//34
f 119//35 115//33 116//33
f 115//33 119//35 120//35
f 121//36 122//36 117//34
f 118//34 117//34 122//36
f 123//37 120//35 119//35
f 120//35 123//37 124//37
f 125//38 126//38 121//36
f 122//36 121//36 126//38
f 127//37 124//37 123//37
f 124//37 127//37 128//37
f 129//38 130//38 125//38
f 126//38 125//38 130//38
f 131//15 128//37 127//37
f 128//37 131//15 132//15
f 133//13 134//13 129//38
f 130//38 129//38 134//13
f 135//39 136//10 137//39
f 136//10 135//39 138//10
f 139//9 140//40 141//9
f 142//40 141//9 140//40
f 135//39 143//41 144//41
f 143//41 135//39 137//39
f 142//40 140//40 145//42
f 146//42 145//42 140//40
f 144//41 147//43 148//43
f 147//43 144//41 143//41
f 145//42 146//42 149//44
f 150//44 149//44 146//42
f 148//43 151//45 152//45
f 151//45 148//43 147//43
f 149//44 150//44 153//46
f 154//46 153//46 150//44
f 155//47 151//45 156//47
f 151//45 155//47 152//45
f 154//46 157//48 153//46
f 158//48 153//46 157//48
f 159//49 156//47 160//49
f 156//47 159//49 155//47
f 157//48 161//50 158//48
f 162//50 158//48 161//50
f 163//51 160//49 164//51
f 160//49 163//51 159//49
f 161//50 165//52 162//50
f 166//52 162//50 165//52
f 163//51 167//53 168//53
f 167//53 163//51 164//51
f 166//52 165//52 169//54
f 170//54 169//54 165//52
f 168//53 171//55 172//55
f 171//55 168//53 167//53
f 169//54 170//54 173//56
f 174//56 173//56 170//54
f 172//55 175//13 176//13
f 175//13 172//55 171//55
f 173//56 174//56 177//15
f 178//15 177//15 174//56
