# SSTK version 0.8.0
# 167
mtllib original-167.mtl
o #ID1344
v 0.147930 0.824820 0.037186
v 0.054580 0.831480 0.137366
v 0.054580 0.824820 0.137366
v 0.147930 0.831480 0.037186
v 0.147930 0.831480 0.037186
v 0.147930 0.824820 0.037186
v 0.054580 0.831480 0.137366
v 0.054580 0.824820 0.137366
v 0.156138 0.831480 0.026408
v 0.156138 0.824820 0.026408
v 0.156138 0.831480 0.026408
v 0.156138 0.824820 0.026408
v 0.041498 0.824820 0.147330
v 0.041498 0.831480 0.147330
v 0.041498 0.831480 0.147330
v 0.041498 0.824820 0.147330
v 0.161649 0.831480 0.012726
v 0.161649 0.824820 0.012726
v 0.161649 0.831480 0.012726
v 0.161649 0.824820 0.012726
v 0.025560 0.824820 0.153749
v 0.025560 0.831480 0.153749
v 0.025560 0.831480 0.153749
v 0.025560 0.824820 0.153749
v 0.163390 0.831480 -0.002015
v 0.163390 0.824820 -0.002015
v 0.163390 0.831480 -0.002015
v 0.163390 0.824820 -0.002015
v 0.008390 0.824820 0.155777
v 0.008390 0.831480 0.155777
v 0.008390 0.831480 0.155777
v 0.008390 0.824820 0.155777
v 0.161243 0.824820 -0.016809
v 0.161243 0.831480 -0.016809
v 0.161243 0.824820 -0.016809
v 0.161243 0.831480 -0.016809
v -0.008842 0.831480 0.153276
v -0.008842 0.824820 0.153276
v -0.008842 0.831480 0.153276
v -0.008842 0.824820 0.153276
v 0.155353 0.824820 -0.030649
v 0.155353 0.831480 -0.030649
v 0.155353 0.824820 -0.030649
v 0.155353 0.831480 -0.030649
v -0.024963 0.831480 0.146416
v -0.024963 0.824820 0.146416
v -0.024963 0.831480 0.146416
v -0.024963 0.824820 0.146416
v 0.146857 0.824820 -0.041642
v 0.146857 0.831480 -0.041642
v 0.146857 0.824820 -0.041642
v 0.146857 0.831480 -0.041642
v -0.038188 0.831480 0.136194
v -0.038188 0.824820 0.136194
v -0.038188 0.831480 0.136194
v -0.038188 0.824820 0.136194
v 0.051192 0.824820 -0.144426
v 0.051192 0.831480 -0.144426
v 0.051192 0.824820 -0.144426
v 0.051192 0.831480 -0.144426
v -0.134296 0.831480 0.038188
v -0.134296 0.824820 0.038188
v -0.134296 0.831480 0.038188
v -0.134296 0.824820 0.038188
v 0.037675 0.824820 -0.154873
v 0.037675 0.831480 -0.154873
v 0.037675 0.824820 -0.154873
v 0.037675 0.831480 -0.154873
v -0.143996 0.831480 0.025638
v -0.143996 0.824820 0.025638
v -0.143996 0.831480 0.025638
v -0.143996 0.824820 0.025638
v 0.021392 0.824820 -0.161802
v 0.021392 0.831480 -0.161802
v 0.021392 0.824820 -0.161802
v 0.021392 0.831480 -0.161802
v -0.150579 0.831480 0.010169
v -0.150579 0.824820 0.010169
v -0.150579 0.831480 0.010169
v -0.150579 0.824820 0.010169
v 0.003986 0.824820 -0.164329
v 0.003986 0.831480 -0.164329
v 0.003986 0.824820 -0.164329
v 0.003986 0.831480 -0.164329
v -0.152979 0.831480 -0.006367
v -0.152979 0.824820 -0.006367
v -0.152979 0.831480 -0.006367
v -0.152979 0.824820 -0.006367
v -0.013357 0.831480 -0.162280
v -0.013357 0.824820 -0.162280
v -0.013357 0.831480 -0.162280
v -0.013357 0.824820 -0.162280
v -0.151033 0.824820 -0.022844
v -0.151033 0.831480 -0.022844
v -0.151033 0.831480 -0.022844
v -0.151033 0.824820 -0.022844
v -0.029456 0.831480 -0.155797
v -0.029456 0.824820 -0.155797
v -0.029456 0.831480 -0.155797
v -0.029456 0.824820 -0.155797
v -0.144874 0.824820 -0.038137
v -0.144874 0.831480 -0.038137
v -0.144874 0.831480 -0.038137
v -0.144874 0.824820 -0.038137
v -0.042556 0.831480 -0.145820
v -0.042556 0.824820 -0.145820
v -0.042556 0.831480 -0.145820
v -0.042556 0.824820 -0.145820
v -0.135526 0.824820 -0.050411
v -0.135526 0.831480 -0.050411
v -0.135526 0.831480 -0.050411
v -0.135526 0.824820 -0.050411
vn 0.7645178094966301 0 0.6446026054574047
vn 0.6711690303786647 0 0.7413043455022794
vn 0.8693639220505154 0 0.4941724102344698
vn 0.49417290202087744 0 0.8693636425042538
vn 0.9688580031127211 0 0.24761698205985533
vn 0.24761753012865217 0 0.9688578630392519
vn 0.9999117122253253 0 -0.013287879989613647
vn -0.013287314354144762 0 0.9999117197419252
vn 0.9629024401442187 0 -0.269849755909301
vn -0.2698492112093962 0 0.9629025927941345
vn 0.8627196211760191 0 -0.505682563707615
vn -0.5056820756796316 0 0.8627199072331293
vn 0.7624052166624864 0 -0.6470999038833395
vn -0.6643274047297612 0 0.7474417029608531
vn 0.6740192118703978 0 -0.7387138160543688
vn -0.7539007406919036 0 0.6569883356530761
vn 0.5056820756796316 0 -0.8627199072331293
vn -0.8627196211760191 0 0.505682563707615
vn 0.2698492112093962 0 -0.9629025927941345
vn -0.9629024401442187 0 0.269849755909301
vn 0.013287314354144762 0 -0.9999117197419252
vn -0.9999117122253253 0 0.013287879989613647
vn -0.24761753012865217 0 -0.9688578630392519
vn -0.9688580031127211 0 -0.24761698205985533
vn -0.49417290202087744 0 -0.8693636425042538
vn -0.8693639220505154 0 -0.4941724102344698
vn -0.6628486063345261 0 -0.748753447458091
vn -0.7572714888094869 0 -0.6531002160742737
vn -0.7645178094966301 0 -0.6446026054574047
vn -0.6711690303786647 0 -0.7413043455022794
vn -0.7624052166624864 0 0.6470999038833395
vn 0.6643274047297612 0 -0.7474417029608531
vn -0.6740192118703978 0 0.7387138160543688
vn 0.7539007406919036 0 -0.6569883356530761
vn 0.6628486063345261 0 0.748753447458091
vn 0.7572714888094869 0 0.6531002160742737
usemtl material_0_0
f 5//29 6//29 7//30
f 8//30 7//30 6//29
f 5//29 11//26 6//29
f 12//26 6//29 11//26
f 15//25 7//30 16//25
f 8//30 16//25 7//30
f 11//26 19//24 12//26
f 20//24 12//26 19//24
f 23//23 15//25 24//23
f 16//25 24//23 15//25
f 19//24 27//22 20//24
f 28//22 20//24 27//22
f 31//21 23//23 32//21
f 24//23 32//21 23//23
f 28//22 27//22 35//20
f 36//20 35//20 27//22
f 31//21 32//21 39//19
f 40//19 39//19 32//21
f 35//20 36//20 43//18
f 44//18 43//18 36//20
f 39//19 40//19 47//17
f 48//17 47//17 40//19
f 43//18 44//18 51//31
f 52//31 51//31 44//18
f 47//17 48//17 55//32
f 56//32 55//32 48//17
f 51//31 52//31 59//33
f 60//33 59//33 52//31
f 55//32 56//32 63//34
f 64//34 63//34 56//32
f 59//33 60//33 67//12
f 68//12 67//12 60//33
f 63//34 64//34 71//11
f 72//11 71//11 64//34
f 67//12 68//12 75//10
f 76//10 75//10 68//12
f 71//11 72//11 79//9
f 80//9 79//9 72//11
f 75//10 76//10 83//8
f 84//8 83//8 76//10
f 79//9 80//9 87//7
f 88//7 87//7 80//9
f 84//8 91//6 83//8
f 92//6 83//8 91//6
f 95//5 87//7 96//5
f 88//7 96//5 87//7
f 91//6 99//4 92//6
f 100//4 92//6 99//4
f 103//3 95//5 104//3
f 96//5 104//3 95//5
f 99//4 107//35 100//4
f 108//35 100//4 107//35
f 111//36 103//3 112//36
f 104//3 112//36 103//3
f 107//35 111//36 108//35
f 112//36 108//35 111//36
usemtl material_1_0
f 1//1 2//2 3//2
f 2//2 1//1 4//1
f 9//3 1//1 10//3
f 1//1 9//3 4//1
f 2//2 13//4 3//2
f 13//4 2//2 14//4
f 17//5 10//3 18//5
f 10//3 17//5 9//3
f 14//4 21//6 13//4
f 21//6 14//4 22//6
f 25//7 18//5 26//7
f 18//5 25//7 17//5
f 22//6 29//8 21//6
f 29//8 22//6 30//8
f 25//7 33//9 34//9
f 33//9 25//7 26//7
f 29//8 37//10 38//10
f 37//10 29//8 30//8
f 34//9 41//11 42//11
f 41//11 34//9 33//9
f 38//10 45//12 46//12
f 45//12 38//10 37//10
f 42//11 49//13 50//13
f 49//13 42//11 41//11
f 46//12 53//14 54//14
f 53//14 46//12 45//12
f 50//13 57//15 58//15
f 57//15 50//13 49//13
f 54//14 61//16 62//16
f 61//16 54//14 53//14
f 58//15 65//17 66//17
f 65//17 58//15 57//15
f 62//16 69//18 70//18
f 69//18 62//16 61//16
f 66//17 73//19 74//19
f 73//19 66//17 65//17
f 70//18 77//20 78//20
f 77//20 70//18 69//18
f 74//19 81//21 82//21
f 81//21 74//19 73//19
f 78//20 85//22 86//22
f 85//22 78//20 77//20
f 89//23 81//21 90//23
f 81//21 89//23 82//21
f 85//22 93//24 86//22
f 93//24 85//22 94//24
f 97//25 90//23 98//25
f 90//23 97//25 89//23
f 94//24 101//26 93//24
f 101//26 94//24 102//26
f 105//27 98//25 106//27
f 98//25 105//27 97//25
f 102//26 109//28 101//26
f 109//28 102//26 110//28
f 110//28 106//27 109//28
f 106//27 110//28 105//27
