# SSTK version 0.8.0
# 180
mtllib original-180.mtl
o #ID1430
v -0.029348 0.831480 -0.011209
v -0.028016 0.831480 -0.010737
v -0.028446 0.831480 -0.011166
v -0.028016 0.831480 -0.009878
v -0.042106 0.831480 0.001549
v -0.040775 0.831480 0.002881
v -0.042063 0.831480 0.002451
v -0.041634 0.831480 0.002881
v -0.041634 0.831480 0.002881
v -0.042063 0.831480 0.002451
v -0.040775 0.831480 0.002881
v -0.042106 0.831480 0.001549
v -0.028016 0.831480 -0.009878
v -0.029348 0.831480 -0.011209
v -0.028016 0.831480 -0.010737
v -0.028446 0.831480 -0.011166
vn 0 1 0
vn 0 -1 0
usemtl material_0_0
f 1//1 2//1 3//1
f 2//1 1//1 4//1
f 4//1 1//1 5//1
f 4//1 5//1 6//1
f 6//1 5//1 7//1
f 6//1 7//1 8//1
f 9//2 10//2 11//2
f 10//2 12//2 11//2
f 11//2 12//2 13//2
f 12//2 14//2 13//2
f 13//2 14//2 15//2
f 16//2 15//2 14//2
