# SSTK version 0.8.0
# 28
mtllib original-28.mtl
o #ID165
v -0.022912 -0.574774 0.329222
v -0.023370 -0.575109 0.329292
v -0.023154 -0.575715 0.329420
v -0.023261 -0.574687 0.329203
v -0.022510 -0.573215 0.328893
v -0.022872 -0.573179 0.328886
v -0.022604 -0.571124 0.328453
v -0.022962 -0.571191 0.328467
v -0.023631 -0.569312 0.328070
v -0.023308 -0.569147 0.328036
v -0.024823 -0.567700 0.327730
v -0.024561 -0.567451 0.327678
v -0.026288 -0.566603 0.327499
v -0.026068 -0.566322 0.327440
v -0.026437 -0.566491 0.327475
v -0.025246 -0.574148 0.329089
v -0.024985 -0.573899 0.329037
v -0.026500 -0.572452 0.328731
v -0.026176 -0.572287 0.328697
v -0.027203 -0.570475 0.328315
v -0.026845 -0.570408 0.328300
v -0.027297 -0.568384 0.327874
v -0.026935 -0.568420 0.327882
v -0.026653 -0.565885 0.327347
vn -0.00028283978700170725 0.20619749052390954 0.9785103550312062
usemtl material_0_0
f 1//1 2//1 3//1
f 2//1 1//1 4//1
f 4//1 1//1 5//1
f 4//1 5//1 6//1
f 6//1 5//1 7//1
f 6//1 7//1 8//1
f 8//1 7//1 9//1
f 9//1 7//1 10//1
f 9//1 10//1 11//1
f 11//1 10//1 12//1
f 11//1 12//1 13//1
f 13//1 12//1 14//1
f 13//1 14//1 15//1
f 2//1 16//1 3//1
f 16//1 2//1 17//1
f 16//1 17//1 18//1
f 18//1 17//1 19//1
f 18//1 19//1 20//1
f 20//1 19//1 21//1
f 20//1 21//1 22//1
f 22//1 21//1 23//1
f 22//1 23//1 15//1
f 22//1 15//1 24//1
f 24//1 15//1 14//1
