# SSTK version 0.8.0
# 12
mtllib original-12.mtl
o #ID57
v 0.047702 -0.252444 -0.030673
v 0.049820 -0.252444 0.004191
v 0.051835 -0.252444 -0.013427
v 0.041900 -0.252444 0.020058
v 0.037920 -0.252444 -0.045465
v 0.029032 -0.252444 0.032260
v 0.023670 -0.252444 -0.056019
v 0.012766 -0.252444 0.039324
v 0.006668 -0.252444 -0.061063
v -0.004935 -0.252444 0.040399
v -0.011033 -0.252444 -0.059988
v -0.021936 -0.252444 0.035356
v -0.027298 -0.252444 -0.052923
v -0.036187 -0.252444 0.024801
v -0.040167 -0.252444 -0.040722
v -0.045968 -0.252444 0.010010
v -0.048086 -0.252444 -0.024855
v -0.050101 -0.252444 -0.007236
vn 0 1 0
usemtl material_0_0
f 1//1 2//1 3//1
f 2//1 1//1 4//1
f 4//1 1//1 5//1
f 4//1 5//1 6//1
f 6//1 5//1 7//1
f 6//1 7//1 8//1
f 8//1 7//1 9//1
f 8//1 9//1 10//1
f 10//1 9//1 11//1
f 10//1 11//1 12//1
f 12//1 11//1 13//1
f 12//1 13//1 14//1
f 14//1 13//1 15//1
f 14//1 15//1 16//1
f 16//1 15//1 17//1
f 16//1 17//1 18//1
