# SSTK version 0.8.0
# 140
mtllib original-140.mtl
o #ID1221
v -0.022915 -0.462364 0.305277
v -0.024493 -0.467279 0.306129
v -0.025089 -0.467280 0.306126
v -0.022871 -0.465210 0.305775
v -0.016394 -0.451138 0.303347
v -0.020741 -0.464519 0.305665
v -0.017257 -0.454439 0.303920
v -0.019491 -0.464517 0.305671
v -0.017645 -0.457241 0.304408
v -0.016096 -0.451431 0.303400
v -0.011615 -0.440339 0.301483
v -0.009009 -0.442566 0.301885
v -0.009009 -0.443798 0.302101
v -0.008659 -0.441136 0.301637
v -0.007948 -0.438458 0.301172
v -0.007609 -0.439954 0.301436
v -0.002815 -0.437398 0.301013
v -0.003411 -0.438337 0.301174
v -0.000701 -0.438811 0.301270
v -0.002517 -0.437397 0.301014
v 0.005881 -0.438329 0.301219
v 0.001235 -0.439829 0.301458
v 0.002396 -0.441390 0.301737
v 0.002784 -0.443494 0.302107
v 0.002784 -0.446252 0.302589
v 0.003082 -0.447777 0.302857
v 0.007429 -0.439794 0.301483
v 0.006178 -0.438328 0.301220
v 0.007429 -0.437389 0.301062
v 0.008025 -0.437388 0.301065
v 0.007727 -0.438620 0.301279
v 0.008025 -0.437681 0.301117
v 0.010526 -0.439791 0.301498
v 0.010169 -0.438618 0.301291
v 0.013835 -0.438252 0.301245
v 0.011717 -0.441022 0.301719
v 0.011717 -0.441961 0.301883
v 0.021306 -0.432800 0.300329
v 0.020115 -0.438316 0.301288
v 0.019404 -0.435343 0.300765
v 0.024105 -0.430040 0.299861
v 0.024105 -0.429454 0.299758
v 0.003082 -0.461799 0.305309
v 0.003082 -0.459921 0.304980
v 0.003410 -0.463339 0.305579
v 0.004392 -0.464555 0.305797
v 0.008323 -0.466018 0.306072
v 0.009574 -0.459036 0.304858
v 0.019162 -0.439490 0.301488
v 0.016914 -0.437160 0.301070
v 0.027500 -0.439483 0.301529
v 0.027858 -0.438309 0.301325
v 0.028453 -0.438895 0.301431
v 0.009574 -0.459916 0.305012
v 0.011465 -0.465484 0.305995
v 0.010348 -0.461968 0.305374
v 0.012671 -0.462964 0.305560
v 0.014220 -0.463886 0.305729
v 0.015128 -0.461436 0.305305
v 0.016587 -0.461226 0.305276
v 0.018210 -0.456857 0.304520
v 0.018567 -0.457502 0.304635
v 0.018567 -0.457209 0.304583
v 0.002486 -0.447777 0.302854
v -0.013815 -0.443039 0.301944
v -0.013937 -0.448452 0.302890
v -0.014548 -0.446560 0.302556
v -0.012106 -0.450841 0.303317
v -0.005807 -0.455778 0.304211
v -0.006909 -0.446759 0.302629
v -0.000611 -0.451418 0.303475
v -0.003708 -0.458754 0.304742
v -0.001013 -0.462198 0.305358
v 0.000674 -0.459392 0.304876
v 0.000774 -0.453543 0.303854
v 0.001236 -0.455992 0.304284
v 0.001236 -0.455699 0.304233
v -0.013401 -0.464956 0.305778
v -0.011450 -0.466388 0.306038
v -0.015381 -0.463472 0.305509
v -0.016796 -0.460999 0.305069
v -0.017645 -0.457534 0.304459
v -0.010855 -0.465449 0.305877
v -0.007758 -0.466033 0.305995
v -0.008353 -0.465028 0.305816
v -0.006328 -0.463773 0.305607
v -0.003823 -0.464412 0.305731
v -0.004780 -0.461681 0.305249
v 0.024105 -0.430040 0.299861
v 0.024081 -0.428612 0.304569
v 0.024081 -0.429199 0.304672
v 0.024105 -0.429454 0.299758
v 0.020115 -0.438316 0.301288
v 0.020091 -0.437475 0.306099
v 0.020091 -0.437475 0.306099
v 0.027858 -0.438309 0.301325
v 0.020115 -0.438316 0.301288
v 0.027834 -0.437468 0.306137
v 0.028429 -0.438054 0.306242
v 0.028453 -0.438895 0.301431
v 0.028429 -0.438054 0.306242
v 0.027500 -0.439483 0.301529
v 0.028453 -0.438895 0.301431
v 0.027476 -0.438642 0.306340
v 0.019162 -0.439490 0.301488
v 0.019138 -0.438649 0.306300
v 0.009574 -0.459036 0.304858
v 0.009550 -0.458194 0.309669
v 0.009574 -0.459916 0.305012
v 0.009550 -0.459075 0.309823
v 0.010348 -0.461968 0.305374
v 0.010324 -0.461127 0.310186
v 0.012671 -0.462964 0.305560
v 0.012647 -0.462123 0.310371
v 0.015128 -0.461436 0.305305
v 0.015104 -0.460595 0.310116
v 0.018210 -0.456857 0.304520
v 0.018186 -0.456016 0.309331
v 0.018186 -0.456016 0.309331
v 0.018567 -0.457209 0.304583
v 0.018210 -0.456857 0.304520
v 0.018543 -0.456368 0.309395
v 0.018543 -0.456661 0.309446
v 0.018567 -0.457502 0.304635
v 0.016563 -0.460385 0.310087
v 0.016587 -0.461226 0.305276
v 0.014220 -0.463886 0.305729
v 0.014195 -0.463045 0.310540
v 0.011465 -0.465484 0.305995
v 0.011441 -0.464643 0.310806
v 0.008299 -0.465177 0.310884
v 0.008323 -0.466018 0.306072
v 0.004392 -0.464555 0.305797
v 0.004368 -0.463714 0.310608
v 0.003386 -0.462497 0.310390
v 0.003410 -0.463339 0.305579
v 0.003058 -0.460958 0.310120
v 0.003082 -0.461799 0.305309
v 0.003082 -0.459921 0.304980
v 0.003058 -0.459080 0.309791
v 0.011693 -0.441120 0.306694
v 0.011717 -0.441961 0.301883
v 0.011693 -0.440181 0.306530
v 0.011717 -0.441022 0.301719
v 0.010502 -0.438950 0.306309
v 0.010526 -0.439791 0.301498
v 0.007429 -0.439794 0.301483
v 0.007405 -0.438953 0.306294
v 0.003058 -0.446936 0.307668
v 0.003082 -0.447777 0.302857
v 0.002486 -0.447777 0.302854
v 0.002462 -0.446936 0.307665
v 0.002760 -0.445411 0.307400
v 0.002486 -0.447777 0.302854
v 0.002462 -0.446936 0.307665
v 0.002784 -0.446252 0.302589
v 0.002784 -0.443494 0.302107
v 0.002760 -0.442653 0.306918
v 0.002396 -0.441390 0.301737
v 0.002372 -0.440549 0.306548
v 0.001211 -0.438988 0.306269
v 0.001235 -0.439829 0.301458
v -0.000701 -0.438811 0.301270
v -0.000725 -0.437970 0.306082
v -0.003435 -0.437496 0.305985
v -0.003411 -0.438337 0.301174
v -0.007609 -0.439954 0.301436
v -0.007633 -0.439113 0.306247
v -0.008683 -0.440294 0.306448
v -0.008659 -0.441136 0.301637
v -0.009009 -0.442566 0.301885
v -0.009033 -0.441725 0.306696
v -0.009009 -0.443798 0.302101
v -0.009033 -0.442957 0.306912
v -0.006909 -0.446759 0.302629
v -0.006933 -0.445918 0.307440
v -0.000611 -0.451418 0.303475
v -0.000635 -0.450576 0.308286
v 0.000774 -0.453543 0.303854
v 0.000750 -0.452702 0.308665
v 0.001211 -0.454858 0.309044
v 0.001236 -0.455699 0.304233
v 0.001236 -0.455992 0.304284
v 0.001211 -0.455151 0.309095
v 0.000674 -0.459392 0.304876
v 0.000649 -0.458551 0.309687
v -0.001013 -0.462198 0.305358
v -0.001037 -0.461357 0.310169
v -0.003823 -0.464412 0.305731
v -0.003847 -0.463571 0.310542
v -0.007758 -0.466033 0.305995
v -0.007782 -0.465191 0.310806
v -0.011450 -0.466388 0.306038
v -0.011474 -0.465547 0.310849
v -0.019491 -0.464517 0.305671
v -0.019515 -0.463676 0.310482
v -0.020741 -0.464519 0.305665
v -0.020765 -0.463677 0.310476
v -0.022871 -0.465210 0.305775
v -0.022895 -0.464369 0.310586
v -0.024518 -0.466438 0.310940
v -0.024493 -0.467279 0.306129
v -0.025113 -0.466439 0.310937
v -0.025089 -0.467280 0.306126
v -0.025113 -0.466439 0.310937
v -0.022915 -0.462364 0.305277
v -0.025089 -0.467280 0.306126
v -0.022939 -0.461523 0.310089
v -0.016418 -0.450297 0.308158
v -0.016394 -0.451138 0.303347
v -0.016096 -0.451431 0.303400
v -0.016418 -0.450297 0.308158
v -0.016120 -0.450590 0.308211
v -0.016394 -0.451138 0.303347
v -0.017282 -0.453598 0.308731
v -0.017257 -0.454439 0.303920
v -0.017645 -0.457241 0.304408
v -0.017669 -0.456400 0.309219
v -0.017669 -0.456693 0.309270
v -0.017645 -0.457534 0.304459
v -0.016820 -0.460157 0.309880
v -0.016796 -0.460999 0.305069
v -0.015405 -0.462631 0.310320
v -0.015381 -0.463472 0.305509
v -0.013401 -0.464956 0.305778
v -0.013425 -0.464115 0.310589
v -0.010855 -0.465449 0.305877
v -0.010879 -0.464607 0.310688
v -0.008377 -0.464187 0.310627
v -0.008353 -0.465028 0.305816
v -0.006328 -0.463773 0.305607
v -0.006352 -0.462931 0.310418
v -0.004804 -0.460840 0.310060
v -0.004780 -0.461681 0.305249
v -0.003732 -0.457913 0.309553
v -0.003708 -0.458754 0.304742
v -0.005831 -0.454937 0.309023
v -0.005807 -0.455778 0.304211
v -0.012106 -0.450841 0.303317
v -0.012130 -0.450000 0.308128
v -0.013961 -0.447611 0.307701
v -0.013937 -0.448452 0.302890
v -0.014548 -0.446560 0.302556
v -0.014572 -0.445719 0.307367
v -0.013839 -0.442198 0.306755
v -0.013815 -0.443039 0.301944
v -0.011639 -0.439498 0.306294
v -0.011615 -0.440339 0.301483
v -0.007948 -0.438458 0.301172
v -0.007972 -0.437617 0.305984
v -0.002815 -0.437398 0.301013
v -0.002839 -0.436556 0.305824
v -0.002517 -0.437397 0.301014
v -0.002541 -0.436556 0.305825
v 0.005881 -0.438329 0.301219
v 0.005856 -0.437487 0.306030
v 0.006154 -0.437487 0.306032
v 0.006178 -0.438328 0.301220
v 0.007429 -0.437389 0.301062
v 0.007405 -0.436547 0.305873
v 0.008025 -0.437388 0.301065
v 0.008001 -0.436547 0.305876
v 0.008025 -0.437388 0.301065
v 0.008001 -0.436840 0.305928
v 0.008025 -0.437681 0.301117
v 0.008001 -0.436547 0.305876
v 0.007727 -0.438620 0.301279
v 0.007703 -0.437779 0.306090
v 0.007703 -0.437779 0.306090
v 0.010169 -0.438618 0.301291
v 0.007727 -0.438620 0.301279
v 0.010145 -0.437777 0.306102
v 0.013835 -0.438252 0.301245
v 0.013811 -0.437411 0.306056
v 0.016914 -0.437160 0.301070
v 0.016890 -0.436319 0.305881
v 0.019404 -0.435343 0.300765
v 0.019380 -0.434502 0.305576
v 0.021282 -0.431959 0.305141
v 0.021306 -0.432800 0.300329
v 0.024081 -0.428612 0.304569
v 0.024105 -0.429454 0.299758
vn 0.004925489468300207 -0.17222553090541712 -0.9850452304629697
vn 0.9754986593091224 -0.21583865416888948 0.042615033176889
vn 0.9999878692428922 0.0008781930141976604 0.0048466631913261
vn 0.9032174826578317 -0.4219810188737737 0.07829558564504874
vn -0.0000303406988154243 0.9850571533070441 -0.17222776720977634
vn 0.3826507496665475 0.9104102160009305 -0.15726297205880366
vn 0.7070767567170549 0.69716156192723 -0.11835631238626655
vn 0.5300182205709283 -0.8348613657034846 0.14861758280411952
vn 0.2757083392664428 -0.9466428495000686 0.1668898653283976
vn 0.5313956800380212 -0.8340105477783485 0.14847571327118797
vn 0.9747503052075668 -0.21908321149922674 0.04317857034387141
vn 0.9842147053181406 0.1751035189870385 -0.02569380224648498
vn 0.7264000341325855 0.6776093952310316 -0.11484118558606894
vn -0.07562670029869373 0.9821719493189778 -0.17210131949782143
vn -0.6988069634608339 0.7040205818505532 -0.1265853393938551
vn -0.8332875876459279 0.5438568717943307 -0.09925471916898805
vn 0.9238567237785833 0.3777763744524962 -0.06143097618164631
vn 0.9710031772315059 -0.23462340311951127 0.0458768843203207
vn 0.8245319784731141 -0.5566466570530899 0.10144710773024411
vn 0.6373726836751961 -0.7584944157187494 0.13580236900787557
vn 0.34365882168082035 -0.9247688160198547 0.1634051749431029
vn -0.09579507443441448 -0.9806081314890547 0.17097074653767455
vn -0.5895527378997466 -0.796155108526338 0.13625201797525083
vn -0.9050828245587843 -0.41962588495775327 0.06884182857910909
vn -0.9946573984989678 -0.10241773423957713 0.012933186942776065
vn -0.975617110920038 0.21532040320081092 -0.042525014350123215
vn -0.9284541552855466 -0.366656434550449 0.05946377498741848
vn -0.39388665155754377 -0.9057563159090652 0.15639310060109354
vn 0.5133713365681419 -0.844903975459817 0.15029019609554187
vn 0.0000303406988154243 -0.9850571533070441 0.17222776720977634
vn -0.9954822496752384 0.0925597598751989 -0.02116084670735616
vn -0.9820002621396626 0.18516309566588984 -0.03728422134171836
vn -0.9959720085734235 -0.0890374598891337 0.010587203347022003
vn -0.9188075569648594 -0.38956166853699387 0.06351676684892169
vn -0.6554405410286772 -0.744510485336622 0.12689300374670917
vn -0.3276331636000987 -0.9309635387104792 0.1611316222876595
vn 0.0974785034457393 -0.9802831667090307 0.17188034917608644
vn 0.574296087781042 -0.8059227639252092 0.14377935229559582
vn 0.887969557781033 -0.4522562314779509 0.08351266696447132
vn 0.993007292109313 -0.11534674926250867 0.025132553636693086
vn 0.9539169538136852 0.2963598151901574 -0.04704577735860211
vn 0.7194255304849394 0.6847921503398615 -0.1161318944966104
vn 0.732867238234348 0.6708172693128028 -0.11362131100490763
vn 0.9252413824547067 0.37446788604952536 -0.06084559565739212
vn 0.9945900093864758 0.1030559951469656 -0.013045117587771106
vn 0.9967329401182625 -0.07856829281710873 0.018720829228676156
vn 0.9400376142830464 -0.3351458213210092 0.06329741056397503
vn 0.7546133497267618 -0.6457141666271838 0.11667007941677843
vn 0.5095142483630196 -0.8471686526974517 0.15066686630394843
vn 0.24342429206086807 -0.9552193312099458 0.1682279504645081
vn -0.06805007424900855 -0.9828313977448844 0.17149819533027602
vn -0.11607675372258885 -0.978496743396588 0.1705001771479949
vn 0.15813624320641692 -0.9725280505752554 0.17082774783053895
vn 0.577080395452591 -0.8039893123196554 0.14345522946218678
vn 0.4406991142119373 -0.8838649509024263 0.15673876131661024
vn -0.9167226588556465 0.39275135172668985 -0.07325259352058507
vn -0.8936021669760813 0.4413733052898601 -0.08163805823974175
vn -0.8678285175719719 0.48868497649211984 -0.08978116639769108
vn 0.9778220685667348 0.20708270516293786 -0.03131701528357342
vn 0.7070767567170549 0.69716156192723 -0.11835631238626657
vn 0.9690481144733637 -0.24231545547610225 0.047211988657837205
vn 0.9977027598770538 -0.0657091965416004 0.01647739128525648
vn 0.9929865059016452 0.11720375279607768 -0.015526732681341488
vn 0.9305792519783099 0.3613812356726432 -0.05853083197087379
vn 0.7541267524168264 0.6475449025569356 -0.10944606188337361
vn 0.41025736299965476 0.8986882105694884 -0.1550754535314349
vn 0.013379549383782949 0.984980354798023 -0.17214728670602872
vn -0.3566378236859665 0.9199783319857531 -0.1626325041104915
vn -0.682227479577912 0.7196283326492644 -0.1292313002225445
vn -0.8830842028477202 0.46143416350251903 -0.08509291059505115
vn -0.9914988092528264 -0.12892225583690514 0.017583037284579876
vn -0.7298993040055843 -0.6739503208839195 0.11418393491479198
vn -0.7163070342762096 -0.6879572222582999 0.11670086970141039
vn -0.8883120237125146 -0.453111093402376 0.07478024848501295
vn -0.9985996958931257 -0.05273313146037953 0.004226607213704136
vn -0.9049750677319739 0.4183162536096516 -0.077663625652519
vn -0.6340797048697341 0.7611687817663058 -0.13625348999827044
vn -0.33598380923419474 0.9275071480277794 -0.1638455684168942
vn -0.10279103172966346 0.9797519785105987 -0.1718140401728517
vn 0.056434895602039695 0.9835351119463349 -0.17167931187856356
vn -0.31984377099837924 0.933039798969889 -0.16473219385343404
vn 0.9885470827607871 -0.14774171423176727 0.030774194400446098
vn 0.9544774511155208 -0.2929796923995872 0.05599727808975749
vn -0.05009436527780349 0.9837779036462558 -0.1722544364154151
vn -0.22067411770361756 0.9605853544247418 -0.16905239022392782
vn -0.4714395597804005 0.8683173835800745 -0.1541741315743861
vn -0.7076996522083783 0.6953472861488649 -0.12511336423239927
vn -0.7884937015490262 0.6051713846295251 -0.10975098105756591
vn -0.7715493208386673 0.6259976444330937 -0.11330752259938062
usemtl material_0_0
f 1//1 2//1 3//1
f 2//1 1//1 4//1
f 4//1 1//1 5//1
f 4//1 5//1 6//1
f 6//1 5//1 7//1
f 6//1 7//1 8//1
f 8//1 7//1 9//1
f 7//1 5//1 10//1
f 11//1 12//1 13//1
f 12//1 11//1 14//1
f 14//1 11//1 15//1
f 14//1 15//1 16//1
f 16//1 15//1 17//1
f 16//1 17//1 18//1
f 18//1 17//1 19//1
f 19//1 17//1 20//1
f 19//1 20//1 21//1
f 19//1 21//1 22//1
f 22//1 21//1 23//1
f 23//1 21//1 24//1
f 24//1 21//1 25//1
f 25//1 21//1 26//1
f 26//1 21//1 27//1
f 27//1 21//1 28//1
f 27//1 28//1 29//1
f 27//1 29//1 30//1
f 27//1 30//1 31//1
f 31//1 30//1 32//1
f 31//1 33//1 27//1
f 33//1 31//1 34//1
f 33//1 34//1 35//1
f 33//1 35//1 36//1
f 36//1 35//1 37//1
f 38//1 39//1 40//1
f 39//1 38//1 41//1
f 41//1 38//1 42//1
f 37//1 43//1 44//1
f 43//1 37//1 45//1
f 45//1 37//1 46//1
f 46//1 37//1 47//1
f 47//1 37//1 48//1
f 48//1 37//1 49//1
f 49//1 37//1 35//1
f 49//1 35//1 50//1
f 49//1 50//1 40//1
f 49//1 40//1 39//1
f 49//1 39//1 51//1
f 51//1 39//1 52//1
f 51//1 52//1 53//1
f 47//1 54//1 55//1
f 54//1 47//1 48//1
f 55//1 54//1 56//1
f 55//1 56//1 57//1
f 55//1 57//1 58//1
f 58//1 57//1 59//1
f 58//1 59//1 60//1
f 60//1 59//1 61//1
f 60//1 61//1 62//1
f 62//1 61//1 63//1
f 26//1 64//1 25//1
f 65//1 66//1 67//1
f 66//1 65//1 68//1
f 68//1 65//1 11//1
f 68//1 11//1 69//1
f 69//1 11//1 13//1
f 69//1 13//1 70//1
f 69//1 70//1 71//1
f 69//1 71//1 72//1
f 72//1 71//1 73//1
f 73//1 71//1 74//1
f 74//1 71//1 75//1
f 74//1 75//1 76//1
f 76//1 75//1 77//1
f 8//1 78//1 79//1
f 78//1 8//1 80//1
f 80//1 8//1 81//1
f 81//1 8//1 82//1
f 82//1 8//1 9//1
f 79//1 78//1 83//1
f 79//1 83//1 84//1
f 84//1 83//1 85//1
f 84//1 85//1 86//1
f 84//1 86//1 87//1
f 87//1 86//1 88//1
f 87//1 88//1 72//1
f 87//1 72//1 73//1
f 89//2 90//3 91//2
f 90//3 89//2 92//3
f 93//4 91//2 94//4
f 91//2 93//4 89//2
f 95//5 96//6 97//5
f 96//6 95//5 98//6
f 96//6 99//7 100//7
f 99//7 96//6 98//6
f 101//8 102//9 103//8
f 102//9 101//8 104//9
f 104//9 105//10 102//9
f 105//10 104//9 106//10
f 107//11 106//10 108//11
f 106//10 107//11 105//10
f 109//12 108//11 110//12
f 108//11 109//12 107//11
f 111//13 110//12 112//13
f 110//12 111//13 109//12
f 112//13 113//14 111//13
f 113//14 112//13 114//14
f 114//14 115//15 113//14
f 115//15 114//14 116//15
f 116//15 117//16 115//15
f 117//16 116//15 118//16
f 119//7 120//17 121//7
f 120//17 119//7 122//17
f 120//17 123//18 124//18
f 123//18 120//17 122//17
f 124//18 125//19 126//19
f 125//19 124//18 123//18
f 127//20 125//19 128//20
f 125//19 127//20 126//19
f 128//20 129//21 127//20
f 129//21 128//20 130//21
f 129//21 131//22 132//22
f 131//22 129//21 130//21
f 131//22 133//23 132//22
f 133//23 131//22 134//23
f 135//24 133//23 134//23
f 133//23 135//24 136//24
f 137//25 136//24 135//24
f 136//24 137//25 138//25
f 137//25 139//26 138//25
f 139//26 137//25 140//26
f 141//26 139//26 140//26
f 139//26 141//26 142//26
f 143//27 142//26 141//26
f 142//26 143//27 144//27
f 145//28 144//27 143//27
f 144//27 145//28 146//28
f 145//28 147//29 146//28
f 147//29 145//28 148//29
f 147//29 149//29 150//29
f 149//29 147//29 148//29
f 149//29 151//30 150//29
f 151//30 149//29 152//30
f 153//31 154//32 155//32
f 154//32 153//31 156//31
f 153//31 157//33 156//31
f 157//33 153//31 158//33
f 158//33 159//34 157//33
f 159//34 158//33 160//34
f 161//35 159//34 160//34
f 159//34 161//35 162//35
f 161//35 163//36 162//35
f 163//36 161//35 164//36
f 163//36 165//37 166//37
f 165//37 163//36 164//36
f 165//37 167//38 166//37
f 167//38 165//37 168//38
f 167//38 169//39 170//39
f 169//39 167//38 168//38
f 171//40 169//39 172//40
f 169//39 171//40 170//39
f 173//41 172//40 174//41
f 172//40 173//41 171//40
f 175//42 174//41 176//42
f 174//41 175//42 173//41
f 176//42 177//43 175//42
f 177//43 176//42 178//43
f 179//44 178//43 180//44
f 178//43 179//44 177//43
f 179//44 181//45 182//45
f 181//45 179//44 180//44
f 183//46 181//45 184//46
f 181//45 183//46 182//45
f 185//47 184//46 186//47
f 184//46 185//47 183//46
f 187//48 186//47 188//48
f 186//47 187//48 185//47
f 188//48 189//49 187//48
f 189//49 188//48 190//49
f 190//49 191//50 189//49
f 191//50 190//49 192//50
f 192//50 193//51 191//50
f 193//51 192//50 194//51
f 194//51 195//52 193//51
f 195//52 194//51 196//52
f 196//52 197//53 195//52
f 197//53 196//52 198//53
f 198//53 199//54 197//53
f 199//54 198//53 200//54
f 199//54 201//55 202//55
f 201//55 199//54 200//54
f 202//55 203//30 204//30
f 203//30 202//55 201//55
f 205//56 206//57 207//56
f 206//57 205//56 208//57
f 209//58 206//57 208//57
f 206//57 209//58 210//58
f 211//59 212//60 213//59
f 212//60 211//59 214//60
f 211//59 215//61 216//61
f 215//61 211//59 213//59
f 217//62 215//61 218//62
f 215//61 217//62 216//61
f 217//62 219//63 220//63
f 219//63 217//62 218//62
f 220//63 221//64 222//64
f 221//64 220//63 219//63
f 222//64 223//65 224//65
f 223//65 222//64 221//64
f 223//65 225//66 224//65
f 225//66 223//65 226//66
f 226//66 227//67 225//66
f 227//67 226//66 228//67
f 227//67 229//68 230//68
f 229//68 227//67 228//67
f 229//68 231//69 230//68
f 231//69 229//68 232//69
f 233//70 231//69 232//69
f 231//69 233//70 234//70
f 235//71 234//70 233//70
f 234//70 235//71 236//71
f 237//72 236//71 235//71
f 236//71 237//72 238//72
f 237//72 239//73 238//72
f 239//73 237//72 240//73
f 241//74 239//73 240//73
f 239//73 241//74 242//74
f 241//74 243//75 242//74
f 243//75 241//74 244//75
f 245//76 243//75 244//75
f 243//75 245//76 246//76
f 247//77 246//76 245//76
f 246//76 247//77 248//77
f 247//77 249//78 248//77
f 249//78 247//77 250//78
f 250//78 251//79 249//78
f 251//79 250//78 252//79
f 252//79 253//80 251//79
f 253//80 252//79 254//80
f 254//80 255//80 253//80
f 255//80 254//80 256//80
f 255//80 257//81 258//81
f 257//81 255//80 256//80
f 257//81 259//81 258//81
f 259//81 257//81 260//81
f 260//81 261//5 259//81
f 261//5 260//81 262//5
f 263//3 264//82 265//82
f 264//82 263//3 266//3
f 267//83 264//82 268//83
f 264//82 267//83 265//82
f 269//5 270//84 271//5
f 270//84 269//5 272//84
f 272//84 273//85 270//84
f 273//85 272//84 274//85
f 274//85 275//86 273//85
f 275//86 274//85 276//86
f 276//86 277//87 275//86
f 277//87 276//86 278//87
f 279//88 277//87 278//87
f 277//87 279//88 280//88
f 281//89 280//88 279//88
f 280//88 281//89 282//89
