# SSTK version 0.8.0
# 134
mtllib original-134.mtl
o #ID1189
v 0.061433 -0.567721 0.327760
v 0.058461 -0.566634 0.327530
v 0.058461 -0.567721 0.327759
v 0.061433 -0.566633 0.327531
v 0.058462 -0.571367 0.328527
v 0.057238 -0.563033 0.326771
v 0.057239 -0.571368 0.328527
v 0.058461 -0.564144 0.327005
v 0.061433 -0.563033 0.326772
v 0.061433 -0.564143 0.327006
v 0.061433 -0.564143 0.327006
v 0.058461 -0.564144 0.327005
v 0.061433 -0.563033 0.326772
v 0.058461 -0.566634 0.327530
v 0.058461 -0.567721 0.327759
v 0.057238 -0.563033 0.326771
v 0.058462 -0.571367 0.328527
v 0.057239 -0.571368 0.328527
v 0.061433 -0.566633 0.327531
v 0.061433 -0.567721 0.327760
v 0.057238 -0.563033 0.326771
v 0.057240 -0.572375 0.323748
v 0.057239 -0.571368 0.328527
v 0.057240 -0.564040 0.321992
v 0.057240 -0.564040 0.321992
v 0.057238 -0.563033 0.326771
v 0.057240 -0.572375 0.323748
v 0.057239 -0.571368 0.328527
v 0.057238 -0.562987 0.326988
v 0.057239 -0.571322 0.328744
v 0.057238 -0.562987 0.326988
v 0.057239 -0.571322 0.328744
v 0.058462 -0.571367 0.328527
v 0.057240 -0.572375 0.323748
v 0.058463 -0.572374 0.323748
v 0.057239 -0.571368 0.328527
v 0.057239 -0.571368 0.328527
v 0.058462 -0.571367 0.328527
v 0.057240 -0.572375 0.323748
v 0.058463 -0.572374 0.323748
v 0.058461 -0.571322 0.328745
v 0.057239 -0.571322 0.328744
v 0.057239 -0.571322 0.328744
v 0.058461 -0.571322 0.328745
v 0.058463 -0.572374 0.323748
v 0.058461 -0.567721 0.327759
v 0.058462 -0.571367 0.328527
v 0.058463 -0.568728 0.322980
v 0.058463 -0.568728 0.322980
v 0.058463 -0.572374 0.323748
v 0.058461 -0.567721 0.327759
v 0.058462 -0.571367 0.328527
v 0.058461 -0.571322 0.328745
v 0.058461 -0.567675 0.327976
v 0.058461 -0.567675 0.327976
v 0.058461 -0.571322 0.328745
v 0.061433 -0.567721 0.327760
v 0.058463 -0.568728 0.322980
v 0.061434 -0.568728 0.322981
v 0.058461 -0.567721 0.327759
v 0.058461 -0.567721 0.327759
v 0.061433 -0.567721 0.327760
v 0.058463 -0.568728 0.322980
v 0.061434 -0.568728 0.322981
v 0.061433 -0.567675 0.327977
v 0.058461 -0.567675 0.327976
v 0.058461 -0.567675 0.327976
v 0.061433 -0.567675 0.327977
v 0.061434 -0.568728 0.322981
v 0.061433 -0.566633 0.327531
v 0.061433 -0.567721 0.327760
v 0.061434 -0.567640 0.322751
v 0.061434 -0.567640 0.322751
v 0.061434 -0.568728 0.322981
v 0.061433 -0.566633 0.327531
v 0.061433 -0.567721 0.327760
v 0.061433 -0.566587 0.327748
v 0.061433 -0.567675 0.327977
v 0.061433 -0.566587 0.327748
v 0.061433 -0.567675 0.327977
v 0.058461 -0.566634 0.327530
v 0.061434 -0.567640 0.322751
v 0.058463 -0.567641 0.322751
v 0.061433 -0.566633 0.327531
v 0.061433 -0.566633 0.327531
v 0.058461 -0.566634 0.327530
v 0.061434 -0.567640 0.322751
v 0.058463 -0.567641 0.322751
v 0.058461 -0.566588 0.327747
v 0.061433 -0.566587 0.327748
v 0.061433 -0.566587 0.327748
v 0.058461 -0.566588 0.327747
v 0.058463 -0.567641 0.322751
v 0.058461 -0.564144 0.327005
v 0.058461 -0.566634 0.327530
v 0.058462 -0.565151 0.322226
v 0.058462 -0.565151 0.322226
v 0.058463 -0.567641 0.322751
v 0.058461 -0.564144 0.327005
v 0.058461 -0.566634 0.327530
v 0.058461 -0.566588 0.327747
v 0.058461 -0.564098 0.327222
v 0.058461 -0.564098 0.327222
v 0.058461 -0.566588 0.327747
v 0.061433 -0.564143 0.327006
v 0.058462 -0.565151 0.322226
v 0.061434 -0.565150 0.322227
v 0.058461 -0.564144 0.327005
v 0.058461 -0.564144 0.327005
v 0.061433 -0.564143 0.327006
v 0.058462 -0.565151 0.322226
v 0.061434 -0.565150 0.322227
v 0.061433 -0.564097 0.327223
v 0.058461 -0.564098 0.327222
v 0.058461 -0.564098 0.327222
v 0.061433 -0.564097 0.327223
v 0.061434 -0.565150 0.322227
v 0.061433 -0.563033 0.326772
v 0.061433 -0.564143 0.327006
v 0.061434 -0.564040 0.321993
v 0.061434 -0.564040 0.321993
v 0.061434 -0.565150 0.322227
v 0.061433 -0.563033 0.326772
v 0.061433 -0.564143 0.327006
v 0.061433 -0.564097 0.327223
v 0.061432 -0.562987 0.326989
v 0.061432 -0.562987 0.326989
v 0.061433 -0.564097 0.327223
v 0.057238 -0.563033 0.326771
v 0.061434 -0.564040 0.321993
v 0.057240 -0.564040 0.321992
v 0.061433 -0.563033 0.326772
v 0.061433 -0.563033 0.326772
v 0.057238 -0.563033 0.326771
v 0.061434 -0.564040 0.321993
v 0.057240 -0.564040 0.321992
v 0.061432 -0.562987 0.326989
v 0.057238 -0.562987 0.326988
v 0.057238 -0.562987 0.326988
v 0.061432 -0.562987 0.326989
v 0.057240 -0.564040 0.321992
v 0.058462 -0.565151 0.322226
v 0.058463 -0.567641 0.322751
v 0.061434 -0.564040 0.321993
v 0.061434 -0.565150 0.322227
v 0.061434 -0.567640 0.322751
v 0.058463 -0.568728 0.322980
v 0.061434 -0.568728 0.322981
v 0.058463 -0.572374 0.323748
v 0.057240 -0.572375 0.323748
v 0.058463 -0.568728 0.322980
v 0.058463 -0.567641 0.322751
v 0.058463 -0.572374 0.323748
v 0.057240 -0.564040 0.321992
v 0.057240 -0.572375 0.323748
v 0.061434 -0.568728 0.322981
v 0.061434 -0.567640 0.322751
v 0.061434 -0.565150 0.322227
v 0.061434 -0.564040 0.321993
v 0.058462 -0.565151 0.322226
v 0.058461 -0.571322 0.328745
v 0.058461 -0.567675 0.327976
v 0.057239 -0.571322 0.328744
v 0.061433 -0.567675 0.327977
v 0.058461 -0.566588 0.327747
v 0.061433 -0.566587 0.327748
v 0.057238 -0.562987 0.326988
v 0.058461 -0.564098 0.327222
v 0.061432 -0.562987 0.326989
v 0.061433 -0.564097 0.327223
v 0.061433 -0.564097 0.327223
v 0.058461 -0.564098 0.327222
v 0.061432 -0.562987 0.326989
v 0.058461 -0.566588 0.327747
v 0.058461 -0.567675 0.327976
v 0.057239 -0.571322 0.328744
v 0.057238 -0.562987 0.326988
v 0.061433 -0.566587 0.327748
v 0.061433 -0.567675 0.327977
v 0.058461 -0.571322 0.328745
vn -0.0002836628078016496 0.2061975848332358 0.9785103349195409
vn 0.0002836628078016496 -0.2061975848332358 -0.9785103349195409
vn -0.9999999563469952 -0.0001394259949081938 -0.00026051180341067696
vn 0.9999999563469952 0.0001394259949081938 0.00026051180341067696
vn 0.00008271287234067012 -0.978510366102134 0.20619761538206072
vn -0.00008271287234067012 0.978510366102134 -0.20619761538206072
vn 0.9999999563469952 0.0001394259949180625 0.00026051180340859746
vn -0.9999999563469952 -0.0001394259949180625 -0.00026051180340859746
vn 0.00008271287229694369 -0.978510366102134 0.2061976153820607
vn -0.00008271287229694369 0.978510366102134 -0.2061976153820607
vn 0.9999999563469952 0.00013942599493216022 0.00026051180340562664
vn -0.9999999563469952 -0.00013942599493216022 -0.00026051180340562664
vn -0.00008271287232645161 0.978510366102134 -0.2061976153820607
vn 0.00008271287232645161 -0.978510366102134 0.2061976153820607
vn 0.9999999563469952 0.0001394259948531092 0.00026051180342228486
vn -0.9999999563469952 -0.0001394259948531092 -0.00026051180342228486
vn 0.00008271287229694646 -0.978510366102134 0.2061976153820607
vn -0.00008271287229694646 0.978510366102134 -0.2061976153820607
vn 0.9999999563469952 0.00013942599497581473 0.00026051180339642756
vn -0.9999999563469952 -0.00013942599497581473 -0.00026051180339642756
vn -0.00008271287229800724 0.978510366102134 -0.2061976153820607
vn 0.00008271287229800724 -0.978510366102134 0.2061976153820607
usemtl material_0_0
f 1//1 2//1 3//1
f 2//1 1//1 4//1
f 5//1 6//1 7//1
f 6//1 5//1 3//1
f 6//1 3//1 8//1
f 6//1 8//1 9//1
f 8//1 3//1 2//1
f 9//1 8//1 10//1
f 11//2 12//2 13//2
f 14//2 15//2 12//2
f 13//2 12//2 16//2
f 12//2 15//2 16//2
f 15//2 17//2 16//2
f 18//2 16//2 17//2
f 19//2 20//2 14//2
f 15//2 14//2 20//2
f 21//3 22//3 23//3
f 22//3 21//3 24//3
f 25//4 26//4 27//4
f 28//4 27//4 26//4
f 29//3 23//3 30//3
f 23//3 29//3 21//3
f 26//4 31//4 28//4
f 32//4 28//4 31//4
f 33//5 34//5 35//5
f 34//5 33//5 36//5
f 37//6 38//6 39//6
f 40//6 39//6 38//6
f 41//5 36//5 33//5
f 36//5 41//5 42//5
f 43//6 44//6 37//6
f 38//6 37//6 44//6
f 45//7 46//7 47//7
f 46//7 45//7 48//7
f 49//8 50//8 51//8
f 52//8 51//8 50//8
f 46//7 53//7 47//7
f 53//7 46//7 54//7
f 55//8 51//8 56//8
f 52//8 56//8 51//8
f 57//9 58//9 59//9
f 58//9 57//9 60//9
f 61//10 62//10 63//10
f 64//10 63//10 62//10
f 65//9 60//9 57//9
f 60//9 65//9 66//9
f 67//10 68//10 61//10
f 62//10 61//10 68//10
f 69//11 70//11 71//11
f 70//11 69//11 72//11
f 73//12 74//12 75//12
f 76//12 75//12 74//12
f 71//11 77//11 78//11
f 77//11 71//11 70//11
f 75//12 76//12 79//12
f 80//12 79//12 76//12
f 81//13 82//13 83//13
f 82//13 81//13 84//13
f 85//14 86//14 87//14
f 88//14 87//14 86//14
f 89//13 84//13 81//13
f 84//13 89//13 90//13
f 91//14 92//14 85//14
f 86//14 85//14 92//14
f 93//15 94//15 95//15
f 94//15 93//15 96//15
f 97//16 98//16 99//16
f 100//16 99//16 98//16
f 94//15 101//15 95//15
f 101//15 94//15 102//15
f 103//16 99//16 104//16
f 100//16 104//16 99//16
f 105//17 106//17 107//17
f 106//17 105//17 108//17
f 109//18 110//18 111//18
f 112//18 111//18 110//18
f 113//17 108//17 105//17
f 108//17 113//17 114//17
f 115//18 116//18 109//18
f 110//18 109//18 116//18
f 117//19 118//19 119//19
f 118//19 117//19 120//19
f 121//20 122//20 123//20
f 124//20 123//20 122//20
f 118//19 125//19 119//19
f 125//19 118//19 126//19
f 127//20 123//20 128//20
f 124//20 128//20 123//20
f 129//21 130//21 131//21
f 130//21 129//21 132//21
f 133//22 134//22 135//22
f 136//22 135//22 134//22
f 129//21 137//21 132//21
f 137//21 129//21 138//21
f 139//22 134//22 140//22
f 133//22 140//22 134//22
f 141//2 142//2 143//2
f 142//2 141//2 144//2
f 142//2 144//2 145//2
f 146//2 147//2 143//2
f 147//2 146//2 148//2
f 141//2 149//2 150//2
f 149//2 141//2 143//2
f 149//2 143//2 147//2
f 151//1 152//1 153//1
f 152//1 154//1 153//1
f 155//1 153//1 154//1
f 156//1 157//1 151//1
f 152//1 151//1 157//1
f 158//1 159//1 160//1
f 159//1 154//1 160//1
f 152//1 160//1 154//1
f 161//1 162//1 163//1
f 164//1 165//1 162//1
f 165//1 164//1 166//1
f 167//1 168//1 169//1
f 168//1 167//1 163//1
f 168//1 163//1 162//1
f 168//1 162//1 165//1
f 169//1 168//1 170//1
f 171//2 172//2 173//2
f 174//2 175//2 172//2
f 175//2 176//2 172//2
f 176//2 177//2 172//2
f 173//2 172//2 177//2
f 178//2 179//2 174//2
f 175//2 174//2 179//2
f 176//2 175//2 180//2
