# SSTK version 0.8.0
# 26
mtllib original-26.mtl
o #ID153
v -0.043313 -0.733321 0.367048
v -0.021602 -0.743612 0.372538
v -0.021502 -0.743808 0.371607
v -0.043413 -0.733125 0.367979
v -0.063629 -0.715619 0.361130
v -0.063729 -0.715423 0.362061
v -0.001432 -0.746452 0.375309
v -0.001332 -0.746648 0.374378
v -0.081741 -0.690975 0.354969
v -0.081641 -0.691171 0.354039
v -0.084691 -0.685238 0.353443
v -0.084491 -0.685432 0.352522
v 0.000906 -0.746766 0.375627
v 0.023180 -0.743684 0.372586
v 0.000907 -0.746964 0.374686
v -0.096282 -0.661548 0.344599
v 0.023312 -0.743802 0.371619
v -0.095986 -0.661736 0.343709
v 0.023412 -0.743606 0.372550
v -0.106180 -0.627825 0.334204
v -0.105885 -0.628012 0.333314
v 0.045123 -0.733308 0.367071
v 0.045222 -0.733112 0.368002
v -0.111261 -0.591211 0.324801
v -0.110965 -0.591398 0.323911
v 0.065436 -0.715601 0.361164
v 0.065536 -0.715405 0.362095
v -0.111264 -0.553387 0.316830
v -0.110968 -0.553575 0.315940
v 0.074441 -0.703374 0.357623
v 0.083545 -0.690951 0.355012
v 0.083445 -0.691147 0.354081
v -0.106189 -0.516088 0.310658
v -0.105894 -0.516276 0.309767
v 0.086494 -0.685215 0.353488
v -0.100482 -0.495850 0.308259
v -0.100186 -0.496038 0.307369
v 0.086294 -0.685409 0.352567
v -0.096299 -0.481043 0.306561
v -0.096003 -0.481231 0.305671
v 0.098082 -0.661520 0.344649
v -0.084710 -0.455792 0.305093
v 0.097787 -0.661708 0.343759
v -0.084510 -0.455986 0.304172
v 0.107977 -0.627796 0.334260
v 0.107682 -0.627983 0.333369
v -0.081762 -0.449928 0.304174
v 0.113052 -0.591180 0.324859
v 0.112756 -0.591368 0.323969
v -0.081662 -0.450124 0.303244
v 0.113049 -0.553355 0.316888
v 0.112753 -0.553543 0.315998
v -0.063754 -0.424693 0.300797
v -0.063654 -0.424889 0.299866
v 0.107968 -0.516061 0.310714
v 0.107672 -0.516248 0.309824
v -0.043441 -0.406105 0.299068
v -0.043341 -0.406302 0.298137
v 0.098067 -0.481012 0.306612
v 0.097772 -0.481199 0.305721
v -0.021633 -0.394666 0.299006
v -0.021532 -0.394863 0.298075
v 0.086474 -0.455768 0.305137
v 0.000873 -0.390531 0.300559
v 0.086274 -0.455962 0.304217
v 0.000874 -0.390729 0.299618
v 0.083524 -0.449904 0.304217
v 0.023383 -0.394660 0.299018
v 0.083424 -0.450100 0.303286
v 0.023283 -0.394856 0.298087
v 0.065511 -0.424675 0.300830
v 0.065412 -0.424871 0.299899
v 0.045094 -0.406289 0.298160
v 0.045194 -0.406093 0.299091
vn 0.5653366289648278 0.8172968418739228 -0.11144670570993348
vn 0.1300531046319318 0.7786644277326751 0.6138142218614207
vn 0.3109370111543711 0.9361983335846273 -0.16386230587829959
vn 0.5653204105310997 0.8173075152252541 -0.11145070207616484
vn 0.7432420926994425 0.6662823934553856 -0.06048936940583798
vn 0.7432342739186835 0.6662908766187542 -0.06049199787723587
vn 0.037972209026704624 0.8299001787281796 0.5566181857328842
vn 0.15983059871615674 0.9688561922176385 -0.18913449848077224
vn 0.8520646761226018 0.5231054853410213 -0.01861286947841167
vn 0.8519254837769865 0.5234690900317032 -0.014250679728627593
vn 0.8813837230380662 0.46388261212520504 0.08930652233434044
vn 0.8806220765911121 0.4642582876589851 0.09470480748253628
vn 0.000022163690884160297 0.7873168314078682 0.6165486245955344
vn -0.032717668274311884 0.8055986575088292 0.591557568798392
vn 0.0013947649440843451 0.9786763607651956 -0.20540359176543924
vn 0.8872192673285991 0.4123524848153282 0.2068994923810309
vn -0.30879131453351827 0.9404379442624886 -0.14221250669334884
vn 0.8869089918312091 0.4125284962004455 0.20787659808537245
vn -0.1368614997708576 0.7889441986790983 0.5990291989970666
vn 0.9292227066869374 0.2703516019455231 0.25190310181276276
vn 0.9292220161580466 0.27035490470114465 0.2519021043802729
vn -0.5654906122325998 0.8171659176767986 -0.11162540241466215
vn -0.5654907264646019 0.8171658382428351 -0.11162540522399689
vn 0.9486135154469854 0.13234950215514618 0.28743000468043844
vn 0.9486133429862343 0.13235180599749702 0.2874295130248141
vn -0.7433793106069854 0.6661068095044147 -0.06073647086662454
vn -0.7433793101554831 0.666106809099845 -0.0607364808297355
vn 0.9486238568572476 -0.004951645774802668 0.3163672856118362
vn 0.9486239966445313 -0.0049495739824924586 0.3163668988809484
vn -0.8097087172895363 0.5856843125059914 -0.036683500783294784
vn -0.8521886932634531 0.522893095866533 -0.018900829850588934
vn -0.8520484932538507 0.5232607958570487 -0.014543199884853152
vn 0.9293347230781183 -0.14516910360497648 0.33950390843088196
vn 0.9293222812154881 -0.14522889706446954 0.33951239313739184
vn -0.8815447269097774 0.46364951415322997 0.0889270627145617
vn 0.9118135276831061 -0.21671390657954057 0.3487566105884217
vn 0.9118136038234717 -0.2167136009087366 0.34875660146242715
vn -0.8807862706500088 0.46402478453753904 0.09432149685697301
vn 0.886214497417416 -0.2954480991390126 0.35683929896010785
vn 0.8865823344183946 -0.29552361147264944 0.35586171381506077
vn -0.8874450619646602 0.4121014823375884 0.2064306911525099
vn 0.8784180112219658 -0.3911116049965291 0.27461520350826407
vn -0.8871368748255 0.41227418830079443 0.207408194114327
vn 0.8797193416000769 -0.3917234185237764 0.2695304127455261
vn -0.9294334293315437 0.2700902085236473 0.2514056079339891
vn -0.929433377388717 0.27009049342923036 0.2514054938837997
vn 0.8548406728892328 -0.47978318478395965 0.1976246937324494
vn -0.9488055512065531 0.13208490712855522 0.28691741548478705
vn -0.9488055840895459 0.13208449778508427 0.28691749518870074
vn 0.8556211880102402 -0.48014109327181653 0.19333109729086478
vn -0.9487943425724297 -0.005219467234197717 0.31585131417225765
vn -0.9487943103760447 -0.005219917057085249 0.31585140345416096
vn 0.74333704555974 -0.6338852535757322 0.2136340843539411
vn 0.7433370926787763 -0.6338851937567824 0.21363409789588986
vn -0.9293973001156822 -0.14582690001815118 0.3390504000422016
vn -0.9293973859082865 -0.14582659778894733 0.33905029485925
vn 0.5654593932924387 -0.7926556905974034 0.22793119729624695
vn 0.5654593123782805 -0.7926557173517609 0.22793130498956773
vn -0.8865157211880186 -0.2951902070551435 0.3563041085157858
vn -0.8868484333408148 -0.2953601111039795 0.35533401335868114
vn 0.31075651434807144 -0.9227599426051425 0.2279133105230824
vn 0.3107899975286959 -0.9228038926621543 0.22768959818948387
vn -0.8784542116964599 -0.39136260521092275 0.2741414036501434
vn 0.00040825340151029704 -0.9784597036197245 0.20643750076369688
vn -0.8797521265704062 -0.3919748118384823 0.26905750812611523
vn 0.000457071511623181 -0.9784655248820625 0.2064098052489345
vn -0.8548074129653728 -0.48002690728085384 0.19717620299068872
vn -0.3109663033865132 -0.922782210049366 0.22753670247794053
vn -0.8555852078871052 -0.4803850044283691 0.192883901778076
vn -0.31095130880453975 -0.9227319261270164 0.22776100644901862
vn -0.7432686870234022 -0.6340963889294222 0.2132449962769928
vn -0.5653522856008535 -0.7928172798074713 0.22763469420229562
usemtl material_0_0
f 1//1 2//2 3//3
f 2//2 1//1 4//4
f 5//5 4//4 1//1
f 4//4 5//5 6//6
f 3//3 7//7 8//8
f 7//7 3//3 2//2
f 9//9 5//5 10//10
f 5//5 9//9 6//6
f 9//9 10//10 11//11
f 10//10 12//12 11//11
f 13//13 14//14 15//15
f 11//11 12//12 16//16
f 15//15 14//14 17//17
f 12//12 18//18 16//16
f 14//14 19//19 17//17
f 20//20 18//18 21//21
f 18//18 20//20 16//16
f 22//22 19//19 23//23
f 19//19 22//22 17//17
f 24//24 21//21 25//25
f 21//21 24//24 20//20
f 26//26 23//23 27//27
f 23//23 26//26 22//22
f 28//28 25//25 29//29
f 25//25 28//28 24//24
f 30//30 31//31 32//32
f 31//31 30//30 27//27
f 27//27 30//30 26//26
f 33//33 29//29 34//34
f 29//29 33//33 28//28
f 31//31 35//35 32//32
f 36//36 34//34 37//37
f 34//34 36//36 33//33
f 32//32 35//35 38//38
f 39//39 37//37 40//40
f 37//37 39//39 36//36
f 35//35 41//41 38//38
f 39//39 40//40 42//42
f 38//38 41//41 43//43
f 40//40 44//44 42//42
f 43//43 45//45 46//46
f 45//45 43//43 41//41
f 42//42 44//44 47//47
f 46//46 48//48 49//49
f 48//48 46//46 45//45
f 47//47 44//44 50//50
f 49//49 51//51 52//52
f 51//51 49//49 48//48
f 53//53 50//50 54//54
f 50//50 53//53 47//47
f 52//52 55//55 56//56
f 55//55 52//52 51//51
f 57//57 54//54 58//58
f 54//54 57//57 53//53
f 56//56 59//59 60//60
f 59//59 56//56 55//55
f 61//61 58//58 62//62
f 58//58 61//61 57//57
f 59//59 63//63 60//60
f 61//61 62//62 64//64
f 60//60 63//63 65//65
f 62//62 66//66 64//64
f 63//63 67//67 65//65
f 64//64 66//66 68//68
f 67//67 69//69 65//65
f 66//66 70//70 68//68
f 69//69 71//71 72//71
f 71//71 69//69 67//67
f 68//68 73//72 74//72
f 73//72 68//68 70//70
f 74//72 72//71 71//71
f 72//71 74//72 73//72
