# SSTK version 0.8.0
# 183
mtllib original-183.mtl
o #ID1448
v -0.017296 0.834197 0.056199
v -0.020198 0.831480 0.054215
v -0.020198 0.834197 0.054215
v -0.017296 0.831480 0.056199
v -0.017296 0.831480 0.056199
v -0.017296 0.834197 0.056199
v -0.020198 0.831480 0.054215
v -0.020198 0.834197 0.054215
v -0.024301 0.831480 0.048995
v -0.024301 0.834197 0.048995
v -0.024301 0.831480 0.048995
v -0.024301 0.834197 0.048995
v -0.014689 0.834197 0.057082
v -0.014689 0.831480 0.057082
v -0.014689 0.831480 0.057082
v -0.014689 0.834197 0.057082
v -0.028016 0.831480 0.041929
v -0.028016 0.834197 0.041929
v -0.028016 0.831480 0.041929
v -0.028016 0.834197 0.041929
v -0.012377 0.831480 0.056864
v -0.012377 0.834197 0.056864
v -0.012377 0.834197 0.056864
v -0.012377 0.831480 0.056864
v -0.033136 0.831480 0.026751
v -0.033136 0.834197 0.026751
v -0.029374 0.831480 0.037906
v -0.029374 0.831480 0.037906
v -0.033136 0.831480 0.026751
v -0.033136 0.834197 0.026751
v -0.010361 0.831480 0.055546
v -0.010361 0.834197 0.055546
v -0.010361 0.834197 0.055546
v -0.010361 0.831480 0.055546
v -0.035437 0.831480 0.014554
v -0.035437 0.834197 0.014554
v -0.035437 0.831480 0.014554
v -0.035437 0.834197 0.014554
v -0.010146 0.831480 0.055331
v -0.010146 0.834197 0.055331
v -0.010146 0.834197 0.055331
v -0.010146 0.831480 0.055331
v -0.035531 0.831480 0.009573
v -0.035531 0.834197 0.009573
v -0.035531 0.831480 0.009573
v -0.035531 0.834197 0.009573
v -0.008256 0.831480 0.052771
v -0.008256 0.834197 0.052771
v -0.008256 0.834197 0.052771
v -0.008256 0.831480 0.052771
v -0.034919 0.834197 0.005337
v -0.034919 0.831480 0.005337
v -0.034919 0.834197 0.005337
v -0.034919 0.831480 0.005337
v -0.007010 0.831480 0.049516
v -0.007010 0.834197 0.049516
v -0.007010 0.834197 0.049516
v -0.007010 0.831480 0.049516
v -0.033603 0.834197 0.001846
v -0.033603 0.831480 0.001846
v -0.033603 0.834197 0.001846
v -0.033603 0.831480 0.001846
v -0.006409 0.831480 0.045565
v -0.006409 0.834197 0.045565
v -0.006409 0.834197 0.045565
v -0.006409 0.831480 0.045565
v -0.031582 0.834197 -0.000899
v -0.031582 0.831480 -0.000899
v -0.031582 0.834197 -0.000899
v -0.031582 0.831480 -0.000899
v -0.006452 0.834197 0.040919
v -0.006452 0.831480 0.040919
v -0.006452 0.834197 0.040919
v -0.006452 0.831480 0.040919
v -0.031367 0.834197 -0.001114
v -0.031367 0.831480 -0.001114
v -0.031367 0.834197 -0.001114
v -0.031367 0.831480 -0.001114
v -0.007461 0.831480 0.035230
v -0.008471 0.834197 0.029541
v -0.008471 0.831480 0.029541
v -0.007461 0.831480 0.035230
v -0.008471 0.834197 0.029541
v -0.008471 0.831480 0.029541
v -0.029558 0.834197 -0.002451
v -0.029558 0.831480 -0.002451
v -0.029558 0.834197 -0.002451
v -0.029558 0.831480 -0.002451
v -0.013067 0.834197 0.015381
v -0.013067 0.831480 0.015381
v -0.013067 0.834197 0.015381
v -0.013067 0.831480 0.015381
v -0.027651 0.834197 -0.002940
v -0.027651 0.831480 -0.002940
v -0.027651 0.834197 -0.002940
v -0.027651 0.831480 -0.002940
v -0.017556 0.834197 0.006188
v -0.017556 0.831480 0.006188
v -0.017556 0.834197 0.006188
v -0.017556 0.831480 0.006188
v -0.025648 0.831480 -0.002580
v -0.025648 0.834197 -0.002580
v -0.025648 0.834197 -0.002580
v -0.025648 0.831480 -0.002580
v -0.022432 0.834197 -0.000255
v -0.022432 0.831480 -0.000255
v -0.022432 0.834197 -0.000255
v -0.022432 0.831480 -0.000255
v -0.023549 0.831480 -0.001372
v -0.023549 0.834197 -0.001372
v -0.023549 0.834197 -0.001372
v -0.023549 0.831480 -0.001372
vn 0.44678518048637217 0 -0.894641270285336
vn 0.6832092153875888 0 -0.7302226838502589
vn -0.44678518048637217 0 0.894641270285336
vn -0.6832092153875888 0 0.7302226838502589
vn 0.8391233589007616 0 -0.5439411627622084
vn -0.8391233589007616 0 0.5439411627622084
vn 0.11617934457276129 0 -0.9932282516595284
vn -0.11617934457276129 0 0.9932282516595284
vn 0.9192092409122596 0 -0.39376943942046505
vn -0.9192092409122596 0 0.39376943942046505
vn -0.33010965990755314 0 -0.9439425895867394
vn 0.33010965990755314 0 0.9439425895867394
vn 0.967435083043554 0 -0.2531192606194
vn 0.9475372600012176 0 -0.31964533612956897
vn -0.9475372600012176 0 0.31964533612956897
vn -0.967435083043554 0 0.2531192606194
vn -0.630516573881632 0 -0.776175785541245
vn 0.630516573881632 0 0.776175785541245
vn 0.9947422681698627 0 -0.10241005769101581
vn -0.9947422681698627 0 0.10241005769101581
vn -0.7579088004624813 0 -0.6523605216301204
vn 0.7579088004624813 0 0.6523605216301204
vn 0.9980589911226263 0 0.06227559906805568
vn -0.9980589911226263 0 -0.06227559906805568
vn -0.8772278869946325 0 -0.48007419663936585
vn 0.8772278869946325 0 0.48007419663936585
vn 0.9684255447134119 0 0.24930295695504961
vn -0.9684255447134119 0 -0.24930295695504961
vn -0.9668316915404158 0 -0.25541433051631596
vn 0.9668316915404158 0 0.25541433051631596
vn 0.8787677529250785 0 0.47724965837495203
vn -0.8787677529250785 0 -0.47724965837495203
vn -0.9974869473160766 0 -0.07085047589151962
vn 0.9974869473160766 0 0.07085047589151962
vn 0.7584002762404202 0 0.6517890924205886
vn -0.7584002762404202 0 -0.6517890924205886
vn -0.9957313690182568 0 0.0922986497898434
vn 0.9957313690182568 0 -0.0922986497898434
vn 0.6524933049703351 0 0.7577944886107902
vn -0.6524933049703351 0 -0.7577944886107902
vn -0.984619352019592 0 0.17471328406425926
vn -0.9701985083376153 0 0.24231148222786755
vn 0.984619352019592 0 -0.17471328406425926
vn 0.9701985083376153 0 -0.24231148222786755
vn 0.4292284424979829 0 0.903195961101884
vn -0.4292284424979829 0 -0.903195961101884
vn -0.9271474706977583 0 0.37469663406381115
vn 0.9271474706977583 0 -0.37469663406381115
vn 0.03659482674940763 0 0.9993301850015242
vn -0.03659482674940763 0 -0.9993301850015242
vn -0.851998060967554 0 0.5235449399120653
vn 0.851998060967554 0 -0.5235449399120653
vn -0.3428505636670174 0 0.9393899568300742
vn 0.3428505636670174 0 -0.9393899568300742
vn -0.75405877482596 0 0.6568069458432759
vn 0.75405877482596 0 -0.6568069458432759
vn -0.6081945547954125 0 0.7937879965817133
vn 0.6081945547954125 0 -0.7937879965817133
usemtl material_0_0
f 1//1 2//2 3//2
f 2//2 1//1 4//1
f 5//3 6//3 7//4
f 8//4 7//4 6//3
f 3//2 9//5 10//5
f 9//5 3//2 2//2
f 7//4 8//4 11//6
f 12//6 11//6 8//4
f 13//7 4//1 1//1
f 4//1 13//7 14//7
f 15//8 16//8 5//3
f 6//3 5//3 16//8
f 10//5 17//9 18//9
f 17//9 10//5 9//5
f 11//6 12//6 19//10
f 20//10 19//10 12//6
f 13//7 21//11 14//7
f 21//11 13//7 22//11
f 23//12 16//8 24//12
f 15//8 24//12 16//8
f 18//9 25//13 26//13
f 25//13 18//9 27//14
f 27//14 18//9 17//9
f 19//10 20//10 28//15
f 28//15 20//10 29//16
f 30//16 29//16 20//10
f 22//11 31//17 21//11
f 31//17 22//11 32//17
f 33//18 23//12 34//18
f 24//12 34//18 23//12
f 26//13 35//19 36//19
f 35//19 26//13 25//13
f 29//16 30//16 37//20
f 38//20 37//20 30//16
f 32//17 39//21 31//17
f 39//21 32//17 40//21
f 41//22 33//18 42//22
f 34//18 42//22 33//18
f 36//19 43//23 44//23
f 43//23 36//19 35//19
f 37//20 38//20 45//24
f 46//24 45//24 38//20
f 40//21 47//25 39//21
f 47//25 40//21 48//25
f 49//26 41//22 50//26
f 42//22 50//26 41//22
f 51//27 43//23 52//27
f 43//23 51//27 44//23
f 46//24 53//28 45//24
f 54//28 45//24 53//28
f 48//25 55//29 47//25
f 55//29 48//25 56//29
f 57//30 49//26 58//30
f 50//26 58//30 49//26
f 59//31 52//27 60//31
f 52//27 59//31 51//27
f 53//28 61//32 54//28
f 62//32 54//28 61//32
f 56//29 63//33 55//29
f 63//33 56//29 64//33
f 65//34 57//30 66//34
f 58//30 66//34 57//30
f 67//35 60//31 68//35
f 60//31 67//35 59//31
f 61//32 69//36 62//32
f 70//36 62//32 69//36
f 63//33 71//37 72//37
f 71//37 63//33 64//33
f 65//34 66//34 73//38
f 74//38 73//38 66//34
f 75//39 68//35 76//39
f 68//35 75//39 67//35
f 69//36 77//40 70//36
f 78//40 70//36 77//40
f 79//41 80//42 81//42
f 80//42 79//41 71//37
f 71//37 79//41 72//37
f 74//38 82//43 73//38
f 73//38 82//43 83//44
f 84//44 83//44 82//43
f 85//45 76//39 86//45
f 76//39 85//45 75//39
f 77//40 87//46 78//40
f 88//46 78//40 87//46
f 81//42 89//47 90//47
f 89//47 81//42 80//42
f 83//44 84//44 91//48
f 92//48 91//48 84//44
f 93//49 86//45 94//49
f 86//45 93//49 85//45
f 87//46 95//50 88//46
f 96//50 88//46 95//50
f 90//47 97//51 98//51
f 97//51 90//47 89//47
f 91//48 92//48 99//52
f 100//52 99//52 92//48
f 101//53 93//49 94//49
f 93//49 101//53 102//53
f 103//54 104//54 95//50
f 96//50 95//50 104//54
f 98//51 105//55 106//55
f 105//55 98//51 97//51
f 99//52 100//52 107//56
f 108//56 107//56 100//52
f 109//57 102//53 101//53
f 102//53 109//57 110//57
f 111//58 112//58 103//54
f 104//54 103//54 112//58
f 106//55 110//57 109//57
f 110//57 106//55 105//55
f 107//56 108//56 111//58
f 112//58 111//58 108//56
