# SSTK version 0.8.0
# 83
mtllib original-83.mtl
o #ID877
v 0.020429 -0.590527 0.436830
v 0.014732 -0.588294 0.434543
v 0.020430 -0.590893 0.435092
v 0.014732 -0.587928 0.436281
v 0.008660 -0.586703 0.434206
v 0.008660 -0.586337 0.435943
v 0.025578 -0.594054 0.437575
v 0.025579 -0.594420 0.435837
v 0.002398 -0.586168 0.434091
v 0.002398 -0.585802 0.435829
v 0.030024 -0.598769 0.436754
v 0.030024 -0.598403 0.438492
v -0.003864 -0.586705 0.434202
v -0.003864 -0.586339 0.435940
v 0.033630 -0.603807 0.437817
v 0.033630 -0.603441 0.439555
v -0.009935 -0.588298 0.434536
v -0.009936 -0.587931 0.436274
v 0.036287 -0.609381 0.438992
v 0.036287 -0.609015 0.440730
v -0.015632 -0.590898 0.435083
v -0.015633 -0.590532 0.436820
v 0.037915 -0.615322 0.440245
v 0.037914 -0.614956 0.441983
v -0.020781 -0.594427 0.435825
v -0.020781 -0.594060 0.437562
v 0.038463 -0.621449 0.441536
v 0.038462 -0.621083 0.443274
v -0.025225 -0.598777 0.436740
v -0.025226 -0.598410 0.438478
v 0.037916 -0.627577 0.442827
v 0.037915 -0.627211 0.444565
v -0.028830 -0.603816 0.437801
v -0.028831 -0.603449 0.439539
v 0.036289 -0.633519 0.444079
v 0.036289 -0.633152 0.445817
v -0.031486 -0.609391 0.438975
v -0.031487 -0.609024 0.440713
v 0.033633 -0.639093 0.445253
v 0.033633 -0.638727 0.446991
v -0.033113 -0.615332 0.440226
v -0.033113 -0.614966 0.441964
v 0.030028 -0.644132 0.446314
v 0.030027 -0.643766 0.448052
v -0.033660 -0.621460 0.441517
v -0.033661 -0.621093 0.443255
v 0.025584 -0.648482 0.447229
v 0.025583 -0.648116 0.448967
v -0.033112 -0.627587 0.442809
v -0.033112 -0.627221 0.444547
v 0.020435 -0.652011 0.447971
v 0.020434 -0.651645 0.449709
v -0.031484 -0.633528 0.444061
v -0.031485 -0.633162 0.445799
v 0.014738 -0.654611 0.448517
v 0.014737 -0.654245 0.450255
v -0.028827 -0.639102 0.445237
v -0.028828 -0.638736 0.446974
v 0.008666 -0.656204 0.448851
v 0.008666 -0.655838 0.450589
v -0.025221 -0.644140 0.446299
v -0.025222 -0.643774 0.448037
v 0.002404 -0.656741 0.448963
v 0.002404 -0.656375 0.450700
v -0.020776 -0.648489 0.447217
v -0.020777 -0.648123 0.448955
v -0.003858 -0.656206 0.448848
v -0.003858 -0.655840 0.450586
v -0.015627 -0.651650 0.449700
v -0.015627 -0.652016 0.447962
v -0.009930 -0.654615 0.448511
v -0.009930 -0.654249 0.450249
vn -0.49992830006447825 -0.8474846001093044 0.17844200002301436
vn -0.34194239199907983 -0.9195466784840379 0.19367319546834824
vn -0.17356670398939428 -0.9636688221497257 0.2030197046663651
vn -0.6427241925106404 -0.7496720912644274 0.15778899816135963
vn 0.00008271287922432565 -0.9785103908236127 0.20619749806629717
vn -0.7659912100492533 -0.6290812082530927 0.13234160173622642
vn 0.17372959977794236 -0.96362039876832 0.2031101997403884
vn -0.8659840283781152 -0.4893759160367462 0.10287310337112993
vn 0.3420978946054481 -0.9194512855011452 0.19385139694315134
vn -0.939664285453344 -0.3348012948170434 0.07027889891203376
vn 0.5000716142852135 -0.8473451242055452 0.17870260510487837
vn -0.9847933381525454 -0.17005390658817354 0.03554926137723797
vn 0.6428509306531067 -0.7494928357381202 0.15812390753983338
vn -0.9999999563430658 -0.000139428793912966 -0.0002605253886262598
vn 0.7660976056435921 -0.6288675046326625 0.1327408009778582
vn -0.9848220796272014 0.16977919648781495 -0.036062389253985215
vn 0.8660667338858966 -0.4891344191379691 0.10332440404269076
vn -0.9397208854005853 0.3345391948026307 -0.07076852890054677
vn 0.9397208854005853 -0.3345391948026307 0.07076852890054677
vn -0.8660667338858966 0.4891344191379691 -0.10332440404269076
vn 0.9848220796272014 -0.16977919648781495 0.036062389253985215
vn -0.7660976056435921 0.6288675046326625 -0.1327408009778582
vn 0.9999999563430658 0.000139428793912966 0.0002605253886262598
vn -0.6428509306531067 0.7494928357381202 -0.15812390753983338
vn 0.9847933381525454 0.17005390658817354 -0.03554926137723797
vn -0.5000716142852135 0.8473451242055452 -0.17870260510487837
vn 0.939664285453344 0.3348012948170434 -0.07027889891203376
vn -0.3420978946054481 0.9194512855011452 -0.19385139694315134
vn 0.8659840283781152 0.4893759160367462 -0.10287310337112993
vn -0.17372959977794236 0.96362039876832 -0.2031101997403884
vn 0.7659912100492533 0.6290812082530927 -0.13234160173622642
vn -0.00008271287922432565 0.9785103908236127 -0.20619749806629717
vn 0.6427241925106404 0.7496720912644274 -0.15778899816135963
vn 0.17356670398939428 0.9636688221497257 -0.2030197046663651
vn 0.49992830006447825 0.8474846001093044 -0.17844200002301436
vn 0.34194239199907983 0.9195466784840379 -0.19367319546834824
usemtl material_0_0
f 1//1 2//2 3//1
f 2//2 1//1 4//2
f 4//2 5//3 2//2
f 5//3 4//2 6//3
f 7//4 3//1 8//4
f 3//1 7//4 1//1
f 6//3 9//5 5//3
f 9//5 6//3 10//5
f 11//6 7//4 8//4
f 7//4 11//6 12//6
f 10//5 13//7 9//5
f 13//7 10//5 14//7
f 15//8 12//6 11//6
f 12//6 15//8 16//8
f 14//7 17//9 13//7
f 17//9 14//7 18//9
f 19//10 16//8 15//8
f 16//8 19//10 20//10
f 18//9 21//11 17//9
f 21//11 18//9 22//11
f 23//12 20//10 19//10
f 20//10 23//12 24//12
f 22//11 25//13 21//11
f 25//13 22//11 26//13
f 27//14 24//12 23//12
f 24//12 27//14 28//14
f 26//13 29//15 25//13
f 29//15 26//13 30//15
f 31//16 28//14 27//14
f 28//14 31//16 32//16
f 30//15 33//17 29//15
f 33//17 30//15 34//17
f 35//18 32//16 31//16
f 32//16 35//18 36//18
f 34//17 37//19 33//17
f 37//19 34//17 38//19
f 39//20 36//18 35//18
f 36//18 39//20 40//20
f 38//19 41//21 37//19
f 41//21 38//19 42//21
f 43//22 40//20 39//20
f 40//20 43//22 44//22
f 42//21 45//23 41//21
f 45//23 42//21 46//23
f 47//24 44//22 43//22
f 44//22 47//24 48//24
f 46//23 49//25 45//23
f 49//25 46//23 50//25
f 51//26 48//24 47//24
f 48//24 51//26 52//26
f 50//25 53//27 49//25
f 53//27 50//25 54//27
f 55//28 52//26 51//26
f 52//26 55//28 56//28
f 54//27 57//29 53//27
f 57//29 54//27 58//29
f 59//30 56//28 55//28
f 56//28 59//30 60//30
f 58//29 61//31 57//29
f 61//31 58//29 62//31
f 63//32 60//30 59//30
f 60//30 63//32 64//32
f 62//31 65//33 61//31
f 65//33 62//31 66//33
f 67//34 64//32 63//32
f 64//32 67//34 68//34
f 65//33 69//35 70//35
f 69//35 65//33 66//33
f 71//36 68//34 67//34
f 68//34 71//36 72//36
f 70//35 72//36 71//36
f 72//36 70//35 69//35
