# SSTK version 0.8.0
# 7
mtllib original-7.mtl
o Group6/mesh5/mesh5-geometry#mesh5-geometry
v 0.507030 0.165016 -0.494900
v 0.450428 0.056662 0.092803
v 0.511595 0.181607 -0.498160
v 0.500697 0.166700 -0.495200
v 0.454369 0.072058 0.096021
v 0.444095 0.058346 0.092503
v 0.448036 0.073742 0.095722
v 0.505262 0.183291 -0.498460
vt 0 1.458333
vt 0 0
vt -0.315146 1.474409
vt 11.666667 0.046875
vt 11.666667 0
vt 0 0.046875
vt -0.315146 0
vt -11.795269 0.046875
vt -0.315146 0.046875
vt -11.795269 0
vn -0.0806633012309255 0.9815770735657688 0.17320473574527367
vn 0.006252606497090786 0.8368912261234367 -0.5473335185694395
vn -0.540880761850715 -0.8163339573771645 -0.20260027515462078
vn 0.540880761850715 0.8163339573771645 0.20260027515462078
vn -0.006252606497090786 -0.8368912261234367 0.5473335185694395
vn 0.0806633012309255 -0.9815770735657688 -0.17320473574527367
vn 0.2430451872462854 0.9494948529949455 0.1984655161294393
vn -0.2430451872462854 -0.9494948529949455 -0.1984655161294393
vn -0.3279431648160938 -0.4686951701473922 -0.8202305274317163
vn 0.3279431648160938 0.4686951701473922 0.8202305274317163
vn 0.23853374901797902 0.799031142763706 -0.5519518851069847
vn -0.23853374901797902 -0.799031142763706 0.5519518851069847
vn -0.10518468113679826 -0.543757143388234 -0.8326249767262675
vn 0.10518468113679826 0.543757143388234 0.8326249767262675
usemtl material_0_0
f 1/1/1 2/2/2 3/3/3
f 3/3/4 2/2/5 1/1/6
f 1/4/1 4/5/7 2/6/2
f 2/6/5 4/5/8 1/4/6
f 5/7/9 3/3/3 2/2/2
f 2/2/5 3/3/4 5/7/10
f 6/2/11 2/6/2 4/5/7
f 4/5/8 2/6/5 6/2/12
f 5/6/9 7/2/13 3/8/3
f 3/8/4 7/2/14 5/6/10
f 5/9/9 2/6/2 7/7/13
f 7/7/14 2/6/5 5/9/10
f 6/2/11 7/7/13 2/6/2
f 2/6/5 7/7/14 6/2/12
f 8/10/8 3/8/3 7/2/13
f 7/2/14 3/8/4 8/10/7
