# SSTK version 0.8.0
# 2
mtllib original-2.mtl
o Group3/mesh2/mesh2-geometry#mesh2-geometry
v -0.435832 -0.064974 0.231636
v -0.443053 -0.061465 0.278267
v -0.439295 -0.053222 0.233510
v -0.439591 -0.073217 0.276393
v -0.445514 -0.049484 0.280267
v -0.435150 -0.084657 0.274659
v -0.058698 -0.072056 0.308591
v -0.441756 -0.041241 0.235510
v -0.056106 -0.060444 0.310948
v -0.431392 -0.076413 0.229902
v -0.061976 -0.083489 0.306210
v -0.446955 -0.037358 0.282379
v -0.054208 -0.048692 0.313272
v -0.426005 -0.087462 0.228320
v -0.065927 -0.094703 0.303813
v -0.058217 -0.075245 0.261454
v -0.054940 -0.063813 0.263835
v -0.443197 -0.029114 0.237622
v -0.052348 -0.052200 0.266191
v -0.429763 -0.095705 0.273076
v -0.062169 -0.086460 0.259056
v -0.443609 -0.016927 0.239833
v -0.053011 -0.036840 0.315555
v -0.050450 -0.040448 0.268515
v -0.423467 -0.106285 0.271656
v -0.070540 -0.105660 0.301408
v -0.066781 -0.097417 0.256651
v -0.447367 -0.025170 0.284589
v -0.419708 -0.098042 0.226900
v -0.446747 -0.013006 0.286882
v -0.049252 -0.028596 0.270798
v -0.052518 -0.024928 0.317790
v -0.416305 -0.116323 0.270409
v -0.075797 -0.116323 0.299002
v -0.442989 -0.004763 0.242125
v -0.412547 -0.108079 0.225652
v -0.072038 -0.108079 0.254246
v -0.445099 -0.000951 0.289240
v -0.052732 -0.012998 0.319969
v -0.048760 -0.016685 0.273033
v -0.389779 -0.131280 0.269882
v -0.101863 -0.131280 0.294059
v -0.441341 0.007292 0.244484
v -0.386021 -0.123037 0.225125
v -0.098105 -0.123037 0.249302
v -0.438677 0.019154 0.246892
v -0.053651 -0.001091 0.322085
v -0.048973 -0.004755 0.275213
v -0.354499 -0.135251 0.225522
v -0.133010 -0.143494 0.289194
v -0.129252 -0.135251 0.244437
v -0.442435 0.010910 0.291649
v -0.055273 0.010754 0.324131
v -0.358257 -0.143494 0.270279
v -0.438166 0.020777 0.247234
v -0.049893 0.007153 0.277329
v -0.319083 -0.144294 0.226831
v -0.322841 -0.152537 0.271587
v -0.168148 -0.152537 0.284577
v -0.055904 0.012561 0.324411
v -0.441924 0.012533 0.291991
v -0.051515 0.018998 0.279374
v -0.164390 -0.144294 0.239821
v -0.052145 0.020805 0.279654
v -0.437521 0.022351 0.247578
v -0.281013 -0.149849 0.229004
v -0.284771 -0.158093 0.273761
v -0.206047 -0.158093 0.280372
v -0.056689 0.014310 0.324667
v -0.441280 0.014108 0.292335
v -0.202289 -0.149849 0.235615
v -0.052930 0.022554 0.279910
v -0.436748 0.023866 0.247922
v -0.241622 -0.151723 0.231967
v -0.245381 -0.159966 0.276724
v -0.053864 0.024232 0.280141
v -0.440507 0.015623 0.292679
v -0.057623 0.015989 0.324898
v -0.435852 0.025313 0.248264
v -0.058698 0.017583 0.325101
v -0.439610 0.017069 0.293020
v -0.054940 0.025826 0.280344
v -0.434838 0.026680 0.248601
v -0.059908 0.019083 0.325276
v -0.438596 0.018437 0.293357
v -0.056149 0.027326 0.280519
v -0.437471 0.019717 0.293687
v -0.061242 0.020475 0.325420
v -0.433713 0.027960 0.248931
v -0.057483 0.028719 0.280663
v -0.436242 0.020900 0.294009
v -0.058933 0.029995 0.280777
v -0.432484 0.029143 0.249252
v -0.062691 0.021752 0.325533
v -0.434919 0.021979 0.294318
v -0.060486 0.031145 0.280858
v -0.431160 0.030222 0.249562
v -0.064244 0.022901 0.325615
v -0.433509 0.022946 0.294615
v -0.062132 0.032160 0.280907
v -0.429750 0.031190 0.249858
v -0.065890 0.023916 0.325663
v -0.432022 0.023796 0.294896
v -0.063858 0.033032 0.280923
v -0.428263 0.032039 0.250140
v -0.067616 0.024789 0.325679
v -0.430467 0.024522 0.295161
v -0.065651 0.033756 0.280905
v -0.426709 0.032765 0.250404
v -0.069410 0.025513 0.325662
v -0.428857 0.025119 0.295406
v -0.067499 0.034325 0.280855
v -0.425098 0.033363 0.250649
v -0.071258 0.026082 0.325612
v -0.407793 0.030692 0.298201
v -0.085065 0.038935 0.280229
v -0.404035 0.038935 0.253444
v -0.088824 0.030692 0.324986
v -0.376432 0.037422 0.302074
v -0.116633 0.045666 0.278818
v -0.120392 0.037422 0.323574
v -0.372674 0.045666 0.257317
v -0.344761 0.042673 0.305701
v -0.152224 0.042673 0.321868
v -0.148466 0.050916 0.277112
v -0.341002 0.050916 0.260944
v -0.312850 0.046432 0.309073
v -0.184251 0.046432 0.319871
v -0.180493 0.054675 0.275115
v -0.309091 0.054675 0.264316
v -0.280771 0.048691 0.312182
v -0.216399 0.048691 0.317588
v -0.212641 0.056934 0.272831
v -0.277013 0.056934 0.267426
v -0.248597 0.049445 0.315023
v -0.244838 0.057688 0.270266
vt -14.99021 1.273951
vt -14.85705 1.241041
vt -14.862315 1.274267
vt 6.133957 0.110938
vt 6.133957 0
vt 5.707037 0.110938
vt -16.865961 1.236067
vt -16.977026 1.269032
vt -16.971761 1.235805
vt 1.286505 0
vt 1.286505 0.110938
vt 1.639677 0
vt -14.984945 1.240724
vt 5.707037 0
vt -16.871226 1.269294
vt 1.639677 0.110938
vt -15.178311 1.273485
vt 5.957713 0.110937
vt 5.957713 0
vt 5.329794 0.110937
vt -16.677859 1.236533
vt 1.473718 0
vt 1.473718 0.110937
vt 2.101636 0
vt -15.173046 1.240258
vt 5.329794 0
vt -16.683125 1.269759
vt 2.101636 0.110937
vt -15.366413 1.273019
vt 5.567776 0.110937
vt 5.567776 0
vt 4.939857 0.110937
vt -16.489758 1.236998
vt 1.931656 0
vt 1.931656 0.110937
vt 2.559575 0
vt -15.361148 1.239793
vt 4.939857 0
vt -16.495023 1.270225
vt 2.559575 0.110937
vt -15.554515 1.272554
vt 5.166024 0.110937
vt 5.166024 0
vt 4.538105 0.110937
vt -16.301656 1.237464
vt 2.384544 0
vt 2.384544 0.110937
vt 3.012463 0
vt -15.54925 1.239327
vt 4.538105 0
vt -16.306921 1.270691
vt 3.012463 0.110937
vt -15.742616 1.272088
vt 4.753359 0.110937
vt 4.753359 0
vt 4.12544 0.110937
vt -16.113555 1.23793
vt 2.831363 0
vt 2.831363 0.110937
vt 3.459282 0
vt -15.737351 1.238861
vt 4.12544 0
vt -16.11882 1.271156
vt 3.459282 0.110937
vt -15.930718 1.271622
vt 4.33071 0.110937
vt 4.33071 0
vt 3.702791 0.110937
vt -15.925453 1.238396
vt 3.271109 0
vt 3.271109 0.110937
vt 3.899028 0
vt 3.702791 0
vt 3.899028 0.110937
vn -0.9441344399188468 -0.3007849731564464 -0.13467946867433536
vn -0.9674826136200179 -0.2215450120575877 -0.12204589290665376
vn 0.9674826136200179 0.2215450120575877 0.12204589290665376
vn 0.9441344399188468 0.3007849731564464 0.13467946867433536
vn -0.9840741481020747 -0.14075798902305917 -0.10855993535075585
vn 0.9840741481020747 0.14075798902305917 0.10855993535075585
vn -0.9141927928570684 -0.3779239051326085 -0.14637301464925906
vn 0.9141927928570684 0.3779239051326085 0.14637301464925906
vn -0.08230314031506324 -0.18051908832783078 0.9801219576377054
vn 0.08230314031506324 0.18051908832783078 -0.9801219576377054
vn -0.9937933212643142 -0.058987002700277694 -0.09431525922606944
vn 0.9937933212643142 0.058987002700277694 0.09431525922606944
vn -0.8778666322500934 -0.4524239556529538 -0.1570437529264173
vn 0.8778666322500934 0.4524239556529538 0.1570437529264173
vn 0.9509696575115942 -0.30842407803423144 0.02304991498933443
vn 0.9667619229472962 -0.25333701251674856 0.03452162262024548
vn -0.9509696575115942 0.30842407803423144 -0.02304991498933443
vn -0.9667619229472962 0.25333701251674856 -0.03452162262024548
vn 0.979252270946557 -0.19738393322167103 0.045875622632874175
vn -0.979252270946557 0.19738393322167103 -0.045875622632874175
vn 0.9883976145742056 -0.14075798902305892 0.057073146314223826
vn -0.9883976145742056 0.14075798902305892 -0.057073146314223826
vn 0.9319295046775179 -0.36245712531830393 0.011499157252056576
vn -0.9319295046775179 0.36245712531830393 -0.011499157252056576
vn -0.9965719474901211 0.023194997595165842 -0.07941250255663568
vn 0.9965719474901211 -0.023194997595165842 0.07941250255663568
vn -0.8354092932399968 -0.5237648004587432 -0.16661856609832468
vn 0.8354092932399968 0.5237648004587432 0.16661856609832468
vn 0.9097059839640613 -0.41525295236176857 -0.00009107586804332437
vn -0.9097059839640613 0.41525295236176857 0.00009107586804332437
vn 0.9941671904061959 -0.08364999317257137 0.06807551808160955
vn -0.9941671904061959 0.08364999317257137 -0.06807551808160955
vn -0.9923908683961258 0.105214998127699 -0.06395442512423866
vn 0.9923908683961258 -0.105214998127699 0.06395442512423866
vn -0.8119727164454119 -0.5580937568104195 -0.17097270646945664
vn 0.8119727164454119 0.5580937568104195 0.17097270646945664
vn 0.8974239482984948 -0.4411298846610924 -0.005889132298700105
vn -0.8974239482984948 0.4411298846610924 0.005889132298700105
vn 0.9965409628939449 -0.026256989765736188 0.07884592419935953
vn -0.9965409628939449 0.026256989765736188 -0.07884592419935953
vn -0.9812791820954593 0.18650009263415265 -0.0480508296860624
vn 0.9812791820954593 -0.18650009263415265 0.0480508296860624
vn -0.484466105999164 -0.8521920692244168 -0.19763924025611276
vn -0.4193439422607454 -0.8858879248970828 -0.19837651728659197
vn 0.484466105999164 0.8521920692244168 0.19763924025611276
vn 0.4193439422607454 0.8858879248970828 0.19837651728659197
vn 0.4465544684044081 -0.8858879248970825 -0.12566499619861396
vn 0.5106417090095899 -0.8521920692244167 -0.11407770233824148
vn -0.5106417090095899 0.8521920692244167 0.11407770233824148
vn -0.4465544684044081 0.8858879248970825 0.12566499619861396
vn 0.9955109887641906 0.031225997479234748 0.08934656306300003
vn -0.9955109887641906 -0.031225997479234748 -0.08934656306300003
vn -0.9634395659901898 0.2660191404266198 -0.03190641959413554
vn 0.9634395659901898 -0.2660191404266198 0.03190641959413554
vn -0.2944665480294937 -0.9351445572892784 -0.1969622021196789
vn 0.2944665480294937 0.9351445572892784 0.1969622021196789
vn 0.3231899890048553 -0.9351445572892783 -0.1450961335779875
vn -0.3231899890048553 0.9351445572892783 0.1450961335779875
vn 0.9910807971635172 0.08860203247792281 0.09954161609351433
vn -0.9910807971635172 -0.08860203247792281 -0.09954161609351433
vn -0.9520887556758537 0.30489487502559803 -0.023793202784188946
vn 0.9520887556758537 -0.30489487502559803 0.023793202784188946
vn 0.9875948047793289 0.11718896525851619 0.10451434348699372
vn -0.9875948047793289 -0.11718896525851619 -0.10451434348699372
vn -0.18376066636571653 -0.9638471733700983 -0.19295243943339913
vn 0.18376066636571653 0.9638471733700983 0.19295243943339913
vn 0.2133657253061548 -0.9638471733700982 -0.15960480459889168
vn -0.2133657253061548 0.9638471733700982 0.15960480459889168
vn 0.9417937192778463 0.3075728653400155 0.13573327828993892
vn 0.9268652178588155 0.3475639630796725 0.14184554801572943
vn -0.9268652178588155 -0.3475639630796725 -0.14184554801572943
vn -0.9417937192778463 -0.3075728653400155 -0.13573327828993892
vn -0.9249008965998293 0.3801312342257246 -0.007653511276473925
vn 0.9249008965998293 -0.3801312342257246 0.007653511276473925
vn -0.0821205643933254 -0.9788856929759767 -0.1871871069028623
vn 0.0821205643933254 0.9788856929759767 0.1871871069028623
vn 0.112187510273416 -0.9788856929759767 -0.1708706019934213
vn -0.112187510273416 0.9788856929759767 0.1708706019934213
vn 0.8918678689331266 0.42553601137862046 0.15326711122957137
vn -0.8918678689331266 -0.42553601137862046 -0.15326711122957137
vn -0.891553006045928 0.4528358921886171 0.008537690332211597
vn 0.891553006045928 -0.4528358921886171 -0.008537690332211597
vn 0.015105447991588934 -0.9835714812606601 -0.17988598247691406
vn -0.015105447991588934 0.9835714812606601 0.17988598247691406
vn 0.8502402257918225 0.500342890503723 0.16354984062312702
vn -0.8502402257918225 -0.500342890503723 -0.16354984062312702
vn -0.8522668154349038 0.5225251973068579 0.024671714327888308
vn 0.8522668154349038 -0.5225251973068579 -0.024671714327888308
vn 0.8022905965032973 0.5714310093911831 0.17261633835925508
vn -0.8022905965032973 -0.5714310093911831 -0.17261633835925508
vn -0.8073051874643931 0.5887330154757303 0.04064198299707403
vn 0.8073051874643931 -0.5887330154757303 -0.04064198299707403
vn 0.7483764446275974 0.638270170084662 0.18039924364213208
vn -0.7483764446275974 -0.638270170084662 -0.18039924364213208
vn -0.7569660513134416 0.6510207818836611 0.056341270082618036
vn 0.7569660513134416 -0.6510207818836611 -0.056341270082618036
vn 0.6888982666514626 0.7003637188509477 0.18684174994331676
vn -0.6888982666514626 -0.7003637188509477 -0.18684174994331676
vn -0.7015851318978273 0.7089727824325927 0.07166516915277465
vn 0.7015851318978273 -0.7089727824325927 -0.07166516915277465
vn 0.6242985049842894 0.7572503315178312 0.19189401264895184
vn -0.6242985049842894 -0.7572503315178312 -0.19189401264895184
vn -0.641532204639171 0.7622022077942617 0.0865114145321741
vn 0.641532204639171 -0.7622022077942617 -0.0865114145321741
vn 0.5550568901844879 0.8085069659574108 0.19552067577897608
vn -0.5550568901844879 -0.8085069659574108 -0.19552067577897608
vn -0.5772066641403374 0.8103551324890231 0.1007820724170799
vn 0.5772066641403374 -0.8103551324890231 -0.1007820724170799
vn 0.4816886229385631 0.8537526418414506 0.19769293634395313
vn -0.4816886229385631 -0.8537526418414506 -0.19769293634395313
vn -0.5090361197082037 0.8531114891702163 0.11438101187780768
vn 0.5090361197082037 -0.8531114891702163 -0.11438101187780768
vn 0.40473909297057936 0.8926508311702863 0.19839546424338822
vn -0.40473909297057936 -0.8926508311702863 -0.19839546424338822
vn -0.43747553229978614 0.890185632081013 0.12721909870591744
vn 0.43747553229978614 -0.890185632081013 -0.12721909870591744
vn 0.32478048679339494 0.9249122957698886 0.19762307692149556
vn -0.32478048679339494 -0.9249122957698886 -0.19762307692149556
vn -0.3630008894037589 0.9213311957746079 0.13920913039241084
vn 0.3630008894037589 -0.9213311957746079 -0.13920913039241084
vn 0.2838583459296771 0.9384770977804032 0.19668547579254345
vn -0.2838583459296771 -0.9384770977804032 -0.19668547579254345
vn -0.24878278911357088 0.9560450019646725 0.15519367918585478
vn -0.27159598358021625 0.950297266658677 0.15221933741854954
vn 0.27159598358021625 -0.950297266658677 -0.15221933741854954
vn 0.24878278911357088 -0.9560450019646725 -0.15519367918585478
vn 0.21941738878124165 0.9560450019646726 0.19450954660065073
vn 0.2424071353671116 0.9502972666586771 0.19538138525498763
vn -0.2424071353671116 -0.9502972666586771 -0.19538138525498763
vn -0.21941738878124165 -0.9560450019646726 -0.19450954660065073
vn -0.2027490240205658 0.9659248977080759 0.1608786040663936
vn 0.2027490240205658 -0.9659248977080759 -0.1608786040663936
vn 0.17308021103060145 0.9659248977080758 0.1924378666927215
vn -0.17308021103060145 -0.9659248977080758 -0.1924378666927215
vn -0.15626049520899274 0.9736320815543476 0.16620236883146064
vn 0.15626049520899274 -0.9736320815543476 -0.16620236883146064
vn 0.12635486827547088 0.9736320815543477 0.18993424396679182
vn -0.12635486827547088 -0.9736320815543477 -0.18993424396679182
vn -0.1094193790394299 0.9791497896982307 0.171152238736559
vn 0.1094193790394299 -0.9791497896982307 -0.171152238736559
vn 0.07934422975984173 0.9791497896982307 0.18700316183885202
vn -0.07934422975984173 -0.9791497896982307 -0.18700316183885202
vn -0.06233221024449162 0.9824654695296935 0.17571652383266456
vn 0.06233221024449162 -0.9824654695296935 -0.17571652383266456
vn 0.032155287826030145 0.9824654695296935 0.1836508607293306
vn -0.032155287826030145 -0.9824654695296935 -0.1836508607293306
usemtl material_0_0
f 1//1 2//2 3//2
f 2//2 1//1 4//1
f 3//3 2//3 1//4
f 4//4 1//4 2//3
f 5//5 3//2 2//2
f 2//3 3//3 5//6
f 1//1 6//7 4//1
f 4//4 6//8 1//4
f 4//9 7//9 2//9
f 2//10 7//10 4//10
f 3//2 5//5 8//5
f 8//6 5//6 3//3
f 2//9 9//9 5//9
f 5//10 9//10 2//10
f 6//7 1//1 10//7
f 10//8 1//4 6//8
f 6//9 11//9 4//9
f 4//10 11//10 6//10
f 4//9 11//9 7//9
f 7//10 11//10 4//10
f 2//9 7//9 9//9
f 9//10 7//10 2//10
f 12//11 8//5 5//5
f 5//6 8//6 12//12
f 5//9 9//9 13//9
f 13//10 9//10 5//10
f 14//13 6//7 10//7
f 10//8 6//8 14//14
f 6//9 15//9 11//9
f 11//10 15//10 6//10
f 16//15 7//16 11//15
f 11//17 7//18 16//17
f 17//16 9//19 7//16
f 7//18 9//20 17//18
f 8//5 12//11 18//11
f 18//12 12//12 8//6
f 5//9 13//9 12//9
f 12//10 13//10 5//10
f 19//19 13//21 9//19
f 9//20 13//22 19//20
f 6//7 14//13 20//13
f 20//14 14//14 6//8
f 20//9 15//9 6//9
f 6//10 15//10 20//10
f 21//23 11//15 15//23
f 15//24 11//17 21//24
f 7//16 16//15 17//16
f 17//18 16//17 7//18
f 11//15 21//23 16//15
f 16//17 21//24 11//17
f 9//19 17//16 19//19
f 19//20 17//18 9//20
f 12//11 22//25 18//11
f 18//12 22//26 12//12
f 12//9 13//9 23//9
f 23//10 13//10 12//10
f 13//21 19//19 24//21
f 24//22 19//20 13//22
f 14//13 25//27 20//13
f 20//14 25//28 14//14
f 20//9 26//9 15//9
f 15//10 26//10 20//10
f 15//23 27//29 21//23
f 21//24 27//30 15//24
f 22//25 12//11 28//25
f 28//26 12//12 22//26
f 24//21 23//31 13//21
f 13//22 23//32 24//22
f 12//9 23//9 28//9
f 28//10 23//10 12//10
f 25//27 14//13 29//27
f 29//28 14//14 25//28
f 25//9 26//9 20//9
f 20//10 26//10 25//10
f 27//29 15//23 26//29
f 26//30 15//24 27//30
f 30//33 22//25 28//25
f 28//26 22//26 30//34
f 23//31 24//21 31//31
f 31//32 24//22 23//32
f 28//9 23//9 32//9
f 32//10 23//10 28//10
f 29//27 33//35 25//27
f 25//28 33//36 29//28
f 25//9 34//9 26//9
f 26//10 34//10 25//10
f 34//37 27//29 26//29
f 26//30 27//30 34//38
f 22//25 30//33 35//33
f 35//34 30//34 22//26
f 28//9 32//9 30//9
f 30//10 32//10 28//10
f 31//31 32//39 23//31
f 23//32 32//40 31//32
f 33//35 29//27 36//35
f 36//36 29//28 33//36
f 33//9 34//9 25//9
f 25//10 34//10 33//10
f 27//29 34//37 37//37
f 37//38 34//38 27//30
f 38//41 35//33 30//33
f 30//34 35//34 38//42
f 30//9 32//9 39//9
f 39//10 32//10 30//10
f 32//39 31//31 40//39
f 40//40 31//32 32//40
f 36//43 41//44 33//43
f 33//45 41//46 36//45
f 41//9 34//9 33//9
f 33//10 34//10 41//10
f 42//47 37//48 34//48
f 34//49 37//49 42//50
f 35//33 38//41 43//41
f 43//42 38//42 35//34
f 30//9 39//9 38//9
f 38//10 39//10 30//10
f 40//39 39//51 32//39
f 32//40 39//52 40//40
f 41//44 36//43 44//44
f 44//46 36//45 41//46
f 41//9 42//9 34//9
f 34//10 42//10 41//10
f 37//48 42//47 45//47
f 45//50 42//50 37//49
f 38//41 46//53 43//41
f 43//42 46//54 38//42
f 38//9 39//9 47//9
f 47//10 39//10 38//10
f 39//51 40//39 48//51
f 48//52 40//40 39//52
f 49//55 41//44 44//44
f 44//46 41//46 49//56
f 41//9 50//9 42//9
f 42//10 50//10 41//10
f 42//47 51//57 45//47
f 45//50 51//58 42//50
f 46//53 38//41 52//53
f 52//54 38//42 46//54
f 48//51 47//59 39//51
f 39//52 47//60 48//52
f 38//9 47//9 53//9
f 53//10 47//10 38//10
f 41//44 49//55 54//55
f 54//56 49//56 41//46
f 54//9 50//9 41//9
f 41//10 50//10 54//10
f 51//57 42//47 50//57
f 50//58 42//50 51//58
f 38//9 53//9 52//9
f 52//10 53//10 38//10
f 52//53 55//61 46//53
f 46//54 55//62 52//54
f 47//59 48//51 56//59
f 56//60 48//52 47//60
f 56//59 53//63 47//59
f 47//60 53//64 56//60
f 57//65 54//55 49//55
f 49//56 54//56 57//66
f 58//9 50//9 54//9
f 54//10 50//10 58//10
f 59//67 51//57 50//57
f 50//58 51//58 59//68
f 52//9 53//9 60//9
f 60//10 53//10 52//10
f 55//61 52//53 61//61
f 61//62 52//54 55//62
f 53//63 56//59 62//63
f 62//64 56//60 53//64
f 54//55 57//65 58//65
f 58//66 57//66 54//56
f 58//9 59//9 50//9
f 50//10 59//10 58//10
f 51//57 59//67 63//67
f 63//68 59//68 51//58
f 53//69 64//70 60//70
f 60//71 64//71 53//72
f 52//9 60//9 61//9
f 61//10 60//10 52//10
f 61//73 65//73 55//73
f 55//74 65//74 61//74
f 64//70 53//69 62//69
f 62//72 53//72 64//71
f 66//75 58//65 57//65
f 57//66 58//66 66//76
f 67//9 59//9 58//9
f 58//10 59//10 67//10
f 68//77 63//67 59//67
f 59//68 63//68 68//78
f 64//70 69//79 60//70
f 60//71 69//80 64//71
f 61//9 60//9 70//9
f 70//10 60//10 61//10
f 65//73 61//73 70//73
f 70//74 61//74 65//74
f 58//65 66//75 67//75
f 67//76 66//76 58//66
f 67//9 68//9 59//9
f 59//10 68//10 67//10
f 63//67 68//77 71//77
f 71//78 68//78 63//68
f 69//79 64//70 72//79
f 72//80 64//71 69//80
f 70//9 60//9 69//9
f 69//10 60//10 70//10
f 70//81 73//81 65//81
f 65//82 73//82 70//82
f 74//83 67//75 66//75
f 66//76 67//76 74//84
f 68//9 67//9 75//9
f 75//10 67//10 68//10
f 75//83 71//77 68//77
f 68//78 71//78 75//84
f 76//85 69//79 72//79
f 72//80 69//80 76//86
f 70//9 69//9 77//9
f 77//10 69//10 70//10
f 73//81 70//81 77//81
f 77//82 70//82 73//82
f 67//75 74//83 75//83
f 75//84 74//84 67//76
f 71//77 75//83 74//83
f 74//84 75//84 71//78
f 69//79 76//85 78//85
f 78//86 76//86 69//80
f 77//9 69//9 78//9
f 78//10 69//10 77//10
f 77//87 79//87 73//87
f 73//88 79//88 77//88
f 76//85 80//89 78//85
f 78//86 80//90 76//86
f 77//9 78//9 81//9
f 81//10 78//10 77//10
f 79//87 77//87 81//87
f 81//88 77//88 79//88
f 80//89 76//85 82//89
f 82//90 76//86 80//90
f 81//9 78//9 80//9
f 80//10 78//10 81//10
f 81//91 83//91 79//91
f 79//92 83//92 81//92
f 82//89 84//93 80//89
f 80//90 84//94 82//90
f 81//9 80//9 85//9
f 85//10 80//10 81//10
f 83//91 81//91 85//91
f 85//92 81//92 83//92
f 84//93 82//89 86//93
f 86//94 82//90 84//94
f 85//9 80//9 84//9
f 84//10 80//10 85//10
f 87//95 83//95 85//95
f 85//96 83//96 87//96
f 86//93 88//97 84//93
f 84//94 88//98 86//94
f 85//9 84//9 87//9
f 87//10 84//10 85//10
f 83//95 87//95 89//95
f 89//96 87//96 83//96
f 88//97 86//93 90//97
f 90//98 86//94 88//98
f 87//9 84//9 88//9
f 88//10 84//10 87//10
f 91//99 89//99 87//99
f 87//100 89//100 91//100
f 92//101 88//97 90//97
f 90//98 88//98 92//102
f 87//9 88//9 91//9
f 91//10 88//10 87//10
f 89//99 91//99 93//99
f 93//100 91//100 89//100
f 88//97 92//101 94//101
f 94//102 92//102 88//98
f 91//9 88//9 94//9
f 94//10 88//10 91//10
f 95//103 93//103 91//103
f 91//104 93//104 95//104
f 96//105 94//101 92//101
f 92//102 94//102 96//106
f 91//9 94//9 95//9
f 95//10 94//10 91//10
f 93//103 95//103 97//103
f 97//104 95//104 93//104
f 94//101 96//105 98//105
f 98//106 96//106 94//102
f 95//9 94//9 98//9
f 98//10 94//10 95//10
f 99//107 97//107 95//107
f 95//108 97//108 99//108
f 100//109 98//105 96//105
f 96//106 98//106 100//110
f 95//9 98//9 99//9
f 99//10 98//10 95//10
f 97//107 99//107 101//107
f 101//108 99//108 97//108
f 98//105 100//109 102//109
f 102//110 100//110 98//106
f 99//9 98//9 102//9
f 102//10 98//10 99//10
f 103//111 101//111 99//111
f 99//112 101//112 103//112
f 104//113 102//109 100//109
f 100//110 102//110 104//114
f 99//9 102//9 103//9
f 103//10 102//10 99//10
f 101//111 103//111 105//111
f 105//112 103//112 101//112
f 102//109 104//113 106//113
f 106//114 104//114 102//110
f 103//9 102//9 107//9
f 107//10 102//10 103//10
f 107//115 105//115 103//115
f 103//116 105//116 107//116
f 108//117 106//113 104//113
f 104//114 106//114 108//118
f 107//9 102//9 106//9
f 106//10 102//10 107//10
f 105//115 107//115 109//115
f 109//116 107//116 105//116
f 106//113 108//117 110//117
f 110//118 108//118 106//114
f 107//9 106//9 111//9
f 111//10 106//10 107//10
f 111//119 109//119 107//119
f 107//120 109//120 111//120
f 112//121 110//117 108//117
f 108//118 110//118 112//122
f 111//9 106//9 110//9
f 110//10 106//10 111//10
f 109//119 111//119 113//119
f 113//120 111//120 109//120
f 110//117 112//121 114//121
f 114//122 112//122 110//118
f 111//9 110//9 115//9
f 115//10 110//10 111//10
f 115//9 110//9 114//9
f 114//10 110//10 115//10
f 115//9 114//9 118//9
f 118//10 114//10 115//10
f 115//9 118//9 121//9
f 121//10 118//10 115//10
f 115//9 121//9 119//9
f 119//10 121//10 115//10
f 119//9 121//9 124//9
f 124//10 121//10 119//10
f 119//9 124//9 123//9
f 123//10 124//10 119//10
f 123//9 124//9 128//9
f 128//10 124//10 123//10
f 123//9 128//9 127//9
f 127//10 128//10 123//10
f 127//9 128//9 132//9
f 132//10 128//10 127//10
f 127//9 132//9 131//9
f 131//10 132//10 127//10
f 131//9 132//9 135//9
f 135//10 132//10 131//10
usemtl material_1_0
f 115/1/123 113/2/124 111/3/124
f 111/4/125 113/5/125 115/6/126
f 116/7/127 114/8/128 112/9/128
f 112/10/129 114/11/129 116/12/130
f 113/2/124 115/1/123 117/13/123
f 117/14/126 115/6/126 113/5/125
f 114/8/128 116/7/127 118/15/127
f 118/16/130 116/12/130 114/11/129
f 119/17/131 117/13/123 115/1/123
f 115/18/126 117/19/126 119/20/132
f 120/21/133 118/15/127 116/7/127
f 116/22/130 118/23/130 120/24/134
f 117/13/123 119/17/131 122/25/131
f 122/26/132 119/20/132 117/19/126
f 118/15/127 120/21/133 121/27/133
f 121/28/134 120/24/134 118/23/130
f 123/29/135 122/25/131 119/17/131
f 119/30/132 122/31/132 123/32/136
f 125/33/137 121/27/133 120/21/133
f 120/34/134 121/35/134 125/36/138
f 122/25/131 123/29/135 126/37/135
f 126/38/136 123/32/136 122/31/132
f 121/27/133 125/33/137 124/39/137
f 124/40/138 125/36/138 121/35/134
f 127/41/139 126/37/135 123/29/135
f 123/42/136 126/43/136 127/44/140
f 129/45/141 124/39/137 125/33/137
f 125/46/138 124/47/138 129/48/142
f 126/37/135 127/41/139 130/49/139
f 130/50/140 127/44/140 126/43/136
f 124/39/137 129/45/141 128/51/141
f 128/52/142 129/48/142 124/47/138
f 131/53/143 130/49/139 127/41/139
f 127/54/140 130/55/140 131/56/144
f 133/57/145 128/51/141 129/45/141
f 129/58/142 128/59/142 133/60/146
f 130/49/139 131/53/143 134/61/143
f 134/62/144 131/56/144 130/55/140
f 128/51/141 133/57/145 132/63/145
f 132/64/146 133/60/146 128/59/142
f 135/65/84 134/61/143 131/53/143
f 131/66/144 134/67/144 135/68/83
f 136/69/84 132/63/145 133/57/145
f 133/70/146 132/71/146 136/72/83
f 134/61/143 135/65/84 136/69/84
f 136/73/83 135/68/83 134/67/144
f 132/63/145 136/69/84 135/65/84
f 135/74/83 136/72/83 132/71/146
