# SSTK version 0.8.0
# 13
mtllib original-13.mtl
o Group11/mesh12/mesh12-geometry#mesh12-geometry
v -0.464107 0.020724 0.199672
v -0.454938 0.038277 0.104464
v -0.443449 0.030855 0.172785
v -0.463722 0.034725 0.171546
v -0.437118 0.042975 0.107046
v -0.466561 0.029292 0.201015
v -0.466057 0.042877 0.172824
v -0.444121 0.067431 0.110881
v -0.451572 0.047864 0.092366
v -0.445903 0.039423 0.174129
v -0.471111 0.045180 0.203506
v -0.444867 0.062860 0.095777
v -0.448212 0.047624 0.175140
v -0.461941 0.062733 0.108298
v -0.441344 0.050560 0.093848
v -0.448237 0.047575 0.175407
v -0.468895 0.037444 0.202293
v -0.455095 0.060164 0.094295
v -0.450427 0.055360 0.176353
vt 0 0.25
vt 0 0.03125
vt -0.583333 0.182292
vt -2 0
vt -1.458333 0.021896
vt -0.25 0
vt -0.583333 0.03125
vt 1.360902 0
vt 0.564862 0
vt 1.360902 0.021896
vt -2 0.021896
vt -1.458333 0.042729
vt 0.25 0
vt 0.25 0.0625
vt 1.458333 0
vt 0 -0.027984
vt 0.124263 0.006914
vt 0.583333 -0.027984
vt 0.564862 0.021896
vt 0 0.182292
vt 0.583333 0.182292
vt -2 0.0625
vt 0 0.021896
vt -0.583333 0.021896
vt 0 0.042729
vt 0.483512 0.0625
vt 0.483512 0
vt 0.204332 0.046967
vt 1.453439 0.042729
vt -0.22387 0
vt -0.22387 0.0625
vt 0.055309 0.015533
vt 0.45907 0.006914
vt 1.458333 0.021896
vt 1.458333 0.042729
vt -2 0.042729
vt -0.25 0.0625
vt -0.583333 0.042729
vt 0.204332 0.015533
vt 0.45907 0.020905
vt 0.124263 0.020905
vt 0.583333 0.055803
vt 1.453439 0.0625
vt 0.055309 0.046967
vt 0.45907 0.015533
vt 0.124263 0.015533
vt 0.45907 0.046967
vt 1.367464 0.042729
vt 0.568085 0.042729
vt 1.367464 0.0625
vt 0.583333 0.03125
vt 0.124263 0.046967
vt 0 0.055803
vt 0.583333 0.18168
vt 0.568085 0.0625
vn 0.006107803036376077 -0.8860323761987943 0.46358313501419246
vn -0.21358373518422535 -0.7926429319967879 -0.5710509350489588
vn 0.725849752032515 -0.504280133623663 0.46780731536267917
vn -0.725849752032515 0.504280133623663 -0.46780731536267917
vn 0.21358373518422535 0.7926429319967879 0.5710509350489588
vn -0.006107803036376077 0.8860323761987943 -0.46358313501419246
vn -0.605949613602126 0.37513888698079906 0.7014954606055845
vn 0.605949613602126 -0.37513888698079906 -0.7014954606055845
vn 0.7131694433906398 -0.5483082095554872 -0.4367464394221673
vn -0.7131694433906398 0.5483082095554872 0.4367464394221673
vn -0.41576040634772427 0.5871358739977193 0.6945608324535077
vn 0.41576040634772427 -0.5871358739977193 -0.6945608324535077
vn -0.5585335793131112 -0.2822400200432756 0.7799876998168983
vn 0.5585335793131112 0.2822400200432756 -0.7799876998168983
vn 0.28823791442726177 0.9355562402686489 -0.20409170973121993
vn -0.28823791442726177 -0.9355562402686489 0.20409170973121993
vn -0.041524998023302805 -0.27116511074995525 -0.961636707520636
vn 0.041524998023302805 0.27116511074995525 0.961636707520636
vn 0.23225786895727443 0.3705250572244502 0.8993149972485966
vn -0.23225786895727443 -0.3705250572244502 -0.8993149972485966
vn -0.414760462492291 0.589061989404542 0.6935270228274771
vn 0.414760462492291 -0.589061989404542 -0.6935270228274771
vn 0.20910514880700512 0.5919682937572349 -0.7783627534309104
vn -0.20910514880700512 -0.5919682937572349 0.7783627534309104
vn 0.7074445036126008 0.09273400109328776 0.7006587467159396
vn -0.7074445036126008 -0.09273400109328776 -0.7006587467159396
vn -0.6385150565715363 0.691220970379454 -0.33839635435260534
vn 0.6385150565715363 -0.691220970379454 0.33839635435260534
vn 0.42133340481970444 -0.14913395458886697 -0.8945597942964578
vn -0.42133340481970444 0.14913395458886697 0.8945597942964578
vn 0.39498397711723876 -0.030849012536331467 0.9181699168706094
vn -0.39498397711723876 0.030849012536331467 -0.9181699168706094
vn -0.3227096151633619 -0.2361230489234019 0.9165720975723795
vn 0.3227096151633619 0.2361230489234019 -0.9165720975723795
vn -0.2537533040572882 0.4699378492465466 -0.8454393405357593
vn 0.2537533040572882 -0.4699378492465466 0.8454393405357593
vn 0.3966743790591134 0.651037151750593 0.6471476369720761
vn -0.3966743790591134 -0.651037151750593 -0.6471476369720761
usemtl material_0_0
f 1/1/1 2/2/2 3/3/3
f 3/3/4 2/2/5 1/1/6
f 1/4/1 4/5/7 2/6/2
f 2/6/5 4/5/8 1/4/6
f 5/7/9 3/3/3 2/2/2
f 2/2/5 3/3/4 5/7/10
f 1/8/1 3/9/3 6/10/11
f 6/10/12 3/9/4 1/8/6
f 6/11/11 4/5/7 1/4/1
f 1/4/6 4/5/8 6/11/12
f 7/12/13 2/6/2 4/5/7
f 4/5/8 2/6/5 7/12/14
f 5/13/9 8/14/15 3/15/3
f 3/15/4 8/14/16 5/13/10
f 2/16/2 9/17/17 5/18/9
f 5/18/10 9/17/18 2/16/5
f 10/19/19 6/10/11 3/9/3
f 3/9/4 6/10/12 10/19/20
f 4/20/7 6/1/11 10/21/19
f 10/21/20 6/1/12 4/20/8
f 7/12/13 11/22/21 2/6/2
f 2/6/5 11/22/22 7/12/14
f 4/23/7 10/24/19 7/25/13
f 7/25/14 10/24/20 4/23/8
f 8/26/15 5/27/9 12/28/23
f 12/28/24 5/27/10 8/26/16
f 13/29/25 3/15/3 8/14/15
f 8/14/16 3/15/4 13/29/26
f 2/30/2 14/31/27 9/32/17
f 9/32/18 14/31/28 2/30/5
f 15/33/29 5/18/9 9/17/17
f 9/17/18 5/18/10 15/33/30
f 10/34/19 3/15/3 16/35/31
f 16/35/32 3/15/4 10/34/20
f 17/36/33 11/22/21 7/12/13
f 7/12/14 11/22/22 17/36/34
f 14/37/27 2/6/2 11/22/21
f 11/22/22 2/6/5 14/37/28
f 16/38/31 7/25/13 10/24/19
f 10/24/20 7/25/14 16/38/32
f 15/39/29 12/28/23 5/27/9
f 5/27/10 12/28/24 15/39/30
f 12/40/23 18/41/35 8/42/15
f 8/42/16 18/41/36 12/40/24
f 16/35/31 3/15/3 13/29/25
f 13/29/26 3/15/4 16/35/32
f 13/29/25 8/14/15 19/43/37
f 19/43/38 8/14/16 13/29/26
f 18/44/35 9/32/17 14/31/27
f 14/31/28 9/32/18 18/44/36
f 15/45/29 9/46/17 12/47/23
f 12/47/24 9/46/18 15/45/30
f 17/48/33 13/49/25 11/50/21
f 11/50/22 13/49/26 17/48/34
f 14/2/27 11/1/21 8/51/15
f 8/51/16 11/1/22 14/2/28
f 18/52/35 12/47/23 9/46/17
f 9/46/18 12/47/24 18/52/36
f 14/53/27 8/42/15 18/41/35
f 18/41/36 8/42/16 14/53/28
f 19/54/37 8/51/15 11/1/21
f 11/1/22 8/51/16 19/54/38
f 19/55/37 11/50/21 13/49/25
f 13/49/26 11/50/22 19/55/38
