# SSTK version 0.8.0
# 17
mtllib original-17.mtl
o mesh16/mesh16-geometry#mesh16-geometry
v 0.438665 0.039943 0.220088
v 0.433987 0.047524 0.222259
v 0.440259 0.046082 0.221353
v 0.432393 0.041385 0.220994
v 0.438813 0.039899 0.220116
v 0.440407 0.046038 0.221381
v 0.441089 0.033729 0.247200
v 0.442683 0.039867 0.248465
v 0.434669 0.035215 0.248079
v 0.436336 0.041545 0.248325
v 0.434488 0.034740 0.250608
v 0.434742 0.035406 0.247059
v 0.442410 0.039151 0.252283
v 0.436263 0.041354 0.249343
v 0.440815 0.033011 0.251023
v 0.436082 0.040880 0.251869
v 0.433980 0.034205 0.253872
v 0.440222 0.032386 0.254832
v 0.435576 0.040346 0.255122
v 0.441818 0.038528 0.256082
v 0.433202 0.033754 0.257096
v 0.439315 0.031860 0.258595
v 0.434801 0.039897 0.258335
v 0.440914 0.038003 0.259834
v 0.432162 0.033390 0.260255
v 0.438100 0.031436 0.262283
v 0.433764 0.039534 0.261484
v 0.439703 0.037580 0.263512
v 0.430865 0.033117 0.263328
v 0.436587 0.031116 0.265869
v 0.432472 0.039262 0.264547
v 0.438193 0.037261 0.267088
v 0.429322 0.032936 0.266292
v 0.434786 0.030905 0.269328
v 0.430933 0.039081 0.267500
v 0.436397 0.037050 0.270537
v 0.427543 0.032848 0.269125
v 0.432709 0.030802 0.272635
v 0.429161 0.038993 0.270324
v 0.434327 0.036948 0.273835
v 0.425542 0.032854 0.271807
v 0.430374 0.030809 0.275766
v 0.427166 0.039000 0.272997
v 0.431998 0.036955 0.276956
v 0.423333 0.032954 0.274318
v 0.427795 0.030926 0.278697
v 0.424964 0.039099 0.275500
v 0.429426 0.037072 0.279879
v 0.420932 0.033147 0.276641
v 0.424992 0.031152 0.281408
v 0.422571 0.039292 0.277815
v 0.426632 0.037297 0.282583
v 0.418356 0.033433 0.278758
v 0.420004 0.039577 0.279926
v 0.423634 0.037629 0.285047
v 0.421986 0.031485 0.283879
v 0.415400 0.033839 0.280809
v 0.417053 0.039982 0.281974
v 0.420454 0.038066 0.287254
v 0.418802 0.031923 0.286089
vt -0.125844 0.820763
vt -0.036266 0.840019
vt -0.158296 0.835942
vt -0.003814 0.824839
vt 0.107344 0.821449
vt 0.015017 0.840802
vt -0.017475 0.825624
vt 0.139836 0.836627
vt 2.8563 0.279731
vt 2.344154 0.252396
vt 2.878083 0.263811
vt -2.897837 0.814411
vt -2.350974 0.82701
vt -2.89209 0.830106
vt -2.344158 0.2524
vt -2.856307 0.279734
vt -2.878089 0.263814
vt 2.322371 0.268316
vt -2.356721 0.811315
vt -2.342561 0.268351
vt -2.343887 0.252701
vt -2.271841 0.268534
vt -2.321986 0.268618
vt -2.342202 0.268652
vt 0.25012 0.83429
vt 0.340356 0.853633
vt 0.217191 0.849453
vt 2.271444 0.813678
vt 2.347568 0.798
vt 2.34714 0.813712
vt -2.322377 0.26832
vt -2.343919 0.252701
vt -2.322018 0.268619
vt -2.342202 0.268653
vt 2.343919 0.252701
vt 2.342202 0.268653
vt 2.322018 0.268619
vt -2.268121 0.252573
vt -2.276881 0.813681
vt -2.327382 0.797992
vt -2.277233 0.797969
vt -2.347599 0.798001
vt 0.373286 0.83847
vt 2.271796 0.797966
vt 2.271949 0.268535
vt 2.268229 0.252574
vt -2.326955 0.813704
vt -2.34714 0.813713
vt -2.269888 0.25084
vt -2.209569 0.26743
vt -2.274408 0.266797
vt -2.17067 0.791832
vt -2.238243 0.807369
vt -2.235692 0.79166
vt 2.24368 0.807354
vt 2.165234 0.791846
vt 2.241129 0.791645
vt 2.209676 0.26743
vt 2.269781 0.250841
vt 2.274301 0.266799
vt -2.194207 0.251579
vt -2.173436 0.80754
vt 2.168 0.807554
vt 2.194314 0.251578
vt -2.195903 0.25004
vt -2.147947 0.26725
vt -2.212054 0.26588
vt -2.04712 0.786919
vt -2.117734 0.802243
vt -2.112089 0.786547
vt 2.123165 0.802212
vt 2.041688 0.78695
vt 2.11752 0.786516
vt 2.148054 0.267248
vt 2.195798 0.250043
vt 2.211949 0.265882
vt -2.121078 0.251639
vt -2.05298 0.802614
vt 2.047548 0.802645
vt 2.121184 0.251638
vt -2.122737 0.250307
vt -2.08753 0.267992
vt -2.15037 0.265897
vt -1.907761 0.78339
vt -1.981326 0.798496
vt -1.972638 0.782821
vt 1.98675 0.798448
vt 1.902336 0.783437
vt 1.978062 0.782773
vt 2.087635 0.267989
vt 2.122635 0.250311
vt 2.150267 0.265901
vt -2.049389 0.252752
vt -1.916663 0.799063
vt 1.911238 0.79911
vt 2.049494 0.25275
vt -2.051042 0.251635
vt -2.028854 0.269647
vt -2.089908 0.266846
vt -1.753942 0.781358
vt -1.830346 0.796242
vt -1.818693 0.780597
vt 1.835759 0.796177
vt 1.748528 0.781421
vt 1.824106 0.780533
vt 2.028956 0.269643
vt 2.050943 0.251641
vt 2.089809 0.266851
vt -1.979778 0.254905
vt -1.765808 0.797
vt 1.760394 0.797063
vt 1.979881 0.254901
vt -1.981451 0.254007
vt -1.972435 0.272196
vt -2.031203 0.268714
vt -1.587149 0.780887
vt -1.66626 0.795548
vt -1.651743 0.779941
vt 1.67166 0.795468
vt 1.581747 0.780965
vt 1.657143 0.779861
vt 1.972534 0.272191
vt 1.981356 0.254014
vt 2.031108 0.26872
vt -1.912856 0.258072
vt -1.601878 0.79649
vt 1.596477 0.796569
vt 1.912955 0.258067
vt -1.914567 0.257396
vt -1.918761 0.275612
vt -1.974766 0.271479
vt -1.408965 0.781988
vt -1.490633 0.796428
vt -1.473378 0.780865
vt 1.496017 0.796334
vt 1.403579 0.782081
vt 1.478763 0.780771
vt 1.918856 0.275606
vt 1.914477 0.257403
vt 1.974676 0.271487
vt -1.849197 0.26222
vt -1.426432 0.797548
vt 1.421046 0.797641
vt 1.849292 0.262214
vt -1.850959 0.261764
vt -1.868284 0.279858
vt -1.921077 0.275111
vt -1.221033 0.784625
vt -1.305092 0.798849
vt -1.285244 0.783335
vt 1.31046 0.798741
vt 1.215663 0.784732
vt 1.290612 0.783226
vt 1.868374 0.279851
vt 1.850875 0.261772
vt 1.920993 0.275119
vt -1.789337 0.267305
vt -1.241092 0.800136
vt 1.235723 0.800243
vt 1.789427 0.267298
vt -1.791149 0.267065
vt -1.821415 0.284892
vt -1.870581 0.27957
vt -1.025016 0.788712
vt -1.111291 0.802727
vt -1.089013 0.787264
vt 1.11664 0.802606
vt 1.019665 0.788832
vt 1.094363 0.787142
vt 1.821499 0.284883
vt 1.791071 0.267074
vt 1.870503 0.279579
vt -1.733762 0.273276
vt -1.047505 0.80417
vt 1.042153 0.80429
vt 1.733846 0.273268
vt -1.735614 0.273245
vt -1.778521 0.290661
vt -1.82368 0.284811
vt -0.822571 0.794118
vt -0.910874 0.807935
vt -0.886346 0.792525
vt 0.916205 0.807801
vt 0.817238 0.794251
vt 0.891677 0.792391
vt 1.778599 0.290652
vt 1.735543 0.273255
vt 1.823609 0.284821
vt -1.682904 0.280073
vt -0.847309 0.809523
vt 0.841976 0.809655
vt 1.682982 0.280064
vt -1.684773 0.280242
vt -1.739923 0.297111
vt -1.780733 0.290781
vt -0.678867 0.798951
vt -0.64211 0.816028
vt -0.705454 0.814307
vt 0.636796 0.816171
vt 0.684179 0.798806
vt 0.710766 0.814162
vt 1.739994 0.297101
vt 1.68471 0.280252
vt 1.78067 0.290792
vt -1.63714 0.28763
vt -0.615314 0.800677
vt 0.609999 0.800821
vt 1.637211 0.28762
vt -1.638994 0.287987
vt -1.702927 0.304733
vt -1.74205 0.297422
vt -0.468145 0.806341
vt -0.428164 0.82364
vt -0.496587 0.821645
vt 0.428163 0.823639
vt 0.473439 0.806186
vt 0.501882 0.82149
vt 1.702931 0.304734
vt 1.638939 0.287999
vt 1.741995 0.297434
vt -1.596847 0.295863
vt -0.399617 0.808339
vt 0.399616 0.808338
vt 1.596851 0.295864
vt -1.60765 0.855455
vt -1.753118 0.84239
vt -1.627019 0.839931
vt -1.733749 0.857914
vn -0.08900357901442088 0.22307108339235146 -0.9707304747852444
vn 0.08900357901442088 -0.22307108339235146 0.9707304747852444
vn 0.081669474834101 -0.22137899875529632 0.9717620263163327
vn -0.081669474834101 0.22137899875529632 -0.9717620263163327
vn 0.24650249210729924 0.9492134913419814 0.19552562297370937
vn -0.24650249210729924 -0.9492134913419814 -0.19552562297370937
vn -0.9656948722205664 0.22357295077784914 0.13209295759952458
vn 0.9656948722205664 -0.22357295077784914 -0.13209295759952458
vn -0.24651267827568057 -0.9492117321851682 -0.1955213209125367
vn 0.24651267827568057 0.9492117321851682 0.1955213209125367
vn -0.246523705033377 -0.9491569572433276 -0.19577316816459953
vn -0.24661774745943865 -0.9493039748239844 -0.1949401190658728
vn 0.246523705033377 0.9491569572433276 0.19577316816459953
vn 0.24661774745943865 0.9493039748239844 0.1949401190658728
vn 0.07034674422459412 0.183822002763396 -0.9804390888153398
vn -0.07034674422459412 -0.183822002763396 0.9804390888153398
vn 0.9627387298156543 -0.2629780227206445 0.06306106309665885
vn 0.9665964779973454 -0.2554130578099425 0.02134053943325716
vn -0.9665964779973454 0.2554130578099425 -0.02134053943325716
vn -0.9627387298156543 0.2629780227206445 -0.06306106309665885
vn -0.24687648313151522 -0.9495759465118128 -0.19328094547267033
vn 0.24687648313151522 0.9495759465118128 0.19328094547267033
vn -0.9498156667527529 0.27659593375804764 -0.14609890013116916
vn 0.9498156667527529 -0.27659593375804764 0.14609890013116916
vn -0.2472711017620703 -0.9498053659287344 -0.19164229461774532
vn 0.2472711017620703 0.9498053659287344 0.19164229461774532
vn -0.9300441822727367 0.2880719420387786 -0.22810606136322448
vn 0.9300441822727367 -0.2880719420387786 0.22810606136322448
vn -0.24780032632270552 -0.9499901843242384 -0.19003591229543992
vn 0.24780032632270552 0.9499901843242384 0.19003591229543992
vn -0.9035683009012384 0.2973209780548879 -0.30848753883250135
vn 0.9035683009012384 -0.2973209780548879 0.30848753883250135
vn -0.24845926805251559 -0.9501291130411429 -0.18847456239625335
vn 0.24845926805251559 0.9501291130411429 0.18847456239625335
vn -0.8705791355476984 0.3042779555306927 -0.3866612141488776
vn 0.8705791355476984 -0.3042779555306927 0.3866612141488776
vn -0.24924411619569467 -0.9502212104730712 -0.1869679697405901
vn 0.24924411619569467 0.9502212104730712 0.1869679697405901
vn -0.8313162563172716 0.308890970155728 -0.4620602239307013
vn 0.8313162563172716 -0.308890970155728 0.4620602239307013
vn -0.2501477844269784 -0.9502660827653288 -0.1855275124937309
vn 0.2501477844269784 0.9502660827653288 0.1855275124937309
vn -0.7860648048362188 0.3111271401150499 -0.534136710292063
vn 0.7860648048362188 -0.3111271401150499 0.534136710292063
vn -0.2511652902737636 -0.9502627613900009 -0.18416482095434591
vn 0.2511652902737636 0.9502627613900009 0.18416482095434591
vn -0.7351524307916308 0.3109710210088917 -0.6023685977819926
vn 0.7351524307916308 -0.3109710210088917 0.6023685977819926
vn -0.25228807281802207 -0.9502118673081483 -0.18288831439031453
vn 0.25228807281802207 0.9502118673081483 0.18288831439031453
vn -0.67894875383936 0.30842196477990963 -0.6662615712325604
vn 0.67894875383936 -0.30842196477990963 0.6662615712325604
vn -0.2535081424843994 -0.9501137299677402 -0.18170724207058325
vn 0.2535081424843994 0.9501137299677402 0.18170724207058325
vn -0.6178600404430894 0.30349905007947164 -0.725353222247287
vn 0.6178600404430894 -0.30349905007947164 0.725353222247287
vn -0.2548177535318052 -0.9499686009624481 -0.18063103185901666
vn 0.2548177535318052 0.9499686009624481 0.18063103185901666
vn -0.5523301771286441 0.2962389956295859 -0.7792135990223829
vn 0.5523301771286441 -0.2962389956295859 0.7792135990223829
vn -0.2554929603346252 -0.9498841163052432 -0.18012082836378704
vn 0.2554929603346252 0.9498841163052432 0.18012082836378704
vn -0.5180432443211042 0.29176597464320353 -0.8040546082535478
vn 0.5180432443211042 -0.29176597464320353 0.8040546082535478
vn -0.8163119254313341 0.11212000624228151 0.5666250476274574
vn 0.8163119254313341 -0.11212000624228151 -0.5666250476274574
usemtl material_0_0
f 1/1/1 2/2/1 3/3/1
f 2/2/1 1/1/1 4/4/1
f 3/3/2 2/2/2 1/1/2
f 4/4/2 1/1/2 2/2/2
f 5/5/3 2/6/3 4/7/3
f 4/7/4 2/6/4 5/5/4
f 2/6/3 5/5/3 6/8/3
f 6/8/4 5/5/4 2/6/4
f 4/9/5 7/10/5 5/11/5
f 5/11/6 7/10/6 4/9/6
f 5/12/7 8/13/7 6/14/7
f 6/14/8 8/13/8 5/12/8
f 8/15/9 2/16/9 6/17/9
f 6/17/10 2/16/10 8/15/10
f 7/10/5 4/9/5 9/18/5
f 9/18/6 4/9/6 7/10/6
f 8/13/7 5/12/7 7/19/7
f 7/19/8 5/12/8 8/13/8
f 10/20/9 2/16/9 8/15/9
f 8/15/10 2/16/10 10/20/10
f 7/21/11 11/22/12 9/23/11
f 9/23/13 11/22/14 7/21/13
f 7/21/11 9/23/11 12/24/11
f 12/24/13 9/23/13 7/21/13
f 7/25/15 10/26/15 8/27/15
f 8/27/16 10/26/16 7/25/16
f 13/28/17 7/29/18 8/30/18
f 8/30/19 7/29/19 13/28/20
f 2/16/9 10/20/9 14/31/9
f 14/31/10 10/20/10 2/16/10
f 8/32/11 14/33/11 10/34/11
f 10/34/13 14/33/13 8/32/13
f 8/35/13 10/36/13 14/37/13
f 14/37/11 10/36/11 8/35/11
f 11/22/12 7/21/11 15/38/12
f 15/38/14 7/21/13 11/22/14
f 16/39/20 9/40/19 11/41/20
f 11/41/17 9/40/18 16/39/17
f 9/40/19 16/39/20 12/42/19
f 12/42/18 16/39/17 9/40/18
f 10/26/15 7/25/15 12/43/15
f 12/43/16 7/25/16 10/26/16
f 7/29/18 13/28/17 15/44/17
f 15/44/20 13/28/20 7/29/19
f 8/35/13 16/45/14 13/46/14
f 13/46/12 16/45/12 8/35/11
f 12/42/19 14/47/19 10/48/19
f 10/48/18 14/47/18 12/42/18
f 16/45/14 8/35/13 14/37/13
f 14/37/11 8/35/11 16/45/12
f 15/49/12 17/50/21 11/51/12
f 11/51/14 17/50/22 15/49/14
f 17/52/23 16/53/20 11/54/20
f 11/54/17 16/53/17 17/52/24
f 12/42/19 16/39/20 14/47/19
f 14/47/18 16/39/17 12/42/18
f 13/55/17 18/56/24 15/57/17
f 15/57/20 18/56/23 13/55/20
f 19/58/22 13/59/14 16/60/14
f 16/60/12 13/59/12 19/58/21
f 17/50/21 15/49/12 18/61/21
f 18/61/22 15/49/14 17/50/22
f 16/53/20 17/52/23 19/62/23
f 19/62/24 17/52/24 16/53/17
f 18/56/24 13/55/17 20/63/24
f 20/63/23 13/55/20 18/56/23
f 13/59/14 19/58/22 20/64/22
f 20/64/21 19/58/21 13/59/12
f 18/65/21 21/66/25 17/67/21
f 17/67/22 21/66/26 18/65/22
f 21/68/27 19/69/23 17/70/23
f 17/70/24 19/69/24 21/68/28
f 20/71/24 22/72/28 18/73/24
f 18/73/23 22/72/27 20/71/23
f 23/74/26 20/75/22 19/76/22
f 19/76/21 20/75/21 23/74/25
f 21/66/25 18/65/21 22/77/25
f 22/77/26 18/65/22 21/66/26
f 19/69/23 21/68/27 23/78/27
f 23/78/28 21/68/28 19/69/24
f 22/72/28 20/71/24 24/79/28
f 24/79/27 20/71/23 22/72/27
f 20/75/22 23/74/26 24/80/26
f 24/80/25 23/74/25 20/75/21
f 22/81/25 25/82/29 21/83/25
f 21/83/26 25/82/30 22/81/26
f 25/84/31 23/85/27 21/86/27
f 21/86/28 23/85/28 25/84/32
f 24/87/28 26/88/32 22/89/28
f 22/89/27 26/88/31 24/87/27
f 27/90/30 24/91/26 23/92/26
f 23/92/25 24/91/25 27/90/29
f 25/82/29 22/81/25 26/93/29
f 26/93/30 22/81/26 25/82/30
f 23/85/27 25/84/31 27/94/31
f 27/94/32 25/84/32 23/85/28
f 26/88/32 24/87/28 28/95/32
f 28/95/31 24/87/27 26/88/31
f 24/91/26 27/90/30 28/96/30
f 28/96/29 27/90/29 24/91/25
f 26/97/29 29/98/33 25/99/29
f 25/99/30 29/98/34 26/97/30
f 29/100/35 27/101/31 25/102/31
f 25/102/32 27/101/32 29/100/36
f 28/103/32 30/104/36 26/105/32
f 26/105/31 30/104/35 28/103/31
f 31/106/34 28/107/30 27/108/30
f 27/108/29 28/107/29 31/106/33
f 29/98/33 26/97/29 30/109/33
f 30/109/34 26/97/30 29/98/34
f 27/101/31 29/100/35 31/110/35
f 31/110/36 29/100/36 27/101/32
f 30/104/36 28/103/32 32/111/36
f 32/111/35 28/103/31 30/104/35
f 28/107/30 31/106/34 32/112/34
f 32/112/33 31/106/33 28/107/29
f 30/113/33 33/114/37 29/115/33
f 29/115/34 33/114/38 30/113/34
f 33/116/39 31/117/35 29/118/35
f 29/118/36 31/117/36 33/116/40
f 32/119/36 34/120/40 30/121/36
f 30/121/35 34/120/39 32/119/35
f 35/122/38 32/123/34 31/124/34
f 31/124/33 32/123/33 35/122/37
f 33/114/37 30/113/33 34/125/37
f 34/125/38 30/113/34 33/114/38
f 31/117/35 33/116/39 35/126/39
f 35/126/40 33/116/40 31/117/36
f 34/120/40 32/119/36 36/127/40
f 36/127/39 32/119/35 34/120/39
f 32/123/34 35/122/38 36/128/38
f 36/128/37 35/122/37 32/123/33
f 34/129/37 37/130/41 33/131/37
f 33/131/38 37/130/42 34/129/38
f 37/132/43 35/133/39 33/134/39
f 33/134/40 35/133/40 37/132/44
f 36/135/40 38/136/44 34/137/40
f 34/137/39 38/136/43 36/135/39
f 39/138/42 36/139/38 35/140/38
f 35/140/37 36/139/37 39/138/41
f 37/130/41 34/129/37 38/141/41
f 38/141/42 34/129/38 37/130/42
f 35/133/39 37/132/43 39/142/43
f 39/142/44 37/132/44 35/133/40
f 38/136/44 36/135/40 40/143/44
f 40/143/43 36/135/39 38/136/43
f 36/139/38 39/138/42 40/144/42
f 40/144/41 39/138/41 36/139/37
f 38/145/41 41/146/45 37/147/41
f 37/147/42 41/146/46 38/145/42
f 41/148/47 39/149/43 37/150/43
f 37/150/44 39/149/44 41/148/48
f 40/151/44 42/152/48 38/153/44
f 38/153/43 42/152/47 40/151/43
f 43/154/46 40/155/42 39/156/42
f 39/156/41 40/155/41 43/154/45
f 41/146/45 38/145/41 42/157/45
f 42/157/46 38/145/42 41/146/46
f 39/149/43 41/148/47 43/158/47
f 43/158/48 41/148/48 39/149/44
f 42/152/48 40/151/44 44/159/48
f 44/159/47 40/151/43 42/152/47
f 40/155/42 43/154/46 44/160/46
f 44/160/45 43/154/45 40/155/41
f 42/161/45 45/162/49 41/163/45
f 41/163/46 45/162/50 42/161/46
f 45/164/51 43/165/47 41/166/47
f 41/166/48 43/165/48 45/164/52
f 44/167/48 46/168/52 42/169/48
f 42/169/47 46/168/51 44/167/47
f 47/170/50 44/171/46 43/172/46
f 43/172/45 44/171/45 47/170/49
f 45/162/49 42/161/45 46/173/49
f 46/173/50 42/161/46 45/162/50
f 43/165/47 45/164/51 47/174/51
f 47/174/52 45/164/52 43/165/48
f 46/168/52 44/167/48 48/175/52
f 48/175/51 44/167/47 46/168/51
f 44/171/46 47/170/50 48/176/50
f 48/176/49 47/170/49 44/171/45
f 46/177/49 49/178/53 45/179/49
f 45/179/50 49/178/54 46/177/50
f 49/180/55 47/181/51 45/182/51
f 45/182/52 47/181/52 49/180/56
f 48/183/52 50/184/56 46/185/52
f 46/185/51 50/184/55 48/183/51
f 51/186/54 48/187/50 47/188/50
f 47/188/49 48/187/49 51/186/53
f 49/178/53 46/177/49 50/189/53
f 50/189/54 46/177/50 49/178/54
f 47/181/51 49/180/55 51/190/55
f 51/190/56 49/180/56 47/181/52
f 50/184/56 48/183/52 52/191/56
f 52/191/55 48/183/51 50/184/55
f 48/187/50 51/186/54 52/192/54
f 52/192/53 51/186/53 48/187/49
f 50/193/53 53/194/57 49/195/53
f 49/195/54 53/194/58 50/193/54
f 49/196/55 54/197/59 51/198/55
f 51/198/56 54/197/60 49/196/56
f 55/199/60 50/200/56 52/201/56
f 52/201/55 50/200/55 55/199/59
f 54/202/58 52/203/54 51/204/54
f 51/204/53 52/203/53 54/202/57
f 53/194/57 50/193/53 56/205/57
f 56/205/58 50/193/54 53/194/58
f 54/197/59 49/196/55 53/206/59
f 53/206/60 49/196/56 54/197/60
f 50/200/56 55/199/60 56/207/60
f 56/207/59 55/199/59 50/200/55
f 52/203/54 54/202/58 55/208/58
f 55/208/57 54/202/57 52/203/53
f 56/209/57 57/210/61 53/211/57
f 53/211/58 57/210/62 56/209/58
f 53/212/59 58/213/63 54/214/59
f 54/214/60 58/213/64 53/212/60
f 59/215/64 56/216/60 55/217/60
f 55/217/59 56/216/59 59/215/63
f 58/218/62 55/219/58 54/220/58
f 54/220/57 55/219/57 58/218/61
f 57/210/61 56/209/57 60/221/61
f 60/221/62 56/209/58 57/210/62
f 58/213/63 53/212/59 57/222/63
f 57/222/64 53/212/60 58/213/64
f 56/216/60 59/215/64 60/223/64
f 60/223/63 59/215/63 56/216/59
f 55/219/58 58/218/62 59/224/62
f 59/224/61 58/218/61 55/219/57
f 59/225/65 57/226/65 60/227/65
f 60/227/66 57/226/66 59/225/66
f 57/226/65 59/225/65 58/228/65
f 58/228/66 59/225/66 57/226/66
