# SSTK version 0.8.0
# 12
mtllib original-12.mtl
o Group10/mesh10/mesh10-geometry#mesh10-geometry
v -0.396756 0.172646 -0.499319
v -0.449568 0.047682 0.092446
v -0.392966 0.156037 -0.495257
v -0.453982 0.063096 0.094863
v -0.386684 0.157693 -0.494347
v -0.447700 0.064753 0.095773
v -0.443286 0.049338 0.093356
v -0.390474 0.174302 -0.498408
vt -0.315146 1.474409
vt 0 0
vt 0 1.458333
vt -0.315146 0
vt 0 0.046875
vt 11.666667 0
vt 11.666667 0.046875
vt -11.795269 0.046875
vt -0.315146 0.046875
vt -11.795269 0
vn 0.5659921726607575 -0.8187501159784182 -0.09644225252492784
vn 0.10151115385440668 0.8366835947641124 -0.5381970344546219
vn 0.05051800564045806 0.9812907713107031 0.18578577245460992
vn 0.47583330845155153 -0.4704500078085293 -0.7431416101396863
vn -0.05051800564045806 -0.9812907713107031 -0.18578577245460992
vn -0.10151115385440668 -0.8366835947641124 0.5381970344546219
vn -0.5659921726607575 0.8187501159784182 0.09644225252492784
vn -0.47583330845155153 0.4704500078085293 0.7431416101396863
vn -0.27222683959681665 0.9506194831158762 0.14904746265412752
vn 0.27222683959681665 -0.9506194831158762 -0.14904746265412752
vn 0.2591681723253888 -0.5445520248519936 -0.7976809830271191
vn -0.2591681723253888 0.5445520248519936 0.7976809830271191
vn -0.12581894404047683 0.7998264928409791 -0.5868962213800991
vn 0.12581894404047683 -0.7998264928409791 0.5868962213800991
usemtl material_0_0
f 1/1/1 2/2/2 3/3/3
f 2/2/2 1/1/1 4/4/4
f 3/3/5 2/2/6 1/1/7
f 4/4/8 1/1/7 2/2/6
f 2/5/2 5/6/9 3/7/3
f 3/7/5 5/6/10 2/5/6
f 1/8/1 6/2/11 4/5/4
f 4/5/8 6/2/12 1/8/7
f 6/4/11 2/5/2 4/9/4
f 4/9/8 2/5/6 6/4/12
f 5/6/9 2/5/2 7/2/13
f 7/2/14 2/5/6 5/6/10
f 6/2/11 1/8/1 8/10/10
f 8/10/9 1/8/7 6/2/12
f 2/5/2 6/4/11 7/2/13
f 7/2/14 6/4/12 2/5/6
