# SSTK version 0.8.0
# 17
mtllib original-17.mtl
o Group15/mesh13/mesh13-geometry#mesh13-geometry
v -0.558746 -0.668668 0.287024
v -0.558746 -0.662458 0.259363
v -0.558746 -0.668668 0.253153
v -0.558746 -0.662458 0.280814
v -0.558746 -0.626327 0.253153
v 0.575621 -0.668668 0.287024
v -0.558746 -0.626327 0.287024
v 0.575621 -0.662458 0.280814
v 0.575621 -0.626327 0.253153
v -0.558746 -0.632537 0.259363
v 0.575621 -0.668668 0.253153
v 0.575621 -0.626327 0.287024
v -0.558746 -0.632537 0.280814
v 0.575621 -0.632537 0.280814
v 0.575621 -0.662458 0.259363
v -0.558746 -0.632537 0.270088
v 0.575621 -0.632537 0.259363
v -0.558746 -0.632537 0.276298
v 0.575621 -0.632537 0.270088
v 0.575621 -0.632537 0.276298
vt -2.04531 0
vt -0.375 0.375
vt 0 0
vt -1.67031 0.375
vt 0 2.556804
vt -2.04531 -68.5
vt -2.04531 2.556804
vt 1.67031 0
vt 1.67031 -68.5
vt 0.375 0
vt 68.5 2.556804
vt -0.375 2.181804
vt 0 -68.5
vt -62.821808 27.826766
vt -65.378613 27.826766
vt -62.821808 96.326766
vt -1.67031 2.181804
vt -65.378613 96.326766
vt 68.5 0.375
vt 0 0.375
vt 68.5 2.181804
vt 0.375 -68.5
vt -67.423923 27.826766
vt -67.423923 96.326766
vt 68.5 0
vt -1.022655 2.181804
vt 0 2.181804
vt -68.5 2.181804
vt 1.67031 0.375
vt 2.04531 0
vt 2.04531 2.556804
vt 1.67031 2.181804
vt -68.5 0.375
vt 0.375 0.375
vt 0.375 2.181804
vt -1.397655 2.181804
vt -1.022655 0
vt -0.375 0
vt -1.022655 -68.5
vt -0.375 -68.5
vt -1.67031 -68.5
vt -1.67031 0
vt -1.397655 -68.5
vt 1.397655 2.181804
vt 1.022655 2.181804
vt -1.397655 0
vn -1 0 0
vn 0 -1 0
vn 0 1 0
vn 0 0 -1
vn 0 0 1
vn 1 0 0
usemtl material_0_0
f 1/1/1 2/2/1 3/3/1
f 2/2/1 1/1/1 4/4/1
f 5/5/1 3/3/1 2/2/1
f 1/1/2 3/3/2 6/6/2
f 7/7/1 4/4/1 1/1/1
f 4/8/3 8/9/3 2/10/3
f 5/5/4 9/11/4 3/3/4
f 10/12/1 5/5/1 2/2/1
f 11/13/2 6/6/2 3/3/2
f 6/14/5 12/15/5 1/16/5
f 13/17/1 4/4/1 7/7/1
f 7/18/5 1/16/5 12/15/5
f 8/19/4 4/20/4 14/21/4
f 15/22/3 2/10/3 8/9/3
f 9/23/3 5/24/3 12/15/3
f 11/25/4 3/3/4 9/11/4
f 16/26/1 5/5/1 10/12/1
f 10/27/5 2/20/5 17/28/5
f 11/3/6 8/29/6 6/30/6
f 12/31/6 6/30/6 8/29/6
f 13/27/4 14/21/4 4/20/4
f 5/5/1 13/17/1 7/7/1
f 7/18/3 12/15/3 5/24/3
f 14/32/6 12/31/6 8/29/6
f 15/33/5 17/28/5 2/20/5
f 8/29/6 11/3/6 15/34/6
f 12/31/6 17/35/6 9/5/6
f 9/5/6 15/34/6 11/3/6
f 18/36/1 5/5/1 16/26/1
f 16/37/2 10/38/2 19/39/2
f 17/40/2 19/39/2 10/38/2
f 14/41/2 13/42/2 20/43/2
f 13/17/1 5/5/1 18/36/1
f 20/44/6 12/31/6 14/32/6
f 17/35/6 15/34/6 9/5/6
f 17/35/6 12/31/6 19/45/6
f 16/37/2 19/39/2 18/46/2
f 18/46/2 20/43/2 13/42/2
f 19/45/6 12/31/6 20/44/6
f 20/43/2 18/46/2 19/39/2
usemtl material_1_0
f 3//6 2//6 1//6
f 4//6 1//6 2//6
f 2//6 3//6 5//6
f 6//3 3//3 1//3
f 1//6 4//6 7//6
f 2//2 8//2 4//2
f 3//5 9//5 5//5
f 2//6 5//6 10//6
f 3//3 6//3 11//3
f 1//4 12//4 6//4
f 7//6 4//6 13//6
f 12//4 1//4 7//4
f 14//5 4//5 8//5
f 8//2 2//2 15//2
f 12//2 5//2 9//2
f 9//5 3//5 11//5
f 10//6 5//6 16//6
f 17//4 2//4 10//4
f 6//1 8//1 11//1
f 8//1 6//1 12//1
f 4//5 14//5 13//5
f 7//6 13//6 5//6
f 5//2 12//2 7//2
f 8//1 12//1 14//1
f 2//4 17//4 15//4
f 15//1 11//1 8//1
f 9//1 17//1 12//1
f 11//1 15//1 9//1
f 16//6 5//6 18//6
f 19//3 10//3 16//3
f 10//3 19//3 17//3
f 20//3 13//3 14//3
f 18//6 5//6 13//6
f 14//1 12//1 20//1
f 9//1 15//1 17//1
f 19//1 12//1 17//1
f 18//3 19//3 16//3
f 13//3 20//3 18//3
f 20//1 12//1 19//1
f 19//3 18//3 20//3
