# SSTK version 0.8.0
# 28
mtllib original-28.mtl
o Component_8_1/Component_8/mesh38/mesh38-geometry#mesh38-geometry
v 0.585971 -0.558422 -0.238760
v 0.585971 -0.558281 -0.239831
v 0.585971 -0.558281 -0.237688
v -0.554403 -0.558281 -0.239831
v 0.585971 -0.557868 -0.236689
v -0.554403 -0.558422 -0.238760
v -0.554403 -0.557868 -0.240830
v -0.554403 -0.558281 -0.237688
v 0.585971 -0.557868 -0.240830
v -0.554403 -0.557868 -0.236689
v 0.585971 -0.557210 -0.235832
v -0.554403 -0.557210 -0.241687
v 0.585971 -0.557210 -0.241687
v -0.554403 -0.557210 -0.235832
v 0.585971 -0.556352 -0.235174
v -0.554403 -0.556352 -0.242345
v 0.585971 -0.556352 -0.242345
v -0.554403 -0.556352 -0.235174
v 0.585971 -0.555354 -0.234761
v -0.554403 -0.555354 -0.242758
v 0.585971 -0.555354 -0.242758
v -0.554403 -0.555354 -0.234761
v 0.585971 -0.554282 -0.234619
v -0.554403 -0.554282 -0.242900
v 0.585971 -0.554282 -0.242900
v -0.554403 -0.554282 -0.234619
v 0.585971 -0.553211 -0.242758
v -0.554403 -0.553211 -0.242758
v 0.585971 -0.553211 -0.234761
v -0.554403 -0.553211 -0.234761
v 0.585971 -0.552212 -0.235174
v -0.554403 -0.552212 -0.242345
v 0.585971 -0.552212 -0.242345
v -0.554403 -0.552212 -0.235174
v 0.585971 -0.551355 -0.235832
v -0.554403 -0.551355 -0.241687
v -0.554403 -0.551355 -0.235832
v 0.585971 -0.551355 -0.241687
v 0.585971 -0.550697 -0.236689
v -0.554403 -0.550697 -0.240830
v 0.585971 -0.550697 -0.240830
v -0.554403 -0.550697 -0.236689
v -0.554403 -0.550490 -0.237189
v 0.585971 -0.550283 -0.237688
v 0.585971 -0.550283 -0.239831
v -0.554403 -0.550283 -0.239831
v -0.554403 -0.550283 -0.237688
v -0.554403 -0.550142 -0.238760
v 0.585971 -0.550142 -0.238760
vt 3.784193 -0.956359
vt 3.783157 -0.956222
vt 3.785228 -0.956222
vt -1.801123 -3.875604
vt -1.801123 -3.876648
vt -2.902928 -3.875604
vt 3.786193 -0.955823
vt 1.801123 3.626989
vt 1.801123 3.628033
vt 2.902928 3.626989
vt -2.902928 -3.876648
vt -2.902928 -3.861112
vt -2.902928 -3.860068
vt -1.801123 -3.861112
vt 1.801123 3.131164
vt 1.801123 3.132208
vt 2.902928 3.131164
vt 3.782193 -0.955823
vt 2.902928 3.628033
vt -1.801123 -3.860068
vt 2.902928 3.132208
vt 3.787021 -0.955187
vt -2.902928 -3.582483
vt -2.902928 -3.581439
vt -1.801123 -3.582483
vt 1.801123 2.421921
vt 1.801123 2.422965
vt 2.902928 2.421921
vt 3.781364 -0.955187
vt -1.801123 -3.581439
vt 2.902928 2.422965
vt 3.787657 -0.954359
vt -2.902928 -3.05975
vt -2.902928 -3.058705
vt -1.801123 -3.05975
vt 1.801123 1.547592
vt 1.801123 1.548636
vt 2.902928 1.547592
vt 3.780729 -0.954359
vt -1.801123 -3.058705
vt 2.902928 1.548636
vt 3.788056 -0.953394
vt -2.902928 -2.328535
vt -2.902928 -2.32749
vt -1.801123 -2.328535
vt 1.801123 0.567761
vt 1.801123 0.568805
vt 2.902928 0.567761
vt 3.780329 -0.953394
vt -1.801123 -2.32749
vt 2.902928 0.568805
vt 3.788193 -0.952359
vt -2.902928 -1.438669
vt -2.902928 -1.437625
vt -1.801123 -1.438669
vt 1.801123 -0.450797
vt 1.801123 -0.449753
vt 2.902928 -0.450797
vt 3.780193 -0.952359
vt -1.801123 -1.437625
vt 2.902928 -0.449753
vt 3.780329 -0.951323
vt -2.902928 -0.450797
vt -2.902928 -0.449753
vt -1.801123 -0.450797
vt 1.801123 -1.438669
vt 1.801123 -1.437625
vt 2.902928 -1.438669
vt 3.788056 -0.951323
vt -1.801123 -0.449753
vt 2.902928 -1.437625
vt 3.787657 -0.950359
vt -2.902928 0.567761
vt -2.902928 0.568805
vt -1.801123 0.567761
vt 1.801123 -2.328535
vt 1.801123 -2.32749
vt 2.902928 -2.328535
vt 3.780729 -0.950359
vt -1.801123 0.568805
vt 2.902928 -2.32749
vt 3.787021 -0.94953
vt -2.902928 1.547592
vt -2.902928 1.548636
vt -1.801123 1.547592
vt 1.801123 -3.05975
vt 1.801123 -3.058705
vt 2.902928 -3.05975
vt 3.781364 -0.94953
vt -1.801123 1.548636
vt 2.902928 -3.058705
vt 3.786193 -0.948895
vt -1.801123 2.421921
vt -2.902928 2.421921
vt -1.801123 2.422965
vt 2.902928 -3.582483
vt 1.801123 -3.582483
vt 2.902928 -3.581439
vt 1.801123 -3.581439
vt 3.782193 -0.948895
vt -2.902928 2.422965
vt 2.902928 -3.861112
vt 1.801123 -3.861112
vt 2.902928 -3.86059
vt 3.785228 -0.948495
vt -1.801123 3.131164
vt -2.902928 3.131164
vt -1.801123 3.132208
vt 2.902928 -3.860068
vt 1.801123 -3.860068
vt 3.783157 -0.948495
vt -2.902928 3.132208
vt 2.902928 -3.876648
vt 1.801123 -3.876648
vt 2.902928 -3.875604
vt 3.784193 -0.948359
vt -1.801123 3.626989
vt -2.902928 3.626989
vt -1.801123 3.628033
vt 1.801123 -3.875604
vt -2.902928 3.628033
vn 1 0 0
vn 0 -0.9659258492011171 -0.25881895959357565
vn 0 -1 0
vn 0 -0.9659258492011171 0.2588189595935752
vn 0 -0.866025302838276 -0.500000174843842
vn 0 -0.8660253028382763 0.5000001748438416
vn 0 -0.7071067811865472 -0.7071067811865477
vn 0 -0.7071067811865477 0.7071067811865472
vn 0 -0.5000001748438416 -0.8660253028382763
vn 0 -0.500000174843842 0.866025302838276
vn 0 -0.2588189595935752 -0.9659258492011171
vn 0 -0.25881895959357565 0.9659258492011171
vn 0 0 -1
vn 0 0 1
vn 0 0.25881895959357565 -0.9659258492011171
vn 0 0.2588189595935752 0.9659258492011171
vn 0 0.500000174843842 -0.866025302838276
vn 0 0.5000001748438416 0.8660253028382763
vn 0 0.7071067811865477 -0.7071067811865472
vn 0 0.7071067811865472 0.7071067811865477
vn 0 0.8660253028382763 -0.5000001748438416
vn 0 0.866025302838276 0.500000174843842
vn 0 0.9238797538373537 0.3826828980362604
vn 0 0.9659258492011171 -0.2588189595935752
vn 0 0.9659258492011171 0.25881895959357565
vn 0 1 0
vn -1 0 0
vn 0 -0.9238797538373537 -0.3826828980362604
usemtl material_0_0
f 1/1/1 2/2/1 3/3/1
f 2/4/2 1/5/3 4/6/2
f 5/7/1 3/3/1 2/2/1
f 1/8/3 3/9/4 6/10/3
f 6/11/3 4/6/2 1/5/3
f 4/12/2 7/13/5 2/14/2
f 3/15/4 5/16/6 8/17/4
f 9/18/1 5/7/1 2/2/1
f 8/19/4 6/10/3 3/9/4
f 9/20/5 2/14/2 7/13/5
f 10/21/6 8/17/4 5/16/6
f 11/22/1 5/7/1 9/18/1
f 7/23/5 12/24/7 9/25/5
f 5/26/6 11/27/8 10/28/6
f 13/29/1 11/22/1 9/18/1
f 13/30/7 9/25/5 12/24/7
f 14/31/8 10/28/6 11/27/8
f 15/32/1 11/22/1 13/29/1
f 12/33/7 16/34/9 13/35/7
f 11/36/8 15/37/10 14/38/8
f 17/39/1 15/32/1 13/29/1
f 17/40/9 13/35/7 16/34/9
f 18/41/10 14/38/8 15/37/10
f 19/42/1 15/32/1 17/39/1
f 16/43/9 20/44/11 17/45/9
f 15/46/10 19/47/12 18/48/10
f 21/49/1 19/42/1 17/39/1
f 21/50/11 17/45/9 20/44/11
f 22/51/12 18/48/10 19/47/12
f 23/52/1 19/42/1 21/49/1
f 20/53/11 24/54/13 21/55/11
f 19/56/12 23/57/14 22/58/12
f 25/59/1 23/52/1 21/49/1
f 25/60/13 21/55/11 24/54/13
f 26/61/14 22/58/12 23/57/14
f 27/62/1 23/52/1 25/59/1
f 24/63/13 28/64/15 25/65/13
f 23/66/14 29/67/16 26/68/14
f 29/69/1 23/52/1 27/62/1
f 27/70/15 25/65/13 28/64/15
f 30/71/16 26/68/14 29/67/16
f 31/72/1 29/69/1 27/62/1
f 28/73/15 32/74/17 27/75/15
f 29/76/16 31/77/18 30/78/16
f 33/79/1 31/72/1 27/62/1
f 33/80/17 27/75/15 32/74/17
f 34/81/18 30/78/16 31/77/18
f 35/82/1 31/72/1 33/79/1
f 32/83/17 36/84/19 33/85/17
f 31/86/18 35/87/20 34/88/18
f 38/89/1 35/82/1 33/79/1
f 38/90/19 33/85/17 36/84/19
f 37/91/20 34/88/18 35/87/20
f 39/92/1 35/82/1 38/89/1
f 38/93/19 36/94/19 41/95/21
f 37/96/20 35/97/20 42/98/22
f 39/99/22 42/98/22 35/97/20
f 41/100/1 39/92/1 38/89/1
f 40/101/21 41/95/21 36/94/19
f 42/102/22 39/103/22 43/104/23
f 44/105/1 39/92/1 41/100/1
f 41/106/21 40/107/21 45/108/24
f 43/104/23 39/103/22 47/109/25
f 44/110/25 47/109/25 39/103/22
f 45/111/1 44/105/1 41/100/1
f 46/112/24 45/108/24 40/107/21
f 47/113/25 44/114/25 48/115/26
f 49/116/1 44/105/1 45/111/1
f 45/117/24 46/118/24 49/119/26
f 49/120/26 48/115/26 44/114/25
f 48/121/26 49/119/26 46/118/24
usemtl material_1_0
f 3//27 2//27 1//27
f 4//25 1//26 2//25
f 2//27 3//27 5//27
f 6//26 3//24 1//26
f 1//26 4//25 6//26
f 2//25 7//22 4//25
f 8//24 5//21 3//24
f 2//27 5//27 9//27
f 3//24 6//26 8//24
f 6//27 8//27 4//27
f 4//1 8//1 6//1
f 7//27 4//27 8//27
f 8//1 4//1 7//1
f 7//22 2//25 9//22
f 5//21 8//24 10//21
f 9//27 5//27 11//27
f 10//27 7//27 8//27
f 8//1 7//1 10//1
f 9//22 12//20 7//22
f 10//21 11//19 5//21
f 9//27 11//27 13//27
f 12//27 7//27 10//27
f 10//1 7//1 12//1
f 12//20 9//22 13//20
f 11//19 10//21 14//19
f 13//27 11//27 15//27
f 14//27 12//27 10//27
f 10//1 12//1 14//1
f 13//20 16//18 12//20
f 14//19 15//17 11//19
f 13//27 15//27 17//27
f 16//27 12//27 14//27
f 14//1 12//1 16//1
f 16//18 13//20 17//18
f 15//17 14//19 18//17
f 17//27 15//27 19//27
f 18//27 16//27 14//27
f 14//1 16//1 18//1
f 17//18 20//16 16//18
f 18//17 19//15 15//17
f 17//27 19//27 21//27
f 22//27 16//27 18//27
f 18//1 16//1 22//1
f 20//27 16//27 22//27
f 22//1 16//1 20//1
f 20//16 17//18 21//16
f 19//15 18//17 22//15
f 21//27 19//27 23//27
f 24//27 20//27 22//27
f 22//1 20//1 24//1
f 21//16 24//14 20//16
f 22//15 23//13 19//15
f 21//27 23//27 25//27
f 26//27 24//27 22//27
f 22//1 24//1 26//1
f 24//14 21//16 25//14
f 23//13 22//15 26//13
f 25//27 23//27 27//27
f 28//27 24//27 26//27
f 26//1 24//1 28//1
f 25//14 28//12 24//14
f 26//13 29//11 23//13
f 27//27 23//27 29//27
f 28//12 25//14 27//12
f 30//27 28//27 26//27
f 26//1 28//1 30//1
f 29//11 26//13 30//11
f 27//27 29//27 31//27
f 27//12 32//10 28//12
f 32//27 28//27 30//27
f 30//1 28//1 32//1
f 30//11 31//9 29//11
f 27//27 31//27 33//27
f 32//10 27//12 33//10
f 34//27 32//27 30//27
f 30//1 32//1 34//1
f 31//9 30//11 34//9
f 33//27 31//27 35//27
f 33//10 36//8 32//10
f 37//27 32//27 34//27
f 34//1 32//1 37//1
f 34//9 35//7 31//9
f 33//27 35//27 38//27
f 36//27 32//27 37//27
f 37//1 32//1 36//1
f 36//8 33//10 38//8
f 35//7 34//9 37//7
f 38//27 35//27 39//27
f 40//27 36//27 37//27
f 37//1 36//1 40//1
f 41//6 36//8 38//8
f 42//5 35//7 37//7
f 35//7 42//5 39//5
f 38//27 39//27 41//27
f 36//8 41//6 40//6
f 42//27 40//27 37//27
f 37//1 40//1 42//1
f 43//28 39//5 42//5
f 41//27 39//27 44//27
f 45//4 40//6 41//6
f 46//27 40//27 42//27
f 42//1 40//1 46//1
f 47//2 39//5 43//28
f 43//27 46//27 42//27
f 42//1 46//1 43//1
f 39//5 47//2 44//2
f 41//27 44//27 45//27
f 40//6 45//4 46//4
f 47//27 46//27 43//27
f 43//1 46//1 47//1
f 48//3 44//2 47//2
f 45//27 44//27 49//27
f 49//3 46//4 45//4
f 48//27 46//27 47//27
f 47//1 46//1 48//1
f 44//2 48//3 49//3
f 46//4 49//3 48//3
