# SSTK version 0.8.0
# 16
mtllib original-16.mtl
o Group14/mesh12/mesh12-geometry#mesh12-geometry
v -0.558746 -0.668668 -0.249110
v -0.558746 -0.662458 -0.276770
v -0.558746 -0.668668 -0.282980
v -0.558746 -0.662458 -0.255320
v -0.558746 -0.626327 -0.282980
v 0.575621 -0.668668 -0.282980
v -0.558746 -0.626327 -0.249110
v 0.575621 -0.662458 -0.255320
v 0.575621 -0.626327 -0.282980
v -0.558746 -0.632537 -0.276770
v 0.575621 -0.668668 -0.249110
v -0.558746 -0.632537 -0.255320
v 0.575621 -0.626327 -0.249110
v 0.575621 -0.632537 -0.255320
v 0.575621 -0.662458 -0.276770
v -0.558746 -0.632537 -0.266045
v 0.575621 -0.632537 -0.276770
v -0.558746 -0.632537 -0.259835
v 0.575621 -0.632537 -0.259835
v 0.575621 -0.632537 -0.266045
vt -62.821808 96.326766
vt -63.196808 97.997076
vt -62.821808 98.372076
vt -63.196808 96.701766
vt -65.378613 98.372076
vt -60.776498 96.326766
vt -60.776498 27.826766
vt -65.378613 96.326766
vt -33.074694 96.326766
vt -33.074694 27.826766
vt -34.370004 96.326766
vt -67.423923 96.326766
vt -67.423923 27.826766
vt -69.980728 96.326766
vt -65.003613 97.997076
vt -69.980728 27.826766
vt -62.821808 27.826766
vt -65.003613 96.701766
vt -65.378613 27.826766
vt -31.26789 27.826766
vt -34.370004 27.826766
vt -65.003613 97.349421
vt -65.003613 96.326766
vt -63.196808 96.326766
vt -65.003613 27.826766
vt -65.378613 25.781455
vt -63.196808 26.156455
vt -62.821808 25.781455
vt -63.196808 27.451766
vt -31.26789 96.326766
vt -65.003613 27.451766
vt -63.196808 27.826766
vt -65.003613 26.156455
vt -65.003613 96.974421
vt -65.651268 96.326766
vt -33.074694 25.326766
vt -33.074694 -43.173234
vt -33.347349 25.326766
vt -65.003613 27.17911
vt -65.003613 26.80411
vt -33.722349 -43.173234
vt -33.722349 25.326766
vt -33.347349 -43.173234
vt -65.651268 27.826766
vn -1 0 0
vn 0 -1 0
vn 0 1 0
vn 0 0 -1
vn 0 0 1
vn 1 0 0
usemtl material_0_0
f 1/1/1 2/2/1 3/3/1
f 2/2/1 1/1/1 4/4/1
f 5/5/1 3/3/1 2/2/1
f 3/6/2 6/7/2 1/1/2
f 7/8/1 4/4/1 1/1/1
f 4/9/3 8/10/3 2/11/3
f 5/12/4 9/13/4 3/14/4
f 10/15/1 5/5/1 2/2/1
f 6/16/4 3/14/4 9/13/4
f 11/17/2 1/1/2 6/7/2
f 12/18/1 4/4/1 7/8/1
f 7/8/5 1/1/5 13/19/5
f 8/10/4 4/9/4 14/20/4
f 15/21/3 2/11/3 8/10/3
f 9/13/3 5/12/3 13/19/3
f 16/22/1 5/5/1 10/15/1
f 10/23/5 2/24/5 17/25/5
f 9/26/6 15/27/6 6/28/6
f 11/17/5 13/19/5 1/1/5
f 6/28/6 8/29/6 11/17/6
f 12/30/4 14/20/4 4/9/4
f 5/5/1 12/18/1 7/8/1
f 7/8/3 13/19/3 5/12/3
f 14/31/6 13/19/6 8/29/6
f 15/32/5 17/25/5 2/24/5
f 8/29/6 6/28/6 15/27/6
f 13/19/6 17/33/6 9/26/6
f 18/34/1 5/5/1 16/22/1
f 10/23/2 17/25/2 16/35/2
f 17/33/6 15/27/6 9/26/6
f 13/19/6 11/17/6 8/29/6
f 14/36/2 12/37/2 19/38/2
f 12/18/1 5/5/1 18/34/1
f 19/39/6 13/19/6 14/31/6
f 17/33/6 13/19/6 20/40/6
f 16/41/2 20/42/2 18/43/2
f 20/44/2 16/35/2 17/25/2
f 18/43/2 19/38/2 12/37/2
f 20/40/6 13/19/6 19/39/6
f 19/38/2 18/43/2 20/42/2
usemtl material_1_0
f 3//6 2//6 1//6
f 4//6 1//6 2//6
f 2//6 3//6 5//6
f 1//3 6//3 3//3
f 1//6 4//6 7//6
f 2//2 8//2 4//2
f 3//5 9//5 5//5
f 2//6 5//6 10//6
f 9//5 3//5 6//5
f 6//3 1//3 11//3
f 7//6 4//6 12//6
f 13//4 1//4 7//4
f 14//5 4//5 8//5
f 8//2 2//2 15//2
f 13//2 5//2 9//2
f 10//6 5//6 16//6
f 17//4 2//4 10//4
f 6//1 15//1 9//1
f 1//4 13//4 11//4
f 11//1 8//1 6//1
f 4//5 14//5 12//5
f 7//6 12//6 5//6
f 5//2 13//2 7//2
f 8//1 13//1 14//1
f 2//4 17//4 15//4
f 15//1 6//1 8//1
f 9//1 17//1 13//1
f 16//6 5//6 18//6
f 16//3 17//3 10//3
f 9//1 15//1 17//1
f 8//1 11//1 13//1
f 19//3 12//3 14//3
f 18//6 5//6 12//6
f 14//1 13//1 19//1
f 20//1 13//1 17//1
f 18//3 20//3 16//3
f 17//3 16//3 20//3
f 12//3 19//3 18//3
f 19//1 13//1 20//1
f 20//3 18//3 19//3
