# SSTK version 0.8.0
# 3
mtllib original-3.mtl
o Group4/mesh3/mesh3-geometry#mesh3-geometry
v -0.579446 -0.701788 -0.333932
v -0.596006 -0.701788 -0.313232
v -0.612566 -0.701788 -0.333932
v -0.579446 -0.701788 -0.313232
v -0.612566 -0.701788 0.287071
v -0.612566 0.747220 -0.333932
v -0.579446 0.747220 -0.313232
v -0.596006 -0.701788 -0.307022
v -0.579446 0.747220 -0.333932
v -0.596006 0.747220 -0.313232
v -0.612566 0.747220 0.287071
v -0.579446 -0.701788 0.287071
v -0.596006 0.747220 -0.307022
v -0.579446 0.747220 0.287071
v -0.579446 -0.701788 -0.307022
v -0.579446 0.747220 -0.307022
vt 25.141663 -0.016912
vt 25.196036 -0.016912
vt 26.772851 -0.016912
vt 25.141663 -0.802071
vt 25.196036 -0.802071
vt 25.212348 -0.016912
vt 26.772851 -0.802071
vt 25.212348 -0.802071
vn 0 -1 0
vn 0 0 -1
vn 0 0 1
vn 1 0 0
vn -1 0 0
vn 0 1 0
usemtl material_0_0
f 1/1/1 2/2/1 3/1/1
f 4/2/1 2/2/1 1/1/1
f 5/3/1 3/1/1 2/2/1
f 3/1/2 6/4/2 1/1/2
f 4/2/3 7/5/3 2/2/3
f 4/2/4 1/1/4 7/5/4
f 3/1/5 5/3/5 6/4/5
f 8/6/1 5/3/1 2/2/1
f 9/4/2 1/1/2 6/4/2
f 10/5/3 2/2/3 7/5/3
f 9/4/4 7/5/4 1/1/4
f 11/7/5 6/4/5 5/3/5
f 5/3/1 8/6/1 12/3/1
f 8/6/4 2/2/4 13/8/4
f 9/4/6 6/4/6 7/5/6
f 10/5/4 13/8/4 2/2/4
f 10/5/6 7/5/6 6/4/6
f 11/7/6 10/5/6 6/4/6
f 11/7/3 5/3/3 14/7/3
f 15/6/1 12/3/1 8/6/1
f 12/3/3 14/7/3 5/3/3
f 8/6/2 13/8/2 15/6/2
f 13/8/6 10/5/6 11/7/6
f 14/7/6 13/8/6 11/7/6
f 12/3/4 15/6/4 14/7/4
f 16/8/2 15/6/2 13/8/2
f 16/8/6 13/8/6 14/7/6
f 16/8/4 14/7/4 15/6/4
usemtl material_1_0
f 3//6 2//6 1//6
f 1//6 2//6 4//6
f 2//6 3//6 5//6
f 1//3 6//3 3//3
f 2//2 7//2 4//2
f 7//5 1//5 4//5
f 6//4 5//4 3//4
f 2//6 5//6 8//6
f 6//3 1//3 9//3
f 7//2 2//2 10//2
f 1//5 7//5 9//5
f 5//4 6//4 11//4
f 12//6 8//6 5//6
f 13//5 2//5 8//5
f 7//1 6//1 9//1
f 2//5 13//5 10//5
f 6//1 7//1 10//1
f 6//1 10//1 11//1
f 14//2 5//2 11//2
f 8//6 12//6 15//6
f 5//2 14//2 12//2
f 15//3 13//3 8//3
f 11//1 10//1 13//1
f 11//1 13//1 14//1
f 14//5 15//5 12//5
f 13//3 15//3 16//3
f 14//1 13//1 16//1
f 15//5 14//5 16//5
