# SSTK version 0.8.0
# 2
mtllib original-2.mtl
o Group3/mesh2/mesh2-geometry#mesh2-geometry
v 0.629441 -0.701788 -0.333932
v 0.612881 -0.701788 -0.313232
v 0.596321 -0.701788 -0.333932
v 0.629441 -0.701788 0.287071
v 0.596321 -0.701788 -0.313232
v 0.629441 0.747220 -0.333932
v 0.612881 -0.701788 -0.307022
v 0.596321 0.747220 -0.313232
v 0.596321 0.747220 -0.333932
v 0.629441 0.747220 0.287071
v 0.596321 -0.701788 -0.307022
v 0.612881 0.747220 -0.307022
v 0.612881 0.747220 -0.313232
v 0.596321 0.747220 0.287071
v 0.596321 -0.701788 0.287071
v 0.596321 0.747220 -0.307022
vt 25.141663 -0.016912
vt 25.196036 -0.016912
vt 26.772851 -0.016912
vt 25.141663 -0.802071
vt 25.212348 -0.016912
vt 25.196036 -0.802071
vt 26.772851 -0.802071
vt 25.212348 -0.802071
vn 0 -1 0
vn 0 0 -1
vn 1 0 0
vn -1 0 0
vn 0 0 1
vn 0 1 0
usemtl material_0_0
f 1/1/1 2/2/1 3/1/1
f 2/2/1 1/1/1 4/3/1
f 5/2/1 3/1/1 2/2/1
f 3/1/2 6/4/2 1/1/2
f 6/4/3 4/3/3 1/1/3
f 2/2/1 4/3/1 7/5/1
f 8/6/4 3/1/4 5/2/4
f 2/2/5 8/6/5 5/2/5
f 6/4/2 3/1/2 9/4/2
f 4/3/3 6/4/3 10/7/3
f 7/5/1 4/3/1 11/5/1
f 12/8/4 2/2/4 7/5/4
f 3/1/4 8/6/4 9/4/4
f 8/6/5 2/2/5 13/6/5
f 8/6/6 6/4/6 9/4/6
f 13/6/6 10/7/6 6/4/6
f 14/7/5 4/3/5 10/7/5
f 11/5/1 4/3/1 15/3/1
f 11/5/2 12/8/2 7/5/2
f 2/2/4 12/8/4 13/6/4
f 6/4/6 8/6/6 13/6/6
f 10/7/6 13/6/6 12/8/6
f 4/3/5 14/7/5 15/3/5
f 10/7/6 16/8/6 14/7/6
f 14/7/4 11/5/4 15/3/4
f 12/8/2 11/5/2 16/8/2
f 10/7/6 12/8/6 16/8/6
f 11/5/4 14/7/4 16/8/4
usemtl material_1_0
f 3//6 2//6 1//6
f 4//6 1//6 2//6
f 2//6 3//6 5//6
f 1//5 6//5 3//5
f 1//4 4//4 6//4
f 7//6 4//6 2//6
f 5//3 3//3 8//3
f 5//2 8//2 2//2
f 9//5 3//5 6//5
f 10//4 6//4 4//4
f 11//6 4//6 7//6
f 7//3 2//3 12//3
f 9//3 8//3 3//3
f 13//2 2//2 8//2
f 9//1 6//1 8//1
f 6//1 10//1 13//1
f 10//2 4//2 14//2
f 15//6 4//6 11//6
f 7//5 12//5 11//5
f 13//3 12//3 2//3
f 13//1 8//1 6//1
f 12//1 13//1 10//1
f 15//2 14//2 4//2
f 14//1 16//1 10//1
f 15//3 11//3 14//3
f 16//5 11//5 12//5
f 16//1 12//1 10//1
f 16//3 14//3 11//3
