# SSTK version 0.8.0
# 38
mtllib original-38.mtl
o BPc4_2/BPc4/mesh11/mesh11-geometry#mesh11-geometry
v 0.052645 -0.048291 0.251698
v 0.048075 -0.252073 0.248377
v 0.052645 -0.252073 0.251698
v 0.048075 -0.048291 0.248377
v 0.057216 -0.048291 0.248377
v 0.049821 -0.048291 0.243005
v 0.057216 -0.252073 0.248377
v 0.049821 -0.252073 0.243005
v 0.055470 -0.252073 0.243005
v 0.055470 -0.048291 0.243005
vn 0 0 1
vn -0.9510565608316643 0 0.3090168573056277
vn 0.9510565608316643 0 0.3090168573056277
vn -0.5877850844899974 0 -0.8090171162905556
vn 0.5877850844899974 0 -0.8090171162905556
vn 0 0 -1
vn 0.9510565608316643 0 -0.3090168573056277
vn -0.9510565608316643 0 -0.3090168573056277
vn 0.5877850844899974 0 0.8090171162905556
vn -0.5877850844899974 0 0.8090171162905556
usemtl material_0_0
f 1//1 2//2 3//1
f 2//2 1//1 4//2
f 3//1 5//3 1//1
f 6//4 2//2 4//2
f 5//3 3//1 7//3
f 2//2 6//4 8//4
f 9//5 5//3 7//3
f 10//5 8//4 6//4
f 5//3 9//5 10//5
f 8//4 10//5 9//5
usemtl material_1_0
f 3//6 2//7 1//6
f 4//7 1//6 2//7
f 1//6 5//8 3//6
f 4//7 2//7 6//9
f 7//8 3//6 5//8
f 8//9 6//9 2//7
f 7//8 5//8 9//10
f 6//9 8//9 10//10
f 10//10 9//10 5//8
f 9//10 10//10 8//9
