# SSTK version 0.8.0
# 30
mtllib original-30.mtl
o BPc4r_1_1/BPc4r_1/mesh15/mesh15-geometry#mesh15-geometry
v -0.026643 0.069440 0.251698
v -0.022073 0.069440 0.248377
v -0.026643 0.273221 0.251698
v -0.022073 0.273221 0.248377
v -0.031213 0.273221 0.248377
v -0.023818 0.273221 0.243005
v -0.031213 0.069440 0.248377
v -0.023818 0.069440 0.243005
v -0.029467 0.069440 0.243005
v -0.029467 0.273221 0.243005
vn 0 0 1
vn 0.9510565608316643 0 0.3090168573056277
vn -0.9510565608316643 0 0.3090168573056277
vn 0.5877850844899974 0 -0.8090171162905556
vn -0.5877850844899974 0 -0.8090171162905556
vn 0 0 -1
vn -0.9510565608316643 0 -0.3090168573056277
vn 0.9510565608316643 0 -0.3090168573056277
vn -0.5877850844899974 0 0.8090171162905556
vn 0.5877850844899974 0 0.8090171162905556
usemtl material_0_0
f 1//1 2//2 3//1
f 4//2 3//1 2//2
f 3//1 5//3 1//1
f 4//2 2//2 6//4
f 7//3 1//1 5//3
f 8//4 6//4 2//2
f 7//3 5//3 9//5
f 6//4 8//4 10//5
f 10//5 9//5 5//3
f 9//5 10//5 8//4
usemtl material_1_0
f 3//6 2//7 1//6
f 2//7 3//6 4//7
f 1//6 5//8 3//6
f 6//9 2//7 4//7
f 5//8 1//6 7//8
f 2//7 6//9 8//9
f 9//10 5//8 7//8
f 10//10 8//9 6//9
f 5//8 9//10 10//10
f 8//9 10//10 9//10
