# SSTK version 0.8.0
# 6
mtllib original-6.mtl
o Draw_Sides2/Draw_Sides12/mesh11/mesh11-geometry#mesh11-geometry
v 0.263460 0.005956 0.481988
v 0.280554 0.005956 0.481987
v 0.263460 0.014503 0.481988
v 0.280552 0.005956 -0.167586
v 0.280554 0.104246 0.481987
v 0.263461 0.005955 -0.167585
v 0.254913 0.014503 0.481988
v 0.263461 0.014502 -0.167585
v 0.280552 0.104246 -0.167586
v 0.254914 0.014502 -0.167585
v 0.254913 0.104246 0.481987
v 0.254911 0.104246 -0.167586
vt 0.028169 0
vt 0 0
vt 0.028169 0.020141
vt -0.028169 0
vt 0 1.530704
vt 0 0.231617
vt 0 0.020141
vt 1.070422 -0.000001
vt -0.028166 1.530704
vt -1.070423 0
vt 0.042254 0.020141
vt 1.070422 0.02014
vt -0.028165 0
vt -0.028165 0.020141
vt 0 0.000002
vt -1.070423 0.231618
vt -0.042254 0
vt -0.04225 1.530704
vt 0.042254 0.231617
vt 0 0.231619
vt 0.042254 0
vt 0 0.231618
vt 0 0.020142
vt -0.04225 0.020141
vt 0.042254 1.530704
vt 1.070423 0.231618
vt -0.042253 0.231619
vt 0.938111 -0.211439
vt 0.262541 -0.211439
vt 0.938111 -0.06526
vt 0.262541 -0.06526
vt 0.031827 0.279842
vt 0.031827 0.477291
vt 1.031246 0.279841
vt 1.031246 0.477291
vn 0.0000029999989999842497 0.000001000001499780955 1
vn -0.0000029999989999842497 -0.000001000001499780955 -1
vn 0.000017999999997234753 -1 0
vn -0.000017999999997234753 1 0
vn -1 0 0
vn 1 0 0
vn -1 -0.00000200000000000025 0.0000029999999999827494
vn 0 -1 0.0000010000014997684556
vn 0 1 -0.0000010000014997684556
vn -0.00000199999999998675 1 0
vn 0.00000199999999998675 -1 0
vn 1 0.00001299999999908625 -9.999999999017469e-7
vn 1 0.00000200000000000025 -0.0000029999999999827494
vn -1 -0.00001299999999908625 9.999999999017469e-7
usemtl material_0_0
f 1/1/1 2/2/1 3/3/1
f 3/3/2 2/2/2 1/1/2
f 2/2/3 1/4/3 4/5/3
f 4/5/4 1/4/4 2/2/4
f 5/6/1 3/3/1 2/2/1
f 2/2/2 3/3/2 5/6/2
f 1/2/5 3/7/5 6/8/5
f 6/8/6 3/7/6 1/2/6
f 6/9/3 4/5/3 1/4/3
f 1/4/4 4/5/4 6/9/4
f 5/6/7 4/10/7 2/2/7
f 7/11/1 3/3/1 5/6/1
f 5/6/2 3/3/2 7/11/2
f 8/12/5 6/8/5 3/7/5
f 3/7/6 6/8/6 8/12/6
f 6/13/2 8/14/2 4/15/2
f 4/15/1 8/14/1 6/13/1
f 4/10/7 5/6/7 9/16/7
f 7/17/8 10/18/8 3/4/8
f 3/4/9 10/18/9 7/17/9
f 11/19/1 7/11/1 5/6/1
f 5/6/2 7/11/2 11/19/2
f 8/9/8 3/4/8 10/18/8
f 10/18/9 3/4/9 8/9/9
f 9/20/2 4/15/2 8/14/2
f 8/14/1 4/15/1 9/20/1
f 5/2/10 9/5/10 11/21/10
f 11/21/11 9/5/11 5/2/11
f 10/12/12 11/22/12 7/23/12
f 10/24/2 9/20/2 8/14/2
f 8/14/1 9/20/1 10/24/1
f 12/25/10 11/21/10 9/5/10
f 9/5/11 11/21/11 12/25/11
f 11/22/12 10/12/12 12/26/12
f 12/27/2 9/20/2 10/24/2
f 10/24/1 9/20/1 12/27/1
usemtl material_1_0
f 2/28/13 4/29/13 5/30/13
f 9/31/13 5/30/13 4/29/13
usemtl material_2_0
f 7/32/14 11/33/14 10/34/14
f 12/35/14 10/34/14 11/33/14
