# SSTK version 0.8.0
# 22
mtllib original-22.mtl
o Legs3/Legs/mesh21/mesh21-geometry#mesh21-geometry
v -0.409652 -0.865702 -0.372659
v -0.407381 -0.867973 -0.375077
v -0.375394 -0.865703 -0.372660
v -0.407382 -0.867973 -0.404645
v -0.377812 -0.867974 -0.375078
v -0.349793 -0.047462 -0.347091
v -0.409655 -0.865700 -0.406918
v -0.377813 -0.867974 -0.404647
v -0.375396 -0.865703 -0.406918
v -0.409622 -0.047460 -0.347089
v -0.409616 0.123481 -0.347089
v -0.349795 -0.047462 -0.406920
v -0.349787 0.123478 -0.347091
v -0.409618 0.123481 -0.406918
v -0.349789 0.123478 -0.406920
vt -0.000004 0.019218
vt -0.003371 0.016814
vt -0.050805 0.019216
vt -0.047221 -0.001163
vt -0.050806 0.001164
vt -0.003373 -0.001163
vt -0.047219 0.016813
vt -0.050803 0.00242
vt -0.088765 0.59549
vt -0.000002 0.002421
vt -0.000003 0.001165
vt -0.00337 0.001648
vt -0.047218 0.001647
vt -0.003371 0.023069
vt 0.050806 0.019217
vt 0.047221 0.016813
vt 0.000005 0.019217
vt -0.047219 0.023068
vt 0.050806 0.002421
vt 0.000005 0.002421
vt 0.088724 0.595492
vt -0.000044 0.595492
vt 0 0.001164
vt 0.050803 0.001161
vt 0.00337 -0.001165
vt -0.050806 0.001646
vt -0.088724 0.718267
vt -0.000003 0.001647
vt 0.047217 -0.001166
vt 0.003373 0.016813
vt 0.000003 0.595492
vt -0.088724 0.594428
vt -0.088765 0.594427
vt -0.088774 0.718266
vt -0.000044 0.594428
vt 0.050803 0.001645
vt 0 0.001647
vt 0.088765 0.594427
vt -0.000003 0.718267
vt 0.088724 0.594428
vt 0.000003 0.594428
vt 0.088724 0.718267
vt -0.000053 0.718267
vt 0.000053 0.718267
vt 0 0.000002
vt 0.000003 0.043345
vt 0.088721 0
vt 0.000003 0.718267
vt 0.088724 0.043344
vt 0.088774 0.718266
vn 3.25183911586566e-7 -0.7288468018498409 0.6846768138568395
vn -3.25183911586566e-7 0.7288468018498409 -0.6846768138568395
vn -0.7071284876101122 -0.7070850734969457 0.000029121376025251848
vn 0.7071284876101122 0.7070850734969457 -0.000029121376025251848
vn 0.000038967303636607666 -0.031235002151203263 0.9995120675220303
vn -0.000038967303636607666 0.031235002151203263 -0.9995120675220303
vn -0.000036999999975679256 -1 0
vn 0.000036999999975679256 1 0
vn 0.6846502960157405 -0.7288717112315737 -0.0000270539528932439
vn -0.6846502960157405 0.7288717112315737 0.0000270539528932439
vn 0.9995109106758502 -0.03127199769842796 -0.000039998530634403265
vn -0.9995109106758502 0.03127199769842796 0.000039998530634403265
vn -0.000053828438333808636 -0.7071112802034187 -0.7071022800921952
vn 0.000053828438333808636 0.7071112802034187 0.7071022800921952
vn -0.9999999983395002 0.000035999999946272234 0.000044999999932512775
vn 0.9999999983395002 -0.000035999999946272234 -0.000044999999932512775
vn 0.00003999999997240225 0 1
vn -0.00003999999997240225 0 -1
vn -0.00003400000098346126 -9.99967499300471e-7 -1
vn 0.00003400000098346126 9.99967499300471e-7 1
vn 0.9999999985155001 -0.000036999999950783244 -0.000039999999946483764
vn -0.9999999985155001 0.000036999999950783244 0.000039999999946483764
usemtl material_0_0
f 1/1/1 2/2/1 3/3/1
f 3/3/2 2/2/2 1/1/2
f 2/4/3 1/5/3 4/6/3
f 4/6/4 1/5/4 2/4/4
f 5/7/1 3/3/1 2/2/1
f 2/2/2 3/3/2 5/7/2
f 3/8/5 6/9/5 1/10/5
f 1/10/6 6/9/6 3/8/6
f 7/11/3 4/6/3 1/5/3
f 1/5/4 4/6/4 7/11/4
f 4/12/7 8/13/7 2/14/7
f 2/14/8 8/13/8 4/12/8
f 3/15/9 5/16/9 9/17/9
f 9/17/10 5/16/10 3/15/10
f 5/18/7 2/14/7 8/13/7
f 8/13/8 2/14/8 5/18/8
f 3/19/11 9/20/11 6/21/11
f 6/21/12 9/20/12 3/19/12
f 10/22/5 1/10/5 6/9/5
f 6/9/6 1/10/6 10/22/6
f 7/23/13 9/24/13 4/25/13
f 4/25/14 9/24/14 7/23/14
f 1/26/15 11/27/15 7/28/15
f 7/28/16 11/27/16 1/26/16
f 8/29/13 4/25/13 9/24/13
f 9/24/14 4/25/14 8/29/14
f 8/30/9 9/17/9 5/16/9
f 5/16/10 9/17/10 8/30/10
f 12/31/11 6/21/11 9/20/11
f 9/20/12 6/21/12 12/31/12
f 10/32/15 11/27/15 1/26/15
f 6/33/17 13/34/17 10/35/17
f 10/35/18 13/34/18 6/33/18
f 9/36/19 7/37/19 12/38/19
f 12/38/20 7/37/20 9/36/20
f 1/26/16 11/27/16 10/32/16
f 14/39/15 7/28/15 11/27/15
f 11/27/16 7/28/16 14/39/16
f 6/40/21 12/41/21 13/42/21
f 13/42/22 12/41/22 6/40/22
f 11/43/17 10/35/17 13/34/17
f 13/34/18 10/35/18 11/43/18
f 14/44/19 12/38/19 7/37/19
f 7/37/20 12/38/20 14/44/20
f 14/45/8 11/46/8 15/47/8
f 15/47/7 11/46/7 14/45/7
f 15/48/21 13/42/21 12/41/21
f 12/41/22 13/42/22 15/48/22
f 13/49/8 15/47/8 11/46/8
f 11/46/7 15/47/7 13/49/7
f 15/50/19 12/38/19 14/44/19
f 14/44/20 12/38/20 15/50/20
