# SSTK version 0.8.0
# 2
mtllib original-2.mtl
o Draw_Sides1/Draw_Sides/mesh1/mesh1-geometry#mesh1-geometry
v -0.227992 0.014503 0.481987
v -0.245086 0.005956 0.481987
v -0.227992 0.005956 0.481987
v -0.245086 0.104246 0.481987
v -0.245086 0.005956 -0.167586
v -0.227994 0.005955 -0.167585
v -0.219445 0.014503 0.481987
v -0.227994 0.014503 -0.167585
v -0.219447 0.014503 -0.167586
v -0.219445 0.104246 0.481987
v -0.245086 0.104246 -0.167586
v -0.219445 0.104246 -0.167586
vt 0.028169 0.020141
vt 0 0
vt 0.028169 0
vt 0 0.231617
vt 0 1.530704
vt -0.028169 0
vt 1.070422 -0.000001
vt 0 0.020141
vt 0.042254 0.020141
vt -1.070423 0
vt -0.028166 1.530704
vt 1.070422 0.02014
vt -0.04225 1.530704
vt -0.042254 0
vt 0.042254 0.231617
vt -1.070423 0.231618
vt 0 0.000002
vt -0.028165 0.020141
vt -0.028165 0
vt 0 0.020142
vt 0 0.231618
vt 0.042254 0
vt 0 0.231619
vt -0.04225 0.020141
vt 1.070423 0.231618
vt 0.042254 1.530704
vt -0.042253 0.231619
vt 0.938111 -0.06526
vt 0.262541 -0.211439
vt 0.938111 -0.211439
vt 0.262541 -0.06526
vt 1.031246 0.279841
vt 0.031827 0.477291
vt 0.031827 0.279842
vt 1.031246 0.477291
vn 0 9.999999997774554e-7 1
vn 0 -9.999999997774554e-7 -1
vn -0.0000169999999975435 -1 0
vn 0.0000169999999975435 1 0
vn 1 9.999999999950006e-7 -0.0000029999999999849995
vn -1 -9.999999999950006e-7 0.0000029999999999849995
vn 1 -9.999999999995e-7 0
vn 9.999999999989998e-7 -1 9.999999997769552e-7
vn -9.999999999989998e-7 1 -9.999999997769552e-7
vn -1 0.000011999999999112001 0.0000019999999998520025
vn 9.999999999995e-7 1 0
vn -9.999999999995e-7 -1 0
vn -1 9.999999999995e-7 0
vn 1 -0.000011999999999112001 -0.0000019999999998520025
usemtl material_0_0
f 1/1/1 2/2/1 3/3/1
f 2/2/1 1/1/1 4/4/1
f 3/3/2 2/2/2 1/1/2
f 4/4/2 1/1/2 2/2/2
f 5/5/3 3/6/3 2/2/3
f 2/2/4 3/6/4 5/5/4
f 6/7/5 1/8/5 3/2/5
f 3/2/6 1/8/6 6/7/6
f 4/4/1 1/1/1 7/9/1
f 7/9/2 1/1/2 4/4/2
f 2/2/7 5/10/7 4/4/7
f 3/6/3 5/5/3 6/11/3
f 6/11/4 5/5/4 3/6/4
f 1/8/5 6/7/5 8/12/5
f 8/12/6 6/7/6 1/8/6
f 1/6/8 9/13/8 7/14/8
f 7/14/9 9/13/9 1/6/9
f 4/4/1 7/9/1 10/15/1
f 10/15/2 7/9/2 4/4/2
f 11/16/7 4/4/7 5/10/7
f 5/17/2 8/18/2 6/19/2
f 6/19/1 8/18/1 5/17/1
f 9/13/8 1/6/8 8/11/8
f 8/11/9 1/6/9 9/13/9
f 7/20/10 10/21/10 9/12/10
f 10/22/11 11/5/11 4/2/11
f 4/2/12 11/5/12 10/22/12
f 8/18/2 5/17/2 11/23/2
f 11/23/1 5/17/1 8/18/1
f 8/18/2 11/23/2 9/24/2
f 9/24/1 11/23/1 8/18/1
f 12/25/10 9/12/10 10/21/10
f 11/5/11 10/22/11 12/26/11
f 12/26/12 10/22/12 11/5/12
f 9/24/2 11/23/2 12/27/2
f 12/27/1 11/23/1 9/24/1
usemtl material_1_0
f 4/28/13 5/29/13 2/30/13
f 5/29/13 4/28/13 11/31/13
usemtl material_2_0
f 9/32/14 10/33/14 7/34/14
f 10/33/14 9/32/14 12/35/14
