# SSTK version 0.8.0
# 20
mtllib original-20.mtl
o Legs1/Legs/mesh21/mesh21-geometry#mesh21-geometry
v 0.445119 -0.865702 0.276782
v 0.442848 -0.867973 0.279200
v 0.410861 -0.865703 0.276783
v 0.442849 -0.867973 0.308768
v 0.413279 -0.867974 0.279201
v 0.385261 -0.047462 0.251214
v 0.445121 -0.865701 0.311041
v 0.413280 -0.867974 0.308769
v 0.410862 -0.865703 0.311041
v 0.445090 -0.047460 0.251212
v 0.445084 0.123480 0.251212
v 0.385263 -0.047462 0.311043
v 0.385255 0.123478 0.251214
v 0.445086 0.123480 0.311041
v 0.385257 0.123478 0.311043
vt -0.000004 0.019218
vt -0.003371 0.016814
vt -0.050805 0.019216
vt -0.047221 -0.001163
vt -0.050806 0.001164
vt -0.003373 -0.001163
vt -0.047219 0.016813
vt -0.050803 0.00242
vt -0.088765 0.59549
vt -0.000002 0.002421
vt -0.000003 0.001165
vt -0.00337 0.001648
vt -0.047218 0.001647
vt -0.003371 0.023069
vt 0.050806 0.019217
vt 0.047221 0.016813
vt 0.000005 0.019217
vt -0.047219 0.023068
vt 0.050806 0.002421
vt 0.000005 0.002421
vt 0.088724 0.595492
vt -0.000044 0.595492
vt 0 0.001164
vt 0.050803 0.001161
vt 0.00337 -0.001165
vt -0.050806 0.001646
vt -0.088724 0.718267
vt -0.000003 0.001647
vt 0.047217 -0.001166
vt 0.003373 0.016813
vt 0.000003 0.595492
vt -0.088724 0.594428
vt -0.088765 0.594427
vt -0.088774 0.718266
vt -0.000044 0.594428
vt 0.050803 0.001645
vt 0 0.001647
vt 0.088765 0.594427
vt -0.000003 0.718267
vt 0.088724 0.594428
vt 0.000003 0.594428
vt 0.088724 0.718267
vt -0.000053 0.718267
vt 0.000053 0.718267
vt 0 0.000002
vt 0.000003 0.043345
vt 0.088721 0
vt 0.000003 0.718267
vt 0.088724 0.043344
vt 0.088774 0.718266
vn 9.999997281306108e-7 -0.7288468018488112 -0.6846768138572823
vn -9.999997281306108e-7 0.7288468018488112 0.6846768138572823
vn 0.707127780610458 -0.7070857806234887 -0.000026999991623289402
vn -0.707127780610458 0.7070857806234887 0.000026999991623289402
vn -0.000036000002436030253 -0.031235002113594357 -0.9995120676344852
vn 0.000036000002436030253 0.031235002113594357 0.9995120676344852
vn 0.000035999999976672 -1 0
vn -0.000035999999976672 1 0
vn -0.684651024966827 -0.7288710265793757 0.000025000000911500707
vn 0.684651024966827 0.7288710265793757 -0.000025000000911500707
vn -0.9995109420628501 -0.031270998187361 0.000036999997855269736
vn 0.9995109420628501 0.031270998187361 -0.000036999997855269736
vn 0.00005100002021319901 -0.707111280254419 0.7071022802508518
vn -0.00005100002021319901 0.707111280254419 -0.7071022802508518
vn 0.9999999985054999 0.0000349999999476925 -0.00004199999993723099
vn -0.9999999985054999 -0.0000349999999476925 0.00004199999993723099
vn -0.000036999999974673496 0 -1
vn 0.000036999999974673496 0 1
vn 0.000030999999985089 -9.999999997410446e-7 1
vn -0.000030999999985089 9.999999997410446e-7 -1
vn -0.9999999986675001 -0.00003599999995203001 0.0000369999999506975
vn 0.9999999986675001 0.00003599999995203001 -0.0000369999999506975
usemtl material_0_0
f 1/1/1 2/2/1 3/3/1
f 3/3/2 2/2/2 1/1/2
f 2/4/3 1/5/3 4/6/3
f 4/6/4 1/5/4 2/4/4
f 5/7/1 3/3/1 2/2/1
f 2/2/2 3/3/2 5/7/2
f 3/8/5 6/9/5 1/10/5
f 1/10/6 6/9/6 3/8/6
f 7/11/3 4/6/3 1/5/3
f 1/5/4 4/6/4 7/11/4
f 4/12/7 8/13/7 2/14/7
f 2/14/8 8/13/8 4/12/8
f 3/15/9 5/16/9 9/17/9
f 9/17/10 5/16/10 3/15/10
f 5/18/7 2/14/7 8/13/7
f 8/13/8 2/14/8 5/18/8
f 3/19/11 9/20/11 6/21/11
f 6/21/12 9/20/12 3/19/12
f 10/22/5 1/10/5 6/9/5
f 6/9/6 1/10/6 10/22/6
f 7/23/13 9/24/13 4/25/13
f 4/25/14 9/24/14 7/23/14
f 1/26/15 11/27/15 7/28/15
f 7/28/16 11/27/16 1/26/16
f 8/29/13 4/25/13 9/24/13
f 9/24/14 4/25/14 8/29/14
f 8/30/9 9/17/9 5/16/9
f 5/16/10 9/17/10 8/30/10
f 12/31/11 6/21/11 9/20/11
f 9/20/12 6/21/12 12/31/12
f 10/32/15 11/27/15 1/26/15
f 6/33/17 13/34/17 10/35/17
f 10/35/18 13/34/18 6/33/18
f 9/36/19 7/37/19 12/38/19
f 12/38/20 7/37/20 9/36/20
f 1/26/16 11/27/16 10/32/16
f 14/39/15 7/28/15 11/27/15
f 11/27/16 7/28/16 14/39/16
f 6/40/21 12/41/21 13/42/21
f 13/42/22 12/41/22 6/40/22
f 11/43/17 10/35/17 13/34/17
f 13/34/18 10/35/18 11/43/18
f 14/44/19 12/38/19 7/37/19
f 7/37/20 12/38/20 14/44/20
f 14/45/8 11/46/8 15/47/8
f 15/47/7 11/46/7 14/45/7
f 15/48/21 13/42/21 12/41/21
f 12/41/22 13/42/22 15/48/22
f 13/49/8 15/47/8 11/46/8
f 11/46/7 15/47/7 13/49/7
f 15/50/19 12/38/19 14/44/19
f 14/44/20 12/38/20 15/50/20
