# SSTK version 0.8.0
# 28
mtllib original-28.mtl
o Kreg_Pocket_Hole_3_4_12/Kreg_Pocket_Hole_3_4/mesh13/mesh13-geometry#mesh13-geometry
v 0.422276 0.038011 0.229895
v 0.426347 0.036643 0.246501
v 0.426701 0.038011 0.246406
v 0.421922 0.036643 0.229990
v 0.426347 0.039378 0.246501
v 0.421922 0.039378 0.229990
v 0.422730 0.032459 0.229773
v 0.420955 0.035642 0.230249
v 0.425380 0.040379 0.246760
v 0.422730 0.043562 0.229773
v 0.419634 0.031600 0.230603
v 0.425380 0.035642 0.246760
v 0.420955 0.040379 0.230249
v 0.419634 0.044421 0.230603
v 0.424997 0.041216 0.229166
v 0.410894 0.031600 0.197984
v 0.419634 0.035276 0.230603
v 0.425186 0.038011 0.246812
v 0.419634 0.040746 0.230603
v 0.410894 0.044421 0.197984
v 0.424997 0.034805 0.229166
v 0.410894 0.043562 0.185601
v 0.410894 0.032459 0.185601
v 0.410894 0.032459 0.210368
v 0.424059 0.035275 0.247114
v 0.416538 0.032459 0.231432
v 0.425035 0.037427 0.246853
v 0.425035 0.038594 0.246853
v 0.424059 0.040746 0.247114
v 0.410894 0.043562 0.210368
v 0.425826 0.038011 0.228944
v 0.410894 0.041216 0.176535
v 0.418314 0.035642 0.230957
v 0.418314 0.040379 0.230957
v 0.416539 0.043562 0.231432
v 0.410894 0.038011 0.173217
v 0.410894 0.034806 0.176535
v 0.410894 0.034806 0.219434
v 0.422738 0.035642 0.247468
v 0.424622 0.037000 0.246963
v 0.417347 0.036643 0.231216
v 0.424622 0.039021 0.246963
v 0.422738 0.040379 0.247468
v 0.410894 0.041216 0.219434
v 0.414272 0.034805 0.232039
v 0.424059 0.036844 0.247114
v 0.416993 0.038011 0.231311
v 0.424059 0.039177 0.247114
v 0.417347 0.039378 0.231216
v 0.414272 0.041216 0.232039
v 0.410894 0.038011 0.222752
v 0.421771 0.036643 0.247727
v 0.423495 0.037000 0.247265
v 0.423495 0.039021 0.247265
v 0.421771 0.039378 0.247727
v 0.413443 0.038011 0.232262
v 0.423083 0.037427 0.247376
v 0.421417 0.038011 0.247822
v 0.423083 0.038594 0.247376
v 0.422932 0.038011 0.247416
vt 0.025262 0.022905
vt 0.004014 -0.00375
vt 0.005692 -0.006068
vt 0.023584 0.025223
vt 0.002254 -0.038043
vt -0.002254 -0.038043
vt 0 -0.038907
vt -0.005692 -0.006068
vt -0.023584 0.025223
vt -0.025262 0.022905
vt 0.009148 -0.040014
vt 0.03246 -0.005173
vt 0.006945 -0.022567
vt 0.033286 -0.008293
vt -0.003903 -0.035684
vt -0.004014 -0.00375
vt -0.009148 -0.040014
vt 0.010563 -0.032461
vt 0.006118 -0.019447
vt 0.003903 -0.035684
vt -0.03246 -0.005173
vt -0.006945 -0.022567
vt -0.006118 -0.019447
vt -0.033286 -0.008293
vt -0.010563 -0.032461
vt -0.005282 -0.045543
vt 0.034606 -0.022869
vt 0.086766 0.005937
vt 0.033144 -0.015335
vt 0.033563 -0.017494
vt 0.007043 -0.031477
vt 0.034187 -0.020709
vt 0.004507 -0.032461
vt 0 -0.035211
vt -0.007043 -0.031477
vt -0.033563 -0.017494
vt -0.034187 -0.020709
vt -0.086766 0.005937
vt -0.034606 -0.022869
vt -0.033144 -0.015335
vt 0.005282 -0.045543
vt -0.102373 0.035108
vt -0.033842 -0.010389
vt -0.031904 -0.003077
vt 0.107222 0.005937
vt 0.067772 -0.001598
vt 0.088228 -0.001598
vt 0.006419 -0.028262
vt 0.009148 -0.024909
vt 0.000962 -0.034843
vt -0.000962 -0.034843
vt -0.006419 -0.028262
vt -0.004507 -0.032461
vt -0.107222 0.005937
vt -0.067772 -0.001598
vt -0.088228 -0.001598
vt 0 -0.047567
vt 0.033842 -0.010389
vt 0.102373 0.035108
vt 0.031904 -0.003077
vt -0.117804 0.035108
vt 0.003903 -0.029239
vt -0.009148 -0.024909
vt -0.084837 0.119131
vt -0.02639 0.021348
vt -0.022457 0.02678
vt 0.092439 0.119131
vt 0.022457 0.02678
vt 0.02639 0.021348
vt 0.117804 0.035108
vt 0.052015 0.00782
vt 0.067446 0.00782
vt 0.001665 -0.033836
vt 0.002254 -0.02688
vt -0.001665 -0.033836
vt -0.003903 -0.029239
vt -0.052015 0.00782
vt -0.067446 0.00782
vt -0.092439 0.119131
vt 0.084837 0.119131
vt 0.001923 -0.032461
vt 0 -0.026016
vt -0.001923 -0.032461
vt -0.002254 -0.02688
vt 0.033728 0.043467
vt 0.041331 0.043467
vt -0.005282 -0.01938
vt 0.005282 -0.01938
vt 0.001665 -0.031087
vt -0.001665 -0.031087
vt -0.041331 0.043467
vt 0 -0.017356
vt 0.000962 -0.03008
vt -0.000962 -0.03008
vt -0.033728 0.043467
vt 0 -0.029712
vn -0.9659261080028864 0.000005019102771304327 0.2588179936812832
vn -0.8365134119315165 0.5000044589078692 0.22414471381440615
vn 0.9659261080028864 -0.000005019102771304327 -0.2588179936812832
vn 0.8365134119315165 -0.5000044589078692 -0.22414471381440615
vn -0.2588179936538826 0.000004450680102544992 -0.9659261080130147
vn 0.2588179936538826 -0.000004450680102544992 0.9659261080130147
vn -0.8365194119313639 -0.4999957655700282 0.2241417138197324
vn 0.8365194119313639 0.4999957655700282 -0.2241417138197324
vn -0.4829580520394764 0.8660277225318725 0.1294121469433682
vn 0.4829580520394764 -0.8660277225318725 -0.1294121469433682
vn -0.482968444339435 -0.8660227034300833 0.12940695080248218
vn 0.482968444339435 0.8660227034300833 -0.12940695080248218
vn 0.000005999998500323886 1 0.0000029999940002055443
vn -0.000005999998500323886 -1 -0.0000029999940002055443
usemtl material_0_0
f 1/1/1 2/2/2 3/3/1
f 2/2/2 1/1/1 4/4/2
f 3/3/3 2/2/4 1/1/3
f 4/4/4 1/1/3 2/2/4
f 2/5/5 5/6/5 3/7/5
f 3/7/6 5/6/6 2/5/6
f 3/8/1 6/9/7 1/10/1
f 1/10/3 6/9/8 3/8/3
f 1/7/5 7/11/5 4/5/5
f 4/5/6 7/11/6 1/7/6
f 8/12/9 2/13/2 4/14/2
f 4/14/4 2/13/4 8/12/10
f 5/6/5 2/5/5 9/15/5
f 9/15/6 2/5/6 5/6/6
f 6/9/7 3/8/1 5/16/7
f 5/16/8 3/8/3 6/9/8
f 6/6/5 10/17/5 1/7/5
f 1/7/6 10/17/6 6/6/6
f 10/17/5 7/11/5 1/7/5
f 1/7/6 7/11/6 10/17/6
f 4/5/5 7/11/5 11/18/5
f 11/18/6 7/11/6 4/5/6
f 2/13/2 8/12/9 12/19/9
f 12/19/10 8/12/10 2/13/4
f 4/5/5 11/18/5 8/20/5
f 8/20/6 11/18/6 4/5/6
f 9/15/5 2/5/5 12/20/5
f 12/20/6 2/5/6 9/15/6
f 13/21/11 5/22/7 9/23/11
f 9/23/12 5/22/8 13/21/12
f 5/22/7 13/21/11 6/24/7
f 6/24/8 13/21/12 5/22/8
f 10/17/5 6/6/5 14/25/5
f 14/25/6 6/6/6 10/17/6
f 15/26/5 7/11/5 10/17/5
f 10/17/6 7/11/6 15/26/6
f 7/27/9 16/28/13 11/29/13
f 11/29/14 16/28/14 7/27/10
f 17/30/13 12/31/9 8/32/9
f 8/32/10 12/31/10 17/30/14
f 8/20/5 11/18/5 17/33/5
f 17/33/6 11/18/6 8/20/6
f 9/15/5 12/20/5 18/34/5
f 18/34/6 12/20/6 9/15/6
f 9/35/11 19/36/14 13/37/11
f 13/37/12 19/36/13 9/35/12
f 14/25/5 6/6/5 13/15/5
f 13/15/6 6/6/6 14/25/6
f 20/38/14 10/39/11 14/40/14
f 14/40/13 10/39/12 20/38/13
f 15/26/5 21/41/5 7/11/5
f 7/11/6 21/41/6 15/26/6
f 22/42/11 15/43/7 10/44/11
f 10/44/12 15/43/8 22/42/12
f 16/28/13 7/27/9 23/45/9
f 23/45/10 7/27/10 16/28/14
f 24/46/12 11/27/13 16/47/13
f 16/47/14 11/27/14 24/46/11
f 12/31/9 17/30/13 25/48/13
f 25/48/14 17/30/14 12/31/10
f 17/33/5 11/18/5 26/49/5
f 26/49/6 11/18/6 17/33/6
f 18/34/5 12/20/5 27/50/5
f 27/50/6 12/20/6 18/34/6
f 28/51/5 9/15/5 18/34/5
f 18/34/6 9/15/6 28/51/6
f 19/36/14 9/35/11 29/52/14
f 29/52/13 9/35/12 19/36/13
f 14/25/5 13/15/5 19/53/5
f 19/53/6 13/15/6 14/25/6
f 10/39/11 20/38/14 22/54/11
f 22/54/12 20/38/13 10/39/12
f 14/39/14 30/55/10 20/56/14
f 20/56/13 30/55/9 14/39/13
f 21/41/5 15/26/5 31/57/5
f 31/57/6 15/26/6 21/41/6
f 21/58/2 23/59/9 7/60/9
f 7/60/10 23/59/10 21/58/4
f 15/43/7 22/42/11 32/61/7
f 32/61/8 22/42/12 15/43/8
f 11/27/13 24/46/12 26/29/12
f 26/29/11 24/46/11 11/27/14
f 33/30/12 25/31/13 17/32/13
f 17/32/14 25/31/14 33/30/11
f 27/50/5 12/20/5 25/33/5
f 25/33/6 12/20/6 27/50/6
f 17/33/5 26/49/5 33/62/5
f 33/62/6 26/49/6 17/33/6
f 9/15/5 28/51/5 29/53/5
f 29/53/6 28/51/6 9/15/6
f 29/35/14 34/36/10 19/37/14
f 19/37/13 34/36/9 29/35/13
f 14/25/5 19/53/5 35/63/5
f 35/63/6 19/53/6 14/25/6
f 30/55/10 14/39/14 35/40/10
f 35/40/9 14/39/13 30/55/9
f 32/64/7 31/65/1 15/66/7
f 15/66/8 31/65/3 32/64/8
f 36/67/1 21/68/2 31/69/1
f 31/69/3 21/68/4 36/67/3
f 23/59/9 21/58/2 37/70/2
f 37/70/4 21/58/4 23/59/10
f 38/71/8 26/58/12 24/72/12
f 24/72/11 26/58/11 38/71/7
f 25/31/13 33/30/12 39/48/12
f 39/48/11 33/30/11 25/31/14
f 27/50/5 25/33/5 40/73/5
f 40/73/6 25/33/6 27/50/6
f 33/62/5 26/49/5 41/74/5
f 41/74/6 26/49/6 33/62/6
f 29/53/5 28/51/5 42/75/5
f 42/75/6 28/51/6 29/53/6
f 34/36/10 29/35/14 43/52/10
f 43/52/9 29/35/13 34/36/9
f 35/63/5 19/53/5 34/76/5
f 34/76/6 19/53/6 35/63/6
f 35/43/10 44/77/4 30/78/10
f 30/78/9 44/77/2 35/43/9
f 31/65/1 32/64/7 36/79/1
f 36/79/3 32/64/8 31/65/3
f 21/68/2 36/67/1 37/80/2
f 37/80/4 36/67/3 21/68/4
f 26/58/12 38/71/8 45/60/8
f 45/60/7 38/71/7 26/58/11
f 41/12/8 39/13/12 33/14/12
f 33/14/11 39/13/11 41/12/7
f 46/81/5 25/33/5 39/62/5
f 39/62/6 25/33/6 46/81/6
f 40/73/5 25/33/5 46/81/5
f 46/81/6 25/33/6 40/73/6
f 41/74/5 26/49/5 47/82/5
f 47/82/6 26/49/6 41/74/6
f 29/53/5 42/75/5 48/83/5
f 48/83/6 42/75/6 29/53/6
f 29/53/5 48/83/5 43/76/5
f 43/76/6 48/83/6 29/53/6
f 43/22/10 49/21/4 34/24/10
f 34/24/9 49/21/2 43/22/9
f 35/63/5 34/76/5 49/84/5
f 49/84/6 34/76/6 35/63/6
f 44/77/4 35/43/10 50/44/4
f 50/44/2 35/43/9 44/77/2
f 51/85/3 45/69/8 38/86/8
f 38/86/7 45/69/7 51/85/1
f 50/87/5 26/49/5 45/88/5
f 45/88/6 26/49/6 50/87/6
f 39/13/12 41/12/8 52/19/8
f 52/19/7 41/12/7 39/13/11
f 46/81/5 39/62/5 53/89/5
f 53/89/6 39/62/6 46/81/6
f 47/82/5 26/49/5 35/63/5
f 35/63/6 26/49/6 47/82/6
f 47/4/3 52/3/8 41/1/8
f 41/1/7 52/3/7 47/4/1
f 43/76/5 48/83/5 54/90/5
f 54/90/6 48/83/6 43/76/6
f 49/21/4 43/22/10 55/23/4
f 55/23/2 43/22/9 49/21/2
f 35/63/5 49/84/5 47/82/5
f 47/82/6 49/84/6 35/63/6
f 35/63/5 26/49/5 50/87/5
f 50/87/6 26/49/6 35/63/6
f 56/66/3 44/91/4 50/65/4
f 50/65/2 44/91/2 56/66/1
f 45/69/8 51/85/3 56/68/3
f 56/68/1 51/85/1 45/69/7
f 50/87/5 45/88/5 56/92/5
f 56/92/6 45/88/6 50/87/6
f 55/84/5 39/62/5 52/74/5
f 52/74/6 39/62/6 55/84/6
f 53/89/5 39/62/5 57/93/5
f 57/93/6 39/62/6 53/89/6
f 52/3/8 47/4/3 58/2/3
f 58/2/1 47/4/1 52/3/7
f 43/76/5 54/90/5 59/94/5
f 59/94/6 54/90/6 43/76/6
f 43/76/5 39/62/5 55/84/5
f 55/84/6 39/62/6 43/76/6
f 58/16/3 49/10/4 55/8/4
f 55/8/2 49/10/2 58/16/1
f 49/10/4 58/16/3 47/9/3
f 47/9/1 58/16/1 49/10/2
f 44/91/4 56/66/3 51/95/3
f 51/95/1 56/66/1 44/91/2
f 55/84/5 52/74/5 58/82/5
f 58/82/6 52/74/6 55/84/6
f 57/93/5 39/62/5 60/96/5
f 60/96/6 39/62/6 57/93/6
f 43/76/5 59/94/5 60/96/5
f 60/96/6 59/94/6 43/76/6
f 60/96/5 39/62/5 43/76/5
f 43/76/6 39/62/6 60/96/6
