# SSTK version 0.8.0
# 51
mtllib original-51.mtl
o Kreg_Pocket_Hole_3_4_25/Kreg_Pocket_Hole_3_4_1_2/mesh14/mesh14-geometry#mesh14-geometry
v 0.380453 0.038006 -0.388544
v 0.380548 0.039374 -0.388190
v 0.363941 0.038006 -0.384120
v 0.380548 0.036639 -0.388190
v 0.364036 0.039374 -0.383766
v 0.364036 0.036639 -0.383766
v 0.380807 0.035638 -0.387224
v 0.363819 0.043558 -0.384574
v 0.364295 0.040375 -0.382799
v 0.363820 0.032455 -0.384574
v 0.364295 0.035638 -0.382799
v 0.380807 0.040375 -0.387224
v 0.364649 0.044417 -0.381478
v 0.364649 0.031596 -0.381478
v 0.380859 0.038006 -0.387030
v 0.364649 0.035271 -0.381478
v 0.332031 0.044417 -0.372738
v 0.363212 0.034801 -0.386841
v 0.364649 0.040741 -0.381478
v 0.332031 0.031596 -0.372738
v 0.380899 0.038590 -0.386879
v 0.380899 0.037423 -0.386879
v 0.381161 0.035271 -0.385903
v 0.344415 0.043558 -0.372738
v 0.319647 0.043558 -0.372738
v 0.363212 0.041212 -0.386841
v 0.319647 0.032455 -0.372738
v 0.381161 0.040741 -0.385903
v 0.365479 0.043558 -0.378382
v 0.344415 0.032455 -0.372738
v 0.365479 0.032455 -0.378382
v 0.365003 0.035638 -0.380157
v 0.362990 0.038006 -0.387670
v 0.310582 0.034801 -0.372738
v 0.365003 0.040375 -0.380157
v 0.381010 0.039017 -0.386466
v 0.381010 0.036996 -0.386466
v 0.381515 0.035638 -0.384582
v 0.353480 0.041211 -0.372738
v 0.310582 0.041211 -0.372738
v 0.307264 0.038006 -0.372738
v 0.381515 0.040375 -0.384582
v 0.365262 0.039374 -0.379190
v 0.353480 0.034801 -0.372738
v 0.365262 0.036639 -0.379190
v 0.381161 0.039173 -0.385903
v 0.381161 0.036839 -0.385903
v 0.366086 0.041211 -0.376116
v 0.365357 0.038006 -0.378836
v 0.366086 0.034801 -0.376116
v 0.381312 0.036996 -0.385339
v 0.381774 0.036639 -0.383615
v 0.356798 0.038006 -0.372738
v 0.381774 0.039374 -0.383615
v 0.381312 0.039017 -0.385339
v 0.366308 0.038006 -0.375286
v 0.381869 0.038006 -0.383261
v 0.381422 0.037423 -0.384926
v 0.381422 0.038590 -0.384926
v 0.381463 0.038006 -0.384775
vt 0.005692 -0.006068
vt 0.004014 -0.00375
vt 0.025262 0.022905
vt 0 -0.038907
vt -0.002254 -0.038043
vt 0.002254 -0.038043
vt 0.023584 0.025223
vt -0.025262 0.022905
vt -0.023584 0.025223
vt -0.005692 -0.006068
vt -0.004014 -0.00375
vt -0.003903 -0.035684
vt 0.009148 -0.040014
vt 0.033286 -0.008293
vt 0.006945 -0.022567
vt 0.03246 -0.005173
vt -0.009148 -0.040014
vt -0.033286 -0.008293
vt -0.03246 -0.005173
vt -0.006945 -0.022567
vt 0.003903 -0.035684
vt -0.006118 -0.019447
vt 0.010563 -0.032461
vt 0.006118 -0.019447
vt -0.010563 -0.032461
vt 0 -0.035211
vt -0.034187 -0.020709
vt -0.033563 -0.017494
vt -0.007043 -0.031477
vt 0.033144 -0.015335
vt 0.086766 0.005937
vt 0.034606 -0.022869
vt -0.005282 -0.045543
vt 0.034187 -0.020709
vt 0.007043 -0.031477
vt 0.033563 -0.017494
vt 0.004507 -0.032461
vt -0.033144 -0.015335
vt -0.034606 -0.022869
vt -0.086766 0.005937
vt -0.004507 -0.032461
vt 0.000962 -0.034843
vt -0.000962 -0.034843
vt -0.006419 -0.028262
vt 0.088228 -0.001598
vt 0.067772 -0.001598
vt 0.107222 0.005937
vt 0.005282 -0.045543
vt -0.031904 -0.003077
vt -0.033842 -0.010389
vt -0.102373 0.035108
vt 0.006419 -0.028262
vt 0.009148 -0.024909
vt -0.107222 0.005937
vt -0.088228 -0.001598
vt -0.067772 -0.001598
vt -0.009148 -0.024909
vt 0.031904 -0.003077
vt 0.102373 0.035108
vt 0.033842 -0.010389
vt 0 -0.047567
vt -0.117804 0.035108
vt 0.003903 -0.029239
vt -0.003903 -0.029239
vt 0.001665 -0.033836
vt -0.001665 -0.033836
vt 0.067446 0.00782
vt 0.052015 0.00782
vt 0.117804 0.035108
vt -0.022457 0.02678
vt -0.02639 0.021348
vt -0.084837 0.119131
vt 0.02639 0.021348
vt 0.022457 0.02678
vt 0.092439 0.119131
vt 0.002254 -0.02688
vt -0.067446 0.00782
vt -0.052015 0.00782
vt -0.002254 -0.02688
vt 0.001923 -0.032461
vt -0.001923 -0.032461
vt 0.084837 0.119131
vt -0.092439 0.119131
vt 0 -0.026016
vt -0.001665 -0.031087
vt 0.041331 0.043467
vt 0.033728 0.043467
vt 0.005282 -0.01938
vt -0.005282 -0.01938
vt 0.001665 -0.031087
vt -0.041331 0.043467
vt -0.000962 -0.03008
vt 0 -0.017356
vt 0.000962 -0.03008
vt -0.033728 0.043467
vt 0 -0.029712
vn 0.258824755140647 -0.000002638950619115658 0.9659242962672696
vn 0.22414956940239236 -0.5000023976532258 0.8365133429167448
vn -0.258824755140647 0.000002638950619115658 -0.9659242962672696
vn -0.22414956940239236 0.5000023976532258 -0.8365133429167448
vn -0.9659242962703701 -0.0000017423805927755679 0.2588247551366645
vn 0.9659242962703701 0.0000017423805927755679 -0.2588247551366645
vn 0.2241485694184527 0.49999782685919536 0.8365163429149147
vn -0.2241485694184527 -0.49999782685919536 -0.8365163429149147
vn 0.12941379561318198 -0.8660265324753544 0.4829597442372428
vn -0.12941379561318198 0.8660265324753544 -0.4829597442372428
vn 0.12941206359034454 0.866023893526741 0.4829649403818793
vn -0.12941206359034454 -0.866023893526741 -0.4829649403818793
vn -9.999842500164773e-7 1 0.000002999995500114511
vn 9.999842500164773e-7 -1 -0.000002999995500114511
usemtl material_0_0
f 1/1/1 2/2/2 3/3/1
f 3/3/3 2/2/4 1/1/3
f 1/4/5 4/5/5 2/6/5
f 2/6/6 4/5/6 1/4/6
f 5/7/2 3/3/1 2/2/2
f 2/2/4 3/3/3 5/7/4
f 3/8/1 6/9/7 1/10/1
f 1/10/3 6/9/8 3/8/3
f 4/11/7 1/10/1 6/9/7
f 6/9/8 1/10/3 4/11/8
f 7/12/5 2/6/5 4/5/5
f 4/5/6 2/6/6 7/12/6
f 5/6/5 8/13/5 3/4/5
f 3/4/6 8/13/6 5/6/6
f 5/14/2 2/15/2 9/16/9
f 9/16/10 2/15/4 5/14/4
f 3/4/5 10/17/5 6/5/5
f 6/5/6 10/17/6 3/4/6
f 6/18/7 11/19/11 4/20/7
f 4/20/8 11/19/12 6/18/8
f 12/21/5 2/6/5 7/12/5
f 7/12/6 2/6/6 12/21/6
f 7/22/11 4/20/7 11/19/11
f 11/19/12 4/20/8 7/22/12
f 13/23/5 8/13/5 5/6/5
f 5/6/6 8/13/6 13/23/6
f 3/4/5 8/13/5 10/17/5
f 10/17/6 8/13/6 3/4/6
f 12/24/9 9/16/9 2/15/2
f 2/15/4 9/16/10 12/24/10
f 9/21/5 13/23/5 5/6/5
f 5/6/6 13/23/6 9/21/6
f 14/25/5 6/5/5 10/17/5
f 10/17/6 6/5/6 14/25/6
f 11/12/5 6/5/5 14/25/5
f 14/25/6 6/5/6 11/12/6
f 15/26/5 12/21/5 7/12/5
f 7/12/6 12/21/6 15/26/6
f 11/27/11 16/28/13 7/29/11
f 7/29/12 16/28/14 11/27/12
f 13/30/14 17/31/14 8/32/9
f 8/32/10 17/31/13 13/30/13
f 10/17/5 8/13/5 18/33/5
f 18/33/6 8/13/6 10/17/6
f 9/34/9 12/35/9 19/36/14
f 19/36/13 12/35/10 9/34/10
f 19/37/5 13/23/5 9/21/5
f 9/21/6 13/23/6 19/37/6
f 14/38/13 10/39/11 20/40/13
f 20/40/14 10/39/12 14/38/14
f 16/41/5 11/12/5 14/25/5
f 14/25/6 11/12/6 16/41/6
f 21/42/5 12/21/5 15/26/5
f 15/26/6 12/21/6 21/42/6
f 15/26/5 7/12/5 22/43/5
f 22/43/6 7/12/6 15/26/6
f 23/44/13 7/29/11 16/28/13
f 16/28/14 7/29/12 23/44/14
f 17/45/14 13/32/14 24/46/12
f 24/46/11 13/32/13 17/45/13
f 25/47/9 8/32/9 17/31/14
f 17/31/13 8/32/10 25/47/10
f 8/13/5 26/48/5 18/33/5
f 18/33/6 26/48/6 8/13/6
f 10/49/11 18/50/7 27/51/11
f 27/51/12 18/50/8 10/49/12
f 28/52/14 19/36/14 12/35/9
f 12/35/10 19/36/13 28/52/13
f 29/53/5 13/23/5 19/37/5
f 19/37/6 13/23/6 29/53/6
f 27/54/11 20/40/13 10/39/11
f 10/39/12 20/40/14 27/54/12
f 20/55/13 30/56/10 14/39/13
f 14/39/14 30/56/9 20/55/14
f 31/57/5 16/41/5 14/25/5
f 14/25/6 16/41/6 31/57/6
f 28/37/5 12/21/5 21/42/5
f 21/42/6 12/21/6 28/37/6
f 23/41/5 22/43/5 7/12/5
f 7/12/6 22/43/6 23/41/6
f 16/27/13 32/28/10 23/29/13
f 23/29/14 32/28/9 16/27/14
f 29/30/12 24/46/12 13/32/14
f 13/32/13 24/46/11 29/30/11
f 8/58/9 25/59/9 26/60/2
f 26/60/4 25/59/10 8/58/10
f 33/61/5 18/33/5 26/48/5
f 26/48/6 18/33/6 33/61/6
f 34/62/7 27/51/11 18/50/7
f 18/50/8 27/51/12 34/62/8
f 19/34/14 28/35/14 35/36/12
f 35/36/11 28/35/13 19/34/13
f 35/63/5 29/53/5 19/37/5
f 19/37/6 29/53/6 35/63/6
f 31/38/10 14/39/13 30/56/10
f 30/56/9 14/39/14 31/38/9
f 32/64/5 16/41/5 31/57/5
f 31/57/6 16/41/6 32/64/6
f 36/65/5 28/37/5 21/42/5
f 21/42/6 28/37/6 36/65/6
f 37/66/5 22/43/5 23/41/5
f 23/41/6 22/43/6 37/66/6
f 38/44/10 23/29/13 32/28/10
f 32/28/9 23/29/14 38/44/9
f 24/67/12 29/60/12 39/68/8
f 39/68/7 29/60/11 24/67/11
f 40/69/2 26/60/2 25/59/9
f 25/59/10 26/60/4 40/69/4
f 18/70/7 33/71/1 34/72/7
f 34/72/8 33/71/3 18/70/8
f 33/73/1 26/74/2 41/75/1
f 41/75/3 26/74/4 33/73/3
f 42/52/12 35/36/12 28/35/14
f 28/35/13 35/36/11 42/52/11
f 43/76/5 29/53/5 35/63/5
f 35/63/6 29/53/6 43/76/6
f 30/77/10 44/78/4 31/50/10
f 31/50/9 44/78/2 30/77/9
f 45/79/5 32/64/5 31/57/5
f 31/57/6 32/64/6 45/79/6
f 46/80/5 28/37/5 36/65/5
f 36/65/6 28/37/6 46/80/6
f 47/81/5 37/66/5 23/41/5
f 23/41/6 37/66/6 47/81/6
f 38/64/5 47/81/5 23/41/5
f 23/41/6 47/81/6 38/64/6
f 32/18/10 45/19/4 38/20/10
f 38/20/9 45/19/2 32/18/9
f 48/58/8 39/68/8 29/60/12
f 29/60/11 39/68/7 48/58/7
f 40/82/2 41/75/1 26/74/2
f 26/74/4 41/75/3 40/82/4
f 41/83/1 34/72/7 33/71/1
f 33/71/3 34/72/8 41/83/3
f 35/14/12 42/15/12 43/16/8
f 43/16/7 42/15/11 35/14/11
f 42/63/5 28/37/5 46/80/5
f 46/80/6 28/37/6 42/63/6
f 49/84/5 29/53/5 43/76/5
f 43/76/6 29/53/6 49/84/6
f 50/49/4 31/50/10 44/78/4
f 44/78/2 31/50/9 50/49/2
f 49/84/5 45/79/5 31/57/5
f 31/57/6 45/79/6 49/84/6
f 51/85/5 47/81/5 38/64/5
f 38/64/6 47/81/6 51/85/6
f 52/22/4 38/20/10 45/19/4
f 45/19/2 38/20/9 52/22/2
f 39/86/8 48/73/8 53/87/3
f 53/87/1 48/73/7 39/86/7
f 48/88/5 29/53/5 50/89/5
f 50/89/6 29/53/6 48/88/6
f 54/24/8 43/16/8 42/15/12
f 42/15/11 43/16/7 54/24/7
f 55/90/5 42/63/5 46/80/5
f 46/80/6 42/63/6 55/90/6
f 31/57/5 29/53/5 49/84/5
f 49/84/6 29/53/6 31/57/6
f 43/3/8 54/1/8 49/7/3
f 49/7/1 54/1/7 43/3/7
f 50/89/5 29/53/5 31/57/5
f 31/57/6 29/53/6 50/89/6
f 50/71/4 44/91/4 56/70/3
f 56/70/1 44/91/2 50/71/2
f 49/9/3 57/11/3 45/8/4
f 45/8/2 57/11/1 49/9/1
f 58/92/5 51/85/5 38/64/5
f 38/64/6 51/85/6 58/92/6
f 52/79/5 42/63/5 38/64/5
f 38/64/6 42/63/6 52/79/6
f 52/10/4 45/8/4 57/11/3
f 57/11/1 45/8/2 52/10/2
f 56/74/3 53/87/3 48/73/8
f 48/73/7 53/87/1 56/74/1
f 56/93/5 48/88/5 50/89/5
f 50/89/6 48/88/6 56/93/6
f 54/76/5 42/63/5 52/79/5
f 52/79/6 42/63/6 54/76/6
f 59/94/5 42/63/5 55/90/5
f 55/90/6 42/63/6 59/94/6
f 57/2/3 49/7/3 54/1/8
f 54/1/7 49/7/1 57/2/1
f 53/95/3 56/70/3 44/91/4
f 44/91/2 56/70/1 53/95/1
f 60/96/5 58/92/5 38/64/5
f 38/64/6 58/92/6 60/96/6
f 38/64/5 42/63/5 60/96/5
f 60/96/6 42/63/6 38/64/6
f 57/84/5 54/76/5 52/79/5
f 52/79/6 54/76/6 57/84/6
f 60/96/5 42/63/5 59/94/5
f 59/94/6 42/63/6 60/96/6
