# SSTK version 0.8.0
# 21
mtllib original-21.mtl
o Legs2/Legs12/mesh23/mesh23-geometry#mesh23-geometry
v -0.375394 -0.865703 0.276780
v -0.407381 -0.867973 0.279197
v -0.409652 -0.865702 0.276779
v -0.377812 -0.867974 0.279198
v -0.407382 -0.867973 0.308766
v -0.349794 -0.047462 0.251211
v -0.375396 -0.865703 0.311038
v -0.377813 -0.867974 0.308767
v -0.409655 -0.865700 0.311038
v -0.409623 -0.047460 0.251209
v -0.409617 0.123481 0.251209
v -0.349788 0.123479 0.251211
v -0.349796 -0.047462 0.311040
v -0.409619 0.123481 0.311038
v -0.349790 0.123479 0.311040
vt -0.050805 0.019216
vt -0.003371 0.016814
vt -0.000004 0.019218
vt -0.047219 0.016813
vt -0.003373 -0.001163
vt -0.050806 0.001164
vt -0.047221 -0.001163
vt -0.000002 0.002421
vt -0.088765 0.59549
vt -0.050803 0.00242
vt 0.000005 0.019217
vt 0.047221 0.016813
vt 0.050806 0.019217
vt -0.047218 0.001647
vt -0.003371 0.023069
vt -0.047219 0.023068
vt -0.000003 0.001165
vt -0.00337 0.001648
vt -0.000044 0.595492
vt 0.088724 0.595492
vt 0.000005 0.002421
vt 0.050806 0.002421
vt 0.003373 0.016813
vt 0.00337 -0.001165
vt 0.050803 0.001161
vt 0 0.001164
vt -0.000003 0.001647
vt -0.088724 0.718267
vt -0.050806 0.001646
vt 0.047217 -0.001166
vt -0.088724 0.594428
vt -0.000044 0.594428
vt -0.088774 0.718266
vt -0.088765 0.594427
vt 0.000003 0.595492
vt 0.088765 0.594427
vt 0 0.001647
vt 0.050803 0.001645
vt -0.000003 0.718267
vt -0.000053 0.718267
vt 0.088724 0.718267
vt 0.000003 0.594428
vt 0.088724 0.594428
vt 0.000053 0.718267
vt 0.088721 0
vt 0.000003 0.043345
vt 0 0.000002
vt 0.088724 0.043344
vt 0.000003 0.718267
vt 0.088774 0.718266
vn -9.999997281306108e-7 -0.7288468018488112 -0.6846768138572823
vn 9.999997281306108e-7 0.7288468018488112 0.6846768138572823
vn -0.707127780610458 -0.7070857806234887 -0.000026999991623289402
vn 0.707127780610458 0.7070857806234887 0.000026999991623289402
vn 0.000036000002436030253 -0.031235002113594357 -0.9995120676344852
vn -0.000036000002436030253 0.031235002113594357 0.9995120676344852
vn 0.684651024966827 -0.7288710265793757 0.000025000000911500707
vn -0.684651024966827 0.7288710265793757 -0.000025000000911500707
vn -0.000035999999976672 -1 0
vn 0.000035999999976672 1 0
vn 0.9995109420628501 -0.031270998187361 0.000036999997855269736
vn -0.9995109420628501 0.031270998187361 -0.000036999997855269736
vn -0.00005100002021319901 -0.707111280254419 0.7071022802508518
vn 0.00005100002021319901 0.707111280254419 -0.7071022802508518
vn -0.9999999985054999 0.0000349999999476925 -0.00004199999993723099
vn 0.9999999985054999 -0.0000349999999476925 0.00004199999993723099
vn 0.000036999999974673496 0 -1
vn -0.000036999999974673496 0 1
vn -0.000030999999985089 -9.999999997410446e-7 1
vn 0.000030999999985089 9.999999997410446e-7 -1
vn 0.9999999986675001 -0.00003599999995203001 0.0000369999999506975
vn -0.9999999986675001 0.00003599999995203001 -0.0000369999999506975
usemtl material_0_0
f 1/1/1 2/2/1 3/3/1
f 2/2/1 1/1/1 4/4/1
f 3/3/2 2/2/2 1/1/2
f 4/4/2 1/1/2 2/2/2
f 5/5/3 3/6/3 2/7/3
f 2/7/4 3/6/4 5/5/4
f 3/8/5 6/9/5 1/10/5
f 1/10/6 6/9/6 3/8/6
f 7/11/7 4/12/7 1/13/7
f 1/13/8 4/12/8 7/11/8
f 8/14/9 2/15/9 4/16/9
f 4/16/10 2/15/10 8/14/10
f 3/6/3 5/5/3 9/17/3
f 9/17/4 5/5/4 3/6/4
f 2/15/9 8/14/9 5/18/9
f 5/18/10 8/14/10 2/15/10
f 6/9/5 3/8/5 10/19/5
f 10/19/6 3/8/6 6/9/6
f 6/20/11 7/21/11 1/22/11
f 1/22/12 7/21/12 6/20/12
f 4/12/7 7/11/7 8/23/7
f 8/23/8 7/11/8 4/12/8
f 5/24/13 7/25/13 9/26/13
f 9/26/14 7/25/14 5/24/14
f 9/27/15 11/28/15 3/29/15
f 3/29/16 11/28/16 9/27/16
f 7/25/13 5/24/13 8/30/13
f 8/30/14 5/24/14 7/25/14
f 3/29/15 11/28/15 10/31/15
f 10/31/16 11/28/16 3/29/16
f 10/32/17 12/33/17 6/34/17
f 6/34/18 12/33/18 10/32/18
f 7/21/11 6/20/11 13/35/11
f 13/35/12 6/20/12 7/21/12
f 13/36/19 9/37/19 7/38/19
f 7/38/20 9/37/20 13/36/20
f 11/28/15 9/27/15 14/39/15
f 14/39/16 9/27/16 11/28/16
f 12/33/17 10/32/17 11/40/17
f 11/40/18 10/32/18 12/33/18
f 12/41/21 13/42/21 6/43/21
f 6/43/22 13/42/22 12/41/22
f 9/37/19 13/36/19 14/44/19
f 14/44/20 13/36/20 9/37/20
f 15/45/10 11/46/10 14/47/10
f 14/47/9 11/46/9 15/45/9
f 11/46/10 15/45/10 12/48/10
f 12/48/9 15/45/9 11/46/9
f 13/42/21 12/41/21 15/49/21
f 15/49/22 12/41/22 13/42/22
f 14/44/19 13/36/19 15/50/19
f 15/50/20 13/36/20 14/44/20
