# SSTK version 0.8.0
# 57
mtllib original-57.mtl
o mesh37/mesh37-geometry#mesh37-geometry
v 0.385255 0.123477 -0.398379
v 0.385255 0.123477 -0.372738
v 0.385255 -0.047464 -0.398379
v -0.349788 0.123477 -0.372733
v 0.385255 -0.047464 -0.372738
v 0.316879 -0.047464 -0.398379
v -0.349788 0.123477 -0.398374
v 0.332030 0.095699 -0.372738
v 0.316879 -0.047465 -0.372738
v 0.356798 -0.013276 -0.372738
v 0.267681 -0.037049 -0.398379
v -0.349788 -0.047463 -0.398374
v 0.017733 -0.013275 -0.398377
v 0.319647 0.094840 -0.372738
v 0.344414 0.094840 -0.372738
v 0.267681 -0.037049 -0.372737
v 0.353480 -0.010071 -0.372738
v 0.353480 -0.016481 -0.372738
v 0.218125 -0.028507 -0.398378
v -0.232215 -0.037048 -0.398377
v -0.349788 -0.047463 -0.372733
v 0.068012 -0.014229 -0.398377
v -0.032545 -0.014229 -0.398377
v 0.310582 0.092494 -0.372738
v 0.353480 0.092494 -0.372738
v 0.344415 -0.018827 -0.372738
v 0.344415 -0.007724 -0.372738
v 0.168280 -0.021850 -0.398378
v 0.218125 -0.028507 -0.372737
v -0.182658 -0.028506 -0.398377
v -0.281412 -0.047463 -0.398377
v -0.321331 -0.013276 -0.372740
v 0.118218 -0.017088 -0.398377
v 0.017733 -0.013276 -0.372736
v -0.032545 -0.014230 -0.372735
v -0.082751 -0.017088 -0.398377
v 0.307263 0.089288 -0.372738
v 0.356798 0.089288 -0.372738
v 0.356798 0.038006 -0.372738
v 0.168280 -0.021851 -0.372736
v -0.232215 -0.037049 -0.372736
v -0.132813 -0.021850 -0.398377
v -0.281412 -0.047464 -0.372736
v -0.318012 -0.016481 -0.372740
v -0.318012 -0.010071 -0.372740
v 0.068012 -0.014230 -0.372736
v -0.082751 -0.017089 -0.372735
v 0.310582 0.086083 -0.372738
v 0.332031 0.044417 -0.372738
v 0.332031 -0.019686 -0.372738
v 0.332031 -0.006865 -0.372738
v 0.353480 0.041211 -0.372738
v 0.118218 -0.017089 -0.372736
v -0.182658 -0.028507 -0.372735
v -0.308947 -0.018828 -0.372740
v -0.308947 -0.007725 -0.372740
v 0.307263 -0.013276 -0.372738
v -0.271796 -0.013276 -0.372740
v -0.275114 -0.016481 -0.372740
v -0.132813 -0.021851 -0.372735
v 0.319647 0.083737 -0.372738
v 0.353480 0.086083 -0.372738
v 0.344415 0.043558 -0.372738
v 0.353480 0.034801 -0.372738
v -0.321331 0.038006 -0.372740
v 0.310581 -0.016481 -0.372738
v -0.275114 -0.010071 -0.372740
v -0.284180 -0.018828 -0.372740
v -0.296563 -0.019686 -0.372740
v 0.332031 0.082878 -0.372738
v 0.344414 0.083737 -0.372738
v 0.344415 0.032455 -0.372738
v 0.319647 -0.018827 -0.372738
v -0.318012 0.041211 -0.372740
v -0.296563 -0.006866 -0.372740
v 0.310582 -0.010071 -0.372738
v 0.332031 0.031596 -0.372738
v -0.308947 0.043557 -0.372740
v -0.318012 0.034801 -0.372740
v -0.284180 -0.007725 -0.372740
v -0.296563 0.044416 -0.372740
v -0.296563 0.031596 -0.372740
v -0.308947 0.032455 -0.372740
v 0.319647 -0.007724 -0.372738
v 0.319647 0.043558 -0.372738
v -0.284180 0.032455 -0.372740
v -0.284180 0.043557 -0.372740
v 0.319647 0.032455 -0.372738
v 0.310582 0.041211 -0.372738
v -0.275114 0.034801 -0.372740
v -0.275114 0.041211 -0.372740
v 0.310582 0.034801 -0.372738
v 0.307264 0.038006 -0.372738
v -0.271796 0.038006 -0.372740
vt 0.000008 0.402819
vt 0.042262 0.402819
vt 0.000008 0.000002
vt 1.211267 0.060423
vt 1.211267 0
vt 0 0.060434
vt 0.042262 0.000002
vt 1.211267 0.402817
vt 1.098591 0
vt 0 0.000012
vt -1.211267 0.402817
vt 0 0.402819
vt -1.123559 0.337359
vt -1.211267 0.060423
vt -1.098591 0.060424
vt -1.211267 0
vt -1.164373 0.080563
vt -1.098591 0.000001
vt 1.017519 0.024543
vt -0.000008 0.402819
vt -0.000008 0.000002
vt -0.042262 0.402819
vt 0.605634 0.080565
vt -1.103153 0.335335
vt -1.143967 0.335335
vt -1.098591 -0.000002
vt -1.017519 0.024541
vt -1.158905 0.088116
vt -1.158906 0.073011
vt -0.042077 -1.536932
vt -0.042091 -1.41843
vt 0.000177 -1.536922
vt 0.935856 0.044672
vt 0.000163 -1.41842
vt 0 0.000002
vt 0.193748 0.024545
vt -0.042262 0.000002
vt 0.688487 0.078318
vt 0.52278 0.078318
vt -1.088214 0.329806
vt -1.158906 0.329806
vt -1.143967 0.067482
vt -1.143967 0.093645
vt 0.853717 0.060358
vt 0.000184 -1.311237
vt 0.000201 -1.429739
vt -0.04207 -1.31125
vt -0.042053 -1.429751
vt 0.275411 0.044673
vt 0.112676 0.000002
vt -0.046894 0.080563
vt -0.112676 0.000006
vt 0.771221 0.071579
vt 0.001106 -0.864371
vt 0.001259 -0.982872
vt -0.041147 -0.864482
vt 0.000967 0.748925
vt 0.001119 0.867427
vt 0.04322 0.748814
vt 0.440046 0.071579
vt -1.082746 0.322253
vt -1.164374 0.322254
vt -0.935856 0.04467
vt -1.164373 0.201409
vt 0.000217 -1.202082
vt 0.000239 -1.320584
vt -0.042037 -1.202098
vt -0.042015 -1.3206
vt 0.000044 0.277202
vt 0.000061 0.395703
vt 0.042298 0.27719
vt 0.35755 0.060359
vt 0.000023 0.157634
vt 0.000037 0.276135
vt 0.042277 0.157624
vt -0.052362 0.07301
vt -0.052362 0.088115
vt -0.112676 0.060428
vt 0.000415 -0.978489
vt 0.000466 -1.09699
vt -0.041839 -0.978526
vt -0.040995 -0.982983
vt 0.043373 0.867315
vt 0.04258 0.750783
vt 0.042529 0.632281
vt 0.000326 0.75082
vt 0.000275 0.632318
vt -1.088214 0.314701
vt -1.12356 0.216514
vt -1.12356 0.065458
vt -1.12356 0.095669
vt -1.158905 0.208961
vt 0.000277 -1.091113
vt 0.000307 -1.209615
vt -0.041977 -1.091135
vt -0.041947 -1.209637
vt -0.853717 0.060356
vt 0.042315 0.395691
vt 0.042291 0.276125
vt 0.000077 0.396286
vt 0.000099 0.514788
vt 0.042331 0.39627
vt -0.067301 0.067481
vt -0.067301 0.093644
vt -0.112676 0
vt -0.193747 0.024543
vt -0.041788 -1.097027
vt -0.605633 0.080563
vt -0.688487 0.078316
vt -1.082745 0.080563
vt -0.128522 0.080563
vt -0.52278 0.078316
vt -0.123054 0.07301
vt -0.440046 0.071577
vt 0.042421 0.633194
vt 0.042391 0.514693
vt 0.000167 0.633216
vt 0.000137 0.514715
vt -1.103153 0.309171
vt -1.158906 0.314701
vt -1.143967 0.21449
vt -1.158906 0.193856
vt -0.771221 0.071577
vt -0.275411 0.044671
vt 0.042353 0.514772
vt -0.046894 0.201408
vt -1.088214 0.07301
vt -0.123054 0.088115
vt -0.108115 0.067481
vt -0.35755 0.060357
vt -0.087708 0.065457
vt -1.12356 0.307148
vt -1.143967 0.309172
vt -1.143967 0.188327
vt -1.103153 0.067482
vt -0.052362 0.20896
vt -0.087708 0.095668
vt -1.088214 0.088116
vt -1.12356 0.186303
vt -0.067301 0.214489
vt -0.052362 0.193855
vt -0.108115 0.093644
vt -0.087708 0.216513
vt -0.087708 0.186302
vt -0.067301 0.188326
vt -1.103153 0.093645
vt -1.103153 0.21449
vt -0.108115 0.188326
vt -0.108115 0.21449
vt -1.103153 0.188327
vt -1.088214 0.208961
vt -0.123054 0.193855
vt -0.123054 0.20896
vt -1.088214 0.193856
vt -1.082746 0.201408
vt -0.128522 0.201408
vt 0.957653 0.190045
vt 0.872736 0.193813
vt 0.96424 0.493624
vt 0.812039 0.21502
vt 0.502541 0.271013
vt 0.05138 0.534126
vt 0.750822 0.232921
vt 0.19121 0.242565
vt 0.044793 0.230547
vt 0.564945 0.266548
vt 0.440062 0.272089
vt 0.689176 0.247489
vt 0.253085 0.255005
vt 0.12971 0.22678
vt 0.627187 0.258704
vt 0.3776 0.269777
vt 0.315245 0.26408
vn 1 -9.999999999749985e-7 -0.0000069999999998249995
vn -1 9.999999999749985e-7 0.0000069999999998249995
vn 9.999999999995e-7 1 0
vn -9.999999999995e-7 -1 0
vn 0.000004999999999915001 -0.000003000000000171045 1
vn -0.000004999999999915001 0.000003000000000171045 -1
vn 0.000004999999999215001 -1 -0.000016999999997553044
vn -0.000004999999999215001 1 0.000016999999997553044
vn -0.20711109113935924 -0.9783174305091692 -0.000033000014521893314
vn -0.18852102928127706 -0.9820691525359747 -0.00003400000528113329
vn 0.20711109113935924 0.9783174305091692 0.000033000014521893314
vn 0.18852102928127706 0.9820691525359747 0.00003400000528113329
vn -0.1511439634204447 -0.9885117607623896 -0.000033999991771610486
vn 0.1511439634204447 0.9885117607623896 0.000033999991771610486
vn -0.000007999999998588 -1 -0.000016999999997221545
vn 0.000007999999998588 1 0.000016999999997221545
vn -9.999999993869999e-7 -1 -0.000034999999978767036
vn -0.03792298725569784 -0.9992806641842945 -0.0000349999882382153
vn 9.999999993869999e-7 1 0.000034999999978767036
vn 0.03792298725569784 0.9992806641842945 0.0000349999882382153
vn 0.037920990132447714 -0.9992807399736948 -0.00003499999089275293
vn -0.037920990132447714 0.9992807399736948 0.00003499999089275293
vn -0.11354904476212098 -0.9935323916599845 -0.000034000013403351535
vn 0.11354904476212098 0.9935323916599845 0.000034000013403351535
vn 0.18851891521495656 -0.9820695583211899 -0.00003499998425922367
vn 0.151141031947439 -0.9885122089467901 -0.00003500000739834684
vn -0.18851891521495656 0.9820695583211899 0.00003499998425922367
vn -0.151141031947439 0.9885122089467901 0.00003500000739834684
vn 0.20710897429467123 -0.9783178785760841 -0.00003499999565619304
vn -0.20710897429467123 0.9783178785760841 0.00003499999565619304
vn -0.07578998496963482 -0.9971238022544157 -0.000033999993257479416
vn 0.07578998496963482 0.9971238022544157 0.000033999993257479416
vn 0.07578799645520601 -0.997123953362021 -0.000034999998363184016
vn -0.07578799645520601 0.997123953362021 0.000034999998363184016
vn 0.113545970623958 -0.9935327429582096 -0.000034999990945199115
vn -0.113545970623958 0.9935327429582096 0.000034999990945199115
usemtl material_0_0
f 1/1/1 2/2/1 3/3/1
f 3/3/2 2/2/2 1/1/2
f 2/4/3 1/5/3 4/6/3
f 4/6/4 1/5/4 2/4/4
f 5/7/1 3/3/1 2/2/1
f 2/2/2 3/3/2 5/7/2
f 1/8/5 6/9/5 3/5/5
f 7/10/3 4/6/3 1/5/3
f 1/5/4 4/6/4 7/10/4
f 2/11/5 4/12/5 8/13/5
f 8/13/6 4/12/6 2/11/6
f 5/14/7 9/15/7 3/16/7
f 3/16/8 9/15/8 5/14/8
f 2/11/5 10/17/5 5/16/5
f 5/16/6 10/17/6 2/11/6
f 6/18/7 3/16/7 9/15/7
f 9/15/8 3/16/8 6/18/8
f 6/9/5 1/8/5 11/19/5
f 7/20/2 12/21/2 4/22/2
f 4/22/1 12/21/1 7/20/1
f 7/12/5 13/23/5 1/8/5
f 8/13/5 4/12/5 14/24/5
f 14/24/6 4/12/6 8/13/6
f 8/13/5 15/25/5 2/11/5
f 2/11/6 15/25/6 8/13/6
f 9/26/5 5/16/5 16/27/5
f 16/27/6 5/16/6 9/26/6
f 17/28/5 10/17/5 2/11/5
f 2/11/6 10/17/6 17/28/6
f 10/17/5 18/29/5 5/16/5
f 5/16/6 18/29/6 10/17/6
f 9/30/9 16/31/10 6/32/9
f 6/32/11 16/31/12 9/30/11
f 11/19/5 1/8/5 19/33/5
f 11/34/10 6/32/9 16/31/10
f 16/31/12 6/32/11 11/34/12
f 12/35/5 20/36/5 7/12/5
f 21/37/2 4/22/2 12/21/2
f 12/21/1 4/22/1 21/37/1
f 22/38/5 1/8/5 13/23/5
f 7/12/5 23/39/5 13/23/5
f 14/24/5 4/12/5 24/40/5
f 24/40/6 4/12/6 14/24/6
f 15/25/5 25/41/5 2/11/5
f 2/11/6 25/41/6 15/25/6
f 26/42/5 16/27/5 5/16/5
f 5/16/6 16/27/6 26/42/6
f 27/43/5 17/28/5 2/11/5
f 2/11/6 17/28/6 27/43/6
f 18/29/5 26/42/5 5/16/5
f 5/16/6 26/42/6 18/29/6
f 19/33/5 1/8/5 28/44/5
f 19/45/13 11/46/10 29/47/13
f 29/47/14 11/46/12 19/45/14
f 16/48/10 29/47/13 11/46/10
f 11/46/12 29/47/14 16/48/12
f 7/12/5 20/36/5 30/49/5
f 20/36/5 12/35/5 31/50/5
f 4/12/5 21/35/5 32/51/5
f 32/51/6 21/35/6 4/12/6
f 12/10/15 31/52/15 21/6/15
f 21/6/16 31/52/16 12/10/16
f 33/53/5 1/8/5 22/38/5
f 13/54/17 22/55/18 34/56/17
f 34/56/19 22/55/20 13/54/19
f 23/57/21 13/58/17 35/59/21
f 35/59/22 13/58/19 23/57/22
f 7/12/5 36/60/5 23/39/5
f 24/40/5 4/12/5 37/61/5
f 37/61/6 4/12/6 24/40/6
f 25/41/5 38/62/5 2/11/5
f 2/11/6 38/62/6 25/41/6
f 29/63/5 16/27/5 26/42/5
f 26/42/6 16/27/6 29/63/6
f 39/64/5 27/43/5 2/11/5
f 2/11/6 27/43/6 39/64/6
f 28/44/5 1/8/5 33/53/5
f 28/65/23 19/66/13 40/67/23
f 40/67/24 19/66/14 28/65/24
f 29/68/13 40/67/23 19/66/13
f 19/66/14 40/67/24 29/68/14
f 20/69/25 30/70/26 41/71/25
f 41/71/27 30/70/28 20/69/27
f 7/12/5 30/49/5 42/72/5
f 31/73/29 20/74/25 43/75/29
f 43/75/30 20/74/27 31/73/30
f 32/51/5 21/35/5 44/76/5
f 44/76/6 21/35/6 32/51/6
f 45/77/5 4/12/5 32/51/5
f 32/51/6 4/12/6 45/77/6
f 43/78/15 21/6/15 31/52/15
f 31/52/16 21/6/16 43/78/16
f 22/79/18 33/80/31 46/81/18
f 46/81/20 33/80/32 22/79/20
f 46/82/18 34/56/17 22/55/18
f 22/55/20 34/56/19 46/82/20
f 34/83/17 35/59/21 13/58/17
f 13/58/19 35/59/22 34/83/19
f 35/84/21 47/85/33 23/86/21
f 23/86/22 47/85/34 35/84/22
f 36/87/33 23/86/21 47/85/33
f 47/85/34 23/86/22 36/87/34
f 7/12/5 42/72/5 36/60/5
f 37/61/5 4/12/5 48/88/5
f 48/88/6 4/12/6 37/61/6
f 38/62/5 49/89/5 2/11/5
f 2/11/6 49/89/6 38/62/6
f 50/90/5 29/63/5 26/42/5
f 26/42/6 29/63/6 50/90/6
f 51/91/5 27/43/5 39/64/5
f 39/64/6 27/43/6 51/91/6
f 52/92/5 39/64/5 2/11/5
f 2/11/6 39/64/6 52/92/6
f 33/93/31 28/94/23 53/95/31
f 53/95/32 28/94/24 33/93/32
f 40/96/23 53/95/31 28/94/23
f 28/94/24 53/95/32 40/96/24
f 40/97/5 29/63/5 50/90/5
f 50/90/6 29/63/6 40/97/6
f 54/98/26 41/71/25 30/70/26
f 30/70/28 41/71/27 54/98/28
f 41/99/25 43/75/29 20/74/25
f 20/74/27 43/75/30 41/99/27
f 30/100/26 42/101/35 54/102/26
f 54/102/28 42/101/36 30/100/28
f 44/76/5 21/35/5 55/103/5
f 55/103/6 21/35/6 44/76/6
f 56/104/5 4/12/5 45/77/5
f 45/77/6 4/12/6 56/104/6
f 43/105/5 41/106/5 21/35/5
f 21/35/6 41/106/6 43/105/6
f 53/107/31 46/81/18 33/80/31
f 33/80/32 46/81/20 53/107/32
f 34/108/5 46/109/5 57/110/5
f 57/110/6 46/109/6 34/108/6
f 34/108/5 58/111/5 35/112/5
f 35/112/6 58/111/6 34/108/6
f 35/112/5 59/113/5 47/114/5
f 47/114/6 59/113/6 35/112/6
f 47/115/33 60/116/35 36/117/33
f 36/117/34 60/116/36 47/115/34
f 42/118/35 36/117/33 60/116/35
f 60/116/36 36/117/34 42/118/36
f 48/88/5 4/12/5 61/119/5
f 61/119/6 4/12/6 48/88/6
f 62/120/5 49/89/5 38/62/5
f 38/62/6 49/89/6 62/120/6
f 49/89/5 63/121/5 2/11/5
f 2/11/6 63/121/6 49/89/6
f 64/122/5 51/91/5 39/64/5
f 39/64/6 51/91/6 64/122/6
f 63/121/5 52/92/5 2/11/5
f 2/11/6 52/92/6 63/121/6
f 40/97/5 50/90/5 53/123/5
f 53/123/6 50/90/6 40/97/6
f 54/124/5 55/103/5 41/106/5
f 41/106/6 55/103/6 54/124/6
f 60/125/35 54/102/26 42/101/35
f 42/101/36 54/102/28 60/125/36
f 55/103/5 21/35/5 41/106/5
f 41/106/6 21/35/6 55/103/6
f 65/126/5 4/12/5 56/104/5
f 56/104/6 4/12/6 65/126/6
f 46/109/5 53/123/5 66/127/5
f 66/127/6 53/123/6 46/109/6
f 57/110/5 46/109/5 66/127/5
f 66/127/6 46/109/6 57/110/6
f 57/110/5 67/128/5 34/108/5
f 34/108/6 67/128/6 57/110/6
f 67/128/5 58/111/5 34/108/5
f 34/108/6 58/111/6 67/128/6
f 58/111/5 59/113/5 35/112/5
f 35/112/6 59/113/6 58/111/6
f 59/113/5 68/129/5 47/114/5
f 47/114/6 68/129/6 59/113/6
f 60/130/5 47/114/5 69/131/5
f 69/131/6 47/114/6 60/130/6
f 61/119/5 4/12/5 70/132/5
f 70/132/6 4/12/6 61/119/6
f 71/133/5 49/89/5 62/120/5
f 62/120/6 49/89/6 71/133/6
f 72/134/5 51/91/5 64/122/5
f 64/122/6 51/91/6 72/134/6
f 73/135/5 53/123/5 50/90/5
f 50/90/6 53/123/6 73/135/6
f 69/131/5 55/103/5 54/124/5
f 54/124/6 55/103/6 69/131/6
f 60/130/5 69/131/5 54/124/5
f 54/124/6 69/131/6 60/130/6
f 74/136/5 4/12/5 65/126/5
f 65/126/6 4/12/6 74/136/6
f 75/137/5 65/126/5 56/104/5
f 56/104/6 65/126/6 75/137/6
f 66/127/5 53/123/5 73/135/5
f 73/135/6 53/123/6 66/127/6
f 76/138/5 67/128/5 57/110/5
f 57/110/6 67/128/6 76/138/6
f 68/129/5 69/131/5 47/114/5
f 47/114/6 69/131/6 68/129/6
f 70/132/5 4/12/5 49/89/5
f 49/89/6 4/12/6 70/132/6
f 70/132/5 49/89/5 71/133/5
f 71/133/6 49/89/6 70/132/6
f 77/139/5 51/91/5 72/134/5
f 72/134/6 51/91/6 77/139/6
f 78/140/5 4/12/5 74/136/5
f 74/136/6 4/12/6 78/140/6
f 79/141/5 65/126/5 75/137/5
f 75/137/6 65/126/6 79/141/6
f 80/142/5 67/128/5 76/138/5
f 76/138/6 67/128/6 80/142/6
f 49/89/5 4/12/5 81/143/5
f 81/143/6 4/12/6 49/89/6
f 82/144/5 51/91/5 77/139/5
f 77/139/6 51/91/6 82/144/6
f 81/143/5 4/12/5 78/140/5
f 78/140/6 4/12/6 81/143/6
f 83/145/5 79/141/5 75/137/5
f 75/137/6 79/141/6 83/145/6
f 84/146/5 80/142/5 76/138/5
f 76/138/6 80/142/6 84/146/6
f 49/89/5 81/143/5 85/147/5
f 85/147/6 81/143/6 49/89/6
f 51/91/5 82/144/5 75/137/5
f 75/137/6 82/144/6 51/91/6
f 82/144/5 77/139/5 86/148/5
f 86/148/6 77/139/6 82/144/6
f 82/144/5 83/145/5 75/137/5
f 75/137/6 83/145/6 82/144/6
f 75/137/5 80/142/5 84/146/5
f 84/146/6 80/142/6 75/137/6
f 81/143/5 87/149/5 85/147/5
f 85/147/6 87/149/6 81/143/6
f 51/91/5 75/137/5 84/146/5
f 84/146/6 75/137/6 51/91/6
f 88/150/5 86/148/5 77/139/5
f 77/139/6 86/148/6 88/150/6
f 85/147/5 87/149/5 89/151/5
f 89/151/6 87/149/6 85/147/6
f 90/152/5 86/148/5 88/150/5
f 88/150/6 86/148/6 90/152/6
f 87/149/5 91/153/5 89/151/5
f 89/151/6 91/153/6 87/149/6
f 92/154/5 90/152/5 88/150/5
f 88/150/6 90/152/6 92/154/6
f 89/151/5 91/153/5 93/155/5
f 93/155/6 91/153/6 89/151/6
f 94/156/5 90/152/5 92/154/5
f 92/154/6 90/152/6 94/156/6
f 91/153/5 94/156/5 93/155/5
f 93/155/6 94/156/6 91/153/6
f 93/155/5 94/156/5 92/154/5
f 92/154/6 94/156/6 93/155/6
usemtl material_1_0
f 3/157/6 6/158/6 1/159/6
f 11/160/6 1/159/6 6/158/6
f 1/159/6 13/161/6 7/162/6
f 19/163/6 1/159/6 11/160/6
f 7/162/6 20/164/6 12/165/6
f 13/161/6 1/159/6 22/166/6
f 13/161/6 23/167/6 7/162/6
f 28/168/6 1/159/6 19/163/6
f 30/169/6 20/164/6 7/162/6
f 31/170/6 12/165/6 20/164/6
f 22/166/6 1/159/6 33/171/6
f 23/167/6 36/172/6 7/162/6
f 33/171/6 1/159/6 28/168/6
f 42/173/6 30/169/6 7/162/6
f 36/172/6 42/173/6 7/162/6
