# SSTK version 0.8.0
# 54
mtllib original-54.mtl
o db1l_3_1/db1l_3/mesh35/mesh35-geometry#mesh35-geometry
v -0.501014 0.418523 -0.436485
v -0.501014 0.306511 0.482015
v -0.501014 0.418523 0.482015
v -0.501014 0.306511 -0.436485
v -0.478612 0.418523 0.482015
v -0.478612 0.306511 -0.436485
v -0.478612 0.418523 -0.436485
v -0.478612 0.306511 0.482015
vn -1 0 0
vn 1 0 0
vn 0 1 0
vn 0 -1 0
usemtl material_0_0
f 1//1 2//1 3//1
f 2//1 1//1 4//1
f 3//2 2//2 1//2
f 4//2 1//2 2//2
f 5//3 1//3 3//3
f 3//4 1//4 5//4
f 6//4 2//4 4//4
f 4//3 2//3 6//3
f 1//3 5//3 7//3
f 7//4 5//4 1//4
f 2//4 6//4 8//4
f 8//3 6//3 2//3
f 5//2 6//2 7//2
f 7//1 6//1 5//1
f 6//2 5//2 8//2
f 8//1 5//1 6//1
