# SSTK version 0.8.0
# 83
mtllib original-83.mtl
o Table_pt2_1/Table_pt2/mesh128/mesh128-geometry#mesh128-geometry
v 0.739801 0.406440 0.225736
v 0.739801 0.406440 -0.256277
v 0.739801 0.433724 0.225736
v -0.769898 0.406440 0.225736
v 0.739801 0.433724 -0.256277
v -0.769898 0.406440 -0.256277
v -0.769898 0.433724 -0.256277
v -0.769898 0.433724 0.225736
vt 0 0
vt -0.110417 0
vt 0 0.015625
vt 0 0.864583
vt -0.110417 0.864583
vt -0.110417 0.015625
vt -0.345833 0
vt -0.345833 0.015625
vt 0.110417 0.864583
vt 0.110417 0
vt 0.345833 0.015625
vt 0.345833 0
vt 0.110417 0.015625
vn 1 0 0
vn -1 0 0
vn 0 -1 0
vn 0 1 0
vn 0 0 1
vn 0 0 -1
usemtl material_0_0
f 1/1/1 2/2/1 3/3/1
f 3/3/2 2/2/2 1/1/2
f 1/4/3 4/1/3 2/5/3
f 2/5/4 4/1/4 1/4/4
f 5/6/1 3/3/1 2/2/1
f 2/2/2 3/3/2 5/6/2
f 1/7/5 3/8/5 4/1/5
f 4/1/6 3/8/6 1/7/6
f 6/2/3 2/5/3 4/1/3
f 4/1/4 2/5/4 6/2/4
f 5/9/4 7/10/4 3/4/4
f 3/4/3 7/10/3 5/9/3
f 5/11/6 2/12/6 7/3/6
f 7/3/5 2/12/5 5/11/5
f 8/3/5 4/1/5 3/8/5
f 3/8/6 4/1/6 8/3/6
f 6/1/6 7/3/6 2/12/6
f 2/12/5 7/3/5 6/1/5
f 6/10/2 4/1/2 7/13/2
f 7/13/1 4/1/1 6/10/1
f 8/1/4 3/4/4 7/10/4
f 7/10/3 3/4/3 8/1/3
f 8/3/2 7/13/2 4/1/2
f 4/1/1 7/13/1 8/3/1
