# SSTK version 0.8.0
# 58
mtllib original-58.mtl
o C._Middle_Rails2/C._Middle_Rails/mesh47/mesh47-geometry#mesh47-geometry
v 0.341067 -0.272092 0.067995
v 0.337388 -0.272092 -0.082846
v 0.341067 -0.272092 -0.082846
v 0.337388 -0.272092 0.067995
v 0.341067 -0.227944 -0.082846
v 0.341067 -0.264734 -0.082846
v 0.337388 -0.227944 0.067995
v 0.337388 -0.227944 -0.082846
v 0.341067 -0.235302 -0.082846
v 0.341067 -0.264734 0.067995
v 0.341067 -0.227944 0.067995
v 0.341067 -0.235302 0.067995
v 0.344746 -0.264734 -0.082846
v 0.341067 -0.235302 -0.090204
v 0.344746 -0.235302 -0.082846
v 0.344746 -0.264734 -0.090204
v 0.344746 -0.264734 0.067995
v 0.341067 -0.264734 -0.090204
v 0.344746 -0.235302 -0.090204
v 0.348425 -0.235302 -0.082846
v 0.341067 -0.235302 0.075353
v 0.344746 -0.272092 -0.082846
v 0.344746 -0.264734 0.075353
v 0.348425 -0.235302 0.067995
v 0.341067 -0.264734 0.075353
v 0.344746 -0.235302 0.067995
v 0.344746 -0.272092 0.067995
v 0.348425 -0.272092 0.067995
v 0.344746 -0.235302 0.075353
v 0.348425 -0.272092 -0.082846
vt -2.342949 0.020833
vt -0.108974 0
vt -0.108974 0.020833
vt -2.342949 0
vt 0 0
vt -0.054487 0.25
vt -0.054487 0
vt -0.108974 0.041667
vt 0.054487 0
vt 0 0.25
vt 2.342949 0.25
vt 0.108974 0
vt 2.342949 0
vt -0.054487 0.208333
vt -2.342949 0.041667
vt -0.054487 0.041667
vt 0.054487 0.25
vt 0.108974 0.25
vt 2.342949 0.020833
vt 0.108974 0.020833
vt -0.108974 0.25
vt -2.342949 0.208333
vt -0.108974 0.208333
vt 0.054487 0.041667
vt 0 0.208333
vt -2.342949 0.25
vt 0.108974 0.041667
vt 0 0.041667
vt 0.054487 0.208333
vt 0 0.020833
vt 0.108974 0.0625
vt 2.342949 0.041667
vt 2.451923 0.208333
vt 2.342949 0.208333
vt 0.108974 0.208333
vt -2.451923 0.041667
vt 2.342949 0.0625
vt -0.163462 0.208333
vt 2.451923 0.041667
vt 2.451923 0.020833
vt -2.451923 0.020833
vt -0.108974 0.0625
vt 0.163462 0
vt -0.163462 0
vt -2.451923 0.208333
vt 0.163462 0.208333
vt -2.342949 0.0625
vn 0 -1 0
vn 0 0 -1
vn 1 0 0
vn 0 0 1
vn -1 0 0
vn 0 1 0
usemtl material_0_0
f 1/1/1 2/2/1 3/3/1
f 2/2/1 1/1/1 4/4/1
f 2/5/2 5/6/2 3/7/2
f 6/8/3 1/4/3 3/2/3
f 1/9/4 7/10/4 4/5/4
f 7/11/5 2/12/5 4/13/5
f 5/6/2 2/5/2 8/10/2
f 3/7/2 5/6/2 9/14/2
f 1/4/3 6/8/3 10/15/3
f 3/7/2 9/14/2 6/16/2
f 7/10/4 1/9/4 11/17/4
f 2/12/5 7/11/5 8/18/5
f 8/12/6 11/19/6 5/20/6
f 5/21/3 12/22/3 9/23/3
f 6/3/1 13/8/1 10/1/1
f 11/17/4 1/9/4 10/24/4
f 9/23/5 14/25/5 6/8/5
f 11/19/6 8/12/6 7/13/6
f 12/22/3 5/21/3 11/26/3
f 15/27/6 9/20/6 12/19/6
f 6/3/1 16/28/1 13/8/1
f 10/1/1 13/8/1 17/15/1
f 11/17/4 10/24/4 12/29/4
f 18/28/5 6/8/5 14/25/5
f 9/20/6 19/28/6 14/30/6
f 19/28/6 9/20/6 15/27/6
f 15/27/6 12/19/6 20/31/6
f 10/32/5 21/33/5 12/34/5
f 16/28/1 6/3/1 18/30/1
f 13/27/3 16/28/3 15/35/3
f 22/12/5 17/32/5 13/27/5
f 10/1/1 17/15/1 23/36/1
f 19/23/2 18/16/2 14/14/2
f 19/25/3 15/35/3 16/28/3
f 20/31/6 12/19/6 24/37/6
f 20/38/2 13/8/2 15/23/2
f 21/33/5 10/32/5 25/39/5
f 26/32/6 12/19/6 21/40/6
f 18/16/2 19/23/2 16/8/2
f 17/32/5 22/12/5 27/13/5
f 13/8/2 20/38/2 22/2/2
f 26/22/3 23/36/3 17/15/3
f 10/1/1 23/36/1 25/41/1
f 24/37/6 12/19/6 26/32/6
f 28/4/3 20/23/3 24/22/3
f 23/27/4 21/29/4 25/24/4
f 26/32/6 21/40/6 29/39/6
f 30/42/1 27/15/1 22/8/1
f 28/43/4 17/27/4 27/12/4
f 22/2/2 20/38/2 30/44/2
f 23/36/3 26/22/3 29/45/3
f 17/27/4 28/43/4 26/35/4
f 26/35/4 28/43/4 24/46/4
f 20/23/3 28/4/3 30/2/3
f 21/29/4 23/27/4 29/35/4
f 27/15/1 30/42/1 28/47/1
usemtl material_1_0
f 3//6 2//6 1//6
f 4//6 1//6 2//6
f 3//4 5//4 2//4
f 3//5 1//5 6//5
f 4//2 7//2 1//2
f 4//3 2//3 7//3
f 8//4 2//4 5//4
f 9//4 5//4 3//4
f 10//5 6//5 1//5
f 6//4 9//4 3//4
f 11//2 1//2 7//2
f 8//3 7//3 2//3
f 5//1 11//1 8//1
f 9//5 12//5 5//5
f 10//6 13//6 6//6
f 9//3 10//3 6//3
f 6//5 10//5 9//5
f 10//2 1//2 11//2
f 6//3 14//3 9//3
f 7//1 8//1 11//1
f 11//5 5//5 12//5
f 12//1 9//1 15//1
f 10//3 9//3 12//3
f 12//5 9//5 10//5
f 13//6 16//6 6//6
f 17//6 13//6 10//6
f 12//2 10//2 11//2
f 14//3 6//3 18//3
f 14//1 19//1 9//1
f 15//1 9//1 19//1
f 20//1 12//1 15//1
f 12//3 21//3 10//3
f 18//6 6//6 16//6
f 15//5 16//5 13//5
f 13//3 17//3 22//3
f 23//6 17//6 10//6
f 14//4 18//4 19//4
f 16//5 15//5 19//5
f 24//1 12//1 20//1
f 15//4 13//4 20//4
f 25//3 10//3 21//3
f 21//1 12//1 26//1
f 16//4 19//4 18//4
f 27//3 22//3 17//3
f 22//4 20//4 13//4
f 17//5 23//5 26//5
f 25//6 23//6 10//6
f 26//1 12//1 24//1
f 24//5 20//5 28//5
f 25//2 21//2 23//2
f 29//1 21//1 26//1
f 22//6 27//6 30//6
f 27//2 17//2 28//2
f 30//4 20//4 22//4
f 29//5 26//5 23//5
f 26//2 28//2 17//2
f 24//2 28//2 26//2
f 30//5 28//5 20//5
f 29//2 23//2 21//2
f 28//6 30//6 27//6
