# SSTK version 0.8.0
# 125
mtllib original-125.mtl
o J._Face_frame_Rails2/J._Face_frame_Rails/mesh1/mesh1-geometry#mesh1-geometry
v 0.396253 -0.478118 0.101106
v 0.366821 -0.478118 0.112143
v 0.366821 -0.478118 0.101106
v 0.396253 -0.478118 0.112143
v 0.366821 -0.404537 0.101106
v 0.396253 -0.474439 0.101106
v 0.366821 -0.404537 0.112143
v 0.396253 -0.474439 0.112143
v 0.749440 -0.404537 0.112143
v 0.422879 -0.468835 0.101106
v 0.422879 -0.468835 0.112143
v 0.749440 -0.404537 0.101106
v 0.558131 -0.456044 0.112143
v 0.449698 -0.464239 0.101106
v 0.449698 -0.464239 0.112143
v 0.749440 -0.478118 0.101106
v 0.558131 -0.456044 0.101106
v 0.530926 -0.456557 0.112143
v 0.585335 -0.456557 0.112143
v 0.476671 -0.460657 0.101106
v 0.476671 -0.460657 0.112143
v 0.749440 -0.478118 0.112143
v 0.720008 -0.478118 0.101106
v 0.585335 -0.456557 0.101106
v 0.530926 -0.456557 0.101106
v 0.503760 -0.458095 0.112143
v 0.612501 -0.458095 0.112143
v 0.503760 -0.458095 0.101106
v 0.720008 -0.478118 0.112143
v 0.720008 -0.474439 0.101106
v 0.612501 -0.458095 0.101106
v 0.639590 -0.460657 0.112143
v 0.720008 -0.474439 0.112143
v 0.693382 -0.468835 0.101106
v 0.639590 -0.460657 0.101106
v 0.666563 -0.464239 0.112143
v 0.693382 -0.468835 0.112143
v 0.666563 -0.464239 0.101106
vt -0.435897 0.0625
vt 0 0
vt 0 0.0625
vt -0.435897 0
vt 0 -0.166667
vt -0.163462 0.25
vt -0.163462 -0.166667
vt 0 0.25
vt -0.435897 -0.166667
vt 0.163462 -0.145833
vt 0.163462 -0.166667
vt 0.435897 -0.166667
vt -0.435897 -0.145833
vt 0 -0.145833
vt 0.435897 -0.145833
vt 5.666667 0
vt -0.830238 -0.114099
vt 4.43304 0
vt 4.836044 -0.0625
vt 4.836044 0
vt 0.830238 -0.114099
vt 5.666667 0.0625
vt 2.833333 -0.041667
vt 5.666667 0.25
vt -1.227427 -0.088073
vt 4.43304 -0.0625
vt 1.227427 -0.088073
vt 0.163462 0.25
vt -5.666667 0.25
vt -2.833333 -0.041667
vt 2.430425 -0.044572
vt 3.236241 -0.044572
vt -1.626901 -0.067792
vt 4.030037 0
vt 4.030037 -0.0625
vt 1.626901 -0.067792
vt -5.230769 -0.166667
vt -5.666667 -0.166667
vt -3.236241 -0.044572
vt -2.430425 -0.044572
vt 2.02809 -0.053285
vt 2.821026 -0.0625
vt 2.418022 0
vt 2.418022 -0.0625
vt 3.638576 -0.053285
vt 2.015018 0
vt 2.015018 -0.0625
vt -2.02809 -0.053285
vt 3.627033 0
vt 3.627033 -0.0625
vt 5.230769 -0.166667
vt 5.666667 -0.166667
vt -5.230769 0
vt -5.666667 0.0625
vt -5.666667 0
vt -5.230769 -0.145833
vt -5.230769 0.0625
vt -3.638576 -0.053285
vt 2.821026 0
vt 3.224029 -0.0625
vt 4.039766 -0.067792
vt 1.612015 0
vt 1.612015 -0.0625
vt 3.224029 0
vt 5.230769 -0.145833
vt -0.163462 -0.145833
vt -4.836429 -0.114099
vt -4.039766 -0.067792
vt 4.43924 -0.088073
vt 1.209011 0
vt 1.209011 -0.0625
vt 4.836429 -0.114099
vt 0.403004 -0.0625
vt 0.403004 0
vt -4.43924 -0.088073
vt 0.806007 0
vt 0.806007 -0.0625
vt 0 -0.0625
vn 0 -1 0
vn -1 0 0
vn 0 0 -1
vn 1 0 0
vn 0 0 1
vn 0 1 0
vn 0.1874690957160269 -0.9822705015174868 0
vn 0.20595892375381458 -0.9785606377359404 0
vn 0.15029600642537988 -0.9886410422658884 0
vn 0.037707992481309856 -0.9992888007493277 0
vn -0.037707992481309856 -0.9992888007493277 0
vn 0.11291002460733117 -0.9936052165438605 0
vn 0.07536201811024876 -0.9971562396266449 0
vn -0.07536201811024876 -0.9971562396266449 0
vn -0.11291002460733117 -0.9936052165438605 0
vn -0.20595892375381458 -0.9785606377359404 0
vn -0.1874690957160269 -0.9822705015174868 0
vn -0.15029600642537988 -0.9886410422658884 0
vn -0.20595892375381458 0.9785606377359404 0
vn -0.1874690957160269 0.9822705015174868 0
vn -0.15029600642537988 0.9886410422658884 0
vn -0.037707992481309856 0.9992888007493277 0
vn 0.037707992481309856 0.9992888007493277 0
vn -0.11291002460733117 0.9936052165438605 0
vn -0.07536201811024876 0.9971562396266449 0
vn 0.07536201811024876 0.9971562396266449 0
vn 0.11291002460733117 0.9936052165438605 0
vn 0.1874690957160269 0.9822705015174868 0
vn 0.20595892375381458 0.9785606377359404 0
vn 0.15029600642537988 0.9886410422658884 0
usemtl material_0_0
f 1/1/1 2/2/1 3/3/1
f 2/2/1 1/1/1 4/4/1
f 2/5/2 5/6/2 3/7/2
f 5/8/3 1/9/3 3/5/3
f 6/10/4 4/5/4 1/11/4
f 4/12/5 7/8/5 2/5/5
f 5/6/2 2/5/2 7/8/2
f 1/9/3 5/8/3 6/13/3
f 4/5/4 6/10/4 8/14/4
f 7/8/5 4/12/5 8/15/5
f 9/16/6 5/3/6 7/2/6
f 6/13/3 5/8/3 10/17/3
f 10/18/7 8/19/8 6/20/8
f 7/8/5 8/15/5 11/21/5
f 5/3/6 9/16/6 12/22/6
f 7/8/5 13/23/5 9/24/5
f 10/17/3 5/8/3 14/25/3
f 8/19/8 10/18/7 11/26/7
f 7/8/5 11/21/5 15/27/5
f 9/8/4 16/11/4 12/28/4
f 12/29/3 17/30/3 5/8/3
f 7/8/5 18/31/5 13/23/5
f 19/32/5 9/24/5 13/23/5
f 14/25/3 5/8/3 20/33/3
f 14/34/9 11/26/7 10/18/7
f 11/26/7 14/34/9 15/35/9
f 7/8/5 15/27/5 21/36/5
f 16/11/4 9/8/4 22/5/4
f 23/37/3 12/29/3 16/38/3
f 12/29/3 24/39/3 17/30/3
f 25/40/3 5/8/3 17/30/3
f 7/8/5 26/41/5 18/31/5
f 18/42/10 17/43/1 13/44/1
f 27/45/5 9/24/5 19/32/5
f 13/44/1 24/46/11 19/47/11
f 20/33/3 5/8/3 28/48/3
f 20/49/12 15/35/9 14/34/9
f 15/35/9 20/49/12 21/50/12
f 7/8/5 21/36/5 26/41/5
f 9/24/5 29/51/5 22/52/5
f 29/53/1 16/54/1 22/55/1
f 12/29/3 23/37/3 30/56/3
f 16/54/1 29/53/1 23/57/1
f 12/29/3 31/58/3 24/39/3
f 24/46/11 13/44/1 17/43/1
f 28/48/3 5/8/3 25/40/3
f 17/43/1 18/42/10 25/59/10
f 26/60/13 25/59/10 18/42/10
f 32/61/5 9/24/5 27/45/5
f 19/47/11 31/62/14 27/63/14
f 31/62/14 19/47/11 24/46/11
f 28/64/13 21/50/12 20/49/12
f 21/50/12 28/64/13 26/60/13
f 29/51/5 9/24/5 33/65/5
f 29/5/2 30/66/2 23/7/2
f 12/29/3 30/56/3 34/67/3
f 12/29/3 35/68/3 31/58/3
f 25/59/10 26/60/13 28/64/13
f 36/69/5 9/24/5 32/61/5
f 27/63/14 35/70/15 32/71/15
f 35/70/15 27/63/14 31/62/14
f 33/65/5 9/24/5 37/72/5
f 30/66/2 29/5/2 33/14/2
f 30/2/16 37/73/17 34/74/17
f 12/29/3 34/67/3 38/75/3
f 12/29/3 38/75/3 35/68/3
f 37/72/5 9/24/5 36/69/5
f 32/71/15 38/76/18 36/77/18
f 38/76/18 32/71/15 35/70/15
f 37/73/17 30/2/16 33/78/16
f 36/77/18 34/74/17 37/73/17
f 34/74/17 36/77/18 38/76/18
usemtl material_1_0
f 3//6 2//6 1//6
f 4//6 1//6 2//6
f 3//4 5//4 2//4
f 3//5 1//5 5//5
f 1//2 4//2 6//2
f 2//3 7//3 4//3
f 7//4 2//4 5//4
f 6//5 5//5 1//5
f 8//2 6//2 4//2
f 8//3 4//3 7//3
f 7//1 5//1 9//1
f 10//5 5//5 6//5
f 6//19 8//19 10//20
f 11//3 8//3 7//3
f 12//1 9//1 5//1
f 9//3 13//3 7//3
f 14//5 5//5 10//5
f 11//20 10//20 8//19
f 15//3 11//3 7//3
f 12//2 16//2 9//2
f 5//5 17//5 12//5
f 13//3 18//3 7//3
f 13//3 9//3 19//3
f 20//5 5//5 14//5
f 10//20 11//20 14//21
f 15//21 14//21 11//20
f 21//3 15//3 7//3
f 22//2 9//2 16//2
f 16//5 12//5 23//5
f 17//5 24//5 12//5
f 17//5 5//5 25//5
f 18//3 26//3 7//3
f 13//6 17//6 18//22
f 19//3 9//3 27//3
f 19//23 24//23 13//6
f 28//5 5//5 20//5
f 14//21 15//21 20//24
f 21//24 20//24 15//21
f 26//3 21//3 7//3
f 22//3 29//3 9//3
f 22//6 16//6 29//6
f 30//5 23//5 12//5
f 23//6 29//6 16//6
f 24//5 31//5 12//5
f 17//6 13//6 24//23
f 25//5 5//5 28//5
f 25//22 18//22 17//6
f 18//22 25//22 26//25
f 27//3 9//3 32//3
f 27//26 31//26 19//23
f 24//23 19//23 31//26
f 20//24 21//24 28//25
f 26//25 28//25 21//24
f 33//3 9//3 29//3
f 23//4 30//4 29//4
f 34//5 30//5 12//5
f 31//5 35//5 12//5
f 28//25 26//25 25//22
f 32//3 9//3 36//3
f 32//27 35//27 27//26
f 31//26 27//26 35//27
f 37//3 9//3 33//3
f 33//4 29//4 30//4
f 34//28 37//28 30//29
f 38//5 34//5 12//5
f 35//5 38//5 12//5
f 36//3 9//3 37//3
f 36//30 38//30 32//27
f 35//27 32//27 38//30
f 33//29 30//29 37//28
f 37//28 34//28 36//30
f 38//30 36//30 34//28
