# SSTK version 0.8.0
# 57
mtllib original-57.mtl
o G._Rails7/G._Rails/mesh22/mesh22-geometry#mesh22-geometry
v 0.767836 -0.422932 0.075353
v 0.767836 -0.426611 0.067995
v 0.767836 -0.422932 0.067995
v 0.767836 -0.426611 0.075353
v 0.767836 -0.430291 0.067995
v 0.742082 -0.422932 0.067995
v 0.742082 -0.426611 0.075353
v 0.767836 -0.419253 0.067995
v 0.734724 -0.430291 0.067995
v 0.742082 -0.422932 0.075353
v 0.742082 -0.426611 0.067995
v 0.767836 -0.430291 -0.079167
v 0.734724 -0.426611 0.067995
v 0.734724 -0.422932 0.067995
v 0.767836 -0.426611 -0.079167
v 0.734724 -0.426611 -0.079167
v 0.734724 -0.430291 -0.079167
v 0.734724 -0.419253 0.067995
v 0.742082 -0.422932 -0.079167
v 0.767836 -0.422932 -0.079167
v 0.734724 -0.419253 -0.079167
v 0.734724 -0.422932 -0.079167
v 0.742082 -0.426611 -0.079167
v 0.767836 -0.419253 -0.079167
v 0.767836 -0.426611 -0.086525
v 0.742082 -0.422932 -0.086525
v 0.767836 -0.422932 -0.086525
v 0.742082 -0.426611 -0.086525
vt -2.397436 0.041667
vt -2.288462 0.020833
vt -2.288462 0.041667
vt -2.397436 0.020833
vt -2.288462 0
vt -2.288462 0.145833
vt -2.397436 0
vt 0.108974 0
vt 0.054487 0.145833
vt 0.054487 0
vt 2.397436 0.145833
vt 2.288462 0
vt 2.397436 0
vt -2.288462 0.0625
vt 0 0.1875
vt 0 0
vt -2.397436 0.145833
vt 0.163462 0
vt 0.108974 0.145833
vt 2.288462 0.145833
vt -0.108974 0
vt 0.054487 0.1875
vt 2.288462 0.1875
vt 2.288462 0.041667
vt 2.397436 0.020833
vt 2.397436 0.041667
vt 0.108974 0.1875
vt 2.288462 0.020833
vt -0.108974 0.020833
vt 0.108974 0.020833
vt 0.163462 0.1875
vt 0.108974 0.041667
vt -0.108974 0.1875
vt -2.288462 0.1875
vt -0.108974 0.041667
vt -0.054487 0.1875
vt -0.054487 0
vt 0.108974 0.0625
vt 2.288462 0.0625
vt -0.108974 0.145833
vt -0.108974 0.0625
vt 0 0.020833
vt -0.054487 0.145833
vt -0.163462 0.1875
vt 0 0.041667
vt -0.163462 0
vt 0 0.145833
vn 1 0 0
vn 0 1 0
vn 0 0 1
vn 0 -1 0
vn -1 0 0
vn 0 0 -1
usemtl material_0_0
f 1/1/1 2/2/1 3/3/1
f 2/2/1 1/1/1 4/4/1
f 5/5/1 3/3/1 2/2/1
f 6/6/2 1/7/2 3/5/2
f 1/8/3 7/9/3 4/10/3
f 7/11/4 2/12/4 4/13/4
f 5/5/1 8/14/1 3/3/1
f 2/10/3 9/15/3 5/16/3
f 1/7/2 6/6/2 10/17/2
f 8/18/3 6/19/3 3/8/3
f 7/9/3 1/8/3 10/19/3
f 2/12/4 7/11/4 11/20/4
f 12/21/1 8/14/1 5/5/1
f 9/15/3 2/10/3 13/22/3
f 9/23/4 12/8/4 5/12/4
f 6/24/5 7/25/5 10/26/5
f 6/19/3 8/18/3 14/27/3
f 6/24/5 11/28/5 7/25/5
f 13/22/3 2/10/3 11/9/3
f 15/29/1 8/14/1 12/21/1
f 16/30/5 9/12/5 13/28/5
f 12/8/4 9/23/4 17/27/4
f 14/27/3 8/18/3 18/31/3
f 14/23/4 19/19/4 6/20/4
f 19/32/5 11/28/5 6/24/5
f 11/6/2 16/33/2 13/34/2
f 20/35/1 8/14/1 15/29/1
f 12/16/6 16/36/6 15/37/6
f 9/12/5 16/30/5 17/8/5
f 16/36/6 12/16/6 17/15/6
f 8/5/2 21/33/2 18/34/2
f 21/38/5 14/24/5 18/39/5
f 19/19/4 14/23/4 22/27/4
f 19/32/5 23/30/5 11/28/5
f 16/33/2 11/6/2 23/40/2
f 8/14/1 20/35/1 24/41/1
f 25/42/1 20/35/1 15/29/1
f 15/37/6 16/36/6 23/43/6
f 21/33/2 8/5/2 24/21/2
f 14/24/5 21/38/5 22/32/5
f 21/44/6 19/40/6 22/33/6
f 26/45/5 23/30/5 19/32/5
f 20/21/6 21/44/6 24/46/6
f 20/35/1 25/42/1 27/45/1
f 23/19/4 25/16/4 15/8/4
f 19/40/6 21/44/6 20/21/6
f 23/30/5 26/45/5 28/42/5
f 20/21/2 26/47/2 19/40/2
f 26/47/2 20/21/2 27/16/2
f 25/16/4 23/19/4 28/47/4
usemtl material_1_0
f 3//5 2//5 1//5
f 4//5 1//5 2//5
f 2//5 3//5 5//5
f 3//4 1//4 6//4
f 4//6 7//6 1//6
f 4//2 2//2 7//2
f 3//5 8//5 5//5
f 5//6 9//6 2//6
f 10//4 6//4 1//4
f 3//6 6//6 8//6
f 10//6 1//6 7//6
f 11//2 7//2 2//2
f 5//5 8//5 12//5
f 13//6 2//6 9//6
f 5//2 12//2 9//2
f 10//1 7//1 6//1
f 14//6 8//6 6//6
f 7//1 11//1 6//1
f 11//6 2//6 13//6
f 12//5 8//5 15//5
f 13//1 9//1 16//1
f 17//2 9//2 12//2
f 18//6 8//6 14//6
f 6//2 19//2 14//2
f 6//1 11//1 19//1
f 13//4 16//4 11//4
f 15//5 8//5 20//5
f 15//3 16//3 12//3
f 17//1 16//1 9//1
f 17//3 12//3 16//3
f 18//4 21//4 8//4
f 18//1 14//1 21//1
f 22//2 14//2 19//2
f 11//1 23//1 19//1
f 23//4 11//4 16//4
f 24//5 20//5 8//5
f 15//5 20//5 25//5
f 23//3 16//3 15//3
f 24//4 8//4 21//4
f 22//1 21//1 14//1
f 22//3 19//3 21//3
f 19//1 23//1 26//1
f 24//3 21//3 20//3
f 27//5 25//5 20//5
f 15//2 25//2 23//2
f 20//3 21//3 19//3
f 28//1 26//1 23//1
f 19//4 26//4 20//4
f 25//6 26//6 27//6
f 27//3 26//3 25//3
f 27//4 20//4 26//4
f 28//2 23//2 25//2
f 26//6 25//6 28//6
f 28//3 25//3 26//3
