# SSTK version 0.8.0
# 88
mtllib original-88.mtl
o F._Stiles10/F._Stiles12/mesh29/mesh29-geometry#mesh29-geometry
v 0.348425 -0.430291 0.101106
v 0.348425 -0.419253 0.101106
v 0.348425 -0.430291 0.067995
v 0.767836 -0.430291 0.101106
v 0.348425 -0.426611 0.075353
v 0.767836 -0.430291 0.067995
v 0.767836 -0.419253 0.101106
v 0.348425 -0.426611 0.067995
v 0.348425 -0.422932 0.075353
v 0.767836 -0.426611 0.067995
v 0.767836 -0.426611 0.075353
v 0.767836 -0.419253 0.067995
v 0.348425 -0.419253 0.067995
v 0.767836 -0.422932 0.075353
v 0.348425 -0.422932 0.067995
v 0.767836 -0.422932 0.067995
vt 0 0
vt 0 0.0625
vt 0.490385 0
vt 0 2.375
vt -0.163462 2.375
vt 0.38141 0.020833
vt 0.490385 2.375
vt -0.163462 0
vt 0.490385 0.020833
vt 0.38141 0.041667
vt 0.054487 0
vt -0.490385 0
vt -0.38141 0.020833
vt -0.490385 0.0625
vt 0.054487 2.375
vt -0.490385 2.375
vt -0.38141 2.375
vt 0.490385 0.0625
vt 0.108974 2.375
vt -0.490385 0.020833
vt -0.38141 0.041667
vt -0.38141 0
vt 0.490385 0.041667
vt 0.108974 0
vt 0.163462 0
vt 0.163462 2.375
vt -0.490385 0.041667
vt 0.38141 2.375
vt 0.38141 0
vn -1 0 0
vn 0 0 1
vn 0 -1 0
vn 0 0 -1
vn 1 0 0
vn 0 1 0
usemtl material_0_0
f 1/1/1 2/2/1 3/3/1
f 1/4/2 4/1/2 2/5/2
f 5/6/1 3/3/1 2/2/1
f 3/7/3 6/3/3 1/4/3
f 4/1/3 1/4/3 6/3/3
f 7/8/2 2/5/2 4/1/2
f 8/9/1 3/3/1 5/6/1
f 5/6/1 2/2/1 9/10/1
f 6/1/4 3/4/4 10/11/4
f 6/12/5 11/13/5 4/1/5
f 7/1/6 12/12/6 2/4/6
f 7/2/5 4/1/5 12/14/5
f 8/15/4 10/11/4 3/4/4
f 8/16/6 5/17/6 10/12/6
f 13/18/1 9/10/1 2/2/1
f 5/15/4 9/19/4 11/11/4
f 10/20/5 11/13/5 6/12/5
f 14/21/5 4/1/5 11/13/5
f 13/16/6 2/4/6 12/12/6
f 14/21/5 12/14/5 4/1/5
f 11/22/6 10/12/6 5/17/6
f 15/23/1 9/10/1 13/18/1
f 14/24/4 11/11/4 9/19/4
f 12/25/4 16/24/4 13/26/4
f 16/27/5 12/14/5 14/21/5
f 15/7/3 16/3/3 9/28/3
f 15/19/4 13/26/4 16/24/4
f 14/29/3 9/28/3 16/3/3
usemtl material_1_0
f 3//5 2//5 1//5
f 2//4 4//4 1//4
f 2//5 3//5 5//5
f 1//6 6//6 3//6
f 6//6 1//6 4//6
f 4//4 2//4 7//4
f 5//5 3//5 8//5
f 9//5 2//5 5//5
f 10//2 3//2 6//2
f 4//1 11//1 6//1
f 2//3 12//3 7//3
f 12//1 4//1 7//1
f 3//2 10//2 8//2
f 10//3 5//3 8//3
f 2//5 9//5 13//5
f 11//2 9//2 5//2
f 6//1 11//1 10//1
f 11//1 4//1 14//1
f 12//3 2//3 13//3
f 4//1 12//1 14//1
f 5//3 10//3 11//3
f 13//5 9//5 15//5
f 9//2 11//2 14//2
f 13//2 16//2 12//2
f 14//1 12//1 16//1
f 9//6 16//6 15//6
f 16//2 13//2 15//2
f 16//6 9//6 14//6
