# SSTK version 0.8.0
# 10
mtllib original-10.mtl
o P._Crown_Bevel_Front1/P._Crown_Bevel_Front/mesh11/mesh11-geometry#mesh11-geometry
v -0.316560 0.581444 0.120421
v -0.781039 0.592596 0.126859
v -0.774600 0.581444 0.120421
v -0.310122 0.592596 0.126859
v -0.781039 0.595241 0.126859
v -0.773681 0.581444 0.119501
v -0.316560 0.586963 0.120421
v -0.310122 0.595241 0.126859
v -0.779199 0.595241 0.125020
v -0.317480 0.581444 0.119501
v -0.774600 0.586963 0.120421
v -0.316560 0.588803 0.120421
v -0.317480 0.586963 0.119501
v -0.311962 0.595241 0.125020
v -0.779199 0.597080 0.125020
v -0.773681 0.586963 0.119501
v -0.777360 0.599840 0.123180
v -0.317480 0.588803 0.119501
v -0.317480 0.599840 0.119501
v -0.311962 0.597080 0.125020
v -0.777360 0.598920 0.123180
v -0.774600 0.588803 0.120421
v -0.773681 0.588803 0.119501
v -0.310122 0.597080 0.126859
v -0.779199 0.598920 0.125020
v -0.313801 0.599840 0.123180
v -0.773681 0.599840 0.119501
v -0.313801 0.598920 0.123180
v -0.781039 0.597080 0.126859
v -0.310122 0.599840 0.126859
v -0.779199 0.599840 0.125020
v -0.311962 0.598920 0.125020
v -0.781039 0.599840 0.126859
v -0.311962 0.599840 0.125020
vt 6.879006 -0.018229
vt 0 0.054687
vt 0.095353 -0.018229
vt 6.974359 0.054687
vt 0 0.078125
vt -0.134849 0
vt 0 0.063148
vt 4.796768 0
vt 4.796768 0.03125
vt 4.931617 0.063148
vt 6.974359 0.078125
vt 6.974359 0.063148
vt -0.038528 0.078125
vt -0.134849 0.03125
vt -0.154113 0
vt 4.796768 0.041667
vt 4.777504 0.03125
vt 4.893088 0.078125
vt 4.931617 0.078125
vt 6.974359 0
vt 0.027244 0.010417
vt 0 0
vt -0.038528 0.088542
vt -0.108974 0
vt -6.865385 0.03125
vt -6.865385 0
vt 4.777504 0
vt -0.154113 0.03125
vt -0.077057 0.104167
vt 4.777504 0.041667
vt -0.095353 0.03125
vt -6.879006 0.041667
vt -6.879006 0.03125
vt 0.108974 0.041667
vt 6.879006 0.036458
vt 6.865385 0.041667
vt 6.947115 0.010417
vt 4.777504 0.104167
vt 0.027244 0.078125
vt 6.947115 0.088542
vt 0.027244 0.088542
vt -0.077057 0.098958
vt -0.108974 0.03125
vt 0.095353 0.036458
vt -0.134849 0.041667
vt -6.879006 0.036458
vt -0.108974 0.041667
vt -6.865385 0.041667
vt -0.095353 0.041667
vt 6.947115 0.078125
vt 4.893088 0.088542
vt -6.974359 0
vt -0.027244 0.010417
vt -6.947115 0.010417
vt -0.038528 0.098958
vt 0.054487 0.098958
vt 6.919872 0.104167
vt 0.054487 0.104167
vt -0.154113 0.104167
vt -6.865385 0.104167
vt -0.095353 0.036458
vt 4.85456 0.098958
vt 4.931617 0.088542
vt 4.931617 0.104167
vt -0.038528 0.104167
vt 0.054487 0.020833
vt 6.919872 0.098958
vt 6.919872 0.020833
vt -0.154113 0.041667
vt -0.108974 0.104167
vt 4.893088 0.098958
vt 4.85456 0.104167
vt 6.974359 0.104167
vt 0 0.088542
vt 6.974359 0.088542
vt 0 0.104167
vt -6.947115 0.104167
vt -0.027244 0.098958
vt -0.027244 0.104167
vt -6.947115 0.098958
vt 4.893088 0.104167
vn 0 -0.500000174843842 0.8660253028382761
vn -0.7071067811865476 0 -0.7071067811865476
vn 0.7071067811865476 0 -0.7071067811865476
vn 0 0 1
vn 0 1 0
vn 0 0 -1
vn 0 -1 0
vn 0 0.500000174843842 -0.8660253028382761
vn 0.7071067811865476 0 0.7071067811865476
vn -0.7071067811865476 0 0.7071067811865476
usemtl material_0_0
f 1/1/1 2/2/1 3/3/1
f 2/2/1 1/1/1 4/4/1
f 5/5/2 3/6/2 2/7/2
f 1/8/3 7/9/3 4/10/3
f 8/11/4 2/7/4 4/12/4
f 3/6/2 5/5/2 9/13/2
f 2/7/4 8/11/4 5/5/4
f 11/14/2 6/15/2 3/6/2
f 12/16/3 4/10/3 7/9/3
f 7/9/3 1/8/3 13/17/3
f 4/10/3 14/18/3 8/19/3
f 8/20/5 9/21/5 5/22/5
f 3/6/2 9/13/2 15/23/2
f 6/24/6 13/25/6 10/26/6
f 10/27/3 13/17/3 1/8/3
f 6/15/2 11/14/2 16/28/2
f 3/6/2 17/29/2 11/14/2
f 18/30/3 4/10/3 12/16/3
f 11/31/6 12/32/6 7/33/6
f 16/34/5 7/35/5 13/36/5
f 9/21/5 8/20/5 14/37/5
f 14/18/3 4/10/3 19/38/3
f 9/39/4 20/40/4 15/41/4
f 3/6/2 15/23/2 21/42/2
f 13/25/6 6/24/6 16/43/6
f 7/35/5 16/34/5 11/44/5
f 3/6/2 21/42/2 17/29/2
f 11/14/2 17/29/2 22/45/2
f 19/38/3 4/10/3 18/30/3
f 12/46/7 23/47/7 18/48/7
f 12/32/6 11/31/6 22/49/6
f 20/40/4 9/39/4 14/50/4
f 20/51/3 14/18/3 19/38/3
f 24/52/7 15/53/7 20/54/7
f 15/23/2 25/55/2 21/42/2
f 21/56/4 26/57/4 17/58/4
f 22/45/2 17/29/2 27/59/2
f 23/47/6 19/60/6 18/48/6
f 23/47/7 12/46/7 22/61/7
f 28/62/3 20/51/3 19/38/3
f 15/53/7 24/52/7 29/22/7
f 24/63/3 20/51/3 30/64/3
f 15/23/2 31/65/2 25/55/2
f 32/37/5 21/66/5 25/21/5
f 26/57/4 21/56/4 28/67/4
f 26/68/5 27/34/5 17/66/5
f 22/45/2 27/59/2 23/69/2
f 19/60/6 23/47/6 27/70/6
f 32/71/3 20/51/3 28/62/3
f 26/72/3 28/62/3 19/38/3
f 30/73/4 29/74/4 24/75/4
f 33/76/2 15/23/2 29/74/2
f 32/71/3 30/64/3 20/51/3
f 15/23/2 33/76/2 31/65/2
f 34/77/6 25/78/6 31/79/6
f 21/66/5 32/37/5 28/68/5
f 25/78/6 34/77/6 32/80/6
f 27/34/5 26/68/5 19/36/5
f 29/74/4 30/73/4 33/76/4
f 34/81/3 30/64/3 32/71/3
f 30/20/5 31/21/5 33/22/5
f 31/21/5 30/20/5 34/37/5
usemtl material_1_0
f 3//8 2//8 1//8
f 4//8 1//8 2//8
f 2//9 3//9 5//9
f 6//7 1//7 3//7
f 3//5 1//5 6//5
f 4//10 7//10 1//10
f 4//6 2//6 8//6
f 9//9 5//9 3//9
f 5//6 8//6 2//6
f 1//7 6//7 10//7
f 10//5 6//5 1//5
f 3//9 6//9 11//9
f 7//10 4//10 12//10
f 13//10 1//10 7//10
f 8//10 14//10 4//10
f 5//7 9//7 8//7
f 15//9 9//9 3//9
f 10//4 13//4 6//4
f 1//10 13//10 10//10
f 16//9 11//9 6//9
f 11//9 17//9 3//9
f 12//10 4//10 18//10
f 7//4 12//4 11//4
f 13//7 7//7 16//7
f 14//7 8//7 9//7
f 19//10 4//10 14//10
f 15//6 20//6 9//6
f 21//9 15//9 3//9
f 16//4 6//4 13//4
f 11//7 16//7 7//7
f 17//9 21//9 3//9
f 22//9 17//9 11//9
f 18//10 4//10 19//10
f 18//5 23//5 12//5
f 22//4 11//4 12//4
f 14//6 9//6 20//6
f 19//10 14//10 20//10
f 20//5 15//5 24//5
f 21//9 25//9 15//9
f 17//6 26//6 21//6
f 27//9 17//9 22//9
f 18//4 19//4 23//4
f 22//5 12//5 23//5
f 19//10 20//10 28//10
f 29//5 24//5 15//5
f 30//10 20//10 24//10
f 25//9 31//9 15//9
f 25//7 21//7 32//7
f 28//6 21//6 26//6
f 17//7 27//7 26//7
f 23//9 27//9 22//9
f 27//4 23//4 19//4
f 28//10 20//10 32//10
f 19//10 28//10 26//10
f 24//6 29//6 30//6
f 29//9 15//9 33//9
f 20//10 30//10 32//10
f 31//9 33//9 15//9
f 31//4 25//4 34//4
f 28//7 32//7 21//7
f 32//4 34//4 25//4
f 19//7 26//7 27//7
f 33//6 30//6 29//6
f 32//10 30//10 34//10
f 33//7 31//7 30//7
f 34//7 30//7 31//7
