# SSTK version 0.8.0
# 114
mtllib original-114.mtl
o accros_face_2_1/accros_face_2/mesh56/mesh56-geometry#mesh56-geometry
v -0.295406 -0.246337 0.101106
v 0.307956 -0.268411 0.101102
v -0.295406 -0.268411 0.101102
v 0.307956 -0.246337 0.101106
v -0.295406 -0.268413 0.112144
v 0.307956 -0.246339 0.112148
v 0.307956 -0.268413 0.112144
v -0.295406 -0.246339 0.112148
vt 0 0.166667
vt -8.935897 0.041667
vt 0 0.041667
vt -8.935897 0.166667
vt -8.935897 0.062556
vt 0 0.000028
vt 0 0.062556
vt -0.000054 0.041667
vt -0.163534 0.166677
vt -0.163589 0.041677
vt 8.935897 0.000028
vt 8.935897 0.062556
vt 0.163534 0.166677
vt 0.000054 0.041667
vt 0.163589 0.041677
vt -8.935897 0.000028
vt 8.935897 0.166667
vt 8.935897 0.041667
vn 0 0.00016699999767149057 -0.9999999860555002
vn 0 -0.9999999860555002 -0.00016699999767149057
vn -1 0 0
vn 0 0.9999999860555002 0.00016699999767149057
vn 1 0 0
vn 0 -0.00016699999767149057 0.9999999860555002
usemtl material_0_0
f 1/1/1 2/2/1 3/3/1
f 2/2/1 1/1/1 4/4/1
f 2/5/2 5/6/2 3/7/2
f 5/8/3 1/9/3 3/10/3
f 1/7/4 6/11/4 4/12/4
f 4/13/5 7/14/5 2/15/5
f 5/6/2 2/5/2 7/16/2
f 1/9/3 5/8/3 8/1/3
f 6/11/4 1/7/4 8/6/4
f 7/14/5 4/13/5 6/1/5
f 6/17/6 5/3/6 7/18/6
f 5/3/6 6/17/6 8/1/6
usemtl material_1_0
f 3//6 2//6 1//6
f 4//6 1//6 2//6
f 3//4 5//4 2//4
f 3//5 1//5 5//5
f 4//2 6//2 1//2
f 2//3 7//3 4//3
f 7//4 2//4 5//4
f 8//5 5//5 1//5
f 8//2 1//2 6//2
f 6//3 4//3 7//3
f 7//1 5//1 6//1
f 8//1 6//1 5//1
