# SSTK version 0.8.0
# 98
mtllib original-98.mtl
o Door_Glass_Stop_Bottom4/Door_Glass_Stop_Bottom/mesh7/mesh7-geometry#mesh7-geometry
v 0.397173 0.496827 0.112143
v 0.721848 0.496827 0.106625
v 0.721848 0.496827 0.112143
v 0.397173 0.496827 0.106625
v 0.721848 0.504185 0.112143
v 0.397173 0.504185 0.106625
v 0.721848 0.504185 0.106625
v 0.397173 0.504185 0.112143
vt -3.623397 0.03125
vt 1.185096 0
vt 1.185096 0.03125
vt -3.623397 0
vt 1.185096 0.041667
vt 0.081731 0
vt 0 0.041667
vt 0 0
vt 3.623397 0.041667
vt -1.185096 0
vt 3.623397 0
vt -3.623397 0.041667
vt 0.081731 0.041667
vt -1.185096 0.041667
vt -1.185096 0.03125
vt 3.623397 0.03125
vn 0 -1 0
vn 0 0 1
vn -1 0 0
vn 0 0 -1
vn 0 1 0
vn 1 0 0
usemtl material_0_0
f 1/1/1 2/2/1 3/3/1
f 2/2/1 1/1/1 4/4/1
f 5/5/2 1/4/2 3/2/2
f 1/6/3 6/7/3 4/8/3
f 6/9/4 2/10/4 4/11/4
f 1/4/2 5/5/2 8/12/2
f 6/7/3 1/6/3 8/13/3
f 2/10/4 6/9/4 7/14/4
f 6/11/5 5/15/5 7/10/5
f 5/15/5 6/11/5 8/16/5
usemtl material_1_0
f 3//5 2//5 1//5
f 4//5 1//5 2//5
f 2//6 5//6 3//6
f 3//3 5//3 2//3
f 3//4 1//4 5//4
f 4//6 6//6 1//6
f 4//2 2//2 6//2
f 5//6 2//6 7//6
f 7//3 2//3 5//3
f 8//4 5//4 1//4
f 8//6 1//6 6//6
f 7//2 6//2 2//2
f 7//1 5//1 6//1
f 8//1 6//1 5//1
