# SSTK version 0.8.0
# 130
mtllib original-130.mtl
o rail1/rail/mesh65/mesh65-geometry#mesh65-geometry
v -0.383703 -0.272092 0.112143
v -0.383703 -0.264734 0.115822
v -0.383703 -0.272092 0.115822
v -0.383703 -0.235302 0.115822
v -0.707458 -0.272092 0.115822
v -0.383703 -0.235302 0.112143
v -0.376345 -0.235302 0.115822
v -0.707458 -0.264734 0.115822
v -0.707458 -0.272092 0.112143
v -0.707458 -0.235302 0.112143
v -0.383703 -0.235302 0.119501
v -0.376345 -0.264734 0.115822
v -0.376345 -0.235302 0.119501
v -0.707458 -0.264734 0.119501
v -0.383703 -0.264734 0.119501
v -0.714816 -0.264734 0.119501
v -0.707458 -0.235302 0.115822
v -0.376345 -0.264734 0.119501
v -0.714816 -0.264734 0.115822
v -0.707458 -0.235302 0.119501
v -0.707458 -0.272092 0.119501
v -0.714816 -0.235302 0.115822
v -0.383703 -0.227944 0.119501
v -0.714816 -0.235302 0.119501
v -0.383703 -0.272092 0.119501
v -0.383703 -0.227944 0.123180
v -0.707458 -0.272092 0.123180
v -0.707458 -0.227944 0.119501
v -0.383703 -0.272092 0.123180
v -0.707458 -0.227944 0.123180
vt 0.163462 0
vt 0.108974 0.041667
vt 0.108974 0
vt 0.108974 0.208333
vt 4.794872 0.041667
vt 0 0
vt 4.794872 0
vt 0 0.041667
vt -4.794872 0.0625
vt -4.794872 0.041667
vt 0.163462 0.208333
vt -4.903846 0.208333
vt -4.794872 0.208333
vt 0 0.0625
vt -4.794872 0
vt 0 0.208333
vt 4.794872 0.0625
vt 4.794872 0.020833
vt -4.903846 0.041667
vt 4.903846 0.020833
vt 4.903846 0.041667
vt 0 0.020833
vt -0.108974 0.041667
vt -0.163462 0.208333
vt -0.108974 0
vt -0.163462 0
vt 0.054487 0.208333
vt -4.794872 0.020833
vt 0.108974 0.020833
vt -0.108974 0.208333
vt 4.903846 0.208333
vt 4.794872 0.208333
vt 0.054487 0.041667
vt -4.903846 0.020833
vt 0.054487 0.25
vt -0.054487 0.041667
vt -0.054487 0
vt -0.054487 0.208333
vt -4.794872 0.25
vt 0 0.25
vt -0.108974 0.020833
vt 0.054487 0
vt -0.054487 0.25
vt 4.794872 0.25
vn 1 0 0
vn 0 0 1
vn 0 -1 0
vn 0 0 -1
vn 0 1 0
vn -1 0 0
usemtl material_0_0
f 1/1/1 2/2/1 3/3/1
f 2/2/1 1/1/1 4/4/1
f 2/5/2 5/6/2 3/7/2
f 5/8/3 1/9/3 3/10/3
f 4/4/1 1/1/1 6/11/1
f 7/12/4 2/10/4 4/13/4
f 5/6/2 2/5/2 8/8/2
f 1/9/3 5/8/3 9/14/3
f 1/15/4 10/16/4 6/13/4
f 6/17/5 11/18/5 4/5/5
f 2/10/4 7/12/4 12/19/4
f 4/5/5 13/20/5 7/21/5
f 14/22/3 8/8/3 2/10/3
f 8/23/6 10/24/6 5/25/6
f 5/25/6 10/24/6 9/26/6
f 10/16/4 1/15/4 9/6/4
f 10/14/5 11/18/5 6/17/5
f 13/20/5 4/5/5 11/18/5
f 13/27/1 12/2/1 7/4/1
f 15/28/3 2/10/3 12/19/3
f 16/29/3 8/8/3 14/22/3
f 14/22/3 2/10/3 15/28/3
f 10/24/6 8/23/6 17/30/6
f 17/8/5 11/18/5 10/14/5
f 15/5/2 13/31/2 11/32/2
f 12/2/1 13/27/1 18/33/1
f 15/28/3 12/19/3 18/34/3
f 8/8/3 16/29/3 19/2/3
f 20/16/2 16/23/2 14/8/2
f 14/8/4 15/5/4 21/6/4
f 8/8/4 22/4/4 17/16/4
f 17/8/5 20/22/5 11/18/5
f 13/31/2 15/5/2 18/21/2
f 23/35/1 15/33/1 11/27/1
f 16/36/6 22/30/6 19/23/6
f 22/4/4 8/8/4 19/2/4
f 16/23/2 20/16/2 24/30/2
f 21/37/6 20/38/6 14/36/6
f 25/7/4 21/6/4 15/5/4
f 22/23/5 20/22/5 17/8/5
f 20/16/4 23/39/4 11/13/4
f 26/40/1 15/33/1 23/35/1
f 22/30/6 16/36/6 24/38/6
f 20/22/5 22/23/5 24/41/5
f 27/6/6 20/38/6 21/37/6
f 25/28/3 27/6/3 21/22/3
f 26/40/1 25/42/1 15/33/1
f 23/39/4 20/16/4 28/40/4
f 28/22/5 26/7/5 23/18/5
f 27/6/6 28/43/6 20/38/6
f 27/6/3 25/28/3 29/15/3
f 25/42/1 26/40/1 29/6/1
f 26/7/5 28/22/5 30/6/5
f 28/43/6 27/6/6 30/40/6
f 26/44/2 27/6/2 29/7/2
f 27/6/2 26/44/2 30/40/2
usemtl material_1_0
f 3//6 2//6 1//6
f 4//6 1//6 2//6
f 3//4 5//4 2//4
f 3//5 1//5 5//5
f 6//6 1//6 4//6
f 4//2 2//2 7//2
f 8//4 2//4 5//4
f 9//5 5//5 1//5
f 6//2 10//2 1//2
f 4//3 11//3 6//3
f 12//2 7//2 2//2
f 7//3 13//3 4//3
f 2//5 8//5 14//5
f 5//1 10//1 8//1
f 9//1 10//1 5//1
f 9//2 1//2 10//2
f 6//3 11//3 10//3
f 11//3 4//3 13//3
f 7//6 12//6 13//6
f 12//5 2//5 15//5
f 14//5 8//5 16//5
f 15//5 2//5 14//5
f 17//1 8//1 10//1
f 10//3 11//3 17//3
f 11//4 13//4 15//4
f 18//6 13//6 12//6
f 18//5 12//5 15//5
f 19//5 16//5 8//5
f 14//4 16//4 20//4
f 11//2 14//2 15//2
f 15//4 14//4 11//4
f 21//2 15//2 14//2
f 17//2 22//2 8//2
f 11//3 20//3 17//3
f 18//4 15//4 13//4
f 11//6 15//6 23//6
f 19//1 22//1 16//1
f 19//2 8//2 22//2
f 24//4 20//4 16//4
f 14//1 20//1 21//1
f 14//2 11//2 20//2
f 20//4 11//4 14//4
f 15//2 21//2 25//2
f 17//3 20//3 22//3
f 11//2 23//2 20//2
f 23//6 15//6 26//6
f 24//1 16//1 22//1
f 24//3 22//3 20//3
f 21//1 20//1 27//1
f 21//5 27//5 25//5
f 15//6 25//6 26//6
f 28//2 20//2 23//2
f 23//3 26//3 28//3
f 20//1 28//1 27//1
f 29//5 25//5 27//5
f 29//6 26//6 25//6
f 30//3 28//3 26//3
f 30//1 27//1 28//1
f 29//4 27//4 26//4
f 30//4 26//4 27//4
