# SSTK version 0.8.0
# 102
mtllib original-102.mtl
o back_2_2/back_2/mesh2/mesh2-geometry#mesh2-geometry
v 0.773354 -0.478118 -0.115957
v 0.773354 0.581444 -0.112278
v 0.773354 -0.478118 -0.112278
v 0.773354 0.581444 -0.115957
v 0.342907 -0.478118 -0.112278
v 0.342907 0.581444 -0.115957
v 0.342907 0.581444 -0.112278
v 0.342907 -0.478118 -0.115957
vt 0.054487 -1.333333
vt 0 4.666667
vt 0 -1.333333
vt 0.054487 4.666667
vt 6.375 4.666667
vt 6.375 -1.333333
vt 0 0
vt -6.375 0.020833
vt -6.375 0
vt -6.375 -1.333333
vt -6.375 4.666667
vt 0 0.020833
vt 6.375 0
vt 6.375 0.020833
vt -0.054487 -1.333333
vt -0.054487 4.666667
vn 1 0 0
vn 0 0 1
vn 0 -1 0
vn 0 0 -1
vn 0 1 0
vn -1 0 0
usemtl material_0_0
f 1/1/1 2/2/1 3/3/1
f 2/2/1 1/1/1 4/4/1
f 2/5/2 5/3/2 3/6/2
f 5/7/3 1/8/3 3/9/3
f 1/10/4 6/2/4 4/11/4
f 6/12/5 2/13/5 4/14/5
f 5/3/2 2/5/2 7/2/2
f 1/8/3 5/7/3 8/12/3
f 6/2/4 1/10/4 8/3/4
f 2/13/5 6/12/5 7/7/5
f 7/2/6 8/15/6 5/3/6
f 8/15/6 7/2/6 6/16/6
usemtl material_1_0
f 3//6 2//6 1//6
f 4//6 1//6 2//6
f 3//4 5//4 2//4
f 3//5 1//5 5//5
f 4//2 6//2 1//2
f 4//3 2//3 6//3
f 7//4 2//4 5//4
f 8//5 5//5 1//5
f 8//2 1//2 6//2
f 7//3 6//3 2//3
f 5//1 8//1 7//1
f 6//1 7//1 8//1
