# SSTK version 0.8.0
# 94
mtllib original-94.mtl
o G._Rails12_1/G._Rails12/mesh25/mesh25-geometry#mesh25-geometry
v 0.348425 -0.422932 0.067995
v 0.348425 -0.426611 0.067995
v 0.348425 -0.422932 0.075353
v 0.348425 -0.430291 0.067995
v 0.348425 -0.426611 0.075353
v 0.374179 -0.422932 0.067995
v 0.348425 -0.419253 0.067995
v 0.381537 -0.430291 0.067995
v 0.374179 -0.426611 0.075353
v 0.374179 -0.422932 0.075353
v 0.348425 -0.430291 -0.079167
v 0.381537 -0.426611 0.067995
v 0.374179 -0.426611 0.067995
v 0.381537 -0.422932 0.067995
v 0.348425 -0.426611 -0.079167
v 0.381537 -0.430291 -0.079167
v 0.381537 -0.426611 -0.079167
v 0.381537 -0.419253 0.067995
v 0.374179 -0.422932 -0.079167
v 0.348425 -0.422932 -0.079167
v 0.381537 -0.419253 -0.079167
v 0.381537 -0.422932 -0.079167
v 0.348425 -0.419253 -0.079167
v 0.348425 -0.426611 -0.086525
v 0.374179 -0.426611 -0.079167
v 0.348425 -0.422932 -0.086525
v 0.374179 -0.422932 -0.086525
v 0.374179 -0.426611 -0.086525
vt -2.288462 0.041667
vt -2.288462 0.020833
vt -2.397436 0.041667
vt -2.288462 0
vt -2.397436 0.020833
vt -2.397436 0
vt -2.288462 0.145833
vt -2.288462 0.0625
vt 0 0
vt 0 0.1875
vt 0.054487 0
vt 0.054487 0.145833
vt 0.108974 0
vt 2.397436 0
vt 2.288462 0
vt 2.397436 0.145833
vt -2.397436 0.145833
vt 0.108974 0.145833
vt 0.163462 0
vt -0.108974 0
vt 2.288462 0.1875
vt 0.054487 0.1875
vt 2.288462 0.145833
vt 2.397436 0.041667
vt 2.397436 0.020833
vt 2.288462 0.041667
vt 0.108974 0.1875
vt -0.108974 0.020833
vt 2.288462 0.020833
vt 0.108974 0.020833
vt 0.163462 0.1875
vt -0.108974 0.041667
vt -0.054487 0
vt -0.054487 0.1875
vt -2.288462 0.1875
vt -0.108974 0.1875
vt 0.108974 0.041667
vt 2.288462 0.0625
vt 0.108974 0.0625
vt -0.108974 0.0625
vt 0 0.020833
vt -0.054487 0.145833
vt -0.108974 0.145833
vt -0.163462 0.1875
vt -0.163462 0
vt 0 0.041667
vt 0 0.145833
vn -1 0 0
vn 0 1 0
vn 0 0 1
vn 0 -1 0
vn 1 0 0
vn 0 0 -1
usemtl material_0_0
f 1/1/1 2/2/1 3/3/1
f 2/2/1 1/1/1 4/4/1
f 5/5/1 3/3/1 2/2/1
f 1/4/2 3/6/2 6/7/2
f 1/1/1 7/8/1 4/4/1
f 4/9/3 8/10/3 2/11/3
f 5/11/3 9/12/3 3/13/3
f 5/14/4 2/15/4 9/16/4
f 10/17/2 6/7/2 3/6/2
f 1/13/3 6/18/3 7/19/3
f 4/4/1 7/8/1 11/20/1
f 4/15/4 11/13/4 8/21/4
f 12/22/3 2/11/3 8/10/3
f 10/18/3 3/13/3 9/12/3
f 13/23/4 9/16/4 2/15/4
f 10/24/5 9/25/5 6/26/5
f 14/27/3 7/19/3 6/18/3
f 11/20/1 7/8/1 15/28/1
f 16/27/4 8/21/4 11/13/4
f 13/12/3 2/11/3 12/22/3
f 12/29/5 8/15/5 17/30/5
f 9/25/5 13/29/5 6/26/5
f 18/31/3 7/19/3 14/27/3
f 6/23/4 19/18/4 14/21/4
f 15/28/1 7/8/1 20/32/1
f 15/33/6 17/34/6 11/9/6
f 16/13/5 17/30/5 8/15/5
f 16/10/6 11/9/6 17/34/6
f 12/35/2 17/36/2 13/7/2
f 6/26/5 13/29/5 19/37/5
f 18/35/2 21/36/2 7/4/2
f 18/38/5 14/26/5 21/39/5
f 22/27/4 14/21/4 19/18/4
f 23/40/1 20/32/1 7/8/1
f 15/28/1 20/32/1 24/41/1
f 25/42/6 17/34/6 15/33/6
f 25/43/2 13/7/2 17/36/2
f 13/29/5 25/30/5 19/37/5
f 23/20/2 7/4/2 21/36/2
f 22/37/5 21/39/5 14/26/5
f 22/36/6 19/43/6 21/44/6
f 23/45/6 21/44/6 20/20/6
f 26/46/1 24/41/1 20/32/1
f 15/13/4 24/9/4 25/18/4
f 19/37/5 25/30/5 27/46/5
f 20/20/6 21/44/6 19/43/6
f 26/9/2 20/20/2 27/47/2
f 28/47/4 25/18/4 24/9/4
f 28/41/5 27/46/5 25/30/5
f 19/43/2 27/47/2 20/20/2
usemtl material_1_0
f 3//5 2//5 1//5
f 4//5 1//5 2//5
f 2//5 3//5 5//5
f 6//4 3//4 1//4
f 4//5 7//5 1//5
f 2//6 8//6 4//6
f 3//6 9//6 5//6
f 9//2 2//2 5//2
f 3//4 6//4 10//4
f 7//6 6//6 1//6
f 11//5 7//5 4//5
f 8//2 11//2 4//2
f 8//6 2//6 12//6
f 9//6 3//6 10//6
f 2//2 9//2 13//2
f 6//1 9//1 10//1
f 6//6 7//6 14//6
f 15//5 7//5 11//5
f 11//2 8//2 16//2
f 12//6 2//6 13//6
f 17//1 8//1 12//1
f 6//1 13//1 9//1
f 14//6 7//6 18//6
f 14//2 19//2 6//2
f 20//5 7//5 15//5
f 11//3 17//3 15//3
f 8//1 17//1 16//1
f 17//3 11//3 16//3
f 13//4 17//4 12//4
f 19//1 13//1 6//1
f 7//4 21//4 18//4
f 21//1 14//1 18//1
f 19//2 14//2 22//2
f 7//5 20//5 23//5
f 24//5 20//5 15//5
f 15//3 17//3 25//3
f 17//4 13//4 25//4
f 19//1 25//1 13//1
f 21//4 7//4 23//4
f 14//1 21//1 22//1
f 21//3 19//3 22//3
f 20//3 21//3 23//3
f 20//5 24//5 26//5
f 25//2 24//2 15//2
f 27//1 25//1 19//1
f 19//3 21//3 20//3
f 26//6 27//6 24//6
f 24//3 27//3 26//3
f 27//4 20//4 26//4
f 24//2 25//2 28//2
f 25//1 27//1 28//1
f 20//4 27//4 19//4
f 28//6 24//6 27//6
f 27//3 24//3 28//3
