# SSTK version 0.8.0
# 108
mtllib original-108.mtl
o N._Crown_Base_Front2/N._Crown_Base_Front/mesh14/mesh14-geometry#mesh14-geometry
v 0.331438 0.573806 0.118093
v 0.785279 0.573961 0.118549
v 0.330983 0.573961 0.118549
v 0.784823 0.573806 0.118093
v 0.785751 0.574055 0.119021
v 0.337388 0.575926 0.112143
v 0.331870 0.573594 0.117662
v 0.778873 0.599840 0.112143
v 0.330511 0.574055 0.119021
v 0.784391 0.573594 0.117662
v 0.786231 0.574086 0.119501
v 0.786231 0.599840 0.119501
v 0.332270 0.573326 0.117262
v 0.330030 0.574086 0.119501
v 0.783991 0.573326 0.117262
v 0.337388 0.599840 0.112143
v 0.332632 0.573009 0.116900
v 0.336469 0.575926 0.113063
v 0.783629 0.573009 0.116900
v 0.330030 0.599840 0.119501
v 0.778873 0.577765 0.112143
v 0.332949 0.572647 0.116582
v 0.779792 0.575926 0.113063
v 0.783312 0.572647 0.116582
v 0.336469 0.577765 0.113063
v 0.337388 0.577765 0.112143
v 0.779792 0.577765 0.113063
v 0.333216 0.572247 0.116315
v 0.778873 0.575926 0.112143
v 0.783045 0.572247 0.116315
v 0.782552 0.570407 0.115822
v 0.333429 0.571815 0.116102
v 0.778873 0.570407 0.112143
v 0.782832 0.571815 0.116102
v 0.782583 0.570888 0.115854
v 0.333584 0.571360 0.115948
v 0.337388 0.570407 0.112143
v 0.782677 0.571360 0.115948
v 0.333709 0.570407 0.115822
v 0.333678 0.570888 0.115854
vt 0.020851 -0.001363
vt 6.742308 0.001363
vt 0.014102 0.001363
vt 6.735559 -0.001363
vt 6.749298 0.001363
vt 0.014102 -0.001363
vt 6.742308 -0.001363
vt 0.027244 -0.001363
vt 6.735559 0.001363
vt 0.020851 0.001363
vt -4.62339 0.166667
vt -4.75756 0.020123
vt -4.748015 0.019247
vt 0.007112 0.001363
vt -4.767446 0.020655
vt 6.729167 -0.001363
vt -4.738975 0.018042
vt 6.75641 0.001363
vt 0.007112 -0.001363
vt 6.749298 -0.001363
vt -4.777504 0.166667
vt 0.03317 -0.001363
vt 6.729167 0.001363
vt 0.027244 0.001363
vt -4.730594 0.016528
vt 0 0.001363
vt -4.777504 0.020833
vt 0.108974 0.041667
vt 6.75641 0
vt 6.647436 0.041667
vt 6.723241 -0.001363
vt -4.723016 0.014731
vt 6.75641 0.166667
vt 0 0.020833
vt 6.75641 0.020833
vt 0 0
vt -6.647436 0.041667
vt -0.108974 0.166667
vt -6.647436 0.166667
vt 0.038528 -0.001363
vt 6.723241 0.001363
vt 0.03317 0.001363
vt 6.661058 0.036458
vt 0.095353 0.036458
vt 6.717882 -0.001363
vt -4.71637 0.012683
vt 0 0.166667
vt -0.108974 0.041667
vt -4.642655 0.041667
vt -4.62339 0.041667
vt 0.043228 -0.001363
vt 6.717882 0.001363
vt 0.038528 0.001363
vt -0.095353 0.041667
vt -6.661058 0.03125
vt -0.095353 0.03125
vt 6.713183 -0.001363
vt -4.710771 0.010417
vt -6.661058 0.036458
vt -4.700447 0
vt 0.047187 -0.001363
vt 6.713183 0.001363
vt 0.043228 0.001363
vt -4.642655 0.03125
vt -4.62339 0
vt -4.62339 0.03125
vt -6.647436 0
vt -0.108974 0.03125
vt -6.647436 0.03125
vt -6.661058 0.041667
vt 6.709223 -0.001363
vt -4.706313 0.007973
vt -0.095353 0.036458
vt -4.701106 0.002719
vt 0.05034 -0.001363
vt 6.709223 0.001363
vt 0.047187 0.001363
vt -0.108974 0
vt 6.706071 -0.001363
vt -4.703073 0.005392
vt 6.702389 0.001363
vt 0.054487 -0.001363
vt 6.701923 -0.001363
vt 0.052631 -0.001363
vt 6.706071 0.001363
vt 0.05034 0.001363
vt -6.701923 0.020833
vt 6.70378 -0.001363
vt 6.70378 0.001363
vt 0.054021 -0.001363
vt 6.702389 -0.001363
vt 0.054021 0.001363
vt -0.054487 0.020833
vt 0.052631 0.001363
vn 0 -0.9238797538373539 0.38268289803625993
vn 0 -0.9659258492011171 0.2588189595935752
vn 0 -0.9914448886106773 0.13052598533534088
vn 0 -0.8660253028382763 0.5000001748438415
vn 0.7071067811865476 0 -0.7071067811865476
vn 0 -0.9978589320009053 0.0654029955431128
vn 0 -0.7933534213778815 0.6087613233345311
vn 0 1 0
vn 0 0 1
vn 0 0 -1
vn 0 -0.7071067811865478 0.7071067811865476
vn 0 -0.6087613233345315 0.7933534213778811
vn 0 -1 0
vn 0 -0.500000174843842 0.8660253028382761
vn 0 -0.3826828980362604 0.9238797538373537
vn 0 -0.13052598533534132 0.9914448886106773
vn 0 -0.06540299554311324 0.9978589320009053
vn 0 -0.2588189595935757 0.9659258492011171
vn 0 0.9659258492011171 -0.2588189595935752
vn 0 0.9238797538373539 -0.38268289803625993
vn 0 0.9914448886106773 -0.13052598533534088
vn 0.7071067811865476 0 0.7071067811865476
vn -0.7071067811865476 0 -0.7071067811865476
vn 0 0.8660253028382763 -0.5000001748438415
vn -0.7071067811865476 0 0.7071067811865476
vn 0 0.9978589320009053 -0.0654029955431128
vn 0 0.7933534213778815 -0.6087613233345311
vn 0 0.7071067811865478 -0.7071067811865476
vn 0 0.6087613233345315 -0.7933534213778811
vn 0 0.500000174843842 -0.8660253028382761
vn 0 0.3826828980362604 -0.9238797538373537
vn 0 0.06540299554311324 -0.9978589320009053
vn 0 0.13052598533534132 -0.9914448886106773
vn 0 0.2588189595935757 -0.9659258492011171
usemtl material_0_0
f 1/1/1 2/2/2 3/3/2
f 2/2/2 1/1/1 4/4/1
f 5/5/3 3/6/2 2/7/2
f 7/8/4 4/9/1 1/10/1
f 8/11/5 2/12/5 4/13/5
f 3/6/2 5/5/3 9/14/3
f 8/11/5 5/15/5 2/12/5
f 4/9/1 7/8/4 10/16/4
f 8/11/5 4/13/5 10/17/5
f 11/18/6 9/19/3 5/20/3
f 12/21/5 5/15/5 8/11/5
f 13/22/7 10/23/4 7/24/4
f 8/11/5 10/17/5 15/25/5
f 9/19/3 11/18/6 14/26/6
f 5/15/5 12/21/5 11/27/5
f 16/28/8 12/29/8 8/30/8
f 10/23/4 13/22/7 15/31/7
f 8/11/5 15/25/5 19/32/5
f 12/33/9 14/34/9 11/35/9
f 12/29/8 16/28/8 20/36/8
f 21/37/10 16/38/10 8/39/10
f 17/40/11 15/41/7 13/42/7
f 23/43/8 6/28/8 18/44/8
f 15/41/7 17/40/11 19/45/11
f 8/11/5 19/32/5 24/46/5
f 14/34/9 12/33/9 20/47/9
f 16/38/10 21/37/10 26/48/10
f 8/11/5 27/49/5 21/50/5
f 22/51/12 19/52/11 17/53/11
f 6/28/8 23/43/8 29/30/8
f 25/54/10 23/55/10 18/56/10
f 19/52/11 22/51/12 24/57/12
f 8/11/5 24/46/5 30/58/5
f 27/59/13 26/48/13 21/37/13
f 8/11/5 31/60/5 27/49/5
f 28/61/14 24/62/12 22/63/12
f 23/64/5 33/65/5 29/66/5
f 33/67/10 6/68/10 29/69/10
f 23/55/10 25/54/10 27/70/10
f 24/62/12 28/61/14 30/71/14
f 8/11/5 30/58/5 34/72/5
f 26/48/13 27/59/13 25/73/13
f 8/11/5 35/74/5 31/60/5
f 27/49/5 31/60/5 23/64/5
f 32/75/15 30/76/14 28/77/14
f 33/65/5 23/64/5 31/60/5
f 6/68/10 33/67/10 37/78/10
f 30/76/14 32/75/15 34/79/15
f 8/11/5 34/72/5 38/80/5
f 8/11/5 38/80/5 35/74/5
f 35/81/16 39/82/17 31/83/17
f 36/84/18 34/85/15 32/86/15
f 31/87/13 37/48/13 33/37/13
f 34/85/15 36/84/18 38/88/18
f 38/89/18 40/90/16 35/91/16
f 39/82/17 35/81/16 40/92/16
f 37/48/13 31/87/13 39/93/13
f 40/90/16 38/89/18 36/94/18
usemtl material_1_0
f 3//19 2//19 1//20
f 4//20 1//20 2//19
f 2//19 3//19 5//21
f 1//22 6//22 3//22
f 3//23 6//23 1//23
f 1//20 4//20 7//24
f 4//25 2//25 8//25
f 9//21 5//21 3//19
f 2//25 5//25 8//25
f 7//22 6//22 1//22
f 1//23 6//23 7//23
f 3//22 6//22 9//22
f 9//23 6//23 3//23
f 10//24 7//24 4//20
f 10//25 4//25 8//25
f 5//21 9//21 11//26
f 8//25 5//25 12//25
f 13//22 6//22 7//22
f 7//23 6//23 13//23
f 9//22 6//22 14//22
f 14//23 6//23 9//23
f 7//24 10//24 13//27
f 15//25 10//25 8//25
f 14//26 11//26 9//21
f 11//25 12//25 5//25
f 8//13 12//13 16//13
f 17//22 6//22 13//22
f 13//23 6//23 17//23
f 14//22 6//22 18//22
f 18//23 6//23 14//23
f 15//27 13//27 10//24
f 19//25 15//25 8//25
f 11//10 14//10 12//10
f 20//13 16//13 12//13
f 8//9 16//9 21//9
f 22//22 6//22 17//22
f 17//23 6//23 22//23
f 13//27 15//27 17//28
f 18//13 6//13 23//13
f 14//22 18//22 20//22
f 20//23 18//23 14//23
f 19//28 17//28 15//27
f 24//25 19//25 8//25
f 20//10 12//10 14//10
f 20//22 25//22 16//22
f 16//23 25//23 20//23
f 26//9 21//9 16//9
f 21//25 27//25 8//25
f 28//22 6//22 22//22
f 22//23 6//23 28//23
f 17//28 19//28 22//29
f 29//13 23//13 6//13
f 18//9 23//9 25//9
f 20//22 18//22 25//22
f 25//23 18//23 20//23
f 24//29 22//29 19//28
f 30//25 24//25 8//25
f 16//22 25//22 26//22
f 26//23 25//23 16//23
f 21//8 26//8 27//8
f 27//25 31//25 8//25
f 32//22 6//22 28//22
f 28//23 6//23 32//23
f 22//29 24//29 28//30
f 29//25 33//25 23//25
f 29//9 6//9 33//9
f 27//9 25//9 23//9
f 30//30 28//30 24//29
f 34//25 30//25 8//25
f 25//8 27//8 26//8
f 31//25 35//25 8//25
f 23//25 31//25 27//25
f 36//22 6//22 32//22
f 32//23 6//23 36//23
f 28//30 30//30 32//31
f 31//25 23//25 33//25
f 37//9 33//9 6//9
f 34//31 32//31 30//30
f 38//25 34//25 8//25
f 35//25 38//25 8//25
f 31//32 39//32 35//33
f 40//22 6//22 36//22
f 36//23 6//23 40//23
f 32//31 34//31 36//34
f 33//8 37//8 31//8
f 6//22 39//22 37//22
f 37//23 39//23 6//23
f 38//34 36//34 34//31
f 35//33 40//33 38//34
f 40//33 35//33 39//32
f 39//8 31//8 37//8
f 39//22 6//22 40//22
f 40//23 6//23 39//23
f 36//34 38//34 40//33
