# SSTK version 0.8.0
# 21
mtllib original-21.mtl
o O._Cap_Front1/O._Cap_Front/mesh33/mesh33-geometry#mesh33-geometry
v -0.788124 0.604938 0.133945
v -0.787477 0.604619 0.133298
v -0.303036 0.604938 0.133945
v -0.790236 0.610877 0.136057
v -0.303684 0.604619 0.133298
v -0.302353 0.605170 0.134629
v -0.788808 0.605170 0.134629
v -0.786877 0.604218 0.132697
v -0.324838 0.610877 0.112143
v -0.789516 0.605311 0.135337
v -0.786334 0.603742 0.132155
v -0.304284 0.604218 0.132697
v -0.301645 0.605311 0.135337
v -0.790236 0.605358 0.136057
v -0.785858 0.603199 0.131679
v -0.304827 0.603742 0.132155
v -0.300924 0.605358 0.136057
v -0.785457 0.602599 0.131278
v -0.305303 0.603199 0.131679
v -0.300924 0.610877 0.136057
v -0.766323 0.599840 0.112143
v -0.305704 0.602599 0.131278
v -0.766323 0.610877 0.112143
v -0.785138 0.601952 0.130958
v -0.306023 0.601952 0.130958
v -0.324838 0.599840 0.112143
v -0.784906 0.601268 0.130726
v -0.306255 0.601268 0.130726
v -0.306396 0.600560 0.130586
v -0.306443 0.599840 0.130538
v -0.784765 0.600560 0.130586
v -0.784718 0.599840 0.130538
vt -0.031277 0.123495
vt -0.040865 0.119408
vt -7.215518 0.123495
vt -0.206201 0.028871
vt -0.250434 0.0625
vt -0.192641 0.027063
vt -7.205929 0.119408
vt -7.215518 0.126186
vt -7.225641 0.130274
vt -0.031277 0.126186
vt -0.220518 0.030185
vt -0.18007 0.024792
vt 5.330459 0.028871
vt 5.316899 0.027063
vt 4.873824 0.0625
vt -0.040865 0.114639
vt -0.049755 0.110551
vt -7.205929 0.114639
vt 5.344776 0.030185
vt -0.021153 0.130274
vt -0.235347 0.030983
vt -0.168703 0.022097
vt 5.304328 0.024792
vt -7.19704 0.110551
vt 5.359605 0.030983
vt -7.225641 0.130771
vt -7.236127 0.134859
vt -0.021153 0.130771
vt -0.250434 0.03125
vt -0.010668 0.134859
vt -0.158734 0.019024
vt -0.049755 0.103855
vt -0.057792 0.099768
vt -7.19704 0.103855
vt 5.292961 0.022097
vt 5.374691 0.03125
vt 0 0.03125
vt -7.246795 0.03125
vt 0 0.0625
vt 0 0.137171
vt -0.010668 0.133083
vt -7.246795 0.137171
vt -7.236127 0.133083
vt -0.150334 0.015625
vt -0.064841 0.087243
vt -7.181953 0.087243
vt -0.057792 0.09133
vt -7.189002 0.099768
vt 5.282992 0.019024
vt 5.374691 0.0625
vt -7.246795 0.0625
vt 0.250434 0
vt -0.070781 0.07319
vt -7.176014 0.07319
vt -0.064841 0.077277
vt -7.181953 0.077277
vt -7.189002 0.09133
vt 5.274592 0.015625
vt 6.892628 0
vt 0.354167 0
vt 7.246795 0.135417
vt 0 0.135417
vt 0.250434 0.0625
vt -0.143647 0.011959
vt -7.176014 0.061937
vt -0.070781 0.061937
vt -7.171285 0.057849
vt 5.267905 0.011959
vt 6.892628 0.0625
vt 0.354167 0.0625
vt -0.075509 0.057849
vt -0.138787 0.008088
vt 5.263045 0.008088
vt 5.260096 0.004079
vt 4.873824 0
vt -6.892628 0
vt -7.165064 0.104167
vt -0.354167 0
vt -7.171285 0.045572
vt -0.075509 0.045572
vt -7.167849 0.041484
vt -0.078946 0.041484
vt -0.135838 0.004079
vt 5.259107 0
vt -0.081731 0.104167
vt -7.167849 0.028462
vt -0.078946 0.028462
vt -7.165763 0.024375
vt -0.081032 0.024375
vt -0.134849 0
vt -7.165763 0.010901
vt -0.081032 0.010901
vt -7.165064 0.006813
vt -0.081731 0.006813
vn 0 -0.9238797538373539 0.38268289803625993
vn 0 -0.8660253028382763 0.5000001748438415
vn -0.7071067811865476 0 -0.7071067811865476
vn 0 -0.9659258492011171 0.2588189595935752
vn 0.7071067811865476 0 -0.7071067811865476
vn 0 -0.7933534213778815 0.6087613233345311
vn 0 -0.9914448886106773 0.13052598533534088
vn 0 -0.7071067811865478 0.7071067811865476
vn 0 0 1
vn 0 -0.9978589320009053 0.0654029955431128
vn 0 -0.6087613233345315 0.7933534213778811
vn 0 -0.500000174843842 0.8660253028382761
vn 0 1 0
vn 0 -0.3826828980362604 0.9238797538373537
vn 0 0 -1
vn 0 -1 0
vn 0 -0.2588189595935757 0.9659258492011171
vn 0 -0.13052598533534132 0.9914448886106773
vn 0 -0.06540299554311324 0.9978589320009053
vn 0 0.9238797538373539 -0.38268289803625993
vn 0 0.8660253028382763 -0.5000001748438415
vn 0.7071067811865476 0 0.7071067811865476
vn 0 0.9659258492011171 -0.2588189595935752
vn -0.7071067811865476 0 0.7071067811865476
vn 0 0.7933534213778815 -0.6087613233345311
vn 0 0.9914448886106773 -0.13052598533534088
vn 0 0.7071067811865478 -0.7071067811865476
vn 0 0.9978589320009053 -0.0654029955431128
vn 0 0.6087613233345315 -0.7933534213778811
vn 0 0.500000174843842 -0.8660253028382761
vn 0 0.3826828980362604 -0.9238797538373537
vn 0 0.2588189595935757 -0.9659258492011171
vn 0 0.13052598533534132 -0.9914448886106773
vn 0 0.06540299554311324 -0.9978589320009053
usemtl material_0_0
f 1/1/1 2/2/2 3/3/1
f 1/4/3 4/5/3 2/6/3
f 5/7/2 3/3/1 2/2/2
f 3/8/1 6/9/4 1/10/1
f 7/11/3 4/5/3 1/4/3
f 2/6/3 4/5/3 8/12/3
f 3/13/5 5/14/5 9/15/5
f 2/16/2 8/17/6 5/18/2
f 6/19/5 3/13/5 9/15/5
f 7/20/4 1/10/1 6/9/4
f 10/21/3 4/5/3 7/11/3
f 8/12/3 4/5/3 11/22/3
f 5/14/5 12/23/5 9/15/5
f 12/24/6 5/18/2 8/17/6
f 13/25/5 6/19/5 9/15/5
f 6/26/4 13/27/7 7/28/4
f 14/29/3 4/5/3 10/21/3
f 10/30/7 7/28/4 13/27/7
f 11/22/3 4/5/3 15/31/3
f 8/32/6 11/33/8 12/34/6
f 12/23/5 16/35/5 9/15/5
f 17/36/5 13/25/5 9/15/5
f 14/37/9 17/38/9 4/39/9
f 14/40/10 10/41/7 17/42/10
f 13/43/7 17/42/10 10/41/7
f 15/31/3 4/5/3 18/44/3
f 15/45/11 19/46/11 11/47/8
f 16/48/8 12/34/6 11/33/8
f 16/35/5 19/49/5 9/15/5
f 20/50/5 17/36/5 9/15/5
f 20/51/9 4/39/9 17/38/9
f 18/44/3 4/5/3 21/52/3
f 18/53/12 22/54/12 15/55/11
f 19/56/11 15/55/11 22/54/12
f 16/57/8 11/47/8 19/46/11
f 19/49/5 22/58/5 9/15/5
f 9/59/13 23/60/13 20/61/13
f 4/62/13 20/61/13 23/60/13
f 23/63/3 21/52/3 4/5/3
f 24/64/3 18/44/3 21/52/3
f 22/65/12 18/66/12 25/67/14
f 22/58/5 25/68/5 9/15/5
f 9/69/15 26/59/15 23/70/15
f 21/60/15 23/70/15 26/59/15
f 24/71/14 25/67/14 18/66/12
f 27/72/3 24/64/3 21/52/3
f 25/68/5 28/73/5 9/15/5
f 9/15/5 29/74/5 26/75/5
f 26/76/16 30/77/16 21/78/16
f 25/79/14 24/80/14 28/81/17
f 27/82/17 28/81/17 24/80/14
f 31/83/3 27/72/3 21/52/3
f 28/73/5 29/74/5 9/15/5
f 30/84/5 26/75/5 29/74/5
f 32/85/16 21/78/16 30/77/16
f 28/86/17 27/87/17 29/88/18
f 31/89/18 29/88/18 27/87/17
f 32/90/3 31/83/3 21/52/3
f 29/91/18 31/92/18 30/93/19
f 32/94/19 30/93/19 31/92/18
usemtl material_1_0
f 3//20 2//21 1//20
f 2//22 4//22 1//22
f 2//21 3//20 5//21
f 1//20 6//23 3//20
f 1//22 4//22 7//22
f 8//22 4//22 2//22
f 9//24 5//24 3//24
f 5//21 8//25 2//21
f 9//24 3//24 6//24
f 6//23 1//20 7//23
f 7//22 4//22 10//22
f 11//22 4//22 8//22
f 9//24 12//24 5//24
f 8//25 5//21 12//25
f 9//24 6//24 13//24
f 7//23 13//26 6//23
f 10//22 4//22 14//22
f 13//26 7//23 10//26
f 15//22 4//22 11//22
f 12//25 11//27 8//25
f 9//24 16//24 12//24
f 9//24 13//24 17//24
f 4//15 17//15 14//15
f 17//28 10//26 14//28
f 10//26 17//28 13//26
f 18//22 4//22 15//22
f 11//27 19//29 15//29
f 11//27 12//25 16//27
f 9//24 19//24 16//24
f 9//24 17//24 20//24
f 17//15 4//15 20//15
f 21//22 4//22 18//22
f 15//29 22//30 18//30
f 22//30 15//29 19//29
f 19//29 11//27 16//27
f 9//24 22//24 19//24
f 20//16 23//16 9//16
f 23//16 20//16 4//16
f 4//22 21//22 23//22
f 21//22 18//22 24//22
f 25//31 18//30 22//30
f 9//24 25//24 22//24
f 23//9 26//9 9//9
f 26//9 23//9 21//9
f 18//30 25//31 24//31
f 21//22 24//22 27//22
f 9//24 28//24 25//24
f 26//24 29//24 9//24
f 21//13 30//13 26//13
f 28//32 24//31 25//31
f 24//31 28//32 27//32
f 21//22 27//22 31//22
f 9//24 29//24 28//24
f 29//24 26//24 30//24
f 30//13 21//13 32//13
f 29//33 27//32 28//32
f 27//32 29//33 31//33
f 21//22 31//22 32//22
f 30//34 31//33 29//33
f 31//33 30//34 32//34
