# SSTK version 0.8.0
# 139
mtllib original-139.mtl
o pliwood_2/pliwood_/mesh69/mesh69-geometry#mesh69-geometry
v 0.727366 -0.375105 0.115822
v 0.727366 -0.264734 0.119501
v 0.727366 -0.375105 0.119501
v 0.727366 -0.264734 0.115822
v 0.396253 -0.264734 0.119501
v 0.396253 -0.375105 0.119501
v 0.396253 -0.264734 0.115822
v 0.396253 -0.375105 0.115822
vt 0.054487 0
vt 0 0.625
vt 0 0
vt 0.054487 0.625
vt 4.903846 0
vt 4.903846 0.625
vt -4.903846 0.020833
vt -4.903846 0
vt -4.903846 0.625
vt 4.903846 0.020833
vt 0 0.020833
vt -0.054487 0.625
vt -0.054487 0
vn 1 0 0
vn 0 0 1
vn 0 -1 0
vn 0 0 -1
vn 0 1 0
vn -1 0 0
usemtl material_0_0
f 1/1/1 2/2/1 3/3/1
f 2/2/1 1/1/1 4/4/1
f 5/2/2 3/5/2 2/6/2
f 6/3/3 1/7/3 3/8/3
f 1/8/4 7/2/4 4/9/4
f 4/10/5 5/3/5 2/5/5
f 3/5/2 5/2/2 6/3/2
f 1/7/3 6/3/3 8/11/3
f 7/2/4 1/8/4 8/3/4
f 5/3/5 4/10/5 7/11/5
f 7/12/6 6/3/6 5/2/6
f 6/3/6 7/12/6 8/13/6
usemtl material_1_0
f 3//6 2//6 1//6
f 4//6 1//6 2//6
f 2//4 3//4 5//4
f 3//5 1//5 6//5
f 4//2 7//2 1//2
f 2//3 5//3 4//3
f 6//4 5//4 3//4
f 8//5 6//5 1//5
f 8//2 1//2 7//2
f 7//3 4//3 5//3
f 5//1 6//1 7//1
f 8//1 7//1 6//1
