# SSTK version 0.8.0
# 14
mtllib original-14.mtl
o N._Crown_Base_Side1/N._Crown_Base_Side/mesh19/mesh19-geometry#mesh19-geometry
v -0.321034 0.571360 0.115948
v -0.321034 0.571360 -0.115957
v -0.320879 0.571815 0.116102
v -0.321128 0.570888 -0.115957
v -0.320879 0.571815 -0.115957
v -0.324838 0.575926 0.112143
v -0.321128 0.570888 0.115854
v -0.324838 0.599840 -0.115957
v -0.320666 0.572247 0.116315
v -0.321159 0.570407 -0.115957
v -0.320666 0.572247 -0.115957
v -0.320399 0.572647 0.116582
v -0.321159 0.570407 0.115822
v -0.323918 0.577765 -0.115957
v -0.320399 0.572647 -0.115957
v -0.320082 0.573009 0.116900
v -0.324838 0.570407 0.112143
v -0.324838 0.577765 -0.115957
v -0.323918 0.575926 -0.115957
v -0.320082 0.573009 -0.115957
v -0.319720 0.573326 0.117262
v -0.324838 0.575926 -0.115957
v -0.324838 0.570407 -0.115957
v -0.324838 0.577765 0.112143
v -0.323918 0.575926 0.113063
v -0.319720 0.573326 -0.115957
v -0.319320 0.573594 0.117662
v -0.324838 0.599840 0.112143
v -0.323918 0.577765 0.113063
v -0.319320 0.573594 -0.115957
v -0.318888 0.573806 0.118093
v -0.317480 0.574086 0.119501
v -0.317480 0.599840 0.119501
v -0.318888 0.573806 -0.115957
v -0.318432 0.573961 0.118549
v -0.317960 0.574055 0.119021
v -0.317480 0.599840 -0.115957
v -0.318432 0.573961 -0.115957
v -0.317480 0.574086 -0.115957
v -0.317960 0.574055 -0.115957
vt 3.434549 -0.001363
vt 0 -0.001363
vt 3.43684 0.001363
vt 0 0.001363
vt 3.434549 0.001363
vt -2.394617 0.007973
vt -2.311695 0.03125
vt -2.391377 0.005392
vt 3.433158 -0.001363
vt 3.43684 -0.001363
vt 3.439992 0.001363
vt -2.399075 0.010417
vt -2.389411 0.002719
vt 3.433158 0.001363
vt -2.404675 0.012683
vt -2.388752 0
vt 3.432692 -0.001363
vt 3.439992 -0.001363
vt 3.443952 0.001363
vt -2.411321 0.014731
vt -2.311695 0
vt -3.432692 0.020833
vt -3.378205 0.041667
vt 0 0.020833
vt -2.418899 0.016528
vt 3.443952 -0.001363
vt 3.448651 0.001363
vt -3.378205 0.03125
vt 0 0.03125
vt -3.378205 0
vt 0 0.041667
vt 0 0.166667
vt 0 0.036458
vt -3.391827 0.03125
vt -2.42728 0.018042
vt 3.45401 0.001363
vt 3.448651 -0.001363
vt 3.378205 0.041667
vt 3.391827 0.036458
vt 0 0
vt -3.378205 0.166667
vt -3.391827 0.036458
vt -3.391827 0.041667
vt -2.43632 0.019247
vt 3.459936 0.001363
vt 3.45401 -0.001363
vt -2.330959 0.03125
vt -2.465808 0.020833
vt 3.487179 0
vt -2.311695 0.041667
vt -2.330959 0.041667
vt -2.311695 0.166667
vt -2.465808 0.166667
vt -2.445865 0.020123
vt 3.466328 0.001363
vt 3.459936 -0.001363
vt -2.45575 0.020655
vt 3.473077 0.001363
vt 3.466328 -0.001363
vt 3.487179 0.001363
vt 3.480067 -0.001363
vt 3.487179 0.020833
vt 3.487179 0.166667
vt 3.480067 0.001363
vt 3.473077 -0.001363
vn 0.965925849201117 -0.2588189595935754 0
vn 0.9238797538373538 -0.38268289803626016 0
vn 0.9914448886106773 -0.1305259853353411 0
vn -0.7071067811865478 0 0.7071067811865476
vn 0.8660253028382762 -0.5000001748438417 0
vn 0.9978589320009053 -0.06540299554311302 0
vn 0.7933534213778813 -0.6087613233345314 0
vn 0 -1 0
vn 0.7071067811865476 -0.7071067811865476 0
vn -1 0 0
vn 0.6087613233345314 -0.7933534213778813 0
vn 0 1 0
vn 0.5000001748438417 -0.8660253028382762 0
vn 0.38268289803626016 -0.9238797538373538 0
vn 0.2588189595935754 -0.965925849201117 0
vn 0.06540299554311302 -0.9978589320009053 0
vn 0.1305259853353411 -0.9914448886106773 0
vn 1 0 0
vn -0.9238797538373538 0.38268289803626016 0
vn -0.965925849201117 0.2588189595935754 0
vn -0.9914448886106773 0.1305259853353411 0
vn 0.7071067811865478 0 -0.7071067811865476
vn 0 0 -1
vn 0 0 1
vn -0.8660253028382762 0.5000001748438417 0
vn -0.9978589320009053 0.06540299554311302 0
vn -0.7933534213778813 0.6087613233345314 0
vn -0.7071067811865476 0.7071067811865476 0
vn -0.6087613233345314 0.7933534213778813 0
vn -0.5000001748438417 0.8660253028382762 0
vn -0.38268289803626016 0.9238797538373538 0
vn -0.2588189595935754 0.965925849201117 0
vn -0.06540299554311302 0.9978589320009053 0
vn -0.1305259853353411 0.9914448886106773 0
usemtl material_0_0
f 1/1/1 2/2/1 3/3/2
f 2/4/1 1/5/1 4/2/3
f 5/4/2 3/3/2 2/2/1
f 3/6/4 6/7/4 1/8/4
f 7/9/3 4/2/3 1/5/1
f 3/10/2 5/2/2 9/11/5
f 9/12/4 6/7/4 3/6/4
f 1/8/4 6/7/4 7/13/4
f 4/4/3 7/14/3 10/2/6
f 11/4/5 9/11/5 5/2/2
f 12/15/4 6/7/4 9/12/4
f 7/13/4 6/7/4 13/16/4
f 13/17/6 10/2/6 7/14/3
f 9/18/5 11/2/5 12/19/7
f 16/20/4 6/7/4 12/15/4
f 17/21/4 13/16/4 6/7/4
f 13/22/8 17/23/8 10/24/8
f 15/4/7 12/19/7 11/2/5
f 21/25/4 6/7/4 16/20/4
f 12/26/7 15/2/7 16/27/9
f 6/28/10 22/29/10 17/30/10
f 23/31/8 10/24/8 17/23/8
f 18/31/10 24/23/10 8/32/10
f 18/31/8 14/33/8 24/23/8
f 19/29/10 25/34/10 14/31/10
f 20/4/9 16/27/9 15/2/7
f 27/35/4 6/7/4 21/25/4
f 21/36/11 16/37/9 26/4/11
f 6/38/12 25/39/12 22/31/12
f 23/40/10 17/30/10 22/29/10
f 28/41/10 8/32/10 24/23/10
f 29/42/8 24/23/8 14/33/8
f 19/33/12 22/31/12 25/39/12
f 29/43/10 14/31/10 25/34/10
f 20/2/9 26/4/11 16/37/9
f 31/44/4 6/7/4 27/35/4
f 27/45/13 21/46/11 30/4/13
f 26/2/11 30/4/13 21/46/11
f 25/47/4 6/7/4 32/48/4
f 28/38/12 33/49/12 8/31/12
f 24/50/4 29/51/4 28/52/4
f 29/51/4 25/47/4 33/53/4
f 35/54/4 6/7/4 31/44/4
f 31/55/14 27/56/13 34/4/14
f 30/2/13 34/4/14 27/56/13
f 32/48/4 6/7/4 36/57/4
f 33/53/4 25/47/4 32/48/4
f 28/52/4 29/51/4 33/53/4
f 37/40/12 8/31/12 33/49/12
f 36/57/4 6/7/4 35/54/4
f 35/58/15 31/59/14 38/4/15
f 34/2/14 38/4/15 31/59/14
f 32/60/16 36/61/17 39/4/16
f 32/62/18 39/24/18 33/63/18
f 37/32/18 33/63/18 39/24/18
f 36/64/17 35/65/15 40/4/17
f 38/2/15 40/4/17 35/65/15
f 40/2/17 39/4/16 36/61/17
usemtl material_1_0
f 3//19 2//20 1//20
f 4//21 1//20 2//20
f 2//20 3//19 5//19
f 1//22 6//22 3//22
f 1//20 4//21 7//21
f 4//23 8//23 2//23
f 2//24 8//24 4//24
f 9//25 5//19 3//19
f 2//23 8//23 5//23
f 5//24 8//24 2//24
f 3//22 6//22 9//22
f 7//22 6//22 1//22
f 10//26 7//21 4//21
f 10//23 8//23 4//23
f 4//24 8//24 10//24
f 5//19 9//25 11//25
f 5//23 8//23 11//23
f 11//24 8//24 5//24
f 9//22 6//22 12//22
f 13//22 6//22 7//22
f 7//21 10//26 13//26
f 14//23 8//23 10//23
f 10//24 8//24 14//24
f 12//27 11//25 9//25
f 11//23 8//23 15//23
f 15//24 8//24 11//24
f 12//22 6//22 16//22
f 6//22 13//22 17//22
f 10//12 17//12 13//12
f 18//23 8//23 14//23
f 14//24 8//24 18//24
f 14//23 10//23 19//23
f 19//24 10//24 14//24
f 11//25 12//27 15//27
f 15//23 8//23 20//23
f 20//24 8//24 15//24
f 16//22 6//22 21//22
f 16//28 15//27 12//27
f 17//18 22//18 6//18
f 17//12 10//12 23//12
f 8//18 24//18 18//18
f 24//12 14//12 18//12
f 23//23 19//23 10//23
f 10//24 19//24 23//24
f 14//18 25//18 19//18
f 20//23 8//23 26//23
f 26//24 8//24 20//24
f 15//27 16//28 20//28
f 21//22 6//22 27//22
f 26//29 16//28 21//29
f 22//8 25//8 6//8
f 22//18 17//18 23//18
f 24//18 8//18 28//18
f 14//12 24//12 29//12
f 22//23 19//23 23//23
f 23//24 19//24 22//24
f 25//8 22//8 19//8
f 25//18 14//18 29//18
f 26//23 8//23 30//23
f 30//24 8//24 26//24
f 16//28 26//29 20//28
f 27//22 6//22 31//22
f 30//30 21//29 27//30
f 21//29 30//30 26//29
f 32//22 6//22 25//22
f 8//8 33//8 28//8
f 28//22 29//22 24//22
f 33//22 25//22 29//22
f 30//23 8//23 34//23
f 34//24 8//24 30//24
f 31//22 6//22 35//22
f 34//31 27//30 31//31
f 27//30 34//31 30//30
f 36//22 6//22 32//22
f 32//22 25//22 33//22
f 33//22 29//22 28//22
f 33//8 8//8 37//8
f 34//23 8//23 38//23
f 38//24 8//24 34//24
f 35//22 6//22 36//22
f 38//32 31//31 35//32
f 31//31 38//32 34//31
f 39//33 36//34 32//33
f 33//10 39//10 32//10
f 37//23 39//23 8//23
f 8//24 39//24 37//24
f 39//10 33//10 37//10
f 38//23 8//23 40//23
f 40//24 8//24 38//24
f 40//34 35//32 36//34
f 35//32 40//34 38//32
f 36//34 39//33 40//34
f 40//23 8//23 39//23
f 39//24 8//24 40//24
