# SSTK version 0.8.0
# 95
mtllib original-95.mtl
o Side_Top_Bottom_Glass_Stop8/Side_Top_Bottom_Glass_Stop/mesh28/mesh28-geometry#mesh28-geometry
v 0.348425 -0.235302 -0.082846
v 0.342907 -0.235302 0.067995
v 0.342907 -0.235302 -0.082846
v 0.348425 -0.235302 0.067995
v 0.342907 -0.227944 -0.082846
v 0.348425 -0.227944 0.067995
v 0.342907 -0.227944 0.067995
v 0.348425 -0.227944 -0.082846
vt -0.081731 0.854167
vt 0 0
vt 0 0.854167
vt -0.081731 0
vt -2.233974 0.041667
vt -2.233974 0
vt 0 0.041667
vt 2.233974 0
vt 0.081731 0.041667
vt 0.081731 0
vt -0.081731 0.041667
vt 2.233974 0.041667
vt 0.081731 0.854167
vn 0 -1 0
vn -1 0 0
vn 0 0 -1
vn 1 0 0
vn 0 0 1
vn 0 1 0
usemtl material_0_0
f 1/1/1 2/2/1 3/3/1
f 2/2/1 1/1/1 4/4/1
f 2/2/2 5/5/2 3/6/2
f 5/7/3 1/4/3 3/2/3
f 1/8/4 6/7/4 4/2/4
f 6/9/5 2/2/5 4/10/5
f 5/5/2 2/2/2 7/7/2
f 1/4/3 5/7/3 8/11/3
f 6/7/4 1/8/4 8/12/4
f 2/2/5 6/9/5 7/7/5
f 6/10/6 5/3/6 7/2/6
f 5/3/6 6/10/6 8/13/6
usemtl material_1_0
f 3//6 2//6 1//6
f 4//6 1//6 2//6
f 3//4 5//4 2//4
f 3//5 1//5 5//5
f 4//2 6//2 1//2
f 4//3 2//3 6//3
f 7//4 2//4 5//4
f 8//5 5//5 1//5
f 8//2 1//2 6//2
f 7//3 6//3 2//3
f 7//1 5//1 6//1
f 8//1 6//1 5//1
