# SSTK version 0.8.0
# 71
mtllib original-71.mtl
o C._Middle_Rails_1_2/C._Middle_Rails_1/mesh42/mesh42-geometry#mesh42-geometry
v 0.771515 -0.272092 0.067995
v 0.767836 -0.272092 -0.082846
v 0.771515 -0.272092 -0.082846
v 0.767836 -0.272092 0.067995
v 0.771515 -0.235302 -0.082846
v 0.771515 -0.264734 -0.082846
v 0.767836 -0.235302 0.067995
v 0.767836 -0.235302 -0.082846
v 0.771515 -0.264734 0.067995
v 0.771515 -0.235302 0.067995
v 0.771515 -0.235302 -0.090204
v 0.775194 -0.264734 0.067995
v 0.775194 -0.235302 0.067995
v 0.775194 -0.235302 -0.082846
v 0.771515 -0.264734 -0.090204
v 0.775194 -0.235302 -0.090204
v 0.775194 -0.264734 -0.082846
v 0.775194 -0.264734 0.075353
v 0.771515 -0.235302 0.075353
v 0.775194 -0.272092 -0.082846
v 0.771515 -0.264734 0.075353
v 0.775194 -0.227944 0.067995
v 0.775194 -0.235302 0.075353
v 0.775194 -0.264734 -0.090204
v 0.775194 -0.272092 0.067995
v 0.778873 -0.227944 -0.082846
v 0.778873 -0.272092 0.067995
v 0.775194 -0.227944 -0.082846
v 0.778873 -0.272092 -0.082846
v 0.778873 -0.227944 0.067995
vt -2.342949 0.020833
vt -0.108974 0
vt -0.108974 0.020833
vt -2.342949 0
vt 0 0
vt -0.054487 0.208333
vt -0.054487 0
vt -0.108974 0.041667
vt 0.054487 0
vt 0 0.208333
vt 2.342949 0.208333
vt 0.108974 0
vt 2.342949 0
vt -0.054487 0.041667
vt -2.342949 0.041667
vt 0.054487 0.208333
vt 0.108974 0.208333
vt 0.108974 0.020833
vt -0.108974 0.208333
vt 0.054487 0.041667
vt 2.342949 0.041667
vt 2.342949 0.020833
vt 0.108974 0.041667
vt 0 0.041667
vt 0 0.020833
vt -2.451923 0.041667
vt 2.451923 0.208333
vt 2.451923 0.020833
vt -2.342949 0.208333
vt -2.451923 0.020833
vt 2.451923 0.041667
vt 2.342949 0.25
vt -0.163462 0.25
vt 0.163462 0
vt -2.451923 0.208333
vt 0.108974 0.25
vt -0.108974 0.0625
vt -0.163462 0
vt 0.108974 0.0625
vt -0.108974 0.25
vt 0.163462 0.25
vt -2.342949 0.0625
vt 2.342949 0.0625
vt -2.342949 0.25
vn 0 -1 0
vn 0 0 -1
vn 1 0 0
vn 0 0 1
vn -1 0 0
vn 0 1 0
usemtl material_0_0
f 1/1/1 2/2/1 3/3/1
f 2/2/1 1/1/1 4/4/1
f 2/5/2 5/6/2 3/7/2
f 6/8/3 1/4/3 3/2/3
f 1/9/4 7/10/4 4/5/4
f 7/11/5 2/12/5 4/13/5
f 5/6/2 2/5/2 8/10/2
f 3/7/2 5/6/2 6/14/2
f 1/4/3 6/8/3 9/15/3
f 7/10/4 1/9/4 10/16/4
f 2/12/5 7/11/5 8/17/5
f 7/13/6 5/18/6 8/12/6
f 5/19/5 11/10/5 6/8/5
f 6/3/1 12/15/1 9/1/1
f 10/16/4 1/9/4 9/20/4
f 13/21/6 7/13/6 10/22/6
f 5/18/6 7/13/6 14/23/6
f 15/24/5 6/8/5 11/10/5
f 5/18/6 16/24/6 11/25/6
f 6/3/1 17/8/1 12/15/1
f 9/1/1 12/15/1 18/26/1
f 9/21/5 19/27/5 10/11/5
f 14/23/6 7/13/6 13/21/6
f 13/21/6 10/22/6 19/28/6
f 16/24/6 5/18/6 14/23/6
f 15/25/1 17/8/1 6/3/1
f 16/19/2 15/14/2 11/6/2
f 20/12/5 12/21/5 17/23/5
f 13/29/3 18/26/3 12/15/3
f 9/1/1 18/26/1 21/30/1
f 19/27/5 9/21/5 21/31/5
f 22/32/5 14/17/5 13/11/5
f 13/21/6 19/28/6 23/31/6
f 16/10/3 14/17/3 24/24/3
f 17/8/1 15/25/1 24/24/1
f 15/14/2 16/19/2 24/8/2
f 12/21/5 20/12/5 25/13/5
f 17/8/2 26/33/2 20/2/2
f 12/23/4 27/34/4 13/17/4
f 18/26/3 13/29/3 23/35/3
f 18/23/4 19/16/4 21/20/4
f 14/17/5 22/32/5 28/36/5
f 13/17/4 27/34/4 22/36/4
f 14/19/2 26/33/2 17/8/2
f 17/23/3 24/24/3 14/17/3
f 19/16/4 18/23/4 23/17/4
f 29/37/1 25/15/1 20/8/1
f 27/34/4 12/23/4 25/12/4
f 20/2/2 26/33/2 29/38/2
f 22/21/6 26/39/6 28/23/6
f 26/33/2 14/19/2 28/40/2
f 22/36/4 27/34/4 30/41/4
f 25/15/1 29/37/1 27/42/1
f 26/40/3 27/4/3 29/2/3
f 26/39/6 22/21/6 30/43/6
f 27/4/3 26/40/3 30/44/3
usemtl material_1_0
f 3//6 2//6 1//6
f 4//6 1//6 2//6
f 3//4 5//4 2//4
f 3//5 1//5 6//5
f 4//2 7//2 1//2
f 4//3 2//3 7//3
f 8//4 2//4 5//4
f 6//4 5//4 3//4
f 9//5 6//5 1//5
f 10//2 1//2 7//2
f 8//3 7//3 2//3
f 8//1 5//1 7//1
f 6//3 11//3 5//3
f 9//6 12//6 6//6
f 9//2 1//2 10//2
f 10//1 7//1 13//1
f 14//1 7//1 5//1
f 11//3 6//3 15//3
f 11//1 16//1 5//1
f 12//6 17//6 6//6
f 18//6 12//6 9//6
f 10//3 19//3 9//3
f 13//1 7//1 14//1
f 19//1 10//1 13//1
f 14//1 5//1 16//1
f 6//6 17//6 15//6
f 11//4 15//4 16//4
f 17//3 12//3 20//3
f 13//5 17//5 12//5
f 12//3 17//3 13//3
f 12//5 18//5 13//5
f 21//6 18//6 9//6
f 21//3 9//3 19//3
f 13//3 14//3 22//3
f 17//5 13//5 14//5
f 14//3 13//3 17//3
f 23//1 19//1 13//1
f 24//5 14//5 16//5
f 24//6 15//6 17//6
f 24//4 16//4 15//4
f 25//3 20//3 12//3
f 20//4 26//4 17//4
f 13//2 27//2 12//2
f 23//5 13//5 18//5
f 21//2 19//2 18//2
f 28//3 22//3 14//3
f 22//2 27//2 13//2
f 17//4 26//4 14//4
f 14//5 24//5 17//5
f 23//2 18//2 19//2
f 20//6 25//6 29//6
f 25//2 12//2 27//2
f 29//4 26//4 20//4
f 28//1 26//1 22//1
f 28//4 14//4 26//4
f 30//2 27//2 22//2
f 27//6 29//6 25//6
f 29//5 27//5 26//5
f 30//1 22//1 26//1
f 30//5 26//5 27//5
