# SSTK version 0.8.0
# 55
mtllib original-55.mtl
o O._Cap_Side3/O._Cap_Side12/mesh35/mesh35-geometry#mesh35-geometry
v 0.778873 0.610877 0.112143
v 0.802786 0.610877 -0.115957
v 0.778873 0.610877 -0.115957
v 0.802786 0.610877 0.136057
v 0.778873 0.599840 -0.115957
v 0.802786 0.605358 0.136057
v 0.798007 0.602599 -0.115957
v 0.778873 0.599840 0.112143
v 0.802066 0.605311 0.135337
v 0.802786 0.605358 -0.115957
v 0.798408 0.603199 -0.115957
v 0.797688 0.601952 -0.115957
v 0.797268 0.599840 0.130538
v 0.797315 0.600560 0.130586
v 0.801358 0.605170 0.134629
v 0.802066 0.605311 -0.115957
v 0.798884 0.603742 -0.115957
v 0.798007 0.602599 0.131278
v 0.797456 0.601268 -0.115957
v 0.797268 0.599840 -0.115957
v 0.797456 0.601268 0.130726
v 0.800675 0.604938 0.133945
v 0.801358 0.605170 -0.115957
v 0.799427 0.604218 -0.115957
v 0.798408 0.603199 0.131679
v 0.797688 0.601952 0.130958
v 0.797315 0.600560 -0.115957
v 0.800027 0.604619 0.133298
v 0.800675 0.604938 -0.115957
v 0.800027 0.604619 -0.115957
v 0.799427 0.604218 0.132697
v 0.798884 0.603742 0.132155
vt 3.378205 0
vt 0 0.135417
vt 0 0
vt 3.732372 0.135417
vt -0.354167 0.0625
vt 0 0.0625
vt 3.378205 0.0625
vt 2.388752 0.0625
vt 2.889619 0.03125
vt 2.889619 0.0625
vt -3.732372 0.03125
vt -3.732372 0.0625
vt -0.283386 0.015625
vt 2.874532 0.030983
vt 0 0.03125
vt -0.289325 0.019024
vt -0.278657 0.011959
vt -3.650641 0.104167
vt -3.378205 0
vt 2.388752 0
vt 2.775023 0.004079
vt 2.859704 0.030185
vt 0 0.133083
vt -3.732372 0.137171
vt -3.721704 0.133083
vt 0 0.137171
vt -0.343499 0.030983
vt -0.354167 0.03125
vt -0.296374 0.022097
vt 0 0.077277
vt -3.661591 0.07319
vt 0 0.07319
vt -3.661591 0.061937
vt 0 0.057849
vt 0 0.061937
vt -0.275221 0.008088
vt 0 0.104167
vt 2.774034 0
vt 2.777973 0.008088
vt 2.845387 0.028871
vt 0 0.130771
vt -3.721704 0.134859
vt -3.711218 0.130771
vt 0 0.134859
vt -0.333013 0.030185
vt -0.304412 0.024792
vt 0 0.09133
vt -3.66753 0.087243
vt 0 0.087243
vt -3.66753 0.077277
vt -3.656862 0.057849
vt 0 0.045572
vt -3.653426 0.041484
vt 0 0.041484
vt -0.273135 0.004079
vt -0.272436 0
vt 0 0.010901
vt -3.650641 0.006813
vt 0 0.006813
vt -3.65134 0.010901
vt -3.65134 0.024375
vt 0 0.028462
vt -3.653426 0.028462
vt 2.782833 0.011959
vt 2.831827 0.027063
vt 0 0.126186
vt -3.711218 0.130274
vt -3.701095 0.126186
vt 0 0.130274
vt -0.32289 0.028871
vt -0.313301 0.027063
vt -3.682617 0.103855
vt 0 0.099768
vt 0 0.103855
vt -3.674579 0.09133
vt 2.78952 0.015625
vt 2.79792 0.019024
vt -3.656862 0.045572
vt 0 0.024375
vt 2.819256 0.024792
vt 0 0.119408
vt -3.701095 0.123495
vt -3.691506 0.119408
vt 0 0.123495
vt -3.691506 0.114639
vt 0 0.110551
vt 0 0.114639
vt -3.674579 0.099768
vt -3.682617 0.110551
vt 2.807888 0.022097
vn 0 1 0
vn 0 0 -1
vn -1 0 0
vn -0.7071067811865476 0 0.7071067811865478
vn 1 0 0
vn 0 -1 0
vn 0.1305259853353411 -0.9914448886106773 0
vn 0.06540299554311302 -0.9978589320009053 0
vn 0.7933534213778813 -0.6087613233345314 0
vn 0.8660253028382762 -0.5000001748438417 0
vn 0.9238797538373538 -0.38268289803626016 0
vn 0.2588189595935754 -0.965925849201117 0
vn 0.7071067811865476 -0.7071067811865476 0
vn 0.965925849201117 -0.2588189595935754 0
vn 0.9914448886106773 -0.1305259853353411 0
vn 0.9978589320009053 -0.06540299554311302 0
vn 0.38268289803626016 -0.9238797538373538 0
vn 0.6087613233345314 -0.7933534213778813 0
vn 0.5000001748438417 -0.8660253028382762 0
vn 0 0 1
vn 0.7071067811865476 0 -0.7071067811865478
vn -0.1305259853353411 0.9914448886106773 0
vn -0.06540299554311302 0.9978589320009053 0
vn -0.8660253028382762 0.5000001748438417 0
vn -0.7933534213778813 0.6087613233345314 0
vn -0.9238797538373538 0.38268289803626016 0
vn -0.2588189595935754 0.965925849201117 0
vn -0.7071067811865476 0.7071067811865476 0
vn -0.965925849201117 0.2588189595935754 0
vn -0.9978589320009053 0.06540299554311302 0
vn -0.9914448886106773 0.1305259853353411 0
vn -0.38268289803626016 0.9238797538373538 0
vn -0.6087613233345314 0.7933534213778813 0
vn -0.5000001748438417 0.8660253028382762 0
usemtl material_0_0
f 1/1/1 2/2/1 3/3/1
f 2/2/1 1/1/1 4/4/1
f 2/5/2 5/3/2 3/6/2
f 5/3/3 1/7/3 3/6/3
f 1/8/4 6/9/4 4/10/4
f 6/11/5 2/6/5 4/12/5
f 5/3/2 2/5/2 7/13/2
f 1/7/3 5/3/3 8/1/3
f 1/8/4 9/14/4 6/9/4
f 2/6/5 6/11/5 10/15/5
f 7/13/2 2/5/2 11/16/2
f 5/3/2 7/13/2 12/17/2
f 5/3/6 13/18/6 8/19/6
f 8/20/4 14/21/4 1/8/4
f 1/8/4 15/22/4 9/14/4
f 16/23/7 6/24/8 9/25/7
f 6/24/8 16/23/7 10/26/8
f 16/27/2 2/5/2 10/28/2
f 11/16/2 2/5/2 17/29/2
f 11/30/9 18/31/10 7/32/10
f 18/33/10 12/34/11 7/35/10
f 5/3/2 12/17/2 19/36/2
f 13/18/6 5/3/6 20/37/6
f 14/21/4 8/20/4 13/38/4
f 1/8/4 14/21/4 21/39/4
f 1/8/4 22/40/4 15/22/4
f 23/41/12 9/42/7 15/43/12
f 9/42/7 23/41/12 16/44/7
f 23/45/2 2/5/2 16/27/2
f 17/29/2 2/5/2 24/46/2
f 17/47/13 25/48/9 11/49/9
f 18/31/10 11/30/9 25/50/9
f 12/34/11 18/33/10 26/51/11
f 12/52/11 21/53/14 19/54/14
f 5/3/2 19/36/2 27/55/2
f 5/3/2 27/55/2 20/56/2
f 27/57/15 13/58/16 20/59/16
f 13/58/16 27/57/15 14/60/15
f 14/61/15 19/62/14 21/63/14
f 1/8/4 21/39/4 26/64/4
f 1/8/4 28/65/4 22/40/4
f 29/66/17 15/67/12 22/68/17
f 15/67/12 29/66/17 23/69/12
f 29/70/2 2/5/2 23/45/2
f 24/46/2 2/5/2 30/71/2
f 31/72/18 17/73/13 24/74/18
f 25/48/9 17/47/13 32/75/13
f 1/8/4 18/76/4 25/77/4
f 1/8/4 26/64/4 18/76/4
f 21/53/14 12/52/11 26/78/11
f 19/62/14 14/61/15 27/79/15
f 1/8/4 31/80/4 28/65/4
f 30/81/19 22/82/17 28/83/19
f 22/82/17 30/81/19 29/84/17
f 30/71/2 2/5/2 29/70/2
f 28/85/19 24/86/18 30/87/19
f 17/73/13 31/72/18 32/88/13
f 24/86/18 28/85/19 31/89/18
f 1/8/4 25/77/4 32/90/4
f 1/8/4 32/90/4 31/80/4
usemtl material_1_0
f 3//6 2//6 1//6
f 4//6 1//6 2//6
f 3//20 5//20 2//20
f 3//5 1//5 5//5
f 4//21 6//21 1//21
f 4//3 2//3 6//3
f 7//20 2//20 5//20
f 8//5 5//5 1//5
f 6//21 9//21 1//21
f 10//3 6//3 2//3
f 11//20 2//20 7//20
f 12//20 7//20 5//20
f 8//1 13//1 5//1
f 1//21 14//21 8//21
f 9//21 15//21 1//21
f 9//22 6//23 16//22
f 10//23 16//22 6//23
f 10//20 2//20 16//20
f 17//20 2//20 11//20
f 7//24 18//24 11//25
f 7//24 12//26 18//24
f 19//20 12//20 5//20
f 20//1 5//1 13//1
f 13//21 8//21 14//21
f 21//21 14//21 1//21
f 15//21 22//21 1//21
f 15//27 9//22 23//27
f 16//22 23//27 9//22
f 16//20 2//20 23//20
f 24//20 2//20 17//20
f 11//25 25//25 17//28
f 25//25 11//25 18//24
f 26//26 18//24 12//26
f 19//29 21//29 12//26
f 27//20 19//20 5//20
f 20//20 27//20 5//20
f 20//30 13//30 27//31
f 14//31 27//31 13//30
f 21//29 19//29 14//31
f 26//21 21//21 1//21
f 22//21 28//21 1//21
f 22//32 15//27 29//32
f 23//27 29//32 15//27
f 23//20 2//20 29//20
f 30//20 2//20 24//20
f 24//33 17//28 31//33
f 32//28 17//28 25//25
f 25//21 18//21 1//21
f 18//21 26//21 1//21
f 26//26 12//26 21//29
f 27//31 14//31 19//29
f 28//21 31//21 1//21
f 28//34 22//32 30//34
f 29//32 30//34 22//32
f 29//20 2//20 30//20
f 30//34 24//33 28//34
f 32//28 31//33 17//28
f 31//33 28//34 24//33
f 32//21 25//21 1//21
f 31//21 32//21 1//21
