# SSTK version 0.8.0
# 44
mtllib original-44.mtl
o Side_Stiles1/Side_Stiles/mesh44/mesh44-geometry#mesh44-geometry
v -0.766323 -0.478118 0.067995
v -0.755285 -0.478118 0.101106
v -0.766323 -0.478118 0.101106
v -0.762644 -0.478118 0.075353
v -0.766323 0.610877 0.101106
v -0.762644 -0.478118 0.067995
v -0.758964 -0.478118 0.075353
v -0.755285 0.610877 0.101106
v -0.766323 0.610877 0.067995
v -0.762644 0.610877 0.067995
v -0.755285 -0.478118 0.067995
v -0.758964 0.610877 0.075353
v -0.755285 -0.235302 0.075353
v -0.762644 0.610877 0.075353
v -0.758964 -0.478118 0.067995
v -0.755285 -0.235302 0.067995
v -0.758964 0.544654 0.075353
v -0.755285 0.544654 0.075353
v -0.758964 -0.235302 0.075353
v -0.758964 -0.235302 0.067995
v -0.758964 0.544654 0.067995
v -0.755285 0.610877 0.067995
v -0.758964 0.610877 0.067995
v -0.755285 0.544654 0.067995
vt -0.490385 0.0625
vt 0 0
vt 0 0.0625
vt -0.38141 0.041667
vt -0.163462 6.166667
vt -0.163462 0
vt 0 6.166667
vt -0.490385 0
vt -0.490385 0.041667
vt -0.38141 0.020833
vt -0.490385 6.166667
vt 0.163462 0
vt 0.108974 6.166667
vt 0.108974 0
vt 0.490385 6.166667
vt 0.38141 0
vt 0.490385 0
vt 0.054487 6.166667
vt 0.054487 0
vt 0.38141 1.375
vt 0.490385 0.0625
vt 0.163462 6.166667
vt 0.38141 6.166667
vt -0.490385 0.020833
vt 0.490385 1.375
vt 0.054487 5.791667
vt 0.38141 5.791667
vt 0.38141 0.041667
vt 0.490385 0.041667
vt -0.38141 1.375
vt -0.38141 0
vt 0.054487 1.375
vt 0 1.375
vt 0.38141 0.020833
vt 0 5.791667
vt -0.490385 1.375
vt 0.490385 5.791667
vt 0.490385 0.020833
vn 0 -1 0
vn 0 0 1
vn -1 0 0
vn 0 0 -1
vn 1 0 0
vn 0 1 0
usemtl material_0_0
f 1/1/1 2/2/1 3/3/1
f 2/2/1 1/1/1 4/4/1
f 2/2/2 5/5/2 3/6/2
f 5/7/3 1/8/3 3/2/3
f 4/4/1 1/1/1 6/9/1
f 7/10/1 2/2/1 4/4/1
f 5/5/2 2/2/2 8/7/2
f 1/8/3 5/7/3 9/11/3
f 1/12/4 10/13/4 6/14/4
f 10/15/5 4/16/5 6/17/5
f 2/2/1 7/10/1 11/8/1
f 12/18/4 7/19/4 4/14/4
f 2/2/5 13/20/5 8/7/5
f 8/2/6 9/21/6 5/3/6
f 10/13/4 1/12/4 9/22/4
f 4/16/5 10/15/5 14/23/5
f 11/8/1 7/10/1 15/24/1
f 16/25/5 2/2/5 11/17/5
f 17/26/4 7/19/4 12/18/4
f 12/18/4 4/14/4 14/13/4
f 2/2/5 16/25/5 13/20/5
f 8/7/5 13/20/5 18/27/5
f 9/21/6 8/2/6 14/28/6
f 9/21/6 14/28/6 10/29/6
f 19/30/3 15/8/3 7/31/3
f 20/32/4 11/2/4 15/19/4
f 11/2/4 20/32/4 16/33/4
f 17/26/4 19/32/4 7/19/4
f 8/2/6 12/34/6 14/28/6
f 19/32/4 18/35/4 13/33/4
f 8/7/5 18/27/5 22/15/5
f 15/8/3 19/30/3 20/36/3
f 18/35/4 19/32/4 17/26/4
f 12/34/6 8/2/6 22/17/6
f 22/15/5 18/27/5 24/37/5
f 12/34/6 22/17/6 23/38/6
usemtl material_1_0
f 3//6 2//6 1//6
f 4//6 1//6 2//6
f 3//4 5//4 2//4
f 3//5 1//5 5//5
f 6//6 1//6 4//6
f 4//6 2//6 7//6
f 8//4 2//4 5//4
f 9//5 5//5 1//5
f 6//2 10//2 1//2
f 6//3 4//3 10//3
f 11//6 7//6 2//6
f 4//2 7//2 12//2
f 8//3 13//3 2//3
f 5//1 9//1 8//1
f 9//2 1//2 10//2
f 14//3 10//3 4//3
f 15//6 7//6 11//6
f 11//3 2//3 16//3
f 12//2 7//2 17//2
f 14//2 4//2 12//2
f 13//3 16//3 2//3
f 18//3 13//3 8//3
f 14//1 8//1 9//1
f 10//1 14//1 9//1
f 7//5 15//5 19//5
f 15//2 11//2 20//2
f 16//2 20//2 11//2
f 7//2 19//2 17//2
f 12//3 21//3 17//3
f 17//5 21//5 12//5
f 14//1 12//1 8//1
f 20//6 13//6 16//6
f 16//1 13//1 20//1
f 13//2 18//2 19//2
f 22//3 18//3 8//3
f 20//5 19//5 15//5
f 17//2 19//2 18//2
f 21//3 12//3 23//3
f 23//5 12//5 21//5
f 24//1 17//1 21//1
f 21//6 17//6 24//6
f 22//1 8//1 12//1
f 13//6 20//6 19//6
f 19//1 20//1 13//1
f 24//3 18//3 22//3
f 17//1 24//1 18//1
f 18//6 24//6 17//6
f 23//1 22//1 12//1
f 22//4 21//4 23//4
f 23//2 21//2 22//2
f 21//4 22//4 24//4
f 24//2 22//2 21//2
