# SSTK version 0.8.0
# 84
mtllib original-84.mtl
o Side_Stiles_3_2/Side_Stiles_3/mesh38/mesh38-geometry#mesh38-geometry
v 0.767836 -0.478118 0.067995
v 0.778873 -0.478118 0.101106
v 0.767836 -0.478118 0.101106
v 0.771515 -0.478118 0.075353
v 0.767836 0.610877 0.101106
v 0.771515 -0.478118 0.067995
v 0.775194 -0.478118 0.075353
v 0.778873 0.610877 0.101106
v 0.767836 -0.235302 0.075353
v 0.767836 -0.235302 0.067995
v 0.771515 -0.235302 0.067995
v 0.778873 -0.478118 0.067995
v 0.775194 0.610877 0.075353
v 0.778873 0.610877 0.067995
v 0.767836 0.610877 0.067995
v 0.767836 0.544654 0.075353
v 0.771515 -0.235302 0.075353
v 0.775194 -0.478118 0.067995
v 0.771515 0.610877 0.075353
v 0.767836 0.544654 0.067995
v 0.771515 0.544654 0.075353
v 0.775194 0.610877 0.067995
v 0.771515 0.610877 0.067995
v 0.771515 0.544654 0.067995
vt -0.490385 0.0625
vt 0 0
vt 0 0.0625
vt -0.38141 0.041667
vt -0.163462 6.166667
vt -0.163462 0
vt 0 6.166667
vt -0.490385 0
vt -0.490385 0.041667
vt -0.38141 0.020833
vt -0.38141 1.375
vt 0.163462 1.375
vt 0.108974 0
vt 0.163462 0
vt 0.490385 1.375
vt 0.38141 0
vt 0.490385 0
vt 0.054487 6.166667
vt 0.054487 0
vt 0.490385 6.166667
vt 0.490385 0.0625
vt -0.38141 5.791667
vt -0.490385 1.375
vt 0.108974 1.375
vt 0.38141 1.375
vt -0.490385 0.020833
vt -0.38141 6.166667
vt -0.38141 0
vt 0.38141 0.020833
vt 0.38141 0.041667
vt -0.490385 5.791667
vt -0.490385 6.166667
vt 0.108974 5.791667
vt 0.163462 5.791667
vt 0.108974 6.166667
vt 0.490385 0.020833
vt 0.490385 0.041667
vt 0.163462 6.166667
vt 0.38141 5.791667
vt 0.38141 6.166667
vt 0.490385 5.791667
vn 0 -1 0
vn 0 0 1
vn -1 0 0
vn 0 0 -1
vn 1 0 0
vn 0 1 0
usemtl material_0_0
f 1/1/1 2/2/1 3/3/1
f 2/2/1 1/1/1 4/4/1
f 2/2/2 5/5/2 3/6/2
f 5/7/3 1/8/3 3/2/3
f 4/4/1 1/1/1 6/9/1
f 7/10/1 2/2/1 4/4/1
f 5/5/2 2/2/2 8/7/2
f 1/8/3 5/7/3 9/11/3
f 10/12/4 6/13/4 1/14/4
f 11/15/5 4/16/5 6/17/5
f 2/2/1 7/10/1 12/8/1
f 4/13/4 13/18/4 7/19/4
f 2/2/5 14/20/5 8/7/5
f 8/2/6 15/21/6 5/3/6
f 9/11/3 5/7/3 16/22/3
f 10/23/3 1/8/3 9/11/3
f 6/13/4 10/12/4 11/24/4
f 4/16/5 11/15/5 17/25/5
f 12/8/1 7/10/1 18/26/1
f 14/20/5 2/2/5 12/17/5
f 13/18/4 4/13/4 17/24/4
f 13/27/3 18/8/3 7/28/3
f 13/29/6 8/2/6 14/17/6
f 15/21/6 8/2/6 19/30/6
f 20/31/3 5/7/3 15/32/3
f 16/22/3 5/7/3 20/31/3
f 21/33/4 9/12/4 16/34/4
f 18/19/4 14/7/4 12/2/4
f 17/24/4 19/35/4 13/18/4
f 18/8/3 13/27/3 22/32/3
f 8/2/6 13/29/6 19/30/6
f 13/29/6 14/17/6 22/36/6
f 15/21/6 19/30/6 23/37/6
f 15/38/4 24/33/4 20/34/4
f 21/33/4 17/24/4 9/12/4
f 14/7/4 18/19/4 22/18/4
f 19/35/4 17/24/4 21/33/4
f 21/39/5 23/20/5 19/40/5
f 24/33/4 15/38/4 23/35/4
f 23/20/5 21/39/5 24/41/5
usemtl material_1_0
f 3//6 2//6 1//6
f 4//6 1//6 2//6
f 3//4 5//4 2//4
f 3//5 1//5 5//5
f 6//6 1//6 4//6
f 4//6 2//6 7//6
f 8//4 2//4 5//4
f 9//5 5//5 1//5
f 1//2 6//2 10//2
f 6//3 4//3 11//3
f 12//6 7//6 2//6
f 7//2 13//2 4//2
f 8//3 14//3 2//3
f 5//1 15//1 8//1
f 16//5 5//5 9//5
f 9//5 1//5 10//5
f 11//2 10//2 6//2
f 17//3 11//3 4//3
f 18//6 7//6 12//6
f 12//3 2//3 14//3
f 17//2 4//2 13//2
f 7//5 18//5 13//5
f 14//1 8//1 13//1
f 19//1 8//1 15//1
f 15//5 5//5 20//5
f 20//5 5//5 16//5
f 16//2 9//2 21//2
f 9//6 11//6 10//6
f 10//1 11//1 9//1
f 11//6 9//6 17//6
f 17//1 9//1 11//1
f 12//2 14//2 18//2
f 13//2 19//2 17//2
f 22//5 13//5 18//5
f 19//1 13//1 8//1
f 22//1 14//1 13//1
f 23//1 19//1 15//1
f 20//2 24//2 15//2
f 24//1 16//1 20//1
f 20//6 16//6 24//6
f 9//2 17//2 21//2
f 16//1 24//1 21//1
f 21//6 24//6 16//6
f 22//2 18//2 14//2
f 21//2 17//2 19//2
f 19//3 23//3 21//3
f 23//2 15//2 24//2
f 24//3 21//3 23//3
