# SSTK version 0.8.0
# 17
mtllib original-17.mtl
o Cylinder30_1/Cylinder30/mesh17/mesh17-geometry#mesh17-geometry
v 0.014463 0.141319 -0.495169
v -0.015398 0.146531 -0.493476
v -0.015397 0.141313 -0.495169
v 0.014462 0.146538 -0.493476
v -0.016132 0.141755 -0.495780
v 0.014464 0.138092 -0.499611
v 0.015197 0.146538 -0.494225
v -0.015399 0.151750 -0.495169
v -0.016133 0.146531 -0.494225
v -0.016131 0.138802 -0.499843
v -0.015396 0.138086 -0.499611
v 0.015198 0.141761 -0.495780
v 0.015196 0.151314 -0.495780
v 0.014461 0.151756 -0.495169
v -0.016133 0.146531 -0.497903
v -0.016132 0.143914 -0.498753
v 0.014464 0.138092 -0.505099
v 0.015198 0.138808 -0.499843
v 0.015197 0.146538 -0.497903
v 0.015197 0.143921 -0.498753
v -0.015400 0.154977 -0.499611
v -0.016134 0.151308 -0.495780
v -0.016133 0.149148 -0.498753
v -0.016132 0.142298 -0.500979
v -0.016131 0.138802 -0.504867
v -0.015396 0.138086 -0.505099
v 0.015198 0.142304 -0.500979
v 0.015195 0.154267 -0.499843
v 0.015196 0.149155 -0.498753
v 0.014461 0.154983 -0.499611
v -0.014534 0.146532 -0.498833
v -0.014534 0.148602 -0.499505
v -0.014533 0.144461 -0.499505
v 0.014463 0.141319 -0.509541
v 0.015198 0.138808 -0.504867
v 0.015198 0.142304 -0.503731
v 0.013598 0.144467 -0.499505
v 0.013598 0.146537 -0.498833
v 0.013599 0.143187 -0.501266
v -0.015400 0.154977 -0.505099
v -0.016134 0.154261 -0.499843
v -0.016134 0.150765 -0.500979
v -0.014535 0.149882 -0.501266
v -0.014533 0.143182 -0.501266
v -0.016132 0.142298 -0.503731
v -0.016132 0.141755 -0.508930
v -0.015397 0.141313 -0.509541
v 0.013599 0.143187 -0.503443
v 0.015195 0.154267 -0.504867
v 0.015196 0.150771 -0.500979
v 0.013598 0.148608 -0.499505
v 0.014461 0.154983 -0.505099
v 0.014462 0.146538 -0.511234
v 0.015198 0.141761 -0.508930
v 0.015197 0.143921 -0.505957
v 0.013598 0.144467 -0.505204
v -0.015399 0.151750 -0.509541
v -0.016134 0.154261 -0.504867
v -0.016134 0.150765 -0.503731
v -0.014535 0.149882 -0.503443
v -0.014533 0.144461 -0.505204
v -0.014534 0.148602 -0.505204
v -0.014533 0.143182 -0.503443
v -0.016132 0.143914 -0.505957
v -0.016133 0.146531 -0.510485
v -0.015398 0.146531 -0.511234
v 0.013598 0.146537 -0.505877
v 0.015196 0.150771 -0.503731
v 0.015196 0.151314 -0.508930
v 0.013597 0.149887 -0.501266
v 0.014461 0.151756 -0.509541
v 0.015197 0.146538 -0.510485
v 0.015197 0.146538 -0.506807
v 0.013597 0.149887 -0.503443
v -0.016134 0.151308 -0.508930
v -0.016133 0.149148 -0.505957
v -0.014534 0.146532 -0.505877
v -0.016133 0.146531 -0.506807
v 0.015196 0.149155 -0.505957
v 0.013598 0.148608 -0.505204
vn 0.00006299998432163686 -0.30861892319617845 0.9511857632850867
vn 0.00006300002320751183 -0.30861711368623296 0.951186350391434
vn -0.6986521912148431 -0.22093306046739852 0.6804951862454335
vn 0.0001639999293025157 -0.8090696512243071 0.5877127466473745
vn 0.6966050293444875 -0.22129000932184184 0.6824750287492612
vn -0.00006300002320751183 0.30861711368623296 0.951186350391434
vn -0.6964160733291344 -0.22218502339497329 0.6823770718508975
vn -0.6982671134589885 -0.579143094102942 0.42073306836344926
vn 0.0001650000384144884 -0.8090671883629994 0.5877161368291484
vn 0.698494063169012 -0.5789340523564823 0.420644038041366
vn 0.6964160733291344 0.22218502339497329 0.6823770718508975
vn 0.6988438839496449 -0.2211959632680908 0.6802128870435172
vn -0.00006299998432163686 0.30861892319617845 0.9511857632850867
vn -0.6966050293444875 0.22129000932184184 0.6824750287492612
vn -0.9999999791920007 -0.00020399999575516814 0
vn -0.6978538354823732 -0.5795358633755954 0.4208779007788882
vn 0.00020399999575516814 -0.9999999791920007 0
vn 0.698068092929623 -0.5792020771057025 0.420982056042819
vn 0.6986521912148431 0.22093306046739852 0.6804951862454335
vn 0.9999999791920007 0.00020399999575516814 0
vn -0.0001639999293025157 0.8090696512243071 0.5877127466473745
vn -0.6988438839496449 0.2211959632680908 0.6802128870435172
vn -0.9999999793950006 -0.00020299999581718515 9.999999793950007e-7
vn -0.9999999793955006 -0.00020299999581728663 0
vn -0.6978626355088832 -0.7162316259148264 0
vn 0.6981507719832969 -0.715950766169802 0
vn 0.6982671134589885 0.579143094102942 0.42073306836344926
vn 0.9999999791915006 0.00020399999575506614 -9.999999791915006e-7
vn 0.9999999793955006 0.00020299999581728663 0
vn -0.0001650000384144884 0.8090671883629994 0.5877161368291484
vn -0.698494063169012 0.5789340523564823 0.420644038041366
vn -0.9999999791915006 -0.00020399999575506614 -9.999999791915006e-7
vn -0.4841321287915088 0.27033407191576625 -0.8321872213830512
vn -0.4839910067947497 -0.27053500379804096 -0.8322040116833122
vn -0.48417697836261553 0.7080069683598773 -0.5140999770253867
vn 0.00016499992884429102 -0.8090696510912153 -0.5877127465506958
vn 0.6978551573436754 0.5795341306661262 0.4208780948943425
vn 0.4839947344507959 0.2705328515690806 -0.8322025434026294
vn 0.4841318567800202 -0.2703329200278296 -0.8321877538151814
vn 0.48354090102934216 0.7083588550138328 -0.514213894751225
vn -0.00020399999575516814 0.9999999791920007 0
vn -0.698069816525636 0.579200847768082 0.42098088935318634
vn -0.9999999789875006 -0.0002049999956924376 0
vn -0.4840980985759376 0.27031205504310873 -0.8322141694621241
vn -0.48402575346033516 -0.2705018622192353 -0.8321945761197201
vn -0.48393503300606416 -0.7079820482868553 -0.5143620350812922
vn -0.48377198445156866 0.7079859772453311 -0.5145099834636495
vn -0.6978351556587782 -0.5794841292594546 -0.4209800939036197
vn 0.00016400003820865133 -0.8090671884960909 -0.5877161369258276
vn 0.6980868526220135 -0.5792558777092498 -0.4208769111457385
vn 0.4833951480086078 0.8754022680355221 0
vn 0.6978646611431727 0.716229652225824 0
vn 0.9999999791915006 0.00020399999575506614 9.999999791915006e-7
vn 0.4839451508856526 0.7079772207349422 -0.5143591603682099
vn 0.4840261562639976 0.27050208732944897 -0.8321942686673054
vn 0.48409782655988215 -0.2703109031543785 -0.8322147018383311
vn -0.6981527968340749 0.7159487916553521 0
vn -0.48353102922630864 -0.7083640428160033 -0.5142160310810175
vn -0.9999999795935007 -0.00020199999587788712 -0.0000029999999387805024
vn -0.9999999795935007 -0.00020199999587788712 0.0000029999999387805024
vn -0.4837391293845128 0.8752122340908595 0
vn -0.6982489255383895 -0.5792239382312729 -0.42065195514146764
vn 0.00006300002320751183 -0.30861711368623296 -0.951186350391434
vn 0.6985129651096277 -0.5788509710866842 -0.42072697898489836
vn 0.48349391100981115 0.7081788696550879 0.5145059053018526
vn 0.48417697836261553 -0.7080069683598773 -0.5140999770253867
vn 0.9999999789875006 0.0002049999956924376 0
vn -0.00016499992884429102 0.8090696510912153 -0.5877127465506958
vn -0.4833822235147833 -0.8754094047872137 0
vn -0.9999999789870005 -0.0002049999956923351 9.999999789870006e-7
vn -0.9999999789870005 -0.0002049999956923351 -9.999999789870006e-7
vn -0.698750123860458 -0.22148203925990978 -0.6802161205751203
vn 0.00006299998432163686 -0.30861892319617845 -0.9511857632850867
vn 0.6987453369008442 -0.22064710638524865 -0.6804923281001356
vn 0.48389769320702414 0.7081995509987942 0.5140976740601216
vn 0.9999999789870005 0.0002049999956923351 9.999999789870006e-7
vn 0.6978372842522124 0.5794822360422857 -0.42097917147874375
vn 0.4837718908528495 -0.707986840266151 -0.5145088839180622
vn -0.00016400003820865133 0.8090671884960909 -0.5877161369258276
vn -0.6980886867097352 0.5792537400408272 -0.42087681111768444
vn -0.9999999787820008 -0.00020599999562909211 0
vn -0.48381889168771874 0.7081668414630611 0.514216884882536
vn -0.6965152136470198 -0.22157506796528204 -0.6824742093401236
vn -0.00006299998432163686 0.30861892319617845 -0.9511857632850867
vn 0.6965058618407626 -0.22190095598361975 -0.6823778646431989
vn 0.48399091687117923 0.27050795353836943 0.8322128570616285
vn 0.4837391293845128 -0.8752122340908595 0
vn 0.6982489255383895 0.5792239382312729 -0.42065195514146764
vn -0.00006300002320751183 0.30861711368623296 -0.951186350391434
vn -0.6985129651096277 0.5788509710866842 -0.42072697898489836
vn -0.48348379036316613 -0.7081836929340959 0.5145087769108434
vn -0.4842239107572993 0.707783869555091 0.5143629052026681
vn -0.6965058618407626 0.22190095598361975 -0.6823778646431989
vn 0.6965152136470198 0.22157506796528204 -0.6824742093401236
vn 0.48402210585274197 0.2705280591628698 0.8321881819945822
vn 0.698750123860458 0.22148203925990978 -0.6802161205751203
vn -0.6987453369008442 0.22064710638524865 -0.6804923281001356
vn -0.48388816641884685 -0.7082042435656453 0.5141001768093633
vn -0.48398704828787414 -0.2705080269888577 0.8322150830309352
vn -0.48413616626279704 0.2703050928285964 0.832194285793459
vn -0.4841020594153017 0.27033903317952257 0.8322031021387896
vn 0.48413629712712436 -0.2703041658927454 0.8321945107395651
vn 0.9999999789870005 0.0002049999956923351 -9.999999789870006e-7
vn 0.4838191404754564 -0.7081672056142535 0.514216149301138
vn -0.4840218439688075 -0.27052991279090927 0.8321877317326773
vn 0.4841017874154605 -0.2703378812860116 0.8322036345528339
vn 0.48422415982402106 -0.7077842336127184 0.5143621697714346
vn 0.6986521912148431 0.22093306046739852 -0.6804951862454335
vn -0.0001639999293025157 0.8090696512243071 -0.5877127466473745
vn -0.6966050293444875 0.22129000932184184 -0.6824750287492612
vn 0.6964160733291344 0.22218502339497329 -0.6823770718508975
vn 0.6982671134589885 0.579143094102942 -0.42073306836344926
vn -0.0001650000384144884 0.8090671883629994 -0.5877161368291484
vn -0.698494063169012 0.5789340523564823 -0.420644038041366
vn -0.6964160733291344 -0.22218502339497329 -0.6823770718508975
vn -0.6988438839496449 0.2211959632680908 -0.6802128870435172
vn 0.6966050293444875 -0.22129000932184184 -0.6824750287492612
vn 0.6978538354823732 0.5795358633755954 -0.4208779007788882
vn -0.698068092929623 0.5792020771057025 -0.420982056042819
vn -0.6986521912148431 -0.22093306046739852 -0.6804951862454335
vn 0.0001639999293025157 -0.8090696512243071 -0.5877127466473745
vn 0.6988438839496449 -0.2211959632680908 -0.6802128870435172
vn 0.9999999793950006 0.00020299999581718515 -9.999999793950007e-7
vn 0.6978626355088832 0.7162316259148264 0
vn -0.6981507719832969 0.715950766169802 0
vn -0.6982671134589885 -0.579143094102942 -0.42073306836344926
vn -0.9999999791915006 -0.00020399999575506614 9.999999791915006e-7
vn 0.0001650000384144884 -0.8090671883629994 -0.5877161368291484
vn 0.698494063169012 -0.5789340523564823 -0.420644038041366
vn 0.4841321287915088 -0.27033407191576625 0.8321872213830512
vn 0.4839910067947497 0.27053500379804096 0.8322040116833122
vn 0.48417697836261553 -0.7080069683598773 0.5140999770253867
vn -0.00016499992884429102 0.8090696510912153 0.5877127465506958
vn -0.6978551573436754 -0.5795341306661262 -0.4208780948943425
vn -0.4839947344507959 -0.2705328515690806 0.8322025434026294
vn -0.4841318567800202 0.2703329200278296 0.8321877538151814
vn -0.48354090102934216 -0.7083588550138328 0.514213894751225
vn 0.698069816525636 -0.579200847768082 -0.42098088935318634
vn 0.4840980985759376 -0.27031205504310873 0.8322141694621241
vn 0.48402575346033516 0.2705018622192353 0.8321945761197201
vn 0.48393503300606416 0.7079820482868553 0.5143620350812922
vn 0.48377198445156866 -0.7079859772453311 0.5145099834636495
vn 0.6978351556587782 0.5794841292594546 0.4209800939036197
vn -0.00016400003820865133 0.8090671884960909 0.5877161369258276
vn -0.6980868526220135 0.5792558777092498 0.4208769111457385
vn -0.4833951480086078 -0.8754022680355221 0
vn -0.6978646611431727 -0.716229652225824 0
vn -0.4839451508856526 -0.7079772207349422 0.5143591603682099
vn -0.4840261562639976 -0.27050208732944897 0.8321942686673054
vn -0.48409782655988215 0.2703109031543785 0.8322147018383311
vn 0.6981527968340749 -0.7159487916553521 0
vn 0.48353102922630864 0.7083640428160033 0.5142160310810175
vn 0.9999999795935007 0.00020199999587788712 0.0000029999999387805024
vn 0.9999999795935007 0.00020199999587788712 -0.0000029999999387805024
vn 0.6982489255383895 0.5792239382312729 0.42065195514146764
vn -0.6985129651096277 0.5788509710866842 0.42072697898489836
vn -0.48349391100981115 -0.7081788696550879 -0.5145059053018526
vn -0.48417697836261553 0.7080069683598773 0.5140999770253867
vn 0.00016499992884429102 -0.8090696510912153 0.5877127465506958
vn 0.4833822235147833 0.8754094047872137 0
vn 0.698750123860458 0.22148203925990978 0.6802161205751203
vn -0.6987453369008442 0.22064710638524865 0.6804923281001356
vn -0.48389769320702414 -0.7081995509987942 -0.5140976740601216
vn -0.6978372842522124 -0.5794822360422857 0.42097917147874375
vn -0.4837718908528495 0.707986840266151 0.5145088839180622
vn 0.00016400003820865133 -0.8090671884960909 0.5877161369258276
vn 0.6980886867097352 -0.5792537400408272 0.42087681111768444
vn 0.9999999787820008 0.00020599999562909211 0
vn 0.48381889168771874 -0.7081668414630611 -0.514216884882536
vn 0.6965152136470198 0.22157506796528204 0.6824742093401236
vn -0.6965058618407626 0.22190095598361975 0.6823778646431989
vn -0.48399091687117923 -0.27050795353836943 -0.8322128570616285
vn -0.6982489255383895 -0.5792239382312729 0.42065195514146764
vn 0.6985129651096277 -0.5788509710866842 0.42072697898489836
vn 0.48348379036316613 0.7081836929340959 -0.5145087769108434
vn 0.4842239107572993 -0.707783869555091 -0.5143629052026681
vn 0.6965058618407626 -0.22190095598361975 0.6823778646431989
vn -0.6965152136470198 -0.22157506796528204 0.6824742093401236
vn -0.48402210585274197 -0.2705280591628698 -0.8321881819945822
vn -0.698750123860458 -0.22148203925990978 0.6802161205751203
vn 0.6987453369008442 -0.22064710638524865 0.6804923281001356
vn 0.48388816641884685 0.7082042435656453 -0.5141001768093633
vn 0.48398704828787414 0.2705080269888577 -0.8322150830309352
vn 0.48413616626279704 -0.2703050928285964 -0.832194285793459
vn 0.4841020594153017 -0.27033903317952257 -0.8322031021387896
vn -0.48413629712712436 0.2703041658927454 -0.8321945107395651
vn -0.4838191404754564 0.7081672056142535 -0.514216149301138
vn 0.4840218439688075 0.27052991279090927 -0.8321877317326773
vn -0.4841017874154605 0.2703378812860116 -0.8322036345528339
vn -0.48422415982402106 0.7077842336127184 -0.5143621697714346
usemtl material_0_0
f 1//1 2//1 3//1
f 1//2 4//2 2//2
f 2//3 5//3 3//3
f 3//4 6//4 1//4
f 7//5 4//5 1//5
f 4//6 8//6 2//6
f 2//7 9//7 5//7
f 5//8 10//8 3//8
f 3//9 11//9 6//9
f 12//10 1//10 6//10
f 13//11 4//11 7//11
f 7//12 1//12 12//12
f 4//13 14//13 8//13
f 8//14 9//14 2//14
f 15//15 5//15 9//15
f 16//15 10//15 5//15
f 3//16 10//16 11//16
f 11//17 17//17 6//17
f 12//18 6//18 18//18
f 14//19 4//19 13//19
f 13//20 7//20 19//20
f 7//20 12//20 20//20
f 14//21 21//21 8//21
f 8//22 22//22 9//22
f 15//23 16//23 5//23
f 23//24 15//24 9//24
f 16//15 24//15 10//15
f 11//25 10//25 25//25
f 11//17 26//17 17//17
f 6//26 17//26 18//26
f 27//20 12//20 18//20
f 28//27 14//27 13//27
f 7//20 20//20 19//20
f 13//28 19//28 29//28
f 20//29 12//29 27//29
f 14//30 30//30 21//30
f 21//31 22//31 8//31
f 22//32 23//32 9//32
f 31//33 16//33 15//33
f 32//34 15//34 23//34
f 16//35 33//35 24//35
f 24//15 25//15 10//15
f 11//25 25//25 26//25
f 26//36 34//36 17//36
f 18//26 17//26 35//26
f 27//20 18//20 36//20
f 30//37 14//37 28//37
f 28//29 13//29 29//29
f 20//38 37//38 19//38
f 19//39 38//39 29//39
f 20//40 27//40 39//40
f 30//41 40//41 21//41
f 21//42 41//42 22//42
f 22//43 42//43 23//43
f 33//44 16//44 31//44
f 31//45 15//45 32//45
f 23//46 43//46 32//46
f 33//47 44//47 24//47
f 45//15 25//15 24//15
f 46//48 26//48 25//48
f 26//49 47//49 34//49
f 34//50 35//50 17//50
f 36//20 18//20 35//20
f 27//51 36//51 48//51
f 30//52 28//52 49//52
f 28//53 29//53 50//53
f 20//54 39//54 37//54
f 19//55 37//55 38//55
f 29//56 38//56 51//56
f 27//51 48//51 39//51
f 30//41 52//41 40//41
f 21//57 40//57 41//57
f 41//15 42//15 22//15
f 23//58 42//58 43//58
f 31//59 44//59 33//59
f 43//60 31//60 32//60
f 24//61 44//61 45//61
f 45//15 46//15 25//15
f 46//62 47//62 26//62
f 34//63 47//63 53//63
f 54//64 35//64 34//64
f 55//53 36//53 35//53
f 48//65 36//65 56//65
f 28//20 50//20 49//20
f 30//52 49//52 52//52
f 29//66 51//66 50//66
f 37//29 39//29 48//29
f 51//67 38//67 37//67
f 52//68 57//68 40//68
f 41//57 40//57 58//57
f 41//15 59//15 42//15
f 42//69 60//69 43//69
f 31//70 61//70 44//70
f 43//71 62//71 31//71
f 44//61 63//61 45//61
f 64//43 46//43 45//43
f 65//72 47//72 46//72
f 53//73 47//73 66//73
f 53//74 54//74 34//74
f 55//29 35//29 54//29
f 36//75 55//75 56//75
f 67//76 48//76 56//76
f 49//20 50//20 68//20
f 52//77 49//77 69//77
f 51//78 70//78 50//78
f 51//67 37//67 48//67
f 52//79 71//79 57//79
f 40//80 57//80 58//80
f 58//15 59//15 41//15
f 42//69 59//69 60//69
f 60//81 62//81 43//81
f 62//24 61//24 31//24
f 61//81 63//81 44//81
f 63//82 64//82 45//82
f 65//32 46//32 64//32
f 66//83 47//83 65//83
f 53//84 66//84 71//84
f 72//85 54//85 53//85
f 73//28 55//28 54//28
f 55//86 67//86 56//86
f 51//20 48//20 67//20
f 50//87 70//87 68//87
f 49//20 68//20 69//20
f 52//88 69//88 71//88
f 70//29 51//29 74//29
f 71//89 66//89 57//89
f 58//90 57//90 75//90
f 58//15 76//15 59//15
f 60//91 59//91 62//91
f 62//24 77//24 61//24
f 63//92 61//92 64//92
f 65//24 64//24 78//24
f 75//93 66//93 65//93
f 71//94 72//94 53//94
f 73//20 54//20 72//20
f 55//95 73//95 67//95
f 74//20 51//20 67//20
f 70//87 74//87 68//87
f 69//29 68//29 79//29
f 71//96 69//96 72//96
f 57//97 66//97 75//97
f 58//15 75//15 76//15
f 59//98 76//98 62//98
f 77//99 62//99 76//99
f 61//100 77//100 78//100
f 61//101 78//101 64//101
f 75//15 65//15 78//15
f 79//20 73//20 72//20
f 73//102 80//102 67//102
f 74//103 67//103 80//103
f 74//104 79//104 68//104
f 69//20 79//20 72//20
f 75//23 78//23 76//23
f 77//105 76//105 78//105
f 73//106 79//106 80//106
f 74//107 80//107 79//107
usemtl material_1_0
f 3//84 2//84 1//84
f 2//89 4//89 1//89
f 3//108 5//108 2//108
f 1//109 6//109 3//109
f 1//110 4//110 7//110
f 2//63 8//63 4//63
f 5//111 9//111 2//111
f 3//112 10//112 5//112
f 6//113 11//113 3//113
f 6//114 1//114 12//114
f 7//115 4//115 13//115
f 12//116 1//116 7//116
f 8//73 14//73 4//73
f 2//117 9//117 8//117
f 9//20 5//20 15//20
f 5//20 10//20 16//20
f 11//118 10//118 3//118
f 6//41 17//41 11//41
f 18//119 6//119 12//119
f 13//120 4//120 14//120
f 19//15 7//15 13//15
f 20//15 12//15 7//15
f 8//121 21//121 14//121
f 9//122 22//122 8//122
f 5//123 16//123 15//123
f 9//29 15//29 23//29
f 10//20 24//20 16//20
f 25//124 10//124 11//124
f 17//41 26//41 11//41
f 18//125 17//125 6//125
f 18//15 12//15 27//15
f 13//126 14//126 28//126
f 19//15 20//15 7//15
f 29//127 19//127 13//127
f 27//24 12//24 20//24
f 21//128 30//128 14//128
f 8//129 22//129 21//129
f 9//53 23//53 22//53
f 15//130 16//130 31//130
f 23//131 15//131 32//131
f 24//132 33//132 16//132
f 10//20 25//20 24//20
f 26//124 25//124 11//124
f 17//133 34//133 26//133
f 35//125 17//125 18//125
f 36//15 18//15 27//15
f 28//134 14//134 30//134
f 29//24 13//24 28//24
f 19//135 37//135 20//135
f 29//136 38//136 19//136
f 39//137 27//137 20//137
f 21//17 40//17 30//17
f 22//138 41//138 21//138
f 23//67 42//67 22//67
f 31//139 16//139 33//139
f 32//140 15//140 31//140
f 32//141 43//141 23//141
f 24//142 44//142 33//142
f 24//20 25//20 45//20
f 25//143 26//143 46//143
f 34//144 47//144 26//144
f 17//145 35//145 34//145
f 35//15 18//15 36//15
f 48//146 36//146 27//146
f 49//147 28//147 30//147
f 50//32 29//32 28//32
f 37//148 39//148 20//148
f 38//149 37//149 19//149
f 51//150 38//150 29//150
f 39//146 48//146 27//146
f 40//17 52//17 30//17
f 41//151 40//151 21//151
f 22//20 42//20 41//20
f 43//152 42//152 23//152
f 33//153 44//153 31//153
f 32//154 31//154 43//154
f 45//87 44//87 24//87
f 25//20 46//20 45//20
f 26//155 47//155 46//155
f 53//6 47//6 34//6
f 34//156 35//156 54//156
f 35//32 36//32 55//32
f 56//157 36//157 48//157
f 49//15 50//15 28//15
f 52//147 49//147 30//147
f 50//158 51//158 29//158
f 48//24 39//24 37//24
f 37//43 38//43 51//43
f 40//159 57//159 52//159
f 58//151 40//151 41//151
f 42//20 59//20 41//20
f 43//160 60//160 42//160
f 44//103 61//103 31//103
f 31//76 62//76 43//76
f 45//87 63//87 44//87
f 45//67 46//67 64//67
f 46//161 47//161 65//161
f 66//13 47//13 53//13
f 34//162 54//162 53//162
f 54//24 35//24 55//24
f 56//163 55//163 36//163
f 56//71 48//71 67//71
f 68//15 50//15 49//15
f 69//164 49//164 52//164
f 50//165 70//165 51//165
f 48//43 37//43 51//43
f 57//166 71//166 52//166
f 58//167 57//167 40//167
f 41//20 59//20 58//20
f 60//160 59//160 42//160
f 43//168 62//168 60//168
f 31//29 61//29 62//29
f 44//168 63//168 61//168
f 45//169 64//169 63//169
f 64//53 46//53 65//53
f 65//170 47//170 66//170
f 71//1 66//1 53//1
f 53//171 54//171 72//171
f 54//127 55//127 73//127
f 56//172 67//172 55//172
f 67//15 48//15 51//15
f 68//61 70//61 50//61
f 69//15 68//15 49//15
f 71//173 69//173 52//173
f 74//24 51//24 70//24
f 57//2 66//2 71//2
f 75//174 57//174 58//174
f 59//20 76//20 58//20
f 62//175 59//175 60//175
f 61//29 77//29 62//29
f 64//176 61//176 63//176
f 78//29 64//29 65//29
f 65//177 66//177 75//177
f 53//178 72//178 71//178
f 72//15 54//15 73//15
f 67//179 73//179 55//179
f 67//15 51//15 74//15
f 68//61 74//61 70//61
f 79//24 68//24 69//24
f 72//180 69//180 71//180
f 75//181 66//181 57//181
f 76//20 75//20 58//20
f 62//182 76//182 59//182
f 76//183 62//183 77//183
f 78//184 77//184 61//184
f 64//185 78//185 61//185
f 78//20 65//20 75//20
f 72//15 73//15 79//15
f 67//186 80//186 73//186
f 80//70 67//70 74//70
f 68//187 79//187 74//187
f 72//15 79//15 69//15
f 76//123 78//123 75//123
f 78//188 76//188 77//188
f 80//189 79//189 73//189
f 79//190 80//190 74//190
