# SSTK version 0.8.0
# 31
mtllib original-31.mtl
o Box07-FACE1/Box07-FACE/mesh30/mesh30-geometry#mesh30-geometry
v 0.004863 0.572677 0.159562
v -0.007435 0.572674 0.159561
v -0.007433 0.562728 0.164787
v 0.004861 0.583780 0.156341
v -0.007785 0.571092 0.156820
v 0.004865 0.562731 0.164788
v 0.005213 0.581268 0.150947
v -0.007437 0.583777 0.156340
v -0.007786 0.581266 0.150946
v -0.007783 0.560918 0.162695
v 0.005214 0.571094 0.156822
v -0.008136 0.572066 0.158508
v 0.005216 0.560920 0.162697
v 0.005565 0.572069 0.158509
v -0.008137 0.582543 0.152458
v -0.008134 0.561588 0.164558
v 0.005566 0.561591 0.164559
v 0.005563 0.582547 0.152459
v -0.010396 0.572065 0.158507
v 0.007825 0.572069 0.158510
v -0.010398 0.584500 0.151327
v -0.010394 0.559630 0.165687
v 0.007827 0.559634 0.165690
v 0.007823 0.584504 0.151330
v -0.010394 0.567669 0.150895
v -0.010392 0.555235 0.158075
v 0.007825 0.580108 0.143717
v -0.010396 0.580104 0.143714
v 0.007827 0.567674 0.150897
v 0.007829 0.555239 0.158077
vn -0.00021699996822968802 0.4651309319015807 0.885241870394403
vn -0.00018499992964074764 0.27863989402755635 0.9603956347419215
vn -0.9939294310180882 0.051053022139173385 0.09745704226230427
vn 0.998214998597508 0.01681099997638055 0.05730799991948226
vn -0.9939395167427487 0.05485797332784041 0.09526195368326833
vn -0.9917993344055338 0.06379702151047727 0.11074303733929154
vn 0.9938816025006111 0.051494979404767334 0.09771196092045104
vn 0.00008399999126290934 -0.7560629213596314 0.6544989319236061
vn 0.9938905491862574 0.055299974916766574 0.09551695667495104
vn -0.00014799995660760308 0.9065437342086686 -0.422111876240193
vn -0.9982370411463334 0.016367000674631413 0.05705200235162653
vn 0.984143587450047 0.08880296277407221 0.1535429356352755
vn 0.9917424714660532 0.06423803053822096 0.11099705276706796
vn 0.00008599995610090361 -0.756066614062115 0.6544946659100105
vn -0.9842227549787598 0.08836497800162983 0.15328796183911994
vn -0.00014500000068222503 0.906546004265299 -0.4221070019860135
vn 0.9841438259522116 0.08880198429519287 0.15354197284579746
vn 0.9841441281650981 0.08880201156468671 0.1535400199955181
vn -0.9842226041088399 0.08836496445630476 0.15328893834145307
vn -0.0001680000893192872 0.940896500239048 -0.33869418007087304
vn -0.9842228419490798 0.08836398581011466 0.15328797538432912
vn 0.00008500004511421092 -0.7637194053480005 0.6455483426281015
vn -0.00020800000284450408 0.5000370068382561 0.8660040118430381
vn -0.0002079999470693242 0.5000408727523651 0.8660017796246582
vn -0.00016499991398333976 0.9408905095012033 -0.33871082342552117
vn -0.984222271059772 0.08836502433617288 0.1532910422171253
vn 0.00008599999557525734 -0.7637129607065872 0.6455559667858236
vn -0.00022600005461517977 0.5000401208397102 0.8660022092781191
vn -0.00022299997243062665 0.50003893818044 0.866002892936502
vn -0.00022199999431458026 0.5000439871938738 0.8659999778217409
vn -0.9999999669435017 -0.00022299999262840087 -0.0001279999957687682
vn -0.9999999671660015 -0.00022199999271085236 -0.0001279999957972482
vn -0.00022300008393925442 0.5000381882189099 0.8660033259715073
vn 0.9999999668150017 0.00022299999259974538 0.0001289999957191352
vn -0.9999999670375016 -0.00022199999268232535 -0.00012899999574783768
vn 0.00012800000347078412 -0.8660040234821323 0.5000370135587537
vn 0.9999999671660015 0.00022199999271085236 0.0001279999957972482
vn -0.00012800001599046697 0.8660011081856281 -0.5000420624680085
vn -0.00012900006330744158 0.8660004249941428 -0.5000432453987831
vn 0.00022399997225693315 -0.5000389380686813 -0.8660028927429504
vn 0.00022400005423265967 -0.5000401210647284 -0.8660022096678204
vn 0.0002210000240220409 -0.5000420543530741 -0.8660010941317261
vn 0.00022299997243062665 -0.50003893818044 -0.866002892936502
vn 0.00021699996822968802 -0.4651309319015807 -0.885241870394403
vn 0.00018499992964074764 -0.27863989402755635 -0.9603956347419215
vn 0.9939294310180882 -0.051053022139173385 -0.09745704226230427
vn -0.998214998597508 -0.01681099997638055 -0.05730799991948226
vn 0.9939395167427487 -0.05485797332784041 -0.09526195368326833
vn 0.9917993344055338 -0.06379702151047727 -0.11074303733929154
vn -0.9938816025006111 -0.051494979404767334 -0.09771196092045104
vn -0.00008399999126290934 0.7560629213596314 -0.6544989319236061
vn -0.9938905491862574 -0.055299974916766574 -0.09551695667495104
vn 0.00014799995660760308 -0.9065437342086686 0.422111876240193
vn 0.9982370411463334 -0.016367000674631413 -0.05705200235162653
vn -0.984143587450047 -0.08880296277407221 -0.1535429356352755
vn -0.9917424714660532 -0.06423803053822096 -0.11099705276706796
vn -0.00008599995610090361 0.756066614062115 -0.6544946659100105
vn 0.9842227549787598 -0.08836497800162983 -0.15328796183911994
vn 0.00014500000068222503 -0.906546004265299 0.4221070019860135
vn -0.9841438259522116 -0.08880198429519287 -0.15354197284579746
vn -0.9841441281650981 -0.08880201156468671 -0.1535400199955181
vn 0.9842226041088399 -0.08836496445630476 -0.15328893834145307
vn 0.0001680000893192872 -0.940896500239048 0.33869418007087304
vn 0.9842228419490798 -0.08836398581011466 -0.15328797538432912
vn -0.00008500004511421092 0.7637194053480005 -0.6455483426281015
vn 0.00020800000284450408 -0.5000370068382561 -0.8660040118430381
vn 0.0002079999470693242 -0.5000408727523651 -0.8660017796246582
vn 0.00016499991398333976 -0.9408905095012033 0.33871082342552117
vn 0.984222271059772 -0.08836502433617288 -0.1532910422171253
vn -0.00008599999557525734 0.7637129607065872 -0.6455559667858236
vn 0.00022600005461517977 -0.5000401208397102 -0.8660022092781191
vn 0.00022199999431458026 -0.5000439871938738 -0.8659999778217409
vn 0.9999999669435017 0.00022299999262840087 0.0001279999957687682
vn 0.00022300008393925442 -0.5000381882189099 -0.8660033259715073
vn -0.9999999668150017 -0.00022299999259974538 -0.0001289999957191352
vn 0.9999999670375016 0.00022199999268232535 0.00012899999574783768
vn -0.00012800000347078412 0.8660040234821323 -0.5000370135587537
vn 0.00012800001599046697 -0.8660011081856281 0.5000420624680085
vn 0.00012900006330744158 -0.8660004249941428 0.5000432453987831
vn -0.00022399997225693315 0.5000389380686813 0.8660028927429504
vn -0.00022400005423265967 0.5000401210647284 0.8660022096678204
vn -0.0002210000240220409 0.5000420543530741 0.8660010941317261
usemtl material_0_0
f 1//1 2//1 3//1
f 1//2 4//2 2//2
f 2//3 5//3 3//3
f 6//1 1//1 3//1
f 4//4 1//4 7//4
f 4//2 8//2 2//2
f 9//5 5//5 2//5
f 5//6 10//6 3//6
f 1//7 6//7 11//7
f 6//8 3//8 10//8
f 7//9 1//9 11//9
f 4//10 7//10 8//10
f 8//11 9//11 2//11
f 9//12 12//12 5//12
f 12//12 10//12 5//12
f 11//13 6//13 13//13
f 6//14 10//14 13//14
f 7//15 11//15 14//15
f 8//16 7//16 9//16
f 15//17 12//17 9//17
f 12//18 16//18 10//18
f 14//19 11//19 13//19
f 17//20 13//20 10//20
f 18//21 7//21 14//21
f 15//22 9//22 7//22
f 12//23 15//23 19//23
f 16//24 12//24 19//24
f 17//25 10//25 16//25
f 14//26 13//26 17//26
f 18//27 15//27 7//27
f 20//24 18//24 14//24
f 15//28 21//28 19//28
f 16//29 19//29 22//29
f 23//30 17//30 16//30
f 20//23 14//23 17//23
f 18//30 21//30 15//30
f 20//29 24//29 18//29
f 21//31 25//31 19//31
f 19//32 26//32 22//32
f 23//33 16//33 22//33
f 23//28 20//28 17//28
f 24//33 21//33 18//33
f 24//34 20//34 27//34
f 21//31 28//31 25//31
f 19//35 25//35 26//35
f 23//36 22//36 26//36
f 20//37 23//37 29//37
f 24//38 27//38 21//38
f 27//37 20//37 29//37
f 21//39 27//39 28//39
f 29//40 25//40 28//40
f 29//41 26//41 25//41
f 23//36 26//36 30//36
f 29//37 23//37 30//37
f 29//42 28//42 27//42
f 30//43 26//43 29//43
usemtl material_1_0
f 3//44 2//44 1//44
f 2//45 4//45 1//45
f 3//46 5//46 2//46
f 3//44 1//44 6//44
f 7//47 1//47 4//47
f 2//45 8//45 4//45
f 2//48 5//48 9//48
f 3//49 10//49 5//49
f 11//50 6//50 1//50
f 10//51 3//51 6//51
f 11//52 1//52 7//52
f 8//53 7//53 4//53
f 2//54 9//54 8//54
f 5//55 12//55 9//55
f 5//55 10//55 12//55
f 13//56 6//56 11//56
f 13//57 10//57 6//57
f 14//58 11//58 7//58
f 9//59 7//59 8//59
f 9//60 12//60 15//60
f 10//61 16//61 12//61
f 13//62 11//62 14//62
f 10//63 13//63 17//63
f 14//64 7//64 18//64
f 7//65 9//65 15//65
f 19//66 15//66 12//66
f 19//67 12//67 16//67
f 16//68 10//68 17//68
f 17//69 13//69 14//69
f 7//70 15//70 18//70
f 14//67 18//67 20//67
f 19//71 21//71 15//71
f 22//43 19//43 16//43
f 16//72 17//72 23//72
f 17//66 14//66 20//66
f 15//72 21//72 18//72
f 18//43 24//43 20//43
f 19//73 25//73 21//73
f 22//37 26//37 19//37
f 22//74 16//74 23//74
f 17//71 20//71 23//71
f 18//74 21//74 24//74
f 27//75 20//75 24//75
f 25//73 28//73 21//73
f 26//76 25//76 19//76
f 26//77 22//77 23//77
f 29//32 23//32 20//32
f 21//78 27//78 24//78
f 29//32 20//32 27//32
f 28//79 27//79 21//79
f 28//80 25//80 29//80
f 25//81 26//81 29//81
f 30//77 26//77 23//77
f 30//32 23//32 29//32
f 27//82 28//82 29//82
f 29//29 26//29 30//29
