# SSTK version 0.8.0
# 11
mtllib original-11.mtl
o Cylinder25_1/Cylinder25/mesh11/mesh11-geometry#mesh11-geometry
v -0.041489 -0.533620 -0.182483
v -0.066133 -0.527319 -0.180437
v -0.066131 -0.533625 -0.182483
v -0.041491 -0.527314 -0.180437
v -0.066794 -0.533090 -0.183221
v -0.041488 -0.537518 -0.187849
v -0.040828 -0.527314 -0.181343
v -0.066134 -0.521014 -0.182483
v -0.066795 -0.527320 -0.181343
v -0.066793 -0.536658 -0.188130
v -0.066131 -0.537523 -0.187849
v -0.040827 -0.533085 -0.183221
v -0.040829 -0.521543 -0.183221
v -0.041492 -0.521009 -0.182483
v -0.066795 -0.527320 -0.185786
v -0.066794 -0.530481 -0.186813
v -0.041488 -0.537518 -0.194480
v -0.040826 -0.536652 -0.188130
v -0.066135 -0.517116 -0.187849
v -0.066796 -0.521549 -0.183221
v -0.066796 -0.524158 -0.186813
v -0.066794 -0.532434 -0.189503
v -0.066793 -0.536658 -0.194199
v -0.066131 -0.537523 -0.194480
v -0.040826 -0.536652 -0.194199
v -0.040830 -0.517976 -0.188130
v -0.041493 -0.517111 -0.187849
v -0.065353 -0.527319 -0.186909
v -0.065354 -0.524818 -0.187722
v -0.065353 -0.529820 -0.187722
v -0.041489 -0.533620 -0.199846
v -0.040830 -0.517976 -0.194199
v -0.040828 -0.527314 -0.200986
v -0.066135 -0.517116 -0.194480
v -0.066797 -0.517981 -0.188130
v -0.066796 -0.522205 -0.189503
v -0.065354 -0.523272 -0.189850
v -0.065353 -0.531367 -0.189850
v -0.066794 -0.532434 -0.192827
v -0.066794 -0.533090 -0.199108
v -0.066131 -0.533625 -0.199846
v -0.040827 -0.533085 -0.199108
v -0.041493 -0.517111 -0.194480
v -0.041491 -0.527314 -0.201892
v -0.040829 -0.521543 -0.199108
v -0.066134 -0.521014 -0.199846
v -0.066797 -0.517981 -0.194199
v -0.066796 -0.522205 -0.192827
v -0.065354 -0.523272 -0.192480
v -0.065353 -0.529820 -0.194607
v -0.065354 -0.524818 -0.194607
v -0.065353 -0.531367 -0.192480
v -0.066794 -0.530481 -0.195516
v -0.066795 -0.527320 -0.200986
v -0.066133 -0.527319 -0.201892
v -0.041492 -0.521009 -0.199846
v -0.066796 -0.521549 -0.199108
v -0.066796 -0.524158 -0.195516
v -0.065353 -0.527319 -0.195420
v -0.066795 -0.527320 -0.196544
vn 0.00006300002320751183 -0.30861711368623296 0.951186350391434
vn -0.7945006870418712 -0.187558926119522 0.5775727724909531
vn 0.00016400003820865133 -0.8090671884960909 0.5877161369258276
vn 0.7928242148708514 -0.18794105093569657 0.579748157123077
vn -0.00006300002320751183 0.30861711368623296 0.951186350391434
vn -0.7926632028766242 -0.18879104831975346 0.5796921483681665
vn -0.7941831119552071 -0.49165306930784647 0.3571420503459613
vn 0.7943770394436014 -0.4913920243993345 0.3570700177297766
vn 0.7926630532285148 0.18879201267766726 0.5796920389271912
vn 0.7946614296540819 -0.18769210148054824 0.5773083121365448
vn -0.7928242148708514 0.18794105093569657 0.579748157123077
vn -0.9999999793955006 -0.00020299999581728663 0
vn -0.9999999791920007 -0.00020399999575516814 0
vn -0.7938492880855774 -0.49206117856755793 0.3573221296711524
vn 0.00020299999581728663 -0.9999999793955006 0
vn 0.7940418584775351 -0.49169091236569057 0.35740393629972333
vn 0.7945021225881118 0.1875580289393621 0.5775710891166268
vn 0.9999999791920007 0.00020399999575516814 0
vn -0.0001639999293025157 0.8090696512243071 0.5877127466473745
vn -0.7946630842068755 0.18769201988887976 0.5773060611745285
vn -0.793854193311458 -0.6081081480804331 0
vn 0.7941105115546416 -0.6077733915189323 0
vn 0.7941849150591483 0.49165094741621324 0.3571409618025262
vn -0.0001650000384144884 0.8090671883629994 0.5877161368291484
vn -0.7943782593498481 0.4913921604304758 0.35706711657582685
vn -0.5955221183633082 0.24816704932457093 -0.7640461518583901
vn -0.5953849031612488 -0.24841695959523324 -0.7640718757244837
vn -0.5955567842399407 0.650013764511106 -0.4720108289985319
vn 0.00016399990552164962 -0.8090675339060367 -0.5877156614241575
vn 0.7938488974629108 0.4920619364430701 0.35732195384669146
vn -0.00020399999575516814 0.9999999791920007 0
vn -0.7940330325513848 0.4917000201572428 0.3574110146520648
vn -0.5954819687404727 0.24814698697364837 -0.7640839598897957
vn -0.5954248386893108 -0.2483799327096629 -0.7640527930051375
vn -0.5953388577155183 -0.6500448446409258 -0.47224288713514406
vn -0.5951299849286309 0.650081983536999 -0.4724549880353137
vn -0.7938340094704398 -0.49202200586982253 -0.35741000426390135
vn 0.7940563845802606 -0.491731238157052 -0.3573161730566615
vn 0.793853340765589 0.6081092610339969 0
vn -0.7940995779584213 0.6077876769779536 0
vn -0.5949222177983867 -0.6504782381371995 -0.4721711728597733
vn -0.9999999793950006 -0.00020299999581718515 -9.999999793950007e-7
vn -0.9999999793950006 -0.00020299999581718515 9.999999793950007e-7
vn -0.5950987131000042 0.8036526125551506 0
vn -0.7941682825933183 -0.49172417497294885 -0.3570771270607407
vn 0.00006300002320751183 -0.30861711368623296 -0.951186350391434
vn 0.7943918479017795 -0.49132090592925176 -0.35713493162116683
vn 0.7927432174169918 -0.18846705168879221 -0.5796881589847166
vn -0.00016499992884429102 0.8090696510912153 -0.5877127465506958
vn -0.5947802483374592 -0.803888335645959 0
vn -0.7945811359452956 -0.1880170321679308 -0.5773130987727952
vn 0.7945810172924668 -0.1872330040747519 -0.5775680125696127
vn 0.7938329653337121 0.49202297851360294 -0.3574109843920413
vn 0.7945827906675889 0.18801695046703495 -0.5773108479077659
vn 0.7927451715298587 0.18826504073575845 -0.5797511254433735
vn -0.00016399990552164962 0.8090675339060367 -0.5877156614241575
vn -0.7940477149730506 0.49174182348709133 -0.35732087173808813
vn -0.5951798450672668 0.6502398307344661 0.4721748770869933
vn -0.7927451715298587 -0.18826504073575845 -0.5797511254433735
vn -0.00006300002320751183 0.30861711368623296 -0.951186350391434
vn 0.7941699788536363 0.4917229869068922 -0.35707499049216435
vn -0.7943932811493367 0.49131917388623886 -0.357134126395861
vn -0.5948741908862353 -0.6503232086789962 0.47244515160058675
vn -0.5956067874967681 0.6497957681629832 0.47224783150932365
vn -0.7927432174169918 0.18846705168879221 -0.5796881589847166
vn -0.7945824525529757 0.18723210663770226 -0.5775663289518412
vn -0.5952900957545031 -0.6502571045961395 0.47201207592480054
vn -0.5953808552281019 -0.24838993960188216 0.7640838142065484
vn -0.5955258003413738 0.24813791680817932 0.7640527438402818
vn -0.595486972954471 0.2481749887285127 0.7640709652978077
vn -0.5954194063587004 -0.24840916953298162 0.7640475214431282
vn 0.7945006870418712 0.187558926119522 -0.5775727724909531
vn -0.00016400003820865133 0.8090671884960909 -0.5877161369258276
vn -0.7928242148708514 0.18794105093569657 -0.579748157123077
vn 0.7926632028766242 0.18879104831975346 -0.5796921483681665
vn 0.7941831119552071 0.49165306930784647 -0.3571420503459613
vn -0.7943770394436014 0.4913920243993345 -0.3570700177297766
vn -0.7926630532285148 -0.18879201267766726 -0.5796920389271912
vn -0.7946614296540819 0.18769210148054824 -0.5773083121365448
vn 0.7928242148708514 -0.18794105093569657 -0.579748157123077
vn 0.9999999793955006 0.00020299999581728663 0
vn 0.7938492880855774 0.49206117856755793 -0.3573221296711524
vn -0.00020299999581728663 0.9999999793955006 0
vn -0.7940418584775351 0.49169091236569057 -0.35740393629972333
vn -0.7945021225881118 -0.1875580289393621 -0.5775710891166268
vn 0.0001639999293025157 -0.8090696512243071 -0.5877127466473745
vn 0.7946630842068755 -0.18769201988887976 -0.5773060611745285
vn 0.793854193311458 0.6081081480804331 0
vn -0.7941105115546416 0.6077733915189323 0
vn -0.7941849150591483 -0.49165094741621324 -0.3571409618025262
vn 0.0001650000384144884 -0.8090671883629994 -0.5877161368291484
vn 0.7943782593498481 -0.4913921604304758 -0.35706711657582685
vn 0.5955221183633082 -0.24816704932457093 0.7640461518583901
vn 0.5953849031612488 0.24841695959523324 0.7640718757244837
vn 0.5955567842399407 -0.650013764511106 0.4720108289985319
vn -0.00016399990552164962 0.8090675339060367 0.5877156614241575
vn -0.7938488974629108 -0.4920619364430701 -0.35732195384669146
vn 0.00020399999575516814 -0.9999999791920007 0
vn 0.7940330325513848 -0.4917000201572428 -0.3574110146520648
vn 0.5954819687404727 -0.24814698697364837 0.7640839598897957
vn 0.5954248386893108 0.2483799327096629 0.7640527930051375
vn 0.5953388577155183 0.6500448446409258 0.47224288713514406
vn 0.5951299849286309 -0.650081983536999 0.4724549880353137
vn 0.7938340094704398 0.49202200586982253 0.35741000426390135
vn -0.7940563845802606 0.491731238157052 0.3573161730566615
vn -0.793853340765589 -0.6081092610339969 0
vn 0.7940995779584213 -0.6077876769779536 0
vn 0.5949222177983867 0.6504782381371995 0.4721711728597733
vn 0.9999999793950006 0.00020299999581718515 9.999999793950007e-7
vn 0.9999999793950006 0.00020299999581718515 -9.999999793950007e-7
vn 0.5950987131000042 -0.8036526125551506 0
vn 0.7941682825933183 0.49172417497294885 0.3570771270607407
vn -0.7943918479017795 0.49132090592925176 0.35713493162116683
vn -0.7927432174169918 0.18846705168879221 0.5796881589847166
vn 0.00016499992884429102 -0.8090696510912153 0.5877127465506958
vn 0.5947802483374592 0.803888335645959 0
vn 0.7945811359452956 0.1880170321679308 0.5773130987727952
vn -0.7945810172924668 0.1872330040747519 0.5775680125696127
vn -0.7938329653337121 -0.49202297851360294 0.3574109843920413
vn -0.7945827906675889 -0.18801695046703495 0.5773108479077659
vn -0.7927451715298587 -0.18826504073575845 0.5797511254433735
vn 0.00016399990552164962 -0.8090675339060367 0.5877156614241575
vn 0.7940477149730506 -0.49174182348709133 0.35732087173808813
vn 0.5951798450672668 -0.6502398307344661 -0.4721748770869933
vn 0.7927451715298587 0.18826504073575845 0.5797511254433735
vn -0.7941699788536363 -0.4917229869068922 0.35707499049216435
vn 0.7943932811493367 -0.49131917388623886 0.357134126395861
vn 0.5948741908862353 0.6503232086789962 -0.47244515160058675
vn 0.5956067874967681 -0.6497957681629832 -0.47224783150932365
vn 0.7927432174169918 -0.18846705168879221 0.5796881589847166
vn 0.7945824525529757 -0.18723210663770226 0.5775663289518412
vn 0.5952900957545031 0.6502571045961395 -0.47201207592480054
vn 0.5953808552281019 0.24838993960188216 -0.7640838142065484
vn 0.5955258003413738 -0.24813791680817932 -0.7640527438402818
vn 0.595486972954471 -0.2481749887285127 -0.7640709652978077
vn 0.5954194063587004 0.24840916953298162 -0.7640475214431282
usemtl material_0_0
f 1//1 2//1 3//1
f 1//1 4//1 2//1
f 2//2 5//2 3//2
f 3//3 6//3 1//3
f 7//4 4//4 1//4
f 4//5 8//5 2//5
f 2//6 9//6 5//6
f 5//7 10//7 3//7
f 3//3 11//3 6//3
f 12//8 1//8 6//8
f 13//9 4//9 7//9
f 7//10 1//10 12//10
f 4//5 14//5 8//5
f 8//11 9//11 2//11
f 15//12 5//12 9//12
f 16//13 10//13 5//13
f 3//14 10//14 11//14
f 11//15 17//15 6//15
f 12//16 6//16 18//16
f 14//17 4//17 13//17
f 13//18 7//18 12//18
f 14//19 19//19 8//19
f 8//20 20//20 9//20
f 15//12 16//12 5//12
f 21//12 15//12 9//12
f 16//13 22//13 10//13
f 23//21 11//21 10//21
f 11//15 24//15 17//15
f 18//22 6//22 17//22
f 12//18 18//18 25//18
f 26//23 14//23 13//23
f 13//18 12//18 25//18
f 14//24 27//24 19//24
f 19//25 20//25 8//25
f 20//13 21//13 9//13
f 28//26 16//26 15//26
f 29//27 15//27 21//27
f 16//28 30//28 22//28
f 22//13 23//13 10//13
f 23//21 24//21 11//21
f 24//29 31//29 17//29
f 18//22 17//22 25//22
f 27//30 14//30 26//30
f 26//18 13//18 32//18
f 13//18 25//18 33//18
f 27//31 34//31 19//31
f 19//32 35//32 20//32
f 20//13 36//13 21//13
f 30//33 16//33 28//33
f 28//34 15//34 29//34
f 21//35 37//35 29//35
f 30//36 38//36 22//36
f 39//13 23//13 22//13
f 40//37 24//37 23//37
f 24//29 41//29 31//29
f 31//38 25//38 17//38
f 27//39 26//39 32//39
f 32//18 13//18 33//18
f 33//18 25//18 42//18
f 27//31 43//31 34//31
f 34//40 35//40 19//40
f 35//13 36//13 20//13
f 21//41 36//41 37//41
f 28//42 38//42 30//42
f 37//43 28//43 29//43
f 22//44 38//44 39//44
f 39//13 40//13 23//13
f 40//45 41//45 24//45
f 31//46 41//46 44//46
f 42//47 25//47 31//47
f 27//39 32//39 43//39
f 32//18 33//18 45//18
f 33//48 42//48 44//48
f 43//49 46//49 34//49
f 34//40 47//40 35//40
f 35//13 48//13 36//13
f 36//50 49//50 37//50
f 28//13 50//13 38//13
f 37//13 51//13 28//13
f 38//44 52//44 39//44
f 53//13 40//13 39//13
f 54//51 41//51 40//51
f 44//46 41//46 55//46
f 44//52 42//52 31//52
f 43//53 32//53 45//53
f 56//54 45//54 33//54
f 56//55 33//55 44//55
f 43//56 56//56 46//56
f 34//57 46//57 47//57
f 47//13 48//13 35//13
f 36//50 48//50 49//50
f 49//13 51//13 37//13
f 51//13 50//13 28//13
f 50//13 52//13 38//13
f 52//58 53//58 39//58
f 54//13 40//13 53//13
f 55//59 41//59 54//59
f 44//60 55//60 56//60
f 43//61 45//61 56//61
f 56//60 55//60 46//60
f 47//62 46//62 57//62
f 47//13 58//13 48//13
f 49//63 48//63 51//63
f 51//13 59//13 50//13
f 52//64 50//64 53//64
f 54//12 53//12 60//12
f 57//65 55//65 54//65
f 46//66 55//66 57//66
f 47//13 57//13 58//13
f 48//67 58//67 51//67
f 59//68 51//68 58//68
f 50//69 59//69 60//69
f 50//70 60//70 53//70
f 57//12 54//12 60//12
f 57//12 60//12 58//12
f 59//71 58//71 60//71
usemtl material_1_0
f 3//60 2//60 1//60
f 2//60 4//60 1//60
f 3//72 5//72 2//72
f 1//73 6//73 3//73
f 1//74 4//74 7//74
f 2//46 8//46 4//46
f 5//75 9//75 2//75
f 3//76 10//76 5//76
f 6//73 11//73 3//73
f 6//77 1//77 12//77
f 7//78 4//78 13//78
f 12//79 1//79 7//79
f 8//46 14//46 4//46
f 2//80 9//80 8//80
f 9//81 5//81 15//81
f 5//18 10//18 16//18
f 11//82 10//82 3//82
f 6//83 17//83 11//83
f 18//84 6//84 12//84
f 13//85 4//85 14//85
f 12//13 7//13 13//13
f 8//86 19//86 14//86
f 9//87 20//87 8//87
f 5//81 16//81 15//81
f 9//81 15//81 21//81
f 10//18 22//18 16//18
f 10//88 11//88 23//88
f 17//83 24//83 11//83
f 17//89 6//89 18//89
f 25//13 18//13 12//13
f 13//90 14//90 26//90
f 25//13 12//13 13//13
f 19//91 27//91 14//91
f 8//92 20//92 19//92
f 9//18 21//18 20//18
f 15//93 16//93 28//93
f 21//94 15//94 29//94
f 22//95 30//95 16//95
f 10//18 23//18 22//18
f 11//88 24//88 23//88
f 17//96 31//96 24//96
f 25//89 17//89 18//89
f 26//97 14//97 27//97
f 32//13 13//13 26//13
f 33//13 25//13 13//13
f 19//98 34//98 27//98
f 20//99 35//99 19//99
f 21//18 36//18 20//18
f 28//100 16//100 30//100
f 29//101 15//101 28//101
f 29//102 37//102 21//102
f 22//103 38//103 30//103
f 22//18 23//18 39//18
f 23//104 24//104 40//104
f 31//96 41//96 24//96
f 17//105 25//105 31//105
f 32//106 26//106 27//106
f 33//13 13//13 32//13
f 42//13 25//13 33//13
f 34//98 43//98 27//98
f 19//107 35//107 34//107
f 20//18 36//18 35//18
f 37//108 36//108 21//108
f 30//109 38//109 28//109
f 29//110 28//110 37//110
f 39//111 38//111 22//111
f 23//18 40//18 39//18
f 24//112 41//112 40//112
f 44//5 41//5 31//5
f 31//113 25//113 42//113
f 43//106 32//106 27//106
f 45//13 33//13 32//13
f 44//114 42//114 33//114
f 34//115 46//115 43//115
f 35//107 47//107 34//107
f 36//18 48//18 35//18
f 37//116 49//116 36//116
f 38//18 50//18 28//18
f 28//18 51//18 37//18
f 39//111 52//111 38//111
f 39//18 40//18 53//18
f 40//117 41//117 54//117
f 55//5 41//5 44//5
f 31//118 42//118 44//118
f 45//119 32//119 43//119
f 33//120 45//120 56//120
f 44//121 33//121 56//121
f 46//122 56//122 43//122
f 47//123 46//123 34//123
f 35//18 48//18 47//18
f 49//116 48//116 36//116
f 37//18 51//18 49//18
f 28//18 50//18 51//18
f 38//18 52//18 50//18
f 39//124 53//124 52//124
f 53//18 40//18 54//18
f 54//125 41//125 55//125
f 56//1 55//1 44//1
f 56//126 45//126 43//126
f 46//1 55//1 56//1
f 57//127 46//127 47//127
f 48//18 58//18 47//18
f 51//128 48//128 49//128
f 50//18 59//18 51//18
f 53//129 50//129 52//129
f 60//81 53//81 54//81
f 54//130 55//130 57//130
f 57//131 55//131 46//131
f 58//18 57//18 47//18
f 51//132 58//132 48//132
f 58//133 51//133 59//133
f 60//134 59//134 50//134
f 53//135 60//135 50//135
f 60//81 54//81 57//81
f 58//81 60//81 57//81
f 60//136 58//136 59//136
