# SSTK version 0.8.0
# 16
mtllib original-16.mtl
o Cylinder29_1/Cylinder29/mesh16/mesh16-geometry#mesh16-geometry
v 0.065457 -0.421898 -0.238430
v -0.065938 -0.415721 -0.236417
v -0.065937 -0.421925 -0.238430
v 0.065456 -0.415694 -0.236417
v -0.066599 -0.421399 -0.239156
v 0.065458 -0.425733 -0.243710
v 0.066118 -0.415694 -0.237308
v -0.065939 -0.409517 -0.238430
v -0.066600 -0.415721 -0.237308
v -0.066598 -0.424909 -0.243986
v -0.065936 -0.425760 -0.243710
v 0.066119 -0.421372 -0.239156
v 0.066117 -0.410016 -0.239156
v 0.065454 -0.409490 -0.238430
v -0.066600 -0.415721 -0.241679
v -0.066600 -0.418832 -0.242690
v 0.065458 -0.425733 -0.250234
v 0.066120 -0.424882 -0.243986
v 0.066118 -0.415694 -0.241679
v 0.066119 -0.418805 -0.242690
v -0.065940 -0.405682 -0.243710
v -0.066601 -0.410043 -0.239156
v -0.066601 -0.412610 -0.242690
v -0.066599 -0.420753 -0.245336
v -0.066598 -0.424909 -0.249957
v -0.065936 -0.425760 -0.250234
v 0.066119 -0.420726 -0.245336
v 0.066116 -0.406506 -0.243986
v 0.066117 -0.412583 -0.242690
v 0.065453 -0.405655 -0.243710
v -0.065159 -0.415721 -0.242785
v -0.065159 -0.413260 -0.243584
v -0.065158 -0.418182 -0.243584
v 0.065457 -0.421898 -0.255514
v 0.066120 -0.424882 -0.249957
v 0.066119 -0.420726 -0.248607
v 0.064677 -0.418155 -0.243584
v 0.064676 -0.415694 -0.242785
v 0.064677 -0.419676 -0.245678
v -0.065940 -0.405682 -0.250234
v -0.066602 -0.406533 -0.243986
v -0.066601 -0.410689 -0.245336
v -0.065159 -0.411738 -0.245678
v -0.065158 -0.419703 -0.245678
v -0.066599 -0.420753 -0.248607
v -0.066599 -0.421399 -0.254788
v -0.065937 -0.421925 -0.255514
v 0.064677 -0.419676 -0.248266
v 0.066116 -0.406506 -0.249957
v 0.066117 -0.410662 -0.245336
v 0.064676 -0.413233 -0.243584
v 0.065453 -0.405655 -0.250234
v 0.065456 -0.415694 -0.257527
v 0.066119 -0.421372 -0.254788
v 0.066119 -0.418805 -0.251253
v 0.064677 -0.418155 -0.250359
v -0.065939 -0.409517 -0.255514
v -0.066602 -0.406533 -0.249957
v -0.066601 -0.410689 -0.248607
v -0.065159 -0.411738 -0.248266
v -0.065158 -0.418182 -0.250359
v -0.065159 -0.413260 -0.250359
v -0.065158 -0.419703 -0.248266
v -0.066600 -0.418832 -0.251253
v -0.066600 -0.415721 -0.256635
v -0.065938 -0.415721 -0.257527
v 0.064676 -0.415694 -0.251159
v 0.066117 -0.410662 -0.248607
v 0.066117 -0.410016 -0.254788
v 0.064675 -0.411712 -0.245678
v 0.065454 -0.409490 -0.255514
v 0.066118 -0.415694 -0.256635
v 0.066118 -0.415694 -0.252264
v 0.064675 -0.411712 -0.248266
v -0.066601 -0.410043 -0.254788
v -0.066601 -0.412610 -0.251253
v -0.065159 -0.415721 -0.251159
v -0.066600 -0.415721 -0.252264
v 0.066117 -0.412583 -0.251253
v 0.064676 -0.413233 -0.250359
vn 0.00006300002320751183 -0.30861711368623296 0.951186350391434
vn -0.7897180210136071 -0.18947300504168724 0.58347701552574
vn 0.00016499996536799592 -0.809068830183752 0.5877138766441596
vn 0.7880111753218678 -0.18985904224107847 0.5856551303003746
vn -0.00006299998432163686 0.30861892319617845 0.9511857632850867
vn -0.7878545777864814 -0.19070889779855693 0.5855896861808146
vn -0.7893966665297109 -0.4966717901875033 0.3607908475886289
vn 0.00016500007493727606 -0.8090663674497102 0.5877172669206733
vn 0.7895869657279785 -0.4964199784528912 0.360720984342906
vn 0.7878540482497591 0.1907100116794629 0.5855900358627061
vn 0.7898758452155497 -0.18961596284276477 0.5832168857125387
vn -0.00006300000376459686 0.3086180184416246 0.9511860568386002
vn -0.7880174407591602 0.1898571061921404 0.5856473275681615
vn -0.9999999791920007 -0.00020399999575516814 0
vn -0.9999999793950006 -0.00020299999581718515 -9.999999793950007e-7
vn -0.7890563050650076 -0.4970821921819543 0.36097013955830237
vn 0.00020399999575516814 -0.9999999791920007 0
vn 0.7892409445435924 -0.4967229650975138 0.36106097462987097
vn 0.7897180210136071 0.18947300504168724 0.58347701552574
vn 0.9999999791920007 0.00020399999575516814 0
vn 0.9999999791915006 0.00020399999575506614 9.999999791915006e-7
vn -0.00016499990491841967 0.8090675337729453 0.5877156613274784
vn -0.7898772924209216 0.18961507019750296 0.5832152159124367
vn -0.9999999791915006 -0.00020399999575506614 -9.999999791915006e-7
vn -0.7890609286112938 -0.6143149444210866 0
vn 0.7893082230297256 -0.6139971734932148 0
vn 0.7893991660568419 0.4966691044785788 0.3607890758950568
vn 0.9999999789875006 0.0002049999956924376 0
vn 0.9999999789855006 0.00020499999569202761 -0.0000019999999579710014
vn 0.9999999795975005 0.0002019999958786951 -9.999999795975006e-7
vn -0.7895834291410792 0.49642326980760976 0.360724196054736
vn -0.9999999793950006 -0.00020299999581718515 9.999999793950007e-7
vn -0.5892910809347158 0.24958503427863493 -0.7684031055344107
vn -0.5891512779622277 -0.24983411787201446 -0.7684293625458273
vn -0.5893268830248133 0.6537208702432842 -0.4747029057764669
vn 0.00016499996536799592 -0.809068830183752 -0.5877138766441596
vn 0.7890497635707424 0.4970898510530135 0.36097389183852124
vn 0.9999999793955006 0.00020299999581728663 0
vn 0.5891482666220541 0.24983511306415518 -0.7684313477575272
vn 0.589288217095587 -0.24958509194791356 -0.7684052830828636
vn 0.5886799997680601 0.65418799974225 -0.47486199981290445
vn -0.00020399999575516814 0.9999999791920007 0
vn -0.7892409445435924 0.4967229650975138 0.36106097462987097
vn -0.9999999793955006 -0.00020299999581728663 0
vn -0.5892497466344485 0.2495638926925405 -0.7684416695855218
vn -0.5891938408670138 -0.24979393253416504 -0.7684097924633008
vn -0.5891070461135341 -0.6537460511732818 -0.47494103717696107
vn -0.5889002525190102 0.6537832803406963 -0.4751462037415481
vn -0.7890413720950344 -0.49704123439401504 -0.3610591702677821
vn 0.00016500007493727606 -0.8090663674497102 -0.5877172669206733
vn 0.7892561704505434 -0.4967641072829269 -0.36097107795658584
vn 0.588535351924824 0.808471483439412 0
vn 0.7890547864210464 0.6143228337169608 0
vn 0.9999999793935005 0.00020299999581688063 0.000001999999958787001
vn 0.5891030682384634 0.6537510757269334 -0.4749390550143312
vn 0.5891901767956715 0.24979507495489534 -0.7684122305740348
vn 0.589242754404555 -0.2495618959829978 -0.7684476797122266
vn -0.7893082230297256 0.6139971734932148 0
vn -0.5886808643523445 -0.6541858492582617 -0.47486389057878825
vn -0.9999999791915006 -0.00020399999575506614 9.999999791915006e-7
vn -0.5888692357994831 0.8082283236369118 0
vn -0.7893812011651415 -0.4967441265897926 -0.36072509192683344
vn 0.00006300002320751183 -0.30861711368623296 -0.951186350391434
vn 0.7896021406451302 -0.4963470884100958 -0.36078806426411686
vn 0.5886311892793927 0.6540292103086857 0.47514115278570085
vn 0.5893149550726923 -0.6537279501620711 -0.4747079638099277
vn -0.00016499990491841967 0.8090675337729453 -0.5877156613274784
vn -0.5885360055507773 -0.8084710076250943 0
vn -0.7897996024840875 -0.18993690440240585 -0.5832157064603186
vn 0.7897936900135405 -0.18915192575968062 -0.5834787709901703
vn 0.5890537794747998 0.6539677551728295 0.47470182228496266
vn 0.7890346529218802 0.4970477813601611 -0.3610648411759158
vn 0.5888960638716705 -0.6537900709100749 -0.47514205153390965
vn -0.7892561704505434 0.4967641072829269 -0.36097107795658584
vn -0.5889501860361417 0.6539432065659778 0.4748641499989241
vn -0.7879372042908692 -0.19017804930803975 -0.5856511518435508
vn -0.00006300000376459686 0.3086180184416246 -0.9511860568386002
vn 0.787928308032753 -0.19039007443111025 -0.5855942289322525
vn 0.5891429322161639 0.24980597125857565 0.7684449115865758
vn 0.5888640658585609 -0.8082320903926821 0
vn 0.7893835781578702 0.49674273454348566 -0.36072180723230174
vn -0.00006299998432163686 0.30861892319617845 -0.9511857632850867
vn -0.7895988736239208 0.49635092055854513 -0.36078994225521355
vn -0.5886308405060806 -0.6540268227865511 0.47514487125595095
vn -0.5893769954332123 0.6535019949363398 0.4749419963199119
vn -0.7879351034598255 0.19038702499876994 -0.5855860768903849
vn 0.7879370544421186 0.19017901314032423 -0.5856510404652672
vn 0.5891860245837874 0.24982701042403224 0.7684050320617006
vn 0.789800063107397 0.18993701517653797 -0.5832150466006338
vn -0.7897958249433544 0.1891519580748514 -0.5834758706737545
vn -0.5890572794049549 -0.6539643101920221 0.47470222516342375
vn -0.5891459435627671 -0.24980497606993352 0.7684429263870135
vn -0.58929618686202 0.24955407913198893 0.7684092436576151
vn -0.5892539793154179 0.2495929912385374 0.7684289730258383
vn 0.589293964117597 -0.2495509848047162 0.7684119532110134
vn 0.5889448204336963 -0.6539468006149205 0.4748658552157971
vn -0.5891887302806557 -0.24982488563494024 0.7684036482394901
vn 0.5892481043473045 -0.24959404419949002 0.7684331360783782
vn 0.589363889183097 -0.6535138771211042 0.4749419106976307
vn -0.00006300002320751183 0.30861711368623296 -0.951186350391434
vn 0.7897180210136071 0.18947300504168724 -0.58347701552574
vn -0.00016499996536799592 0.809068830183752 -0.5877138766441596
vn -0.7880111753218678 0.18985904224107847 -0.5856551303003746
vn 0.00006299998432163686 -0.30861892319617845 -0.9511857632850867
vn 0.7878545777864814 0.19070889779855693 -0.5855896861808146
vn 0.7893966665297109 0.4966717901875033 -0.3607908475886289
vn -0.00016500007493727606 0.8090663674497102 -0.5877172669206733
vn -0.7895869657279785 0.4964199784528912 -0.360720984342906
vn -0.7878540482497591 -0.1907100116794629 -0.5855900358627061
vn -0.7898758452155497 0.18961596284276477 -0.5832168857125387
vn 0.00006300000376459686 -0.3086180184416246 -0.9511860568386002
vn 0.7880174407591602 -0.1898571061921404 -0.5856473275681615
vn 0.9999999793950006 0.00020299999581718515 9.999999793950007e-7
vn 0.7890563050650076 0.4970821921819543 -0.36097013955830237
vn -0.7892409445435924 0.4967229650975138 -0.36106097462987097
vn -0.7897180210136071 -0.18947300504168724 -0.58347701552574
vn 0.00016499990491841967 -0.8090675337729453 -0.5877156613274784
vn 0.7898772924209216 -0.18961507019750296 -0.5832152159124367
vn 0.7890609286112938 0.6143149444210866 0
vn -0.7893991660568419 -0.4966691044785788 -0.3607890758950568
vn -0.9999999789875006 -0.0002049999956924376 0
vn -0.9999999789855006 -0.00020499999569202761 0.0000019999999579710014
vn -0.9999999795975005 -0.0002019999958786951 9.999999795975006e-7
vn 0.7895834291410792 -0.49642326980760976 -0.360724196054736
vn 0.9999999793950006 0.00020299999581718515 -9.999999793950007e-7
vn 0.5892910809347158 -0.24958503427863493 0.7684031055344107
vn 0.5891512779622277 0.24983411787201446 0.7684293625458273
vn 0.5893268830248133 -0.6537208702432842 0.4747029057764669
vn -0.00016499996536799592 0.809068830183752 0.5877138766441596
vn -0.7890497635707424 -0.4970898510530135 -0.36097389183852124
vn -0.5891482666220541 -0.24983511306415518 0.7684313477575272
vn -0.589288217095587 0.24958509194791356 0.7684052830828636
vn -0.5886799997680601 -0.65418799974225 0.47486199981290445
vn 0.7892409445435924 -0.4967229650975138 -0.36106097462987097
vn 0.5892497466344485 -0.2495638926925405 0.7684416695855218
vn 0.5891938408670138 0.24979393253416504 0.7684097924633008
vn 0.5891070461135341 0.6537460511732818 0.47494103717696107
vn 0.5889002525190102 -0.6537832803406963 0.4751462037415481
vn 0.7890413720950344 0.49704123439401504 0.3610591702677821
vn -0.00016500007493727606 0.8090663674497102 0.5877172669206733
vn -0.7892561704505434 0.4967641072829269 0.36097107795658584
vn -0.588535351924824 -0.808471483439412 0
vn -0.7890547864210464 -0.6143228337169608 0
vn -0.9999999793935005 -0.00020299999581688063 -0.000001999999958787001
vn -0.5891030682384634 -0.6537510757269334 0.4749390550143312
vn -0.5891901767956715 -0.24979507495489534 0.7684122305740348
vn -0.589242754404555 0.2495618959829978 0.7684476797122266
vn 0.5886808643523445 0.6541858492582617 0.47486389057878825
vn 0.9999999791915006 0.00020399999575506614 -9.999999791915006e-7
vn 0.5888692357994831 -0.8082283236369118 0
vn 0.7893812011651415 0.4967441265897926 0.36072509192683344
vn -0.00006300002320751183 0.30861711368623296 0.951186350391434
vn -0.7896021406451302 0.4963470884100958 0.36078806426411686
vn -0.5886311892793927 -0.6540292103086857 -0.47514115278570085
vn -0.5893149550726923 0.6537279501620711 0.4747079638099277
vn 0.00016499990491841967 -0.8090675337729453 0.5877156613274784
vn 0.5885360055507773 0.8084710076250943 0
vn 0.7897996024840875 0.18993690440240585 0.5832157064603186
vn -0.7897936900135405 0.18915192575968062 0.5834787709901703
vn -0.5890537794747998 -0.6539677551728295 -0.47470182228496266
vn -0.7890346529218802 -0.4970477813601611 0.3610648411759158
vn -0.5888960638716705 0.6537900709100749 0.47514205153390965
vn 0.7892561704505434 -0.4967641072829269 0.36097107795658584
vn 0.5889501860361417 -0.6539432065659778 -0.4748641499989241
vn 0.7879372042908692 0.19017804930803975 0.5856511518435508
vn 0.00006300000376459686 -0.3086180184416246 0.9511860568386002
vn -0.787928308032753 0.19039007443111025 0.5855942289322525
vn -0.5891429322161639 -0.24980597125857565 -0.7684449115865758
vn -0.5888640658585609 0.8082320903926821 0
vn -0.7893835781578702 -0.49674273454348566 0.36072180723230174
vn 0.00006299998432163686 -0.30861892319617845 0.9511857632850867
vn 0.7895988736239208 -0.49635092055854513 0.36078994225521355
vn 0.5886308405060806 0.6540268227865511 -0.47514487125595095
vn 0.5893769954332123 -0.6535019949363398 -0.4749419963199119
vn 0.7879351034598255 -0.19038702499876994 0.5855860768903849
vn -0.7879370544421186 -0.19017901314032423 0.5856510404652672
vn -0.5891860245837874 -0.24982701042403224 -0.7684050320617006
vn -0.789800063107397 -0.18993701517653797 0.5832150466006338
vn 0.7897958249433544 -0.1891519580748514 0.5834758706737545
vn 0.5890572794049549 0.6539643101920221 -0.47470222516342375
vn 0.5891459435627671 0.24980497606993352 -0.7684429263870135
vn 0.58929618686202 -0.24955407913198893 -0.7684092436576151
vn 0.5892539793154179 -0.2495929912385374 -0.7684289730258383
vn -0.589293964117597 0.2495509848047162 -0.7684119532110134
vn -0.5889448204336963 0.6539468006149205 -0.4748658552157971
vn 0.5891887302806557 0.24982488563494024 -0.7684036482394901
vn -0.5892481043473045 0.24959404419949002 -0.7684331360783782
vn -0.589363889183097 0.6535138771211042 -0.4749419106976307
usemtl material_0_0
f 1//1 2//1 3//1
f 1//1 4//1 2//1
f 2//2 5//2 3//2
f 3//3 6//3 1//3
f 7//4 4//4 1//4
f 4//5 8//5 2//5
f 2//6 9//6 5//6
f 5//7 10//7 3//7
f 3//8 11//8 6//8
f 12//9 1//9 6//9
f 13//10 4//10 7//10
f 7//11 1//11 12//11
f 4//12 14//12 8//12
f 8//13 9//13 2//13
f 15//14 5//14 9//14
f 16//15 10//15 5//15
f 3//16 10//16 11//16
f 11//17 17//17 6//17
f 12//18 6//18 18//18
f 14//19 4//19 13//19
f 13//20 7//20 19//20
f 7//21 12//21 20//21
f 14//22 21//22 8//22
f 8//23 22//23 9//23
f 15//24 16//24 5//24
f 23//14 15//14 9//14
f 16//14 24//14 10//14
f 25//25 11//25 10//25
f 11//17 26//17 17//17
f 18//26 6//26 17//26
f 27//20 12//20 18//20
f 28//27 14//27 13//27
f 7//28 20//28 19//28
f 13//29 19//29 29//29
f 20//30 12//30 27//30
f 14//22 30//22 21//22
f 21//31 22//31 8//31
f 22//32 23//32 9//32
f 31//33 16//33 15//33
f 32//34 15//34 23//34
f 16//35 33//35 24//35
f 24//14 25//14 10//14
f 25//25 26//25 11//25
f 26//36 34//36 17//36
f 18//26 17//26 35//26
f 27//20 18//20 36//20
f 30//37 14//37 28//37
f 28//38 13//38 29//38
f 20//39 37//39 19//39
f 19//40 38//40 29//40
f 20//41 27//41 39//41
f 30//42 40//42 21//42
f 21//43 41//43 22//43
f 22//44 42//44 23//44
f 33//45 16//45 31//45
f 31//46 15//46 32//46
f 23//47 43//47 32//47
f 33//48 44//48 24//48
f 45//14 25//14 24//14
f 46//49 26//49 25//49
f 26//50 47//50 34//50
f 34//51 35//51 17//51
f 36//20 18//20 35//20
f 27//52 36//52 48//52
f 30//53 28//53 49//53
f 28//54 29//54 50//54
f 20//55 39//55 37//55
f 19//56 37//56 38//56
f 29//57 38//57 51//57
f 27//52 48//52 39//52
f 30//42 52//42 40//42
f 40//58 41//58 21//58
f 41//14 42//14 22//14
f 23//59 42//59 43//59
f 31//60 44//60 33//60
f 43//24 31//24 32//24
f 24//61 44//61 45//61
f 45//14 46//14 25//14
f 46//62 47//62 26//62
f 34//63 47//63 53//63
f 54//64 35//64 34//64
f 55//54 36//54 35//54
f 48//65 36//65 56//65
f 28//20 50//20 49//20
f 30//53 49//53 52//53
f 29//66 51//66 50//66
f 37//28 39//28 48//28
f 51//28 38//28 37//28
f 52//67 57//67 40//67
f 40//58 58//58 41//58
f 41//14 59//14 42//14
f 42//68 60//68 43//68
f 31//44 61//44 44//44
f 43//44 62//44 31//44
f 44//61 63//61 45//61
f 64//44 46//44 45//44
f 65//69 47//69 46//69
f 53//63 47//63 66//63
f 53//70 54//70 34//70
f 55//38 35//38 54//38
f 36//71 55//71 56//71
f 67//28 48//28 56//28
f 49//20 50//20 68//20
f 52//72 49//72 69//72
f 51//73 70//73 50//73
f 51//28 37//28 48//28
f 52//67 71//67 57//67
f 40//74 57//74 58//74
f 58//14 59//14 41//14
f 42//68 59//68 60//68
f 60//44 62//44 43//44
f 62//14 61//14 31//14
f 61//44 63//44 44//44
f 63//75 64//75 45//75
f 65//32 46//32 64//32
f 66//76 47//76 65//76
f 53//77 66//77 71//77
f 72//78 54//78 53//78
f 73//29 55//29 54//29
f 55//79 67//79 56//79
f 51//28 48//28 67//28
f 50//80 70//80 68//80
f 49//20 68//20 69//20
f 52//81 69//81 71//81
f 70//28 51//28 74//28
f 71//82 66//82 57//82
f 58//83 57//83 75//83
f 58//14 76//14 59//14
f 60//84 59//84 62//84
f 62//14 77//14 61//14
f 63//85 61//85 64//85
f 65//14 64//14 78//14
f 75//86 66//86 65//86
f 71//87 72//87 53//87
f 73//20 54//20 72//20
f 55//88 73//88 67//88
f 74//28 51//28 67//28
f 70//80 74//80 68//80
f 69//30 68//30 79//30
f 71//89 69//89 72//89
f 57//90 66//90 75//90
f 58//15 75//15 76//15
f 59//91 76//91 62//91
f 77//92 62//92 76//92
f 61//93 77//93 78//93
f 61//94 78//94 64//94
f 75//14 65//14 78//14
f 79//28 73//28 72//28
f 73//95 80//95 67//95
f 74//28 67//28 80//28
f 74//96 79//96 68//96
f 69//21 79//21 72//21
f 75//24 78//24 76//24
f 77//97 76//97 78//97
f 73//98 79//98 80//98
f 74//99 80//99 79//99
usemtl material_1_0
f 3//100 2//100 1//100
f 2//100 4//100 1//100
f 3//101 5//101 2//101
f 1//102 6//102 3//102
f 1//103 4//103 7//103
f 2//104 8//104 4//104
f 5//105 9//105 2//105
f 3//106 10//106 5//106
f 6//107 11//107 3//107
f 6//108 1//108 12//108
f 7//109 4//109 13//109
f 12//110 1//110 7//110
f 8//111 14//111 4//111
f 2//112 9//112 8//112
f 9//20 5//20 15//20
f 5//113 10//113 16//113
f 11//114 10//114 3//114
f 6//42 17//42 11//42
f 18//115 6//115 12//115
f 13//116 4//116 14//116
f 19//14 7//14 13//14
f 20//24 12//24 7//24
f 8//117 21//117 14//117
f 9//118 22//118 8//118
f 5//21 16//21 15//21
f 9//20 15//20 23//20
f 10//20 24//20 16//20
f 10//119 11//119 25//119
f 17//42 26//42 11//42
f 17//58 6//58 18//58
f 18//14 12//14 27//14
f 13//120 14//120 28//120
f 19//121 20//121 7//121
f 29//122 19//122 13//122
f 27//123 12//123 20//123
f 21//117 30//117 14//117
f 8//124 22//124 21//124
f 9//125 23//125 22//125
f 15//126 16//126 31//126
f 23//127 15//127 32//127
f 24//128 33//128 16//128
f 10//20 25//20 24//20
f 11//119 26//119 25//119
f 17//129 34//129 26//129
f 35//58 17//58 18//58
f 36//14 18//14 27//14
f 28//130 14//130 30//130
f 29//44 13//44 28//44
f 19//131 37//131 20//131
f 29//132 38//132 19//132
f 39//133 27//133 20//133
f 21//17 40//17 30//17
f 22//134 41//134 21//134
f 23//38 42//38 22//38
f 31//135 16//135 33//135
f 32//136 15//136 31//136
f 32//137 43//137 23//137
f 24//138 44//138 33//138
f 24//20 25//20 45//20
f 25//139 26//139 46//139
f 34//140 47//140 26//140
f 17//141 35//141 34//141
f 35//14 18//14 36//14
f 48//142 36//142 27//142
f 49//143 28//143 30//143
f 50//144 29//144 28//144
f 37//145 39//145 20//145
f 38//146 37//146 19//146
f 51//147 38//147 29//147
f 39//142 48//142 27//142
f 40//17 52//17 30//17
f 21//26 41//26 40//26
f 22//20 42//20 41//20
f 43//148 42//148 23//148
f 33//149 44//149 31//149
f 32//21 31//21 43//21
f 45//150 44//150 24//150
f 25//20 46//20 45//20
f 26//151 47//151 46//151
f 53//152 47//152 34//152
f 34//153 35//153 54//153
f 35//144 36//144 55//144
f 56//154 36//154 48//154
f 49//14 50//14 28//14
f 52//143 49//143 30//143
f 50//155 51//155 29//155
f 48//121 39//121 37//121
f 37//121 38//121 51//121
f 40//156 57//156 52//156
f 41//26 58//26 40//26
f 42//20 59//20 41//20
f 43//157 60//157 42//157
f 44//38 61//38 31//38
f 31//38 62//38 43//38
f 45//150 63//150 44//150
f 45//38 46//38 64//38
f 46//158 47//158 65//158
f 66//152 47//152 53//152
f 34//159 54//159 53//159
f 54//44 35//44 55//44
f 56//160 55//160 36//160
f 56//121 48//121 67//121
f 68//14 50//14 49//14
f 69//161 49//161 52//161
f 50//162 70//162 51//162
f 48//121 37//121 51//121
f 57//156 71//156 52//156
f 58//163 57//163 40//163
f 41//20 59//20 58//20
f 60//157 59//157 42//157
f 43//38 62//38 60//38
f 31//20 61//20 62//20
f 44//38 63//38 61//38
f 45//164 64//164 63//164
f 64//125 46//125 65//125
f 65//165 47//165 66//165
f 71//166 66//166 53//166
f 53//167 54//167 72//167
f 54//122 55//122 73//122
f 56//168 67//168 55//168
f 67//121 48//121 51//121
f 68//169 70//169 50//169
f 69//14 68//14 49//14
f 71//170 69//170 52//170
f 74//121 51//121 70//121
f 57//171 66//171 71//171
f 75//172 57//172 58//172
f 59//20 76//20 58//20
f 62//173 59//173 60//173
f 61//20 77//20 62//20
f 64//174 61//174 63//174
f 78//20 64//20 65//20
f 65//175 66//175 75//175
f 53//176 72//176 71//176
f 72//14 54//14 73//14
f 67//177 73//177 55//177
f 67//121 51//121 74//121
f 68//169 74//169 70//169
f 79//123 68//123 69//123
f 72//178 69//178 71//178
f 75//179 66//179 57//179
f 76//113 75//113 58//113
f 62//180 76//180 59//180
f 76//181 62//181 77//181
f 78//182 77//182 61//182
f 64//183 78//183 61//183
f 78//20 65//20 75//20
f 72//121 73//121 79//121
f 67//184 80//184 73//184
f 80//121 67//121 74//121
f 68//185 79//185 74//185
f 72//24 79//24 69//24
f 76//21 78//21 75//21
f 78//186 76//186 77//186
f 80//187 79//187 73//187
f 79//188 80//188 74//188
