# SSTK version 0.8.0
# 28
mtllib original-28.mtl
o Box11-FACE1/Box11-FACE/mesh27/mesh27-geometry#mesh27-geometry
v 0.039221 -0.425787 -0.257163
v 0.008820 -0.424537 -0.277383
v 0.008820 -0.433202 -0.273339
v 0.039221 -0.417125 -0.261205
v 0.008816 -0.432942 -0.297708
v 0.039221 -0.430699 -0.254872
v 0.039224 -0.406199 -0.241419
v 0.008820 -0.419629 -0.279673
v 0.008817 -0.426685 -0.295210
v 0.008816 -0.439606 -0.296125
v 0.039225 -0.417321 -0.235877
v 0.008821 -0.438111 -0.271049
v 0.039223 -0.404517 -0.248052
v 0.039225 -0.410520 -0.237425
v 0.039220 -0.412213 -0.263497
v 0.012459 -0.426685 -0.295210
v 0.012459 -0.432942 -0.297709
v 0.008817 -0.443857 -0.292129
v 0.039224 -0.423872 -0.238793
v 0.012463 -0.438111 -0.271050
v 0.042868 -0.406197 -0.241675
v 0.042868 -0.410520 -0.237426
v 0.042864 -0.412213 -0.263497
v 0.012462 -0.419629 -0.279673
v 0.012459 -0.439606 -0.296126
v 0.042868 -0.417321 -0.235878
v 0.042864 -0.430699 -0.254872
v 0.042867 -0.423872 -0.238794
v 0.008818 -0.445369 -0.286586
v 0.012460 -0.445369 -0.286587
v 0.042867 -0.404517 -0.248053
v 0.012463 -0.424537 -0.277383
v 0.012463 -0.433203 -0.273340
v 0.012459 -0.443858 -0.292130
v 0.042864 -0.425787 -0.257164
v 0.042864 -0.417125 -0.261206
vn -0.5051587905607037 0.36489984871218917 0.7820886757453203
vn -0.9999999843135002 0.000037999999403913013 0.00017299999728623554
vn -0.5051589748928419 0.3648989818639737 0.7820889611290065
vn -0.9999999844860004 0.00003799999941046801 0.00017199999733159209
vn -0.9999999842750004 0.00003899999938672501 0.00017299999727957507
vn -0.0001470000492960338 0.3708411243604794 -0.9286963114355743
vn -0.0001740000633424726 -0.23111108413300108 -0.9729273541816197
vn -0.9999999844475004 0.00003899999939345251 0.00017199999732497008
vn 0.00003400001037643075 -0.9091452774611805 0.41647912710486773
vn 0.016805001264652012 0.9691710729344872 0.245815018498687
vn 0.0001540000243935288 0.6787741075174879 0.7343471163202253
vn -0.00003800001517133809 0.9090563629367345 -0.4166731663549199
vn -0.000034000003652076586 0.9105040978008924 -0.4135000444156961
vn -0.000040999984016015845 0.9105046450366466 -0.4134988387960619
vn -0.00017599993344915774 -0.23110991261042527 -0.972927632106944
vn -0.000152999964288359 -0.6848768401432578 -0.7286588299241267
vn 0.00017799996736424296 0.22192895930999487 0.9750628212251734
vn 0.00003800001155314527 -0.9204602798475814 0.3908361188259233
vn 0.000145000043407582 -0.40668312174569426 0.9135692734884225
vn 0.00003600000879217523 -0.9060152212734065 0.42324510336789456
vn 0.00004300001463348798 -0.9091503093961765 0.4164681417297551
vn -0.00003999998202775212 0.8950215978610688 -0.44602279959910207
vn 0.049583007056306985 0.7000990996332103 0.7123221013727025
vn 0.00008299998595100855 0.9669948363216329 0.254795956871966
vn 0.0001760000068526484 0.22192800864087817 0.9750630379645677
vn -0.000043999999848112 0.8950219969103841 -0.4460219984603321
vn -0.00003400000713379724 0.9090531907352878 -0.41668008742678336
vn 0.9999999843135002 -0.000037999999403913013 -0.00017299999728623554
vn 0.9999999842750004 -0.00003899999938672501 -0.00017299999727957507
vn 0.00014199998482155145 -0.4066839565293509 0.9135689023481686
vn -0.00008400000155190003 -0.9647650178240338 -0.2631130048610128
vn 0.00004299997409073892 -0.9060144540888564 0.42324674497634823
vn 0.5051492090663989 -0.3649031510226808 -0.782093323685422
vn 0.9999999845795003 -0.00003999999938318001 -0.00017099999736309456
vn 0.5051491826523796 -0.3649011319413401 -0.7820942827904841
vn 0.9999999844475004 -0.00003899999939345251 -0.00017199999732497008
vn -0.00007700002847657929 -0.9647663567952663 -0.2631080973041017
vn 0.5051489983226527 -0.3649019987883429 -0.7820939974030569
vn 0.5051587905607037 -0.36489984871218917 -0.7820886757453203
vn 0.5051589748928419 -0.3648989818639737 -0.7820889611290065
vn 0.9999999844860004 -0.00003799999941046801 -0.00017199999733159209
vn 0.0001470000492960338 -0.3708411243604794 0.9286963114355743
vn 0.0001740000633424726 0.23111108413300108 0.9729273541816197
vn -0.00003400001037643075 0.9091452774611805 -0.41647912710486773
vn -0.016805001264652012 -0.9691710729344872 -0.245815018498687
vn -0.0001540000243935288 -0.6787741075174879 -0.7343471163202253
vn 0.00003800001517133809 -0.9090563629367345 0.4166731663549199
vn 0.000034000003652076586 -0.9105040978008924 0.4135000444156961
vn 0.000040999984016015845 -0.9105046450366466 0.4134988387960619
vn 0.00017599993344915774 0.23110991261042527 0.972927632106944
vn 0.000152999964288359 0.6848768401432578 0.7286588299241267
vn -0.00017799996736424296 -0.22192895930999487 -0.9750628212251734
vn -0.00003800001155314527 0.9204602798475814 -0.3908361188259233
vn -0.000145000043407582 0.40668312174569426 -0.9135692734884225
vn -0.00003600000879217523 0.9060152212734065 -0.42324510336789456
vn -0.00004300001463348798 0.9091503093961765 -0.4164681417297551
vn 0.00003999998202775212 -0.8950215978610688 0.44602279959910207
vn -0.049583007056306985 -0.7000990996332103 -0.7123221013727025
vn -0.00008299998595100855 -0.9669948363216329 -0.254795956871966
vn -0.0001760000068526484 -0.22192800864087817 -0.9750630379645677
vn 0.000043999999848112 -0.8950219969103841 0.4460219984603321
vn 0.00003400000713379724 -0.9090531907352878 0.41668008742678336
vn -0.00014199998482155145 0.4066839565293509 -0.9135689023481686
vn 0.00008400000155190003 0.9647650178240338 0.2631130048610128
vn -0.00004299997409073892 0.9060144540888564 -0.42324674497634823
vn -0.5051492090663989 0.3649031510226808 0.782093323685422
vn -0.9999999845795003 0.00003999999938318001 0.00017099999736309456
vn -0.5051491826523796 0.3649011319413401 0.7820942827904841
vn 0.00007700002847657929 0.9647663567952663 0.2631080973041017
vn -0.5051489983226527 0.3649019987883429 0.7820939974030569
usemtl material_0_0
f 1//1 2//1 3//1
f 1//1 4//1 2//1
f 2//2 5//2 3//2
f 6//3 1//3 3//3
f 7//4 4//4 1//4
f 4//1 8//1 2//1
f 2//2 9//2 5//2
f 5//2 10//2 3//2
f 11//4 1//4 6//4
f 6//3 3//3 12//3
f 13//4 4//4 7//4
f 7//2 1//2 14//2
f 4//3 15//3 8//3
f 8//5 9//5 2//5
f 16//6 5//6 9//6
f 17//7 10//7 5//7
f 3//8 10//8 18//8
f 14//8 1//8 11//8
f 11//2 6//2 19//2
f 3//2 18//2 12//2
f 6//9 12//9 20//9
f 13//2 15//2 4//2
f 7//10 21//10 13//10
f 22//11 7//11 14//11
f 15//12 23//12 8//12
f 8//13 24//13 9//13
f 16//6 17//6 5//6
f 24//14 16//14 9//14
f 25//15 10//15 17//15
f 25//16 18//16 10//16
f 26//17 14//17 11//17
f 19//18 6//18 27//18
f 28//19 11//19 19//19
f 12//2 18//2 29//2
f 12//20 30//20 20//20
f 6//21 20//21 27//21
f 13//22 31//22 15//22
f 22//23 21//23 7//23
f 21//24 31//24 13//24
f 26//25 22//25 14//25
f 31//26 23//26 15//26
f 23//27 24//27 8//27
f 32//28 17//28 16//28
f 24//29 32//29 16//29
f 17//29 33//29 25//29
f 34//16 18//16 25//16
f 26//30 11//30 28//30
f 19//18 27//18 28//18
f 29//31 18//31 34//31
f 12//32 29//32 30//32
f 20//28 30//28 34//28
f 27//33 20//33 35//33
f 21//28 22//28 35//28
f 31//34 21//34 36//34
f 22//28 26//28 35//28
f 31//28 36//28 23//28
f 23//35 32//35 24//35
f 32//28 33//28 17//28
f 33//28 34//28 25//28
f 26//36 28//36 27//36
f 29//37 34//37 30//37
f 33//28 20//28 34//28
f 35//38 20//38 33//38
f 26//28 27//28 35//28
f 21//28 35//28 36//28
f 36//38 32//38 23//38
f 36//38 33//38 32//38
f 35//35 33//35 36//35
usemtl material_1_0
f 3//39 2//39 1//39
f 2//39 4//39 1//39
f 3//28 5//28 2//28
f 3//40 1//40 6//40
f 1//41 4//41 7//41
f 2//39 8//39 4//39
f 5//28 9//28 2//28
f 3//28 10//28 5//28
f 6//41 1//41 11//41
f 12//40 3//40 6//40
f 7//41 4//41 13//41
f 14//28 1//28 7//28
f 8//40 15//40 4//40
f 2//29 9//29 8//29
f 9//42 5//42 16//42
f 5//43 10//43 17//43
f 18//36 10//36 3//36
f 11//36 1//36 14//36
f 19//28 6//28 11//28
f 12//28 18//28 3//28
f 20//44 12//44 6//44
f 4//28 15//28 13//28
f 13//45 21//45 7//45
f 14//46 7//46 22//46
f 8//47 23//47 15//47
f 9//48 24//48 8//48
f 5//42 17//42 16//42
f 9//49 16//49 24//49
f 17//50 10//50 25//50
f 10//51 18//51 25//51
f 11//52 14//52 26//52
f 27//53 6//53 19//53
f 19//54 11//54 28//54
f 29//28 18//28 12//28
f 20//55 30//55 12//55
f 27//56 20//56 6//56
f 15//57 31//57 13//57
f 7//58 21//58 22//58
f 13//59 31//59 21//59
f 14//60 22//60 26//60
f 15//61 23//61 31//61
f 8//62 24//62 23//62
f 16//2 17//2 32//2
f 16//5 32//5 24//5
f 25//5 33//5 17//5
f 25//51 18//51 34//51
f 28//63 11//63 26//63
f 28//53 27//53 19//53
f 34//64 18//64 29//64
f 30//65 29//65 12//65
f 34//2 30//2 20//2
f 35//66 20//66 27//66
f 35//2 22//2 21//2
f 36//67 21//67 31//67
f 35//2 26//2 22//2
f 23//2 36//2 31//2
f 24//68 32//68 23//68
f 17//2 33//2 32//2
f 25//2 34//2 33//2
f 27//8 28//8 26//8
f 30//69 34//69 29//69
f 34//2 20//2 33//2
f 33//70 20//70 35//70
f 35//2 27//2 26//2
f 36//2 35//2 21//2
f 23//70 32//70 36//70
f 32//70 33//70 36//70
f 36//68 33//68 35//68
