# SSTK version 0.8.0
# 9
mtllib original-9.mtl
o Cylinder00_1/Cylinder00/mesh9/mesh9-geometry#mesh9-geometry
v 0.066711 -0.722119 -0.199215
v -0.064683 -0.717318 -0.197649
v -0.064682 -0.722146 -0.199215
v 0.066710 -0.717291 -0.197649
v -0.065345 -0.721737 -0.199780
v 0.066712 -0.725104 -0.203324
v 0.067373 -0.717291 -0.198342
v -0.064684 -0.712490 -0.199215
v -0.065346 -0.717318 -0.198342
v -0.065344 -0.724468 -0.203539
v -0.064682 -0.725130 -0.203324
v 0.067374 -0.721709 -0.199780
v 0.067372 -0.712872 -0.199780
v 0.066709 -0.712463 -0.199215
v -0.065346 -0.717318 -0.201744
v -0.065345 -0.719739 -0.202531
v 0.066712 -0.725104 -0.208401
v 0.067374 -0.724441 -0.203539
v 0.067373 -0.717291 -0.201744
v 0.067373 -0.719712 -0.202531
v -0.064685 -0.709505 -0.203324
v -0.065346 -0.712899 -0.199780
v -0.065346 -0.714897 -0.202531
v -0.065345 -0.721234 -0.204590
v -0.065344 -0.724468 -0.208186
v -0.064682 -0.725130 -0.208401
v 0.067373 -0.721207 -0.204590
v 0.067371 -0.710141 -0.203539
v 0.067372 -0.714870 -0.202531
v 0.066709 -0.709478 -0.203324
v -0.063904 -0.717317 -0.202604
v -0.063904 -0.715402 -0.203227
v -0.063903 -0.719233 -0.203227
v 0.066711 -0.722119 -0.212510
v 0.067374 -0.724441 -0.208186
v 0.067373 -0.721207 -0.207135
v 0.065931 -0.719206 -0.203227
v 0.065931 -0.717291 -0.202604
v 0.065932 -0.720390 -0.204856
v -0.064685 -0.709505 -0.208401
v -0.065347 -0.710168 -0.203539
v -0.065346 -0.713402 -0.204590
v -0.063904 -0.714219 -0.204856
v -0.063903 -0.720416 -0.204856
v -0.065345 -0.721234 -0.207135
v -0.065345 -0.721737 -0.211945
v -0.064682 -0.722146 -0.212510
v 0.065932 -0.720390 -0.206869
v 0.067371 -0.710141 -0.208186
v 0.067372 -0.713375 -0.204590
v 0.065931 -0.715376 -0.203227
v 0.066709 -0.709478 -0.208401
v 0.066710 -0.717291 -0.214077
v 0.067374 -0.721709 -0.211945
v 0.067373 -0.719712 -0.209195
v 0.065931 -0.719206 -0.208499
v -0.064684 -0.712490 -0.212510
v -0.065347 -0.710168 -0.208186
v -0.065346 -0.713402 -0.207135
v -0.063904 -0.714219 -0.206869
v -0.063903 -0.719233 -0.208499
v -0.063904 -0.715402 -0.208499
v -0.063903 -0.720416 -0.206869
v -0.065345 -0.719739 -0.209195
v -0.065346 -0.717318 -0.213383
v -0.064683 -0.717318 -0.214077
v 0.065931 -0.717291 -0.209121
v 0.067372 -0.713375 -0.207135
v 0.067372 -0.712872 -0.211945
v 0.065930 -0.714192 -0.204856
v 0.066709 -0.712463 -0.212510
v 0.067373 -0.717291 -0.213383
v 0.067373 -0.717291 -0.209981
v 0.065930 -0.714192 -0.206869
v -0.065346 -0.712899 -0.211945
v -0.065346 -0.714897 -0.209195
v -0.063904 -0.717317 -0.209121
v -0.065346 -0.717318 -0.209981
v 0.067372 -0.714870 -0.209195
v 0.065931 -0.715376 -0.208499
vn 0.00006300002320751183 -0.30861711368623296 0.951186350391434
vn -0.7077410538530804 -0.21816001660012355 0.6719440511292327
vn 0.00016499998929257354 -0.8090709474965561 0.5877109618613799
vn 0.7057163142075559 -0.21852409729394254 0.6739523000651971
vn -0.00006300002320751183 0.30861711368623296 0.951186350391434
vn -0.7055289774417697 -0.21941499298453485 0.6738589784543704
vn -0.7073630550335551 -0.5718730444922964 0.4154500323224291
vn 0.707580950606252 -0.5716659600940015 0.41536397100489597
vn 0.7055149915306453 0.21941999736597262 0.6738719919105037
vn 0.7079229156775367 -0.2184139739841671 0.6716699199957215
vn -0.00006300002161109013 0.3086141058648407 0.9511873262886982
vn -0.7057107964342215 0.21852493696539843 0.6739578055935291
vn -0.9999999791920007 -0.00020399999575516814 0
vn -0.9999999793955006 -0.00020299999581728663 0
vn -0.7069341561172355 -0.5722891263826279 0.4156070917814335
vn 0.00020399999575516814 -0.9999999791920007 0
vn 0.7071553582969711 -0.5719422897880752 0.4157082106283874
vn 0.7077420161545656 0.21815700497954274 0.6719440153374583
vn 0.9999999789875006 0.0002049999956924376 0
vn 0.9999999787800006 0.0002059999956286801 -0.000001999999957560001
vn -0.00016499997796384194 0.8090658919472347 0.5877179215088075
vn -0.7079237353916077 0.21841491836066865 0.6716687489430302
vn -0.9999999791915006 -0.00020399999575506614 -9.999999791915006e-7
vn -0.706936260567917 -0.7072772606936054 0
vn 0.7072337697402812 -0.7069797698229779 0
vn 0.9999999795975005 0.0002019999958786951 -9.999999795975006e-7
vn 0.7073641043333836 0.5718760843494411 0.41544406127634176
vn 0.9999999793955006 0.00020299999581728663 0
vn 0.9999999791875006 0.00020399999575425014 0.000002999999937562502
vn 0.9999999781595007 0.00020899999543533566 0
vn -0.00016499998929257354 0.8090709474965561 0.5877109618613799
vn -0.7075661098439865 0.5716740887478358 0.41537806448412645
vn -0.4936449583891873 0.2686799773521596 -0.827118930279667
vn -0.4935018526114989 -0.2688879196943492 -0.827136752968615
vn -0.49369702055408843 0.7036910292967691 -0.5109620212728823
vn 0.00016499998929257354 -0.8090709474965561 -0.5877109618613799
vn 0.9999999795980006 0.0002019999958787961 0
vn 0.7069562629124878 0.5722712128239837 0.41559415455679344
vn 0.9999999789830007 0.00020499999569151514 0.0000029999999369490024
vn 0.4934993077428097 0.2688871676762078 -0.8271385157979493
vn 0.493640872051758 -0.2686879303579783 -0.8271187856166284
vn 0.49303315509814777 0.7040662214848348 -0.5110861607772543
vn -0.00020399999575516814 0.9999999791920007 0
vn -0.7071588653389322 0.571938891088261 0.4157069208388092
vn -0.49360880755455055 0.2686578952571579 -0.8271476775162758
vn -0.4935391080107988 -0.26885205883814506 -0.8271261810161711
vn -0.49345606071163 -0.7036660865745068 -0.5112290628983048
vn -0.49328023395843096 0.7036773337479055 -0.511383242544527
vn -0.7069153496337027 -0.5722352830222048 -0.4157132056078531
vn 0.7071742829015926 -0.5719952288238771 -0.41560316626000193
vn 0.4928898421362809 0.8700917213253281 0
vn 0.7069637667741058 0.707249766679755 0
vn 0.9999999793875007 0.00020299999581566266 -0.000003999999917550003
vn 0.4934531917070956 0.7036672733754925 -0.5112301986134818
vn 0.4935360223117769 0.268852012154262 -0.8271280373928052
vn 0.4935980483888998 -0.2686610263376477 -0.827153081088302
vn -0.7072377690091101 0.7069757690946818 0
vn -0.49303873797808356 -0.7040626258309453 -0.5110857283871394
vn -0.4932541426143442 0.869885251509524 0
vn -0.7073439685677568 -0.5719569745839487 -0.41536698154233787
vn 0.00006300002320751183 -0.30861711368623296 -0.951186350391434
vn 0.7076000167938252 -0.5715820135656419 -0.41544700986001176
vn 0.49298405966364583 0.7038820851876864 0.5113870618908786
vn 0.49367312559761733 -0.7037011790318064 -0.510971129998481
vn 0.9999999797995006 0.00020099999593969963 0
vn -0.00016499997796384194 0.8090658919472347 -0.5877179215088075
vn -0.49289609991990757 -0.8700881763842931 0
vn -0.7078378532638125 -0.21870195466265213 -0.6716658607623381
vn 0.7078263322488035 -0.21787310226813314 -0.6719473154074402
vn 0.4934039325514403 0.7038959037770847 0.5109629301511167
vn 0.9999999795975005 0.0002019999958786951 9.999999795975006e-7
vn 0.7069378085223859 0.572220845011144 -0.4156948874069765
vn 0.49325800295757505 -0.7036880042193133 -0.5113900030662945
vn -0.00016499998929257354 0.8090709474965561 -0.5877109618613799
vn -0.707177033980211 0.5719890274843594 -0.41560701997012567
vn -0.493328931164339 0.7038599017883233 0.5110849286867917
vn -0.7056268719079184 -0.2188109602793594 -0.6739528776576823
vn -0.00006300002161109013 0.3086141058648407 -0.9511873262886982
vn 0.7056188839546336 -0.21912596396276607 -0.6738588891778501
vn 0.4934950988455976 0.26885905385166725 0.8271501656757132
vn 0.4932268462784789 -0.8699007288824315 0
vn 0.7073459600784562 0.571955967719664 -0.41536497655742444
vn -0.00006300002320751183 0.30861711368623296 -0.951186350391434
vn -0.7075842346558447 0.5715941895575267 -0.4154571377778657
vn -0.492990051774804 -0.7038800739228971 0.5113840537065789
vn -0.4937461548217842 0.7034632205818311 0.5112281603035389
vn -0.7056130300217183 0.21912900932328214 -0.6738640286708935
vn 0.7056133514329341 0.2188131089805525 -0.6739663356710389
vn 0.49353187326374565 0.2688819309526079 0.8271207875999581
vn 0.707839802052627 0.21870193884001138 -0.6716638121692412
vn -0.7078264864648913 0.21787214973606342 -0.671947461806467
vn -0.49340689681530664 -0.7038938527968056 0.5109628931438742
vn -0.4934981846204196 -0.2688591005816871 0.8271483094407899
vn -0.49364897164529753 0.2686509845689565 0.8271259524907137
vn -0.49361301903840776 0.26868601036308526 0.8271360319022237
vn 0.4936461617804617 -0.26865208804415436 0.8271272710707429
vn 0.49330603917220084 -0.7038700558925637 0.5110930405846222
vn -0.49353495896010213 -0.26888197764112004 0.827118931220928
vn 0.49360316965982987 -0.2686940923547432 0.8271392843018822
vn 0.4937213143299966 -0.703475447870952 0.5112353254803741
vn 0.7077410538530804 0.21816001660012355 -0.6719440511292327
vn -0.7057163142075559 0.21852409729394254 -0.6739523000651971
vn 0.7055289774417697 0.21941499298453485 -0.6738589784543704
vn 0.7073630550335551 0.5718730444922964 -0.4154500323224291
vn -0.707580950606252 0.5716659600940015 -0.41536397100489597
vn -0.7055149915306453 -0.21941999736597262 -0.6738719919105037
vn -0.7079229156775367 0.2184139739841671 -0.6716699199957215
vn 0.00006300002161109013 -0.3086141058648407 -0.9511873262886982
vn 0.7057107964342215 -0.21852493696539843 -0.6739578055935291
vn 0.9999999791920007 0.00020399999575516814 0
vn 0.7069341561172355 0.5722891263826279 -0.4156070917814335
vn -0.7071553582969711 0.5719422897880752 -0.4157082106283874
vn -0.7077420161545656 -0.21815700497954274 -0.6719440153374583
vn -0.9999999789875006 -0.0002049999956924376 0
vn -0.9999999787800006 -0.0002059999956286801 0.000001999999957560001
vn 0.00016499997796384194 -0.8090658919472347 -0.5877179215088075
vn 0.7079237353916077 -0.21841491836066865 -0.6716687489430302
vn 0.9999999791915006 0.00020399999575506614 9.999999791915006e-7
vn 0.706936260567917 0.7072772606936054 0
vn -0.7072337697402812 0.7069797698229779 0
vn -0.9999999795975005 -0.0002019999958786951 9.999999795975006e-7
vn -0.7073641043333836 -0.5718760843494411 -0.41544406127634176
vn -0.9999999791875006 -0.00020399999575425014 -0.000002999999937562502
vn -0.9999999781595007 -0.00020899999543533566 0
vn 0.7075661098439865 -0.5716740887478358 -0.41537806448412645
vn 0.4936449583891873 -0.2686799773521596 0.827118930279667
vn 0.4935018526114989 0.2688879196943492 0.827136752968615
vn 0.49369702055408843 -0.7036910292967691 0.5109620212728823
vn -0.9999999795980006 -0.0002019999958787961 0
vn -0.7069562629124878 -0.5722712128239837 -0.41559415455679344
vn -0.9999999789830007 -0.00020499999569151514 -0.0000029999999369490024
vn -0.4934993077428097 -0.2688871676762078 0.8271385157979493
vn -0.493640872051758 0.2686879303579783 0.8271187856166284
vn -0.49303315509814777 -0.7040662214848348 0.5110861607772543
vn 0.7071588653389322 -0.571938891088261 -0.4157069208388092
vn 0.49360880755455055 -0.2686578952571579 0.8271476775162758
vn 0.4935391080107988 0.26885205883814506 0.8271261810161711
vn 0.49345606071163 0.7036660865745068 0.5112290628983048
vn 0.49328023395843096 -0.7036773337479055 0.511383242544527
vn 0.7069153496337027 0.5722352830222048 0.4157132056078531
vn -0.7071742829015926 0.5719952288238771 0.41560316626000193
vn -0.4928898421362809 -0.8700917213253281 0
vn -0.7069637667741058 -0.707249766679755 0
vn -0.9999999793875007 -0.00020299999581566266 0.000003999999917550003
vn -0.4934531917070956 -0.7036672733754925 0.5112301986134818
vn -0.4935360223117769 -0.268852012154262 0.8271280373928052
vn -0.4935980483888998 0.2686610263376477 0.827153081088302
vn 0.7072377690091101 -0.7069757690946818 0
vn 0.49303873797808356 0.7040626258309453 0.5110857283871394
vn 0.4932541426143442 -0.869885251509524 0
vn 0.7073439685677568 0.5719569745839487 0.41536698154233787
vn -0.7076000167938252 0.5715820135656419 0.41544700986001176
vn -0.49298405966364583 -0.7038820851876864 -0.5113870618908786
vn -0.49367312559761733 0.7037011790318064 0.510971129998481
vn -0.9999999797995006 -0.00020099999593969963 0
vn 0.00016499997796384194 -0.8090658919472347 0.5877179215088075
vn 0.49289609991990757 0.8700881763842931 0
vn 0.7078378532638125 0.21870195466265213 0.6716658607623381
vn -0.7078263322488035 0.21787310226813314 0.6719473154074402
vn -0.4934039325514403 -0.7038959037770847 -0.5109629301511167
vn -0.9999999795975005 -0.0002019999958786951 -9.999999795975006e-7
vn -0.7069378085223859 -0.572220845011144 0.4156948874069765
vn -0.49325800295757505 0.7036880042193133 0.5113900030662945
vn 0.707177033980211 -0.5719890274843594 0.41560701997012567
vn 0.493328931164339 -0.7038599017883233 -0.5110849286867917
vn 0.7056268719079184 0.2188109602793594 0.6739528776576823
vn 0.00006300002161109013 -0.3086141058648407 0.9511873262886982
vn -0.7056188839546336 0.21912596396276607 0.6738588891778501
vn -0.4934950988455976 -0.26885905385166725 -0.8271501656757132
vn -0.4932268462784789 0.8699007288824315 0
vn -0.7073459600784562 -0.571955967719664 0.41536497655742444
vn 0.7075842346558447 -0.5715941895575267 0.4154571377778657
vn 0.492990051774804 0.7038800739228971 -0.5113840537065789
vn 0.4937461548217842 -0.7034632205818311 -0.5112281603035389
vn 0.7056130300217183 -0.21912900932328214 0.6738640286708935
vn -0.7056133514329341 -0.2188131089805525 0.6739663356710389
vn -0.49353187326374565 -0.2688819309526079 -0.8271207875999581
vn -0.707839802052627 -0.21870193884001138 0.6716638121692412
vn 0.7078264864648913 -0.21787214973606342 0.671947461806467
vn 0.49340689681530664 0.7038938527968056 -0.5109628931438742
vn 0.4934981846204196 0.2688591005816871 -0.8271483094407899
vn 0.49364897164529753 -0.2686509845689565 -0.8271259524907137
vn 0.49361301903840776 -0.26868601036308526 -0.8271360319022237
vn -0.4936461617804617 0.26865208804415436 -0.8271272710707429
vn -0.49330603917220084 0.7038700558925637 -0.5110930405846222
vn 0.49353495896010213 0.26888197764112004 -0.827118931220928
vn -0.49360316965982987 0.2686940923547432 -0.8271392843018822
vn -0.4937213143299966 0.703475447870952 -0.5112353254803741
usemtl material_0_0
f 1//1 2//1 3//1
f 1//1 4//1 2//1
f 2//2 5//2 3//2
f 3//3 6//3 1//3
f 7//4 4//4 1//4
f 4//5 8//5 2//5
f 2//6 9//6 5//6
f 5//7 10//7 3//7
f 3//3 11//3 6//3
f 12//8 1//8 6//8
f 13//9 4//9 7//9
f 7//10 1//10 12//10
f 4//11 14//11 8//11
f 8//12 9//12 2//12
f 15//13 5//13 9//13
f 16//14 10//14 5//14
f 3//15 10//15 11//15
f 11//16 17//16 6//16
f 12//17 6//17 18//17
f 14//18 4//18 13//18
f 13//19 7//19 19//19
f 7//20 12//20 20//20
f 14//21 21//21 8//21
f 8//22 22//22 9//22
f 15//23 16//23 5//23
f 23//13 15//13 9//13
f 16//14 24//14 10//14
f 11//24 10//24 25//24
f 11//16 26//16 17//16
f 18//25 6//25 17//25
f 27//26 12//26 18//26
f 28//27 14//27 13//27
f 7//28 20//28 19//28
f 13//29 19//29 29//29
f 20//30 12//30 27//30
f 14//31 30//31 21//31
f 21//32 22//32 8//32
f 22//14 23//14 9//14
f 31//33 16//33 15//33
f 32//34 15//34 23//34
f 16//35 33//35 24//35
f 24//14 25//14 10//14
f 11//24 25//24 26//24
f 26//36 34//36 17//36
f 18//25 17//25 35//25
f 27//37 18//37 36//37
f 30//38 14//38 28//38
f 28//39 13//39 29//39
f 20//40 37//40 19//40
f 19//41 38//41 29//41
f 20//42 27//42 39//42
f 30//43 40//43 21//43
f 21//44 41//44 22//44
f 22//14 42//14 23//14
f 33//45 16//45 31//45
f 31//46 15//46 32//46
f 23//47 43//47 32//47
f 33//48 44//48 24//48
f 45//14 25//14 24//14
f 46//49 26//49 25//49
f 26//36 47//36 34//36
f 34//50 35//50 17//50
f 36//37 18//37 35//37
f 27//51 36//51 48//51
f 30//52 28//52 49//52
f 28//53 29//53 50//53
f 20//54 39//54 37//54
f 19//55 37//55 38//55
f 29//56 38//56 51//56
f 27//51 48//51 39//51
f 30//43 52//43 40//43
f 40//57 41//57 21//57
f 41//13 42//13 22//13
f 23//58 42//58 43//58
f 31//13 44//13 33//13
f 43//13 31//13 32//13
f 24//59 44//59 45//59
f 45//13 46//13 25//13
f 46//60 47//60 26//60
f 34//61 47//61 53//61
f 54//62 35//62 34//62
f 55//53 36//53 35//53
f 48//63 36//63 56//63
f 28//37 50//37 49//37
f 30//52 49//52 52//52
f 29//64 51//64 50//64
f 37//65 39//65 48//65
f 51//37 38//37 37//37
f 52//66 57//66 40//66
f 40//57 58//57 41//57
f 41//14 59//14 42//14
f 42//67 60//67 43//67
f 31//13 61//13 44//13
f 43//13 62//13 31//13
f 44//59 63//59 45//59
f 64//14 46//14 45//14
f 65//68 47//68 46//68
f 53//61 47//61 66//61
f 53//69 54//69 34//69
f 55//39 35//39 54//39
f 36//70 55//70 56//70
f 67//71 48//71 56//71
f 49//37 50//37 68//37
f 52//72 49//72 69//72
f 51//73 70//73 50//73
f 51//37 37//37 48//37
f 52//74 71//74 57//74
f 40//75 57//75 58//75
f 58//14 59//14 41//14
f 42//67 59//67 60//67
f 60//13 62//13 43//13
f 62//13 61//13 31//13
f 61//13 63//13 44//13
f 63//76 64//76 45//76
f 65//14 46//14 64//14
f 66//77 47//77 65//77
f 53//78 66//78 71//78
f 72//79 54//79 53//79
f 73//29 55//29 54//29
f 55//80 67//80 56//80
f 51//37 48//37 67//37
f 50//81 70//81 68//81
f 49//26 68//26 69//26
f 52//82 69//82 71//82
f 70//65 51//65 74//65
f 71//83 66//83 57//83
f 58//84 57//84 75//84
f 58//14 76//14 59//14
f 60//85 59//85 62//85
f 62//13 77//13 61//13
f 63//86 61//86 64//86
f 65//13 64//13 78//13
f 75//87 66//87 65//87
f 71//88 72//88 53//88
f 73//19 54//19 72//19
f 55//89 73//89 67//89
f 74//65 51//65 67//65
f 70//81 74//81 68//81
f 69//30 68//30 79//30
f 71//90 69//90 72//90
f 57//91 66//91 75//91
f 58//14 75//14 76//14
f 59//92 76//92 62//92
f 77//93 62//93 76//93
f 61//94 77//94 78//94
f 61//95 78//95 64//95
f 75//13 65//13 78//13
f 79//28 73//28 72//28
f 73//96 80//96 67//96
f 74//26 67//26 80//26
f 74//97 79//97 68//97
f 69//20 79//20 72//20
f 75//23 78//23 76//23
f 77//98 76//98 78//98
f 73//99 79//99 80//99
f 74//100 80//100 79//100
usemtl material_1_0
f 3//83 2//83 1//83
f 2//83 4//83 1//83
f 3//101 5//101 2//101
f 1//74 6//74 3//74
f 1//102 4//102 7//102
f 2//61 8//61 4//61
f 5//103 9//103 2//103
f 3//104 10//104 5//104
f 6//74 11//74 3//74
f 6//105 1//105 12//105
f 7//106 4//106 13//106
f 12//107 1//107 7//107
f 8//108 14//108 4//108
f 2//109 9//109 8//109
f 9//110 5//110 15//110
f 5//28 10//28 16//28
f 11//111 10//111 3//111
f 6//43 17//43 11//43
f 18//112 6//112 12//112
f 13//113 4//113 14//113
f 19//114 7//114 13//114
f 20//115 12//115 7//115
f 8//116 21//116 14//116
f 9//117 22//117 8//117
f 5//118 16//118 15//118
f 9//110 15//110 23//110
f 10//28 24//28 16//28
f 25//119 10//119 11//119
f 17//43 26//43 11//43
f 17//120 6//120 18//120
f 18//121 12//121 27//121
f 13//122 14//122 28//122
f 19//14 20//14 7//14
f 29//123 19//123 13//123
f 27//124 12//124 20//124
f 21//36 30//36 14//36
f 8//125 22//125 21//125
f 9//28 23//28 22//28
f 15//126 16//126 31//126
f 23//127 15//127 32//127
f 24//128 33//128 16//128
f 10//28 25//28 24//28
f 26//119 25//119 11//119
f 17//31 34//31 26//31
f 35//120 17//120 18//120
f 36//129 18//129 27//129
f 28//130 14//130 30//130
f 29//131 13//131 28//131
f 19//132 37//132 20//132
f 29//133 38//133 19//133
f 39//134 27//134 20//134
f 21//16 40//16 30//16
f 22//135 41//135 21//135
f 23//28 42//28 22//28
f 31//136 16//136 33//136
f 32//137 15//137 31//137
f 32//138 43//138 23//138
f 24//139 44//139 33//139
f 24//28 25//28 45//28
f 25//140 26//140 46//140
f 34//31 47//31 26//31
f 17//141 35//141 34//141
f 35//129 18//129 36//129
f 48//142 36//142 27//142
f 49//143 28//143 30//143
f 50//144 29//144 28//144
f 37//145 39//145 20//145
f 38//146 37//146 19//146
f 51//147 38//147 29//147
f 39//142 48//142 27//142
f 40//16 52//16 30//16
f 21//148 41//148 40//148
f 22//110 42//110 41//110
f 43//149 42//149 23//149
f 33//110 44//110 31//110
f 32//110 31//110 43//110
f 45//150 44//150 24//150
f 25//110 46//110 45//110
f 26//151 47//151 46//151
f 53//5 47//5 34//5
f 34//152 35//152 54//152
f 35//144 36//144 55//144
f 56//153 36//153 48//153
f 49//129 50//129 28//129
f 52//143 49//143 30//143
f 50//154 51//154 29//154
f 48//155 39//155 37//155
f 37//129 38//129 51//129
f 40//156 57//156 52//156
f 41//148 58//148 40//148
f 42//28 59//28 41//28
f 43//157 60//157 42//157
f 44//110 61//110 31//110
f 31//110 62//110 43//110
f 45//150 63//150 44//150
f 45//28 46//28 64//28
f 46//158 47//158 65//158
f 66//5 47//5 53//5
f 34//159 54//159 53//159
f 54//131 35//131 55//131
f 56//160 55//160 36//160
f 56//161 48//161 67//161
f 68//129 50//129 49//129
f 69//162 49//162 52//162
f 50//163 70//163 51//163
f 48//129 37//129 51//129
f 57//3 71//3 52//3
f 58//164 57//164 40//164
f 41//28 59//28 58//28
f 60//157 59//157 42//157
f 43//110 62//110 60//110
f 31//110 61//110 62//110
f 44//110 63//110 61//110
f 45//165 64//165 63//165
f 64//28 46//28 65//28
f 65//166 47//166 66//166
f 71//167 66//167 53//167
f 53//168 54//168 72//168
f 54//123 55//123 73//123
f 56//169 67//169 55//169
f 67//129 48//129 51//129
f 68//170 70//170 50//170
f 69//121 68//121 49//121
f 71//171 69//171 52//171
f 74//155 51//155 70//155
f 57//1 66//1 71//1
f 75//172 57//172 58//172
f 59//28 76//28 58//28
f 62//173 59//173 60//173
f 61//110 77//110 62//110
f 64//174 61//174 63//174
f 78//110 64//110 65//110
f 65//175 66//175 75//175
f 53//176 72//176 71//176
f 72//114 54//114 73//114
f 67//177 73//177 55//177
f 67//155 51//155 74//155
f 68//170 74//170 70//170
f 79//124 68//124 69//124
f 72//178 69//178 71//178
f 75//179 66//179 57//179
f 76//28 75//28 58//28
f 62//180 76//180 59//180
f 76//181 62//181 77//181
f 78//182 77//182 61//182
f 64//183 78//183 61//183
f 78//110 65//110 75//110
f 72//14 73//14 79//14
f 67//184 80//184 73//184
f 80//121 67//121 74//121
f 68//185 79//185 74//185
f 72//115 79//115 69//115
f 76//118 78//118 75//118
f 78//186 76//186 77//186
f 80//187 79//187 73//187
f 79//188 80//188 74//188
