# SSTK version 0.8.0
# 5
mtllib original-5.mtl
o Box03-FACE1/Box03-FACE/mesh5/mesh5-geometry#mesh5-geometry
v -0.009294 -0.433200 -0.273342
v -0.009298 -0.424534 -0.277383
v -0.039693 -0.425798 -0.257156
v -0.009296 -0.432934 -0.297710
v -0.039696 -0.417135 -0.261196
v -0.039691 -0.430710 -0.254866
v -0.009294 -0.439598 -0.296129
v -0.009298 -0.426677 -0.295210
v -0.009299 -0.419625 -0.279672
v -0.039699 -0.406214 -0.241408
v -0.039694 -0.417337 -0.235868
v -0.009292 -0.438109 -0.271053
v -0.009292 -0.443851 -0.292134
v -0.012939 -0.432935 -0.297710
v -0.012941 -0.426679 -0.295210
v -0.039698 -0.412223 -0.263486
v -0.039697 -0.410536 -0.237414
v -0.039700 -0.404530 -0.248040
v -0.039692 -0.423887 -0.238786
v -0.012935 -0.438110 -0.271052
v -0.012936 -0.439599 -0.296129
v -0.012942 -0.419626 -0.279672
v -0.043341 -0.412224 -0.263486
v -0.043340 -0.410537 -0.237414
v -0.043342 -0.406213 -0.241662
v -0.043336 -0.423888 -0.238786
v -0.043334 -0.430711 -0.254865
v -0.043338 -0.417338 -0.235868
v -0.009291 -0.445364 -0.286592
v -0.012934 -0.445365 -0.286591
v -0.012935 -0.443852 -0.292134
v -0.012937 -0.433202 -0.273341
v -0.012940 -0.424535 -0.277383
v -0.043343 -0.404531 -0.248040
v -0.043336 -0.425799 -0.257156
v -0.043340 -0.417136 -0.261196
vn 0.5052422303116917 0.3648621663202673 0.7820523564939557
vn 0.9999999389715056 0.0003409999791892834 -0.00007599999536183443
vn 0.5052427642590863 0.36486082975980766 0.7820526351025373
vn 0.5052420195291202 0.36486101410297306 0.7820530302286964
vn 0.9999999386300055 0.0003419999790114619 -0.00007599999533588042
vn 0.9999999390470056 0.00034099997921502887 -0.0000749999954285254
vn 0.000008000002868157542 -0.2308710827718 -0.9729843488339247
vn -0.00019500005003594676 0.37106909521430115 -0.9286052382750275
vn 0.00034299995400748225 -0.9092478780798694 0.41625494418479453
vn 0.00018099998371959517 -0.6846979384134773 -0.7288269344442065
vn -0.00034200009204625914 0.9106052450812392 -0.41327711122982996
vn -0.00034299995044371367 0.9106048684367286 -0.41327794029002074
vn -0.00034299991383603145 0.9091567716134835 -0.4164538953838794
vn -0.00017300006005058026 0.6785932355485746 0.7345142549594909
vn -0.01704100506260218 0.9691062879055307 0.24605407309861604
vn 0.00020800000239200005 -0.40690600467941906 0.9134700105049052
vn 0.0003370001084907993 -0.9205552963553347 0.39061212575017246
vn -0.0000019999999368260033 0.22169099299744674 0.9751169691989809
vn 0.00033599982680389387 -0.9092525313122647 0.4162447854404369
vn 0.0003429999625548676 -0.9061189010794579 0.42302295381879806
vn 0.00017600000762493646 -0.6847010296636457 -0.7288240315752086
vn -0.9999999389715056 -0.0003409999791892834 0.00007599999536183443
vn -0.9999999390470056 -0.00034099997921502887 0.0000749999954285254
vn -0.00033999985903999773 0.8951306288892122 -0.44580381517490325
vn -0.0003370000108616791 0.8951310288505212 -0.4458030143684543
vn -0.04962001234702364 0.699911174159969 0.7125041772935052
vn 0.0000010000004117947544 0.2216890912903673 0.9751174015480655
vn -0.0003079999324382202 0.9669317878972505 0.25503494405643345
vn 0.00034500006205499416 -0.9205561655799921 0.3906100702588443
vn 0.00033599998430124107 -0.9061179576639048 0.4230249802352158
vn 0.0003030001171207789 -0.9647013728928467 -0.26334610179303186
vn -0.5052327882698663 -0.3648638470948977 -0.7820576722596407
vn -0.9999999386300055 -0.0003419999790114619 0.00007599999533588042
vn 0.00030199990501606183 -0.9647016965854465 -0.26334491717369135
vn -0.505232972610816 -0.36486298022041347 -0.7820579576038572
vn -0.5052329990494041 -0.3648649993135064 -0.7820569985285596
vn -0.5052422303116917 -0.3648621663202673 -0.7820523564939557
vn -0.5052427642590863 -0.36486082975980766 -0.7820526351025373
vn -0.5052420195291202 -0.36486101410297306 -0.7820530302286964
vn -0.000008000002868157542 0.2308710827718 0.9729843488339247
vn 0.00019500005003594676 -0.37106909521430115 0.9286052382750275
vn -0.00034299995400748225 0.9092478780798694 -0.41625494418479453
vn -0.00018099998371959517 0.6846979384134773 0.7288269344442065
vn 0.00034200009204625914 -0.9106052450812392 0.41327711122982996
vn 0.00034299995044371367 -0.9106048684367286 0.41327794029002074
vn 0.00034299991383603145 -0.9091567716134835 0.4164538953838794
vn 0.00017300006005058026 -0.6785932355485746 -0.7345142549594909
vn 0.01704100506260218 -0.9691062879055307 -0.24605407309861604
vn -0.00020800000239200005 0.40690600467941906 -0.9134700105049052
vn -0.0003370001084907993 0.9205552963553347 -0.39061212575017246
vn 0.0000019999999368260033 -0.22169099299744674 -0.9751169691989809
vn -0.00033599982680389387 0.9092525313122647 -0.4162447854404369
vn -0.0003429999625548676 0.9061189010794579 -0.42302295381879806
vn -0.00017600000762493646 0.6847010296636457 0.7288240315752086
vn 0.00033999985903999773 -0.8951306288892122 0.44580381517490325
vn 0.0003370000108616791 -0.8951310288505212 0.4458030143684543
vn 0.04962001234702364 -0.699911174159969 -0.7125041772935052
vn -0.0000010000004117947544 -0.2216890912903673 -0.9751174015480655
vn 0.0003079999324382202 -0.9669317878972505 -0.25503494405643345
vn -0.00034500006205499416 0.9205561655799921 -0.3906100702588443
vn -0.00033599998430124107 0.9061179576639048 -0.4230249802352158
vn -0.0003030001171207789 0.9647013728928467 0.26334610179303186
vn 0.5052327882698663 0.3648638470948977 0.7820576722596407
vn -0.00030199990501606183 0.9647016965854465 0.26334491717369135
vn 0.505232972610816 0.36486298022041347 0.7820579576038572
vn 0.5052329990494041 0.3648649993135064 0.7820569985285596
usemtl material_0_0
f 1//1 2//1 3//1
f 2//2 1//2 4//2
f 2//3 5//3 3//3
f 1//4 3//4 6//4
f 4//2 1//2 7//2
f 2//2 4//2 8//2
f 2//3 9//3 5//3
f 10//5 3//5 5//5
f 11//6 6//6 3//6
f 12//4 1//4 6//4
f 1//2 13//2 7//2
f 7//7 14//7 4//7
f 4//8 15//8 8//8
f 9//2 2//2 8//2
f 9//1 16//1 5//1
f 10//5 17//5 3//5
f 18//2 10//2 5//2
f 11//5 19//5 6//5
f 17//5 11//5 3//5
f 1//2 12//2 13//2
f 6//9 20//9 12//9
f 13//10 21//10 7//10
f 7//7 21//7 14//7
f 4//8 14//8 15//8
f 22//11 8//11 15//11
f 22//12 9//12 8//12
f 23//13 16//13 9//13
f 18//6 5//6 16//6
f 17//14 10//14 24//14
f 10//15 18//15 25//15
f 19//16 11//16 26//16
f 19//17 27//17 6//17
f 11//18 17//18 28//18
f 12//5 29//5 13//5
f 27//19 20//19 6//19
f 20//20 30//20 12//20
f 13//21 31//21 21//21
f 14//22 21//22 32//22
f 33//23 15//23 14//23
f 22//23 15//23 33//23
f 23//13 9//13 22//13
f 34//24 16//24 23//24
f 34//25 18//25 16//25
f 10//26 25//26 24//26
f 17//27 24//27 28//27
f 25//28 18//28 34//28
f 11//16 28//16 26//16
f 26//29 27//29 19//29
f 12//30 30//30 29//30
f 29//31 31//31 13//31
f 20//32 27//32 35//32
f 20//23 31//23 30//23
f 32//22 21//22 31//22
f 33//22 14//22 32//22
f 33//32 23//32 22//32
f 34//22 23//22 36//22
f 25//23 35//23 24//23
f 24//23 35//23 28//23
f 34//23 36//23 25//23
f 28//33 27//33 26//33
f 30//34 31//34 29//34
f 28//33 35//33 27//33
f 20//35 35//35 32//35
f 32//33 31//33 20//33
f 32//32 36//32 33//32
f 33//36 36//36 23//36
f 25//22 36//22 35//22
f 32//35 35//35 36//35
usemtl material_1_0
f 3//37 2//37 1//37
f 4//22 1//22 2//22
f 3//38 5//38 2//38
f 6//39 3//39 1//39
f 7//22 1//22 4//22
f 8//22 4//22 2//22
f 5//38 9//38 2//38
f 5//33 3//33 10//33
f 3//23 6//23 11//23
f 6//39 1//39 12//39
f 7//22 13//22 1//22
f 4//40 14//40 7//40
f 8//41 15//41 4//41
f 8//22 2//22 9//22
f 5//37 16//37 9//37
f 3//33 17//33 10//33
f 5//22 10//22 18//22
f 6//33 19//33 11//33
f 3//33 11//33 17//33
f 13//22 12//22 1//22
f 12//42 20//42 6//42
f 7//43 21//43 13//43
f 14//40 21//40 7//40
f 15//41 14//41 4//41
f 15//44 8//44 22//44
f 8//45 9//45 22//45
f 9//46 16//46 23//46
f 16//23 5//23 18//23
f 24//47 10//47 17//47
f 25//48 18//48 10//48
f 26//49 11//49 19//49
f 6//50 27//50 19//50
f 28//51 17//51 11//51
f 13//33 29//33 12//33
f 6//52 20//52 27//52
f 12//53 30//53 20//53
f 21//54 31//54 13//54
f 32//2 21//2 14//2
f 14//6 15//6 33//6
f 33//6 15//6 22//6
f 22//46 9//46 23//46
f 23//55 16//55 34//55
f 16//56 18//56 34//56
f 24//57 25//57 10//57
f 28//58 24//58 17//58
f 34//59 18//59 25//59
f 26//49 28//49 11//49
f 19//60 27//60 26//60
f 29//61 30//61 12//61
f 13//62 31//62 29//62
f 35//63 27//63 20//63
f 30//6 31//6 20//6
f 31//2 21//2 32//2
f 32//2 14//2 33//2
f 22//63 23//63 33//63
f 36//2 23//2 34//2
f 24//6 35//6 25//6
f 28//6 35//6 24//6
f 25//6 36//6 34//6
f 26//5 27//5 28//5
f 29//64 31//64 30//64
f 27//5 35//5 28//5
f 32//65 35//65 20//65
f 20//5 31//5 32//5
f 33//63 36//63 32//63
f 23//66 36//66 33//66
f 35//2 36//2 25//2
f 36//65 35//65 32//65
