# SSTK version 0.8.0
# 15
mtllib original-15.mtl
o Cylinder28_1/Cylinder28/mesh15/mesh15-geometry#mesh15-geometry
v 0.014464 -0.440493 -0.277980
v -0.015398 -0.434296 -0.275967
v -0.015397 -0.440500 -0.277980
v 0.014462 -0.434290 -0.275967
v -0.016132 -0.439974 -0.278706
v 0.014464 -0.444329 -0.283260
v 0.015197 -0.434290 -0.276858
v -0.015399 -0.428092 -0.277980
v -0.016133 -0.434296 -0.276858
v -0.016131 -0.443484 -0.283536
v -0.015396 -0.444335 -0.283260
v 0.015198 -0.439968 -0.278706
v 0.015196 -0.428611 -0.278706
v 0.014461 -0.428086 -0.277980
v -0.016133 -0.434296 -0.281230
v -0.016132 -0.437407 -0.282241
v 0.014464 -0.444329 -0.289784
v 0.015199 -0.443478 -0.283536
v 0.015197 -0.434290 -0.281230
v 0.015198 -0.437400 -0.282241
v -0.015400 -0.424256 -0.283260
v -0.016134 -0.428618 -0.278706
v -0.016133 -0.431185 -0.282241
v -0.016132 -0.439328 -0.284887
v -0.016131 -0.443484 -0.289508
v -0.015396 -0.444335 -0.289784
v 0.015198 -0.439322 -0.284887
v 0.015195 -0.425101 -0.283536
v 0.015196 -0.431179 -0.282241
v 0.014460 -0.424250 -0.283260
v -0.014534 -0.434296 -0.282335
v -0.014534 -0.431835 -0.283135
v -0.014533 -0.436757 -0.283135
v 0.014464 -0.440493 -0.295064
v 0.015199 -0.443478 -0.289508
v 0.015198 -0.439322 -0.288158
v 0.013599 -0.436751 -0.283135
v 0.013598 -0.434290 -0.282335
v 0.013599 -0.438272 -0.285228
v -0.015400 -0.424256 -0.289784
v -0.016135 -0.425108 -0.283536
v -0.016134 -0.429264 -0.284887
v -0.014535 -0.430313 -0.285228
v -0.014533 -0.438278 -0.285228
v -0.016132 -0.439328 -0.288158
v -0.016132 -0.439974 -0.294338
v -0.015397 -0.440500 -0.295064
v 0.013599 -0.438272 -0.287816
v 0.015195 -0.425101 -0.289508
v 0.015196 -0.429257 -0.284887
v 0.013598 -0.431829 -0.283135
v 0.014460 -0.424250 -0.289784
v 0.014462 -0.434290 -0.297077
v 0.015198 -0.439968 -0.294338
v 0.015198 -0.437400 -0.290804
v 0.013599 -0.436751 -0.289910
v -0.015399 -0.428092 -0.295064
v -0.016135 -0.425108 -0.289508
v -0.016134 -0.429264 -0.288158
v -0.014535 -0.430313 -0.287816
v -0.014533 -0.436757 -0.289910
v -0.014534 -0.431835 -0.289910
v -0.014533 -0.438278 -0.287816
v -0.016132 -0.437407 -0.290804
v -0.016133 -0.434296 -0.296186
v -0.015398 -0.434296 -0.297077
v 0.013598 -0.434290 -0.290709
v 0.015196 -0.429257 -0.288158
v 0.015196 -0.428611 -0.294338
v 0.013597 -0.430308 -0.285228
v 0.014461 -0.428086 -0.295064
v 0.015197 -0.434290 -0.296186
v 0.015197 -0.434290 -0.291815
v 0.013597 -0.430308 -0.287816
v -0.016134 -0.428618 -0.294338
v -0.016133 -0.431185 -0.290804
v -0.014534 -0.434296 -0.290709
v -0.016133 -0.434296 -0.291815
v 0.015196 -0.431179 -0.290804
v 0.013598 -0.431829 -0.289910
vn 0.00006300002320751183 -0.30861711368623296 0.951186350391434
vn -0.7576281131726019 -0.20157003011002944 0.6207810927307347
vn 0.00016499996536799592 -0.809068830183752 0.5877138766441596
vn 0.7557767143020961 -0.20195292365797216 0.6229097645283181
vn -0.00006300002320751183 0.30861711368623296 0.951186350391434
vn -0.7556048630069618 -0.20282196322787438 0.6228358870783068
vn -0.7572822261381377 -0.5283861577856414 0.38383811462098727
vn 0.7574798197425487 -0.5281538743152374 0.3837679086747616
vn 0.7556047097533966 0.20282292209066002 0.6228357607532593
vn 0.7577973914244298 -0.2017581042139387 0.6205133205132076
vn -0.00006299998432163686 0.30861892319617845 0.9511857632850867
vn -0.7557767143020961 0.20195292365797216 0.6229097645283181
vn -0.9999999791920007 -0.00020399999575516814 0
vn -0.9999999793950006 -0.00020299999581718515 -9.999999793950007e-7
vn -0.7569135614788491 -0.5287916936422415 0.38400677752400986
vn 0.00020399999575516814 -0.9999999791920007 0
vn 0.7570999939727269 -0.5284489957930175 0.38411099694209233
vn 0.7576260150960773 0.20157200401642303 0.620783012369412
vn 0.9999999791920007 0.00020399999575516814 0
vn 0.9999999791915006 0.00020399999575506614 -9.999999791915006e-7
vn -0.00016399996560486482 0.8090688303168437 0.5877138767408385
vn -0.7577991833548391 0.2017580488167781 0.6205111501370345
vn -0.9999999791915006 -0.00020399999575506614 -9.999999791915006e-7
vn -0.7569202704291164 -0.6535072334821652 0
vn 0.7571722749258956 -0.6532152371795562 0
vn 0.7572749860952955 0.5283929902979122 0.3838429929520669
vn 0.9999999793955006 0.00020299999581728663 0
vn 0.9999999791915006 0.00020399999575506614 9.999999791915006e-7
vn 0.9999999789875006 0.0002049999956924376 0
vn -0.00016500007493727606 0.8090663674497102 0.5877172669206733
vn -0.7574809367279988 0.5281529558836495 0.3837669679441384
vn -0.9999999793950006 -0.00020299999581718515 9.999999793950007e-7
vn -0.5495061118300002 0.25811205252838915 -0.7946201617131655
vn -0.5493633225988732 -0.2583441517056724 -0.7946434666330575
vn -0.5495449481441168 0.6760329362085212 -0.49089695367822933
vn 0.00016499996536799592 -0.809068830183752 -0.5877138766441596
vn 0.7569133535732329 0.5287902470112018 0.38400917938032986
vn 0.5493628860508873 0.258343946414175 -0.7946438351745955
vn 0.5495059699956012 -0.25811298590638604 -0.794619956611765
vn 0.5488930427966433 0.676457052742682 -0.4910420382860582
vn -0.00020399999575516814 0.9999999791920007 0
vn -0.7571003940613938 0.5284482750507932 0.3841111999251302
vn -0.9999999793955006 -0.00020299999581728663 0
vn -0.5494648921232936 0.2580899493290762 -0.7946558439848361
vn -0.5494060059388043 -0.2583040027921371 -0.7946270085895207
vn -0.5493159078519895 -0.676041886593645 -0.4911409176108723
vn -0.5491307901274689 0.6760637416149099 -0.4913178122230355
vn -0.7568957585434796 -0.528748831324391 -0.3841008774683828
vn 0.7571159319742723 -0.5284959525154336 -0.384014965496833
vn 0.548746759064557 0.8359886329467314 0
vn 0.7569202704291164 0.6535072334821652 0
vn 0.5493171139355224 0.6760371402189057 -0.491146101870097
vn 0.5494060059388043 0.2583040027921371 -0.7946270085895207
vn 0.5494647503117355 -0.25809088271810965 -0.794655638891872
vn -0.7571722749258956 0.6532152371795562 0
vn -0.5489019963143975 -0.6764519954579631 -0.4910389967029187
vn -0.9999999791915006 -0.00020399999575506614 9.999999791915006e-7
vn -0.5490998426694648 0.8357567605352464 0
vn -0.757265915581515 -0.528461941088123 -0.383765957218541
vn 0.00006300000216836561 -0.3086150106220659 -0.9511870327384315
vn 0.75749621920959 -0.5280771528186851 -0.3838411110786436
vn 0.548843201290202 0.6762882480311275 0.49133018019709634
vn 0.5495438431728491 -0.6760368070746716 -0.4908928599104883
vn 0.9999999795980006 0.0002019999958787961 0
vn -0.00016499996536799592 0.809068830183752 -0.5877138766441596
vn -0.5487576578804374 -0.8359814788125255 0
vn -0.7577162473352933 -0.20206606595882018 -0.6205122025488672
vn 0.757707932548464 -0.20126098208364754 -0.6207839447375053
vn 0.5492709828311625 0.6762569788618978 0.4908949846558503
vn 0.9999999797950007 0.00020099999593879513 -0.0000029999999393850023
vn 0.7568961587510384 0.528748110899376 -0.38410108056117703
vn 0.5491219398184352 -0.6760679259056637 -0.4913219461530829
vn 0.9999999795975005 0.0002019999958786951 9.999999795975006e-7
vn -0.00016399994182316293 0.8090667129941522 -0.5877167915151454
vn -0.7571159319742723 0.5284959525154336 -0.384014965496833
vn -0.5491788435249658 0.6762288073251964 0.49103686009109715
vn -0.7556919576687826 -0.20225998867010364 -0.6229129651065969
vn -0.00006300002320751183 0.30861711368623296 -0.951186350391434
vn 0.7556849397938276 -0.20251398386550903 -0.6228389503778
vn 0.549363912788211 0.25831395899253307 0.7946528738484689
vn 0.5490889468435254 -0.8357639190909526 0
vn 0.7572588944763591 0.5284669263584032 -0.3837729465214355
vn -0.00006300000216836561 0.3086150106220659 -0.9511870327384315
vn -0.7574981623966397 0.5280751132116592 -0.3838400822897568
vn -0.5488529870967409 -0.6762869841008313 0.4913209884492894
vn -0.5495959513494937 0.6758149401765263 0.4911399565240474
vn -0.7556847867567406 0.2025149428532276 -0.6228388242439397
vn 0.7556918048222129 0.2022609477606559 -0.6229128391159614
vn 0.5494008769347668 0.25833394213346184 0.7946208220057505
vn 0.7577147280145586 0.20206692746707908 -0.6205137772635171
vn -0.7577098775450012 0.20125996747397676 -0.6207818996742037
vn -0.5492709828311625 -0.6762569788618978 0.4908949846558503
vn -0.5493642074330967 -0.2583150975365703 0.794652300050832
vn -0.5495110950967497 0.2580830446630813 0.7946261375156274
vn -0.5494743318922125 0.25811715590732626 0.794640479976901
vn 0.5495110950967497 -0.2580830446630813 0.7946261375156274
vn 0.9999999797950007 0.00020099999593879513 0.0000029999999393850023
vn 0.5491709263471224 -0.6762359093056127 0.4910359341439835
vn -0.5494011715708705 -0.2583350806746999 0.7946202481496122
vn 0.5494741900631552 -0.2581180892830625 0.7946402748661185
vn 0.5495959513494937 -0.6758149401765263 0.4911399565240474
vn 0.7576281131726019 0.20157003011002944 -0.6207810927307347
vn -0.7557767143020961 0.20195292365797216 -0.6229097645283181
vn 0.00006300002320751183 -0.30861711368623296 -0.951186350391434
vn 0.7556048630069618 0.20282196322787438 -0.6228358870783068
vn 0.7572822261381377 0.5283861577856414 -0.38383811462098727
vn -0.7574798197425487 0.5281538743152374 -0.3837679086747616
vn -0.7556047097533966 -0.20282292209066002 -0.6228357607532593
vn -0.7577973914244298 0.2017581042139387 -0.6205133205132076
vn 0.00006299998432163686 -0.30861892319617845 -0.9511857632850867
vn 0.7557767143020961 -0.20195292365797216 -0.6229097645283181
vn 0.9999999793950006 0.00020299999581718515 9.999999793950007e-7
vn 0.7569135614788491 0.5287916936422415 -0.38400677752400986
vn -0.7570999939727269 0.5284489957930175 -0.38411099694209233
vn -0.7576260150960773 -0.20157200401642303 -0.620783012369412
vn 0.00016399996560486482 -0.8090688303168437 -0.5877138767408385
vn 0.7577991833548391 -0.2017580488167781 -0.6205111501370345
vn -0.7572749860952955 -0.5283929902979122 -0.3838429929520669
vn -0.9999999789875006 -0.0002049999956924376 0
vn 0.00016500007493727606 -0.8090663674497102 -0.5877172669206733
vn 0.7574809367279988 -0.5281529558836495 -0.3837669679441384
vn 0.9999999793950006 0.00020299999581718515 -9.999999793950007e-7
vn 0.5495061118300002 -0.25811205252838915 0.7946201617131655
vn 0.5493633225988732 0.2583441517056724 0.7946434666330575
vn 0.5495449481441168 -0.6760329362085212 0.49089695367822933
vn -0.00016499996536799592 0.809068830183752 0.5877138766441596
vn -0.7569133535732329 -0.5287902470112018 -0.38400917938032986
vn -0.5493628860508873 -0.258343946414175 0.7946438351745955
vn -0.5495059699956012 0.25811298590638604 0.794619956611765
vn -0.5488930427966433 -0.676457052742682 0.4910420382860582
vn 0.7571003940613938 -0.5284482750507932 -0.3841111999251302
vn 0.5494648921232936 -0.2580899493290762 0.7946558439848361
vn 0.5494060059388043 0.2583040027921371 0.7946270085895207
vn 0.5493159078519895 0.676041886593645 0.4911409176108723
vn 0.5491307901274689 -0.6760637416149099 0.4913178122230355
vn 0.7568957585434796 0.528748831324391 0.3841008774683828
vn -0.7571159319742723 0.5284959525154336 0.384014965496833
vn -0.548746759064557 -0.8359886329467314 0
vn -0.5493171139355224 -0.6760371402189057 0.491146101870097
vn -0.5494060059388043 -0.2583040027921371 0.7946270085895207
vn -0.5494647503117355 0.25809088271810965 0.794655638891872
vn 0.5489019963143975 0.6764519954579631 0.4910389967029187
vn 0.5490998426694648 -0.8357567605352464 0
vn 0.757265915581515 0.528461941088123 0.383765957218541
vn -0.00006300000216836561 0.3086150106220659 0.9511870327384315
vn -0.75749621920959 0.5280771528186851 0.3838411110786436
vn -0.548843201290202 -0.6762882480311275 -0.49133018019709634
vn -0.5495438431728491 0.6760368070746716 0.4908928599104883
vn -0.9999999795980006 -0.0002019999958787961 0
vn 0.5487576578804374 0.8359814788125255 0
vn 0.7577162473352933 0.20206606595882018 0.6205122025488672
vn -0.757707932548464 0.20126098208364754 0.6207839447375053
vn -0.5492709828311625 -0.6762569788618978 -0.4908949846558503
vn -0.9999999797950007 -0.00020099999593879513 0.0000029999999393850023
vn -0.7568961587510384 -0.528748110899376 0.38410108056117703
vn -0.5491219398184352 0.6760679259056637 0.4913219461530829
vn -0.9999999795975005 -0.0002019999958786951 -9.999999795975006e-7
vn 0.00016399994182316293 -0.8090667129941522 0.5877167915151454
vn 0.7571159319742723 -0.5284959525154336 0.384014965496833
vn 0.5491788435249658 -0.6762288073251964 -0.49103686009109715
vn 0.7556919576687826 0.20225998867010364 0.6229129651065969
vn -0.7556849397938276 0.20251398386550903 0.6228389503778
vn -0.549363912788211 -0.25831395899253307 -0.7946528738484689
vn -0.5490889468435254 0.8357639190909526 0
vn -0.7572588944763591 -0.5284669263584032 0.3837729465214355
vn 0.00006300000216836561 -0.3086150106220659 0.9511870327384315
vn 0.7574981623966397 -0.5280751132116592 0.3838400822897568
vn 0.5488529870967409 0.6762869841008313 -0.4913209884492894
vn 0.5495959513494937 -0.6758149401765263 -0.4911399565240474
vn 0.7556847867567406 -0.2025149428532276 0.6228388242439397
vn -0.7556918048222129 -0.2022609477606559 0.6229128391159614
vn -0.5494008769347668 -0.25833394213346184 -0.7946208220057505
vn -0.7577147280145586 -0.20206692746707908 0.6205137772635171
vn 0.7577098775450012 -0.20125996747397676 0.6207818996742037
vn 0.5492709828311625 0.6762569788618978 -0.4908949846558503
vn 0.5493642074330967 0.2583150975365703 -0.794652300050832
vn 0.5495110950967497 -0.2580830446630813 -0.7946261375156274
vn 0.5494743318922125 -0.25811715590732626 -0.794640479976901
vn -0.5495110950967497 0.2580830446630813 -0.7946261375156274
vn -0.9999999797950007 -0.00020099999593879513 -0.0000029999999393850023
vn -0.5491709263471224 0.6762359093056127 -0.4910359341439835
vn 0.5494011715708705 0.2583350806746999 -0.7946202481496122
vn -0.5494741900631552 0.2581180892830625 -0.7946402748661185
vn -0.5495959513494937 0.6758149401765263 -0.4911399565240474
usemtl material_0_0
f 1//1 2//1 3//1
f 1//1 4//1 2//1
f 2//2 5//2 3//2
f 3//3 6//3 1//3
f 7//4 4//4 1//4
f 4//5 8//5 2//5
f 2//6 9//6 5//6
f 5//7 10//7 3//7
f 3//3 11//3 6//3
f 12//8 1//8 6//8
f 13//9 4//9 7//9
f 7//10 1//10 12//10
f 4//11 14//11 8//11
f 8//12 9//12 2//12
f 15//13 5//13 9//13
f 16//14 10//14 5//14
f 3//15 10//15 11//15
f 11//16 17//16 6//16
f 12//17 6//17 18//17
f 14//18 4//18 13//18
f 13//19 7//19 19//19
f 7//20 12//20 20//20
f 14//21 21//21 8//21
f 8//22 22//22 9//22
f 15//23 16//23 5//23
f 23//13 15//13 9//13
f 16//13 24//13 10//13
f 25//24 11//24 10//24
f 11//16 26//16 17//16
f 18//25 6//25 17//25
f 27//19 12//19 18//19
f 28//26 14//26 13//26
f 7//27 20//27 19//27
f 13//28 19//28 29//28
f 20//29 12//29 27//29
f 14//30 30//30 21//30
f 21//31 22//31 8//31
f 22//32 23//32 9//32
f 31//33 16//33 15//33
f 32//34 15//34 23//34
f 16//35 33//35 24//35
f 24//13 25//13 10//13
f 25//24 26//24 11//24
f 26//36 34//36 17//36
f 18//25 17//25 35//25
f 27//19 18//19 36//19
f 30//37 14//37 28//37
f 28//28 13//28 29//28
f 20//38 37//38 19//38
f 19//39 38//39 29//39
f 20//40 27//40 39//40
f 30//41 40//41 21//41
f 21//42 41//42 22//42
f 22//43 42//43 23//43
f 33//44 16//44 31//44
f 31//45 15//45 32//45
f 23//46 43//46 32//46
f 33//47 44//47 24//47
f 45//13 25//13 24//13
f 46//48 26//48 25//48
f 26//36 47//36 34//36
f 34//49 35//49 17//49
f 36//19 18//19 35//19
f 27//50 36//50 48//50
f 30//51 28//51 49//51
f 28//20 29//20 50//20
f 20//52 39//52 37//52
f 19//53 37//53 38//53
f 29//54 38//54 51//54
f 27//50 48//50 39//50
f 30//41 52//41 40//41
f 40//55 41//55 21//55
f 41//13 42//13 22//13
f 23//56 42//56 43//56
f 31//57 44//57 33//57
f 43//23 31//23 32//23
f 24//58 44//58 45//58
f 45//13 46//13 25//13
f 46//59 47//59 26//59
f 34//60 47//60 53//60
f 54//61 35//61 34//61
f 55//20 36//20 35//20
f 48//62 36//62 56//62
f 28//19 50//19 49//19
f 30//51 49//51 52//51
f 29//63 51//63 50//63
f 37//29 39//29 48//29
f 51//64 38//64 37//64
f 52//65 57//65 40//65
f 40//55 58//55 41//55
f 41//13 59//13 42//13
f 42//66 60//66 43//66
f 31//43 61//43 44//43
f 43//43 62//43 31//43
f 44//58 63//58 45//58
f 64//43 46//43 45//43
f 65//67 47//67 46//67
f 53//60 47//60 66//60
f 53//68 54//68 34//68
f 55//28 35//28 54//28
f 36//69 55//69 56//69
f 67//70 48//70 56//70
f 49//19 50//19 68//19
f 52//71 49//71 69//71
f 51//72 70//72 50//72
f 51//73 37//73 48//73
f 52//74 71//74 57//74
f 40//75 57//75 58//75
f 58//13 59//13 41//13
f 42//66 59//66 60//66
f 60//43 62//43 43//43
f 62//13 61//13 31//13
f 61//43 63//43 44//43
f 63//76 64//76 45//76
f 65//32 46//32 64//32
f 66//77 47//77 65//77
f 53//78 66//78 71//78
f 72//79 54//79 53//79
f 73//28 55//28 54//28
f 55//80 67//80 56//80
f 51//27 48//27 67//27
f 50//81 70//81 68//81
f 49//19 68//19 69//19
f 52//82 69//82 71//82
f 70//29 51//29 74//29
f 71//83 66//83 57//83
f 58//84 57//84 75//84
f 58//13 76//13 59//13
f 60//85 59//85 62//85
f 62//13 77//13 61//13
f 63//86 61//86 64//86
f 65//13 64//13 78//13
f 75//87 66//87 65//87
f 71//88 72//88 53//88
f 73//19 54//19 72//19
f 55//89 73//89 67//89
f 74//19 51//19 67//19
f 70//81 74//81 68//81
f 69//29 68//29 79//29
f 71//90 69//90 72//90
f 57//91 66//91 75//91
f 58//14 75//14 76//14
f 59//92 76//92 62//92
f 77//93 62//93 76//93
f 61//94 77//94 78//94
f 61//95 78//95 64//95
f 75//13 65//13 78//13
f 79//27 73//27 72//27
f 73//96 80//96 67//96
f 74//97 67//97 80//97
f 74//98 79//98 68//98
f 69//20 79//20 72//20
f 75//23 78//23 76//23
f 77//99 76//99 78//99
f 73//100 79//100 80//100
f 74//101 80//101 79//101
usemtl material_1_0
f 3//78 2//78 1//78
f 2//78 4//78 1//78
f 3//102 5//102 2//102
f 1//65 6//65 3//65
f 1//103 4//103 7//103
f 2//104 8//104 4//104
f 5//105 9//105 2//105
f 3//106 10//106 5//106
f 6//65 11//65 3//65
f 6//107 1//107 12//107
f 7//108 4//108 13//108
f 12//109 1//109 7//109
f 8//110 14//110 4//110
f 2//111 9//111 8//111
f 9//19 5//19 15//19
f 5//112 10//112 16//112
f 11//113 10//113 3//113
f 6//41 17//41 11//41
f 18//114 6//114 12//114
f 13//115 4//115 14//115
f 19//13 7//13 13//13
f 20//57 12//57 7//57
f 8//116 21//116 14//116
f 9//117 22//117 8//117
f 5//28 16//28 15//28
f 9//19 15//19 23//19
f 10//19 24//19 16//19
f 10//51 11//51 25//51
f 17//41 26//41 11//41
f 17//55 6//55 18//55
f 18//13 12//13 27//13
f 13//118 14//118 28//118
f 19//43 20//43 7//43
f 29//23 19//23 13//23
f 27//119 12//119 20//119
f 21//120 30//120 14//120
f 8//121 22//121 21//121
f 9//122 23//122 22//122
f 15//123 16//123 31//123
f 23//124 15//124 32//124
f 24//125 33//125 16//125
f 10//19 25//19 24//19
f 11//51 26//51 25//51
f 17//126 34//126 26//126
f 35//55 17//55 18//55
f 36//13 18//13 27//13
f 28//127 14//127 30//127
f 29//23 13//23 28//23
f 19//128 37//128 20//128
f 29//129 38//129 19//129
f 39//130 27//130 20//130
f 21//16 40//16 30//16
f 22//131 41//131 21//131
f 23//27 42//27 22//27
f 31//132 16//132 33//132
f 32//133 15//133 31//133
f 32//134 43//134 23//134
f 24//135 44//135 33//135
f 24//19 25//19 45//19
f 25//136 26//136 46//136
f 34//126 47//126 26//126
f 17//137 35//137 34//137
f 35//13 18//13 36//13
f 48//138 36//138 27//138
f 49//24 28//24 30//24
f 50//57 29//57 28//57
f 37//139 39//139 20//139
f 38//140 37//140 19//140
f 51//141 38//141 29//141
f 39//138 48//138 27//138
f 40//16 52//16 30//16
f 21//25 41//25 40//25
f 22//19 42//19 41//19
f 43//142 42//142 23//142
f 33//20 44//20 31//20
f 32//28 31//28 43//28
f 45//143 44//143 24//143
f 25//19 46//19 45//19
f 26//144 47//144 46//144
f 53//145 47//145 34//145
f 34//146 35//146 54//146
f 35//57 36//57 55//57
f 56//147 36//147 48//147
f 49//13 50//13 28//13
f 52//24 49//24 30//24
f 50//148 51//148 29//148
f 48//119 39//119 37//119
f 37//149 38//149 51//149
f 40//3 57//3 52//3
f 41//25 58//25 40//25
f 42//19 59//19 41//19
f 43//150 60//150 42//150
f 44//27 61//27 31//27
f 31//27 62//27 43//27
f 45//143 63//143 44//143
f 45//27 46//27 64//27
f 46//151 47//151 65//151
f 66//145 47//145 53//145
f 34//152 54//152 53//152
f 54//23 35//23 55//23
f 56//153 55//153 36//153
f 56//154 48//154 67//154
f 68//13 50//13 49//13
f 69//155 49//155 52//155
f 50//156 70//156 51//156
f 48//157 37//157 51//157
f 57//158 71//158 52//158
f 58//159 57//159 40//159
f 41//19 59//19 58//19
f 60//150 59//150 42//150
f 43//27 62//27 60//27
f 31//19 61//19 62//19
f 44//27 63//27 61//27
f 45//160 64//160 63//160
f 64//122 46//122 65//122
f 65//161 47//161 66//161
f 71//1 66//1 53//1
f 53//162 54//162 72//162
f 54//23 55//23 73//23
f 56//163 67//163 55//163
f 67//43 48//43 51//43
f 68//164 70//164 50//164
f 69//13 68//13 49//13
f 71//165 69//165 52//165
f 74//119 51//119 70//119
f 57//166 66//166 71//166
f 75//167 57//167 58//167
f 59//19 76//19 58//19
f 62//168 59//168 60//168
f 61//19 77//19 62//19
f 64//169 61//169 63//169
f 78//19 64//19 65//19
f 65//170 66//170 75//170
f 53//171 72//171 71//171
f 72//13 54//13 73//13
f 67//172 73//172 55//172
f 67//13 51//13 74//13
f 68//164 74//164 70//164
f 79//119 68//119 69//119
f 72//173 69//173 71//173
f 75//174 66//174 57//174
f 76//112 75//112 58//112
f 62//175 76//175 59//175
f 76//176 62//176 77//176
f 78//177 77//177 61//177
f 64//178 78//178 61//178
f 78//19 65//19 75//19
f 72//43 73//43 79//43
f 67//179 80//179 73//179
f 80//180 67//180 74//180
f 68//181 79//181 74//181
f 72//57 79//57 69//57
f 76//28 78//28 75//28
f 78//182 76//182 77//182
f 80//183 79//183 73//183
f 79//184 80//184 74//184
