# SSTK version 0.8.0
# 58
mtllib original-58.mtl
o db1gr_1_1/db1gr_1/mesh39/mesh39-geometry#mesh39-geometry
v 0.479093 0.382429 -0.458887
v 0.479093 0.384996 0.504418
v 0.479093 0.382429 0.504418
v 0.479093 0.384996 -0.458887
v 0.467892 0.382429 0.504418
v 0.462291 0.384996 -0.458887
v 0.467892 0.382429 -0.458887
v 0.462291 0.384996 0.504418
v 0.467892 0.375769 -0.458887
v 0.467892 0.375769 0.504418
v 0.476293 0.370168 0.504418
v 0.476293 0.370168 -0.458887
v 0.476293 0.344792 -0.458887
v 0.476293 0.344792 0.504418
v 0.467892 0.339191 0.504418
v 0.467892 0.339191 -0.458887
v 0.467892 0.332517 -0.458887
v 0.467892 0.332517 0.504418
v 0.479093 0.332517 0.504418
v 0.479093 0.332517 -0.458887
v 0.479093 0.330050 -0.458887
v 0.479093 0.330050 0.504418
v 0.462291 0.330050 0.504418
v 0.462291 0.330050 -0.458887
vn 1 0 0
vn -1 0 0
vn 0 -1 0
vn 0 1 0
vn 0.5547001962252291 0.8320502943378437 0
vn -0.5547001962252291 -0.8320502943378437 0
vn 0.5547001962252291 -0.8320502943378437 0
vn -0.5547001962252291 0.8320502943378437 0
usemtl material_0_0
f 1//1 2//1 3//1
f 2//1 1//1 4//1
f 3//2 2//2 1//2
f 4//2 1//2 2//2
f 5//3 1//3 3//3
f 3//4 1//4 5//4
f 6//4 2//4 4//4
f 4//3 2//3 6//3
f 1//3 5//3 7//3
f 7//4 5//4 1//4
f 2//4 6//4 8//4
f 8//3 6//3 2//3
f 5//1 9//1 7//1
f 7//2 9//2 5//2
f 9//1 5//1 10//1
f 10//2 5//2 9//2
f 11//5 9//5 10//5
f 10//6 9//6 11//6
f 9//5 11//5 12//5
f 12//6 11//6 9//6
f 11//1 13//1 12//1
f 12//2 13//2 11//2
f 13//1 11//1 14//1
f 14//2 11//2 13//2
f 15//7 13//7 14//7
f 14//8 13//8 15//8
f 13//7 15//7 16//7
f 16//8 15//8 13//8
f 15//1 17//1 16//1
f 16//2 17//2 15//2
f 17//1 15//1 18//1
f 18//2 15//2 17//2
f 19//4 17//4 18//4
f 18//3 17//3 19//3
f 17//4 19//4 20//4
f 20//3 19//3 17//3
f 19//1 21//1 20//1
f 20//2 21//2 19//2
f 21//1 19//1 22//1
f 22//2 19//2 21//2
f 23//3 21//3 22//3
f 22//4 21//4 23//4
f 21//3 23//3 24//3
f 24//4 23//4 21//4
