# SSTK version 0.8.0
# 2
mtllib original-2.mtl
o instance_1/I0/ID7#ID7
v -0.043050 -0.705401 0.021412
v -0.042574 -0.694329 0.034373
v -0.055896 -0.692666 0.021883
v -0.055896 -0.666816 0.021883
v -0.042574 -0.694329 0.034373
v -0.042574 -0.668479 0.034373
v -0.055896 -0.692666 0.021883
v -0.062600 -0.669218 -0.160955
v -0.043050 -0.705401 0.021412
v -0.055896 -0.692666 0.021883
v -0.049878 -0.681518 -0.164810
v -0.043050 -0.705401 0.021412
v -0.008050 -0.694329 0.033107
v -0.042574 -0.694329 0.034373
v -0.008526 -0.705401 0.020146
v -0.013371 -0.668479 0.033302
v -0.008050 -0.694329 0.033107
v -0.008050 -0.673753 0.033107
v -0.042574 -0.694329 0.034373
v -0.042574 -0.668479 0.034373
v -0.055896 -0.666816 0.021883
v -0.042574 -0.668479 0.034373
v -0.043050 -0.654082 0.021412
v -0.055896 -0.666816 0.021883
v -0.062600 -0.669218 -0.160955
v -0.055896 -0.692666 0.021883
v -0.062348 -0.644249 -0.154087
v -0.069291 -0.595600 -0.343411
v -0.068804 -0.573213 -0.330142
v -0.075035 -0.478490 -0.500089
v -0.074347 -0.460211 -0.481324
v -0.079444 -0.325869 -0.620312
v -0.078601 -0.312943 -0.597330
v -0.082215 -0.148137 -0.695888
v -0.081275 -0.141447 -0.670255
v -0.083160 0.042591 -0.721665
v -0.082188 0.042591 -0.695128
v -0.081275 0.226630 -0.670255
v -0.082215 0.233320 -0.695888
v -0.078601 0.398126 -0.597330
v -0.079444 0.411051 -0.620312
v -0.074347 0.545394 -0.481324
v -0.075035 0.563673 -0.500089
v -0.068803 0.658396 -0.330142
v -0.069291 0.680783 -0.343411
v -0.062348 0.729432 -0.154086
v -0.062600 0.754402 -0.160955
v -0.056135 0.751162 0.015355
v -0.055896 0.758413 0.021883
v -0.055896 0.777849 0.021883
v -0.062600 -0.669218 -0.160955
v -0.056684 -0.606628 -0.350418
v -0.049878 -0.681518 -0.164810
v -0.069291 -0.595600 -0.343411
v -0.049878 -0.681518 -0.164810
v -0.008526 -0.705401 0.020146
v -0.043050 -0.705401 0.021412
v -0.015354 -0.681518 -0.166076
v 0.004321 -0.692666 0.019675
v -0.008050 -0.694329 0.033107
v -0.008526 -0.705401 0.020146
v 0.004321 -0.692666 0.019675
v -0.008050 -0.673753 0.033107
v -0.008050 -0.694329 0.033107
v 0.004321 -0.666816 0.019675
v -0.008526 -0.654082 0.020146
v -0.008050 -0.673753 0.033107
v 0.004321 -0.666816 0.019675
v -0.013371 -0.668479 0.033302
v -0.043050 -0.654082 0.021412
v -0.013371 -0.668479 0.033302
v -0.008526 -0.654082 0.020146
v -0.042574 -0.668479 0.034373
v -0.043050 -0.654082 0.021412
v -0.062348 -0.644249 -0.154087
v -0.055896 -0.666816 0.021883
v -0.049378 -0.631949 -0.151174
v -0.043246 0.789895 0.016044
v -0.062600 0.754402 -0.160955
v -0.055896 0.777849 0.021883
v -0.049878 0.766702 -0.164809
v -0.062600 0.754402 -0.160955
v -0.056684 0.691811 -0.350418
v -0.069291 0.680783 -0.343411
v -0.049878 0.766702 -0.164809
v -0.069291 0.680783 -0.343411
v -0.062528 0.572677 -0.509804
v -0.075035 0.563673 -0.500089
v -0.056684 0.691811 -0.350418
v -0.075035 0.563673 -0.500089
v -0.067013 0.417419 -0.632105
v -0.079444 0.411051 -0.620312
v -0.062528 0.572677 -0.509804
v -0.079444 0.411051 -0.620312
v -0.069832 0.236616 -0.708986
v -0.082215 0.233320 -0.695888
v -0.067013 0.417419 -0.632105
v -0.082215 0.233320 -0.695888
v -0.070794 0.042591 -0.735209
v -0.083160 0.042591 -0.721665
v -0.069832 0.236616 -0.708986
v -0.082215 -0.148137 -0.695888
v -0.070794 0.042591 -0.735209
v -0.069832 -0.151433 -0.708986
v -0.083160 0.042591 -0.721665
v -0.079444 -0.325869 -0.620312
v -0.069832 -0.151433 -0.708986
v -0.067013 -0.332235 -0.632105
v -0.082215 -0.148137 -0.695888
v -0.075035 -0.478490 -0.500089
v -0.067013 -0.332235 -0.632105
v -0.062528 -0.487494 -0.509804
v -0.079444 -0.325869 -0.620312
v -0.069291 -0.595600 -0.343411
v -0.062528 -0.487494 -0.509804
v -0.056684 -0.606628 -0.350418
v -0.075035 -0.478490 -0.500089
v -0.049378 -0.631949 -0.151174
v -0.068804 -0.573213 -0.330142
v -0.062348 -0.644249 -0.154087
v -0.055718 -0.562185 -0.324077
v -0.055718 -0.562185 -0.324077
v -0.074347 -0.460211 -0.481324
v -0.068804 -0.573213 -0.330142
v -0.061162 -0.451206 -0.472551
v -0.061162 -0.451206 -0.472551
v -0.078601 -0.312943 -0.597330
v -0.074347 -0.460211 -0.481324
v -0.065340 -0.306576 -0.586480
v -0.065340 -0.306576 -0.586480
v -0.081275 -0.141447 -0.670255
v -0.078601 -0.312943 -0.597330
v -0.067966 -0.138151 -0.658099
v -0.068862 0.042591 -0.682526
v -0.081275 -0.141447 -0.670255
v -0.067966 -0.138151 -0.658099
v -0.082188 0.042591 -0.695128
v -0.081275 0.226630 -0.670255
v -0.068862 0.042591 -0.682526
v -0.067966 0.223334 -0.658099
v -0.082188 0.042591 -0.695128
v -0.065340 0.391759 -0.586480
v -0.081275 0.226630 -0.670255
v -0.067966 0.223334 -0.658099
v -0.078601 0.398126 -0.597330
v -0.061162 0.536389 -0.472551
v -0.078601 0.398126 -0.597330
v -0.065340 0.391759 -0.586480
v -0.074347 0.545394 -0.481324
v -0.055718 0.647368 -0.324077
v -0.074347 0.545394 -0.481324
v -0.061162 0.536389 -0.472551
v -0.068803 0.658396 -0.330142
v -0.049377 0.717132 -0.151174
v -0.068803 0.658396 -0.330142
v -0.055718 0.647368 -0.324077
v -0.062348 0.729432 -0.154086
v -0.062348 0.729432 -0.154086
v -0.044060 0.735730 -0.006149
v -0.056135 0.751162 0.015355
v -0.049377 0.717132 -0.151174
v -0.055896 0.758413 0.021883
v -0.056135 0.751162 0.015355
v -0.042574 0.753661 0.034373
v -0.055896 0.777849 0.021883
v -0.042574 0.753661 0.034373
v -0.042574 0.779511 0.034373
v -0.055896 0.758413 0.021883
v -0.056684 -0.606628 -0.350418
v -0.015354 -0.681518 -0.166076
v -0.049878 -0.681518 -0.164810
v -0.022160 -0.606628 -0.351684
v -0.015354 -0.681518 -0.166076
v 0.004321 -0.692666 0.019675
v -0.008526 -0.705401 0.020146
v -0.002384 -0.669218 -0.163163
v -0.002384 -0.669218 -0.163163
v 0.004321 -0.666816 0.019675
v 0.004321 -0.692666 0.019675
v -0.002132 -0.644249 -0.156295
v -0.009074 -0.595600 -0.345619
v -0.008588 -0.573213 -0.332350
v -0.014819 -0.478490 -0.502297
v -0.014131 -0.460211 -0.483532
v -0.019228 -0.325869 -0.622520
v -0.018385 -0.312943 -0.599538
v -0.021999 -0.148137 -0.698096
v -0.021059 -0.141447 -0.672463
v -0.022944 0.042591 -0.723873
v -0.021971 0.042591 -0.697336
v -0.021999 0.233320 -0.698096
v -0.021059 0.226630 -0.672463
v -0.018385 0.398126 -0.599538
v -0.019228 0.411051 -0.622520
v -0.014131 0.545394 -0.483532
v -0.014819 0.563673 -0.502297
v -0.008588 0.658396 -0.332350
v -0.009074 0.680783 -0.345619
v -0.002132 0.729432 -0.156294
v -0.002383 0.754402 -0.163163
v 0.004321 0.751999 0.019675
v 0.004321 0.777849 0.019675
v 0.004321 -0.666816 0.019675
v -0.014854 -0.631949 -0.152440
v -0.008526 -0.654082 0.020146
v -0.002132 -0.644249 -0.156295
v -0.008526 -0.654082 0.020146
v -0.049378 -0.631949 -0.151174
v -0.043050 -0.654082 0.021412
v -0.014854 -0.631949 -0.152440
v -0.037728 0.790583 0.021217
v -0.055896 0.777849 0.021883
v -0.042574 0.779511 0.034373
v -0.043246 0.789895 0.016044
v -0.013846 0.790583 0.020341
v -0.043246 0.789895 0.016044
v -0.037728 0.790583 0.021217
v -0.008722 0.789895 0.014778
v -0.049878 0.766702 -0.164809
v -0.015354 0.766702 -0.166075
v -0.015354 0.766702 -0.166075
v -0.056684 0.691811 -0.350418
v -0.049878 0.766702 -0.164809
v -0.022160 0.691811 -0.351684
v -0.022160 0.691811 -0.351684
v -0.062528 0.572677 -0.509804
v -0.056684 0.691811 -0.350418
v -0.028004 0.572677 -0.511070
v -0.032489 0.417419 -0.633371
v -0.062528 0.572677 -0.509804
v -0.028004 0.572677 -0.511070
v -0.067013 0.417419 -0.632105
v -0.035308 0.236616 -0.710252
v -0.067013 0.417419 -0.632105
v -0.032489 0.417419 -0.633371
v -0.069832 0.236616 -0.708986
v -0.036269 0.042591 -0.736475
v -0.069832 0.236616 -0.708986
v -0.035308 0.236616 -0.710252
v -0.070794 0.042591 -0.735209
v -0.069832 -0.151433 -0.708986
v -0.036269 0.042591 -0.736475
v -0.035308 -0.151433 -0.710252
v -0.070794 0.042591 -0.735209
v -0.067013 -0.332235 -0.632105
v -0.035308 -0.151433 -0.710252
v -0.032489 -0.332235 -0.633371
v -0.069832 -0.151433 -0.708986
v -0.062528 -0.487494 -0.509804
v -0.032489 -0.332235 -0.633371
v -0.028005 -0.487494 -0.511070
v -0.067013 -0.332235 -0.632105
v -0.062528 -0.487494 -0.509804
v -0.022160 -0.606628 -0.351684
v -0.056684 -0.606628 -0.350418
v -0.028005 -0.487494 -0.511070
v -0.014854 -0.631949 -0.152440
v -0.055718 -0.562185 -0.324077
v -0.049378 -0.631949 -0.151174
v -0.021194 -0.562185 -0.325343
v -0.021194 -0.562185 -0.325343
v -0.061162 -0.451206 -0.472551
v -0.055718 -0.562185 -0.324077
v -0.026638 -0.451206 -0.473817
v -0.030816 -0.306576 -0.587746
v -0.061162 -0.451206 -0.472551
v -0.026638 -0.451206 -0.473817
v -0.065340 -0.306576 -0.586480
v -0.033442 -0.138151 -0.659365
v -0.065340 -0.306576 -0.586480
v -0.030816 -0.306576 -0.587746
v -0.067966 -0.138151 -0.658099
v -0.034338 0.042591 -0.683792
v -0.067966 -0.138151 -0.658099
v -0.033442 -0.138151 -0.659365
v -0.068862 0.042591 -0.682526
v -0.067966 0.223334 -0.658099
v -0.034338 0.042591 -0.683792
v -0.033442 0.223334 -0.659364
v -0.068862 0.042591 -0.682526
v -0.065340 0.391759 -0.586480
v -0.033442 0.223334 -0.659364
v -0.030816 0.391759 -0.587746
v -0.067966 0.223334 -0.658099
v -0.061162 0.536389 -0.472551
v -0.030816 0.391759 -0.587746
v -0.026638 0.536389 -0.473817
v -0.065340 0.391759 -0.586480
v -0.061162 0.536389 -0.472551
v -0.021193 0.647368 -0.325343
v -0.055718 0.647368 -0.324077
v -0.026638 0.536389 -0.473817
v -0.055718 0.647368 -0.324077
v -0.014854 0.717132 -0.152440
v -0.049377 0.717132 -0.151174
v -0.021193 0.647368 -0.325343
v -0.044060 0.735730 -0.006149
v -0.008526 0.739265 0.020146
v -0.024882 0.739265 0.020746
v -0.014854 0.717132 -0.152440
v -0.049377 0.717132 -0.151174
v -0.056135 0.751162 0.015355
v -0.024882 0.739265 0.020746
v -0.042574 0.753661 0.034373
v -0.044060 0.735730 -0.006149
v -0.042574 0.779511 0.034373
v -0.008050 0.753661 0.033107
v -0.008050 0.779511 0.033107
v -0.042574 0.753661 0.034373
v -0.022160 -0.606628 -0.351684
v -0.002384 -0.669218 -0.163163
v -0.015354 -0.681518 -0.166076
v -0.009074 -0.595600 -0.345619
v -0.022160 0.691811 -0.351684
v -0.002383 0.754402 -0.163163
v -0.009074 0.680783 -0.345619
v -0.015354 0.766702 -0.166075
v -0.002383 0.754402 -0.163163
v -0.008722 0.789895 0.014778
v 0.004321 0.777849 0.019675
v -0.015354 0.766702 -0.166075
v 0.004321 0.777849 0.019675
v -0.008050 0.753661 0.033107
v 0.004321 0.751999 0.019675
v -0.008050 0.779511 0.033107
v -0.014854 0.717132 -0.152440
v 0.004321 0.751999 0.019675
v -0.008526 0.739265 0.020146
v -0.002132 0.729432 -0.156294
v -0.008588 0.658396 -0.332350
v -0.014854 0.717132 -0.152440
v -0.021193 0.647368 -0.325343
v -0.002132 0.729432 -0.156294
v -0.014131 0.545394 -0.483532
v -0.021193 0.647368 -0.325343
v -0.026638 0.536389 -0.473817
v -0.008588 0.658396 -0.332350
v -0.018385 0.398126 -0.599538
v -0.026638 0.536389 -0.473817
v -0.030816 0.391759 -0.587746
v -0.014131 0.545394 -0.483532
v -0.021059 0.226630 -0.672463
v -0.030816 0.391759 -0.587746
v -0.033442 0.223334 -0.659364
v -0.018385 0.398126 -0.599538
v -0.021059 0.226630 -0.672463
v -0.034338 0.042591 -0.683792
v -0.021971 0.042591 -0.697336
v -0.033442 0.223334 -0.659364
v -0.021971 0.042591 -0.697336
v -0.033442 -0.138151 -0.659365
v -0.021059 -0.141447 -0.672463
v -0.034338 0.042591 -0.683792
v -0.021059 -0.141447 -0.672463
v -0.030816 -0.306576 -0.587746
v -0.018385 -0.312943 -0.599538
v -0.033442 -0.138151 -0.659365
v -0.018385 -0.312943 -0.599538
v -0.026638 -0.451206 -0.473817
v -0.014131 -0.460211 -0.483532
v -0.030816 -0.306576 -0.587746
v -0.014131 -0.460211 -0.483532
v -0.021194 -0.562185 -0.325343
v -0.008588 -0.573213 -0.332350
v -0.026638 -0.451206 -0.473817
v -0.008588 -0.573213 -0.332350
v -0.014854 -0.631949 -0.152440
v -0.002132 -0.644249 -0.156295
v -0.021194 -0.562185 -0.325343
v -0.028005 -0.487494 -0.511070
v -0.009074 -0.595600 -0.345619
v -0.022160 -0.606628 -0.351684
v -0.014819 -0.478490 -0.502297
v -0.032489 -0.332235 -0.633371
v -0.014819 -0.478490 -0.502297
v -0.028005 -0.487494 -0.511070
v -0.019228 -0.325869 -0.622520
v -0.035308 -0.151433 -0.710252
v -0.019228 -0.325869 -0.622520
v -0.032489 -0.332235 -0.633371
v -0.021999 -0.148137 -0.698096
v -0.035308 -0.151433 -0.710252
v -0.022944 0.042591 -0.723873
v -0.021999 -0.148137 -0.698096
v -0.036269 0.042591 -0.736475
v -0.022944 0.042591 -0.723873
v -0.035308 0.236616 -0.710252
v -0.021999 0.233320 -0.698096
v -0.036269 0.042591 -0.736475
v -0.035308 0.236616 -0.710252
v -0.019228 0.411051 -0.622520
v -0.021999 0.233320 -0.698096
v -0.032489 0.417419 -0.633371
v -0.032489 0.417419 -0.633371
v -0.014819 0.563673 -0.502297
v -0.019228 0.411051 -0.622520
v -0.028004 0.572677 -0.511070
v -0.028004 0.572677 -0.511070
v -0.009074 0.680783 -0.345619
v -0.014819 0.563673 -0.502297
v -0.022160 0.691811 -0.351684
v -0.008050 0.779511 0.033107
v -0.037728 0.790583 0.021217
v -0.042574 0.779511 0.034373
v -0.013846 0.790583 0.020341
v 0.004321 0.777849 0.019675
v -0.013846 0.790583 0.020341
v -0.008050 0.779511 0.033107
v -0.008722 0.789895 0.014778
v -0.042574 0.753661 0.034373
v -0.008526 0.739265 0.020146
v -0.008050 0.753661 0.033107
v -0.024882 0.739265 0.020746
v -0.008526 0.739265 0.020146
v 0.004321 0.751999 0.019675
v -0.008050 0.753661 0.033107
vn -0.5823377240415397 -0.607446625078149 0.5402697223047821
vn -0.6839697088142322 0 0.7295104094011096
vn -0.7037182836405399 -0.7075060835524843 -0.06492856849059439
vn 0.023791308980186446 -0.7605528673989302 0.6488399721874992
vn 0.036643989394463665 -1.2255829797474283e-7 0.9993283834862509
vn -0.5295505979815119 0.5578451978736615 0.639049997564133
vn -0.999328385683416 8.246630881857069e-8 0.03664392947503153
vn -0.7113657810313002 -0.6604322823894513 -0.24039119358992445
vn -0.004657962025370723 -0.991887605402557 -0.12703260069191397
vn 0.6203477859927922 -0.6074405862842316 0.49616988879668
vn 0.735564161442592 0 0.6774550644886024
vn 0.5052773029394534 0.48326810281141463 0.714945304159198
vn 0.027225199515708905 0.669329188093745 0.742466986792745
vn -0.6970749924129034 0.7075042922993888 0.11629329873424164
vn -0.7037213973799177 0.707502997365838 -0.06492844975825961
vn -0.7113664727688848 0.6604315747186731 -0.24039109079782678
vn -0.7192920258750566 0.5688353204626849 -0.39880491434618953
vn -0.7265514748820299 0.43801148485728847 -0.5294042816977029
vn -0.7321317360167934 0.27618581358679983 -0.6226592306313573
vn -0.7351698155567616 0.09436912199692359 -0.6712822142048507
vn -0.7351696005755101 -0.09436876007387433 -0.6712825005254975
vn -0.7321314093283023 -0.27618560351896226 -0.6226597079334911
vn -0.7265511255367433 -0.43801141539517957 -0.5294048186074654
vn -0.7192915911113255 -0.5688353929705939 -0.3988055950717439
vn -0.6918498245695526 0.6604318234538101 0.2918452103642525
vn -0.6881508826023314 0.5688365856188073 0.4504145886127244
vn -0.6858271036588226 0.43801130233674873 0.5811947031006186
vn -0.6845634896517893 0.27618539582504076 0.6746068898022983
vn -0.6840342782774214 0.09436798700319693 0.7233199770298424
vn -0.6840342974159676 -0.09436845964351033 0.7233198972675609
vn -0.6845636966563822 -0.27618559865102527 0.6746065967050155
vn -0.6858262376217641 -0.4380118240276277 0.5811953318821189
vn -0.688153309058372 -0.5688345074877422 0.4504135059289304
vn -0.6918495310904387 -0.6604321296785987 0.2918452131149843
vn -0.6970731448081073 -0.7075060454787377 0.11629370747540048
vn -0.6862980854842261 -0.4739898899747205 0.5516597883319377
vn -0.013703200653191238 -0.927444644208556 -0.3737093178136231
vn 0.697074707124093 -0.7075045072306854 -0.11629370118851988
vn 0.9993283904439182 -9.085479913120061e-8 -0.036643799649593516
vn 0.7037228799103029 0.7075015798024294 0.06492782814645731
vn 0.004658102796972661 0.9918876567677399 0.1270321944631947
vn -0.5047279800852892 0.7430560706817387 0.43945118266087163
vn -0.004658090081767046 0.9918876174113681 -0.12703250222989945
vn -0.013703440342721378 0.9274445231952748 -0.3737096093464319
vn -0.021929190075961884 0.8011691027752192 -0.5980361020715743
vn -0.02877822033675341 0.6190542072439718 -0.7848208091837188
vn -0.03371812861590327 0.3915386839277139 -0.9195436622536177
vn -0.036313091249769565 0.13402330461261328 -0.9903126340830963
vn -0.03631313052096675 -0.13402270192275823 -0.9903127142075329
vn -0.033718178498824365 -0.3915379825682375 -0.9195439590607486
vn -0.02877828932468401 -0.6190539854731791 -0.784820981583264
vn -0.021928880225033354 -0.8011691082215675 -0.5980361061370242
vn 0.013703249866291208 0.9274444909505056 0.37370969635354584
vn 0.02192867985083945 0.8011694945503841 0.5980355959321164
vn 0.028777989923521194 0.6190535983548371 0.7848212979143021
vn 0.03371816897033819 0.3915381880434813 0.9195438719196138
vn 0.036313148358491 0.13402239394161686 0.9903127552336446
vn 0.036313148547876754 -0.13402309464056247 0.9903126603984758
vn 0.03371817121081805 -0.3915385140601309 0.9195437330207751
vn 0.028778050477541783 -0.61905421027256 0.7848208130232842
vn 0.02192906058392787 -0.8011690213335597 0.5980362159245315
vn 0.013703480581907969 -0.9274444393832286 0.37370981586930546
vn 0.004658195197838893 -0.9918876421266059 0.1270323053952077
vn -0.38560238747232617 -0.8384361727603997 0.3851435874872319
vn 0.036644219085617394 0 0.9993283750637751
vn 0.6918476266943843 -0.6604341254823196 -0.29184521126061275
vn 0.691850636943801 0.6604312352660514 -0.291844615584071
vn 0.6970745056699936 0.7075047057548326 -0.11629370094593122
vn 0.735559512823649 0 0.6774601118107516
vn 0.7037174145805624 -0.7075069146590782 0.06492893134528478
vn 0.7113651770279061 -0.6604326786726676 0.24039189223703195
vn 0.7192921797702602 -0.5688352840017866 0.3988046887838137
vn 0.7265494749399649 -0.43801238489214284 0.5294062817397983
vn 0.7321296992516537 -0.2761869997176955 0.622661099363547
vn 0.7351688409243625 -0.09436872525318772 0.6712833373680727
vn 0.7351687713612879 0.09436829632385572 0.6712834738499582
vn 0.7321319350615539 0.276185513226432 0.6226591298189379
vn 0.7265528034210429 0.4380101020624122 0.5294036024927472
vn 0.7192925046748618 0.5688350036970009 0.3988045025919302
vn 0.7113677641864186 0.6604303667508454 0.2403905878976131
vn 0.6881501270423358 -0.5688369223536675 -0.4504153177000364
vn 0.6858257330606794 -0.4380122211146665 -0.5811956280169166
vn 0.6845606854827854 -0.27618649414301943 -0.6746092856938207
vn 0.6840278865204231 -0.09436902814034692 -0.7233258857460096
vn 0.6840280660760993 0.09436942531981336 -0.7233256641271619
vn 0.68456087358141 0.2761867893413927 -0.6746089739654739
vn 0.6858258362850777 0.4380119231739544 -0.5811957307493989
vn 0.6881527962714883 0.5688348969179701 -0.45041379755959265
vn 0.02379203149623367 0.7605518478295973 0.6488411408043324
vn 0.5355569068689083 0.7430562095302383 0.40130570514703867
vn 0.027224938821223694 -0.6693317710194966 0.7424646678530129
vn 0.5749314892226938 -0.5578456895429734 0.598549888779958
usemtl material_0_0
f 1//1 2//1 3//1
f 4//2 5//2 6//2
f 5//2 4//2 7//2
f 8//3 9//3 10//3
f 9//3 8//3 11//3
f 12//4 13//4 14//4
f 13//4 12//4 15//4
f 16//5 17//5 18//5
f 17//5 16//5 19//5
f 19//5 16//5 20//5
f 21//6 22//6 23//6
f 24//7 25//7 26//7
f 25//7 24//7 27//7
f 25//7 27//7 28//7
f 28//7 27//7 29//7
f 28//7 29//7 30//7
f 30//7 29//7 31//7
f 30//7 31//7 32//7
f 32//7 31//7 33//7
f 32//7 33//7 34//7
f 34//7 33//7 35//7
f 34//7 35//7 36//7
f 36//7 35//7 37//7
f 36//7 37//7 38//7
f 36//7 38//7 39//7
f 39//7 38//7 40//7
f 39//7 40//7 41//7
f 41//7 40//7 42//7
f 41//7 42//7 43//7
f 43//7 42//7 44//7
f 43//7 44//7 45//7
f 45//7 44//7 46//7
f 45//7 46//7 47//7
f 47//7 46//7 48//7
f 47//7 48//7 49//7
f 47//7 49//7 50//7
f 51//8 52//8 53//8
f 52//8 51//8 54//8
f 55//9 56//9 57//9
f 56//9 55//9 58//9
f 59//10 60//10 61//10
f 62//11 63//11 64//11
f 63//11 62//11 65//11
f 66//12 67//12 68//12
f 67//12 66//12 69//12
f 70//13 71//13 72//13
f 71//13 70//13 73//13
f 74//14 75//14 76//14
f 75//14 74//14 77//14
f 78//15 79//15 80//15
f 79//15 78//15 81//15
f 82//16 83//16 84//16
f 83//16 82//16 85//16
f 86//17 87//17 88//17
f 87//17 86//17 89//17
f 90//18 91//18 92//18
f 91//18 90//18 93//18
f 94//19 95//19 96//19
f 95//19 94//19 97//19
f 98//20 99//20 100//20
f 99//20 98//20 101//20
f 102//21 103//21 104//21
f 103//21 102//21 105//21
f 106//22 107//22 108//22
f 107//22 106//22 109//22
f 110//23 111//23 112//23
f 111//23 110//23 113//23
f 114//24 115//24 116//24
f 115//24 114//24 117//24
f 118//25 119//25 120//25
f 119//25 118//25 121//25
f 122//26 123//26 124//26
f 123//26 122//26 125//26
f 126//27 127//27 128//27
f 127//27 126//27 129//27
f 130//28 131//28 132//28
f 131//28 130//28 133//28
f 134//29 135//29 136//29
f 135//29 134//29 137//29
f 138//30 139//30 140//30
f 139//30 138//30 141//30
f 142//31 143//31 144//31
f 143//31 142//31 145//31
f 146//32 147//32 148//32
f 147//32 146//32 149//32
f 150//33 151//33 152//33
f 151//33 150//33 153//33
f 154//34 155//34 156//34
f 155//34 154//34 157//34
f 158//35 159//35 160//35
f 159//35 158//35 161//35
f 162//36 163//36 164//36
f 165//2 166//2 167//2
f 166//2 165//2 168//2
f 169//37 170//37 171//37
f 170//37 169//37 172//37
f 173//38 174//38 175//38
f 174//38 173//38 176//38
f 177//39 178//39 179//39
f 178//39 177//39 180//39
f 180//39 177//39 181//39
f 180//39 181//39 182//39
f 182//39 181//39 183//39
f 182//39 183//39 184//39
f 184//39 183//39 185//39
f 184//39 185//39 186//39
f 186//39 185//39 187//39
f 186//39 187//39 188//39
f 188//39 187//39 189//39
f 188//39 189//39 190//39
f 190//39 189//39 191//39
f 190//39 191//39 192//39
f 192//39 191//39 193//39
f 193//39 191//39 194//39
f 193//39 194//39 195//39
f 195//39 194//39 196//39
f 195//39 196//39 197//39
f 197//39 196//39 198//39
f 197//39 198//39 199//39
f 199//39 198//39 200//39
f 199//39 200//39 201//39
f 201//39 200//39 202//39
f 203//40 204//40 205//40
f 204//40 203//40 206//40
f 207//41 208//41 209//41
f 208//41 207//41 210//41
f 211//42 212//42 213//42
f 212//42 211//42 214//42
f 215//43 216//43 217//43
f 216//43 215//43 218//43
f 216//43 218//43 219//43
f 219//43 218//43 220//43
f 221//44 222//44 223//44
f 222//44 221//44 224//44
f 225//45 226//45 227//45
f 226//45 225//45 228//45
f 229//46 230//46 231//46
f 230//46 229//46 232//46
f 233//47 234//47 235//47
f 234//47 233//47 236//47
f 237//48 238//48 239//48
f 238//48 237//48 240//48
f 241//49 242//49 243//49
f 242//49 241//49 244//49
f 245//50 246//50 247//50
f 246//50 245//50 248//50
f 249//51 250//51 251//51
f 250//51 249//51 252//51
f 253//52 254//52 255//52
f 254//52 253//52 256//52
f 257//53 258//53 259//53
f 258//53 257//53 260//53
f 261//54 262//54 263//54
f 262//54 261//54 264//54
f 265//55 266//55 267//55
f 266//55 265//55 268//55
f 269//56 270//56 271//56
f 270//56 269//56 272//56
f 273//57 274//57 275//57
f 274//57 273//57 276//57
f 277//58 278//58 279//58
f 278//58 277//58 280//58
f 281//59 282//59 283//59
f 282//59 281//59 284//59
f 285//60 286//60 287//60
f 286//60 285//60 288//60
f 289//61 290//61 291//61
f 290//61 289//61 292//61
f 293//62 294//62 295//62
f 294//62 293//62 296//62
f 297//63 298//63 299//63
f 298//63 297//63 300//63
f 300//63 297//63 301//63
f 302//64 303//64 304//64
f 303//64 302//64 305//64
f 306//65 307//65 308//65
f 307//65 306//65 309//65
f 310//66 311//66 312//66
f 311//66 310//66 313//66
f 314//67 315//67 316//67
f 315//67 314//67 317//67
f 318//68 319//68 320//68
f 319//68 318//68 321//68
f 322//69 323//69 324//69
f 323//69 322//69 325//69
f 326//70 327//70 328//70
f 327//70 326//70 329//70
f 330//71 331//71 332//71
f 331//71 330//71 333//71
f 334//72 335//72 336//72
f 335//72 334//72 337//72
f 338//73 339//73 340//73
f 339//73 338//73 341//73
f 342//74 343//74 344//74
f 343//74 342//74 345//74
f 346//75 347//75 348//75
f 347//75 346//75 349//75
f 350//76 351//76 352//76
f 351//76 350//76 353//76
f 354//77 355//77 356//77
f 355//77 354//77 357//77
f 358//78 359//78 360//78
f 359//78 358//78 361//78
f 362//79 363//79 364//79
f 363//79 362//79 365//79
f 366//80 367//80 368//80
f 367//80 366//80 369//80
f 370//81 371//81 372//81
f 371//81 370//81 373//81
f 374//82 375//82 376//82
f 375//82 374//82 377//82
f 378//83 379//83 380//83
f 379//83 378//83 381//83
f 382//84 383//84 384//84
f 383//84 382//84 385//84
f 386//85 387//85 388//85
f 387//85 386//85 389//85
f 390//86 391//86 392//86
f 391//86 390//86 393//86
f 394//87 395//87 396//87
f 395//87 394//87 397//87
f 398//88 399//88 400//88
f 399//88 398//88 401//88
f 402//89 403//89 404//89
f 403//89 402//89 405//89
f 406//90 407//90 408//90
f 407//90 406//90 409//90
f 410//91 411//91 412//91
f 411//91 410//91 413//91
f 414//92 415//92 416//92
