# SSTK version 0.8.0
# 6
mtllib original-6.mtl
o #ID29
v -0.017390 -0.884903 0.035858
v -0.026301 -0.896462 0.006758
v -0.025194 -0.884903 0.036968
v -0.024754 -0.896462 0.006538
v -0.026499 -0.898523 0.001375
v -0.025194 -0.884903 0.036968
v -0.024754 -0.818062 0.006538
v -0.017390 -0.884903 0.035858
v -0.026067 -0.806153 0.001313
v -0.026301 -0.818062 0.006758
v -0.009987 -0.884903 0.033149
v -0.024754 -0.896462 0.006538
v -0.017390 -0.884903 0.035858
v -0.023286 -0.896462 0.006001
v -0.026067 -0.898523 0.001313
v -0.026301 -0.896462 0.006758
v -0.033059 -0.884903 0.036432
v -0.025194 -0.884903 0.036968
v -0.027860 -0.896462 0.006652
v -0.026935 -0.898523 0.001345
v -0.033059 -0.884903 0.036432
v -0.026301 -0.818062 0.006758
v -0.025194 -0.884903 0.036968
v -0.026499 -0.806153 0.001375
v -0.027860 -0.818062 0.006652
v -0.017390 -0.884903 0.035858
v -0.023286 -0.818062 0.006001
v -0.009987 -0.884903 0.033149
v -0.024754 -0.818062 0.006538
v -0.025657 -0.806153 0.001163
v -0.003310 -0.884903 0.028960
v -0.023286 -0.896462 0.006001
v -0.009987 -0.884903 0.033149
v -0.021963 -0.896462 0.005170
v -0.025657 -0.898523 0.001163
v -0.027860 -0.896462 0.006652
v -0.040640 -0.884903 0.034273
v -0.033059 -0.884903 0.036432
v -0.029363 -0.896462 0.006223
v -0.027355 -0.898523 0.001226
v -0.027860 -0.818062 0.006652
v -0.029363 -0.818062 0.006223
v -0.026935 -0.806153 0.001345
v -0.033059 -0.884903 0.036432
v -0.040640 -0.884903 0.034273
v -0.009987 -0.884903 0.033149
v -0.021963 -0.818062 0.005170
v -0.003310 -0.884903 0.028960
v -0.023286 -0.818062 0.006001
v -0.025286 -0.806153 0.000931
v 0.002351 -0.884903 0.023474
v -0.021963 -0.896462 0.005170
v -0.003310 -0.884903 0.028960
v -0.020841 -0.896462 0.004083
v -0.025286 -0.898523 0.000931
v -0.029363 -0.896462 0.006223
v -0.047606 -0.884903 0.030584
v -0.040640 -0.884903 0.034273
v -0.030745 -0.896462 0.005492
v -0.027741 -0.898523 0.001021
v -0.029363 -0.818062 0.006223
v -0.030745 -0.818062 0.005492
v -0.027355 -0.806153 0.001226
v -0.040640 -0.884903 0.034273
v -0.047606 -0.884903 0.030584
v -0.003310 -0.884903 0.028960
v -0.020841 -0.818062 0.004083
v 0.002351 -0.884903 0.023474
v -0.021963 -0.818062 0.005170
v -0.024973 -0.806153 0.000627
v 0.006748 -0.884903 0.016931
v -0.020841 -0.896462 0.004083
v 0.002351 -0.884903 0.023474
v -0.019969 -0.896462 0.002786
v -0.024973 -0.898523 0.000627
v -0.030745 -0.896462 0.005492
v -0.053653 -0.884903 0.025528
v -0.047606 -0.884903 0.030584
v -0.031944 -0.896462 0.004490
v -0.028076 -0.898523 0.000741
v -0.030745 -0.818062 0.005492
v -0.031944 -0.818062 0.004490
v -0.027741 -0.806153 0.001021
v -0.047606 -0.884903 0.030584
v -0.053653 -0.884903 0.025528
v -0.020841 -0.818062 0.004083
v 0.006748 -0.884903 0.016931
v 0.002351 -0.884903 0.023474
v -0.019969 -0.818062 0.002786
v -0.024729 -0.806153 0.000265
v 0.009688 -0.884903 0.009618
v -0.019969 -0.896462 0.002786
v 0.006748 -0.884903 0.016931
v -0.019387 -0.896462 0.001336
v -0.024729 -0.898523 0.000265
v -0.031944 -0.896462 0.004490
v -0.058517 -0.884903 0.019325
v -0.053653 -0.884903 0.025528
v -0.032908 -0.896462 0.003260
v -0.028345 -0.898523 0.000398
v -0.032908 -0.818062 0.003260
v -0.053653 -0.884903 0.025528
v -0.058517 -0.884903 0.019325
v -0.031944 -0.818062 0.004490
v -0.028076 -0.806153 0.000741
v -0.019969 -0.818062 0.002786
v 0.009688 -0.884903 0.009618
v 0.006748 -0.884903 0.016931
v -0.019387 -0.818062 0.001336
v -0.024567 -0.806153 -0.000140
v 0.011043 -0.884903 0.001852
v -0.019387 -0.896462 0.001336
v 0.009688 -0.884903 0.009618
v -0.019117 -0.896462 -0.000204
v -0.024567 -0.898523 -0.000140
v -0.032908 -0.896462 0.003260
v -0.061985 -0.884903 0.012246
v -0.058517 -0.884903 0.019325
v -0.033595 -0.896462 0.001857
v -0.028537 -0.898523 0.000005
v -0.033595 -0.818062 0.001857
v -0.058517 -0.884903 0.019325
v -0.061985 -0.884903 0.012246
v -0.032908 -0.818062 0.003260
v -0.028345 -0.806153 0.000398
v -0.019387 -0.818062 0.001336
v 0.011043 -0.884903 0.001852
v 0.009688 -0.884903 0.009618
v -0.019117 -0.818062 -0.000204
v -0.024492 -0.806153 -0.000570
v 0.010754 -0.884903 -0.006025
v -0.019117 -0.896462 -0.000204
v 0.011043 -0.884903 0.001852
v -0.024492 -0.898523 -0.000570
v -0.019175 -0.896462 -0.001766
v -0.033595 -0.896462 0.001857
v -0.063905 -0.884903 0.004600
v -0.061985 -0.884903 0.012246
v -0.033976 -0.896462 0.000341
v -0.028643 -0.898523 -0.000418
v -0.033976 -0.818062 0.000341
v -0.061985 -0.884903 0.012246
v -0.063905 -0.884903 0.004600
v -0.033595 -0.818062 0.001857
v -0.028537 -0.806153 0.000005
v -0.019117 -0.818062 -0.000204
v 0.010754 -0.884903 -0.006025
v 0.011043 -0.884903 0.001852
v -0.019175 -0.818062 -0.001766
v -0.024508 -0.806153 -0.001007
v -0.019175 -0.896462 -0.001766
v -0.019556 -0.896462 -0.003281
v -0.024508 -0.898523 -0.001007
v 0.010754 -0.884903 -0.006025
v 0.008834 -0.884903 -0.013670
v -0.033976 -0.896462 0.000341
v -0.064194 -0.884903 -0.003277
v -0.063905 -0.884903 0.004600
v -0.034034 -0.896462 -0.001221
v -0.028659 -0.898523 -0.000854
v -0.034034 -0.818062 -0.001221
v -0.063905 -0.884903 0.004600
v -0.064194 -0.884903 -0.003277
v -0.033976 -0.818062 0.000341
v -0.028643 -0.806153 -0.000418
v -0.019175 -0.818062 -0.001766
v 0.008834 -0.884903 -0.013670
v 0.010754 -0.884903 -0.006025
v -0.019556 -0.818062 -0.003281
v -0.024614 -0.806153 -0.001430
v -0.019556 -0.896462 -0.003281
v -0.020243 -0.896462 -0.004685
v -0.024614 -0.898523 -0.001430
v 0.008834 -0.884903 -0.013670
v 0.005366 -0.884903 -0.020749
v -0.028584 -0.898523 -0.001284
v -0.064194 -0.884903 -0.003277
v -0.034034 -0.896462 -0.001221
v -0.033765 -0.896462 -0.002760
v -0.062839 -0.884903 -0.011042
v -0.033765 -0.818062 -0.002760
v -0.064194 -0.884903 -0.003277
v -0.062839 -0.884903 -0.011042
v -0.034034 -0.818062 -0.001221
v -0.028659 -0.806153 -0.000854
v -0.019556 -0.818062 -0.003281
v 0.005366 -0.884903 -0.020749
v 0.008834 -0.884903 -0.013670
v -0.020243 -0.818062 -0.004685
v -0.024806 -0.806153 -0.001822
v -0.020243 -0.896462 -0.004685
v -0.021208 -0.896462 -0.005914
v -0.024806 -0.898523 -0.001822
v 0.005366 -0.884903 -0.020749
v 0.000502 -0.884903 -0.026952
v -0.033182 -0.896462 -0.004210
v -0.033765 -0.896462 -0.002760
v -0.028421 -0.898523 -0.001690
v -0.062839 -0.884903 -0.011042
v -0.059899 -0.884903 -0.018356
v -0.033182 -0.818062 -0.004210
v -0.062839 -0.884903 -0.011042
v -0.059899 -0.884903 -0.018356
v -0.033765 -0.818062 -0.002760
v -0.028584 -0.806153 -0.001284
v -0.020243 -0.818062 -0.004685
v 0.000502 -0.884903 -0.026952
v 0.005366 -0.884903 -0.020749
v -0.021208 -0.818062 -0.005914
v -0.025076 -0.806153 -0.002166
v -0.021208 -0.896462 -0.005914
v -0.022406 -0.896462 -0.006917
v -0.025076 -0.898523 -0.002166
v 0.000502 -0.884903 -0.026952
v -0.005545 -0.884903 -0.032009
v -0.032310 -0.896462 -0.005507
v -0.033182 -0.896462 -0.004210
v -0.028177 -0.898523 -0.002052
v -0.059899 -0.884903 -0.018356
v -0.055502 -0.884903 -0.024899
v -0.032310 -0.818062 -0.005507
v -0.059899 -0.884903 -0.018356
v -0.055502 -0.884903 -0.024899
v -0.033182 -0.818062 -0.004210
v -0.028421 -0.806153 -0.001690
v -0.021208 -0.818062 -0.005914
v -0.005545 -0.884903 -0.032009
v 0.000502 -0.884903 -0.026952
v -0.022406 -0.818062 -0.006917
v -0.025410 -0.806153 -0.002446
v -0.022406 -0.896462 -0.006917
v -0.023788 -0.896462 -0.007648
v -0.025410 -0.898523 -0.002446
v -0.005545 -0.884903 -0.032009
v -0.012511 -0.884903 -0.035697
v -0.031188 -0.896462 -0.006595
v -0.032310 -0.896462 -0.005507
v -0.027864 -0.898523 -0.002356
v -0.055502 -0.884903 -0.024899
v -0.049842 -0.884903 -0.030385
v -0.032310 -0.818062 -0.005507
v -0.031188 -0.818062 -0.006595
v -0.028177 -0.806153 -0.002052
v -0.049842 -0.884903 -0.030385
v -0.055502 -0.884903 -0.024899
v -0.022406 -0.818062 -0.006917
v -0.012511 -0.884903 -0.035697
v -0.005545 -0.884903 -0.032009
v -0.023788 -0.818062 -0.007648
v -0.025797 -0.806153 -0.002650
v -0.023788 -0.896462 -0.007648
v -0.025290 -0.896462 -0.008076
v -0.025797 -0.898523 -0.002650
v -0.012511 -0.884903 -0.035697
v -0.020092 -0.884903 -0.037857
v -0.029864 -0.896462 -0.007425
v -0.031188 -0.896462 -0.006595
v -0.027495 -0.898523 -0.002588
v -0.049842 -0.884903 -0.030385
v -0.043164 -0.884903 -0.034573
v -0.031188 -0.818062 -0.006595
v -0.029864 -0.818062 -0.007425
v -0.027864 -0.806153 -0.002356
v -0.043164 -0.884903 -0.034573
v -0.049842 -0.884903 -0.030385
v -0.023788 -0.818062 -0.007648
v -0.020092 -0.884903 -0.037857
v -0.012511 -0.884903 -0.035697
v -0.025290 -0.818062 -0.008076
v -0.026216 -0.806153 -0.002770
v -0.025290 -0.896462 -0.008076
v -0.026850 -0.896462 -0.008183
v -0.026216 -0.898523 -0.002770
v -0.020092 -0.884903 -0.037857
v -0.027957 -0.884903 -0.038393
v -0.028396 -0.896462 -0.007962
v -0.029864 -0.896462 -0.007425
v -0.027084 -0.898523 -0.002738
v -0.043164 -0.884903 -0.034573
v -0.035761 -0.884903 -0.037282
v -0.029864 -0.818062 -0.007425
v -0.028396 -0.818062 -0.007962
v -0.027495 -0.806153 -0.002588
v -0.035761 -0.884903 -0.037282
v -0.043164 -0.884903 -0.034573
v -0.025290 -0.818062 -0.008076
v -0.027957 -0.884903 -0.038393
v -0.020092 -0.884903 -0.037857
v -0.026850 -0.818062 -0.008183
v -0.026652 -0.806153 -0.002800
v -0.026850 -0.896462 -0.008183
v -0.028396 -0.896462 -0.007962
v -0.026652 -0.898523 -0.002800
v -0.035761 -0.884903 -0.037282
v -0.027957 -0.884903 -0.038393
v -0.027084 -0.806153 -0.002738
v -0.027957 -0.884903 -0.038393
v -0.026850 -0.818062 -0.008183
v -0.028396 -0.818062 -0.007962
v -0.035761 -0.884903 -0.037282
vn -0.05056532800466543 0.9333927631678282 -0.35527608598061783
vn -0.12850510232185014 -0.4102142074118139 -0.9028902163135605
vn -0.12332270022778999 0.9333929017240747 -0.33700030062247494
vn 0.024409669874917543 0.9333929952170148 -0.3580246981653742
vn 0.06202866168723155 -0.4102142111581701 -0.9098773247494253
vn -0.3134114876482232 -0.41021388383316965 -0.856444866246879
vn -0.1906971985875707 0.933392793086677 -0.30399419774841835
vn 0.09831151914266112 0.9333929918602204 -0.3451265969902769
vn 0.24985129327231678 -0.4102144889542571 -0.87709657638264
vn -0.4846349917843611 -0.4102137930459656 -0.7725629869033425
vn -0.2497329009926571 0.9333928037101198 -0.2577040010243412
vn 0.16791940604711963 0.9333929336133795 -0.317144611421023
vn 0.42674758906387616 -0.4102137894875825 -0.8059845793452912
vn -0.6346606282238474 -0.4102137182425203 -0.6549279291251499
vn -0.29785450123438806 0.9333929038682276 -0.2001509008294784
vn 0.23018979439986334 0.9333927772920988 -0.275300893302385
vn 0.5849941237168264 -0.4102136166308767 -0.6996475283651036
vn -0.7569645087184372 -0.41021400472469316 -0.5086543058584921
vn -0.33296127932822284 0.9333928420506525 -0.13384539169025864
vn 0.2823974128059986 0.9333926423269631 -0.22142691004114262
vn 0.7176793288584964 -0.4102135164950345 -0.5627266226277162
vn -0.8461813463083457 -0.4102137224494654 -0.3401497186151241
vn -0.3535119984886545 0.9333927960095302 -0.06170214973620905
vn 0.3222625932528301 0.933392680457679 -0.15787629669456454
vn 0.8189877177871235 -0.41021350890919145 -0.4012281087140427
vn -0.8984063842558729 -0.4102141928111993 -0.15681289725193162
vn -0.35861488572739925 0.9333929628516673 0.013150689476612522
vn 0.348044302570998 0.9333927068949579 -0.08742550064581087
vn 0.8845118757611685 -0.4102141887586443 -0.22217799391151763
vn -0.9113762564351748 -0.4102146803912701 0.03342506840224359
vn -0.34804350080301616 0.9333930021535517 0.08742554020171077
vn 0.3586148854444367 0.9333929621151801 -0.013150749466233626
vn 0.9113765822748604 -0.41021389202185066 -0.03342585934990867
vn -0.8845119791523846 -0.4102142903314031 0.22217739476336218
vn -0.32226271294726894 0.9333926375001047 0.15787630634285912
vn 0.3535120069954834 0.9333928184704731 0.061701761220987236
vn 0.8984063983440393 -0.41021419924388497 0.15681279971095952
vn -0.8189877177871235 -0.41021350890919145 0.4012281087140427
vn -0.28239789169090385 0.93339257253645 0.2214265934848846
vn 0.3329611013834101 0.9333928038781257 0.13384610055611315
vn 0.8461793616697851 -0.4102137814181448 0.34015458459168474
vn -0.7176793288584964 -0.4102135164950345 0.5627266226277162
vn -0.23018870198855187 0.9333928080633845 0.2753017023782736
vn 0.2978549827282836 0.9333929458753448 0.20014998839390294
vn 0.7569645087184372 -0.41021400472469316 0.5086543058584921
vn -0.5849900699338921 -0.41021387891667677 0.6996507640407993
vn -0.16791900637195128 0.9333928354190618 0.31714511203457096
vn 0.24973249376064102 0.9333927766799566 0.25770449356146724
vn 0.6346623135505166 -0.4102140087583769 0.6549261139831638
vn -0.4267527882422908 -0.410213688697969 0.8059818777939342
vn -0.09831062795063747 0.9333926805426939 0.3451276928055412
vn 0.1906960082598147 0.933392640429007 0.3039954131672698
vn 0.48463210128733314 -0.41021360108965454 0.7725649020521719
vn -0.24984319946637362 -0.4102135991238473 0.8770992981266518
vn -0.024408990467191742 0.9333928178652787 0.3580252068526562
vn 0.12332449267501248 0.9333927445601595 0.337000079983527
vn 0.3134116152664181 -0.4102134199816767 0.856445041717816
vn -0.0620317436688475 -0.4102141242619823 0.9098771538143912
vn 0.05056395858427765 0.9333928738662639 0.3552759900527535
vn 0.12850000426125296 -0.4102140136033122 0.9028910299412213
usemtl material_0_0
f 1//1 2//1 3//1
f 2//1 1//1 4//1
f 2//1 4//1 5//1
f 6//2 7//2 8//2
f 7//2 6//2 9//2
f 9//2 6//2 10//2
f 11//3 12//3 13//3
f 12//3 11//3 14//3
f 12//3 14//3 15//3
f 16//4 17//4 18//4
f 17//4 16//4 19//4
f 19//4 16//4 20//4
f 21//5 22//5 23//5
f 22//5 21//5 24//5
f 24//5 21//5 25//5
f 26//6 27//6 28//6
f 27//6 26//6 29//6
f 27//6 29//6 30//6
f 31//7 32//7 33//7
f 32//7 31//7 34//7
f 32//7 34//7 35//7
f 36//8 37//8 38//8
f 37//8 36//8 39//8
f 39//8 36//8 40//8
f 41//9 42//9 43//9
f 42//9 41//9 44//9
f 42//9 44//9 45//9
f 46//10 47//10 48//10
f 47//10 46//10 49//10
f 47//10 49//10 50//10
f 51//11 52//11 53//11
f 52//11 51//11 54//11
f 52//11 54//11 55//11
f 56//12 57//12 58//12
f 57//12 56//12 59//12
f 59//12 56//12 60//12
f 61//13 62//13 63//13
f 62//13 61//13 64//13
f 62//13 64//13 65//13
f 66//14 67//14 68//14
f 67//14 66//14 69//14
f 67//14 69//14 70//14
f 71//15 72//15 73//15
f 72//15 71//15 74//15
f 72//15 74//15 75//15
f 76//16 77//16 78//16
f 77//16 76//16 79//16
f 79//16 76//16 80//16
f 81//17 82//17 83//17
f 82//17 81//17 84//17
f 82//17 84//17 85//17
f 86//18 87//18 88//18
f 87//18 86//18 89//18
f 89//18 86//18 90//18
f 91//19 92//19 93//19
f 92//19 91//19 94//19
f 92//19 94//19 95//19
f 96//20 97//20 98//20
f 97//20 96//20 99//20
f 99//20 96//20 100//20
f 101//21 102//21 103//21
f 102//21 101//21 104//21
f 104//21 101//21 105//21
f 106//22 107//22 108//22
f 107//22 106//22 109//22
f 109//22 106//22 110//22
f 111//23 112//23 113//23
f 112//23 111//23 114//23
f 112//23 114//23 115//23
f 116//24 117//24 118//24
f 117//24 116//24 119//24
f 119//24 116//24 120//24
f 121//25 122//25 123//25
f 122//25 121//25 124//25
f 124//25 121//25 125//25
f 126//26 127//26 128//26
f 127//26 126//26 129//26
f 129//26 126//26 130//26
f 131//27 132//27 133//27
f 132//27 131//27 134//27
f 134//27 131//27 135//27
f 136//28 137//28 138//28
f 137//28 136//28 139//28
f 139//28 136//28 140//28
f 141//29 142//29 143//29
f 142//29 141//29 144//29
f 144//29 141//29 145//29
f 146//30 147//30 148//30
f 147//30 146//30 149//30
f 149//30 146//30 150//30
f 151//31 152//31 153//31
f 152//31 151//31 154//31
f 152//31 154//31 155//31
f 156//32 157//32 158//32
f 157//32 156//32 159//32
f 159//32 156//32 160//32
f 161//33 162//33 163//33
f 162//33 161//33 164//33
f 164//33 161//33 165//33
f 166//34 167//34 168//34
f 167//34 166//34 169//34
f 169//34 166//34 170//34
f 171//35 172//35 173//35
f 172//35 171//35 174//35
f 172//35 174//35 175//35
f 176//36 177//36 178//36
f 177//36 176//36 179//36
f 177//36 179//36 180//36
f 181//37 182//37 183//37
f 182//37 181//37 184//37
f 184//37 181//37 185//37
f 186//38 187//38 188//38
f 187//38 186//38 189//38
f 189//38 186//38 190//38
f 191//39 192//39 193//39
f 192//39 191//39 194//39
f 192//39 194//39 195//39
f 196//40 197//40 198//40
f 197//40 196//40 199//40
f 199//40 196//40 200//40
f 201//41 202//41 203//41
f 202//41 201//41 204//41
f 204//41 201//41 205//41
f 206//42 207//42 208//42
f 207//42 206//42 209//42
f 209//42 206//42 210//42
f 211//43 212//43 213//43
f 212//43 211//43 214//43
f 212//43 214//43 215//43
f 216//44 217//44 218//44
f 217//44 216//44 219//44
f 219//44 216//44 220//44
f 221//45 222//45 223//45
f 222//45 221//45 224//45
f 224//45 221//45 225//45
f 226//46 227//46 228//46
f 227//46 226//46 229//46
f 229//46 226//46 230//46
f 231//47 232//47 233//47
f 232//47 231//47 234//47
f 232//47 234//47 235//47
f 236//48 237//48 238//48
f 237//48 236//48 239//48
f 239//48 236//48 240//48
f 241//49 242//49 243//49
f 242//49 241//49 244//49
f 244//49 241//49 245//49
f 246//50 247//50 248//50
f 247//50 246//50 249//50
f 249//50 246//50 250//50
f 251//51 252//51 253//51
f 252//51 251//51 254//51
f 252//51 254//51 255//51
f 256//52 257//52 258//52
f 257//52 256//52 259//52
f 259//52 256//52 260//52
f 261//53 262//53 263//53
f 262//53 261//53 264//53
f 264//53 261//53 265//53
f 266//54 267//54 268//54
f 267//54 266//54 269//54
f 269//54 266//54 270//54
f 271//55 272//55 273//55
f 272//55 271//55 274//55
f 272//55 274//55 275//55
f 276//56 277//56 278//56
f 277//56 276//56 279//56
f 279//56 276//56 280//56
f 281//57 282//57 283//57
f 282//57 281//57 284//57
f 284//57 281//57 285//57
f 286//58 287//58 288//58
f 287//58 286//58 289//58
f 289//58 286//58 290//58
f 291//59 292//59 293//59
f 292//59 291//59 294//59
f 294//59 291//59 295//59
f 296//60 297//60 298//60
f 297//60 296//60 299//60
f 297//60 299//60 300//60
