# SSTK version 0.8.0
# 5
mtllib original-5.mtl
o #ID23
v -0.041052 -0.922497 0.082236
v -0.006062 -0.922497 0.080953
v -0.023490 -0.922497 0.083433
v -0.057982 -0.922497 0.077413
v 0.010468 -0.922497 0.074903
v -0.073539 -0.922497 0.069176
v 0.025380 -0.922497 0.065549
v -0.087043 -0.922497 0.057885
v 0.038021 -0.922497 0.053299
v -0.097905 -0.922497 0.044032
v 0.047839 -0.922497 0.038688
v -0.105649 -0.922497 0.028224
v 0.054405 -0.922497 0.022356
v -0.109938 -0.922497 0.011152
v 0.057431 -0.922497 0.005015
v -0.110583 -0.922497 -0.006439
v 0.056787 -0.922497 -0.012576
v -0.107556 -0.922497 -0.023780
v 0.052498 -0.922497 -0.029649
v -0.100990 -0.922497 -0.040113
v 0.044754 -0.922497 -0.045457
v -0.091173 -0.922497 -0.054724
v 0.033892 -0.922497 -0.059309
v -0.078531 -0.922497 -0.066974
v 0.020387 -0.922497 -0.070601
v -0.063619 -0.922497 -0.076328
v 0.004830 -0.922497 -0.078838
v -0.047089 -0.922497 -0.082377
v -0.012099 -0.922497 -0.083660
v -0.029661 -0.922497 -0.084858
vn 0 -1 0
usemtl material_0_0
f 1//1 2//1 3//1
f 2//1 1//1 4//1
f 2//1 4//1 5//1
f 5//1 4//1 6//1
f 5//1 6//1 7//1
f 7//1 6//1 8//1
f 7//1 8//1 9//1
f 9//1 8//1 10//1
f 9//1 10//1 11//1
f 11//1 10//1 12//1
f 11//1 12//1 13//1
f 13//1 12//1 14//1
f 13//1 14//1 15//1
f 15//1 14//1 16//1
f 15//1 16//1 17//1
f 17//1 16//1 18//1
f 17//1 18//1 19//1
f 19//1 18//1 20//1
f 19//1 20//1 21//1
f 21//1 20//1 22//1
f 21//1 22//1 23//1
f 23//1 22//1 24//1
f 23//1 24//1 25//1
f 25//1 24//1 26//1
f 25//1 26//1 27//1
f 27//1 26//1 28//1
f 27//1 28//1 29//1
f 29//1 28//1 30//1
