# SSTK version 0.8.0
# 36
mtllib original-36.mtl
o mesh22/mesh22-geometry#mesh22-geometry
v 0.233689 -0.295373 0.219230
v -0.225773 -0.295373 -0.227459
v 0.233689 -0.295373 -0.227459
v -0.225773 -0.295373 0.219230
v -0.225773 -0.274953 -0.227459
v 0.233689 -0.274953 0.219230
v 0.233689 -0.274953 -0.227459
v -0.225773 -0.274953 0.219230
vn 0 -1 0
vn 0 1 0
vn 0 0 -1
vn 0 0 1
vn 1 0 0
vn -1 0 0
usemtl material_0_0
f 1//1 2//1 3//1
f 2//1 1//1 4//1
f 3//2 2//2 1//2
f 4//2 1//2 2//2
f 5//3 3//3 2//3
f 2//4 3//4 5//4
f 3//5 6//5 1//5
f 1//6 6//6 3//6
f 4//6 5//6 2//6
f 2//5 5//5 4//5
f 3//3 5//3 7//3
f 7//4 5//4 3//4
f 6//5 3//5 7//5
f 7//6 3//6 6//6
f 5//6 4//6 8//6
f 8//5 4//5 5//5
f 5//2 6//2 7//2
f 7//1 6//1 5//1
f 6//2 5//2 8//2
f 8//1 5//1 6//1
