# SSTK version 0.8.0
# 45
mtllib original-45.mtl
o mesh23/mesh23-geometry#mesh23-geometry
v 0.547107 -0.066584 -0.506233
v 0.578464 -0.070125 -0.506233
v 0.545879 -0.070125 -0.506233
v 0.549093 -0.063405 -0.506233
v 0.551739 -0.060750 -0.506233
v 0.554910 -0.058752 -0.506233
v 0.558447 -0.057511 -0.506233
v 0.562171 -0.057091 -0.506233
v 0.565896 -0.057511 -0.506233
v 0.569433 -0.058752 -0.506233
v 0.572604 -0.060750 -0.506233
v 0.575249 -0.063405 -0.506233
v 0.577236 -0.066584 -0.506233
vn 0 0 -1
vn 0 0 1
usemtl material_0_0
f 1//1 2//1 3//1
f 2//1 1//1 4//1
f 3//2 2//2 1//2
f 4//2 1//2 2//2
f 2//1 4//1 5//1
f 5//2 4//2 2//2
f 2//1 5//1 6//1
f 6//2 5//2 2//2
f 2//1 6//1 7//1
f 7//2 6//2 2//2
f 2//1 7//1 8//1
f 8//2 7//2 2//2
f 2//1 8//1 9//1
f 9//2 8//2 2//2
f 2//1 9//1 10//1
f 10//2 9//2 2//2
f 2//1 10//1 11//1
f 11//2 10//2 2//2
f 2//1 11//1 12//1
f 12//2 11//2 2//2
f 2//1 12//1 13//1
f 13//2 12//2 2//2
