# SSTK version 0.8.0
# 35
mtllib original-35.mtl
o mesh25/mesh25-geometry#mesh25-geometry
v 0.570940 -0.037540 0.561357
v 0.588933 -0.037540 0.560752
v 0.569479 -0.037540 0.560752
v 0.578393 -0.037540 0.567076
v 0.584112 -0.037540 0.574529
v 0.587707 -0.037540 0.583209
v 0.588933 -0.037540 0.592523
vn 0 1 0
vn 0 -1 0
usemtl material_0_0
f 1//1 2//1 3//1
f 2//1 1//1 4//1
f 3//2 2//2 1//2
f 4//2 1//2 2//2
f 2//1 4//1 5//1
f 5//2 4//2 2//2
f 2//1 5//1 6//1
f 6//2 5//2 2//2
f 2//1 6//1 7//1
f 7//2 6//2 2//2
