# SSTK version 0.8.0
# 24
mtllib original-24.mtl
o mesh26/mesh26-geometry#mesh26-geometry
v -0.538867 -0.037540 0.593927
v -0.537640 -0.037540 0.616384
v -0.537640 -0.037540 0.584613
v -0.542462 -0.037540 0.602607
v -0.548181 -0.037540 0.610060
v -0.555634 -0.037540 0.615779
v -0.557095 -0.037540 0.616384
vn 0 1 0
vn 0 -1 0
usemtl material_0_0
f 1//1 2//1 3//1
f 2//1 1//1 4//1
f 3//2 2//2 1//2
f 4//2 1//2 2//2
f 2//1 4//1 5//1
f 5//2 4//2 2//2
f 2//1 5//1 6//1
f 6//2 5//2 2//2
f 2//1 6//1 7//1
f 7//2 6//2 2//2
