# SSTK version 0.8.0
# 10
mtllib original-10.mtl
o mesh24/mesh24-geometry#mesh24-geometry
v -0.611342 -0.037540 -0.600452
v -0.589418 -0.037540 -0.599847
v -0.587957 -0.037540 -0.600452
v -0.596871 -0.037540 -0.594128
v -0.602590 -0.037540 -0.586675
v -0.606185 -0.037540 -0.577996
v -0.607412 -0.037540 -0.568682
v -0.611342 -0.037540 -0.536911
v -0.606185 -0.037540 -0.559368
v -0.602590 -0.037540 -0.550688
v -0.596871 -0.037540 -0.543235
v -0.589418 -0.037540 -0.537516
v -0.587957 -0.037540 -0.536911
vn 0 1 0
vn 0 -1 0
usemtl material_0_0
f 1//1 2//1 3//1
f 2//1 1//1 4//1
f 3//2 2//2 1//2
f 4//2 1//2 2//2
f 4//1 1//1 5//1
f 5//2 1//2 4//2
f 5//1 1//1 6//1
f 6//2 1//2 5//2
f 6//1 1//1 7//1
f 7//2 1//2 6//2
f 7//1 1//1 8//1
f 8//2 1//2 7//2
f 7//1 8//1 9//1
f 9//2 8//2 7//2
f 9//1 8//1 10//1
f 10//2 8//2 9//2
f 10//1 8//1 11//1
f 11//2 8//2 10//2
f 11//1 8//1 12//1
f 12//2 8//2 11//2
f 12//1 8//1 13//1
f 13//2 8//2 12//2
