# SSTK version 0.8.0
# 33
mtllib original-33.mtl
o mesh23/mesh23-geometry#mesh23-geometry
v 0.531855 -0.066584 0.645474
v 0.563213 -0.070125 0.645474
v 0.530627 -0.070125 0.645474
v 0.533842 -0.063405 0.645474
v 0.536488 -0.060750 0.645474
v 0.539659 -0.058752 0.645474
v 0.543196 -0.057511 0.645474
v 0.546920 -0.057091 0.645474
v 0.550644 -0.057511 0.645474
v 0.554181 -0.058752 0.645474
v 0.557352 -0.060750 0.645474
v 0.559998 -0.063405 0.645474
v 0.561985 -0.066584 0.645474
vn 0 0 -1
vn 0 0 1
usemtl material_0_0
f 1//1 2//1 3//1
f 2//1 1//1 4//1
f 3//2 2//2 1//2
f 4//2 1//2 2//2
f 2//1 4//1 5//1
f 5//2 4//2 2//2
f 2//1 5//1 6//1
f 6//2 5//2 2//2
f 2//1 6//1 7//1
f 7//2 6//2 2//2
f 2//1 7//1 8//1
f 8//2 7//2 2//2
f 2//1 8//1 9//1
f 9//2 8//2 2//2
f 2//1 9//1 10//1
f 10//2 9//2 2//2
f 2//1 10//1 11//1
f 11//2 10//2 2//2
f 2//1 11//1 12//1
f 12//2 11//2 2//2
f 2//1 12//1 13//1
f 13//2 12//2 2//2
