# SSTK version 0.8.0
# 46
mtllib original-46.mtl
o mesh24/mesh24-geometry#mesh24-geometry
v 0.528281 -0.037540 -0.590954
v 0.550205 -0.037540 -0.590349
v 0.551667 -0.037540 -0.590954
v 0.542752 -0.037540 -0.584630
v 0.537033 -0.037540 -0.577177
v 0.533438 -0.037540 -0.568498
v 0.532212 -0.037540 -0.559184
v 0.528281 -0.037540 -0.527413
v 0.533438 -0.037540 -0.549870
v 0.537033 -0.037540 -0.541190
v 0.542752 -0.037540 -0.533737
v 0.550205 -0.037540 -0.528018
v 0.551667 -0.037540 -0.527413
vn 0 1 0
vn 0 -1 0
usemtl material_0_0
f 1//1 2//1 3//1
f 2//1 1//1 4//1
f 3//2 2//2 1//2
f 4//2 1//2 2//2
f 4//1 1//1 5//1
f 5//2 1//2 4//2
f 5//1 1//1 6//1
f 6//2 1//2 5//2
f 6//1 1//1 7//1
f 7//2 1//2 6//2
f 7//1 1//1 8//1
f 8//2 1//2 7//2
f 7//1 8//1 9//1
f 9//2 8//2 7//2
f 9//1 8//1 10//1
f 10//2 8//2 9//2
f 10//1 8//1 11//1
f 11//2 8//2 10//2
f 11//1 8//1 12//1
f 12//2 8//2 11//2
f 12//1 8//1 13//1
f 13//2 8//2 12//2
