# SSTK version 0.8.0
# 47
mtllib original-47.mtl
o mesh25/mesh25-geometry#mesh25-geometry
v 0.586192 -0.037540 -0.590349
v 0.604185 -0.037540 -0.590954
v 0.584730 -0.037540 -0.590954
v 0.593645 -0.037540 -0.584630
v 0.599363 -0.037540 -0.577177
v 0.602959 -0.037540 -0.568498
v 0.604185 -0.037540 -0.559184
vn 0 1 0
vn 0 -1 0
usemtl material_0_0
f 1//1 2//1 3//1
f 2//1 1//1 4//1
f 3//2 2//2 1//2
f 4//2 1//2 2//2
f 2//1 4//1 5//1
f 5//2 4//2 2//2
f 2//1 5//1 6//1
f 6//2 5//2 2//2
f 2//1 6//1 7//1
f 7//2 6//2 2//2
