# SSTK version 0.8.0
# 44
mtllib original-44.mtl
o Group32/mesh61/mesh61-geometry#mesh61-geometry
v 0.662673 0.135898 0.378218
v -0.631748 0.135898 -0.633048
v -0.631748 0.135898 0.378218
v 0.662673 0.135898 -0.633048
v -0.631748 0.115673 0.378218
v 0.662673 0.115673 -0.633048
v -0.631748 0.115673 -0.633048
v 0.662673 0.115673 0.378218
vt 0.666667 0
vt 0 0.520833
vt 0 0
vt 0.666667 0.520833
vt -0.520833 0.010417
vt 0 0.010417
vt 0.666667 0.010417
vt 0.520833 0
vt 0.520833 0.010417
vt -0.666667 0
vt -0.666667 0.010417
vt -0.520833 0
vt -0.666667 0.520833
vn 0 1 0
vn 0 -1 0
vn -1 0 0
vn 1 0 0
vn 0 0 1
vn 0 0 -1
usemtl material_0_0
f 1/1/1 2/2/1 3/3/1
f 2/2/1 1/1/1 4/4/1
f 3/3/2 2/2/2 1/1/2
f 4/4/2 1/1/2 2/2/2
f 2/5/3 5/3/3 3/6/3
f 3/6/4 5/3/4 2/5/4
f 5/3/5 1/7/5 3/6/5
f 3/6/6 1/7/6 5/3/6
f 1/6/4 6/8/4 4/9/4
f 4/9/3 6/8/3 1/6/3
f 6/10/6 2/6/6 4/11/6
f 4/11/5 2/6/5 6/10/5
f 5/3/3 2/5/3 7/12/3
f 7/12/4 2/5/4 5/3/4
f 1/7/5 5/3/5 8/1/5
f 8/1/6 5/3/6 1/7/6
f 6/8/4 1/6/4 8/3/4
f 8/3/3 1/6/3 6/8/3
f 2/6/6 6/10/6 7/3/6
f 7/3/5 6/10/5 2/6/5
f 6/13/2 5/3/2 7/2/2
f 7/2/1 5/3/1 6/13/1
f 5/3/2 6/13/2 8/10/2
f 8/10/1 6/13/1 5/3/1
