# SSTK version 0.8.0
# 32
mtllib original-32.mtl
o Group26/mesh48/mesh48-geometry#mesh48-geometry
v 0.605368 0.013897 -0.622936
v 0.625593 -0.053793 -0.622936
v 0.605368 -0.053793 -0.622936
v 0.625593 0.013897 -0.622936
v 0.605368 -0.053793 0.347983
v 0.605368 0.013897 0.347983
v 0.625593 0.013897 0.347983
v 0.625593 -0.053793 0.347983
vt 0.010417 0.034862
vt 0 0
vt 0.010417 0
vt 0 0.034862
vt -0.010417 0.500053
vt -0.010417 0
vt 0.500053 0
vt 0.010417 0.500053
vt -0.500053 0.034862
vt 0 0.500053
vt 0.500053 0.034862
vt -0.500053 0
vt -0.010417 0.034862
vn 0 0 -1
vn 0 0 1
vn 0 -1 0
vn 0 1 0
vn -1 0 0
vn 1 0 0
usemtl material_0_0
f 1/1/1 2/2/1 3/3/1
f 2/2/1 1/1/1 4/4/1
f 3/3/2 2/2/2 1/1/2
f 4/4/2 1/1/2 2/2/2
f 2/2/3 5/5/3 3/6/3
f 3/6/4 5/5/4 2/2/4
f 5/7/5 1/4/5 3/2/5
f 3/2/6 1/4/6 5/7/6
f 6/8/4 4/2/4 1/3/4
f 1/3/3 4/2/3 6/8/3
f 7/9/6 2/2/6 4/4/6
f 4/4/5 2/2/5 7/9/5
f 5/5/3 2/2/3 8/10/3
f 8/10/4 2/2/4 5/5/4
f 1/4/5 5/7/5 6/11/5
f 6/11/6 5/7/6 1/4/6
f 4/2/4 6/8/4 7/10/4
f 7/10/3 6/8/3 4/2/3
f 2/2/6 7/9/6 8/12/6
f 8/12/5 7/9/5 2/2/5
f 7/4/2 5/6/2 8/2/2
f 8/2/1 5/6/1 7/4/1
f 5/6/2 7/4/2 6/13/2
f 6/13/1 7/4/1 5/6/1
