# SSTK version 0.8.0
# 18
mtllib original-18.mtl
o Group16/mesh31/mesh31-geometry#mesh31-geometry
v -0.574443 -0.118707 -0.643161
v 0.605368 -0.186125 -0.643161
v -0.574443 -0.186125 -0.643161
v 0.605368 -0.118707 -0.643161
v -0.574443 -0.186125 -0.622936
v 0.605368 -0.118707 -0.622936
v 0.605368 -0.186125 -0.622936
v -0.574443 -0.118707 -0.622936
vt 0 0.034722
vt -0.607639 0
vt 0 0
vt -0.607639 0.034722
vt -0.607639 0.010417
vt 0 0.010417
vt -0.010417 0.034722
vt -0.010417 0
vt 0.607639 0
vt 0.607639 0.010417
vt 0.010417 0
vt 0.010417 0.034722
vt 0.607639 0.034722
vn 0 0 -1
vn 0 0 1
vn 0 -1 0
vn 0 1 0
vn -1 0 0
vn 1 0 0
usemtl material_0_0
f 1/1/1 2/2/1 3/3/1
f 2/2/1 1/1/1 4/4/1
f 3/3/2 2/2/2 1/1/2
f 4/4/2 1/1/2 2/2/2
f 2/5/3 5/3/3 3/6/3
f 3/6/4 5/3/4 2/5/4
f 5/3/5 1/7/5 3/8/5
f 3/8/6 1/7/6 5/3/6
f 1/6/4 6/9/4 4/10/4
f 4/10/3 6/9/3 1/6/3
f 6/1/6 2/11/6 4/12/6
f 4/12/5 2/11/5 6/1/5
f 5/3/3 2/5/3 7/2/3
f 7/2/4 2/5/4 5/3/4
f 1/7/5 5/3/5 8/1/5
f 8/1/6 5/3/6 1/7/6
f 6/9/4 1/6/4 8/3/4
f 8/3/3 1/6/3 6/9/3
f 2/11/6 6/1/6 7/3/6
f 7/3/5 6/1/5 2/11/5
f 6/13/2 5/3/2 7/9/2
f 7/9/1 5/3/1 6/13/1
f 5/3/2 6/13/2 8/1/2
f 8/1/1 6/13/1 5/3/1
