# SSTK version 0.8.0
# 22
mtllib original-22.mtl
o Group20/mesh37/mesh37-geometry#mesh37-geometry
v -0.621635 0.115673 0.320913
v -0.621635 0.078525 -0.575743
v -0.621635 0.115673 -0.575743
v -0.621635 0.078525 0.320913
v -0.631748 0.115673 -0.575743
v -0.641860 0.078525 0.320913
v -0.641860 0.078525 -0.575743
v -0.641860 0.145943 -0.575743
v -0.631748 0.115673 0.320913
v -0.631748 0.145943 -0.575743
v -0.631748 0.145943 0.320913
v -0.641860 0.145943 0.320913
vt -0.461806 0.019132
vt 0 0
vt 0 0.019132
vt -0.461806 0
vt 0.005208 0.019132
vt 0.005208 0
vt 0 0.461806
vt -0.010417 0
vt 0.010417 0.034722
vt 0.005208 0.461806
vt -0.005208 0.019132
vt -0.010417 0.461806
vt 0.010417 0
vt 0.005208 0.034722
vt -0.461806 0.034722
vt -0.010417 0.034722
vt 0.461806 0
vt 0 0.034722
vt -0.005208 0.034722
vt 0.461806 0.034722
vt 0.010417 0.461806
vn 1 0 0
vn -1 0 0
vn 0 0 -1
vn 0 0 1
vn 0 1 0
vn 0 -1 0
usemtl material_0_0
f 1/1/1 2/2/1 3/3/1
f 2/2/1 1/1/1 4/4/1
f 3/3/2 2/2/2 1/1/2
f 4/4/2 1/1/2 2/2/2
f 3/3/3 2/2/3 5/5/3
f 5/5/4 2/2/4 3/3/4
f 5/6/5 1/7/5 3/2/5
f 3/2/6 1/7/6 5/6/6
f 1/3/4 6/8/4 4/2/4
f 4/2/3 6/8/3 1/3/3
f 4/7/6 7/8/6 2/2/6
f 2/2/5 7/8/5 4/7/5
f 2/2/3 8/9/3 5/5/3
f 5/5/4 8/9/4 2/2/4
f 1/7/5 5/6/5 9/10/5
f 9/10/6 5/6/6 1/7/6
f 6/8/4 1/3/4 9/11/4
f 9/11/3 1/3/3 6/8/3
f 7/8/6 4/7/6 6/12/6
f 6/12/5 4/7/5 7/8/5
f 8/9/3 2/2/3 7/13/3
f 7/13/4 2/2/4 8/9/4
f 5/5/3 8/9/3 10/14/3
f 10/14/4 8/9/4 5/5/4
f 5/3/1 11/15/1 9/1/1
f 9/1/2 11/15/2 5/3/2
f 6/8/4 9/11/4 12/16/4
f 12/16/3 9/11/3 6/8/3
f 6/17/2 8/18/2 7/2/2
f 7/2/1 8/18/1 6/17/1
f 8/13/5 11/10/5 10/6/5
f 10/6/6 11/10/6 8/13/6
f 11/15/1 5/3/1 10/18/1
f 10/18/2 5/3/2 11/15/2
f 12/16/4 9/11/4 11/19/4
f 11/19/3 9/11/3 12/16/3
f 8/18/2 6/17/2 12/20/2
f 12/20/1 6/17/1 8/18/1
f 11/10/5 8/13/5 12/21/5
f 12/21/6 8/13/6 11/10/6
