mtllib new-1.mtl
v -0.711488 -0.568220 -0.310573
v -0.711488 -0.530050 -0.310573
v -0.685417 -0.568220 -0.310573
v -0.711488 -0.517327 -0.336020
v -0.685417 -0.530050 -0.310573
v -0.711488 -0.606390 -0.310573
v -0.711488 -0.517327 -0.310573
v -0.711488 -0.606390 -0.336020
v -0.685417 -0.606390 -0.336020
v -0.685417 -0.517327 -0.310573
v -0.685417 -0.606390 -0.310573
v -0.712903 -0.517327 -0.309158
v -0.685417 -0.517327 -0.336020
v -0.684001 -0.606390 -0.309158
v -0.712903 -0.606390 -0.337436
v -0.684001 -0.517327 -0.309158
v -0.712903 -0.517327 -0.337436
v -0.684001 -0.606390 -0.337436
v -0.684001 -0.517327 -0.337436
v -0.712903 -0.606390 -0.309158
v -0.684001 -0.515622 -0.309158
v -0.712903 -0.515622 -0.337436
v -0.684001 -0.608094 -0.309158
v -0.684001 -0.608094 -0.337436
v -0.712903 -0.608094 -0.309158
v -0.712903 -0.515622 -0.309158
v -0.684001 -0.515622 -0.337436
v -0.712903 -0.608094 -0.337436
v -0.700077 -0.608094 -0.321671
v -0.696154 -0.608094 -0.323296
v -0.700077 -0.608094 -0.324921
v -0.700750 -0.608094 -0.323296
v -0.698452 -0.608094 -0.320998
v -0.696827 -0.608094 -0.321671
v -0.696827 -0.608094 -0.324921
v -0.698452 -0.608094 -0.325594
v -0.700077 -0.610280 -0.321671
v -0.696154 -0.610280 -0.323296
v -0.696827 -0.610280 -0.324921
v -0.698452 -0.610280 -0.325594
v -0.700750 -0.610280 -0.323296
v -0.698452 -0.610280 -0.320998
v -0.696827 -0.610280 -0.321671
v -0.700077 -0.610280 -0.324921
v -0.711622 -0.614649 -0.310126
v -0.698452 -0.614649 -0.304672
v -0.685283 -0.614649 -0.310126
v -0.685283 -0.614649 -0.336466
v -0.698452 -0.614649 -0.341922
v -0.711622 -0.614649 -0.336466
v -0.717078 -0.614649 -0.323296
v -0.679827 -0.614649 -0.323296
v -0.711622 -0.617927 -0.310126
v -0.679827 -0.617927 -0.323296
v -0.698452 -0.617927 -0.304672
v -0.685283 -0.617927 -0.336466
v -0.698452 -0.617927 -0.341922
v -0.717078 -0.617927 -0.323296
v -0.685283 -0.617927 -0.310126
v -0.711622 -0.617927 -0.336466
vn 0.000000 1.000000 0.000000
vn 0.000000 -1.000000 0.000000
vn 1.000000 0.000000 0.000000
vn -1.000000 0.000000 0.000000
vn 0.000000 0.000000 1.000000
vn 0.000000 0.000000 -1.000000
vn -0.707107 0.000000 -0.707107
vn 0.707107 0.000000 0.707107
vn 0.707107 0.000000 -0.707107
vn -0.707107 0.000000 0.707107
vn 0.000000 0.966002 -0.258533
vn -0.182811 0.966002 -0.182811
vn 0.000000 -0.966002 0.258533
vn 0.182811 -0.966002 0.182811
vn 0.182811 0.966002 -0.182811
vn -0.182811 -0.966002 0.182811
vn 0.182811 0.966002 0.182811
vn 0.258533 0.966002 0.000000
vn -0.182811 -0.966002 -0.182811
vn -0.258533 -0.966002 0.000000
vn -0.258533 0.966002 0.000000
vn -0.182811 0.966002 0.182811
vn 0.182811 -0.966002 -0.182811
vn 0.258533 -0.966002 0.000000
vn 0.000000 0.966002 0.258533
vn 0.000000 -0.966002 -0.258533
usemtl material-0
f 2//4 4//4 1//4
f 1//3 4//3 2//3
f 6//5 3//5 1//5
f 1//6 3//6 6//6
f 4//4 2//4 7//4
f 7//3 2//3 4//3
f 8//4 1//4 4//4
f 4//3 1//3 8//3
f 3//3 9//3 5//3
f 5//4 9//4 3//4
f 10//5 2//5 5//5
f 5//6 2//6 10//6
f 3//5 6//5 11//5
f 11//6 6//6 3//6
f 1//4 8//4 6//4
f 6//3 8//3 1//3
f 2//5 10//5 7//5
f 7//6 10//6 2//6
f 7//2 12//2 4//2
f 4//1 12//1 7//1
f 4//6 9//6 8//6
f 8//5 9//5 4//5
f 9//3 3//3 11//3
f 11//4 3//4 9//4
f 13//3 5//3 9//3
f 9//4 5//4 13//4
f 5//3 13//3 10//3
f 10//4 13//4 5//4
f 6//1 14//1 11//1
f 11//2 14//2 6//2
f 8//1 15//1 6//1
f 6//2 15//2 8//2
f 16//2 7//2 10//2
f 10//1 7//1 16//1
f 12//2 7//2 16//2
f 16//1 7//1 12//1
f 17//2 4//2 12//2
f 12//1 4//1 17//1
f 9//6 4//6 13//6
f 13//5 4//5 9//5
f 18//1 8//1 9//1
f 9//2 8//2 18//2
f 11//1 14//1 9//1
f 9//2 14//2 11//2
f 13//2 19//2 10//2
f 10//1 19//1 13//1
f 6//1 20//1 14//1
f 14//2 20//2 6//2
f 15//1 8//1 18//1
f 18//2 8//2 15//2
f 20//1 6//1 15//1
f 15//2 6//2 20//2
f 16//2 10//2 19//2
f 19//1 10//1 16//1
f 21//5 12//5 16//5
f 16//6 12//6 21//6
f 4//2 17//2 19//2
f 19//1 17//1 4//1
f 12//4 22//4 17//4
f 17//3 22//3 12//3
f 4//2 19//2 13//2
f 13//1 19//1 4//1
f 18//1 9//1 14//1
f 14//2 9//2 18//2
f 20//5 23//5 14//5
f 14//6 23//6 20//6
f 24//6 15//6 18//6
f 18//5 15//5 24//5
f 15//4 25//4 20//4
f 20//3 25//3 15//3
f 19//3 21//3 16//3
f 16//4 21//4 19//4
f 12//5 21//5 26//5
f 26//6 21//6 12//6
f 17//6 27//6 19//6
f 19//5 27//5 17//5
f 22//4 12//4 26//4
f 26//3 12//3 22//3
f 27//6 17//6 22//6
f 22//5 17//5 27//5
f 14//3 24//3 18//3
f 18//4 24//4 14//4
f 23//5 20//5 25//5
f 25//6 20//6 23//6
f 24//3 14//3 23//3
f 23//4 14//4 24//4
f 15//6 24//6 28//6
f 28//5 24//5 15//5
f 25//4 15//4 28//4
f 28//3 15//3 25//3
f 21//3 19//3 27//3
f 27//4 19//4 21//4
f 21//1 22//1 26//1
f 26//2 22//2 21//2
f 22//1 21//1 27//1
f 27//2 21//2 22//2
f 25//2 29//2 23//2
f 23//1 29//1 25//1
f 23//2 30//2 24//2
f 24//1 30//1 23//1
f 31//2 28//2 24//2
f 24//1 28//1 31//1
f 28//2 31//2 25//2
f 25//1 31//1 28//1
f 29//2 25//2 32//2
f 32//1 25//1 29//1
f 23//2 29//2 33//2
f 33//1 29//1 23//1
f 23//2 34//2 30//2
f 30//1 34//1 23//1
f 35//2 24//2 30//2
f 30//1 24//1 35//1
f 31//2 24//2 36//2
f 36//1 24//1 31//1
f 25//2 31//2 32//2
f 32//1 31//1 25//1
f 32//4 37//10 29//10
f 29//9 37//9 32//3
f 37//10 33//5 29//10
f 29//9 33//6 37//9
f 23//2 33//2 34//2
f 34//1 33//1 23//1
f 34//8 38//3 30//3
f 30//4 38//4 34//7
f 36//2 24//2 35//2
f 35//1 24//1 36//1
f 30//3 39//9 35//9
f 35//10 39//10 30//4
f 40//6 31//7 36//6
f 36//5 31//8 40//5
f 31//7 41//4 32//4
f 32//3 41//3 31//8
f 37//10 32//4 41//4
f 41//3 32//3 37//9
f 33//5 37//10 42//5
f 42//6 37//9 33//6
f 42//5 34//8 33//5
f 33//6 34//7 42//6
f 38//3 34//8 43//8
f 43//7 34//7 38//4
f 39//9 30//3 38//3
f 38//4 30//4 39//10
f 39//9 36//6 35//9
f 35//10 36//5 39//10
f 31//7 40//6 44//7
f 44//8 40//5 31//8
f 36//6 39//9 40//6
f 40//5 39//10 36//5
f 41//4 31//7 44//7
f 44//8 31//8 41//3
f 44//2 37//2 41//2
f 41//1 37//1 44//1
f 41//21 45//22 37//22
f 37//23 45//23 41//24
f 37//22 46//25 42//25
f 42//26 46//26 37//23
f 37//2 40//2 42//2
f 42//1 40//1 37//1
f 34//8 42//5 43//8
f 43//7 42//6 34//7
f 47//17 38//18 43//17
f 43//19 38//20 47//19
f 43//2 39//2 38//2
f 38//1 39//1 43//1
f 38//18 48//15 39//15
f 39//16 48//16 38//20
f 37//2 44//2 40//2
f 40//1 44//1 37//1
f 49//11 44//12 40//11
f 40//13 44//14 49//13
f 42//2 40//2 39//2
f 39//1 40//1 42//1
f 39//15 49//11 40//11
f 40//13 49//13 39//16
f 50//12 41//21 44//12
f 44//14 41//24 50//14
f 45//22 41//21 51//21
f 51//24 41//24 45//23
f 46//25 37//22 45//22
f 45//23 37//23 46//26
f 46//25 43//17 42//25
f 42//26 43//19 46//26
f 42//2 39//2 43//2
f 43//1 39//1 42//1
f 38//18 47//17 52//18
f 52//20 47//19 38//20
f 43//17 46//25 47//17
f 47//19 46//26 43//19
f 48//15 38//18 52//18
f 52//20 38//20 48//16
f 49//11 39//15 48//15
f 48//16 39//16 49//13
f 44//12 49//11 50//12
f 50//14 49//13 44//14
f 41//21 50//12 51//21
f 51//24 50//14 41//24
f 51//4 53//10 45//10
f 45//9 53//9 51//3
f 53//10 46//5 45//10
f 45//9 46//6 53//9
f 47//8 54//3 52//3
f 52//4 54//4 47//7
f 55//5 47//8 46//5
f 46//6 47//7 55//6
f 52//3 56//9 48//9
f 48//10 56//10 52//4
f 56//9 49//6 48//9
f 48//10 49//5 56//10
f 57//6 50//7 49//6
f 49//5 50//8 57//5
f 50//7 58//4 51//4
f 51//3 58//3 50//8
f 53//10 51//4 58//4
f 58//3 51//3 53//9
f 46//5 53//10 55//5
f 55//6 53//9 46//6
f 54//3 47//8 59//8
f 59//7 47//7 54//4
f 56//9 52//3 54//3
f 54//4 52//4 56//10
f 47//8 55//5 59//8
f 59//7 55//6 47//7
f 49//6 56//9 57//6
f 57//5 56//10 49//5
f 50//7 57//6 60//7
f 60//8 57//5 50//8
f 58//4 50//7 60//7
f 60//8 50//8 58//3
f 60//2 53//2 58//2
f 58//1 53//1 60//1
f 53//2 57//2 55//2
f 55//1 57//1 53//1
f 59//2 56//2 54//2
f 54//1 56//1 59//1
f 55//2 56//2 59//2
f 59//1 56//1 55//1
f 55//2 57//2 56//2
f 56//1 57//1 55//1
f 53//2 60//2 57//2
f 57//1 60//1 53//1