mtllib new-9.mtl
v -0.711488 0.373476 0.389214
v -0.685417 0.373476 0.363141
v 0.548127 0.373476 0.389214
v -0.711488 0.335306 0.389214
v 0.522056 0.373476 0.363141
v -0.685417 0.335306 0.363141
v 0.548127 0.335306 0.389214
v 0.522056 0.335306 0.363141
vn 0.000000 1.000000 0.000000
vn 0.000000 -1.000000 0.000000
vn 0.000000 0.000000 1.000000
vn 0.000000 0.000000 -1.000000
usemtl material-0
f 2//1 1//1 3//1
f 3//2 1//2 2//2
f 4//3 3//3 1//3
f 1//4 3//4 4//4
f 2//1 3//1 5//1
f 5//2 3//2 2//2
f 3//3 4//3 7//3
f 7//4 4//4 3//4
f 8//4 2//4 5//4
f 5//3 2//3 8//3
f 2//4 8//4 6//4
f 6//3 8//3 2//3
f 6//2 7//2 4//2
f 4//1 7//1 6//1
f 7//2 6//2 8//2
f 8//1 6//1 7//1