mtllib new-8.mtl
v -0.685417 0.335306 0.058405
v -0.685417 0.335306 0.020235
v -0.711488 0.335306 0.058405
v -0.685417 -0.351923 0.020235
v -0.711488 0.335306 0.020235
v -0.685417 -0.351923 0.058405
v -0.711488 -0.530050 0.058405
v -0.685417 -0.530050 0.020235
v -0.685417 -0.377369 0.020235
v -0.685417 -0.377369 0.058405
v -0.711488 -0.530050 0.020235
v -0.685417 -0.530050 0.058405
vn 1.000000 0.000000 0.000000
vn -1.000000 0.000000 0.000000
vn 0.000000 0.000000 1.000000
vn 0.000000 0.000000 -1.000000
usemtl material-0
f 1//1 4//1 2//1
f 2//2 4//2 1//2
f 4//1 1//1 6//1
f 6//2 1//2 4//2
f 4//4 5//4 2//4
f 2//3 5//3 4//3
f 3//3 6//3 1//3
f 1//4 6//4 3//4
f 5//2 7//2 3//2
f 3//1 7//1 5//1
f 6//1 8//1 4//1
f 4//2 8//2 6//2
f 9//4 5//4 4//4
f 4//3 5//3 9//3
f 3//3 10//3 6//3
f 6//4 10//4 3//4
f 11//2 7//2 5//2
f 5//1 7//1 11//1
f 7//3 10//3 3//3
f 3//4 10//4 7//4
f 10//1 8//1 6//1
f 6//2 8//2 10//2
f 4//1 8//1 9//1
f 9//2 8//2 4//2
f 9//4 11//4 5//4
f 5//3 11//3 9//3
f 10//3 7//3 12//3
f 12//4 7//4 10//4
f 8//1 10//1 12//1
f 12//2 10//2 8//2
f 11//4 9//4 8//4
f 8//3 9//3 11//3