mtllib new-0.mtl
v -0.711488 -0.568220 0.363767
v -0.685417 -0.530050 0.363767
v -0.711488 -0.530050 0.363767
v -0.711488 -0.606390 0.363767
v -0.685417 -0.568220 0.363767
v -0.711488 -0.517327 0.363767
v -0.711488 -0.517327 0.389214
v -0.685417 -0.606390 0.363767
v -0.685417 -0.517327 0.363767
v -0.685417 -0.517327 0.389214
v -0.711488 -0.606390 0.389214
v -0.684001 -0.606390 0.362351
v -0.684001 -0.517327 0.362351
v -0.712903 -0.517327 0.390628
v -0.712903 -0.606390 0.362351
v -0.684001 -0.606390 0.390628
v -0.685417 -0.606390 0.389214
v -0.712903 -0.517327 0.362351
v -0.684001 -0.517327 0.390628
v -0.712903 -0.606390 0.390628
v -0.684001 -0.608094 0.362351
v -0.684001 -0.515622 0.362351
v -0.684001 -0.515622 0.390628
v -0.712903 -0.515622 0.362351
v -0.712903 -0.608094 0.390628
v -0.712903 -0.608094 0.362351
v -0.684001 -0.608094 0.390628
v -0.712903 -0.515622 0.390628
v -0.700077 -0.608094 0.374865
v -0.696154 -0.608094 0.376490
v -0.700077 -0.608094 0.378115
v -0.698452 -0.608094 0.374192
v -0.696827 -0.608094 0.378115
v -0.696827 -0.608094 0.374865
v -0.700750 -0.608094 0.376490
v -0.698452 -0.608094 0.378788
v -0.698452 -0.610280 0.374192
v -0.696154 -0.610280 0.376490
v -0.696827 -0.610280 0.374865
v -0.700750 -0.610280 0.376490
v -0.700077 -0.610280 0.378115
v -0.700077 -0.610280 0.374865
v -0.698452 -0.610280 0.378788
v -0.696827 -0.610280 0.378115
v -0.698452 -0.614649 0.357864
v -0.685283 -0.614649 0.389660
v -0.685283 -0.614649 0.363320
v -0.711622 -0.614649 0.363320
v -0.711622 -0.614649 0.389660
v -0.698452 -0.614649 0.395115
v -0.679827 -0.614649 0.376490
v -0.717078 -0.614649 0.376490
v -0.698452 -0.617927 0.357864
v -0.685283 -0.617927 0.363320
v -0.679827 -0.617927 0.376490
v -0.698452 -0.617927 0.395115
v -0.717078 -0.617927 0.376490
v -0.711622 -0.617927 0.389660
v -0.711622 -0.617927 0.363320
v -0.685283 -0.617927 0.389660
vn 0.000000 1.000000 0.000000
vn 0.000000 -1.000000 0.000000
vn 1.000000 0.000000 0.000000
vn -1.000000 0.000000 0.000000
vn 0.000000 0.000000 1.000000
vn 0.000000 0.000000 -1.000000
vn -0.707107 0.000000 -0.707107
vn 0.707107 0.000000 0.707107
vn 0.707107 0.000000 -0.707107
vn -0.707107 0.000000 0.707107
vn 0.000000 0.966002 -0.258533
vn -0.182811 0.966002 -0.182811
vn 0.000000 -0.966002 0.258533
vn 0.182811 -0.966002 0.182811
vn 0.182811 0.966002 -0.182811
vn -0.182811 -0.966002 0.182811
vn 0.182811 0.966002 0.182811
vn 0.258533 0.966002 0.000000
vn -0.182811 -0.966002 -0.182811
vn -0.258533 -0.966002 0.000000
vn -0.258533 0.966002 0.000000
vn -0.182811 0.966002 0.182811
vn 0.182811 -0.966002 -0.182811
vn 0.258533 -0.966002 0.000000
vn 0.000000 0.966002 0.258533
vn 0.000000 -0.966002 -0.258533
usemtl material-0
f 4//4 3//4 1//4
f 1//3 3//3 4//3
f 6//6 2//6 3//6
f 3//5 2//5 6//5
f 4//4 7//4 3//4
f 3//3 7//3 4//3
f 1//6 8//6 4//6
f 4//5 8//5 1//5
f 8//6 1//6 5//6
f 5//5 1//5 8//5
f 2//6 6//6 9//6
f 9//5 6//5 2//5
f 6//4 3//4 7//4
f 7//3 3//3 6//3
f 10//3 5//3 2//3
f 2//4 5//4 10//4
f 7//4 4//4 11//4
f 11//3 4//3 7//3
f 12//1 4//1 8//1
f 8//2 4//2 12//2
f 10//3 8//3 5//3
f 5//4 8//4 10//4
f 6//2 13//2 9//2
f 9//1 13//1 6//1
f 10//3 2//3 9//3
f 9//4 2//4 10//4
f 7//2 14//2 6//2
f 6//1 14//1 7//1
f 4//1 15//1 11//1
f 11//2 15//2 4//2
f 11//5 10//5 7//5
f 7//6 10//6 11//6
f 15//1 4//1 12//1
f 12//2 4//2 15//2
f 12//1 8//1 16//1
f 16//2 8//2 12//2
f 8//3 10//3 17//3
f 17//4 10//4 8//4
f 6//2 18//2 13//2
f 13//1 18//1 6//1
f 9//2 13//2 10//2
f 10//1 13//1 9//1
f 14//2 7//2 19//2
f 19//1 7//1 14//1
f 18//2 6//2 14//2
f 14//1 6//1 18//1
f 20//1 11//1 15//1
f 15//2 11//2 20//2
f 10//5 11//5 17//5
f 17//6 11//6 10//6
f 19//2 7//2 10//2
f 10//1 7//1 19//1
f 21//6 15//6 12//6
f 12//5 15//5 21//5
f 17//1 16//1 8//1
f 8//2 16//2 17//2
f 16//3 21//3 12//3
f 12//4 21//4 16//4
f 18//6 22//6 13//6
f 13//5 22//5 18//5
f 19//2 10//2 13//2
f 13//1 10//1 19//1
f 23//5 14//5 19//5
f 19//6 14//6 23//6
f 14//4 24//4 18//4
f 18//3 24//3 14//3
f 11//1 20//1 16//1
f 16//2 20//2 11//2
f 15//4 25//4 20//4
f 20//3 25//3 15//3
f 11//1 16//1 17//1
f 17//2 16//2 11//2
f 15//6 21//6 26//6
f 26//5 21//5 15//5
f 21//3 16//3 27//3
f 27//4 16//4 21//4
f 22//6 18//6 24//6
f 24//5 18//5 22//5
f 23//3 13//3 22//3
f 22//4 13//4 23//4
f 13//3 23//3 19//3
f 19//4 23//4 13//4
f 14//5 23//5 28//5
f 28//6 23//6 14//6
f 24//4 14//4 28//4
f 28//3 14//3 24//3
f 20//5 27//5 16//5
f 16//6 27//6 20//6
f 25//4 15//4 26//4
f 26//3 15//3 25//3
f 27//5 20//5 25//5
f 25//6 20//6 27//6
f 29//2 26//2 21//2
f 21//1 26//1 29//1
f 27//2 30//2 21//2
f 21//1 30//1 27//1
f 24//1 23//1 22//1
f 22//2 23//2 24//2
f 23//1 24//1 28//1
f 28//2 24//2 23//2
f 26//2 29//2 25//2
f 25//1 29//1 26//1
f 25//2 31//2 27//2
f 27//1 31//1 25//1
f 29//2 21//2 32//2
f 32//1 21//1 29//1
f 27//2 33//2 30//2
f 30//1 33//1 27//1
f 34//2 21//2 30//2
f 30//1 21//1 34//1
f 25//2 29//2 35//2
f 35//1 29//1 25//1
f 31//2 25//2 35//2
f 35//1 25//1 31//1
f 27//2 31//2 36//2
f 36//1 31//1 27//1
f 32//2 21//2 34//2
f 34//1 21//1 32//1
f 37//6 29//7 32//6
f 32//5 29//8 37//5
f 27//2 36//2 33//2
f 33//1 36//1 27//1
f 33//8 38//3 30//3
f 30//4 38//4 33//7
f 30//3 39//9 34//9
f 34//10 39//10 30//4
f 29//7 40//4 35//4
f 35//3 40//3 29//8
f 35//4 41//10 31//10
f 31//9 41//9 35//3
f 41//10 36//5 31//10
f 31//9 36//6 41//9
f 39//9 32//6 34//9
f 34//10 32//5 39//10
f 29//7 37//6 42//7
f 42//8 37//5 29//8
f 32//6 39//9 37//6
f 37//5 39//10 32//5
f 43//5 33//8 36//5
f 36//6 33//7 43//6
f 38//3 33//8 44//8
f 44//7 33//7 38//4
f 39//9 30//3 38//3
f 38//4 30//4 39//10
f 40//4 29//7 42//7
f 42//8 29//8 40//3
f 41//10 35//4 40//4
f 40//3 35//3 41//9
f 36//5 41//10 43//5
f 43//6 41//9 36//6
f 45//11 42//12 37//11
f 37//13 42//14 45//13
f 41//2 42//2 37//2
f 37//1 42//1 41//1
f 39//15 45//11 37//11
f 37//13 45//13 39//16
f 43//2 37//2 39//2
f 39//1 37//1 43//1
f 33//8 43//5 44//8
f 44//7 43//6 33//7
f 46//17 38//18 44//17
f 44//19 38//20 46//19
f 44//2 39//2 38//2
f 38//1 39//1 44//1
f 38//18 47//15 39//15
f 39//16 47//16 38//20
f 48//12 40//21 42//12
f 42//14 40//24 48//14
f 42//2 41//2 40//2
f 40//1 41//1 42//1
f 40//21 49//22 41//22
f 41//23 49//23 40//24
f 41//22 50//25 43//25
f 43//26 50//26 41//23
f 41//2 37//2 43//2
f 43//1 37//1 41//1
f 42//12 45//11 48//12
f 48//14 45//13 42//14
f 45//11 39//15 47//15
f 47//16 39//16 45//13
f 43//2 39//2 44//2
f 44//1 39//1 43//1
f 50//25 44//17 43//25
f 43//26 44//19 50//26
f 38//18 46//17 51//18
f 51//20 46//19 38//20
f 44//17 50//25 46//17
f 46//19 50//26 44//19
f 47//15 38//18 51//18
f 51//20 38//20 47//16
f 40//21 48//12 52//21
f 52//24 48//14 40//24
f 49//22 40//21 52//21
f 52//24 40//24 49//23
f 50//25 41//22 49//22
f 49//23 41//23 50//26
f 53//6 48//7 45//6
f 45//5 48//8 53//5
f 54//9 45//6 47//9
f 47//10 45//5 54//10
f 46//8 55//3 51//3
f 51//4 55//4 46//7
f 56//5 46//8 50//5
f 50//6 46//7 56//6
f 51//3 54//9 47//9
f 47//10 54//10 51//4
f 48//7 57//4 52//4
f 52//3 57//3 48//8
f 52//4 58//10 49//10
f 49//9 58//9 52//3
f 58//10 50//5 49//10
f 49//9 50//6 58//9
f 48//7 53//6 59//7
f 59//8 53//5 48//8
f 45//6 54//9 53//6
f 53//5 54//10 45//5
f 55//3 46//8 60//8
f 60//7 46//7 55//4
f 54//9 51//3 55//3
f 55//4 51//4 54//10
f 46//8 56//5 60//8
f 60//7 56//6 46//7
f 50//5 58//10 56//5
f 56//6 58//9 50//6
f 57//4 48//7 59//7
f 59//8 48//8 57//3
f 58//10 52//4 57//4
f 57//3 52//3 58//9
f 58//2 59//2 53//2
f 53//1 59//1 58//1
f 56//2 53//2 54//2
f 54//1 53//1 56//1
f 60//2 54//2 55//2
f 55//1 54//1 60//1
f 56//2 54//2 60//2
f 60//1 54//1 56//1
f 58//2 53//2 56//2
f 56//1 53//1 58//1
f 59//2 58//2 57//2
f 57//1 58//1 59//1