mtllib new-4.mtl
v 0.548127 -0.530050 0.363767
v 0.548127 -0.568220 0.363767
v 0.522056 -0.530050 0.363767
v 0.522056 -0.568220 0.363767
v 0.548127 -0.517327 0.389214
v 0.522056 -0.517327 0.363767
v 0.548127 -0.606390 0.363767
v 0.548127 -0.517327 0.363767
v 0.522056 -0.606390 0.363767
v 0.522056 -0.517327 0.389214
v 0.548127 -0.606390 0.389214
v 0.549542 -0.517327 0.362351
v 0.520640 -0.517327 0.390628
v 0.522056 -0.606390 0.389214
v 0.549542 -0.606390 0.390628
v 0.549542 -0.517327 0.390628
v 0.549542 -0.606390 0.362351
v 0.520640 -0.517327 0.362351
v 0.549542 -0.515622 0.390628
v 0.520640 -0.606390 0.362351
v 0.549542 -0.515622 0.362351
v 0.520640 -0.515622 0.362351
v 0.520640 -0.606390 0.390628
v 0.549542 -0.608094 0.362351
v 0.520640 -0.515622 0.390628
v 0.549542 -0.608094 0.390628
v 0.520640 -0.608094 0.362351
v 0.520640 -0.608094 0.390628
v 0.537389 -0.608094 0.376490
v 0.533466 -0.608094 0.374865
v 0.533466 -0.608094 0.378115
v 0.536716 -0.608094 0.378115
v 0.536716 -0.608094 0.374865
v 0.535091 -0.608094 0.374192
v 0.532793 -0.608094 0.376490
v 0.535091 -0.608094 0.378788
v 0.537389 -0.610280 0.376490
v 0.536716 -0.610280 0.374865
v 0.535091 -0.610280 0.374192
v 0.533466 -0.610280 0.378115
v 0.535091 -0.610280 0.378788
v 0.536716 -0.610280 0.378115
v 0.532793 -0.610280 0.376490
v 0.533466 -0.610280 0.374865
v 0.548261 -0.614649 0.389660
v 0.548261 -0.614649 0.363320
v 0.535091 -0.614649 0.357864
v 0.521922 -0.614649 0.389660
v 0.535091 -0.614649 0.395115
v 0.553717 -0.614649 0.376490
v 0.521922 -0.614649 0.363320
v 0.516467 -0.614649 0.376490
v 0.553717 -0.617927 0.376490
v 0.535091 -0.617927 0.395115
v 0.548261 -0.617927 0.363320
v 0.535091 -0.617927 0.357864
v 0.521922 -0.617927 0.389660
v 0.548261 -0.617927 0.389660
v 0.516467 -0.617927 0.376490
v 0.521922 -0.617927 0.363320
vn 0.000000 1.000000 0.000000
vn 0.000000 -1.000000 0.000000
vn 1.000000 0.000000 0.000000
vn -1.000000 0.000000 0.000000
vn 0.000000 0.000000 1.000000
vn 0.000000 0.000000 -1.000000
vn -0.707107 0.000000 -0.707107
vn 0.707107 0.000000 0.707107
vn 0.707107 0.000000 -0.707107
vn -0.707107 0.000000 0.707107
vn 0.000000 0.966002 -0.258533
vn -0.182811 0.966002 -0.182811
vn 0.000000 -0.966002 0.258533
vn 0.182811 -0.966002 0.182811
vn 0.182811 0.966002 -0.182811
vn -0.182811 -0.966002 0.182811
vn 0.182811 0.966002 0.182811
vn 0.258533 0.966002 0.000000
vn -0.182811 -0.966002 -0.182811
vn -0.258533 -0.966002 0.000000
vn -0.258533 0.966002 0.000000
vn -0.182811 0.966002 0.182811
vn 0.182811 -0.966002 -0.182811
vn 0.258533 -0.966002 0.000000
vn 0.000000 0.966002 0.258533
vn 0.000000 -0.966002 -0.258533
usemtl material-0
f 5//3 2//3 1//3
f 1//4 2//4 5//4
f 6//6 1//6 3//6
f 3//5 1//5 6//5
f 5//3 7//3 2//3
f 2//4 7//4 5//4
f 5//3 1//3 8//3
f 8//4 1//4 5//4
f 7//6 4//6 2//6
f 2//5 4//5 7//5
f 9//4 3//4 4//4
f 4//3 3//3 9//3
f 1//6 6//6 8//6
f 8//5 6//5 1//5
f 6//4 3//4 10//4
f 10//3 3//3 6//3
f 7//3 5//3 11//3
f 11//4 5//4 7//4
f 8//2 12//2 5//2
f 5//1 12//1 8//1
f 4//6 7//6 9//6
f 9//5 7//5 4//5
f 9//4 10//4 3//4
f 3//3 10//3 9//3
f 6//2 12//2 8//2
f 8//1 12//1 6//1
f 10//2 13//2 6//2
f 6//1 13//1 10//1
f 5//5 14//5 11//5
f 11//6 14//6 5//6
f 11//1 15//1 7//1
f 7//2 15//2 11//2
f 16//2 5//2 12//2
f 12//1 5//1 16//1
f 17//1 9//1 7//1
f 7//2 9//2 17//2
f 10//4 9//4 14//4
f 14//3 9//3 10//3
f 6//2 18//2 12//2
f 12//1 18//1 6//1
f 13//2 10//2 16//2
f 16//1 10//1 13//1
f 18//2 6//2 13//2
f 13//1 6//1 18//1
f 14//5 5//5 10//5
f 10//6 5//6 14//6
f 14//1 15//1 11//1
f 11//2 15//2 14//2
f 17//1 7//1 15//1
f 15//2 7//2 17//2
f 16//2 10//2 5//2
f 5//1 10//1 16//1
f 12//3 19//3 16//3
f 16//4 19//4 12//4
f 20//1 9//1 17//1
f 17//2 9//2 20//2
f 9//1 20//1 14//1
f 14//2 20//2 9//2
f 18//6 21//6 12//6
f 12//5 21//5 18//5
f 19//5 13//5 16//5
f 16//6 13//6 19//6
f 13//4 22//4 18//4
f 18//3 22//3 13//3
f 14//1 23//1 15//1
f 15//2 23//2 14//2
f 15//3 24//3 17//3
f 17//4 24//4 15//4
f 19//3 12//3 21//3
f 21//4 12//4 19//4
f 24//6 20//6 17//6
f 17//5 20//5 24//5
f 23//1 14//1 20//1
f 20//2 14//2 23//2
f 21//6 18//6 22//6
f 22//5 18//5 21//5
f 13//5 19//5 25//5
f 25//6 19//6 13//6
f 22//4 13//4 25//4
f 25//3 13//3 22//3
f 23//5 26//5 15//5
f 15//6 26//6 23//6
f 24//3 15//3 26//3
f 26//4 15//4 24//4
f 22//1 19//1 21//1
f 21//2 19//2 22//2
f 20//6 24//6 27//6
f 27//5 24//5 20//5
f 20//4 28//4 23//4
f 23//3 28//3 20//3
f 19//1 22//1 25//1
f 25//2 22//2 19//2
f 26//5 23//5 28//5
f 28//6 23//6 26//6
f 26//2 29//2 24//2
f 24//1 29//1 26//1
f 30//2 27//2 24//2
f 24//1 27//1 30//1
f 28//4 20//4 27//4
f 27//3 20//3 28//3
f 28//2 31//2 26//2
f 26//1 31//1 28//1
f 26//2 32//2 29//2
f 29//1 32//1 26//1
f 33//2 24//2 29//2
f 29//1 24//1 33//1
f 27//2 30//2 28//2
f 28//1 30//1 27//1
f 30//2 24//2 34//2
f 34//1 24//1 30//1
f 31//2 28//2 35//2
f 35//1 28//1 31//1
f 26//2 31//2 36//2
f 36//1 31//1 26//1
f 26//2 36//2 32//2
f 32//1 36//1 26//1
f 32//8 37//3 29//3
f 29//4 37//4 32//7
f 34//2 24//2 33//2
f 33//1 24//1 34//1
f 29//3 38//9 33//9
f 33//10 38//10 29//4
f 28//2 30//2 35//2
f 35//1 30//1 28//1
f 39//6 30//7 34//6
f 34//5 30//8 39//5
f 35//4 40//10 31//10
f 31//9 40//9 35//3
f 40//10 36//5 31//10
f 31//9 36//6 40//9
f 41//5 32//8 36//5
f 36//6 32//7 41//6
f 37//3 32//8 42//8
f 42//7 32//7 37//4
f 38//9 29//3 37//3
f 37//4 29//4 38//10
f 38//9 34//6 33//9
f 33//10 34//5 38//10
f 30//7 43//4 35//4
f 35//3 43//3 30//8
f 30//7 39//6 44//7
f 44//8 39//5 30//8
f 34//6 38//9 39//6
f 39//5 38//10 34//5
f 40//10 35//4 43//4
f 43//3 35//3 40//9
f 36//5 40//10 41//5
f 41//6 40//9 36//6
f 32//8 41//5 42//8
f 42//7 41//6 32//7
f 42//2 38//2 37//2
f 37//1 38//1 42//1
f 45//17 37//18 42//17
f 42//19 37//20 45//19
f 37//18 46//15 38//15
f 38//16 46//16 37//20
f 43//4 30//7 44//7
f 44//8 30//8 43//3
f 40//2 44//2 39//2
f 39//1 44//1 40//1
f 47//11 44//12 39//11
f 39//13 44//14 47//13
f 41//2 39//2 38//2
f 38//1 39//1 41//1
f 38//15 47//11 39//11
f 39//13 47//13 38//16
f 44//2 40//2 43//2
f 43//1 40//1 44//1
f 43//21 48//22 40//22
f 40//23 48//23 43//24
f 40//2 39//2 41//2
f 41//1 39//1 40//1
f 40//22 49//25 41//25
f 41//26 49//26 40//23
f 41//2 38//2 42//2
f 42//1 38//1 41//1
f 49//25 42//17 41//25
f 41//26 42//19 49//26
f 37//18 45//17 50//18
f 50//20 45//19 37//20
f 42//17 49//25 45//17
f 45//19 49//26 42//19
f 46//15 37//18 50//18
f 50//20 37//20 46//16
f 47//11 38//15 46//15
f 46//16 38//16 47//13
f 51//12 43//21 44//12
f 44//14 43//24 51//14
f 44//12 47//11 51//12
f 51//14 47//13 44//14
f 48//22 43//21 52//21
f 52//24 43//24 48//23
f 49//25 40//22 48//22
f 48//23 40//23 49//26
f 45//8 53//3 50//3
f 50//4 53//4 45//7
f 54//5 45//8 49//5
f 49//6 45//7 54//6
f 50//3 55//9 46//9
f 46//10 55//10 50//4
f 55//9 47//6 46//9
f 46//10 47//5 55//10
f 43//21 51//12 52//21
f 52//24 51//14 43//24
f 56//6 51//7 47//6
f 47//5 51//8 56//5
f 52//4 57//10 48//10
f 48//9 57//9 52//3
f 57//10 49//5 48//10
f 48//9 49//6 57//9
f 53//3 45//8 58//8
f 58//7 45//7 53//4
f 55//9 50//3 53//3
f 53//4 50//4 55//10
f 45//8 54//5 58//8
f 58//7 54//6 45//7
f 49//5 57//10 54//5
f 54//6 57//9 49//6
f 47//6 55//9 56//6
f 56//5 55//10 47//5
f 51//7 59//4 52//4
f 52//3 59//3 51//8
f 51//7 56//6 60//7
f 60//8 56//5 51//8
f 57//10 52//4 59//4
f 59//3 52//3 57//9
f 58//2 55//2 53//2
f 53//1 55//1 58//1
f 54//2 55//2 58//2
f 58//1 55//1 54//1
f 57//2 56//2 54//2
f 54//1 56//1 57//1
f 54//2 56//2 55//2
f 55//1 56//1 54//1
f 59//4 51//7 60//7
f 60//8 51//8 59//3
f 57//2 60//2 56//2
f 56//1 60//1 57//1
f 60//2 57//2 59//2
f 59//1 57//1 60//1