mtllib new-5.mtl
v 0.548127 -0.568220 -0.310573
v 0.522056 -0.530050 -0.310573
v 0.548127 -0.530050 -0.310573
v 0.522056 -0.568220 -0.310573
v 0.548127 -0.606390 -0.336020
v 0.548127 -0.517327 -0.310573
v 0.522056 -0.517327 -0.336020
v 0.548127 -0.606390 -0.310573
v 0.548127 -0.517327 -0.336020
v 0.522056 -0.517327 -0.310573
v 0.522056 -0.606390 -0.336020
v 0.522056 -0.606390 -0.310573
v 0.549542 -0.606390 -0.309158
v 0.549542 -0.517327 -0.309158
v 0.549542 -0.517327 -0.337436
v 0.520640 -0.517327 -0.309158
v 0.549542 -0.606390 -0.337436
v 0.520640 -0.517327 -0.337436
v 0.520640 -0.606390 -0.337436
v 0.520640 -0.606390 -0.309158
v 0.549542 -0.608094 -0.337436
v 0.549542 -0.515622 -0.309158
v 0.520640 -0.515622 -0.337436
v 0.549542 -0.608094 -0.309158
v 0.549542 -0.515622 -0.337436
v 0.520640 -0.515622 -0.309158
v 0.520640 -0.608094 -0.309158
v 0.537389 -0.608094 -0.323296
v 0.520640 -0.608094 -0.337436
v 0.533466 -0.608094 -0.321671
v 0.536716 -0.608094 -0.321671
v 0.536716 -0.608094 -0.324921
v 0.533466 -0.608094 -0.324921
v 0.532793 -0.608094 -0.323296
v 0.535091 -0.608094 -0.320998
v 0.537389 -0.610280 -0.323296
v 0.535091 -0.608094 -0.325594
v 0.536716 -0.610280 -0.324921
v 0.533466 -0.610280 -0.321671
v 0.535091 -0.610280 -0.320998
v 0.536716 -0.610280 -0.321671
v 0.535091 -0.610280 -0.325594
v 0.532793 -0.610280 -0.323296
v 0.548261 -0.614649 -0.310126
v 0.548261 -0.614649 -0.336466
v 0.533466 -0.610280 -0.324921
v 0.521922 -0.614649 -0.310126
v 0.535091 -0.614649 -0.304672
v 0.553717 -0.614649 -0.323296
v 0.535091 -0.614649 -0.341922
v 0.521922 -0.614649 -0.336466
v 0.516467 -0.614649 -0.323296
v 0.553717 -0.617927 -0.323296
v 0.535091 -0.617927 -0.304672
v 0.548261 -0.617927 -0.336466
v 0.521922 -0.617927 -0.310126
v 0.548261 -0.617927 -0.310126
v 0.535091 -0.617927 -0.341922
v 0.516467 -0.617927 -0.323296
v 0.521922 -0.617927 -0.336466
vn 0.000000 1.000000 0.000000
vn 0.000000 -1.000000 0.000000
vn 1.000000 0.000000 0.000000
vn -1.000000 0.000000 0.000000
vn 0.000000 0.000000 1.000000
vn 0.000000 0.000000 -1.000000
vn -0.707107 0.000000 -0.707107
vn 0.707107 0.000000 0.707107
vn 0.707107 0.000000 -0.707107
vn -0.707107 0.000000 0.707107
vn 0.000000 0.966002 -0.258533
vn -0.182811 0.966002 -0.182811
vn 0.000000 -0.966002 0.258533
vn 0.182811 -0.966002 0.182811
vn 0.182811 0.966002 -0.182811
vn -0.182811 -0.966002 0.182811
vn 0.182811 0.966002 0.182811
vn 0.258533 0.966002 0.000000
vn -0.182811 -0.966002 -0.182811
vn -0.258533 -0.966002 0.000000
vn -0.258533 0.966002 0.000000
vn -0.182811 0.966002 0.182811
vn 0.182811 -0.966002 -0.182811
vn 0.258533 -0.966002 0.000000
vn 0.000000 0.966002 0.258533
vn 0.000000 -0.966002 -0.258533
usemtl material-0
f 1//3 5//3 3//3
f 3//4 5//4 1//4
f 6//5 2//5 3//5
f 3//6 2//6 6//6
f 2//4 7//4 4//4
f 4//3 7//3 2//3
f 5//3 1//3 8//3
f 8//4 1//4 5//4
f 9//3 3//3 5//3
f 5//4 3//4 9//4
f 2//5 6//5 10//5
f 10//6 6//6 2//6
f 3//3 9//3 6//3
f 6//4 9//4 3//4
f 7//4 2//4 10//4
f 10//3 2//3 7//3
f 11//4 4//4 7//4
f 7//3 4//3 11//3
f 1//5 12//5 8//5
f 8//6 12//6 1//6
f 8//1 13//1 5//1
f 5//2 13//2 8//2
f 5//6 7//6 9//6
f 9//5 7//5 5//5
f 14//2 10//2 6//2
f 6//1 10//1 14//1
f 9//2 15//2 6//2
f 6//1 15//1 9//1
f 10//2 16//2 7//2
f 7//1 16//1 10//1
f 4//4 11//4 12//4
f 12//3 11//3 4//3
f 7//6 5//6 11//6
f 11//5 5//5 7//5
f 12//5 1//5 4//5
f 4//6 1//6 12//6
f 12//1 13//1 8//1
f 8//2 13//2 12//2
f 17//1 5//1 13//1
f 13//2 5//2 17//2
f 7//2 15//2 9//2
f 9//1 15//1 7//1
f 16//2 10//2 14//2
f 14//1 10//1 16//1
f 14//2 6//2 15//2
f 15//1 6//1 14//1
f 18//2 7//2 16//2
f 16//1 7//1 18//1
f 11//1 19//1 12//1
f 12//2 19//2 11//2
f 17//1 11//1 5//1
f 5//2 11//2 17//2
f 12//1 20//1 13//1
f 13//2 20//2 12//2
f 13//3 21//3 17//3
f 17//4 21//4 13//4
f 7//2 18//2 15//2
f 15//1 18//1 7//1
f 22//5 16//5 14//5
f 14//6 16//6 22//6
f 15//3 22//3 14//3
f 14//4 22//4 15//4
f 16//4 23//4 18//4
f 18//3 23//3 16//3
f 19//1 11//1 17//1
f 17//2 11//2 19//2
f 20//1 12//1 19//1
f 19//2 12//2 20//2
f 20//5 24//5 13//5
f 13//6 24//6 20//6
f 21//3 13//3 24//3
f 24//4 13//4 21//4
f 21//6 19//6 17//6
f 17//5 19//5 21//5
f 18//6 25//6 15//6
f 15//5 25//5 18//5
f 16//5 22//5 26//5
f 26//6 22//6 16//6
f 22//3 15//3 25//3
f 25//4 15//4 22//4
f 23//4 16//4 26//4
f 26//3 16//3 23//3
f 25//6 18//6 23//6
f 23//5 18//5 25//5
f 19//4 27//4 20//4
f 20//3 27//3 19//3
f 24//5 20//5 27//5
f 27//6 20//6 24//6
f 24//2 28//2 21//2
f 21//1 28//1 24//1
f 19//6 21//6 29//6
f 29//5 21//5 19//5
f 22//1 23//1 26//1
f 26//2 23//2 22//2
f 23//1 22//1 25//1
f 25//2 22//2 23//2
f 27//4 19//4 29//4
f 29//3 19//3 27//3
f 27//2 30//2 24//2
f 24//1 30//1 27//1
f 24//2 31//2 28//2
f 28//1 31//1 24//1
f 32//2 21//2 28//2
f 28//1 21//1 32//1
f 33//2 29//2 21//2
f 21//1 29//1 33//1
f 29//2 33//2 27//2
f 27//1 33//1 29//1
f 30//2 27//2 34//2
f 34//1 27//1 30//1
f 24//2 30//2 35//2
f 35//1 30//1 24//1
f 24//2 35//2 31//2
f 31//1 35//1 24//1
f 31//8 36//3 28//3
f 28//4 36//4 31//7
f 37//2 21//2 32//2
f 32//1 21//1 37//1
f 28//3 38//9 32//9
f 32//10 38//10 28//4
f 33//2 21//2 37//2
f 37//1 21//1 33//1
f 27//2 33//2 34//2
f 34//1 33//1 27//1
f 34//4 39//10 30//10
f 30//9 39//9 34//3
f 39//10 35//5 30//10
f 30//9 35//6 39//9
f 40//5 31//8 35//5
f 35//6 31//7 40//6
f 36//3 31//8 41//8
f 41//7 31//7 36//4
f 38//9 28//3 36//3
f 36//4 28//4 38//10
f 38//9 37//6 32//9
f 32//10 37//5 38//10
f 42//6 33//7 37//6
f 37//5 33//8 42//5
f 33//7 43//4 34//4
f 34//3 43//3 33//8
f 39//10 34//4 43//4
f 43//3 34//3 39//9
f 35//5 39//10 40//5
f 40//6 39//9 35//6
f 31//8 40//5 41//8
f 41//7 40//6 31//7
f 41//2 38//2 36//2
f 36//1 38//1 41//1
f 44//17 36//18 41//17
f 41//19 36//20 44//19
f 36//18 45//15 38//15
f 38//16 45//16 36//20
f 37//6 38//9 42//6
f 42//5 38//10 37//5
f 33//7 42//6 46//7
f 46//8 42//5 33//8
f 43//4 33//7 46//7
f 46//8 33//8 43//3
f 46//2 39//2 43//2
f 43//1 39//1 46//1
f 43//21 47//22 39//22
f 39//23 47//23 43//24
f 39//2 42//2 40//2
f 40//1 42//1 39//1
f 39//22 48//25 40//25
f 40//26 48//26 39//23
f 40//2 38//2 41//2
f 41//1 38//1 40//1
f 48//25 41//17 40//25
f 40//26 41//19 48//26
f 36//18 44//17 49//18
f 49//20 44//19 36//20
f 41//17 48//25 44//17
f 44//19 48//26 41//19
f 45//15 36//18 49//18
f 49//20 36//20 45//16
f 50//11 38//15 45//15
f 45//16 38//16 50//13
f 40//2 42//2 38//2
f 38//1 42//1 40//1
f 38//15 50//11 42//11
f 42//13 50//13 38//16
f 39//2 46//2 42//2
f 42//1 46//1 39//1
f 50//11 46//12 42//11
f 42//13 46//14 50//13
f 51//12 43//21 46//12
f 46//14 43//24 51//14
f 47//22 43//21 52//21
f 52//24 43//24 47//23
f 48//25 39//22 47//22
f 47//23 39//23 48//26
f 44//8 53//3 49//3
f 49//4 53//4 44//7
f 54//5 44//8 48//5
f 48//6 44//7 54//6
f 49//3 55//9 45//9
f 45//10 55//10 49//4
f 55//9 50//6 45//9
f 45//10 50//5 55//10
f 46//12 50//11 51//12
f 51//14 50//13 46//14
f 43//21 51//12 52//21
f 52//24 51//14 43//24
f 52//4 56//10 47//10
f 47//9 56//9 52//3
f 56//10 48//5 47//10
f 47//9 48//6 56//9
f 53//3 44//8 57//8
f 57//7 44//7 53//4
f 55//9 49//3 53//3
f 53//4 49//4 55//10
f 44//8 54//5 57//8
f 57//7 54//6 44//7
f 48//5 56//10 54//5
f 54//6 56//9 48//6
f 50//6 55//9 58//6
f 58//5 55//10 50//5
f 58//6 51//7 50//6
f 50//5 51//8 58//5
f 51//7 59//4 52//4
f 52//3 59//3 51//8
f 56//10 52//4 59//4
f 59//3 52//3 56//9
f 57//2 55//2 53//2
f 53//1 55//1 57//1
f 54//2 55//2 57//2
f 57//1 55//1 54//1
f 56//2 58//2 54//2
f 54//1 58//1 56//1
f 54//2 58//2 55//2
f 55//1 58//1 54//1
f 51//7 58//6 60//7
f 60//8 58//5 51//8
f 59//4 51//7 60//7
f 60//8 51//8 59//3
f 60//2 56//2 59//2
f 59//1 56//1 60//1
f 56//2 60//2 58//2
f 58//1 60//1 56//1