mtllib new-3.mtl
v -0.685417 -0.351923 0.020235
v -0.685417 -0.351923 0.058405
v 0.522056 -0.351923 0.058405
v -0.685417 -0.377369 0.020235
v -0.685417 -0.377369 0.058405
v 0.522056 -0.351923 0.020235
v 0.522056 -0.377369 0.058405
v 0.522056 -0.377369 0.020235
vn 0.000000 1.000000 0.000000
vn 0.000000 -1.000000 0.000000
vn 0.000000 0.000000 1.000000
vn 0.000000 0.000000 -1.000000
usemtl material-0
f 3//1 1//1 2//1
f 2//2 1//2 3//2
f 1//1 3//1 6//1
f 6//2 3//2 1//2
f 2//3 7//3 3//3
f 3//4 7//4 2//4
f 1//4 8//4 4//4
f 4//3 8//3 1//3
f 7//3 2//3 5//3
f 5//4 2//4 7//4
f 8//4 1//4 6//4
f 6//3 1//3 8//3
f 7//2 4//2 8//2
f 8//1 4//1 7//1
f 4//2 7//2 5//2
f 5//1 7//1 4//1