mtllib new-6.mtl
v 0.548127 -0.530050 0.020235
v 0.548127 -0.530050 0.058405
v 0.522056 -0.530050 0.020235
v 0.522056 -0.530050 0.058405
v 0.548127 -0.568220 -0.310573
v 0.522056 -0.530050 -0.310573
v 0.548127 -0.530050 0.363767
v 0.548127 -0.530050 -0.310573
v 0.522056 -0.568220 -0.310573
v 0.548127 -0.568220 0.363767
v 0.522056 -0.530050 0.363767
v 0.522056 -0.568220 0.363767
vn 0.000000 1.000000 0.000000
vn 0.000000 -1.000000 0.000000
vn 1.000000 0.000000 0.000000
vn -1.000000 0.000000 0.000000
usemtl material-0
f 2//3 5//3 1//3
f 1//4 5//4 2//4
f 1//1 6//1 3//1
f 3//2 6//2 1//2
f 7//3 5//3 2//3
f 2//4 5//4 7//4
f 1//3 5//3 8//3
f 8//4 5//4 1//4
f 4//1 7//1 2//1
f 2//2 7//2 4//2
f 6//1 1//1 8//1
f 8//2 1//2 6//2
f 9//4 3//4 6//4
f 6//3 3//3 9//3
f 9//4 4//4 3//4
f 3//3 4//3 9//3
f 5//3 7//3 10//3
f 10//4 7//4 5//4
f 7//1 4//1 11//1
f 11//2 4//2 7//2
f 12//4 4//4 9//4
f 9//3 4//3 12//3
f 12//2 5//2 10//2
f 10//1 5//1 12//1
f 4//4 12//4 11//4
f 11//3 12//3 4//3
f 5//2 12//2 9//2
f 9//1 12//1 5//1