mtllib new-10.mtl
v 0.548127 0.373476 0.389214
v 0.522056 0.373476 0.363141
v 0.548127 0.373476 -0.310573
v 0.548127 0.335306 0.389214
v 0.522056 0.373476 -0.284501
v 0.522056 0.335306 0.363141
v 0.548127 0.335306 -0.310573
v 0.548127 0.335306 0.058405
v 0.522056 0.335306 0.058405
v 0.548127 0.335306 0.020235
v 0.522056 0.335306 0.020235
v 0.522056 0.335306 -0.284501
vn 0.000000 1.000000 0.000000
vn 0.000000 -1.000000 0.000000
vn 1.000000 0.000000 0.000000
vn -1.000000 0.000000 0.000000
vt -2.163934 0.475410
vt -2.119145 0.426230
vt -2.119145 0.475410
vt -2.163934 0.426230
usemtl material-0
f 2//1 1//1 5//1
f 5//2 1//2 2//2
f 8//3 1//3 4//3
f 4//4 1//4 8//4
f 3//1 5//1 1//1
f 1//2 5//2 3//2
f 9//4 2//4 5//4
f 5//3 2//3 9//3
f 2//4 9//4 6//4
f 6//3 9//3 2//3
f 3//3 10//3 7//3
f 7//4 10//4 3//4
f 1//3 8//3 3//3
f 3//4 8//4 1//4
f 4//2 6//2 8//2
f 8//1 6//1 4//1
f 9//4 5//4 11//4
f 11//3 5//3 9//3
f 8//2 6//2 9//2
f 9//1 6//1 8//1
f 3//3 8//3 10//3
f 10//4 8//4 3//4
f 10//2 12//2 7//2
f 7//1 12//1 10//1
f 11//4 5//4 12//4
f 12//3 5//3 11//3
f 12//2 10//2 11//2
f 11//1 10//1 12//1
usemtl material-1
f 10/1/2 9/2/2 11/3/2
f 11/3/1 9/2/1 10/1/1
f 9/2/2 10/1/2 8/4/2
f 8/4/1 10/1/1 9/2/1