# SSTK version 0.8.0
# 13
mtllib original-13.mtl
o Group13/mesh10/mesh10-geometry#mesh10-geometry
v 0.554489 0.144455 -0.284501
v -0.717850 -0.351757 -0.284501
v 0.554489 -0.351757 -0.284501
v -0.717850 0.144455 -0.284501
v 0.554489 -0.351757 -0.309948
v -0.717850 0.144455 -0.309948
v -0.717850 -0.351757 -0.309948
v 0.554489 0.144455 -0.309948
vt 1.002505 -0.239993
vt -0.09279 1.752362
vt -0.041345 -0.255041
vt 0.95106 1.76741
vt 4.52459 0.342733
vt 2.338798 0.342733
vt 4.52459 0.982077
vt 2.338798 0.982077
vt -0.094876 -0.255813
vt -4.52459 1.020449
vt -4.52459 1.053236
vt -2.338798 1.020449
vt -0.040316 -0.295189
vt 1.360599 0.342733
vt 1.360599 0.982077
vt 1.404315 0.342733
vt 1.004591 1.768182
vt 2.338798 1.020449
vt 2.338798 1.053236
vt 4.52459 1.020449
vt 0.950031 1.807558
vt -1.360599 0.982077
vt -1.360599 0.342733
vt -1.404315 0.982077
vt -0.14632 1.751591
vt -2.338798 1.053236
vt 1.003534 -0.280141
vt 1.404315 0.982077
vt 1.056035 -0.239222
vt 4.52459 1.053236
vt -0.093819 1.79251
vt -1.404315 0.342733
vt 0.943343 2.06852
vt -0.151951 4.060876
vt -0.100506 2.053473
vt -2.338798 0.342733
vt -4.52459 0.342733
vt -2.338798 0.982077
vt 0.891898 4.075924
vt -4.52459 0.982077
vn 0 0 1
vn 0 0 -1
vn 0 -1 0
vn 0 1 0
vn 1 0 0
vn -1 0 0
usemtl material_0_0
f 1/1/1 2/2/1 3/3/1
f 2/2/1 1/1/1 4/4/1
f 3/5/2 2/6/2 1/7/2
f 4/8/2 1/7/2 2/6/2
f 2/2/3 5/9/3 3/3/3
f 3/10/4 5/11/4 2/12/4
f 5/13/5 1/1/5 3/3/5
f 3/14/6 1/15/6 5/16/6
f 1/1/4 6/17/4 4/4/4
f 4/18/3 6/19/3 1/20/3
f 6/21/6 2/2/6 4/4/6
f 4/22/5 2/23/5 6/24/5
f 5/9/3 2/2/3 7/25/3
f 7/26/4 2/12/4 5/11/4
f 1/1/5 5/13/5 8/27/5
f 8/28/6 5/16/6 1/15/6
f 6/17/4 1/1/4 8/29/4
f 8/30/3 1/20/3 6/19/3
f 2/2/6 6/21/6 7/31/6
f 7/32/5 6/24/5 2/23/5
f 6/33/2 5/34/2 7/35/2
f 7/36/1 5/37/1 6/38/1
f 5/34/2 6/33/2 8/39/2
f 8/40/1 6/38/1 5/37/1
