# SSTK version 0.8.0
# 29
mtllib original-29.mtl
o Group29/mesh22/mesh22-geometry#mesh22-geometry
v 0.490248 -0.129425 -0.181097
v 0.490248 -0.123063 0.302392
v 0.490248 -0.129425 0.302392
v 0.490248 -0.091255 0.302392
v 0.483809 -0.129425 0.302392
v 0.490248 -0.091255 -0.181097
v 0.477373 -0.091255 0.302392
v 0.483809 -0.129425 -0.181097
v 0.477373 -0.091255 -0.181097
v 0.483809 -0.142148 0.302392
v 0.483809 -0.142148 -0.181097
v 0.477373 -0.180318 0.302392
v 0.477373 -0.180318 -0.181097
v 0.490248 -0.148510 0.302392
v 0.490248 -0.142148 0.302392
v 0.490248 -0.180318 -0.181097
v 0.490248 -0.180318 0.302392
v 0.490248 -0.142148 -0.181097
vt 1.665397 -0.944048
vt 1.659231 -0.181042
vt 1.645849 -0.181235
vt 1.726145 -0.180078
vt 0.312202 1.376893
vt 0.312202 1.38509
vt 1.142803 1.376893
vt 0.312202 1.426074
vt 3.408605 1.765759
vt 3.397546 1.757562
vt 3.408605 1.757562
vt 0.301143 1.376893
vt 1.632307 -0.18143
vt -1.934323 0.234151
vt -1.934323 0.857102
vt -1.923264 0.234151
vt 1.745694 -0.942891
vt 1.142803 1.426074
vt 3.386487 1.806742
vt 3.408605 1.806742
vt 0.290084 1.426074
vt 1.651856 -0.944244
vt -1.923264 0.857102
vt -0.460041 1.757562
vt -0.437923 1.806742
vt -0.460041 1.806742
vt 1.120945 1.426074
vt 1.143063 1.426074
vt 1.120945 1.376893
vt 1.772777 -0.9425
vt 1.934323 0.857102
vt 1.934323 0.234151
vt 1.912205 0.857102
vt 1.753228 -0.179687
vt 1.912205 0.234151
vt 3.397546 1.741169
vt 0.301143 1.3605
vt 1.638632 -0.944434
vt 1.142803 1.3605
vt -0.448982 1.757562
vt 1.132004 1.376893
vt 1.746214 -0.963203
vt 1.578405 -1.728717
vt 1.765763 -1.726017
vt 2.065211 0.234151
vt 2.065211 0.857102
vt 3.386487 1.691988
vt 0.290084 1.31132
vt 1.619083 -0.181621
vt 0.312202 1.3605
vt -0.448982 1.741169
vt 1.132004 1.3605
vt 1.558856 -0.965904
vt 3.408605 1.732972
vt 0.312202 1.352303
vt 1.652174 -0.944239
vt 1.632625 -0.181426
vt 1.923264 0.234151
vt 1.923264 0.857102
vt -0.437923 1.691988
vt 1.143063 1.31132
vt -0.460041 1.691988
vt -0.437923 1.069037
vt 3.408605 1.691988
vt 0.312202 1.31132
vt 3.408605 1.741169
vt 1.120945 1.31132
vt -0.460041 1.069037
vt 1.558336 -0.945592
vt 1.605701 -0.181814
vt 1.538787 -0.182779
vt 1.142803 1.31132
vt -0.460041 1.741169
vt 1.120945 1.3605
vn 1 0 0
vn -1 0 0
vn 0 0 1
vn 0 0 -1
vn 0 -1 0
vn 0 1 0
usemtl material_0_0
f 1/1/1 2/2/1 3/3/1
f 2/2/1 1/1/1 4/4/1
f 3/5/2 2/6/2 1/7/2
f 4/8/2 1/7/2 2/6/2
f 2/9/3 5/10/3 3/11/3
f 3/5/4 5/12/4 2/6/4
f 5/13/5 1/1/5 3/3/5
f 3/14/6 1/15/6 5/16/6
f 4/4/1 1/1/1 6/17/1
f 6/18/2 1/7/2 4/8/2
f 7/19/3 2/9/3 4/20/3
f 4/8/4 2/6/4 7/21/4
f 7/19/3 5/10/3 2/9/3
f 2/6/4 5/12/4 7/21/4
f 1/1/5 5/13/5 8/22/5
f 8/23/6 5/16/6 1/15/6
f 1/24/4 9/25/4 6/26/4
f 6/27/3 9/28/3 1/29/3
f 9/30/6 4/4/6 6/17/6
f 6/31/5 4/32/5 9/33/5
f 4/4/6 9/30/6 7/34/6
f 7/35/5 9/33/5 4/32/5
f 7/19/3 10/36/3 5/10/3
f 5/12/4 10/37/4 7/21/4
f 5/3/1 11/38/1 8/1/1
f 8/7/2 11/39/2 5/5/2
f 8/40/4 9/25/4 1/24/4
f 1/29/3 9/28/3 8/41/3
f 9/42/2 12/43/2 7/44/2
f 7/45/1 12/35/1 9/46/1
f 12/47/3 10/36/3 7/19/3
f 7/21/4 10/37/4 12/48/4
f 11/38/1 5/3/1 10/49/1
f 10/50/2 5/5/2 11/39/2
f 11/51/4 9/25/4 8/40/4
f 8/41/3 9/28/3 11/52/3
f 12/43/2 9/42/2 13/53/2
f 13/33/1 9/46/1 12/35/1
f 12/47/3 14/54/3 10/36/3
f 10/37/4 14/55/4 12/48/4
f 15/49/6 11/56/6 10/57/6
f 10/58/5 11/59/5 15/32/5
f 11/51/4 13/60/4 9/25/4
f 9/28/3 13/61/3 11/52/3
f 16/62/5 12/63/5 13/60/5
f 14/54/3 12/47/3 17/64/3
f 17/65/4 12/48/4 14/55/4
f 10/36/3 14/54/3 15/66/3
f 15/50/4 14/55/4 10/37/4
f 11/56/6 15/49/6 18/38/6
f 18/31/5 15/32/5 11/59/5
f 13/60/4 11/51/4 16/62/4
f 16/67/3 11/52/3 13/61/3
f 12/63/5 16/62/5 17/68/5
f 16/69/1 14/70/1 17/71/1
f 17/65/2 14/55/2 16/72/2
f 14/70/1 16/69/1 15/49/1
f 15/50/2 16/72/2 14/55/2
f 15/49/1 16/69/1 18/38/1
f 18/39/2 16/72/2 15/50/2
f 18/73/4 16/62/4 11/51/4
f 11/52/3 16/67/3 18/74/3
usemtl material_1_0
f 13//6 12//6 16//6
f 17//6 16//6 12//6
