# SSTK version 0.8.0
# 3
mtllib original-3.mtl
o Group3/mesh1/mesh1-geometry#mesh1-geometry
v 0.006760 0.072877 0.303275
v 0.006760 -0.064536 0.326177
v 0.006760 0.072877 0.326177
v 0.006760 -0.064536 0.303275
v 0.008032 0.072877 0.327449
v 0.008032 0.074149 0.303275
v 0.008032 -0.064536 0.302002
v 0.008032 -0.065808 0.326177
v 0.008032 -0.064536 0.327449
v 0.008032 0.074149 0.326177
v 0.008032 0.072877 0.302002
v 0.008032 -0.065808 0.303275
v 0.514423 0.072877 0.327449
v 0.514423 0.074149 0.326177
v 0.514423 0.072877 0.302002
v 0.514423 -0.064536 0.302002
v 0.514423 -0.065808 0.303275
v 0.514423 -0.064536 0.327449
v 0.514423 0.074149 0.303275
v 0.514423 -0.065808 0.326177
v 0.515696 -0.064536 0.326177
v 0.515696 0.072877 0.326177
v 0.515696 0.072877 0.303275
v 0.515696 -0.064536 0.303275
vt 1.771222 2.135667
vt 1.483081 2.095367
vt 1.772148 2.099534
vt 1.482155 2.1315
vt -0.001546 0.178689
vt 0.001546 0.178689
vt -0.001546 0.001639
vt -0.04153 0.126352
vt -0.04153 0.12867
vt -0.002186 0.126352
vt -0.029366 0.001639
vt -0.032457 0.001639
vt -0.029366 0.178689
vt -0.002186 0.001159
vt -0.002186 -0.001159
vt -0.04153 0.001159
vt 0.001546 0.001639
vt 0.001546 0.146568
vt -0.001546 0.146568
vt 0 0.148576
vt -0.002186 0.12867
vt -0.029366 0.133183
vt -0.032457 0.133183
vt -0.030912 0.13519
vt -0.032457 0.178689
vt -0.029366 0.014054
vt -0.030912 0.012047
vt -0.032457 0.014054
vt -0.04153 -0.001159
vt 0.001546 0.000669
vt 0 -0.001339
vt -0.001546 0.000669
vt 1.512953 0.929775
vt 1.822494 0.134996
vt 1.802019 0.933942
vt 0.002186 0.12867
vt 0.872131 0.12867
vt 0.002186 0.126352
vt -0.384073 0.103187
vt -0.35637 0.902828
vt -0.404548 0.902134
vt -0.002186 0.103168
vt -0.872131 0.103168
vt -0.002186 0.105486
vt 1.75097 2.925897
vt 1.441429 3.720677
vt 1.461904 2.92173
vt -0.002186 0.022025
vt -0.872131 0.022025
vt -0.002186 0.024343
vt -0.427894 3.693729
vt -0.455597 2.894088
vt -0.407419 2.894783
vt 0.002186 0.001159
vt 0.872131 0.001159
vt 0.002186 -0.001159
vt 1.533428 0.130829
vt 0.872131 0.126352
vt -0.335895 0.103882
vt -0.872131 0.105486
vt 1.730495 3.724844
vt -0.872131 0.024343
vt -0.476072 3.693035
vt 0.872131 -0.001159
vt 0.61669 0.001639
vt 0.61669 0.178689
vt 0.619781 0.001639
vt 0.619781 -0.121136
vt 0.61669 -0.121136
vt 0.618235 -0.119128
vt 0.04153 -0.335006
vt 0.04153 -0.337325
vt 0.002186 -0.335006
vt -0.588869 -0.134521
vt -0.587324 -0.132513
vt -0.585778 -0.134521
vt -0.585778 0.178689
vt -0.585778 0.001639
vt -0.588869 0.178689
vt -0.587324 0.27975
vt -0.588869 0.281758
vt -0.585778 0.281758
vt 0.002186 0.462517
vt 0.002186 0.464836
vt 0.04153 0.462517
vt 0.618235 0.266365
vt 0.61669 0.268373
vt 0.619781 0.268373
vt 0.619781 0.178689
vt 0.002186 -0.337325
vt -0.588869 0.001639
vt 0.04153 0.464836
vt 1.492701 1.720006
vt 1.780841 1.760306
vt 1.491775 1.756139
vt 1.781767 1.724173
vn -1 0 0
vn 1 0 0
vn 0.7388342808472179 -0.4765101811320375 -0.4765101811320375
vn 0.4765101811320375 -0.4765101811320375 -0.7388342808472179
vn 0.7388342808472179 0.4765101811320375 -0.4765101811320375
vn 0.7388342808472179 -0.4765101811320375 0.4765101811320375
vn 0.4765101811320375 -0.7388342808472179 0.4765101811320375
vn 0.7388342808472179 0.4765101811320375 0.4765101811320375
vn 0.4765101811320375 0.4765101811320375 0.7388342808472179
vn 0.4765101811320375 0.7388342808472179 -0.4765101811320375
vn 0.4765101811320375 0.4765101811320375 -0.7388342808472179
vn 0.4765101811320375 -0.7388342808472179 -0.4765101811320375
vn 0.4765101811320375 -0.4765101811320375 0.7388342808472179
vn 0.4765101811320375 0.7388342808472179 0.4765101811320375
vn 0 0 1
vn 0 0 -1
vn -0.4765101811320375 -0.7388342808472179 -0.4765101811320375
vn 0 1 0
vn 0 -1 0
vn -0.4765101811320375 -0.4765101811320375 0.7388342808472179
vn -0.4765101811320375 0.7388342808472179 0.4765101811320375
vn -0.4765101811320375 0.4765101811320375 -0.7388342808472179
vn -0.4765101811320375 -0.4765101811320375 -0.7388342808472179
vn -0.4765101811320375 -0.7388342808472179 0.4765101811320375
vn -0.4765101811320375 0.4765101811320375 0.7388342808472179
vn -0.4765101811320375 0.7388342808472179 -0.4765101811320375
vn -0.7388342808472179 0.4765101811320375 -0.4765101811320375
vn -0.7388342808472179 -0.4765101811320375 -0.4765101811320375
vn -0.7388342808472179 -0.4765101811320375 0.4765101811320375
vn -0.7388342808472179 0.4765101811320375 0.4765101811320375
usemtl material_0_0
f 1/1/1 2/2/1 3/3/1
f 2/2/1 1/1/1 4/4/1
f 3/3/2 2/2/2 1/1/2
f 4/4/2 1/1/2 2/2/2
f 3/5/3 5/6/4 2/7/5
f 1/8/6 6/9/7 3/10/3
f 4/11/8 7/12/9 1/13/6
f 2/14/5 8/15/10 4/16/8
f 9/17/11 2/7/5 5/6/4
f 5/18/4 3/19/3 10/20/12
f 10/21/12 3/10/3 6/9/7
f 1/22/6 11/23/13 6/24/7
f 11/25/13 1/13/6 7/12/9
f 4/26/8 12/27/14 7/28/9
f 12/29/14 4/16/8 8/15/10
f 9/30/11 8/31/10 2/32/5
f 9/33/15 13/34/15 5/35/15
f 5/35/16 13/34/16 9/33/16
f 10/36/12 14/37/17 5/38/4
f 14/39/18 6/40/18 10/41/18
f 10/41/19 6/40/19 14/39/19
f 11/42/13 15/43/20 6/44/7
f 11/45/16 16/46/16 7/47/16
f 7/47/15 16/46/15 11/45/15
f 12/48/14 17/49/21 7/50/9
f 17/51/19 8/52/19 12/53/19
f 12/53/18 8/52/18 17/51/18
f 9/54/11 18/55/22 8/56/10
f 13/34/15 9/33/15 18/57/15
f 18/57/16 9/33/16 13/34/16
f 13/58/23 5/38/4 14/37/17
f 6/40/18 14/39/18 19/59/18
f 19/59/19 14/39/19 6/40/19
f 19/60/24 6/44/7 15/43/20
f 16/46/16 11/45/16 15/61/16
f 15/61/15 11/45/15 16/46/15
f 16/62/25 7/50/9 17/49/21
f 8/52/19 17/51/19 20/63/19
f 20/63/18 17/51/18 8/52/18
f 20/64/26 8/56/10 18/55/22
f 18/65/22 13/66/23 21/67/27
f 22/68/28 13/69/23 14/70/17
f 19/71/24 23/72/29 14/73/17
f 23/74/29 19/75/24 15/76/20
f 15/77/20 16/78/25 23/79/29
f 17/80/21 24/81/30 16/82/25
f 20/83/26 21/84/27 17/85/21
f 20/86/26 18/87/22 21/88/27
f 22/89/28 21/67/27 13/66/23
f 22/90/28 14/73/17 23/72/29
f 24/91/30 23/79/29 16/78/25
f 24/92/30 17/85/21 21/84/27
f 24/93/2 22/94/2 21/95/2
f 21/95/1 22/94/1 24/93/1
f 22/94/2 24/93/2 23/96/2
f 23/96/1 24/93/1 22/94/1
usemtl material_1_0
f 2//29 5//25 3//30
f 3//30 6//26 1//27
f 1//27 7//23 4//28
f 4//28 8//24 2//29
f 5//25 2//29 9//20
f 10//21 3//30 5//25
f 6//26 3//30 10//21
f 6//26 11//22 1//27
f 7//23 1//27 11//22
f 7//23 12//17 4//28
f 8//24 4//28 12//17
f 2//29 8//24 9//20
f 5//25 14//14 10//21
f 6//26 15//11 11//22
f 7//23 17//12 12//17
f 8//24 18//13 9//20
f 14//14 5//25 13//9
f 15//11 6//26 19//10
f 17//12 7//23 16//4
f 18//13 8//24 20//7
f 21//6 13//9 18//13
f 14//14 13//9 22//8
f 14//14 23//5 19//10
f 15//11 19//10 23//5
f 23//5 16//4 15//11
f 16//4 24//3 17//12
f 17//12 21//6 20//7
f 21//6 18//13 20//7
f 13//9 21//6 22//8
f 23//5 14//14 22//8
f 16//4 23//5 24//3
f 21//6 17//12 24//3
