# SSTK version 0.8.0
# 19
mtllib original-19.mtl
o Group19/mesh14/mesh14-geometry#mesh14-geometry
v 0.522056 -0.351923 -0.284501
v 0.000397 -0.351923 0.300775
v 0.000397 -0.351923 -0.284501
v 0.522056 -0.351923 0.300775
v 0.000397 -0.326476 -0.284501
v 0.522056 -0.326476 0.300775
v 0.000397 -0.326476 0.300775
v 0.522056 -0.326476 -0.284501
vt 0.581437 0.986857
vt 1.477611 0.232759
vt 1.477611 0.986857
vt 0.581437 0.232759
vt 1.864518 0.740625
vt 0.859054 0.773411
vt 0.859054 0.740625
vt 1.477611 0.773411
vt 0.581437 0.740625
vt 1.477611 0.740625
vt 3.490673 0.740625
vt 2.485208 0.773411
vt 2.485208 0.740625
vt 0.038994 -0.202693
vt -0.035629 0.619571
vt -0.014536 -0.203464
vt 3.76829 0.740625
vt 2.872115 0.740625
vt 3.76829 0.773411
vt 1.864518 0.773411
vt 0.581437 0.773411
vt 3.490673 0.773411
vt 0.017902 0.620343
vt 2.872115 0.773411
vt 3.76829 0.232759
vt 2.872115 0.986857
vt 2.872115 0.232759
vt 3.76829 0.986857
vn 0 -1 0
vn 0 1 0
vn -1 0 0
vn 1 0 0
vn 0 0 -1
vn 0 0 1
usemtl material_0_0
f 1/1/1 2/2/1 3/3/1
f 2/2/1 1/1/1 4/4/1
f 3/3/2 2/2/2 1/1/2
f 4/4/2 1/1/2 2/2/2
f 2/5/3 5/6/3 3/7/3
f 3/7/4 5/6/4 2/5/4
f 5/8/5 1/9/5 3/10/5
f 3/10/6 1/9/6 5/8/6
f 1/11/4 6/12/4 4/13/4
f 4/13/3 6/12/3 1/11/3
f 6/14/6 2/15/6 4/16/6
f 4/17/5 2/18/5 6/19/5
f 5/6/3 2/5/3 7/20/3
f 7/20/4 2/5/4 5/6/4
f 1/9/5 5/8/5 8/21/5
f 8/21/6 5/8/6 1/9/6
f 6/12/4 1/11/4 8/22/4
f 8/22/3 1/11/3 6/12/3
f 2/15/6 6/14/6 7/23/6
f 7/24/5 6/19/5 2/18/5
f 6/25/2 5/26/2 7/27/2
f 7/27/1 5/26/1 6/25/1
f 5/26/2 6/25/2 8/28/2
f 8/28/1 6/25/1 5/26/1
