# SSTK version 0.8.0
# 5
mtllib original-5.mtl
o Group5/mesh3/mesh3-geometry#mesh3-geometry
v 0.477374 -0.040361 0.289279
v 0.477374 0.048703 0.302002
v 0.477374 -0.040361 0.302002
v 0.477374 0.048703 0.289279
v 0.045082 -0.040361 0.302002
v 0.045082 0.048703 0.289279
v 0.045082 0.048703 0.302002
v 0.045082 -0.040361 0.289279
vt 0.33406 1.31132
vt 0.312202 1.426074
vt 0.312202 1.31132
vt 0.33406 1.426074
vt 1.912205 1.426074
vt 1.169555 1.31132
vt 1.912205 1.31132
vt -0.430448 1.31132
vt -1.169555 0.234151
vt -1.912205 0.250545
vt -1.912205 0.234151
vt -1.194956 1.294926
vt -1.194956 1.31132
vt -0.452306 1.294926
vt -1.912205 1.31132
vt -1.169555 1.426074
vt -1.912205 1.426074
vt -1.194956 1.426074
vt -0.452306 1.426074
vt 1.268231 -0.102107
vt 1.25068 -0.549336
vt 1.268231 -0.549336
vt 1.912205 0.250545
vt 1.912205 0.234151
vt 1.169555 0.250545
vt 1.169555 1.426074
vt -0.430448 1.426074
vt -1.169555 0.250545
vt -0.452306 1.31132
vt -1.169555 1.31132
vt 1.25068 -0.102107
vt 1.169555 0.234151
vt -0.33406 1.426074
vt -0.312202 1.31132
vt -0.312202 1.426074
vt -0.33406 1.31132
vn 1 0 0
vn -1 0 0
vn 0 0 1
vn 0 0 -1
vn 0 -1 0
vn 0 1 0
usemtl material_0_0
f 1/1/1 2/2/1 3/3/1
f 2/2/1 1/1/1 4/4/1
f 3/3/2 2/2/2 1/1/2
f 4/4/2 1/1/2 2/2/2
f 2/5/3 5/6/3 3/7/3
f 3/3/4 5/8/4 2/2/4
f 5/9/5 1/10/5 3/11/5
f 3/12/6 1/13/6 5/14/6
f 1/15/4 6/16/4 4/17/4
f 4/18/3 6/19/3 1/13/3
f 6/20/6 2/21/6 4/22/6
f 4/23/5 2/24/5 6/25/5
f 5/6/3 2/5/3 7/26/3
f 7/27/4 2/2/4 5/8/4
f 1/10/5 5/9/5 8/28/5
f 8/29/6 5/14/6 1/13/6
f 6/16/4 1/15/4 8/30/4
f 8/29/3 1/13/3 6/19/3
f 2/21/6 6/20/6 7/31/6
f 7/32/5 6/25/5 2/24/5
f 6/33/2 5/34/2 7/35/2
f 7/27/1 5/8/1 6/19/1
f 5/34/2 6/33/2 8/36/2
f 8/29/1 6/19/1 5/8/1
