# SSTK version 0.8.0
# 31
mtllib original-31.mtl
o Group31/mesh24/mesh24-geometry#mesh24-geometry
v 0.255388 -0.269905 0.334177
v 0.249065 -0.275744 0.332078
v 0.252969 -0.275744 0.334177
v 0.252627 -0.267144 0.332078
v 0.255388 -0.281581 0.334177
v 0.252969 -0.275744 0.338409
v 0.261226 -0.267486 0.334177
v 0.248451 -0.262968 0.332078
v 0.252627 -0.284342 0.332078
v 0.255388 -0.281581 0.338409
v 0.255388 -0.269905 0.338409
v 0.261226 -0.263583 0.332078
v 0.261226 -0.267486 0.338409
v 0.243159 -0.275744 0.332078
v 0.261226 -0.284000 0.334177
v 0.267064 -0.269905 0.338409
v 0.249549 -0.264066 0.342973
v 0.269483 -0.275744 0.338409
v 0.244713 -0.275744 0.342973
v 0.269825 -0.267144 0.332078
v 0.248451 -0.262968 0.327839
v 0.274002 -0.262968 0.332078
v 0.248451 -0.288519 0.332078
v 0.261226 -0.287905 0.332078
v 0.261226 -0.284000 0.338409
v 0.267064 -0.281581 0.338409
v 0.249549 -0.287420 0.342973
v 0.267064 -0.269905 0.334177
v 0.272903 -0.264066 0.342973
v 0.243159 -0.275744 0.327839
v 0.261226 -0.257677 0.332078
v 0.269825 -0.284342 0.332078
v 0.267064 -0.281581 0.334177
v 0.240513 -0.275744 0.348677
v 0.261226 -0.259230 0.342973
v 0.277740 -0.275744 0.342973
v 0.246579 -0.290390 0.348677
v 0.269483 -0.275744 0.334177
v 0.273388 -0.275744 0.332078
v 0.279294 -0.275744 0.327839
v 0.261226 -0.257677 0.327839
v 0.274002 -0.262968 0.327839
v 0.274002 -0.288519 0.332078
v 0.248451 -0.288519 0.327839
v 0.272903 -0.287420 0.342973
v 0.261226 -0.292258 0.342973
v 0.246579 -0.261097 0.348677
v 0.261226 -0.255030 0.348677
v 0.261226 -0.296456 0.348677
v 0.279294 -0.275744 0.332078
v 0.275872 -0.261097 0.348677
v 0.274002 -0.288519 0.327839
v 0.261226 -0.293811 0.332078
v 0.281939 -0.275744 0.348677
v 0.240513 -0.275744 0.353622
v 0.246579 -0.290390 0.353622
v 0.261226 -0.293811 0.327839
v 0.275872 -0.290390 0.348677
v 0.246579 -0.261097 0.353622
v 0.261226 -0.255030 0.353622
v 0.275872 -0.261097 0.353622
v 0.261226 -0.296456 0.353622
v 0.281939 -0.275744 0.353622
v 0.243877 -0.275744 0.357432
v 0.248959 -0.288012 0.357432
v 0.275872 -0.290390 0.353622
v 0.248959 -0.263476 0.357432
v 0.273494 -0.263476 0.357432
v 0.261226 -0.293092 0.357432
v 0.273494 -0.288012 0.357432
v 0.255093 -0.269610 0.360575
v 0.255093 -0.281878 0.360575
v 0.261226 -0.258394 0.357432
v 0.278575 -0.275744 0.357432
v 0.261226 -0.284419 0.360575
v 0.252552 -0.275744 0.360575
v 0.261226 -0.267069 0.360575
v 0.267360 -0.269610 0.360575
v 0.269901 -0.275744 0.360575
v 0.267360 -0.281878 0.360575
vt 0.359063 0.640937
vt 0.206446 0.5
vt 0.300686 0.5
vt 0.292426 0.707574
vt 0.359063 0.359063
vt 0.5 0.699314
vt 0.191607 0.808393
vt 0.292426 0.292426
vt 0.5 0.793554
vt 0.063866 0.5
vt 0.5 0.300686
vt 0.218127 0.781873
vt 0.101371 0.5
vt 0.707574 0.707574
vt 0.640937 0.640937
vt 0.808393 0.808393
vt 0.191607 0.191607
vt 0.5 0.206446
vt 0.218127 0.218127
vt 0.781873 0.781873
vt 0.5 0.936134
vt 0.707574 0.292426
vt 0.640937 0.359063
vt 0.699314 0.5
vt 0 0.5
vt 0.5 0.898629
vt 0.898629 0.5
vt 0.146447 0.146447
vt 0.793554 0.5
vt 0.808393 0.191607
vt 0.781873 0.218127
vt 0.5 0.101371
vt 0.146447 0.853553
vt 0.5 1
vt 0.5 0
vt 0.936134 0.5
vt 0.853553 0.853553
vt 0.5 0.063866
vt 1 0.5
vt 0.853553 0.146447
vt 0.081201 0.5
vt 0.203864 0.203864
vt 0.203864 0.796136
vt 0.796136 0.796136
vt 0.5 0.081201
vt 0.796136 0.203864
vt 0.351932 0.648068
vt 0.351932 0.351932
vt 0.5 0.918799
vt 0.918799 0.5
vt 0.5 0.2906
vt 0.2906 0.5
vt 0.5 0.7094
vt 0.648068 0.648068
vt 0.7094 0.5
vt 0.648068 0.351932
vt 1.893096 0.857241
vt 1.89297 0.862166
vt 1.901971 0.855002
vt 1.906041 0.858868
vt 1.37691 0.8498
vt 1.368157 0.847307
vt 1.376784 0.854725
vt 2.7153 3.390893
vt 2.729089 3.391092
vt 2.715478 3.383968
vt 1.892477 0.633584
vt 1.897006 0.637152
vt 1.896685 0.627311
vt 1.680217 0.542123
vt 1.667377 0.545897
vt 1.686285 0.546853
vt 1.363892 0.851053
vt 0.167317 3.354163
vt 0.181105 3.354361
vt 0.167495 3.347238
vt 2.729266 3.384167
vt 0.181283 3.347436
vt 1.903204 0.627912
vt 3.487945 3.402031
vt 3.488122 3.395106
vt 3.474157 3.401833
vt 1.667209 0.55246
vt 1.685739 0.532645
vt 1.65474 0.541756
vt 1.138067 0.622709
vt 1.134183 0.616319
vt 1.133358 0.626144
vt -2.66343 3.313356
vt -2.663253 3.306431
vt -2.677218 3.313157
vt 1.680707 0.523015
vt 3.474334 3.394908
vt 1.66807 0.518874
vt 1.448854 0.518272
vt 1.443134 0.508861
vt 1.442309 0.518685
vt -2.645897 2.62922
vt -2.64572 2.622295
vt -2.659686 2.629021
vt 2.393778 2.478997
vt 2.373293 2.478701
vt 2.393657 2.483706
vt 1.687013 0.518464
vt 1.648433 0.546307
vt 1.127638 0.616732
vt -2.677041 3.306232
vt 1.655229 0.522648
vt 1.438425 0.512295
vt -2.659508 2.622096
vt 2.373172 2.48341
vt 1.705062 0.553006
vt 1.710817 0.554891
vt 1.713265 0.538924
vt 1.694489 0.532771
vt 1.649708 0.532126
vt 1.659005 0.566542
vt 1.64023 0.56039
vt 1.656491 0.570858
vt 1.587269 0.520267
vt 1.593788 0.520869
vt 1.593468 0.511028
vt 3.491867 2.710772
vt 3.491689 2.717697
vt 3.505655 2.71097
vt 0.198638 2.670225
vt 0.198816 2.6633
vt 0.18485 2.670027
vt 2.732833 2.706757
vt 2.746621 2.706956
vt 2.733011 2.699832
vt 1.495628 0.615364
vt 1.499893 0.611618
vt 1.486875 0.612871
vt 1.580318 3.942999
vt 1.581346 3.902851
vt 1.600122 3.909004
vt -1.260479 1.914873
vt -1.274686 1.9038
vt -1.296122 1.940597
vt 1.71902 0.54081
vt -1.275757 1.945602
vt -1.255272 1.945897
vt -1.275636 1.940892
vt 1.649161 0.517918
vt 1.637716 0.564706
vt 1.597997 0.514596
vt 3.505478 2.717895
vt 0.185027 2.663102
vt 2.746799 2.700031
vt 1.487001 0.607946
vt 1.668238 0.512312
vt 1.561542 3.936847
vt -1.310328 1.929524
vt 1.599394 3.937393
vt -1.255151 1.941188
vt 1.607597 3.923311
vt -1.260873 1.930237
vt 1.640958 0.532
vt 1.56227 3.908458
vt -1.295171 1.903505
vt 1.629356 0.551914
vt 1.62188 0.537607
vt 1.623509 0.553633
vt 1.782408 0.615691
vt 1.786478 0.619557
vt 1.795479 0.612393
vt 1.795353 0.617318
vt -1.296242 1.945306
vt 1.65847 0.493618
vt 1.639394 0.499225
vt 1.660762 0.498003
vt 1.630385 0.511766
vt 1.62463 0.50988
vt 1.622182 0.525847
vt 1.554067 3.922539
vt -1.309935 1.91416
vt 1.616033 0.539325
vt 1.641685 0.50361
vt 1.616427 0.523961
vn -0.6003523691243663 0.6003523691243663 0.5283503248541838
vn -0.3225330671750978 0 0.9465581971430093
vn -0.8490264792008684 0 0.5283502982073327
vn -0.22806507573882775 0.22806507573882775 0.9465583143454425
vn -0.6003523691243663 -0.6003523691243663 0.5283503248541838
vn -0.9687339200019561 0 -0.24810197951173935
vn 0 0.8490264792008684 0.5283502982073327
vn 0 0 1
vn -0.22806507573882775 -0.22806507573882775 0.9465583143454425
vn -0.6849983005732103 -0.6849983005732103 -0.24810210886574066
vn -0.6849983005732103 0.6849983005732103 -0.24810210886574066
vn 0 0.3225330671750978 0.9465581971430093
vn 0 0.9687339200019561 -0.24810197951173935
vn 0 -0.8490264792008684 0.5283502982073327
vn -0.4646221541632825 0.4646221541632825 -0.7538252501218979
vn 0.6849983005732103 -0.6849983005732103 0.24810210886574066
vn 0.4646221541632825 -0.4646221541632825 0.7538252501218979
vn 0.9687339200019561 0 0.24810197951173935
vn -0.6570751030786649 0 -0.7538251182563247
vn 0.6570751030786649 0 0.7538251182563247
vn 0.6849983005732103 0.6849983005732103 0.24810210886574066
vn 0.22806507573882775 0.22806507573882775 0.9465583143454425
vn 0.6849983005732103 0.6849983005732103 -0.24810210886574066
vn -0.7071067811865476 0.7071067811865476 0
vn -1 0 0
vn 0 -0.3225330671750978 0.9465581971430093
vn 0 -0.9687339200019561 -0.24810197951173935
vn 0 -0.9687339200019561 0.24810197951173935
vn -0.4646221541632825 -0.4646221541632825 -0.7538252501218979
vn 0.4646221541632825 0.4646221541632825 0.7538252501218979
vn 0.6003523691243663 0.6003523691243663 0.5283503248541838
vn 0.4646221541632825 0.4646221541632825 -0.7538252501218979
vn -0.6849983005732103 -0.6849983005732103 0.24810210886574066
vn -0.4646221541632825 -0.4646221541632825 0.7538252501218979
vn 0 1 0
vn -0.7071067811865476 -0.7071067811865476 0
vn 0.22806507573882775 -0.22806507573882775 0.9465583143454425
vn 0.6003523691243663 -0.6003523691243663 0.5283503248541838
vn 0 0.9687339200019561 0.24810197951173935
vn 0.9687339200019561 0 -0.24810197951173935
vn -0.9687339200019561 0 0.24810197951173935
vn -0.9487018964074507 0 -0.31617196547592025
vn 0.9487018964074507 0 0.31617196547592025
vn 0 0.6570751030786649 -0.7538251182563247
vn 0 -0.6570751030786649 0.7538251182563247
vn 0.6570751030786649 0 -0.7538251182563247
vn 0.6849983005732103 -0.6849983005732103 -0.24810210886574066
vn -0.6849983005732103 0.6849983005732103 0.24810210886574066
vn -0.6570751030786649 0 0.7538251182563247
vn -0.6708335825081916 -0.6708335825081916 -0.31617180323117183
vn 0.6708335825081916 0.6708335825081916 0.31617180323117183
vn 0.8490264792008684 0 0.5283502982073327
vn 0.3225330671750978 0 0.9465581971430093
vn 0.7071067811865476 0.7071067811865476 0
vn 0.4646221541632825 -0.4646221541632825 -0.7538252501218979
vn -0.4646221541632825 0.4646221541632825 0.7538252501218979
vn 0 -0.6570751030786649 -0.7538251182563247
vn 0 0.6570751030786649 0.7538251182563247
vn -0.6708335825081916 0.6708335825081916 -0.31617180323117183
vn 0.6708335825081916 -0.6708335825081916 0.31617180323117183
vn 0 0.9487018964074507 -0.31617196547592025
vn 0 -0.9487018964074507 0.31617196547592025
vn 0 -0.9487018964074507 -0.31617196547592025
vn 0 0.9487018964074507 0.31617196547592025
vn 0.6708335825081916 0.6708335825081916 -0.31617180323117183
vn -0.6708335825081916 -0.6708335825081916 0.31617180323117183
vn 1 0 0
vn 0 -1 0
vn 0.9487018964074507 0 -0.31617196547592025
vn -0.9487018964074507 0 0.31617196547592025
vn 0.7071067811865476 -0.7071067811865476 0
vn 0.6708335825081916 -0.6708335825081916 -0.31617180323117183
vn -0.6708335825081916 0.6708335825081916 0.31617180323117183
vn -0.5587859477144013 0 0.829311922401287
vn -0.5300671630330475 0.5300671630330475 0.6618592035683976
vn -0.749628197052916 0 0.6618591739812892
vn 0.749628197052916 0 -0.6618591739812892
vn 0.5300671630330475 -0.5300671630330475 -0.6618592035683976
vn 0.5587859477144013 0 -0.829311922401287
vn -0.39512107850542955 -0.39512107850542955 0.8293121647735625
vn -0.5300671630330475 -0.5300671630330475 0.6618592035683976
vn 0.5300671630330475 0.5300671630330475 -0.6618592035683976
vn 0.39512107850542955 0.39512107850542955 -0.8293121647735625
vn 0 -0.749628197052916 0.6618591739812892
vn 0 0.749628197052916 -0.6618591739812892
vn -0.39512107850542955 0.39512107850542955 0.8293121647735625
vn 0.39512107850542955 -0.39512107850542955 -0.8293121647735625
vn 0 0.749628197052916 0.6618591739812892
vn 0 -0.749628197052916 -0.6618591739812892
vn 0.39512107850542955 0.39512107850542955 0.8293121647735625
vn 0.5300671630330475 0.5300671630330475 0.6618592035683976
vn -0.5300671630330475 -0.5300671630330475 -0.6618592035683976
vn -0.39512107850542955 -0.39512107850542955 -0.8293121647735625
vn 0.749628197052916 0 0.6618591739812892
vn -0.749628197052916 0 -0.6618591739812892
vn 0 -0.5587859477144013 0.829311922401287
vn 0 0.5587859477144013 -0.829311922401287
vn 0.39512107850542955 -0.39512107850542955 0.8293121647735625
vn 0.5300671630330475 -0.5300671630330475 0.6618592035683976
vn -0.5300671630330475 0.5300671630330475 -0.6618592035683976
vn -0.39512107850542955 0.39512107850542955 -0.8293121647735625
vn -0.1622179474456112 0.1622179474456112 0.9733296846665397
vn 0.1622179474456112 -0.1622179474456112 -0.9733296846665397
vn -0.1622179474456112 -0.1622179474456112 0.9733296846665397
vn 0.1622179474456112 0.1622179474456112 -0.9733296846665397
vn 0 0.5587859477144013 0.829311922401287
vn 0 -0.5587859477144013 -0.829311922401287
vn 0.5587859477144013 0 0.829311922401287
vn -0.5587859477144013 0 -0.829311922401287
vn 0 -0.2294109201855459 0.9733296613684497
vn 0 0.2294109201855459 -0.9733296613684497
vn -0.2294109201855459 0 0.9733296613684497
vn 0.2294109201855459 0 -0.9733296613684497
vn 0 0.2294109201855459 0.9733296613684497
vn 0 -0.2294109201855459 -0.9733296613684497
vn 0.1622179474456112 0.1622179474456112 0.9733296846665397
vn -0.1622179474456112 -0.1622179474456112 -0.9733296846665397
vn 0.2294109201855459 0 0.9733296613684497
vn -0.2294109201855459 0 -0.9733296613684497
vn 0.1622179474456112 -0.1622179474456112 0.9733296846665397
vn -0.1622179474456112 0.1622179474456112 -0.9733296846665397
vn 0.8490264792008684 0 -0.5283502982073327
vn 0.3225330671750978 0 -0.9465581971430093
vn 0.6003523691243663 -0.6003523691243663 -0.5283503248541838
vn 0.22806507573882775 -0.22806507573882775 -0.9465583143454425
vn 0.6003523691243663 0.6003523691243663 -0.5283503248541838
vn 0 -0.8490264792008684 -0.5283502982073327
vn 0 0 -1
vn 0.22806507573882775 0.22806507573882775 -0.9465583143454425
vn 0 -0.3225330671750978 -0.9465581971430093
vn 0 0.8490264792008684 -0.5283502982073327
vn -0.22806507573882775 -0.22806507573882775 -0.9465583143454425
vn 0 0.3225330671750978 -0.9465581971430093
vn -0.6003523691243663 -0.6003523691243663 -0.5283503248541838
vn -0.22806507573882775 0.22806507573882775 -0.9465583143454425
vn -0.6003523691243663 0.6003523691243663 -0.5283503248541838
vn -0.8490264792008684 0 -0.5283502982073327
vn -0.3225330671750978 0 -0.9465581971430093
usemtl material_0_0
f 1/1/1 2/2/2 3/3/3
f 2/2/2 1/1/1 4/4/4
f 2/2/2 5/5/5 3/3/3
f 6/3/6 1/1/1 3/3/3
f 7/6/7 4/4/4 1/1/1
f 8/7/8 2/2/2 4/4/4
f 5/5/5 2/2/2 9/8/9
f 10/5/10 3/3/3 5/5/5
f 1/1/1 6/3/6 11/1/11
f 3/3/3 10/5/10 6/3/6
f 4/4/4 7/6/7 12/9/12
f 1/1/1 13/6/13 7/6/7
f 14/10/8 2/2/2 8/7/8
f 8/7/8 4/4/4 12/9/12
f 14/10/8 9/8/9 2/2/2
f 9/8/9 15/11/14 5/5/5
f 15/11/14 10/5/10 5/5/5
f 6/3/6 17/12/15 11/1/11
f 11/1/16 17/12/17 6/3/18
f 13/6/13 1/1/1 11/1/11
f 10/5/10 19/13/19 6/3/6
f 6/3/18 19/13/20 10/5/21
f 7/6/7 20/14/22 12/9/12
f 16/15/23 7/6/7 13/6/13
f 21/7/24 14/10/25 8/7/24
f 8/7/8 12/9/12 22/16/8
f 23/17/8 9/8/9 14/10/8
f 15/11/14 9/8/9 24/18/26
f 10/5/10 15/11/14 25/11/27
f 17/12/15 6/3/6 19/13/19
f 19/13/20 6/3/18 17/12/17
f 17/12/15 13/6/13 11/1/11
f 11/1/16 13/6/28 17/12/17
f 19/13/19 10/5/10 27/19/29
f 27/19/30 10/5/21 19/13/20
f 20/14/22 7/6/7 28/15/31
f 20/14/22 22/16/8 12/9/12
f 7/6/7 16/15/23 28/15/31
f 13/6/13 29/20/32 16/15/23
f 16/15/33 29/20/34 13/6/28
f 14/10/25 21/7/24 30/10/25
f 31/21/35 21/7/24 8/7/24
f 8/7/8 22/16/8 31/21/8
f 9/8/9 23/17/8 24/18/26
f 30/10/25 23/17/36 14/10/25
f 32/22/37 15/11/14 24/18/26
f 33/23/38 25/11/27 15/11/14
f 25/11/27 27/19/29 10/5/10
f 10/5/21 27/19/30 25/11/39
f 29/20/32 18/24/40 16/15/23
f 16/15/33 18/24/41 29/20/34
f 18/24/40 28/15/31 16/15/23
f 34/25/42 17/12/15 19/13/19
f 19/13/20 17/12/17 34/25/43
f 13/6/13 17/12/15 35/26/44
f 35/26/45 17/12/17 13/6/28
f 36/27/46 26/23/47 18/24/40
f 18/24/41 26/23/48 36/27/49
f 33/23/38 18/24/40 26/23/47
f 37/28/50 19/13/19 27/19/29
f 27/19/30 19/13/20 37/28/51
f 38/24/52 20/14/22 28/15/31
f 39/29/53 22/16/8 20/14/22
f 29/20/32 13/6/13 35/26/44
f 35/26/45 13/6/28 29/20/34
f 21/7/24 31/21/35 41/21/35
f 42/16/54 31/21/35 22/16/54
f 23/17/8 43/30/8 24/18/26
f 23/17/36 30/10/25 44/17/36
f 15/11/14 32/22/37 33/23/38
f 24/18/26 43/30/8 32/22/37
f 25/11/27 33/23/38 26/23/47
f 45/31/55 25/11/27 26/23/47
f 26/23/48 25/11/39 45/31/56
f 27/19/29 25/11/27 46/32/57
f 46/32/58 25/11/39 27/19/30
f 18/24/40 29/20/32 36/27/46
f 36/27/49 29/20/34 18/24/41
f 28/15/31 18/24/40 38/24/52
f 17/12/15 34/25/42 47/33/59
f 47/33/60 34/25/43 17/12/17
f 19/13/19 37/28/50 34/25/42
f 34/25/43 37/28/51 19/13/20
f 17/12/15 48/34/61 35/26/44
f 35/26/45 48/34/62 17/12/17
f 26/23/47 36/27/46 45/31/55
f 45/31/56 36/27/49 26/23/48
f 18/24/40 33/23/38 38/24/52
f 27/19/29 49/35/63 37/28/50
f 37/28/51 49/35/64 27/19/30
f 20/14/22 38/24/52 39/29/53
f 39/29/53 50/36/8 22/16/8
f 35/26/44 51/37/65 29/20/32
f 29/20/34 51/37/66 35/26/45
f 31/21/35 42/16/54 41/21/35
f 22/16/54 40/36/67 42/16/54
f 43/30/8 23/17/8 53/38/8
f 44/17/36 53/38/68 23/17/36
f 39/29/53 33/23/38 32/22/37
f 32/22/37 43/30/8 50/36/8
f 25/11/27 45/31/55 46/32/57
f 46/32/58 45/31/56 25/11/39
f 49/35/63 27/19/29 46/32/57
f 46/32/58 27/19/30 49/35/64
f 29/20/32 54/39/69 36/27/46
f 36/27/49 54/39/70 29/20/34
f 55/25/25 47/33/59 34/25/42
f 34/25/43 47/33/60 55/25/67
f 48/34/61 17/12/15 47/33/59
f 47/33/60 17/12/17 48/34/62
f 56/28/36 34/25/42 37/28/50
f 37/28/51 34/25/43 56/28/54
f 51/37/65 35/26/44 48/34/61
f 48/34/62 35/26/45 51/37/66
f 54/39/69 45/31/55 36/27/46
f 36/27/49 45/31/56 54/39/70
f 33/23/38 39/29/53 38/24/52
f 49/35/63 56/28/36 37/28/50
f 37/28/51 56/28/54 49/35/64
f 32/22/37 50/36/8 39/29/53
f 40/36/67 22/16/54 50/36/67
f 54/39/69 29/20/32 51/37/65
f 51/37/66 29/20/34 54/39/70
f 50/36/67 52/30/71 40/36/67
f 53/38/68 52/30/71 43/30/71
f 53/38/68 44/17/36 57/38/68
f 52/30/71 50/36/67 43/30/71
f 58/40/72 46/32/57 45/31/55
f 45/31/56 46/32/58 58/40/73
f 46/32/57 58/40/72 49/35/63
f 49/35/64 58/40/73 46/32/58
f 47/33/59 55/25/25 59/33/24
f 59/33/71 55/25/67 47/33/60
f 34/25/42 56/28/36 55/25/25
f 55/25/67 56/28/54 34/25/43
f 47/33/59 60/34/35 48/34/61
f 48/34/62 60/34/68 47/33/60
f 48/34/61 61/37/54 51/37/65
f 51/37/66 61/37/36 48/34/62
f 45/31/55 54/39/69 58/40/72
f 58/40/73 54/39/70 45/31/56
f 56/28/36 49/35/63 62/35/68
f 62/35/35 49/35/64 56/28/54
f 51/37/65 63/39/67 54/39/69
f 54/39/70 63/39/25 51/37/66
f 52/30/71 53/38/68 57/38/68
f 58/40/72 62/35/68 49/35/63
f 49/35/64 62/35/35 58/40/73
f 64/41/74 59/33/75 55/25/76
f 55/25/77 59/33/78 64/41/79
f 60/34/35 47/33/59 59/33/24
f 59/33/71 47/33/60 60/34/68
f 65/42/80 55/25/76 56/28/81
f 56/28/82 55/25/77 65/42/83
f 61/37/54 48/34/61 60/34/35
f 60/34/68 48/34/62 61/37/36
f 63/39/67 51/37/65 61/37/54
f 61/37/36 51/37/66 63/39/25
f 63/39/67 58/40/72 54/39/69
f 54/39/70 58/40/73 63/39/25
f 62/35/84 65/42/80 56/28/81
f 56/28/82 65/42/83 62/35/85
f 62/35/68 58/40/72 66/40/71
f 66/40/24 58/40/73 62/35/35
f 59/33/75 64/41/74 67/43/86
f 67/43/87 64/41/79 59/33/78
f 55/25/76 65/42/80 64/41/74
f 64/41/79 65/42/83 55/25/77
f 67/43/86 60/34/88 59/33/75
f 59/33/78 60/34/89 67/43/87
f 60/34/88 68/44/90 61/37/91
f 61/37/92 68/44/93 60/34/89
f 68/44/90 63/39/94 61/37/91
f 61/37/92 63/39/95 68/44/93
f 58/40/72 63/39/67 66/40/71
f 66/40/24 63/39/25 58/40/73
f 65/42/80 62/35/84 69/45/96
f 69/45/97 62/35/85 65/42/83
f 70/46/98 62/35/84 66/40/99
f 66/40/100 62/35/85 70/46/101
f 64/41/74 71/47/102 67/43/86
f 67/43/87 71/47/103 64/41/79
f 72/48/104 64/41/74 65/42/80
f 65/42/83 64/41/79 72/48/105
f 60/34/88 67/43/86 73/49/106
f 73/49/107 67/43/87 60/34/89
f 68/44/90 60/34/88 73/49/106
f 73/49/107 60/34/89 68/44/93
f 63/39/94 68/44/90 74/50/108
f 74/50/109 68/44/93 63/39/95
f 63/39/94 70/46/98 66/40/99
f 66/40/100 70/46/101 63/39/95
f 62/35/84 70/46/98 69/45/96
f 69/45/97 70/46/101 62/35/85
f 75/51/110 65/42/80 69/45/96
f 69/45/97 65/42/83 75/51/111
f 71/47/102 64/41/74 76/52/112
f 76/52/113 64/41/79 71/47/103
f 77/53/114 67/43/86 71/47/102
f 71/47/103 67/43/87 77/53/115
f 64/41/74 72/48/104 76/52/112
f 76/52/113 72/48/105 64/41/79
f 65/42/80 75/51/110 72/48/104
f 72/48/105 75/51/111 65/42/83
f 67/43/86 77/53/114 73/49/106
f 73/49/107 77/53/115 67/43/87
f 77/53/114 68/44/90 73/49/106
f 73/49/107 68/44/93 77/53/115
f 78/54/116 74/50/108 68/44/90
f 68/44/93 74/50/109 78/54/117
f 70/46/98 63/39/94 74/50/108
f 74/50/109 63/39/95 70/46/101
f 70/46/98 75/51/110 69/45/96
f 69/45/97 75/51/111 70/46/101
f 76/52/112 78/54/116 71/47/102
f 71/47/103 78/54/117 76/52/113
f 71/47/102 78/54/116 77/53/114
f 77/53/115 78/54/117 71/47/103
f 72/48/104 79/55/118 76/52/112
f 76/52/113 79/55/119 72/48/105
f 80/56/120 72/48/104 75/51/110
f 75/51/111 72/48/105 80/56/121
f 68/44/90 77/53/114 78/54/116
f 78/54/117 77/53/115 68/44/93
f 74/50/108 78/54/116 79/55/118
f 79/55/119 78/54/117 74/50/109
f 74/50/108 80/56/120 70/46/98
f 70/46/101 80/56/121 74/50/109
f 75/51/110 70/46/98 80/56/120
f 80/56/121 70/46/101 75/51/111
f 76/52/112 79/55/118 78/54/116
f 78/54/117 79/55/119 76/52/113
f 72/48/104 80/56/120 79/55/118
f 79/55/119 80/56/121 72/48/105
f 80/56/120 74/50/108 79/55/118
f 79/55/119 74/50/109 80/56/121
usemtl material_1_0
f 3/57/122 2/58/123 1/59/124
f 4/60/125 1/59/124 2/58/123
f 3/61/122 5/62/126 2/63/123
f 3/64/122 1/65/124 6/66/18
f 1/67/124 4/68/125 7/69/127
f 4/70/125 2/71/123 8/72/128
f 9/73/129 2/63/123 5/62/126
f 5/74/126 3/75/122 10/76/21
f 11/77/16 6/66/18 1/65/124
f 6/78/18 10/76/21 3/75/122
f 12/79/130 7/69/127 4/68/125
f 7/80/127 13/81/28 1/82/124
f 8/72/128 2/71/123 14/83/128
f 12/84/130 4/70/125 8/72/128
f 2/71/123 9/85/129 14/83/128
f 5/86/126 15/87/131 9/88/129
f 5/89/126 10/90/21 15/91/131
f 6/71/6 16/92/23 11/70/11
f 11/70/16 16/92/33 6/71/18
f 11/93/16 1/82/124 13/81/28
f 10/85/10 18/94/40 6/71/6
f 6/71/18 18/94/41 10/85/21
f 12/95/130 20/96/132 7/97/127
f 13/98/28 7/99/127 16/100/33
f 8/101/71 14/102/67 21/103/71
f 22/104/128 12/84/130 8/72/128
f 14/83/128 9/85/129 23/105/128
f 24/106/133 9/88/129 15/87/131
f 25/107/39 15/91/131 10/90/21
f 6/71/6 18/94/40 16/92/23
f 16/92/33 18/94/41 6/71/18
f 11/70/11 16/92/23 13/84/13
f 13/84/28 16/92/33 11/70/16
f 10/85/10 26/108/47 18/94/40
f 18/94/41 26/108/48 10/85/21
f 28/109/134 7/97/127 20/96/132
f 12/84/130 22/104/128 20/92/132
f 28/110/134 16/100/33 7/99/127
f 30/111/67 21/103/71 14/102/67
f 8/112/71 21/113/71 31/114/68
f 31/115/128 22/104/128 8/72/128
f 24/116/133 23/105/128 9/85/129
f 14/117/67 23/118/54 30/119/67
f 24/120/133 15/121/131 32/122/135
f 15/123/131 25/124/39 33/125/136
f 26/108/47 10/85/10 25/116/27
f 25/116/39 10/85/21 26/108/48
f 16/126/33 28/127/134 18/128/41
f 26/129/48 18/130/41 33/131/136
f 28/132/134 20/133/132 38/134/137
f 20/92/132 22/104/128 39/94/138
f 40/135/128 30/136/128 21/137/128
f 21/138/8 30/139/8 40/140/8
f 41/141/68 31/114/68 21/113/71
f 22/142/36 31/143/68 42/144/36
f 24/116/133 43/145/128 23/105/128
f 44/146/54 30/119/67 23/118/54
f 33/147/136 32/122/135 15/121/131
f 32/108/135 43/145/128 24/116/133
f 26/148/48 33/125/136 25/124/39
f 38/149/137 18/128/41 28/127/134
f 38/150/137 33/131/136 18/130/41
f 39/151/138 38/134/137 20/133/132
f 22/104/128 50/152/128 39/94/138
f 52/153/128 30/136/128 40/135/128
f 40/140/8 30/139/8 52/154/8
f 40/135/128 21/137/128 42/155/128
f 42/144/8 21/138/8 40/140/8
f 41/156/68 42/144/36 31/143/68
f 42/155/128 21/137/128 41/157/128
f 41/158/8 21/138/8 42/144/8
f 42/144/36 40/140/25 22/142/36
f 53/159/128 23/105/128 43/145/128
f 52/153/128 44/160/128 30/136/128
f 30/139/8 44/161/8 52/154/8
f 23/162/54 53/163/35 44/164/54
f 32/165/135 33/166/136 39/167/138
f 50/152/128 43/145/128 32/108/135
f 38/168/137 39/167/138 33/166/136
f 39/94/138 50/152/128 32/108/135
f 50/169/25 22/142/36 40/140/25
f 40/170/25 52/171/24 50/172/25
f 43/173/24 52/174/24 53/175/35
f 44/160/128 52/153/128 57/176/128
f 57/177/8 52/154/8 44/161/8
f 57/178/35 44/164/54 53/163/35
f 43/179/24 50/172/25 52/171/24
f 57/180/35 53/175/35 52/174/24
