# SSTK version 0.8.0
# 8
mtllib original-8.mtl
o CGM_CAP_HW_Box_Frame4/CGM_CAP_HW_Box_Frame/mesh2/mesh2-geometry#mesh2-geometry
v -0.241760 0.281437 -0.301270
v -0.235941 -0.544850 -0.307088
v -0.235941 0.281437 -0.307088
v -0.241760 -0.544850 -0.301270
v -0.235941 -0.544850 -0.324545
v -0.241760 0.281437 -0.330364
v -0.282493 -0.544850 -0.301270
v -0.235941 0.281437 -0.324545
v -0.282493 0.281437 -0.330364
v -0.282493 0.281437 -0.301270
v -0.241760 -0.544850 -0.330364
v -0.282493 -0.544850 -0.330364
v -0.288312 0.281437 -0.307088
v -0.288312 -0.544850 -0.324545
v -0.288312 0.281437 -0.324545
v -0.288312 -0.544850 -0.307088
vn 0.7071067811865475 0 0.7071067811865475
vn 1 0 0
vn 0 1 0
vn 0 0 1
vn 0 -1 0
vn 0.7071067811865475 0 -0.7071067811865475
vn 0 0 -1
vn -0.7071067811865475 0 0.7071067811865475
vn -0.7071067811865475 0 -0.7071067811865475
vn -1 0 0
usemtl material_0_0
f 1//1 2//1 3//1
f 2//1 1//1 4//1
f 5//2 3//2 2//2
f 3//3 6//3 1//3
f 1//4 7//4 4//4
f 4//5 5//5 2//5
f 3//2 5//2 8//2
f 6//3 3//3 8//3
f 1//3 6//3 9//3
f 7//4 1//4 10//4
f 11//5 4//5 7//5
f 5//5 4//5 11//5
f 11//6 8//6 5//6
f 8//6 11//6 6//6
f 6//7 12//7 9//7
f 1//3 9//3 10//3
f 13//8 7//8 10//8
f 11//5 7//5 12//5
f 12//7 6//7 11//7
f 14//9 9//9 12//9
f 10//3 9//3 15//3
f 7//8 13//8 16//8
f 10//3 15//3 13//3
f 12//5 7//5 16//5
f 9//9 14//9 15//9
f 12//5 16//5 14//5
f 15//10 16//10 13//10
f 16//10 15//10 14//10
usemtl material_1_0
f 3//9 2//9 1//9
f 4//9 1//9 2//9
f 2//10 3//10 5//10
f 1//5 6//5 3//5
f 4//7 7//7 1//7
f 2//3 5//3 4//3
f 8//10 5//10 3//10
f 8//5 3//5 6//5
f 9//5 6//5 1//5
f 10//7 1//7 7//7
f 7//3 4//3 11//3
f 11//3 4//3 5//3
f 5//8 8//8 11//8
f 6//8 11//8 8//8
f 9//4 12//4 6//4
f 10//5 9//5 1//5
f 10//6 7//6 13//6
f 12//3 7//3 11//3
f 11//4 6//4 12//4
f 12//1 9//1 14//1
f 15//5 9//5 10//5
f 16//6 13//6 7//6
f 13//5 15//5 10//5
f 16//3 7//3 12//3
f 15//1 14//1 9//1
f 14//3 16//3 12//3
f 13//2 16//2 15//2
f 14//2 15//2 16//2
