# SSTK version 0.8.0
# 16
mtllib original-16.mtl
o CGM_CAP_Lock1/CGM_CAP_Lock/mesh4/mesh4-geometry#mesh4-geometry
v -0.270855 -0.118742 0.149546
v -0.279001 -0.119906 0.147531
v -0.270855 -0.119906 0.147531
v -0.279001 -0.118742 0.149546
v -0.270855 -0.122233 0.147531
v -0.270855 -0.103613 0.144393
v -0.270855 -0.118742 0.172822
v -0.279001 -0.112923 0.147074
v -0.279001 -0.122233 0.147531
v -0.279001 -0.118742 0.172822
v -0.279001 -0.121070 0.144891
v -0.279001 -0.112923 0.175294
v -0.279001 -0.123397 0.149546
v -0.270855 -0.138526 0.144393
v -0.270855 -0.103613 0.237496
v -0.270855 -0.119906 0.174838
v -0.276674 -0.112923 0.147074
v -0.279001 -0.106959 0.153038
v -0.270855 -0.123397 0.149546
v -0.276674 -0.138526 0.144393
v -0.276674 -0.103613 0.237496
v -0.279001 -0.119906 0.174838
v -0.276674 -0.121070 0.144891
v -0.276674 -0.106959 0.153038
v -0.279001 -0.106959 0.169331
v -0.279001 -0.129216 0.147074
v -0.279001 -0.123397 0.172822
v -0.270855 -0.138526 0.237496
v -0.276674 -0.103613 0.144393
v -0.270855 -0.122233 0.174838
v -0.276674 -0.138526 0.237496
v -0.279001 -0.122233 0.174838
v -0.279001 -0.121070 0.177477
v -0.276674 -0.106959 0.169331
v -0.279001 -0.104777 0.161184
v -0.279001 -0.129216 0.175294
v -0.270855 -0.123397 0.172822
v -0.276674 -0.104777 0.161184
v -0.276674 -0.135180 0.169331
v -0.276674 -0.121070 0.177477
v -0.276674 -0.129216 0.147074
v -0.276674 -0.112923 0.175294
v -0.279001 -0.135180 0.153038
v -0.276674 -0.137363 0.161184
v -0.276674 -0.129216 0.175294
v -0.276674 -0.135180 0.153038
v -0.279001 -0.135180 0.169331
v -0.279001 -0.137363 0.161184
vn 0 -0.965925849201117 0.2588189595935754
vn 0 -0.5000001748438417 0.8660253028382762
vn 0 0.5000001748438417 0.8660253028382762
vn 0 -0.965925849201117 -0.2588189595935754
vn -1 0 0
vn 0 0.965925849201117 0.2588189595935754
vn 0 -0.5000001748438417 -0.8660253028382762
vn 0 0.2588189595935754 -0.965925849201117
vn 0 0.7071067811865475 -0.7071067811865475
vn 0 0.965925849201117 -0.2588189595935754
vn 0 0.5000001748438417 -0.8660253028382762
vn 0 -0.2588189595935754 -0.965925849201117
vn 0 0.7071067811865475 0.7071067811865475
vn 0 0.2588189595935754 0.965925849201117
vn 0 -0.2588189595935754 0.965925849201117
vn 0 -0.7071067811865475 -0.7071067811865475
vn 0 -0.7071067811865475 0.7071067811865475
vn 1 0 0
vn 0 0 1
vn 0 -1 0
vn 0 1 0
vn 0 0 -1
usemtl material_0_0
f 1//1 2//2 3//2
f 2//2 1//1 4//1
f 2//2 5//3 3//2
f 7//4 4//1 1//1
f 8//5 2//5 4//5
f 5//3 2//2 9//3
f 4//1 7//4 10//4
f 11//5 2//5 8//5
f 4//5 12//5 8//5
f 11//5 9//5 2//5
f 13//6 5//3 9//3
f 16//7 10//4 7//4
f 10//5 12//5 4//5
f 17//8 11//8 8//8
f 8//5 12//5 18//5
f 11//5 13//5 9//5
f 5//3 13//6 19//6
f 10//4 16//7 22//7
f 22//5 12//5 10//5
f 11//8 17//8 23//8
f 8//9 24//9 17//9
f 18//5 12//5 25//5
f 24//9 8//9 18//9
f 26//5 13//5 11//5
f 27//10 19//6 13//6
f 16//7 32//11 22//7
f 22//5 33//5 12//5
f 23//12 26//12 11//12
f 12//13 34//13 25//13
f 18//5 25//5 35//5
f 35//10 24//10 18//10
f 26//5 36//5 13//5
f 19//6 27//10 37//10
f 13//5 36//5 27//5
f 32//11 16//7 30//11
f 32//5 33//5 22//5
f 40//14 12//14 33//14
f 26//12 23//12 41//12
f 34//13 12//13 42//13
f 38//6 25//6 34//6
f 25//6 38//6 35//6
f 24//10 35//10 38//10
f 43//5 36//5 26//5
f 32//11 37//10 27//10
f 33//5 27//5 36//5
f 37//10 32//11 30//11
f 27//5 33//5 32//5
f 12//14 40//14 42//14
f 33//15 45//15 40//15
f 46//16 26//16 41//16
f 43//5 47//5 36//5
f 26//16 46//16 43//16
f 45//15 33//15 36//15
f 39//1 48//1 44//1
f 36//17 39//17 45//17
f 47//5 43//5 48//5
f 39//17 36//17 47//17
f 44//4 43//4 46//4
f 48//1 39//1 47//1
f 43//4 44//4 48//4
usemtl material_1_0
f 3//11 2//11 1//10
f 4//10 1//10 2//11
f 3//11 5//7 2//11
f 1//5 6//5 3//5
f 1//10 4//10 7//6
f 4//18 2//18 8//18
f 9//7 2//11 5//7
f 3//5 6//5 5//5
f 7//5 6//5 1//5
f 10//6 7//6 4//10
f 8//18 2//18 11//18
f 8//18 12//18 4//18
f 2//18 9//18 11//18
f 9//7 5//7 13//4
f 6//5 14//5 5//5
f 6//5 7//5 15//5
f 7//6 10//6 16//3
f 4//18 12//18 10//18
f 8//15 11//15 17//15
f 18//18 12//18 8//18
f 9//18 13//18 11//18
f 19//4 13//4 5//7
f 5//5 14//5 19//5
f 14//19 6//19 20//19
f 7//5 16//5 15//5
f 15//20 21//20 6//20
f 22//3 16//3 10//6
f 10//18 12//18 22//18
f 23//15 17//15 11//15
f 17//17 24//17 8//17
f 25//18 12//18 18//18
f 18//17 8//17 24//17
f 11//18 13//18 26//18
f 13//4 19//4 27//1
f 28//5 19//5 14//5
f 29//19 20//19 6//19
f 14//21 20//21 28//21
f 16//5 30//5 15//5
f 29//20 6//20 21//20
f 21//22 15//22 31//22
f 22//3 32//2 16//3
f 12//18 33//18 22//18
f 17//18 23//18 29//18
f 11//14 26//14 23//14
f 24//18 17//18 29//18
f 25//16 34//16 12//16
f 35//18 25//18 18//18
f 18//1 24//1 35//1
f 13//18 36//18 26//18
f 37//1 27//1 19//4
f 27//18 36//18 13//18
f 19//5 28//5 37//5
f 29//18 23//18 20//18
f 31//21 28//21 20//21
f 30//5 37//5 15//5
f 30//2 16//3 32//2
f 21//18 38//18 29//18
f 28//22 31//22 15//22
f 21//18 31//18 39//18
f 22//18 33//18 32//18
f 33//12 12//12 40//12
f 41//14 23//14 26//14
f 38//18 24//18 29//18
f 42//16 12//16 34//16
f 34//4 25//4 38//4
f 35//4 38//4 25//4
f 38//1 35//1 24//1
f 26//18 36//18 43//18
f 27//1 37//1 32//2
f 36//18 27//18 33//18
f 15//5 37//5 28//5
f 41//18 20//18 23//18
f 20//18 44//18 31//18
f 30//2 32//2 37//1
f 38//18 21//18 34//18
f 39//18 31//18 44//18
f 45//18 21//18 39//18
f 32//18 33//18 27//18
f 42//12 40//12 12//12
f 40//8 45//8 33//8
f 41//13 26//13 46//13
f 34//18 21//18 42//18
f 36//18 47//18 43//18
f 43//13 46//13 26//13
f 36//8 33//8 45//8
f 46//18 20//18 41//18
f 44//18 20//18 46//18
f 44//10 48//10 39//10
f 40//18 21//18 45//18
f 45//9 39//9 36//9
f 42//18 21//18 40//18
f 48//18 43//18 47//18
f 47//9 36//9 39//9
f 46//6 43//6 44//6
f 47//10 39//10 48//10
f 48//6 44//6 43//6
usemtl material_2_0
f 3//18 6//18 1//18
f 5//18 6//18 3//18
f 1//18 6//18 7//18
f 5//18 14//18 6//18
f 15//18 7//18 6//18
f 19//18 14//18 5//18
f 20//22 6//22 14//22
f 15//18 16//18 7//18
f 6//21 21//21 15//21
f 14//18 19//18 28//18
f 6//22 20//22 29//22
f 28//20 20//20 14//20
f 15//18 30//18 16//18
f 21//21 6//21 29//21
f 31//19 15//19 21//19
f 29//5 23//5 17//5
f 29//5 17//5 24//5
f 37//18 28//18 19//18
f 20//5 23//5 29//5
f 20//20 28//20 31//20
f 15//18 37//18 30//18
f 29//5 38//5 21//5
f 15//19 31//19 28//19
f 39//5 31//5 21//5
f 29//5 24//5 38//5
f 28//18 37//18 15//18
f 23//5 20//5 41//5
f 31//5 44//5 20//5
f 34//5 21//5 38//5
f 44//5 31//5 39//5
f 39//5 21//5 45//5
f 42//5 21//5 34//5
f 41//5 20//5 46//5
f 46//5 20//5 44//5
f 45//5 21//5 40//5
f 40//5 21//5 42//5
