# SSTK version 0.8.0
# 17
mtllib original-17.mtl
o mesh18/mesh18-geometry#mesh18-geometry
v -0.064999 -0.878323 -0.356847
v -0.064907 -0.878323 -0.348694
v -0.064907 -0.878323 -0.356189
v -0.064999 -0.878323 -0.348036
v -0.064907 -0.880403 -0.356189
v -0.064999 -0.880403 -0.356847
v -0.065276 -0.878323 -0.357261
v -0.064907 -0.880403 -0.348694
v -0.065276 -0.880403 -0.357261
v -0.065276 -0.878323 -0.347622
v -0.064999 -0.880403 -0.348036
v -0.065276 -0.880403 -0.347622
v -0.065708 -0.878323 -0.357479
v -0.065708 -0.880403 -0.347404
v -0.065708 -0.880403 -0.357479
v -0.065708 -0.878323 -0.347404
v -0.066269 -0.878323 -0.357552
v -0.066269 -0.880403 -0.347331
v -0.066269 -0.880403 -0.357552
v -0.066269 -0.878323 -0.347331
v -0.069105 -0.878323 -0.357552
v -0.067235 -0.878323 -0.355681
v -0.067235 -0.880403 -0.349202
v -0.069105 -0.880403 -0.357552
v -0.067235 -0.878323 -0.349202
v -0.069063 -0.880403 -0.347331
v -0.067235 -0.880403 -0.355681
v -0.070038 -0.878323 -0.357493
v -0.069177 -0.878323 -0.355681
v -0.069063 -0.878323 -0.347331
v -0.069191 -0.880403 -0.349202
v -0.069177 -0.880403 -0.355681
v -0.070038 -0.880403 -0.357493
v -0.069191 -0.878323 -0.349202
v -0.070164 -0.880403 -0.347416
v -0.070935 -0.878323 -0.357318
v -0.069772 -0.878323 -0.355627
v -0.069772 -0.880403 -0.355627
v -0.070164 -0.878323 -0.347416
v -0.069828 -0.880403 -0.349273
v -0.069828 -0.878323 -0.349273
v -0.070935 -0.880403 -0.357318
v -0.070282 -0.878323 -0.355464
v -0.071141 -0.880403 -0.347672
v -0.070353 -0.880403 -0.349486
v -0.070282 -0.880403 -0.355464
v -0.071763 -0.878323 -0.356996
v -0.070707 -0.878323 -0.355193
v -0.070353 -0.878323 -0.349486
v -0.071141 -0.878323 -0.347672
v -0.070707 -0.880403 -0.355193
v -0.071763 -0.880403 -0.356996
v -0.071047 -0.878323 -0.354814
v -0.071983 -0.880403 -0.348092
v -0.070776 -0.880403 -0.349815
v -0.070776 -0.878323 -0.349815
v -0.071047 -0.880403 -0.354814
v -0.072488 -0.878323 -0.356501
v -0.071307 -0.878323 -0.354341
v -0.071983 -0.878323 -0.348092
v -0.071359 -0.880403 -0.350722
v -0.071111 -0.880403 -0.350232
v -0.071307 -0.880403 -0.354341
v -0.072488 -0.880403 -0.356501
v -0.071493 -0.878323 -0.353788
v -0.071111 -0.878323 -0.350232
v -0.071359 -0.878323 -0.350722
v -0.072680 -0.880403 -0.348673
v -0.071522 -0.880403 -0.351269
v -0.071493 -0.880403 -0.353788
v -0.073095 -0.880403 -0.355818
v -0.071642 -0.878323 -0.352441
v -0.072680 -0.878323 -0.348673
v -0.071605 -0.878323 -0.353155
v -0.071522 -0.878323 -0.351269
v -0.071642 -0.880403 -0.352441
v -0.071605 -0.880403 -0.353155
v -0.073095 -0.878323 -0.355818
v -0.073231 -0.878323 -0.349404
v -0.073566 -0.880403 -0.354933
v -0.073231 -0.880403 -0.349404
v -0.073566 -0.878323 -0.354933
v -0.073637 -0.878323 -0.350277
v -0.073869 -0.880403 -0.353817
v -0.073637 -0.880403 -0.350277
v -0.073869 -0.878323 -0.353817
v -0.073887 -0.878323 -0.351290
v -0.073970 -0.880403 -0.352441
v -0.073887 -0.880403 -0.351290
v -0.073970 -0.878323 -0.352441
vn 0 1 0
vn 0 -1 0
vn 1 0 0
vn -1 0 0
vn 0.9903358469951041 0 -0.1386899785726769
vn -0.9903358469951041 0 0.1386899785726769
vn 0.990335846995104 0 0.13868997857267779
vn -0.990335846995104 0 -0.13868997857267779
vn 0.8311789625695188 0 -0.5560049749614282
vn -0.8311789625695188 0 0.5560049749614282
vn 0.4504730207602752 0 -0.8927900411446762
vn -0.4504730207602752 0 0.8927900411446762
vn 0.8311789625695183 0 0.5560049749614288
vn -0.8311789625695183 0 -0.5560049749614288
vn 0.45047302076027446 0 0.8927900411446765
vn -0.45047302076027446 0 -0.8927900411446765
vn 0.12878605219828584 0 -0.9916724019348226
vn -0.12878605219828584 0 0.9916724019348226
vn 0.12878605219828496 0 0.9916724019348226
vn -0.12878605219828496 0 -0.9916724019348226
vn 0 0 -1
vn 0 0 1
vn -0.06266696822428271 0 -0.998034493939752
vn 0.06266696822428271 0 0.998034493939752
vn -0.07711998600719719 0 0.9970218190983834
vn 0.07711998600719719 0 -0.9970218190983834
vn -0.1921770529516072 0 -0.98136027039963
vn 0.1921770529516072 0 0.98136027039963
vn 0.09064304064715804 0 0.99588344658511
vn -0.09064304064715804 0 -0.99588344658511
vn 0.11072094808600487 0 -0.9938515340104558
vn -0.11072094808600487 0 0.9938515340104558
vn -0.2530319778865247 0 0.9674579154499865
vn 0.2530319778865247 0 -0.9674579154499865
vn -0.3616591503813414 0 -0.9323103876635969
vn 0.3616591503813414 0 0.9323103876635969
vn 0.30353116299597427 0 0.9528215116643365
vn -0.30353116299597427 0 -0.9528215116643365
vn 0.37655887367769897 0 -0.9263926892277285
vn -0.37655887367769897 0 0.9263926892277285
vn 0.5373281620815716 0 0.843373254398099
vn -0.5373281620815716 0 -0.843373254398099
vn -0.44675313611274586 0 0.8946572725761672
vn 0.44675313611274586 0 -0.8946572725761672
vn 0.6131238468585434 0 -0.7899868026830457
vn -0.6131238468585434 0 0.7899868026830457
vn -0.5638292579175506 0 -0.8258913777950126
vn 0.5638292579175506 0 0.8258913777950126
vn 0.7444392379150016 0 0.6676902133868159
vn -0.7444392379150016 0 -0.6676902133868159
vn 0.8761668580815704 0 0.4820079219260505
vn -0.8761668580815704 0 -0.4820079219260505
vn -0.6399202633653182 0 0.7684413162593887
vn 0.6399202633653182 0 -0.7684413162593887
vn 0.7800687556836743 0 -0.6256938040336694
vn -0.7800687556836743 0 0.6256938040336694
vn -0.7478757272882872 0 -0.6638387579322371
vn 0.7478757272882872 0 0.6638387579322371
vn 0.947868775316264 0 0.3186609244643052
vn -0.947868775316264 0 -0.3186609244643052
vn 0.8923130901869811 0 -0.4514170456251742
vn -0.8923130901869811 0 0.4514170456251742
vn 0.9583733184421099 0 -0.285518094870112
vn -0.9583733184421099 0 0.285518094870112
vn 0.984820462779062 0 0.17357608156550322
vn -0.984820462779062 0 -0.17357608156550322
vn -0.7983670878483276 0 0.6021710662598965
vn 0.7983670878483276 0 -0.6021710662598965
vn 0.9947619201181341 0 -0.1022189917915593
vn -0.9947619201181341 0 0.1022189917915593
vn -0.8826061835798985 0 -0.4701130977823596
vn 0.8826061835798985 0 0.4701130977823596
vn 0.998642133224362 0 0.05209500694976136
vn -0.998642133224362 0 -0.05209500694976136
vn -0.906733632604301 0 0.42170382913154647
vn 0.906733632604301 0 -0.42170382913154647
vn -0.9650314511923576 0 -0.26213412255860996
vn 0.9650314511923576 0 0.26213412255860996
vn -0.9708847823111513 0 0.23954694628950793
vn 0.9708847823111513 0 -0.23954694628950793
vn -0.9973108196538075 0 -0.07328798674715178
vn 0.9973108196538075 0 0.07328798674715178
vn -0.9973925649683774 0 0.07216696852301194
vn 0.9973925649683774 0 -0.07216696852301194
usemtl material_0_0
f 1//1 2//1 3//1
f 2//1 1//1 4//1
f 3//2 2//2 1//2
f 4//2 1//2 2//2
f 2//3 5//3 3//3
f 3//4 5//4 2//4
f 3//5 6//5 1//5
f 1//6 6//6 3//6
f 4//1 1//1 7//1
f 7//2 1//2 4//2
f 4//7 8//7 2//7
f 2//8 8//8 4//8
f 5//3 2//3 8//3
f 8//4 2//4 5//4
f 6//5 3//5 5//5
f 5//6 3//6 6//6
f 9//9 1//9 6//9
f 6//10 1//10 9//10
f 1//9 9//9 7//9
f 7//10 9//10 1//10
f 4//1 7//1 10//1
f 10//2 7//2 4//2
f 8//7 4//7 11//7
f 11//8 4//8 8//8
f 11//2 5//2 8//2
f 8//1 5//1 11//1
f 5//2 11//2 6//2
f 6//1 11//1 5//1
f 6//2 12//2 9//2
f 9//1 12//1 6//1
f 9//11 13//11 7//11
f 7//12 13//12 9//12
f 10//1 7//1 13//1
f 13//2 7//2 10//2
f 10//13 11//13 4//13
f 4//14 11//14 10//14
f 6//2 11//2 12//2
f 12//1 11//1 6//1
f 9//2 12//2 14//2
f 14//1 12//1 9//1
f 13//11 9//11 15//11
f 15//12 9//12 13//12
f 10//1 13//1 16//1
f 16//2 13//2 10//2
f 11//13 10//13 12//13
f 12//14 10//14 11//14
f 10//15 14//15 12//15
f 12//16 14//16 10//16
f 9//2 14//2 15//2
f 15//1 14//1 9//1
f 15//17 17//17 13//17
f 13//18 17//18 15//18
f 16//1 13//1 17//1
f 17//2 13//2 16//2
f 14//15 10//15 16//15
f 16//16 10//16 14//16
f 15//2 14//2 18//2
f 18//1 14//1 15//1
f 17//17 15//17 19//17
f 19//18 15//18 17//18
f 16//1 17//1 20//1
f 20//2 17//2 16//2
f 16//19 18//19 14//19
f 14//20 18//20 16//20
f 15//2 18//2 19//2
f 19//1 18//1 15//1
f 19//21 21//21 17//21
f 17//22 21//22 19//22
f 20//1 17//1 22//1
f 22//2 17//2 20//2
f 18//19 16//19 20//19
f 20//20 16//20 18//20
f 19//2 18//2 23//2
f 23//1 18//1 19//1
f 21//21 19//21 24//21
f 24//22 19//22 21//22
f 22//1 17//1 21//1
f 21//2 17//2 22//2
f 25//1 20//1 22//1
f 22//2 20//2 25//2
f 20//22 26//22 18//22
f 18//21 26//21 20//21
f 23//2 18//2 26//2
f 26//1 18//1 23//1
f 27//2 19//2 23//2
f 23//1 19//1 27//1
f 19//2 27//2 24//2
f 24//1 27//1 19//1
f 24//23 28//23 21//23
f 21//24 28//24 24//24
f 22//1 21//1 29//1
f 29//2 21//2 22//2
f 20//1 25//1 30//1
f 30//2 25//2 20//2
f 22//4 23//4 25//4
f 25//3 23//3 22//3
f 26//22 20//22 30//22
f 30//21 20//21 26//21
f 23//2 26//2 31//2
f 31//1 26//1 23//1
f 23//4 22//4 27//4
f 27//3 22//3 23//3
f 24//2 27//2 32//2
f 32//1 27//1 24//1
f 28//23 24//23 33//23
f 33//24 24//24 28//24
f 29//1 21//1 28//1
f 28//2 21//2 29//2
f 32//22 22//22 29//22
f 29//21 22//21 32//21
f 30//1 25//1 34//1
f 34//2 25//2 30//2
f 23//21 34//21 25//21
f 25//22 34//22 23//22
f 30//25 35//25 26//25
f 26//26 35//26 30//26
f 31//2 26//2 35//2
f 35//1 26//1 31//1
f 34//21 23//21 31//21
f 31//22 23//22 34//22
f 22//22 32//22 27//22
f 27//21 32//21 22//21
f 24//2 32//2 33//2
f 33//1 32//1 24//1
f 33//27 36//27 28//27
f 28//28 36//28 33//28
f 29//1 28//1 37//1
f 37//2 28//2 29//2
f 29//29 38//29 32//29
f 32//30 38//30 29//30
f 30//1 34//1 39//1
f 39//2 34//2 30//2
f 35//25 30//25 39//25
f 39//26 30//26 35//26
f 31//2 35//2 40//2
f 40//1 35//1 31//1
f 31//31 41//31 34//31
f 34//32 41//32 31//32
f 33//2 32//2 38//2
f 38//1 32//1 33//1
f 36//27 33//27 42//27
f 42//28 33//28 36//28
f 43//1 28//1 36//1
f 36//2 28//2 43//2
f 37//1 28//1 43//1
f 43//2 28//2 37//2
f 38//29 29//29 37//29
f 37//30 29//30 38//30
f 39//1 34//1 41//1
f 41//2 34//2 39//2
f 39//33 44//33 35//33
f 35//34 44//34 39//34
f 40//2 35//2 45//2
f 45//1 35//1 40//1
f 41//31 31//31 40//31
f 40//32 31//32 41//32
f 33//2 38//2 46//2
f 46//1 38//1 33//1
f 33//2 46//2 42//2
f 42//1 46//1 33//1
f 42//35 47//35 36//35
f 36//36 47//36 42//36
f 43//1 36//1 48//1
f 48//2 36//2 43//2
f 46//37 37//37 43//37
f 43//38 37//38 46//38
f 37//37 46//37 38//37
f 38//38 46//38 37//38
f 39//1 41//1 49//1
f 49//2 41//2 39//2
f 44//33 39//33 50//33
f 50//34 39//34 44//34
f 45//2 35//2 44//2
f 44//1 35//1 45//1
f 49//39 40//39 45//39
f 45//40 40//40 49//40
f 40//39 49//39 41//39
f 41//40 49//40 40//40
f 42//2 46//2 51//2
f 51//1 46//1 42//1
f 47//35 42//35 52//35
f 52//36 42//36 47//36
f 53//1 36//1 47//1
f 47//2 36//2 53//2
f 48//1 36//1 53//1
f 53//2 36//2 48//2
f 51//41 43//41 48//41
f 48//42 43//42 51//42
f 43//41 51//41 46//41
f 46//42 51//42 43//42
f 39//1 49//1 50//1
f 50//2 49//2 39//2
f 50//43 54//43 44//43
f 44//44 54//44 50//44
f 45//2 44//2 55//2
f 55//1 44//1 45//1
f 45//45 56//45 49//45
f 49//46 56//46 45//46
f 42//2 51//2 57//2
f 57//1 51//1 42//1
f 42//2 57//2 52//2
f 52//1 57//1 42//1
f 52//47 58//47 47//47
f 47//48 58//48 52//48
f 53//1 47//1 59//1
f 59//2 47//2 53//2
f 53//49 51//49 48//49
f 48//50 51//50 53//50
f 50//1 49//1 56//1
f 56//2 49//2 50//2
f 54//43 50//43 60//43
f 60//44 50//44 54//44
f 61//2 44//2 54//2
f 54//1 44//1 61//1
f 55//2 44//2 62//2
f 62//1 44//1 55//1
f 56//45 45//45 55//45
f 55//46 45//46 56//46
f 51//49 53//49 57//49
f 57//50 53//50 51//50
f 52//2 57//2 63//2
f 63//1 57//1 52//1
f 58//47 52//47 64//47
f 64//48 52//48 58//48
f 60//1 47//1 58//1
f 58//2 47//2 60//2
f 59//1 47//1 65//1
f 65//2 47//2 59//2
f 59//51 57//51 53//51
f 53//52 57//52 59//52
f 50//1 56//1 66//1
f 66//2 56//2 50//2
f 50//1 67//1 60//1
f 60//2 67//2 50//2
f 60//53 68//53 54//53
f 54//54 68//54 60//54
f 62//2 44//2 61//2
f 61//1 44//1 62//1
f 61//2 54//2 69//2
f 69//1 54//1 61//1
f 62//55 56//55 55//55
f 55//56 56//56 62//56
f 57//51 59//51 63//51
f 63//52 59//52 57//52
f 52//2 63//2 70//2
f 70//1 63//1 52//1
f 52//2 54//2 64//2
f 64//1 54//1 52//1
f 71//57 58//57 64//57
f 64//58 58//58 71//58
f 60//1 72//1 47//1
f 47//2 72//2 60//2
f 60//1 58//1 73//1
f 73//2 58//2 60//2
f 65//1 47//1 74//1
f 74//2 47//2 65//2
f 65//59 63//59 59//59
f 59//60 63//60 65//60
f 56//55 62//55 66//55
f 66//56 62//56 56//56
f 50//1 66//1 67//1
f 67//2 66//2 50//2
f 60//1 67//1 75//1
f 75//2 67//2 60//2
f 68//53 60//53 73//53
f 73//54 60//54 68//54
f 64//2 54//2 68//2
f 68//1 54//1 64//1
f 61//61 66//61 62//61
f 62//62 66//62 61//62
f 69//2 54//2 76//2
f 76//1 54//1 69//1
f 69//63 67//63 61//63
f 61//64 67//64 69//64
f 63//59 65//59 70//59
f 70//60 65//60 63//60
f 52//2 70//2 77//2
f 77//1 70//1 52//1
f 76//2 54//2 52//2
f 52//1 54//1 76//1
f 58//57 71//57 78//57
f 78//58 71//58 58//58
f 64//2 68//2 71//2
f 71//1 68//1 64//1
f 60//1 75//1 72//1
f 72//2 75//2 60//2
f 74//1 47//1 72//1
f 72//2 47//2 74//2
f 73//1 58//1 78//1
f 78//2 58//2 73//2
f 74//65 70//65 65//65
f 65//66 70//66 74//66
f 66//61 61//61 67//61
f 67//62 61//62 66//62
f 67//63 69//63 75//63
f 75//64 69//64 67//64
f 79//67 68//67 73//67
f 73//68 68//68 79//68
f 76//69 75//69 69//69
f 69//70 75//70 76//70
f 70//65 74//65 77//65
f 77//66 74//66 70//66
f 52//2 77//2 76//2
f 76//1 77//1 52//1
f 80//71 78//71 71//71
f 71//72 78//72 80//72
f 71//2 68//2 81//2
f 81//1 68//1 71//1
f 75//69 76//69 72//69
f 72//70 76//70 75//70
f 72//73 77//73 74//73
f 74//74 77//74 72//74
f 73//1 78//1 79//1
f 79//2 78//2 73//2
f 68//67 79//67 81//67
f 81//68 79//68 68//68
f 77//73 72//73 76//73
f 76//74 72//74 77//74
f 78//71 80//71 82//71
f 82//72 80//72 78//72
f 71//2 81//2 80//2
f 80//1 81//1 71//1
f 79//1 78//1 82//1
f 82//2 78//2 79//2
f 83//75 81//75 79//75
f 79//76 81//76 83//76
f 84//77 82//77 80//77
f 80//78 82//78 84//78
f 80//2 81//2 85//2
f 85//1 81//1 80//1
f 79//1 82//1 83//1
f 83//2 82//2 79//2
f 81//75 83//75 85//75
f 85//76 83//76 81//76
f 82//77 84//77 86//77
f 86//78 84//78 82//78
f 80//2 85//2 84//2
f 84//1 85//1 80//1
f 83//1 82//1 86//1
f 86//2 82//2 83//2
f 87//79 85//79 83//79
f 83//80 85//80 87//80
f 88//81 86//81 84//81
f 84//82 86//82 88//82
f 84//2 85//2 89//2
f 89//1 85//1 84//1
f 83//1 86//1 87//1
f 87//2 86//2 83//2
f 85//79 87//79 89//79
f 89//80 87//80 85//80
f 86//81 88//81 90//81
f 90//82 88//82 86//82
f 84//2 89//2 88//2
f 88//1 89//1 84//1
f 87//1 86//1 90//1
f 90//2 86//2 87//2
f 90//83 89//83 87//83
f 87//84 89//84 90//84
f 89//83 90//83 88//83
f 88//84 90//84 89//84
