# SSTK version 0.8.0
# 22
mtllib original-22.mtl
o mesh23/mesh23-geometry#mesh23-geometry
v -0.101703 -0.878323 -0.348845
v -0.101684 -0.878323 -0.347994
v -0.101618 -0.878323 -0.348397
v -0.101881 -0.878323 -0.347637
v -0.101618 -0.880403 -0.348397
v -0.101703 -0.880403 -0.348845
v -0.101959 -0.878323 -0.349221
v -0.101684 -0.880403 -0.347994
v -0.101959 -0.880403 -0.349221
v -0.102202 -0.878323 -0.347387
v -0.101881 -0.880403 -0.347637
v -0.102335 -0.878323 -0.349477
v -0.102202 -0.880403 -0.347387
v -0.102335 -0.880403 -0.349477
v -0.102640 -0.878323 -0.347304
v -0.102640 -0.880403 -0.347304
v -0.102782 -0.878323 -0.349562
v -0.102782 -0.880403 -0.349562
v -0.102910 -0.878323 -0.347339
v -0.102910 -0.880403 -0.347339
v -0.103101 -0.878323 -0.349527
v -0.103101 -0.880403 -0.349527
v -0.103123 -0.878323 -0.347431
v -0.103123 -0.880403 -0.347431
v -0.103378 -0.878323 -0.349420
v -0.103378 -0.880403 -0.349420
v -0.103158 -0.878323 -0.345693
v -0.102988 -0.878323 -0.346842
v -0.103796 -0.878323 -0.349030
v -0.103392 -0.878323 -0.345870
v -0.102988 -0.880403 -0.346842
v -0.103158 -0.880403 -0.345693
v -0.103796 -0.880403 -0.349030
v -0.103392 -0.880403 -0.345870
v -0.102831 -0.878323 -0.345487
v -0.102704 -0.878323 -0.346480
v -0.104038 -0.880403 -0.348454
v -0.103917 -0.878323 -0.346630
v -0.102704 -0.880403 -0.346480
v -0.102831 -0.880403 -0.345487
v -0.103917 -0.880403 -0.346630
v -0.104038 -0.878323 -0.348454
v -0.102462 -0.878323 -0.345324
v -0.102349 -0.880403 -0.346253
v -0.104116 -0.880403 -0.347772
v -0.104066 -0.880403 -0.347125
v -0.104066 -0.878323 -0.347125
v -0.102349 -0.878323 -0.346253
v -0.102462 -0.880403 -0.345324
v -0.104116 -0.878323 -0.347772
v -0.102101 -0.878323 -0.345260
v -0.101994 -0.880403 -0.346097
v -0.102101 -0.880403 -0.345260
v -0.101994 -0.878323 -0.346097
v -0.101889 -0.878323 -0.345292
v -0.101724 -0.880403 -0.345934
v -0.101889 -0.880403 -0.345292
v -0.101739 -0.878323 -0.345388
v -0.101724 -0.878323 -0.345934
v -0.101739 -0.880403 -0.345388
v -0.101618 -0.878323 -0.345686
v -0.101618 -0.880403 -0.345686
vn 0 1 0
vn 0 -1 0
vn 0.9869935134099778 0 0.16076008362347902
vn -0.9869935134099778 0 -0.16076008362347902
vn 0.9823719074836565 0 -0.1869369823949297
vn -0.9823719074836565 0 0.1869369823949297
vn 0.8755177903485348 0 0.4831858842963223
vn -0.8755177903485348 0 -0.4831858842963223
vn 0.8274922351762231 0 -0.5614771595737962
vn -0.8274922351762231 0 0.5614771595737962
vn 0.5623340911948519 0 -0.8269101341016809
vn -0.5623340911948519 0 0.8269101341016809
vn 0.6147938697313404 0 0.7886878328849531
vn -0.6147938697313404 0 -0.7886878328849531
vn 0.18706105510585627 0 0.9823482893875694
vn -0.18706105510585627 0 -0.9823482893875694
vn 0.18734002410832132 0 -0.9822951264091121
vn -0.18734002410832132 0 0.9822951264091121
vn -0.13054701575878858 0 0.9914421196804556
vn 0.13054701575878858 0 -0.9914421196804556
vn -0.11053304993480836 0 -0.9938724489953976
vn 0.11053304993480836 0 0.9938724489953976
vn -0.39785595435796783 0 0.9174478947503832
vn 0.39785595435796783 0 -0.9174478947503832
vn -0.35930298551110695 0 -0.9332209623678656
vn 0.35930298551110695 0 0.9332209623678656
vn 0.9747777226913739 0 -0.22317793650945647
vn -0.9747777226913739 0 0.22317793650945647
vn -0.6822949839817605 0 -0.7310769828365061
vn 0.6822949839817605 0 0.7310769828365061
vn -0.6040320306171767 0 0.7969600403963113
vn 0.6040320306171767 0 -0.7969600403963113
vn 0.7867468024538036 0 -0.6172758450066841
vn -0.7867468024538036 0 0.6172758450066841
vn -0.9222042638311498 0 -0.3867031106309424
vn 0.9222042638311498 0 0.3867031106309424
vn -0.8224370955240183 0 0.5688560660712135
vn 0.8224370955240183 0 -0.5688560660712135
vn -0.5332486998658533 0 0.8459585238599923
vn 0.5332486998658533 0 -0.8459585238599923
vn 0.5388858651069157 0 -0.8423787891370311
vn -0.5388858651069157 0 0.8423787891370311
vn -0.9935128412520601 0 -0.11371998182931146
vn 0.9935128412520601 0 0.11371998182931146
vn -0.957562101801784 0 0.2882270306424256
vn 0.957562101801784 0 -0.2882270306424256
vn -0.4045319422328432 0 0.9145238694060007
vn 0.4045319422328432 0 -0.9145238694060007
vn 0.40266394805635447 0 -0.9153478819201306
vn -0.40266394805635447 0 0.9153478819201306
vn -0.9970731089576625 0 0.0764540083547029
vn 0.9970731089576625 0 -0.0764540083547029
vn -0.17387803449975328 0 0.9847671953911252
vn 0.17387803449975328 0 -0.9847671953911252
vn 0.5176739781645123 0 -0.855577963911722
vn -0.5176739781645123 0 0.855577963911722
vn 0.14956107401592392 0 0.9887524893213688
vn -0.14956107401592392 0 -0.9887524893213688
vn 0.5363168335331799 0 0.8440167380265297
vn -0.5363168335331799 0 -0.8440167380265297
vn 0.9190310950342534 0 -0.3941850407614942
vn -0.9190310950342534 0 0.3941850407614942
vn 0.9269831191646145 0 0.3751030482198755
vn -0.9269831191646145 0 -0.3751030482198755
usemtl material_0_0
f 1//1 2//1 3//1
f 2//1 1//1 4//1
f 3//2 2//2 1//2
f 4//2 1//2 2//2
f 2//3 5//3 3//3
f 3//4 5//4 2//4
f 3//5 6//5 1//5
f 1//6 6//6 3//6
f 4//1 1//1 7//1
f 7//2 1//2 4//2
f 4//7 8//7 2//7
f 2//8 8//8 4//8
f 5//3 2//3 8//3
f 8//4 2//4 5//4
f 6//5 3//5 5//5
f 5//6 3//6 6//6
f 9//9 1//9 6//9
f 6//10 1//10 9//10
f 1//9 9//9 7//9
f 7//10 9//10 1//10
f 4//1 7//1 10//1
f 10//2 7//2 4//2
f 8//7 4//7 11//7
f 11//8 4//8 8//8
f 8//2 6//2 5//2
f 5//1 6//1 8//1
f 6//2 11//2 9//2
f 9//1 11//1 6//1
f 9//11 12//11 7//11
f 7//12 12//12 9//12
f 10//1 7//1 12//1
f 12//2 7//2 10//2
f 13//13 4//13 10//13
f 10//14 4//14 13//14
f 4//13 13//13 11//13
f 11//14 13//14 4//14
f 6//2 8//2 11//2
f 11//1 8//1 6//1
f 9//2 11//2 13//2
f 13//1 11//1 9//1
f 12//11 9//11 14//11
f 14//12 9//12 12//12
f 10//1 12//1 15//1
f 15//2 12//2 10//2
f 10//15 16//15 13//15
f 13//16 16//16 10//16
f 9//2 13//2 14//2
f 14//1 13//1 9//1
f 14//17 17//17 12//17
f 12//18 17//18 14//18
f 15//1 12//1 17//1
f 17//2 12//2 15//2
f 16//15 10//15 15//15
f 15//16 10//16 16//16
f 14//2 13//2 16//2
f 16//1 13//1 14//1
f 17//17 14//17 18//17
f 18//18 14//18 17//18
f 15//1 17//1 19//1
f 19//2 17//2 15//2
f 15//19 20//19 16//19
f 16//20 20//20 15//20
f 14//2 16//2 18//2
f 18//1 16//1 14//1
f 18//21 21//21 17//21
f 17//22 21//22 18//22
f 19//1 17//1 21//1
f 21//2 17//2 19//2
f 20//19 15//19 19//19
f 19//20 15//20 20//20
f 18//2 16//2 20//2
f 20//1 16//1 18//1
f 21//21 18//21 22//21
f 22//22 18//22 21//22
f 19//1 21//1 23//1
f 23//2 21//2 19//2
f 19//23 24//23 20//23
f 20//24 24//24 19//24
f 18//2 20//2 22//2
f 22//1 20//1 18//1
f 22//25 25//25 21//25
f 21//26 25//26 22//26
f 23//1 21//1 25//1
f 25//2 21//2 23//2
f 24//23 19//23 23//23
f 23//24 19//24 24//24
f 22//2 20//2 24//2
f 24//1 20//1 22//1
f 25//25 22//25 26//25
f 26//26 22//26 25//26
f 23//1 25//1 27//1
f 27//2 25//2 23//2
f 28//27 24//27 23//27
f 23//28 24//28 28//28
f 22//2 24//2 26//2
f 26//1 24//1 22//1
f 26//29 29//29 25//29
f 25//30 29//30 26//30
f 27//1 25//1 30//1
f 30//2 25//2 27//2
f 27//1 28//1 23//1
f 23//2 28//2 27//2
f 24//27 28//27 31//27
f 31//28 28//28 24//28
f 26//2 24//2 32//2
f 32//1 24//1 26//1
f 29//29 26//29 33//29
f 33//30 26//30 29//30
f 30//1 25//1 29//1
f 29//2 25//2 30//2
f 34//31 27//31 30//31
f 30//32 27//32 34//32
f 35//1 28//1 27//1
f 27//2 28//2 35//2
f 36//33 31//33 28//33
f 28//34 31//34 36//34
f 31//2 32//2 24//2
f 24//1 32//1 31//1
f 26//2 32//2 34//2
f 34//1 32//1 26//1
f 26//2 34//2 33//2
f 33//1 34//1 26//1
f 37//35 29//35 33//35
f 33//36 29//36 37//36
f 30//1 29//1 38//1
f 38//2 29//2 30//2
f 27//31 34//31 32//31
f 32//32 34//32 27//32
f 38//37 34//37 30//37
f 30//38 34//38 38//38
f 35//1 36//1 28//1
f 28//2 36//2 35//2
f 32//39 35//39 27//39
f 27//40 35//40 32//40
f 31//33 36//33 39//33
f 39//34 36//34 31//34
f 31//2 40//2 32//2
f 32//1 40//1 31//1
f 33//2 34//2 41//2
f 41//1 34//1 33//1
f 29//35 37//35 42//35
f 42//36 37//36 29//36
f 33//2 41//2 37//2
f 37//1 41//1 33//1
f 38//1 29//1 42//1
f 42//2 29//2 38//2
f 34//37 38//37 41//37
f 41//38 38//38 34//38
f 43//1 36//1 35//1
f 35//2 36//2 43//2
f 35//39 32//39 40//39
f 40//40 32//40 35//40
f 36//41 44//41 39//41
f 39//42 44//42 36//42
f 39//2 40//2 31//2
f 31//1 40//1 39//1
f 45//43 42//43 37//43
f 37//44 42//44 45//44
f 37//2 41//2 46//2
f 46//1 41//1 37//1
f 38//1 42//1 47//1
f 47//2 42//2 38//2
f 47//45 41//45 38//45
f 38//46 41//46 47//46
f 43//1 48//1 36//1
f 36//2 48//2 43//2
f 40//47 43//47 35//47
f 35//48 43//48 40//48
f 44//41 36//41 48//41
f 48//42 36//42 44//42
f 44//2 49//2 39//2
f 39//1 49//1 44//1
f 39//2 49//2 40//2
f 40//1 49//1 39//1
f 42//43 45//43 50//43
f 50//44 45//44 42//44
f 37//2 46//2 45//2
f 45//1 46//1 37//1
f 41//45 47//45 46//45
f 46//46 47//46 41//46
f 47//1 42//1 50//1
f 50//2 42//2 47//2
f 51//1 48//1 43//1
f 43//2 48//2 51//2
f 43//47 40//47 49//47
f 49//48 40//48 43//48
f 48//49 52//49 44//49
f 44//50 52//50 48//50
f 44//2 53//2 49//2
f 49//1 53//1 44//1
f 46//51 50//51 45//51
f 45//52 50//52 46//52
f 50//51 46//51 47//51
f 47//52 46//52 50//52
f 51//1 54//1 48//1
f 48//2 54//2 51//2
f 49//53 51//53 43//53
f 43//54 51//54 49//54
f 52//49 48//49 54//49
f 54//50 48//50 52//50
f 52//2 53//2 44//2
f 44//1 53//1 52//1
f 51//53 49//53 53//53
f 53//54 49//54 51//54
f 55//1 54//1 51//1
f 51//2 54//2 55//2
f 54//55 56//55 52//55
f 52//56 56//56 54//56
f 52//2 57//2 53//2
f 53//1 57//1 52//1
f 53//57 55//57 51//57
f 51//58 55//58 53//58
f 58//1 54//1 55//1
f 55//2 54//2 58//2
f 56//55 54//55 59//55
f 59//56 54//56 56//56
f 56//2 60//2 52//2
f 52//1 60//1 56//1
f 52//2 60//2 57//2
f 57//1 60//1 52//1
f 55//57 53//57 57//57
f 57//58 53//58 55//58
f 58//1 59//1 54//1
f 54//2 59//2 58//2
f 57//59 58//59 55//59
f 55//60 58//60 57//60
f 61//61 56//61 59//61
f 59//62 56//62 61//62
f 60//2 56//2 62//2
f 62//1 56//1 60//1
f 58//59 57//59 60//59
f 60//60 57//60 58//60
f 59//1 58//1 61//1
f 61//2 58//2 59//2
f 56//61 61//61 62//61
f 62//62 61//62 56//62
f 62//63 58//63 60//63
f 60//64 58//64 62//64
f 58//63 62//63 61//63
f 61//64 62//64 58//64
