# SSTK version 0.8.0
# 6
mtllib original-6.mtl
o Group4/mesh6/mesh6-geometry#mesh6-geometry
v 0.015891 -0.780419 -0.166770
v -0.017395 -0.784672 -0.167519
v -0.017395 -0.780420 -0.166770
v 0.015891 -0.784670 -0.167519
v -0.017394 -0.794678 -0.085910
v 0.015892 -0.798928 -0.086660
v -0.017394 -0.798929 -0.086660
v 0.015891 -0.794677 -0.085910
vn -0.00000899999808818011 0.1736479631129222 -0.9848077908027197
vn 0.00000899999808818011 -0.1736479631129222 0.9848077908027197
vn -1 -0.000034999999978562494 0
vn 1 0.000034999999978562494 0
vn -0.00005099998910209399 0.9848077895618623 0.17364796289412582
vn 0.00005099998910209399 -0.9848077895618623 -0.17364796289412582
usemtl material_0_0
f 1//1 2//1 3//1
f 2//1 1//1 4//1
f 3//2 2//2 1//2
f 4//2 1//2 2//2
f 2//3 5//3 3//3
f 3//4 5//4 2//4
f 5//5 1//5 3//5
f 3//6 1//6 5//6
f 1//4 6//4 4//4
f 4//3 6//3 1//3
f 6//6 2//6 4//6
f 4//5 2//5 6//5
f 5//3 2//3 7//3
f 7//4 2//4 5//4
f 1//5 5//5 8//5
f 8//6 5//6 1//6
f 6//4 1//4 8//4
f 8//3 1//3 6//3
f 2//6 6//6 7//6
f 7//5 6//5 2//5
f 7//2 8//2 5//2
f 5//1 8//1 7//1
f 8//2 7//2 6//2
f 6//1 7//1 8//1
