# SSTK version 0.8.0
# 10
mtllib original-10.mtl
o mesh10/mesh10-geometry#mesh10-geometry
v -0.004340 0.233697 -0.399666
v -0.008604 -0.683710 -0.399105
v -0.008604 0.233697 -0.399105
v -0.004340 -0.683710 -0.399666
v -0.012578 -0.683710 -0.397459
v -0.028312 0.233697 -0.397030
v -0.004340 0.315091 -0.399666
v -0.004340 0.233697 -0.383190
v -0.000076 0.233697 -0.399105
v -0.028384 -0.683710 -0.397072
v -0.012578 0.233697 -0.397459
v -0.023913 0.233697 -0.402763
v -0.008604 0.315091 -0.399105
v -0.000076 -0.683710 -0.399105
v 0.019632 0.233697 -0.397030
v 0.015292 -0.683710 -0.402822
v -0.015991 -0.683710 -0.394841
v -0.028312 0.315091 -0.397030
v -0.015991 0.233697 -0.394841
v -0.004340 0.281479 -0.383190
v 0.003898 0.233697 -0.397459
v 0.019704 -0.683710 -0.397072
v -0.023972 -0.683710 -0.402822
v -0.012578 0.315091 -0.397459
v -0.031157 -0.683710 -0.390376
v -0.023913 0.315091 -0.402763
v -0.031077 0.315091 -0.390354
v 0.015233 0.233697 -0.402763
v -0.031077 0.233697 -0.390354
v -0.004340 0.315091 -0.366714
v -0.004340 0.315091 -0.383190
v -0.018609 0.233697 -0.391428
v 0.003898 -0.683710 -0.397459
v 0.007311 0.233697 -0.394841
v 0.009542 -0.683710 -0.407234
v -0.023972 -0.793634 -0.402822
v 0.019704 -0.793634 -0.397072
v -0.028384 -0.793634 -0.397072
v -0.018609 -0.683710 -0.391428
v -0.018180 0.315091 -0.407162
v -0.015991 0.315091 -0.394841
v -0.018180 0.233697 -0.407162
v 0.015233 0.315091 -0.402763
v 0.019632 0.315091 -0.397030
v -0.004340 0.233697 -0.366714
v -0.020255 0.233697 -0.387454
v 0.007311 -0.683710 -0.394841
v 0.022397 0.233697 -0.390354
v -0.018222 -0.683710 -0.407234
v 0.009542 -0.793634 -0.407234
v 0.015292 -0.793634 -0.402822
v 0.022477 -0.793634 -0.390376
v -0.031157 -0.793634 -0.390376
v -0.020255 -0.683710 -0.387454
v -0.032020 0.315091 -0.383190
v -0.018609 0.315091 -0.391428
v 0.009500 0.233697 -0.407162
v -0.008604 0.233697 -0.367275
v -0.004340 0.233697 -0.366055
v -0.020816 0.233697 -0.383190
v 0.022397 0.315091 -0.376026
v 0.022397 0.315091 -0.390354
v 0.022477 -0.683710 -0.390376
v 0.009929 0.233697 -0.391428
v 0.002846 -0.683710 -0.410007
v 0.002846 -0.793634 -0.410007
v -0.018222 -0.793634 -0.407234
v -0.032103 -0.683710 -0.383190
v -0.011504 0.315091 -0.409927
v 0.009500 0.315091 -0.407162
v -0.032020 0.233697 -0.383190
v -0.020255 0.315091 -0.387454
v -0.011504 0.233697 -0.409927
v -0.008604 0.315091 -0.367275
v -0.008604 -0.683710 -0.367275
v -0.023913 0.233697 -0.363617
v -0.012578 0.233697 -0.368921
v -0.004340 -0.683710 -0.366055
v -0.004340 0.233697 -0.355510
v -0.020255 0.233697 -0.378926
v 0.023340 0.315091 -0.383190
v 0.019632 0.315091 -0.369350
v 0.009929 -0.683710 -0.391428
v 0.011575 0.233697 -0.387454
v -0.011526 -0.683710 -0.410007
v 0.023423 -0.793634 -0.383190
v -0.032103 -0.793634 -0.383190
v -0.020816 -0.683710 -0.383190
v -0.031077 0.315091 -0.376026
v -0.020816 0.315091 -0.383190
v 0.002824 0.233697 -0.409927
v -0.023913 0.315091 -0.363617
v -0.004340 -0.683710 -0.366714
v -0.012578 -0.683710 -0.368921
v 0.015233 0.233697 -0.363617
v -0.015991 0.233697 -0.371539
v -0.004340 0.315091 -0.355510
v -0.018609 0.233697 -0.374952
v 0.022397 0.233697 -0.376026
v 0.015233 0.315091 -0.363617
v 0.019632 0.233697 -0.369350
v 0.023340 0.233697 -0.383190
v 0.011575 -0.683710 -0.387454
v -0.004340 -0.683710 -0.410953
v -0.004340 -0.793634 -0.410953
v -0.011526 -0.793634 -0.410007
v 0.023423 -0.683710 -0.383190
v -0.031157 -0.683710 -0.376004
v -0.004340 0.315091 -0.410870
v 0.002824 0.315091 -0.409927
v -0.031077 0.233697 -0.376026
v -0.020255 0.315091 -0.378926
v -0.004340 0.233697 -0.410870
v -0.012578 0.315091 -0.368921
v -0.023972 -0.683710 -0.363558
v -0.000076 0.233697 -0.367275
v -0.028312 0.233697 -0.369350
v 0.009500 0.233697 -0.359218
v -0.015991 -0.683710 -0.371539
v -0.011504 0.233697 -0.356453
v 0.002824 0.233697 -0.356453
v -0.020255 -0.683710 -0.378926
v 0.012136 0.233697 -0.383190
v 0.012136 -0.683710 -0.383190
v 0.022477 -0.793634 -0.376004
v -0.031157 -0.793634 -0.376004
v -0.028312 0.315091 -0.369350
v -0.018609 0.315091 -0.374952
v 0.009500 0.315091 -0.359218
v 0.015292 -0.683710 -0.363558
v -0.000076 -0.683710 -0.367275
v -0.028384 -0.683710 -0.369308
v 0.003898 0.233697 -0.368921
v -0.018180 0.233697 -0.359218
v -0.015991 0.315091 -0.371539
v -0.011504 0.315091 -0.356453
v 0.002824 0.315091 -0.356453
v -0.018609 -0.683710 -0.374952
v 0.009929 0.233697 -0.374952
v 0.022477 -0.683710 -0.376004
v -0.018180 0.315091 -0.359218
v -0.018222 -0.683710 -0.359146
v -0.028384 -0.793634 -0.369308
v 0.011575 0.233697 -0.378926
v 0.007311 0.233697 -0.371539
v 0.011575 -0.683710 -0.378926
v 0.019704 -0.793634 -0.369308
v 0.003898 -0.683710 -0.368921
v -0.018222 -0.793634 -0.359146
v 0.009542 -0.683710 -0.359146
v -0.023972 -0.793634 -0.363558
v 0.009929 -0.683710 -0.374952
v 0.019704 -0.683710 -0.369308
v -0.011526 -0.793634 -0.356373
v -0.011526 -0.683710 -0.356373
v 0.015292 -0.793634 -0.363558
v 0.007311 -0.683710 -0.371539
v 0.002846 -0.683710 -0.356373
v 0.009542 -0.793634 -0.359146
v -0.004340 -0.793634 -0.355427
v -0.004340 -0.683710 -0.355427
v 0.002846 -0.793634 -0.356373
vn -0.1305259853353411 0 -0.9914448886106773
vn -0.2588189595935754 0 -0.965925849201117
vn 0.2588189595935754 0 0.965925849201117
vn 0.1305259853353411 0 0.9914448886106773
vn -0.5000001748438417 0 -0.8660253028382762
vn 0.5000001748438417 0 0.8660253028382762
vn 0 -1 0
vn 0 1 0
vn 0.2588189595935754 0 -0.965925849201117
vn 0.1305259853353411 0 -0.9914448886106773
vn -0.1305259853353411 0 0.9914448886106773
vn -0.2588189595935754 0 0.965925849201117
vn -1 0 0
vn 1 0 0
vn -0.7071067811865476 0 -0.7071067811865476
vn 0.7071067811865476 0 0.7071067811865476
vn -0.8660253028382762 0 -0.5000001748438417
vn 0.8660253028382762 0 0.5000001748438417
vn 0.5000001748438417 0 -0.8660253028382762
vn -0.5000001748438417 0 0.8660253028382762
vn -0.965925849201117 0 -0.2588189595935754
vn 0.965925849201117 0 0.2588189595935754
vn 0.8660253028382762 0 -0.5000001748438417
vn 0.7071067811865476 0 -0.7071067811865476
vn -0.8660253028382762 0 0.5000001748438417
vn -0.7071067811865476 0 0.7071067811865476
vn 0.965925849201117 0 -0.2588189595935754
vn -0.965925849201117 0 0.2588189595935754
vn 0 0 -1
vn 0 0 1
usemtl material_0_0
f 1//1 2//2 3//2
f 2//2 1//1 4//1
f 3//3 2//3 1//4
f 4//4 1//4 2//3
f 5//5 3//2 2//2
f 2//3 3//3 5//6
f 6//7 1//7 3//7
f 3//8 1//8 6//8
f 7//4 3//3 1//4
f 1//1 3//2 7//1
f 8//7 3//7 1//7
f 1//8 3//8 8//8
f 9//9 4//10 1//10
f 1//11 4//11 9//12
f 4//8 10//8 2//8
f 2//7 10//7 4//7
f 3//2 5//5 11//5
f 11//6 5//6 3//3
f 2//8 10//8 5//8
f 5//7 10//7 2//7
f 1//7 6//7 12//7
f 12//8 6//8 1//8
f 6//7 3//7 11//7
f 11//8 3//8 6//8
f 3//3 7//4 13//3
f 13//2 7//1 3//2
f 8//13 7//13 1//13
f 1//14 7//14 8//14
f 3//7 8//7 11//7
f 11//8 8//8 3//8
f 4//10 9//9 14//9
f 14//12 9//12 4//11
f 1//7 15//7 9//7
f 9//8 15//8 1//8
f 16//8 10//8 4//8
f 4//7 10//7 16//7
f 17//15 11//5 5//5
f 5//6 11//6 17//16
f 13//3 11//6 3//3
f 3//2 11//5 13//2
f 5//8 10//8 17//8
f 17//7 10//7 5//7
f 18//17 12//15 6//17
f 6//18 12//16 18//18
f 12//7 15//7 1//7
f 1//8 15//8 12//8
f 6//7 11//7 19//7
f 19//8 11//8 6//8
f 7//8 18//8 13//8
f 13//7 18//7 7//7
f 7//13 8//13 20//13
f 20//14 8//14 7//14
f 11//7 8//7 19//7
f 19//8 8//8 11//8
f 21//19 14//9 9//9
f 9//12 14//12 21//20
f 22//8 4//8 14//8
f 14//7 4//7 22//7
f 9//7 15//7 21//7
f 21//8 15//8 9//8
f 16//8 23//8 10//8
f 10//7 23//7 16//7
f 4//8 22//8 16//8
f 16//7 22//7 4//7
f 11//5 17//15 19//15
f 19//16 17//16 11//6
f 11//6 13//3 24//6
f 24//5 13//2 11//5
f 17//8 10//8 25//8
f 25//7 10//7 17//7
f 12//15 18//17 26//15
f 26//16 18//18 12//16
f 6//17 27//21 18//17
f 18//18 27//22 6//18
f 12//7 28//7 15//7
f 15//8 28//8 12//8
f 24//6 19//16 11//6
f 11//5 19//15 24//5
f 6//7 19//7 29//7
f 29//8 19//8 6//8
f 18//8 7//8 26//8
f 26//7 7//7 18//7
f 13//8 18//8 24//8
f 24//7 18//7 13//7
f 30//14 8//14 20//14
f 20//13 8//13 30//13
f 7//13 20//13 31//13
f 31//14 20//14 7//14
f 19//7 8//7 32//7
f 32//8 8//8 19//8
f 14//9 21//19 33//19
f 33//20 21//20 14//12
f 22//8 14//8 33//8
f 33//7 14//7 22//7
f 21//7 15//7 34//7
f 34//8 15//8 21//8
f 35//8 23//8 16//8
f 16//7 23//7 35//7
f 36//15 10//17 23//15
f 23//16 10//18 36//16
f 37//23 16//24 22//23
f 22//25 16//26 37//25
f 17//15 32//17 19//15
f 19//16 32//18 17//16
f 38//17 25//21 10//17
f 10//18 25//22 38//18
f 17//8 25//8 39//8
f 39//7 25//7 17//7
f 40//5 12//15 26//15
f 26//16 12//16 40//6
f 27//21 6//17 29//21
f 29//22 6//18 27//22
f 41//8 18//8 27//8
f 27//7 18//7 41//7
f 42//7 28//7 12//7
f 12//8 28//8 42//8
f 43//24 15//23 28//24
f 28//26 15//25 43//26
f 19//16 24//6 41//16
f 41//15 24//5 19//15
f 29//7 19//7 32//7
f 32//8 19//8 29//8
f 44//8 26//8 7//8
f 7//7 26//7 44//7
f 24//8 18//8 41//8
f 41//7 18//7 24//7
f 8//14 30//14 45//14
f 45//13 30//13 8//13
f 30//14 20//14 31//14
f 31//13 20//13 30//13
f 44//8 7//8 31//8
f 31//7 7//7 44//7
f 32//7 8//7 46//7
f 46//8 8//8 32//8
f 41//16 32//18 19//16
f 19//15 32//17 41//15
f 34//24 33//19 21//19
f 21//20 33//20 34//26
f 22//8 33//8 47//8
f 47//7 33//7 22//7
f 34//7 15//7 48//7
f 48//8 15//8 34//8
f 35//8 49//8 23//8
f 23//7 49//7 35//7
f 16//24 50//19 35//19
f 35//20 50//20 16//26
f 10//17 36//15 38//17
f 38//18 36//16 10//18
f 49//5 36//15 23//15
f 23//16 36//16 49//6
f 16//24 37//23 51//24
f 51//26 37//25 16//26
f 22//23 52//27 37//23
f 37//25 52//28 22//25
f 32//17 17//15 39//17
f 39//18 17//16 32//18
f 25//21 38//17 53//21
f 53//22 38//18 25//22
f 39//8 25//8 54//8
f 54//7 25//7 39//7
f 12//15 40//5 42//5
f 42//6 40//6 12//16
f 43//8 40//8 26//8
f 26//7 40//7 43//7
f 29//21 55//13 27//21
f 27//22 55//14 29//22
f 41//8 27//8 56//8
f 56//7 27//7 41//7
f 42//7 57//7 28//7
f 28//8 57//8 42//8
f 15//23 43//24 44//23
f 44//25 43//26 15//25
f 57//19 43//24 28//24
f 28//26 43//26 57//20
f 29//7 32//7 46//7
f 46//8 32//8 29//8
f 43//8 26//8 44//8
f 44//7 26//7 43//7
f 58//9 30//10 45//10
f 45//11 30//11 58//12
f 59//14 45//14 30//14
f 30//13 45//13 59//13
f 60//7 8//7 45//7
f 45//8 8//8 60//8
f 61//8 31//8 30//8
f 30//7 31//7 61//7
f 44//8 31//8 62//8
f 62//7 31//7 44//7
f 46//7 8//7 60//7
f 60//8 8//8 46//8
f 39//17 46//21 32//17
f 32//18 46//22 39//18
f 56//18 46//22 32//18
f 32//17 46//21 56//17
f 32//18 41//16 56//18
f 56//17 41//15 32//17
f 33//19 34//24 47//24
f 47//26 34//26 33//20
f 22//8 47//8 63//8
f 63//7 47//7 22//7
f 44//23 48//27 15//23
f 15//25 48//28 44//25
f 34//7 48//7 64//7
f 64//8 48//8 34//8
f 65//8 49//8 35//8
f 35//7 49//7 65//7
f 50//19 16//24 51//24
f 51//26 16//26 50//20
f 66//9 35//19 50//19
f 50//20 35//20 66//12
f 36//15 49//5 67//5
f 67//6 49//6 36//16
f 52//27 22//23 63//27
f 63//28 22//25 52//28
f 53//21 68//13 25//21
f 25//22 68//14 53//22
f 54//8 25//8 68//8
f 68//7 25//7 54//7
f 46//21 39//17 54//21
f 54//22 39//18 46//22
f 69//2 42//5 40//5
f 40//6 42//6 69//3
f 70//8 40//8 43//8
f 43//7 40//7 70//7
f 55//13 29//21 71//13
f 71//14 29//22 55//14
f 72//8 27//8 55//8
f 55//7 27//7 72//7
f 56//8 27//8 72//8
f 72//7 27//7 56//7
f 73//7 57//7 42//7
f 42//8 57//8 73//8
f 43//24 57//19 70//19
f 70//20 57//20 43//26
f 29//7 46//7 71//7
f 71//8 46//8 29//8
f 30//10 58//9 74//9
f 74//12 58//12 30//11
f 75//12 45//11 58//12
f 58//9 45//10 75//9
f 76//7 58//7 45//7
f 45//8 58//8 76//8
f 77//7 45//7 58//7
f 58//8 45//8 77//8
f 78//14 45//14 59//14
f 59//13 45//13 78//13
f 59//14 30//14 79//14
f 79//13 30//13 59//13
f 60//7 45//7 80//7
f 80//8 45//8 60//8
f 81//8 31//8 61//8
f 61//7 31//7 81//7
f 61//8 30//8 82//8
f 82//7 30//7 61//7
f 62//8 31//8 81//8
f 81//7 31//7 62//7
f 48//27 44//23 62//27
f 62//28 44//25 48//28
f 54//21 60//13 46//21
f 46//22 60//14 54//22
f 71//7 46//7 60//7
f 60//8 46//8 71//8
f 72//22 60//14 46//22
f 46//21 60//13 72//21
f 46//22 56//18 72//22
f 72//21 56//17 46//21
f 34//24 83//23 47//24
f 47//26 83//25 34//26
f 63//8 47//8 83//8
f 83//7 47//7 63//7
f 64//7 48//7 84//7
f 84//8 48//8 64//8
f 83//23 34//24 64//23
f 64//25 34//26 83//25
f 65//8 85//8 49//8
f 49//7 85//7 65//7
f 35//19 66//9 65//9
f 65//12 66//12 35//20
f 85//2 67//5 49//5
f 49//6 67//6 85//3
f 63//27 86//14 52//27
f 52//28 86//13 63//28
f 68//13 53//21 87//13
f 87//14 53//22 68//14
f 54//8 68//8 88//8
f 88//7 68//7 54//7
f 42//5 69//2 73//2
f 73//3 69//3 42//6
f 70//8 69//8 40//8
f 40//7 69//7 70//7
f 71//13 89//28 55//13
f 55//14 89//27 71//14
f 72//8 55//8 90//8
f 90//7 55//7 72//7
f 73//7 91//7 57//7
f 57//8 91//8 73//8
f 91//9 70//19 57//19
f 57//20 70//20 91//12
f 77//19 74//9 58//9
f 58//12 74//12 77//20
f 74//8 92//8 30//8
f 30//7 92//7 74//7
f 45//11 75//12 93//11
f 93//10 75//9 45//10
f 58//12 94//20 75//12
f 75//9 94//19 58//9
f 76//7 77//7 58//7
f 58//8 77//8 76//8
f 76//7 45//7 95//7
f 95//8 45//8 76//8
f 96//7 45//7 77//7
f 77//8 45//8 96//8
f 94//20 58//12 77//20
f 77//19 58//9 94//19
f 45//14 78//14 93//14
f 93//13 78//13 45//13
f 79//14 30//14 97//14
f 97//13 30//13 79//13
f 80//7 45//7 98//7
f 98//8 45//8 80//8
f 88//13 80//28 60//13
f 60//14 80//27 88//14
f 71//7 60//7 80//7
f 80//8 60//8 71//8
f 90//14 80//27 60//14
f 60//13 80//28 90//13
f 99//22 81//14 61//22
f 61//21 81//13 99//21
f 82//8 30//8 100//8
f 100//7 30//7 82//7
f 101//18 61//22 82//18
f 82//17 61//21 101//17
f 102//14 62//27 81//14
f 81//13 62//28 102//13
f 62//27 102//14 48//27
f 48//28 102//13 62//28
f 60//13 54//21 88//13
f 88//14 54//22 60//14
f 60//14 72//22 90//14
f 90//13 72//21 60//13
f 63//8 83//8 103//8
f 103//7 83//7 63//7
f 84//7 48//7 102//7
f 102//8 48//8 84//8
f 103//27 64//23 84//27
f 84//28 64//25 103//28
f 64//23 103//27 83//23
f 83//25 103//28 64//25
f 85//8 65//8 104//8
f 104//7 65//7 85//7
f 105//10 65//9 66//9
f 66//12 65//12 105//11
f 67//5 85//2 106//2
f 106//3 85//3 67//6
f 86//14 63//27 107//14
f 107//13 63//28 86//13
f 87//13 108//28 68//13
f 68//14 108//27 87//14
f 88//8 68//8 108//8
f 108//7 68//7 88//7
f 109//29 73//2 69//2
f 69//3 73//3 109//30
f 110//8 69//8 70//8
f 70//7 69//7 110//7
f 89//28 71//13 111//28
f 111//27 71//14 89//27
f 112//8 55//8 89//8
f 89//7 55//7 112//7
f 90//8 55//8 112//8
f 112//7 55//7 90//7
f 91//7 73//7 113//7
f 113//8 73//8 91//8
f 70//19 91//9 110//9
f 110//12 91//12 70//20
f 74//9 77//19 114//19
f 114//20 77//20 74//12
f 114//8 92//8 74//8
f 74//7 92//7 114//7
f 30//8 92//8 100//8
f 100//7 92//7 30//7
f 75//8 115//8 93//8
f 93//7 115//7 75//7
f 93//4 116//3 45//4
f 45//1 116//2 93//1
f 94//8 115//8 75//8
f 75//7 115//7 94//7
f 117//7 77//7 76//7
f 76//8 77//8 117//8
f 116//7 95//7 45//7
f 45//8 95//8 116//8
f 76//7 95//7 118//7
f 118//8 95//8 76//8
f 98//7 45//7 96//7
f 96//8 45//8 98//8
f 119//26 77//20 96//26
f 96//24 77//19 119//24
f 117//7 96//7 77//7
f 77//8 96//8 117//8
f 96//24 114//19 77//19
f 77//20 114//20 96//26
f 77//20 119//26 94//20
f 94//19 119//24 77//19
f 97//11 120//12 79//11
f 79//10 120//9 97//10
f 121//3 97//4 79//4
f 79//1 97//1 121//2
f 122//28 98//25 80//28
f 80//27 98//23 122//27
f 111//7 80//7 98//7
f 98//8 80//8 111//8
f 112//27 98//23 80//27
f 80//28 98//25 112//28
f 80//28 88//13 122//28
f 122//27 88//14 80//27
f 71//7 80//7 111//7
f 111//8 80//8 71//8
f 80//27 90//14 112//27
f 112//28 90//13 80//28
f 81//14 99//22 102//14
f 102//13 99//21 81//13
f 61//22 101//18 99//22
f 99//21 101//17 61//21
f 95//16 82//18 100//16
f 100//15 82//17 95//15
f 82//18 95//16 101//18
f 101//17 95//15 82//17
f 63//8 103//8 107//8
f 107//7 103//7 63//7
f 84//7 102//7 123//7
f 123//8 102//8 84//8
f 84//27 124//14 103//27
f 103//28 124//13 84//28
f 65//9 105//10 104//10
f 104//11 105//11 65//12
f 104//1 106//2 85//2
f 85//3 106//3 104//4
f 107//14 125//22 86//14
f 86//13 125//21 107//13
f 108//28 87//13 126//28
f 126//27 87//14 108//27
f 88//8 108//8 122//8
f 122//7 108//7 88//7
f 73//2 109//29 113//29
f 113//30 109//30 73//3
f 69//8 110//8 109//8
f 109//7 110//7 69//7
f 111//28 127//25 89//28
f 89//27 127//23 111//27
f 112//8 89//8 128//8
f 128//7 89//7 112//7
f 113//29 110//9 91//9
f 91//12 110//12 113//30
f 114//8 127//8 92//8
f 92//7 127//7 114//7
f 100//8 92//8 129//8
f 129//7 92//7 100//7
f 130//8 93//8 115//8
f 115//7 93//7 130//7
f 116//3 93//4 131//3
f 131//2 93//1 116//2
f 94//8 132//8 115//8
f 115//7 132//7 94//7
f 92//26 117//25 76//26
f 76//24 117//23 92//24
f 133//7 95//7 116//7
f 116//8 95//8 133//8
f 100//16 118//6 95//16
f 95//15 118//5 100//15
f 76//7 118//7 134//7
f 134//8 118//8 76//8
f 98//25 119//26 96//26
f 96//24 119//24 98//23
f 117//7 98//7 96//7
f 96//8 98//8 117//8
f 128//23 96//24 98//23
f 98//25 96//26 128//25
f 114//19 96//24 135//24
f 135//26 96//26 114//20
f 119//8 132//8 94//8
f 94//7 132//7 119//7
f 120//12 97//11 136//12
f 136//9 97//10 120//9
f 120//7 121//7 79//7
f 79//8 121//8 120//8
f 97//4 121//3 137//3
f 137//2 121//2 97//1
f 98//25 122//28 138//25
f 138//23 122//27 98//23
f 111//7 98//7 117//7
f 117//8 98//8 111//8
f 98//23 112//27 128//23
f 128//25 112//28 98//25
f 123//7 102//7 99//7
f 99//8 102//8 123//8
f 139//7 99//7 101//7
f 101//8 99//8 139//8
f 133//7 101//7 95//7
f 95//8 101//8 133//8
f 107//8 103//8 124//8
f 124//7 103//7 107//7
f 124//14 84//27 123//14
f 123//13 84//28 124//13
f 106//2 104//1 105//1
f 105//4 104//4 106//3
f 125//22 107//14 140//22
f 140//21 107//13 125//21
f 126//28 132//25 108//28
f 108//27 132//23 126//27
f 122//8 108//8 138//8
f 138//7 108//7 122//7
f 110//9 113//29 109//29
f 109//30 113//30 110//12
f 127//25 111//28 117//25
f 117//23 111//27 127//23
f 128//8 89//8 127//8
f 127//7 89//7 128//7
f 135//8 127//8 114//8
f 114//7 127//7 135//7
f 117//25 92//26 127//25
f 127//23 92//24 117//23
f 129//8 92//8 141//8
f 141//7 92//7 129//7
f 118//6 100//16 129//6
f 129//5 100//15 118//5
f 130//8 131//8 93//8
f 93//7 131//7 130//7
f 130//8 115//8 142//8
f 142//7 115//7 130//7
f 131//3 133//6 116//3
f 116//2 133//5 131//2
f 143//25 115//26 132//25
f 132//23 115//24 143//23
f 76//26 141//20 92//26
f 92//24 141//19 76//24
f 134//7 118//7 121//7
f 121//8 118//8 134//8
f 141//20 76//26 134//20
f 134//19 76//24 141//19
f 119//26 98//25 138//25
f 138//23 98//23 119//24
f 96//24 128//23 135//24
f 135//26 128//25 96//26
f 138//8 132//8 119//8
f 119//7 132//7 138//7
f 137//8 136//8 97//8
f 97//7 136//7 137//7
f 136//12 134//20 120//12
f 120//9 134//19 136//9
f 134//7 121//7 120//7
f 120//8 121//8 134//8
f 121//3 129//6 137//3
f 137//2 129//5 121//2
f 123//7 99//7 144//7
f 144//8 99//8 123//8
f 144//7 99//7 139//7
f 139//8 99//8 144//8
f 139//7 101//7 145//7
f 145//8 101//8 139//8
f 145//7 101//7 133//7
f 133//8 101//8 145//8
f 107//8 124//8 146//8
f 146//7 124//7 107//7
f 123//14 146//22 124//14
f 124//13 146//21 123//13
f 107//8 146//8 140//8
f 140//7 146//7 107//7
f 140//22 147//18 125//22
f 125//21 147//17 140//21
f 132//25 126//28 143//25
f 143//23 126//27 132//23
f 138//8 108//8 132//8
f 132//7 108//7 138//7
f 128//8 127//8 135//8
f 135//7 127//7 128//7
f 129//8 141//8 137//8
f 137//7 141//7 129//7
f 129//6 121//3 118//6
f 118//5 121//2 129//5
f 130//8 148//8 131//8
f 131//7 148//7 130//7
f 115//26 149//20 142//20
f 142//19 149//19 115//24
f 130//8 142//8 150//8
f 150//7 142//7 130//7
f 133//6 131//3 148//6
f 148//5 131//2 133//5
f 115//26 143//25 151//26
f 151//24 143//23 115//24
f 134//20 136//12 141//20
f 141//19 136//9 134//19
f 137//8 141//8 136//8
f 136//7 141//7 137//7
f 146//22 123//14 144//22
f 144//21 123//13 146//21
f 152//18 144//22 139//18
f 139//17 144//21 152//17
f 145//16 152//18 139//18
f 139//17 152//17 145//15
f 148//6 145//16 133//6
f 133//5 145//15 148//5
f 140//8 146//8 152//8
f 152//7 146//7 140//7
f 147//18 140//22 153//18
f 153//17 140//21 147//17
f 153//8 148//8 130//8
f 130//7 148//7 153//7
f 149//20 115//26 151//26
f 151//24 115//24 149//19
f 154//12 142//20 149//20
f 149//19 142//19 154//9
f 150//8 142//8 155//8
f 155//7 142//7 150//7
f 150//6 156//16 130//16
f 130//15 156//15 150//5
f 144//22 152//18 146//22
f 146//21 152//17 144//21
f 152//18 145//16 157//16
f 157//15 145//15 152//17
f 145//16 148//6 157//16
f 157//15 148//5 145//15
f 140//8 152//8 153//8
f 153//7 152//7 140//7
f 153//18 156//16 147//18
f 147//17 156//15 153//17
f 153//8 157//8 148//8
f 148//7 157//7 153//7
f 156//16 153//18 130//16
f 130//15 153//17 156//15
f 142//20 154//12 155//12
f 155//9 154//9 142//19
f 150//8 155//8 158//8
f 158//7 155//7 150//7
f 156//16 150//6 159//6
f 159//5 150//5 156//15
f 153//8 152//8 157//8
f 157//7 152//7 153//7
f 160//11 155//12 154//12
f 154//9 155//9 160//10
f 158//8 155//8 161//8
f 161//7 155//7 158//7
f 158//3 159//6 150//6
f 150//5 159//5 158//2
f 155//12 160//11 161//11
f 161//10 160//10 155//9
f 161//4 162//3 158//3
f 158//2 162//2 161//1
f 159//6 158//3 162//3
f 162//2 158//2 159//5
f 162//3 161//4 160//4
f 160//1 161//1 162//2
