# SSTK version 0.8.0
# 14
mtllib original-14.mtl
o mesh15/mesh15-geometry#mesh15-geometry
v -0.036201 -0.878323 -0.357145
v -0.036130 -0.878323 -0.348123
v -0.036130 -0.878323 -0.356696
v -0.036189 -0.878323 -0.347695
v -0.036130 -0.880403 -0.356696
v -0.036201 -0.880403 -0.357145
v -0.036364 -0.878323 -0.347389
v -0.036130 -0.880403 -0.348123
v -0.036414 -0.880403 -0.357469
v -0.036414 -0.878323 -0.357469
v -0.036189 -0.880403 -0.347695
v -0.036364 -0.880403 -0.347389
v -0.036657 -0.878323 -0.347205
v -0.036744 -0.878323 -0.357666
v -0.036657 -0.880403 -0.347205
v -0.036744 -0.880403 -0.357666
v -0.037067 -0.878323 -0.347144
v -0.037067 -0.880403 -0.347144
v -0.037166 -0.878323 -0.357732
v -0.037166 -0.880403 -0.357732
v -0.037476 -0.878323 -0.347205
v -0.037476 -0.880403 -0.347205
v -0.037588 -0.878323 -0.357666
v -0.037588 -0.880403 -0.357666
v -0.037769 -0.878323 -0.347388
v -0.037769 -0.880403 -0.347388
v -0.037918 -0.878323 -0.357470
v -0.037918 -0.880403 -0.357470
v -0.037945 -0.878323 -0.347694
v -0.038131 -0.880403 -0.357146
v -0.037945 -0.880403 -0.347694
v -0.038131 -0.878323 -0.357146
v -0.038003 -0.878323 -0.348121
v -0.038202 -0.880403 -0.356697
v -0.038003 -0.880403 -0.348121
v -0.038032 -0.878323 -0.348447
v -0.038202 -0.878323 -0.356697
v -0.038168 -0.880403 -0.351831
v -0.038032 -0.880403 -0.348447
v -0.038083 -0.878323 -0.351021
v -0.038202 -0.880403 -0.353891
v -0.038168 -0.878323 -0.351831
v -0.038083 -0.880403 -0.351021
v -0.038368 -0.878323 -0.347868
v -0.038202 -0.878323 -0.353891
v -0.038445 -0.880403 -0.352578
v -0.038368 -0.880403 -0.347868
v -0.038175 -0.878323 -0.350167
v -0.038593 -0.880403 -0.354332
v -0.038445 -0.878323 -0.352578
v -0.038175 -0.880403 -0.350167
v -0.038466 -0.878323 -0.349441
v -0.038593 -0.878323 -0.354332
v -0.038668 -0.880403 -0.352880
v -0.038668 -0.878323 -0.352880
v -0.038868 -0.880403 -0.347463
v -0.038466 -0.880403 -0.349441
v -0.038868 -0.878323 -0.347463
v -0.039059 -0.878323 -0.354663
v -0.039059 -0.880403 -0.354663
v -0.038693 -0.880403 -0.349160
v -0.038693 -0.878323 -0.349160
v -0.038956 -0.880403 -0.353119
v -0.039495 -0.880403 -0.347224
v -0.038977 -0.878323 -0.348944
v -0.039621 -0.878323 -0.354870
v -0.038956 -0.878323 -0.353119
v -0.039312 -0.880403 -0.353273
v -0.039495 -0.878323 -0.347224
v -0.038977 -0.880403 -0.348944
v -0.039621 -0.880403 -0.354870
v -0.039312 -0.878323 -0.353273
v -0.040215 -0.880403 -0.347144
v -0.039324 -0.880403 -0.348805
v -0.039324 -0.878323 -0.348805
v -0.040271 -0.878323 -0.354939
v -0.039743 -0.878323 -0.353325
v -0.039743 -0.880403 -0.353325
v -0.040215 -0.878323 -0.347144
v -0.039743 -0.880403 -0.348759
v -0.039743 -0.878323 -0.348759
v -0.040271 -0.880403 -0.354939
v -0.040851 -0.880403 -0.347205
v -0.040130 -0.880403 -0.348814
v -0.041037 -0.878323 -0.354860
v -0.040195 -0.878323 -0.353268
v -0.040195 -0.880403 -0.353268
v -0.040130 -0.878323 -0.348814
v -0.040851 -0.878323 -0.347205
v -0.040467 -0.880403 -0.348951
v -0.041037 -0.880403 -0.354860
v -0.040559 -0.878323 -0.353097
v -0.040559 -0.880403 -0.353097
v -0.040467 -0.878323 -0.348951
v -0.041455 -0.880403 -0.347386
v -0.040752 -0.880403 -0.349162
v -0.041689 -0.878323 -0.354620
v -0.040845 -0.878323 -0.352841
v -0.040752 -0.878323 -0.349162
v -0.041455 -0.878323 -0.347386
v -0.040985 -0.880403 -0.349441
v -0.040845 -0.880403 -0.352841
v -0.041689 -0.880403 -0.354620
v -0.041063 -0.878323 -0.352528
v -0.040985 -0.878323 -0.349441
v -0.042008 -0.880403 -0.347689
v -0.041290 -0.880403 -0.350160
v -0.041063 -0.880403 -0.352528
v -0.042235 -0.878323 -0.354246
v -0.041318 -0.878323 -0.351782
v -0.041290 -0.878323 -0.350160
v -0.042008 -0.878323 -0.347689
v -0.041389 -0.880403 -0.351021
v -0.041318 -0.880403 -0.351782
v -0.042235 -0.880403 -0.354246
v -0.041389 -0.878323 -0.351021
v -0.042490 -0.880403 -0.348117
v -0.042681 -0.880403 -0.353761
v -0.042490 -0.878323 -0.348117
v -0.042681 -0.878323 -0.353761
v -0.042890 -0.878323 -0.348669
v -0.043027 -0.880403 -0.353182
v -0.042890 -0.880403 -0.348669
v -0.043027 -0.878323 -0.353182
v -0.043199 -0.878323 -0.349345
v -0.043270 -0.880403 -0.352526
v -0.043199 -0.880403 -0.349345
v -0.043270 -0.878323 -0.352526
v -0.043396 -0.878323 -0.350151
v -0.043413 -0.880403 -0.351819
v -0.043396 -0.880403 -0.350151
v -0.043413 -0.878323 -0.351819
v -0.043461 -0.878323 -0.351092
v -0.043461 -0.880403 -0.351092
vn 0 1 0
vn 0 -1 0
vn 1 0 0
vn -1 0 0
vn 0.9877327278772018 0 -0.15615395697919998
vn -0.9877327278772018 0 0.15615395697919998
vn 0.990794291386699 0 0.13537603981328736
vn -0.990794291386699 0 -0.13537603981328736
vn 0.8362576202835157 0 -0.5483367510187068
vn -0.8362576202835157 0 0.5483367510187068
vn 0.86733202119586 0 0.49773001216352647
vn -0.86733202119586 0 -0.49773001216352647
vn 0.5124900849839319 0 -0.8586931423932312
vn -0.5124900849839319 0 0.8586931423932312
vn 0.5314152793794336 0 0.8471114453494759
vn -0.5314152793794336 0 -0.8471114453494759
vn 0.14772492329636436 0 0.9890284864639053
vn -0.14772492329636436 0 -0.9890284864639053
vn 0.15363803048386282 0 -0.9881271960577948
vn -0.15363803048386282 0 0.9881271960577948
vn -0.14743804372386457 0 0.9890712933165535
vn 0.14743804372386457 0 -0.9890712933165535
vn -0.15342098733034157 0 -0.9881609183966867
vn 0.15342098733034157 0 0.9881609183966867
vn -0.5306580158242226 0 0.8475860252750155
vn 0.5306580158242226 0 -0.8475860252750155
vn -0.5119439228252269 0 -0.8590188705042039
vn 0.5119439228252269 0 0.8590188705042039
vn -0.8669040559842325 0 0.4984750321912691
vn 0.8669040559842325 0 -0.4984750321912691
vn -0.8358899963601168 0 -0.5488969976098282
vn 0.8358899963601168 0 0.5488969976098282
vn -0.9907580517943554 0 0.1356410070909725
vn 0.9907580517943554 0 -0.1356410070909725
vn -0.9876971207706727 0 -0.15637901912124613
vn 0.9876971207706727 0 0.15637901912124613
vn -0.9962281088314514 0 0.08677300947938735
vn 0.9962281088314514 0 -0.08677300947938735
vn -0.9945305639596069 0 0.1044459542068821
vn 0.9945305639596069 0 -0.1044459542068821
vn 0.8644161154924834 0 0.5027770671747919
vn -0.8644161154924834 0 -0.5027770671747919
vn 0.7480717878812825 0 -0.6636178118285413
vn -0.7480717878812825 0 0.6636178118285413
vn -0.9376962530129881 0 0.3474560937520053
vn 0.9376962530129881 0 -0.3474560937520053
vn -0.9942107090815613 0 -0.10744796855938635
vn 0.9942107090815613 0 0.10744796855938635
vn -0.8041021706767348 0 0.5944911261852133
vn 0.8041021706767348 0 -0.5944911261852133
vn 0.6299901197897974 0 0.7766031476676082
vn -0.6299901197897974 0 -0.7766031476676082
vn -0.9281609768136108 0 -0.37217899070259713
vn 0.9281609768136108 0 0.37217899070259713
vn 0.5790839447322312 0 -0.815267922190833
vn -0.5790839447322312 0 0.815267922190833
vn -0.7777561509267065 0 -0.6285661219757824
vn 0.7777561509267065 0 0.6285661219757824
vn -0.6382960104370976 0 0.7697910125872375
vn 0.6382960104370976 0 -0.7697910125872375
vn 0.356003810741126 0 0.9344845032090134
vn -0.356003810741126 0 -0.9344845032090134
vn 0.3459538295105357 0 -0.9382515376203735
vn -0.3459538295105357 0 0.9382515376203735
vn -0.6072669145900395 0 -0.7944978882566609
vn 0.6072669145900395 0 0.7944978882566609
vn -0.39800015159331203 0 0.9173853494206786
vn 0.39800015159331203 0 -0.9173853494206786
vn 0.1100560424397638 0 0.9939253832770834
vn -0.1100560424397638 0 -0.9939253832770834
vn 0.10556394866083386 0 -0.9944125163849924
vn -0.10556394866083386 0 0.9944125163849924
vn -0.3705051622951901 0 -0.9288304068626386
vn 0.3705051622951901 0 0.9288304068626386
vn -0.1187619705130101 0 0.9929227534707152
vn 0.1187619705130101 0 -0.9929227534707152
vn -0.09443599385896961 0 0.9955309352621187
vn 0.09443599385896961 0 -0.9955309352621187
vn -0.10975101230956404 0 -0.9939591114814663
vn 0.10975101230956404 0 0.9939591114814663
vn -0.103770033097405 0 -0.9946013172276434
vn 0.103770033097405 0 0.9946013172276434
vn 0.12480897358780257 0 0.9921807900337314
vn -0.12480897358780257 0 -0.9921807900337314
vn 0.1410530064311008 0 -0.9900020451376591
vn -0.1410530064311008 0 0.9900020451376591
vn -0.28699382945038054 0 0.957932430736848
vn 0.28699382945038054 0 -0.957932430736848
vn 0.37638184829010574 0 -0.9264646265658091
vn -0.37638184829010574 0 0.9264646265658091
vn -0.3448971741370748 0 -0.9386404739154712
vn 0.3448971741370748 0 0.9386404739154712
vn 0.4249207833750145 0 0.9052305385126842
vn -0.4249207833750145 0 -0.9052305385126842
vn 0.595347979720067 0 -0.8034679726306673
vn -0.595347979720067 0 0.8034679726306673
vn 0.6675441746175628 0 0.7445701947661865
vn -0.6675441746175628 0 -0.7445701947661865
vn -0.48120776620213607 0 0.8766065740951013
vn 0.48120776620213607 0 -0.8766065740951013
vn 0.7685875470065467 0 -0.639744622944546
vn -0.7685875470065467 0 0.639744622944546
vn -0.5657807914823761 0 -0.8245556961112912
vn 0.5657807914823761 0 0.8245556961112912
vn 0.8203219666588345 0 0.5719019767556169
vn -0.8203219666588345 0 -0.5719019767556169
vn 0.9204247114353932 0 -0.3909198774417507
vn -0.9204247114353932 0 0.3909198774417507
vn 0.9461782171479255 0 0.323646074276783
vn -0.9461782171479255 0 -0.323646074276783
vn -0.6637560882340987 0 0.7479490994260021
vn 0.6637560882340987 0 -0.7479490994260021
vn 0.9934053660451095 0 -0.11465504224752404
vn -0.9934053660451095 0 0.11465504224752404
vn -0.7353243653823999 0 -0.6777153367564959
vn 0.7353243653823999 0 0.6777153367564959
vn 0.99568038442779 0 0.09284703584783009
vn -0.99568038442779 0 -0.09284703584783009
vn -0.8094083338891008 0 0.5872462422449971
vn 0.8094083338891008 0 -0.5872462422449971
vn -0.8585260147769497 0 -0.5127700088257977
vn 0.8585260147769497 0 0.5127700088257977
vn -0.9098801997000735 0 0.4148710910557092
vn 0.9098801997000735 0 -0.4148710910557092
vn -0.937940631812884 0 -0.34679586386583094
vn 0.937940631812884 0 0.34679586386583094
vn -0.9714730426335813 0 0.23715001040744654
vn 0.9714730426335813 0 -0.23715001040744654
vn -0.9799665569151526 0 -0.19916211318386154
vn 0.9799665569151526 0 0.19916211318386154
vn -0.9975793712941232 0 0.06953702588133773
vn 0.9975793712941232 0 -0.06953702588133773
vn -0.997844882895925 0 -0.06561699229938751
vn 0.997844882895925 0 0.06561699229938751
usemtl material_0_0
f 1//1 2//1 3//1
f 2//1 1//1 4//1
f 3//2 2//2 1//2
f 4//2 1//2 2//2
f 2//3 5//3 3//3
f 3//4 5//4 2//4
f 3//5 6//5 1//5
f 1//6 6//6 3//6
f 4//1 1//1 7//1
f 7//2 1//2 4//2
f 4//7 8//7 2//7
f 2//8 8//8 4//8
f 5//3 2//3 8//3
f 8//4 2//4 5//4
f 6//5 3//5 5//5
f 5//6 3//6 6//6
f 9//9 1//9 6//9
f 6//10 1//10 9//10
f 7//1 1//1 10//1
f 10//2 1//2 7//2
f 7//11 11//11 4//11
f 4//12 11//12 7//12
f 8//7 4//7 11//7
f 11//8 4//8 8//8
f 11//2 5//2 8//2
f 8//1 5//1 11//1
f 5//2 11//2 6//2
f 6//1 11//1 5//1
f 1//9 9//9 10//9
f 10//10 9//10 1//10
f 6//2 12//2 9//2
f 9//1 12//1 6//1
f 7//1 10//1 13//1
f 13//2 10//2 7//2
f 11//11 7//11 12//11
f 12//12 7//12 11//12
f 6//2 11//2 12//2
f 12//1 11//1 6//1
f 9//13 14//13 10//13
f 10//14 14//14 9//14
f 9//2 12//2 15//2
f 15//1 12//1 9//1
f 13//1 10//1 14//1
f 14//2 10//2 13//2
f 15//15 7//15 13//15
f 13//16 7//16 15//16
f 7//15 15//15 12//15
f 12//16 15//16 7//16
f 14//13 9//13 16//13
f 16//14 9//14 14//14
f 9//2 15//2 16//2
f 16//1 15//1 9//1
f 13//1 14//1 17//1
f 17//2 14//2 13//2
f 13//17 18//17 15//17
f 15//18 18//18 13//18
f 16//19 19//19 14//19
f 14//20 19//20 16//20
f 16//2 15//2 18//2
f 18//1 15//1 16//1
f 17//1 14//1 19//1
f 19//2 14//2 17//2
f 18//17 13//17 17//17
f 17//18 13//18 18//18
f 19//19 16//19 20//19
f 20//20 16//20 19//20
f 16//2 18//2 20//2
f 20//1 18//1 16//1
f 17//1 19//1 21//1
f 21//2 19//2 17//2
f 17//21 22//21 18//21
f 18//22 22//22 17//22
f 20//23 23//23 19//23
f 19//24 23//24 20//24
f 20//2 18//2 22//2
f 22//1 18//1 20//1
f 21//1 19//1 23//1
f 23//2 19//2 21//2
f 22//21 17//21 21//21
f 21//22 17//22 22//22
f 23//23 20//23 24//23
f 24//24 20//24 23//24
f 20//2 22//2 24//2
f 24//1 22//1 20//1
f 21//1 23//1 25//1
f 25//2 23//2 21//2
f 21//25 26//25 22//25
f 22//26 26//26 21//26
f 24//27 27//27 23//27
f 23//28 27//28 24//28
f 24//2 22//2 26//2
f 26//1 22//1 24//1
f 25//1 23//1 27//1
f 27//2 23//2 25//2
f 26//25 21//25 25//25
f 25//26 21//26 26//26
f 27//27 24//27 28//27
f 28//28 24//28 27//28
f 24//2 26//2 28//2
f 28//1 26//1 24//1
f 25//1 27//1 29//1
f 29//2 27//2 25//2
f 29//29 26//29 25//29
f 25//30 26//30 29//30
f 30//31 27//31 28//31
f 28//32 27//32 30//32
f 28//2 26//2 31//2
f 31//1 26//1 28//1
f 29//1 27//1 32//1
f 32//2 27//2 29//2
f 26//29 29//29 31//29
f 31//30 29//30 26//30
f 27//31 30//31 32//31
f 32//32 30//32 27//32
f 28//2 31//2 30//2
f 30//1 31//1 28//1
f 29//1 32//1 33//1
f 33//2 32//2 29//2
f 33//33 31//33 29//33
f 29//34 31//34 33//34
f 34//35 32//35 30//35
f 30//36 32//36 34//36
f 30//2 31//2 35//2
f 35//1 31//1 30//1
f 33//1 32//1 36//1
f 36//2 32//2 33//2
f 31//33 33//33 35//33
f 35//34 33//34 31//34
f 32//35 34//35 37//35
f 37//36 34//36 32//36
f 30//2 38//2 34//2
f 34//1 38//1 30//1
f 30//2 35//2 39//2
f 39//1 35//1 30//1
f 36//1 32//1 40//1
f 40//2 32//2 36//2
f 36//37 35//37 33//37
f 33//38 35//38 36//38
f 41//4 37//4 34//4
f 34//3 37//3 41//3
f 42//1 32//1 37//1
f 37//2 32//2 42//2
f 30//2 43//2 38//2
f 38//1 43//1 30//1
f 34//2 38//2 41//2
f 41//1 38//1 34//1
f 35//37 36//37 39//37
f 39//38 36//38 35//38
f 30//2 39//2 43//2
f 43//1 39//1 30//1
f 40//1 32//1 42//1
f 42//2 32//2 40//2
f 40//1 44//1 36//1
f 36//2 44//2 40//2
f 37//4 41//4 45//4
f 45//3 41//3 37//3
f 42//1 37//1 45//1
f 45//2 37//2 42//2
f 43//39 42//39 38//39
f 38//40 42//40 43//40
f 46//2 41//2 38//2
f 38//1 41//1 46//1
f 44//41 39//41 36//41
f 36//42 39//42 44//42
f 47//2 43//2 39//2
f 39//1 43//1 47//1
f 42//39 43//39 40//39
f 40//40 43//40 42//40
f 44//1 40//1 48//1
f 48//2 40//2 44//2
f 49//43 45//43 41//43
f 41//44 45//44 49//44
f 42//1 45//1 50//1
f 50//2 45//2 42//2
f 50//45 38//45 42//45
f 42//46 38//46 50//46
f 41//2 46//2 49//2
f 49//1 46//1 41//1
f 38//45 50//45 46//45
f 46//46 50//46 38//46
f 39//41 44//41 47//41
f 47//42 44//42 39//42
f 43//2 47//2 51//2
f 51//1 47//1 43//1
f 51//47 40//47 43//47
f 43//48 40//48 51//48
f 40//47 51//47 48//47
f 48//48 51//48 40//48
f 44//1 48//1 52//1
f 52//2 48//2 44//2
f 45//43 49//43 53//43
f 53//44 49//44 45//44
f 50//1 45//1 53//1
f 53//2 45//2 50//2
f 49//2 46//2 54//2
f 54//1 46//1 49//1
f 55//49 46//49 50//49
f 50//50 46//50 55//50
f 44//51 56//51 47//51
f 47//52 56//52 44//52
f 51//2 47//2 57//2
f 57//1 47//1 51//1
f 57//53 48//53 51//53
f 51//54 48//54 57//54
f 48//53 57//53 52//53
f 52//54 57//54 48//54
f 44//1 52//1 58//1
f 58//2 52//2 44//2
f 49//55 59//55 53//55
f 53//56 59//56 49//56
f 50//1 53//1 55//1
f 55//2 53//2 50//2
f 46//49 55//49 54//49
f 54//50 55//50 46//50
f 49//2 54//2 60//2
f 60//1 54//1 49//1
f 56//51 44//51 58//51
f 58//52 44//52 56//52
f 57//2 47//2 56//2
f 56//1 47//1 57//1
f 61//57 52//57 57//57
f 57//58 52//58 61//58
f 58//1 52//1 62//1
f 62//2 52//2 58//2
f 59//55 49//55 60//55
f 60//56 49//56 59//56
f 55//1 53//1 59//1
f 59//2 53//2 55//2
f 55//59 63//59 54//59
f 54//60 63//60 55//60
f 60//2 54//2 63//2
f 63//1 54//1 60//1
f 58//61 64//61 56//61
f 56//62 64//62 58//62
f 57//2 56//2 61//2
f 61//1 56//1 57//1
f 52//57 61//57 62//57
f 62//58 61//58 52//58
f 58//1 62//1 65//1
f 65//2 62//2 58//2
f 60//63 66//63 59//63
f 59//64 66//64 60//64
f 55//1 59//1 67//1
f 67//2 59//2 55//2
f 63//59 55//59 67//59
f 67//60 55//60 63//60
f 60//2 63//2 68//2
f 68//1 63//1 60//1
f 64//61 58//61 69//61
f 69//62 58//62 64//62
f 70//2 56//2 64//2
f 64//1 56//1 70//1
f 61//2 56//2 70//2
f 70//1 56//1 61//1
f 61//65 65//65 62//65
f 62//66 65//66 61//66
f 58//1 65//1 69//1
f 69//2 65//2 58//2
f 66//63 60//63 71//63
f 71//64 60//64 66//64
f 72//1 59//1 66//1
f 66//2 59//2 72//2
f 67//1 59//1 72//1
f 72//2 59//2 67//2
f 67//67 68//67 63//67
f 63//68 68//68 67//68
f 60//2 68//2 71//2
f 71//1 68//1 60//1
f 69//69 73//69 64//69
f 64//70 73//70 69//70
f 70//2 64//2 74//2
f 74//1 64//1 70//1
f 65//65 61//65 70//65
f 70//66 61//66 65//66
f 69//1 65//1 75//1
f 75//2 65//2 69//2
f 71//71 76//71 66//71
f 66//72 76//72 71//72
f 72//1 66//1 77//1
f 77//2 66//2 72//2
f 68//67 67//67 72//67
f 72//68 67//68 68//68
f 71//2 68//2 78//2
f 78//1 68//1 71//1
f 73//69 69//69 79//69
f 79//70 69//70 73//70
f 80//2 64//2 73//2
f 73//1 64//1 80//1
f 74//2 64//2 80//2
f 80//1 64//1 74//1
f 75//73 70//73 74//73
f 74//74 70//74 75//74
f 70//73 75//73 65//73
f 65//74 75//74 70//74
f 69//1 75//1 81//1
f 81//2 75//2 69//2
f 76//71 71//71 82//71
f 82//72 71//72 76//72
f 77//1 66//1 76//1
f 76//2 66//2 77//2
f 78//75 72//75 77//75
f 77//76 72//76 78//76
f 72//75 78//75 68//75
f 68//76 78//76 72//76
f 71//2 78//2 82//2
f 82//1 78//1 71//1
f 69//1 81//1 79//1
f 79//2 81//2 69//2
f 79//77 83//77 73//77
f 73//78 83//78 79//78
f 80//2 73//2 84//2
f 84//1 73//1 80//1
f 81//79 74//79 80//79
f 80//80 74//80 81//80
f 74//79 81//79 75//79
f 75//80 81//80 74//80
f 82//81 85//81 76//81
f 76//82 85//82 82//82
f 77//1 76//1 86//1
f 86//2 76//2 77//2
f 77//83 87//83 78//83
f 78//84 87//84 77//84
f 82//2 78//2 87//2
f 87//1 78//1 82//1
f 79//1 81//1 88//1
f 88//2 81//2 79//2
f 83//77 79//77 89//77
f 89//78 79//78 83//78
f 90//2 73//2 83//2
f 83//1 73//1 90//1
f 84//2 73//2 90//2
f 90//1 73//1 84//1
f 88//85 80//85 84//85
f 84//86 80//86 88//86
f 80//85 88//85 81//85
f 81//86 88//86 80//86
f 85//81 82//81 91//81
f 91//82 82//82 85//82
f 92//1 76//1 85//1
f 85//2 76//2 92//2
f 86//1 76//1 92//1
f 92//2 76//2 86//2
f 87//83 77//83 86//83
f 86//84 77//84 87//84
f 82//2 87//2 93//2
f 93//1 87//1 82//1
f 79//1 88//1 94//1
f 94//2 88//2 79//2
f 79//1 94//1 89//1
f 89//2 94//2 79//2
f 89//87 95//87 83//87
f 83//88 95//88 89//88
f 90//2 83//2 96//2
f 96//1 83//1 90//1
f 94//89 84//89 90//89
f 90//90 84//90 94//90
f 84//89 94//89 88//89
f 88//90 94//90 84//90
f 82//2 93//2 91//2
f 91//1 93//1 82//1
f 91//91 97//91 85//91
f 85//92 97//92 91//92
f 92//1 85//1 98//1
f 98//2 85//2 92//2
f 93//93 86//93 92//93
f 92//94 86//94 93//94
f 86//93 93//93 87//93
f 87//94 93//94 86//94
f 89//1 94//1 99//1
f 99//2 94//2 89//2
f 95//87 89//87 100//87
f 100//88 89//88 95//88
f 101//2 83//2 95//2
f 95//1 83//1 101//1
f 96//2 83//2 101//2
f 101//1 83//1 96//1
f 99//95 90//95 96//95
f 96//96 90//96 99//96
f 90//95 99//95 94//95
f 94//96 99//96 90//96
f 91//2 93//2 102//2
f 102//1 93//1 91//1
f 97//91 91//91 103//91
f 103//92 91//92 97//92
f 104//1 85//1 97//1
f 97//2 85//2 104//2
f 98//1 85//1 104//1
f 104//2 85//2 98//2
f 102//97 92//97 98//97
f 98//98 92//98 102//98
f 92//97 102//97 93//97
f 93//98 102//98 92//98
f 89//1 99//1 105//1
f 105//2 99//2 89//2
f 89//1 105//1 100//1
f 100//2 105//2 89//2
f 100//99 106//99 95//99
f 95//100 106//100 100//100
f 101//2 95//2 107//2
f 107//1 95//1 101//1
f 101//101 99//101 96//101
f 96//102 99//102 101//102
f 91//2 102//2 108//2
f 108//1 102//1 91//1
f 91//2 108//2 103//2
f 103//1 108//1 91//1
f 103//103 109//103 97//103
f 97//104 109//104 103//104
f 104//1 97//1 110//1
f 110//2 97//2 104//2
f 104//105 102//105 98//105
f 98//106 102//106 104//106
f 99//101 101//101 105//101
f 105//102 101//102 99//102
f 100//1 105//1 111//1
f 111//2 105//2 100//2
f 106//99 100//99 112//99
f 112//100 100//100 106//100
f 103//2 95//2 106//2
f 106//1 95//1 103//1
f 107//2 95//2 113//2
f 113//1 95//1 107//1
f 107//107 105//107 101//107
f 101//108 105//108 107//108
f 102//105 104//105 108//105
f 108//106 104//106 102//106
f 103//2 108//2 114//2
f 114//1 108//1 103//1
f 109//103 103//103 115//103
f 115//104 103//104 109//104
f 112//1 97//1 109//1
f 109//2 97//2 112//2
f 110//1 97//1 116//1
f 116//2 97//2 110//2
f 110//109 108//109 104//109
f 104//110 108//110 110//110
f 105//107 107//107 111//107
f 111//108 107//108 105//108
f 100//1 111//1 116//1
f 116//2 111//2 100//2
f 100//1 97//1 112//1
f 112//2 97//2 100//2
f 112//111 117//111 106//111
f 106//112 117//112 112//112
f 103//2 113//2 95//2
f 95//1 113//1 103//1
f 103//2 106//2 115//2
f 115//1 106//1 103//1
f 113//113 111//113 107//113
f 107//114 111//114 113//114
f 108//109 110//109 114//109
f 114//110 110//110 108//110
f 103//2 114//2 113//2
f 113//1 114//1 103//1
f 118//115 109//115 115//115
f 115//116 109//116 118//116
f 112//1 109//1 119//1
f 119//2 109//2 112//2
f 116//1 97//1 100//1
f 100//2 97//2 116//2
f 116//117 114//117 110//117
f 110//118 114//118 116//118
f 111//113 113//113 116//113
f 116//114 113//114 111//114
f 117//111 112//111 119//111
f 119//112 112//112 117//112
f 115//2 106//2 117//2
f 117//1 106//1 115//1
f 114//117 116//117 113//117
f 113//118 116//118 114//118
f 109//115 118//115 120//115
f 120//116 118//116 109//116
f 115//2 117//2 118//2
f 118//1 117//1 115//1
f 119//1 109//1 120//1
f 120//2 109//2 119//2
f 121//119 117//119 119//119
f 119//120 117//120 121//120
f 122//121 120//121 118//121
f 118//122 120//122 122//122
f 118//2 117//2 123//2
f 123//1 117//1 118//1
f 119//1 120//1 121//1
f 121//2 120//2 119//2
f 117//119 121//119 123//119
f 123//120 121//120 117//120
f 120//121 122//121 124//121
f 124//122 122//122 120//122
f 118//2 123//2 122//2
f 122//1 123//1 118//1
f 121//1 120//1 124//1
f 124//2 120//2 121//2
f 125//123 123//123 121//123
f 121//124 123//124 125//124
f 126//125 124//125 122//125
f 122//126 124//126 126//126
f 122//2 123//2 127//2
f 127//1 123//1 122//1
f 121//1 124//1 125//1
f 125//2 124//2 121//2
f 123//123 125//123 127//123
f 127//124 125//124 123//124
f 124//125 126//125 128//125
f 128//126 126//126 124//126
f 122//2 127//2 126//2
f 126//1 127//1 122//1
f 125//1 124//1 128//1
f 128//2 124//2 125//2
f 129//127 127//127 125//127
f 125//128 127//128 129//128
f 130//129 128//129 126//129
f 126//130 128//130 130//130
f 126//2 127//2 131//2
f 131//1 127//1 126//1
f 125//1 128//1 129//1
f 129//2 128//2 125//2
f 127//127 129//127 131//127
f 131//128 129//128 127//128
f 128//129 130//129 132//129
f 132//130 130//130 128//130
f 126//2 131//2 130//2
f 130//1 131//1 126//1
f 129//1 128//1 132//1
f 132//2 128//2 129//2
f 133//131 131//131 129//131
f 129//132 131//132 133//132
f 134//133 132//133 130//133
f 130//134 132//134 134//134
f 130//2 131//2 134//2
f 134//1 131//1 130//1
f 129//1 132//1 133//1
f 133//2 132//2 129//2
f 131//131 133//131 134//131
f 134//132 133//132 131//132
f 132//133 134//133 133//133
f 133//134 134//134 132//134
