# SSTK version 0.8.0
# 25
mtllib original-25.mtl
o mesh41/mesh41-geometry#mesh41-geometry
v -0.062293 -0.793634 -0.451295
v -0.116297 -0.890186 -0.428926
v -0.116297 -0.793634 -0.428926
v -0.062293 -0.890186 -0.451295
v -0.162672 -0.890186 -0.393342
v 0.053613 -0.793634 -0.451295
v -0.004340 -0.793634 -0.458925
v 0.053613 -0.890186 -0.451295
v -0.162672 -0.793634 -0.393342
v 0.107617 -0.890186 -0.428926
v 0.107617 -0.793634 -0.428926
v -0.004340 -0.890186 -0.458925
v -0.198256 -0.793634 -0.346967
v 0.153992 -0.890186 -0.393342
v -0.198256 -0.890186 -0.346967
v -0.031157 -0.793634 -0.390376
v -0.004340 -0.793634 -0.410953
v 0.153992 -0.793634 -0.393342
v -0.131007 -0.890186 -0.370527
v -0.220625 -0.793634 -0.292963
v -0.028384 -0.793634 -0.397072
v -0.032103 -0.793634 -0.383190
v -0.011526 -0.793634 -0.410007
v 0.189576 -0.890186 -0.346967
v -0.027864 -0.890186 -0.370527
v -0.131007 -0.890186 -0.334279
v -0.220625 -0.890186 -0.292963
v 0.189576 -0.793634 -0.346967
v -0.023972 -0.793634 -0.402822
v -0.031157 -0.809451 -0.390376
v -0.031157 -0.793634 -0.376004
v -0.032103 -0.809451 -0.383190
v -0.018222 -0.793634 -0.407234
v -0.004340 -0.809451 -0.410953
v 0.002846 -0.793634 -0.410007
v -0.131007 -0.878323 -0.370527
v -0.228255 -0.793634 -0.235010
v -0.004340 -0.793634 -0.355427
v 0.211945 -0.793634 -0.292963
v -0.028384 -0.809451 -0.397072
v -0.028384 -0.793634 -0.369308
v -0.031157 -0.809451 -0.376004
v -0.011526 -0.809451 -0.410007
v 0.002846 -0.809451 -0.410007
v 0.009542 -0.793634 -0.407234
v 0.022477 -0.793634 -0.390376
v 0.211945 -0.890186 -0.292963
v -0.027864 -0.890186 -0.334279
v -0.027864 -0.878323 -0.370527
v -0.131007 -0.878323 -0.334279
v -0.228255 -0.890186 -0.235010
v 0.002846 -0.793634 -0.356373
v -0.011526 -0.793634 -0.356373
v -0.018222 -0.809451 -0.407234
v -0.023972 -0.809451 -0.402822
v 0.019704 -0.809451 -0.397072
v 0.022477 -0.809451 -0.390376
v -0.023972 -0.793634 -0.363558
v -0.028384 -0.809451 -0.369308
v 0.023423 -0.809451 -0.383190
v 0.009542 -0.809451 -0.407234
v 0.015292 -0.793634 -0.402822
v 0.019704 -0.793634 -0.397072
v 0.023423 -0.793634 -0.383190
v -0.027864 -0.878323 -0.334279
v -0.220625 -0.793634 -0.177057
v 0.219575 -0.793634 -0.235010
v 0.009542 -0.793634 -0.359146
v -0.004340 -0.809451 -0.355427
v -0.018222 -0.793634 -0.359146
v -0.011526 -0.809451 -0.356373
v 0.219575 -0.890186 -0.235010
v 0.015292 -0.809451 -0.402822
v -0.023972 -0.809451 -0.363558
v 0.022477 -0.809451 -0.376004
v 0.022477 -0.793634 -0.376004
v -0.220625 -0.890186 -0.177057
v 0.015292 -0.793634 -0.363558
v 0.002846 -0.809451 -0.356373
v -0.018222 -0.809451 -0.359146
v 0.019704 -0.809451 -0.369308
v 0.019704 -0.793634 -0.369308
v -0.198256 -0.793634 -0.123053
v 0.211945 -0.793634 -0.177057
v 0.211945 -0.890186 -0.177057
v 0.009542 -0.809451 -0.359146
v 0.015292 -0.809451 -0.363558
v -0.198256 -0.890186 -0.123053
v -0.017394 -0.793634 -0.168143
v -0.162672 -0.793634 -0.076679
v -0.017394 -0.793634 -0.086036
v 0.015891 -0.793634 -0.168143
v 0.189576 -0.890186 -0.123053
v -0.162672 -0.890186 -0.076679
v -0.017394 -0.807144 -0.086036
v 0.189576 -0.793634 -0.123053
v 0.015891 -0.807144 -0.168143
v -0.116297 -0.890186 -0.041094
v 0.015891 -0.793634 -0.086036
v -0.017394 -0.807144 -0.168143
v 0.153992 -0.890186 -0.076679
v -0.116297 -0.793634 -0.041094
v 0.153992 -0.793634 -0.076679
v 0.015891 -0.807144 -0.086036
v -0.062293 -0.890186 -0.018725
v 0.107617 -0.890186 -0.041094
v 0.107617 -0.793634 -0.041094
v -0.062293 -0.793634 -0.018725
v -0.004340 -0.890186 -0.011096
v 0.053613 -0.890186 -0.018725
v 0.053613 -0.793634 -0.018725
v -0.004340 -0.793634 -0.011096
vn -0.2588189595935754 0 -0.965925849201117
vn -0.5000001748438417 0 -0.8660253028382762
vn 0.5000001748438417 0 0.8660253028382762
vn 0.2588189595935754 0 0.965925849201117
vn -0.7071067811865476 0 -0.7071067811865476
vn 0.7071067811865476 0 0.7071067811865476
vn 0 1 0
vn 0 -1 0
vn 0 0 -1
vn 0 0 1
vn -0.8660253028382762 0 -0.5000001748438417
vn 0.8660253028382762 0 0.5000001748438417
vn 0.2588189595935754 0 -0.965925849201117
vn -0.2588189595935754 0 0.965925849201117
vn 0.5000001748438417 0 -0.8660253028382762
vn -0.5000001748438417 0 0.8660253028382762
vn 0.7071067811865476 0 -0.7071067811865476
vn -0.7071067811865476 0 0.7071067811865476
vn -0.965925849201117 0 -0.2588189595935754
vn 0.965925849201117 0 0.2588189595935754
vn 0.8660253028382762 0 -0.5000001748438417
vn -0.8660253028382762 0 0.5000001748438417
vn 1 0 0
vn -1 0 0
vn 0.965925849201117 0 -0.2588189595935754
vn -0.965925849201117 0 0.2588189595935754
usemtl material_0_0
f 1//1 2//2 3//2
f 2//2 1//1 4//1
f 3//3 2//3 1//4
f 4//4 1//4 2//3
f 5//5 3//2 2//2
f 2//3 3//3 5//6
f 6//7 1//7 3//7
f 3//8 1//8 6//8
f 7//9 4//1 1//1
f 1//4 4//4 7//10
f 4//8 8//8 2//8
f 2//7 8//7 4//7
f 3//2 5//5 9//5
f 9//6 5//6 3//3
f 2//8 10//8 5//8
f 5//7 10//7 2//7
f 1//7 6//7 7//7
f 7//8 6//8 1//8
f 6//7 3//7 11//7
f 11//8 3//8 6//8
f 4//1 7//9 12//9
f 12//10 7//10 4//4
f 8//8 4//8 12//8
f 12//7 4//7 8//7
f 2//8 8//8 10//8
f 10//7 8//7 2//7
f 5//5 13//11 9//5
f 9//6 13//12 5//6
f 11//7 3//7 9//7
f 9//8 3//8 11//8
f 5//8 10//8 14//8
f 14//7 10//7 5//7
f 6//13 12//9 7//9
f 7//10 12//10 6//14
f 11//15 8//13 6//13
f 6//14 8//14 11//16
f 12//9 6//13 8//13
f 8//14 6//14 12//10
f 8//13 11//15 10//15
f 10//16 11//16 8//14
f 13//11 5//5 15//11
f 15//12 5//6 13//12
f 16//7 9//7 13//7
f 13//8 9//8 16//8
f 11//7 9//7 17//7
f 17//8 9//8 11//8
f 10//15 18//17 14//17
f 14//18 18//18 10//16
f 5//8 14//8 19//8
f 19//7 14//7 5//7
f 18//17 10//15 11//15
f 11//16 10//16 18//18
f 5//8 19//8 15//8
f 15//7 19//7 5//7
f 15//11 20//19 13//11
f 13//12 20//20 15//12
f 21//7 9//7 16//7
f 16//8 9//8 21//8
f 16//7 13//7 22//7
f 22//8 13//8 16//8
f 17//7 9//7 23//7
f 23//8 9//8 17//8
f 17//7 18//7 11//7
f 11//8 18//8 17//8
f 18//17 24//21 14//17
f 14//18 24//22 18//18
f 19//8 14//8 25//8
f 25//7 14//7 19//7
f 15//8 19//8 26//8
f 26//7 19//7 15//7
f 20//19 15//11 27//19
f 27//20 15//12 20//20
f 28//7 13//7 20//7
f 20//8 13//8 28//8
f 29//7 9//7 21//7
f 21//8 9//8 29//8
f 30//20 21//12 16//20
f 22//7 13//7 31//7
f 31//8 13//8 22//8
f 32//23 16//20 22//23
f 23//7 9//7 33//7
f 33//8 9//8 23//8
f 23//4 34//10 17//10
f 18//7 17//7 35//7
f 35//8 17//8 18//8
f 24//21 18//17 28//21
f 28//22 18//18 24//22
f 24//8 25//8 14//8
f 14//7 25//7 24//7
f 25//10 36//10 19//10
f 19//9 36//9 25//9
f 36//23 26//23 19//23
f 19//24 26//24 36//24
f 15//8 26//8 27//8
f 27//7 26//7 15//7
f 27//19 37//24 20//19
f 20//20 37//23 27//20
f 28//7 38//7 13//7
f 13//8 38//8 28//8
f 28//7 20//7 39//7
f 39//8 20//8 28//8
f 33//7 9//7 29//7
f 29//8 9//8 33//8
f 40//12 29//6 21//12
f 21//12 30//20 40//12
f 16//20 32//23 30//20
f 31//7 13//7 41//7
f 41//8 13//8 31//8
f 42//25 22//23 31//25
f 22//23 42//25 32//23
f 33//3 43//4 23//4
f 34//10 23//4 43//4
f 44//14 17//10 34//10
f 17//10 44//14 35//14
f 18//7 35//7 45//7
f 45//8 35//8 18//8
f 18//7 46//7 28//7
f 28//8 46//8 18//8
f 28//21 47//25 24//21
f 24//22 47//26 28//22
f 25//8 24//8 48//8
f 48//7 24//7 25//7
f 36//10 25//10 49//10
f 49//9 25//9 36//9
f 26//23 36//23 50//23
f 50//24 36//24 26//24
f 26//8 47//8 27//8
f 27//7 47//7 26//7
f 37//24 27//19 51//24
f 51//23 27//20 37//23
f 39//7 20//7 37//7
f 37//8 20//8 39//8
f 28//7 52//7 38//7
f 38//8 52//8 28//8
f 53//7 13//7 38//7
f 38//8 13//8 53//8
f 47//25 28//21 39//25
f 39//26 28//22 47//26
f 29//6 54//3 33//3
f 29//6 40//12 55//6
f 56//7 40//7 30//7
f 57//7 30//7 32//7
f 41//7 13//7 58//7
f 58//8 13//8 41//8
f 59//21 31//25 41//21
f 31//25 59//21 42//25
f 60//7 32//7 42//7
f 43//4 33//3 54//3
f 43//7 44//7 34//7
f 61//16 35//14 44//14
f 35//14 61//16 45//16
f 18//7 45//7 62//7
f 62//8 45//8 18//8
f 18//7 63//7 46//7
f 46//8 63//8 18//8
f 28//7 46//7 64//7
f 64//8 46//8 28//8
f 48//8 24//8 47//8
f 47//7 24//7 48//7
f 65//24 25//24 48//24
f 48//23 25//23 65//23
f 25//24 65//24 49//24
f 49//23 65//23 25//23
f 65//8 36//8 49//8
f 49//7 36//7 65//7
f 36//8 65//8 50//8
f 50//7 65//7 36//7
f 65//9 26//9 50//9
f 50//10 26//10 65//10
f 48//8 47//8 26//8
f 26//7 47//7 48//7
f 27//8 47//8 51//8
f 51//7 47//7 27//7
f 51//24 66//26 37//24
f 37//23 66//25 51//23
f 39//7 37//7 67//7
f 67//8 37//8 39//8
f 28//7 68//7 52//7
f 52//8 68//8 28//8
f 52//1 69//9 38//9
f 70//7 13//7 53//7
f 53//8 13//8 70//8
f 38//9 71//13 53//13
f 39//25 72//23 47//25
f 47//26 72//24 39//26
f 54//3 29//6 55//6
f 73//7 55//7 40//7
f 73//7 40//7 56//7
f 56//7 30//7 57//7
f 57//7 32//7 60//7
f 58//7 13//7 70//7
f 70//8 13//8 58//8
f 74//17 41//21 58//17
f 41//21 74//17 59//21
f 75//7 42//7 59//7
f 60//7 42//7 75//7
f 44//7 43//7 54//7
f 44//7 54//7 61//7
f 73//18 45//16 61//16
f 45//16 73//18 62//18
f 18//7 62//7 63//7
f 63//8 62//8 18//8
f 56//22 46//26 63//22
f 57//26 64//24 46//26
f 28//7 64//7 76//7
f 76//8 64//8 28//8
f 26//9 65//9 48//9
f 48//10 65//10 26//10
f 51//8 47//8 72//8
f 72//7 47//7 51//7
f 66//26 51//24 77//26
f 77//25 51//23 66//25
f 67//7 37//7 66//7
f 66//8 37//8 67//8
f 72//23 39//25 67//23
f 67//24 39//26 72//24
f 28//7 78//7 68//7
f 68//8 78//8 28//8
f 68//2 79//1 52//1
f 69//9 52//1 79//1
f 71//13 38//9 69//9
f 53//13 80//15 70//15
f 80//15 53//13 71//13
f 61//7 54//7 55//7
f 61//7 55//7 73//7
f 63//22 73//18 56//22
f 46//26 56//22 57//26
f 64//24 57//26 60//24
f 70//15 74//17 58//17
f 81//7 59//7 74//7
f 75//7 59//7 81//7
f 76//19 60//24 75//19
f 73//18 63//22 62//18
f 60//24 76//19 64//24
f 28//7 76//7 82//7
f 82//8 76//8 28//8
f 51//8 72//8 77//8
f 77//7 72//7 51//7
f 77//26 83//22 66//26
f 66//25 83//21 77//25
f 67//7 66//7 84//7
f 84//8 66//8 67//8
f 67//23 85//20 72//23
f 72//24 85//19 67//24
f 28//7 82//7 78//7
f 78//8 82//8 28//8
f 78//5 86//2 68//2
f 79//1 68//2 86//2
f 79//7 71//7 69//7
f 74//17 70//15 80//15
f 86//7 80//7 71//7
f 81//7 74//7 87//7
f 82//11 75//19 81//11
f 75//19 82//11 76//19
f 77//8 72//8 85//8
f 85//7 72//7 77//7
f 83//22 77//26 88//22
f 88//21 77//25 83//21
f 89//7 66//7 83//7
f 83//8 66//8 89//8
f 84//7 66//7 89//7
f 89//8 66//8 84//8
f 85//20 67//23 84//20
f 84//19 67//24 85//19
f 81//11 78//5 82//11
f 86//2 78//5 87//5
f 86//7 71//7 79//7
f 87//7 74//7 80//7
f 87//7 80//7 86//7
f 78//5 81//11 87//5
f 77//8 85//8 88//8
f 88//7 85//7 77//7
f 88//22 90//18 83//22
f 83//21 90//17 88//21
f 89//7 83//7 91//7
f 91//8 83//8 89//8
f 92//7 84//7 89//7
f 89//8 84//8 92//8
f 84//20 93//12 85//20
f 85//19 93//11 84//19
f 88//8 85//8 93//8
f 93//7 85//7 88//7
f 90//18 88//22 94//18
f 94//17 88//21 90//17
f 91//7 83//7 90//7
f 90//8 83//8 91//8
f 95//23 89//23 91//23
f 91//24 89//24 95//24
f 84//7 92//7 96//7
f 96//8 92//8 84//8
f 89//10 97//10 92//10
f 92//9 97//9 89//9
f 93//12 84//20 96//12
f 96//11 84//19 93//11
f 88//8 93//8 94//8
f 94//7 93//7 88//7
f 98//16 90//18 94//18
f 94//17 90//17 98//15
f 91//7 90//7 99//7
f 99//8 90//8 91//8
f 89//23 95//23 100//23
f 100//24 95//24 89//24
f 99//9 95//9 91//9
f 91//10 95//10 99//10
f 96//7 92//7 99//7
f 99//8 92//8 96//8
f 97//10 89//10 100//10
f 100//9 89//9 97//9
f 97//24 99//24 92//24
f 92//23 99//23 97//23
f 96//12 101//6 93//12
f 93//11 101//5 96//11
f 94//8 93//8 101//8
f 101//7 93//7 94//7
f 90//18 98//16 102//16
f 102//15 98//15 90//17
f 94//8 101//8 98//8
f 98//7 101//7 94//7
f 103//7 99//7 90//7
f 90//8 99//8 103//8
f 95//7 97//7 100//7
f 100//8 97//8 95//8
f 95//9 99//9 104//9
f 104//10 99//10 95//10
f 96//7 99//7 103//7
f 103//8 99//8 96//8
f 99//24 97//24 104//24
f 104//23 97//23 99//23
f 101//6 96//12 103//6
f 103//5 96//11 101//5
f 105//14 102//16 98//16
f 98//15 102//15 105//13
f 103//7 90//7 102//7
f 102//8 90//8 103//8
f 98//8 101//8 106//8
f 106//7 101//7 98//7
f 97//7 95//7 104//7
f 104//8 95//8 97//8
f 107//3 101//6 103//6
f 103//5 101//5 107//2
f 102//16 105//14 108//14
f 108//13 105//13 102//15
f 98//8 106//8 105//8
f 105//7 106//7 98//7
f 103//7 102//7 107//7
f 107//8 102//8 103//8
f 101//6 107//3 106//3
f 106//2 107//2 101//5
f 109//10 108//14 105//14
f 105//13 108//13 109//9
f 107//7 102//7 108//7
f 108//8 102//8 107//8
f 105//8 106//8 110//8
f 110//7 106//7 105//7
f 111//4 106//3 107//3
f 107//2 106//2 111//1
f 108//14 109//10 112//10
f 112//9 109//9 108//13
f 105//8 110//8 109//8
f 109//7 110//7 105//7
f 107//7 108//7 111//7
f 111//8 108//8 107//8
f 106//3 111//4 110//4
f 110//1 111//1 106//2
f 110//4 112//10 109//10
f 109//9 112//9 110//1
f 111//7 108//7 112//7
f 112//8 108//8 111//8
f 112//10 110//4 111//4
f 111//1 110//1 112//9
usemtl material_1_0
f 16//19 21//11 30//19
f 22//24 16//19 32//24
f 17//9 34//9 23//1
f 21//11 29//5 40//11
f 40//11 30//19 21//11
f 30//19 32//24 16//19
f 31//26 22//24 42//26
f 32//24 42//26 22//24
f 23//1 43//1 33//2
f 43//1 23//1 34//9
f 34//9 17//9 44//13
f 35//13 44//13 17//9
f 33//2 54//2 29//5
f 55//5 40//11 29//5
f 30//8 40//8 56//8
f 32//8 30//8 57//8
f 41//22 31//26 59//22
f 42//26 59//22 31//26
f 42//8 32//8 60//8
f 54//2 33//2 43//1
f 34//8 44//8 43//8
f 44//13 35//13 61//15
f 45//15 61//15 35//13
f 38//10 69//10 52//4
f 53//14 71//14 38//10
f 55//5 29//5 54//2
f 40//8 55//8 73//8
f 56//8 40//8 73//8
f 57//8 30//8 56//8
f 60//8 32//8 57//8
f 58//18 41//22 74//18
f 59//22 74//18 41//22
f 59//8 42//8 75//8
f 75//8 42//8 60//8
f 54//8 43//8 44//8
f 61//8 54//8 44//8
f 61//15 45//15 73//17
f 62//17 73//17 45//15
f 63//21 46//25 56//21
f 46//25 64//23 57//25
f 52//4 79//4 68//3
f 79//4 52//4 69//10
f 69//10 38//10 71//14
f 70//16 80//16 53//14
f 71//14 53//14 80//16
f 55//8 54//8 61//8
f 73//8 55//8 61//8
f 56//21 73//17 63//21
f 57//25 56//21 46//25
f 60//23 57//25 64//23
f 58//18 74//18 70//16
f 74//8 59//8 81//8
f 81//8 59//8 75//8
f 75//20 60//23 76//20
f 62//17 63//21 73//17
f 64//23 76//20 60//23
f 68//3 86//3 78//6
f 86//3 68//3 79//4
f 69//8 71//8 79//8
f 80//16 70//16 74//18
f 71//8 80//8 86//8
f 87//8 74//8 81//8
f 81//12 75//20 82//12
f 76//20 82//12 75//20
f 82//12 78//6 81//12
f 87//6 78//6 86//3
f 79//8 71//8 86//8
f 80//8 74//8 87//8
f 86//8 80//8 87//8
f 87//6 81//12 78//6
