# SSTK version 0.8.0
# 5
mtllib original-5.mtl
o Group3/mesh3/mesh3-geometry#mesh3-geometry
v 0.025318 -0.789642 -0.175870
v 0.025318 -0.804751 -0.078309
v 0.025318 -0.804751 -0.175870
v 0.025318 -0.789642 -0.078309
v -0.026821 -0.804751 -0.175870
v 0.015891 -0.789642 -0.168143
v -0.026821 -0.789642 -0.078309
v -0.026821 -0.804751 -0.078309
v -0.026821 -0.789642 -0.175870
v -0.017394 -0.789642 -0.168143
v 0.015891 -0.789642 -0.086036
v -0.017394 -0.796549 -0.168143
v 0.015891 -0.796549 -0.168143
v -0.017394 -0.789642 -0.086036
v -0.017394 -0.796549 -0.086036
v 0.015891 -0.796549 -0.086036
vn 1 0 0
vn -1 0 0
vn 0 -1 0
vn 0 1 0
vn 0 0 -1
vn 0 0 1
usemtl material_0_0
f 1//1 2//1 3//1
f 2//1 1//1 4//1
f 3//2 2//2 1//2
f 4//2 1//2 2//2
f 2//3 5//3 3//3
f 3//4 5//4 2//4
f 5//5 1//5 3//5
f 3//6 1//6 5//6
f 1//4 6//4 4//4
f 4//3 6//3 1//3
f 7//6 2//6 4//6
f 4//5 2//5 7//5
f 5//3 2//3 8//3
f 8//4 2//4 5//4
f 1//5 5//5 9//5
f 9//6 5//6 1//6
f 6//4 1//4 10//4
f 10//3 1//3 6//3
f 4//4 6//4 11//4
f 11//3 6//3 4//3
f 2//6 7//6 8//6
f 8//5 7//5 2//5
f 4//4 11//4 7//4
f 7//3 11//3 4//3
f 7//2 5//2 8//2
f 8//1 5//1 7//1
f 5//2 7//2 9//2
f 9//1 7//1 5//1
f 9//4 10//4 1//4
f 1//3 10//3 9//3
f 12//6 6//6 10//6
f 10//5 6//5 12//5
f 13//2 11//2 6//2
f 6//1 11//1 13//1
f 14//4 7//4 11//4
f 11//3 7//3 14//3
f 10//4 9//4 7//4
f 7//3 9//3 10//3
f 6//6 12//6 13//6
f 13//5 12//5 6//5
f 10//1 15//1 12//1
f 12//2 15//2 10//2
f 11//2 13//2 16//2
f 16//1 13//1 11//1
f 10//4 7//4 14//4
f 14//3 7//3 10//3
f 11//5 15//5 14//5
f 14//6 15//6 11//6
f 15//4 13//4 12//4
f 12//3 13//3 15//3
f 15//1 10//1 14//1
f 14//2 10//2 15//2
f 13//4 15//4 16//4
f 16//3 15//3 13//3
f 15//5 11//5 16//5
f 16//6 11//6 15//6
